<svg viewBox="0 0 1498 400" xmlns="http://www.w3.org/2000/svg"><g><g><g><g><g><line x1="61.953125" y1="378" x2="56.953125" y2="378" style="visibility: inherit;" fill="rgb(0, 0, 0)" stroke="rgb(204, 204, 204)" stroke-width="1px"></line><line x1="61.953125" y1="336" x2="56.953125" y2="336" style="visibility: inherit;" fill="rgb(0, 0, 0)" stroke="rgb(204, 204, 204)" stroke-width="1px"></line><line x1="61.953125" y1="294" x2="56.953125" y2="294" style="visibility: inherit;" fill="rgb(0, 0, 0)" stroke="rgb(204, 204, 204)" stroke-width="1px"></line><line x1="61.953125" y1="252" x2="56.953125" y2="252" style="visibility: inherit;" fill="rgb(0, 0, 0)" stroke="rgb(204, 204, 204)" stroke-width="1px"></line><line x1="61.953125" y1="210" x2="56.953125" y2="210" style="visibility: inherit;" fill="rgb(0, 0, 0)" stroke="rgb(204, 204, 204)" stroke-width="1px"></line><line x1="61.953125" y1="168" x2="56.953125" y2="168" style="visibility: inherit;" fill="rgb(0, 0, 0)" stroke="rgb(204, 204, 204)" stroke-width="1px"></line><line x1="61.953125" y1="126.00000000000001" x2="56.953125" y2="126.00000000000001" style="visibility: inherit;" fill="rgb(0, 0, 0)" stroke="rgb(204, 204, 204)" stroke-width="1px"></line><line x1="61.953125" y1="84.00000000000004" x2="56.953125" y2="84.00000000000004" style="visibility: inherit;" fill="rgb(0, 0, 0)" stroke="rgb(204, 204, 204)" stroke-width="1px"></line><line x1="61.953125" y1="42.00000000000002" x2="56.953125" y2="42.00000000000002" style="visibility: inherit;" fill="rgb(0, 0, 0)" stroke="rgb(204, 204, 204)" stroke-width="1px"></line><line x1="61.953125" y1="0" x2="56.953125" y2="0" style="visibility: inherit;" fill="rgb(0, 0, 0)" stroke="rgb(204, 204, 204)" stroke-width="1px"></line></g><g transform="translate(51.953125, 0)"><text x="0" y="378" dx="0em" dy="0.3em" style="text-anchor: end; visibility: hidden; font-family: Roboto, sans-serif; font-size: 12px; font-weight: 200;" fill="rgb(50, 49, 63)" stroke="none" stroke-width="1px">-0.05</text><text x="0" y="336" dx="0em" dy="0.3em" style="text-anchor: end; visibility: inherit; font-family: Roboto, sans-serif; font-size: 12px; font-weight: 200;" fill="rgb(50, 49, 63)" stroke="none" stroke-width="1px">0</text><text x="0" y="294" dx="0em" dy="0.3em" style="text-anchor: end; visibility: inherit; font-family: Roboto, sans-serif; font-size: 12px; font-weight: 200;" fill="rgb(50, 49, 63)" stroke="none" stroke-width="1px">0.05</text><text x="0" y="252" dx="0em" dy="0.3em" style="text-anchor: end; visibility: inherit; font-family: Roboto, sans-serif; font-size: 12px; font-weight: 200;" fill="rgb(50, 49, 63)" stroke="none" stroke-width="1px">0.1</text><text x="0" y="210" dx="0em" dy="0.3em" style="text-anchor: end; visibility: inherit; font-family: Roboto, sans-serif; font-size: 12px; font-weight: 200;" fill="rgb(50, 49, 63)" stroke="none" stroke-width="1px">0.15</text><text x="0" y="168" dx="0em" dy="0.3em" style="text-anchor: end; visibility: inherit; font-family: Roboto, sans-serif; font-size: 12px; font-weight: 200;" fill="rgb(50, 49, 63)" stroke="none" stroke-width="1px">0.2</text><text x="0" y="126.00000000000001" dx="0em" dy="0.3em" style="text-anchor: end; visibility: inherit; font-family: Roboto, sans-serif; font-size: 12px; font-weight: 200;" fill="rgb(50, 49, 63)" stroke="none" stroke-width="1px">0.25</text><text x="0" y="84.00000000000004" dx="0em" dy="0.3em" style="text-anchor: end; visibility: inherit; font-family: Roboto, sans-serif; font-size: 12px; font-weight: 200;" fill="rgb(50, 49, 63)" stroke="none" stroke-width="1px">0.3</text><text x="0" y="42.00000000000002" dx="0em" dy="0.3em" style="text-anchor: end; visibility: inherit; font-family: Roboto, sans-serif; font-size: 12px; font-weight: 200;" fill="rgb(50, 49, 63)" stroke="none" stroke-width="1px">0.35</text><text x="0" y="0" dx="0em" dy="0.3em" style="text-anchor: end; visibility: hidden; font-family: Roboto, sans-serif; font-size: 12px; font-weight: 200;" fill="rgb(50, 49, 63)" stroke="none" stroke-width="1px">0.4</text></g><line x1="61.953125" y1="0" x2="61.953125" y2="378" fill="rgb(0, 0, 0)" stroke="rgb(204, 204, 204)" stroke-width="1px"></line></g></g><g transform="translate(61, 0)" clip-path="url(#clip_0)"><clipPath id="clip_0"><rect width="1436" height="378"></rect></clipPath><g><g><g><line x1="0" y1="0" x2="0" y2="378" fill="rgb(0, 0, 0)" stroke="rgb(60, 60, 60)" stroke-width="1px" opacity="0.25"></line><line x1="159.56076388888889" y1="0" x2="159.56076388888889" y2="378" fill="rgb(0, 0, 0)" stroke="rgb(60, 60, 60)" stroke-width="1px" opacity="0.25"></line><line x1="319.12152777777777" y1="0" x2="319.12152777777777" y2="378" fill="rgb(0, 0, 0)" stroke="rgb(60, 60, 60)" stroke-width="1px" opacity="0.25"></line><line x1="478.68229166666663" y1="0" x2="478.68229166666663" y2="378" fill="rgb(0, 0, 0)" stroke="rgb(60, 60, 60)" stroke-width="1px" opacity="0.25"></line><line x1="638.2430555555555" y1="0" x2="638.2430555555555" y2="378" fill="rgb(0, 0, 0)" stroke="rgb(60, 60, 60)" stroke-width="1px" opacity="0.25"></line><line x1="797.8038194444445" y1="0" x2="797.8038194444445" y2="378" fill="rgb(0, 0, 0)" stroke="rgb(60, 60, 60)" stroke-width="1px" opacity="0.25"></line><line x1="957.3645833333333" y1="0" x2="957.3645833333333" y2="378" fill="rgb(0, 0, 0)" stroke="rgb(60, 60, 60)" stroke-width="1px" opacity="0.25"></line><line x1="1116.9253472222222" y1="0" x2="1116.9253472222222" y2="378" fill="rgb(0, 0, 0)" stroke="rgb(60, 60, 60)" stroke-width="1px" opacity="0.25"></line><line x1="1276.486111111111" y1="0" x2="1276.486111111111" y2="378" fill="rgb(0, 0, 0)" stroke="rgb(60, 60, 60)" stroke-width="1px" opacity="0.25"></line><line x1="1436.046875" y1="0" x2="1436.046875" y2="378" fill="rgb(0, 0, 0)" stroke="rgb(60, 60, 60)" stroke-width="1px" opacity="0.25"></line></g><g><line x1="0" y1="378" x2="1436.046875" y2="378" fill="rgb(0, 0, 0)" stroke="rgb(60, 60, 60)" stroke-width="1px" opacity="0.25"></line><line x1="0" y1="336" x2="1436.046875" y2="336" fill="rgb(0, 0, 0)" stroke="rgb(60, 60, 60)" stroke-width="1px" opacity="0.25"></line><line x1="0" y1="294" x2="1436.046875" y2="294" fill="rgb(0, 0, 0)" stroke="rgb(60, 60, 60)" stroke-width="1px" opacity="0.25"></line><line x1="0" y1="252" x2="1436.046875" y2="252" fill="rgb(0, 0, 0)" stroke="rgb(60, 60, 60)" stroke-width="1px" opacity="0.25"></line><line x1="0" y1="210" x2="1436.046875" y2="210" fill="rgb(0, 0, 0)" stroke="rgb(60, 60, 60)" stroke-width="1px" opacity="0.25"></line><line x1="0" y1="168" x2="1436.046875" y2="168" fill="rgb(0, 0, 0)" stroke="rgb(60, 60, 60)" stroke-width="1px" opacity="0.25"></line><line x1="0" y1="126.00000000000001" x2="1436.046875" y2="126.00000000000001" fill="rgb(0, 0, 0)" stroke="rgb(60, 60, 60)" stroke-width="1px" opacity="0.25"></line><line x1="0" y1="84.00000000000004" x2="1436.046875" y2="84.00000000000004" fill="rgb(0, 0, 0)" stroke="rgb(60, 60, 60)" stroke-width="1px" opacity="0.25"></line><line x1="0" y1="42.00000000000002" x2="1436.046875" y2="42.00000000000002" fill="rgb(0, 0, 0)" stroke="rgb(60, 60, 60)" stroke-width="1px" opacity="0.25"></line><line x1="0" y1="0" x2="1436.046875" y2="0" fill="rgb(0, 0, 0)" stroke="rgb(60, 60, 60)" stroke-width="1px" opacity="0.25"></line></g></g></g><g><g><line x1="0" y1="336" x2="1436.046875" y2="336" fill="rgb(0, 0, 0)" stroke="rgb(153, 153, 153)" stroke-width="1.5px"></line></g></g><g><g><line x1="159.56076388888889" y1="0" x2="159.56076388888889" y2="378" fill="rgb(0, 0, 0)" stroke="rgb(153, 153, 153)" stroke-width="1.5px"></line></g></g><g><g><g><g><g><path style="fill: none;" stroke="rgb(255, 112, 67)" stroke-width="2px" d="M174.87859722222223,195.99999582767487L187.6434583333333,257.2499980442226L200.40831944444443,283.1428554398673L213.17318055555555,289.05146932547143L225.93804166666666,296.1659198356618L238.70290277777778,295.257152187673L251.46776388888887,283.21725028009894L264.232625,270.51703481641783L276.99748611111113,257.37780758524707L289.7623472222222,243.94546195716208L302.52720833333336,224.69744426383744L315.29206944444445,224.4178556181752L328.05693055555554,218.64316922698964L340.8217916666667,220.7875796489937L353.5866527777778,233.2784202944335L366.3515138888889,235.16758496388363L379.116375,230.6997923937951L391.88123611111115,228.01960089964297L404.64609722222224,232.01200365384318L417.4109583333334,228.8070826788151L430.17581944444447,238.08445262381662L442.94068055555556,243.65074433809087L455.7055416666667,241.39042858556493L468.4704027777778,223.23416945112945L481.23526388888894,212.34046903064356L494.00012499999997,200.20425938108596L506.76498611111106,192.92254684074487L519.5298472222222,194.15352719145477L532.2947083333333,189.29211318850906L545.0595694444444,180.77526502889444L557.8244305555555,164.46515652010686L570.5892916666667,154.67909279943848L583.3541527777777,154.40745499911978L596.1190138888888,148.64447250056966L608.883875,167.58668215704174L621.6487361111111,190.15200719047132L634.4135972222222,203.6912020615701L647.1784583333333,217.41472112100715L659.9433194444445,220.04883034197076L672.7081805555556,221.62929587079307L685.4730416666666,228.1775773608349L698.2379027777778,226.5065440791947L711.0027638888889,225.50392411072525L723.767625,219.3023524626447L736.532486111111,226.78141131147123L749.2973472222222,236.8688462868329L762.0622083333333,248.52130693807075L774.8270694444444,244.31278399585494L787.5919305555555,241.78767023058595L800.3567916666667,217.87260080301422L813.1216527777777,181.12356048163034L825.8865138888889,164.67413595514438L838.6513749999999,154.80448123928332L851.4162361111112,160.08268774221753L864.1810972222222,163.24961164397448L876.9459583333334,159.5497663188113L889.7108194444444,146.12985979128374L902.4756805555556,126.87791654233966L915.2405416666667,109.7267459199703L928.0054027777778,116.23604755198251L940.7702638888888,131.34162786361787L953.535125,140.4049760505989L966.2999861111111,145.84298496278737L979.0648472222223,165.90578930874253L991.8297083333333,177.9434719163155L1004.5945694444445,185.16608148085925L1017.3594305555555,195.09964688579953L1030.1242916666667,201.05978612876365L1042.8891527777778,193.43587034211413L1055.654013888889,200.06152020255243L1068.418875,220.8369116208524L1081.183736111111,222.10214463600934L1093.9485972222221,222.86128444510354L1106.7134583333334,212.11676899813207L1119.4783194444444,200.0700600637352L1132.2431805555555,187.24203503688307L1145.0080416666667,162.74522102212984L1157.7729027777777,153.6471322794919L1170.537763888889,142.58827936769512L1183.302625,119.152963615185L1196.067486111111,99.49177950425508L1208.832347222222,110.09506770255304L1221.5972083333334,99.65703661609972L1234.3620694444444,110.19422196965985L1247.1269305555556,144.51653151286587L1259.8917916666667,176.30991657121743L1272.6566527777777,212.18594910826545L1285.4215138888887,233.71156863049424L1298.186375,246.62694034383154" fill="none"></path></g><g><path stroke="rgb(204, 51, 17)" stroke-width="2px" d="M174.87859722222223,336L187.6434583333333,336L200.40831944444443,323.3949579362358L213.17318055555555,320.79577234727054L225.93804166666666,314.60672967838053L238.70290277777778,288.3384651568319L251.46776388888887,267.62318362203365L264.232625,255.57148779494403L276.99748611111113,231.50030898563452L289.7623472222222,211.57973194449758L302.52720833333336,199.70475576758398L315.29206944444445,170.1585377751288L328.05693055555554,146.86469461627763L340.8217916666667,144.1166629639471L353.5866527777778,148.07185678354136L366.3515138888889,128.03746281496535L379.116375,121.62138698867021L391.88123611111115,117.77243662096544L404.64609722222224,115.46331659109697L417.4109583333334,125.27834847398879L430.17581944444447,125.56701541686576L442.94068055555556,131.3402849050901L455.7055416666667,140.4042418562895L468.4704027777778,151.44259641634892L481.23526388888894,158.06557567777213L494.00012499999997,173.2393696214532L506.76498611111106,187.94363481982964L519.5298472222222,191.16618120191484L532.2947083333333,204.29971122378177L545.0595694444444,200.97982433139862L557.8244305555555,187.7878918476458L570.5892916666667,179.87273347728882L583.3541527777777,163.92363899098666L596.1190138888888,154.3541827866298L608.883875,154.21250900197035L621.6487361111111,154.12750473273343L634.4135972222222,165.2765015734933L647.1784583333333,183.16589900780667L659.9433194444445,199.49953710457194L672.7081805555556,203.69972026564164L685.4730416666666,200.61983048798476L698.2379027777778,204.37189629188043L711.0027638888889,206.6231357730622L723.767625,207.9738794613552L736.532486111111,225.5843271779646L749.2973472222222,224.95059397023718L762.0622083333333,207.77035504635543L774.8270694444444,186.2622123597583L787.5919305555555,190.1573257469774L800.3567916666667,181.29439444675677L813.1216527777777,198.37663433163482L825.8865138888889,208.62597826250868L838.6513749999999,197.9755856223425L851.4162361111112,202.78534937069452L864.1810972222222,200.07120795348493L876.9459583333334,192.8427234369442L889.7108194444444,171.70563372837577L902.4756805555556,153.42338023702297L915.2405416666667,125.65402413677941L928.0054027777778,97.79241114420617L940.7702638888888,64.27544935681082L953.535125,32.96527295194605L966.2999861111111,19.779161768451395L979.0648472222223,28.66749906378699L991.8297083333333,50.80049543284016L1004.5945694444445,80.88029725970416L1017.3594305555555,98.92817835582251L1030.1242916666667,126.55690601213546L1042.8891527777778,154.33414193835125L1055.654013888889,176.6004831602947L1068.418875,178.76028856103278L1081.183736111111,180.0561718014756L1093.9485972222221,152.8336984078812L1106.7134583333334,130.90021971230075L1119.4783194444444,128.94013182738044L1132.2431805555555,133.36407876264227L1145.0080416666667,158.41844558865535L1157.7729027777777,190.25106718630013L1170.537763888889,220.55063947731506L1183.302625,221.93038134988697L1196.067486111111,200.35822780857413L1208.832347222222,170.61493668514447L1221.5972083333334,130.36896334623074L1234.3620694444444,100.62137466987832L1247.1269305555556,77.1728268046431L1259.8917916666667,57.503693412497825L1272.6566527777777,68.10221204206654L1285.4215138888887,68.86132856038401L1298.186375,63.71679379837028" style="fill: none;" fill="none"></path></g></g></g></g><g opacity="0.2"><g><g><g><path stroke="rgb(255, 112, 67)" stroke-width="2px" d="M174.87859722222223,195.99999582767487L187.6434583333333,293.99999937415123L200.40831944444443,307.9999985396862L213.17318055555555,295.99999925494194L225.93804166666666,305.4545464217663L238.70290277777778,293.99999937415123L251.46776388888887,265.99999791383743L264.232625,251.9999987483025L276.99748611111113,237.9999995827675L289.7623472222222,223.99999415874484L302.52720833333336,195.99999582767487L315.29206944444445,223.99999415874484L328.05693055555554,209.99999499320984L340.8217916666667,223.99999415874484L353.5866527777778,251.9999987483025L366.3515138888889,237.9999995827675L379.116375,223.99999415874484L391.88123611111115,223.99999415874484L404.64609722222224,237.9999995827675L417.4109583333334,223.99999415874484L430.17581944444447,251.9999987483025L442.94068055555556,251.9999987483025L455.7055416666667,237.9999995827675L468.4704027777778,195.99999582767487L481.23526388888894,195.99999582767487L494.00012499999997,181.99999666213992L506.76498611111106,181.99999666213992L519.5298472222222,195.99999582767487L532.2947083333333,181.99999666213992L545.0595694444444,167.99999749660492L557.8244305555555,139.999999165535L570.5892916666667,139.999999165535L583.3541527777777,153.99999833106995L596.1190138888888,139.999999165535L608.883875,195.99999582767487L621.6487361111111,223.99999415874484L634.4135972222222,223.99999415874484L647.1784583333333,237.9999995827675L659.9433194444445,223.99999415874484L672.7081805555556,223.99999415874484L685.4730416666666,237.9999995827675L698.2379027777778,223.99999415874484L711.0027638888889,223.99999415874484L723.767625,209.99999499320984L736.532486111111,237.9999995827675L749.2973472222222,251.9999987483025L762.0622083333333,265.99999791383743L774.8270694444444,237.9999995827675L787.5919305555555,237.9999995827675L800.3567916666667,181.99999666213992L813.1216527777777,126.00000000000001L825.8865138888889,139.999999165535L838.6513749999999,139.999999165535L851.4162361111112,167.99999749660492L864.1810972222222,167.99999749660492L876.9459583333334,153.99999833106995L889.7108194444444,126.00000000000001L902.4756805555556,98.00000166893008L915.2405416666667,83.99998998641968L928.0054027777778,126.00000000000001L940.7702638888888,153.99999833106995L953.535125,153.99999833106995L966.2999861111111,153.99999833106995L979.0648472222223,195.99999582767487L991.8297083333333,195.99999582767487L1004.5945694444445,195.99999582767487L1017.3594305555555,209.99999499320984L1030.1242916666667,209.99999499320984L1042.8891527777778,181.99999666213992L1055.654013888889,209.99999499320984L1068.418875,251.9999987483025L1081.183736111111,223.99999415874484L1093.9485972222221,223.99999415874484L1106.7134583333334,195.99999582767487L1119.4783194444444,181.99999666213992L1132.2431805555555,167.99999749660492L1145.0080416666667,126.00000000000001L1157.7729027777777,139.999999165535L1170.537763888889,126.00000000000001L1183.302625,83.99998998641968L1196.067486111111,70.00000333786011L1208.832347222222,126.00000000000001L1221.5972083333334,83.99998998641968L1234.3620694444444,126.00000000000001L1247.1269305555556,195.99999582767487L1259.8917916666667,223.99999415874484L1272.6566527777777,265.99999791383743L1285.4215138888887,265.99999791383743L1298.186375,265.99999791383743" style="fill: none;" fill="none"></path></g><g><path stroke="rgb(204, 51, 17)" stroke-width="2px" d="M174.87859722222223,336L187.6434583333333,336L200.40831944444443,311.29411755502224L213.17318055555555,317.7391300946474L225.93804166666666,306.5263155698776L238.70290277777778,251.9999987483025L251.46776388888887,237.9999995827675L264.232625,237.9999995827675L276.99748611111113,195.99999582767487L289.7623472222222,181.99999666213992L302.52720833333336,181.99999666213992L315.29206944444445,126.00000000000001L328.05693055555554,111.99998831748965L340.8217916666667,139.999999165535L353.5866527777778,153.99999833106995L366.3515138888889,98.00000166893008L379.116375,111.99998831748965L391.88123611111115,111.99998831748965L404.64609722222224,111.99998831748965L417.4109583333334,139.999999165535L430.17581944444447,126.00000000000001L442.94068055555556,139.999999165535L455.7055416666667,153.99999833106995L468.4704027777778,167.99999749660492L481.23526388888894,167.99999749660492L494.00012499999997,195.99999582767487L506.76498611111106,209.99999499320984L519.5298472222222,195.99999582767487L532.2947083333333,223.99999415874484L545.0595694444444,195.99999582767487L557.8244305555555,167.99999749660492L570.5892916666667,167.99999749660492L583.3541527777777,139.999999165535L596.1190138888888,139.999999165535L608.883875,153.99999833106995L621.6487361111111,153.99999833106995L634.4135972222222,181.99999666213992L647.1784583333333,209.99999499320984L659.9433194444445,223.99999415874484L672.7081805555556,209.99999499320984L685.4730416666666,195.99999582767487L698.2379027777778,209.99999499320984L711.0027638888889,209.99999499320984L723.767625,209.99999499320984L736.532486111111,251.9999987483025L749.2973472222222,223.99999415874484L762.0622083333333,181.99999666213992L774.8270694444444,153.99999833106995L787.5919305555555,195.99999582767487L800.3567916666667,167.99999749660492L813.1216527777777,223.99999415874484L825.8865138888889,223.99999415874484L838.6513749999999,181.99999666213992L851.4162361111112,209.99999499320984L864.1810972222222,195.99999582767487L876.9459583333334,181.99999666213992L889.7108194444444,139.999999165535L902.4756805555556,126.00000000000001L915.2405416666667,83.99998998641968L928.0054027777778,55.99999165534975L940.7702638888888,14.000006675720243L953.535125,-13.999991655349731L966.2999861111111,-0.0000050067901145034455L979.0648472222223,42.000005006790175L991.8297083333333,83.99998998641968L1004.5945694444445,126.00000000000001L1017.3594305555555,126.00000000000001L1030.1242916666667,167.99999749660492L1042.8891527777778,195.99999582767487L1055.654013888889,209.99999499320984L1068.418875,181.99999666213992L1081.183736111111,181.99999666213992L1093.9485972222221,111.99998831748965L1106.7134583333334,98.00000166893008L1119.4783194444444,126.00000000000001L1132.2431805555555,139.999999165535L1145.0080416666667,195.99999582767487L1157.7729027777777,237.9999995827675L1170.537763888889,265.99999791383743L1183.302625,223.99999415874484L1196.067486111111,167.99999749660492L1208.832347222222,126.00000000000001L1221.5972083333334,70.00000333786011L1234.3620694444444,55.99999165534975L1247.1269305555556,42.000005006790175L1259.8917916666667,27.999993324279817L1272.6566527777777,83.99998998641968L1285.4215138888887,70.00000333786011L1298.186375,55.99999165534975" style="fill: none;" fill="none"></path></g></g></g></g></g></g><g transform="translate(61, 378)" clip-path="url(#clip_1)"><clipPath id="clip_1"><rect width="1436" height="22"></rect></clipPath><g><g><line x1="0" y1="0" x2="0" y2="5" style="visibility: inherit;" fill="rgb(0, 0, 0)" stroke="rgb(204, 204, 204)" stroke-width="1px"></line><line x1="159.56076388888889" y1="0" x2="159.56076388888889" y2="5" style="visibility: inherit;" fill="rgb(0, 0, 0)" stroke="rgb(204, 204, 204)" stroke-width="1px"></line><line x1="319.12152777777777" y1="0" x2="319.12152777777777" y2="5" style="visibility: inherit;" fill="rgb(0, 0, 0)" stroke="rgb(204, 204, 204)" stroke-width="1px"></line><line x1="478.68229166666663" y1="0" x2="478.68229166666663" y2="5" style="visibility: inherit;" fill="rgb(0, 0, 0)" stroke="rgb(204, 204, 204)" stroke-width="1px"></line><line x1="638.2430555555555" y1="0" x2="638.2430555555555" y2="5" style="visibility: inherit;" fill="rgb(0, 0, 0)" stroke="rgb(204, 204, 204)" stroke-width="1px"></line><line x1="797.8038194444445" y1="0" x2="797.8038194444445" y2="5" style="visibility: inherit;" fill="rgb(0, 0, 0)" stroke="rgb(204, 204, 204)" stroke-width="1px"></line><line x1="957.3645833333333" y1="0" x2="957.3645833333333" y2="5" style="visibility: inherit;" fill="rgb(0, 0, 0)" stroke="rgb(204, 204, 204)" stroke-width="1px"></line><line x1="1116.9253472222222" y1="0" x2="1116.9253472222222" y2="5" style="visibility: inherit;" fill="rgb(0, 0, 0)" stroke="rgb(204, 204, 204)" stroke-width="1px"></line><line x1="1276.486111111111" y1="0" x2="1276.486111111111" y2="5" style="visibility: inherit;" fill="rgb(0, 0, 0)" stroke="rgb(204, 204, 204)" stroke-width="1px"></line><line x1="1436.046875" y1="0" x2="1436.046875" y2="5" style="visibility: inherit;" fill="rgb(0, 0, 0)" stroke="rgb(204, 204, 204)" stroke-width="1px"></line></g><g transform="translate(0, 8)"><text x="0" y="0" dx="0em" dy="0.95em" style="text-anchor: middle; visibility: hidden; font-family: Roboto, sans-serif; font-size: 12px; font-weight: 200;" fill="rgb(50, 49, 63)" stroke="none" stroke-width="1px">-50k</text><text x="159.56076388888889" y="0" dx="0em" dy="0.95em" style="text-anchor: middle; visibility: inherit; font-family: Roboto, sans-serif; font-size: 12px; font-weight: 200;" fill="rgb(50, 49, 63)" stroke="none" stroke-width="1px">0</text><text x="319.12152777777777" y="0" dx="0em" dy="0.95em" style="text-anchor: middle; visibility: inherit; font-family: Roboto, sans-serif; font-size: 12px; font-weight: 200;" fill="rgb(50, 49, 63)" stroke="none" stroke-width="1px">50k</text><text x="478.68229166666663" y="0" dx="0em" dy="0.95em" style="text-anchor: middle; visibility: inherit; font-family: Roboto, sans-serif; font-size: 12px; font-weight: 200;" fill="rgb(50, 49, 63)" stroke="none" stroke-width="1px">100k</text><text x="638.2430555555555" y="0" dx="0em" dy="0.95em" style="text-anchor: middle; visibility: inherit; font-family: Roboto, sans-serif; font-size: 12px; font-weight: 200;" fill="rgb(50, 49, 63)" stroke="none" stroke-width="1px">150k</text><text x="797.8038194444445" y="0" dx="0em" dy="0.95em" style="text-anchor: middle; visibility: inherit; font-family: Roboto, sans-serif; font-size: 12px; font-weight: 200;" fill="rgb(50, 49, 63)" stroke="none" stroke-width="1px">200k</text><text x="957.3645833333333" y="0" dx="0em" dy="0.95em" style="text-anchor: middle; visibility: inherit; font-family: Roboto, sans-serif; font-size: 12px; font-weight: 200;" fill="rgb(50, 49, 63)" stroke="none" stroke-width="1px">250k</text><text x="1116.9253472222222" y="0" dx="0em" dy="0.95em" style="text-anchor: middle; visibility: inherit; font-family: Roboto, sans-serif; font-size: 12px; font-weight: 200;" fill="rgb(50, 49, 63)" stroke="none" stroke-width="1px">300k</text><text x="1276.486111111111" y="0" dx="0em" dy="0.95em" style="text-anchor: middle; visibility: inherit; font-family: Roboto, sans-serif; font-size: 12px; font-weight: 200;" fill="rgb(50, 49, 63)" stroke="none" stroke-width="1px">350k</text><text x="1436.046875" y="0" dx="0em" dy="0.95em" style="text-anchor: middle; visibility: hidden; font-family: Roboto, sans-serif; font-size: 12px; font-weight: 200;" fill="rgb(50, 49, 63)" stroke="none" stroke-width="1px">400k</text></g><line x1="0" y1="0" x2="1436.046875" y2="0" fill="rgb(0, 0, 0)" stroke="rgb(204, 204, 204)" stroke-width="1px"></line></g></g></g></g></svg>