<svg viewBox="0 0 1498 400" xmlns="http://www.w3.org/2000/svg"><g><g><g><g><g><line x1="30.78125" y1="378" x2="25.78125" y2="378" style="visibility: inherit;" fill="rgb(0, 0, 0)" stroke="rgb(204, 204, 204)" stroke-width="1px"></line><line x1="30.78125" y1="352.8" x2="25.78125" y2="352.8" style="visibility: inherit;" fill="rgb(0, 0, 0)" stroke="rgb(204, 204, 204)" stroke-width="1px"></line><line x1="30.78125" y1="327.6" x2="25.78125" y2="327.6" style="visibility: inherit;" fill="rgb(0, 0, 0)" stroke="rgb(204, 204, 204)" stroke-width="1px"></line><line x1="30.78125" y1="302.40000000000003" x2="25.78125" y2="302.40000000000003" style="visibility: inherit;" fill="rgb(0, 0, 0)" stroke="rgb(204, 204, 204)" stroke-width="1px"></line><line x1="30.78125" y1="277.20000000000005" x2="25.78125" y2="277.20000000000005" style="visibility: inherit;" fill="rgb(0, 0, 0)" stroke="rgb(204, 204, 204)" stroke-width="1px"></line><line x1="30.78125" y1="252.00000000000003" x2="25.78125" y2="252.00000000000003" style="visibility: inherit;" fill="rgb(0, 0, 0)" stroke="rgb(204, 204, 204)" stroke-width="1px"></line><line x1="30.78125" y1="226.79999999999998" x2="25.78125" y2="226.79999999999998" style="visibility: inherit;" fill="rgb(0, 0, 0)" stroke="rgb(204, 204, 204)" stroke-width="1px"></line><line x1="30.78125" y1="201.6" x2="25.78125" y2="201.6" style="visibility: inherit;" fill="rgb(0, 0, 0)" stroke="rgb(204, 204, 204)" stroke-width="1px"></line><line x1="30.78125" y1="176.4" x2="25.78125" y2="176.4" style="visibility: inherit;" fill="rgb(0, 0, 0)" stroke="rgb(204, 204, 204)" stroke-width="1px"></line><line x1="30.78125" y1="151.20000000000002" x2="25.78125" y2="151.20000000000002" style="visibility: inherit;" fill="rgb(0, 0, 0)" stroke="rgb(204, 204, 204)" stroke-width="1px"></line><line x1="30.78125" y1="126.00000000000001" x2="25.78125" y2="126.00000000000001" style="visibility: inherit;" fill="rgb(0, 0, 0)" stroke="rgb(204, 204, 204)" stroke-width="1px"></line><line x1="30.78125" y1="100.80000000000003" x2="25.78125" y2="100.80000000000003" style="visibility: inherit;" fill="rgb(0, 0, 0)" stroke="rgb(204, 204, 204)" stroke-width="1px"></line><line x1="30.78125" y1="75.59999999999998" x2="25.78125" y2="75.59999999999998" style="visibility: inherit;" fill="rgb(0, 0, 0)" stroke="rgb(204, 204, 204)" stroke-width="1px"></line><line x1="30.78125" y1="50.39999999999999" x2="25.78125" y2="50.39999999999999" style="visibility: inherit;" fill="rgb(0, 0, 0)" stroke="rgb(204, 204, 204)" stroke-width="1px"></line><line x1="30.78125" y1="25.199999999999996" x2="25.78125" y2="25.199999999999996" style="visibility: inherit;" fill="rgb(0, 0, 0)" stroke="rgb(204, 204, 204)" stroke-width="1px"></line><line x1="30.78125" y1="0" x2="25.78125" y2="0" style="visibility: inherit;" fill="rgb(0, 0, 0)" stroke="rgb(204, 204, 204)" stroke-width="1px"></line></g><g transform="translate(20.78125, 0)"><text x="0" y="378" dx="0em" dy="0.3em" style="text-anchor: end; visibility: hidden; font-family: Roboto, sans-serif; font-size: 12px; font-weight: 200;" fill="rgb(50, 49, 63)" stroke="none" stroke-width="1px">-4</text><text x="0" y="352.8" dx="0em" dy="0.3em" style="text-anchor: end; visibility: inherit; font-family: Roboto, sans-serif; font-size: 12px; font-weight: 200;" fill="rgb(50, 49, 63)" stroke="none" stroke-width="1px">-2</text><text x="0" y="327.6" dx="0em" dy="0.3em" style="text-anchor: end; visibility: inherit; font-family: Roboto, sans-serif; font-size: 12px; font-weight: 200;" fill="rgb(50, 49, 63)" stroke="none" stroke-width="1px">0</text><text x="0" y="302.40000000000003" dx="0em" dy="0.3em" style="text-anchor: end; visibility: inherit; font-family: Roboto, sans-serif; font-size: 12px; font-weight: 200;" fill="rgb(50, 49, 63)" stroke="none" stroke-width="1px">2</text><text x="0" y="277.20000000000005" dx="0em" dy="0.3em" style="text-anchor: end; visibility: inherit; font-family: Roboto, sans-serif; font-size: 12px; font-weight: 200;" fill="rgb(50, 49, 63)" stroke="none" stroke-width="1px">4</text><text x="0" y="252.00000000000003" dx="0em" dy="0.3em" style="text-anchor: end; visibility: inherit; font-family: Roboto, sans-serif; font-size: 12px; font-weight: 200;" fill="rgb(50, 49, 63)" stroke="none" stroke-width="1px">6</text><text x="0" y="226.79999999999998" dx="0em" dy="0.3em" style="text-anchor: end; visibility: inherit; font-family: Roboto, sans-serif; font-size: 12px; font-weight: 200;" fill="rgb(50, 49, 63)" stroke="none" stroke-width="1px">8</text><text x="0" y="201.6" dx="0em" dy="0.3em" style="text-anchor: end; visibility: inherit; font-family: Roboto, sans-serif; font-size: 12px; font-weight: 200;" fill="rgb(50, 49, 63)" stroke="none" stroke-width="1px">10</text><text x="0" y="176.4" dx="0em" dy="0.3em" style="text-anchor: end; visibility: inherit; font-family: Roboto, sans-serif; font-size: 12px; font-weight: 200;" fill="rgb(50, 49, 63)" stroke="none" stroke-width="1px">12</text><text x="0" y="151.20000000000002" dx="0em" dy="0.3em" style="text-anchor: end; visibility: inherit; font-family: Roboto, sans-serif; font-size: 12px; font-weight: 200;" fill="rgb(50, 49, 63)" stroke="none" stroke-width="1px">14</text><text x="0" y="126.00000000000001" dx="0em" dy="0.3em" style="text-anchor: end; visibility: inherit; font-family: Roboto, sans-serif; font-size: 12px; font-weight: 200;" fill="rgb(50, 49, 63)" stroke="none" stroke-width="1px">16</text><text x="0" y="100.80000000000003" dx="0em" dy="0.3em" style="text-anchor: end; visibility: inherit; font-family: Roboto, sans-serif; font-size: 12px; font-weight: 200;" fill="rgb(50, 49, 63)" stroke="none" stroke-width="1px">18</text><text x="0" y="75.59999999999998" dx="0em" dy="0.3em" style="text-anchor: end; visibility: inherit; font-family: Roboto, sans-serif; font-size: 12px; font-weight: 200;" fill="rgb(50, 49, 63)" stroke="none" stroke-width="1px">20</text><text x="0" y="50.39999999999999" dx="0em" dy="0.3em" style="text-anchor: end; visibility: inherit; font-family: Roboto, sans-serif; font-size: 12px; font-weight: 200;" fill="rgb(50, 49, 63)" stroke="none" stroke-width="1px">22</text><text x="0" y="25.199999999999996" dx="0em" dy="0.3em" style="text-anchor: end; visibility: inherit; font-family: Roboto, sans-serif; font-size: 12px; font-weight: 200;" fill="rgb(50, 49, 63)" stroke="none" stroke-width="1px">24</text><text x="0" y="0" dx="0em" dy="0.3em" style="text-anchor: end; visibility: hidden; font-family: Roboto, sans-serif; font-size: 12px; font-weight: 200;" fill="rgb(50, 49, 63)" stroke="none" stroke-width="1px">26</text></g><line x1="30.78125" y1="0" x2="30.78125" y2="378" fill="rgb(0, 0, 0)" stroke="rgb(204, 204, 204)" stroke-width="1px"></line></g></g><g transform="translate(30, 0)" clip-path="url(#clip_0)"><clipPath id="clip_0"><rect width="1467" height="378"></rect></clipPath><g><g><g><line x1="0" y1="0" x2="0" y2="378" fill="rgb(0, 0, 0)" stroke="rgb(60, 60, 60)" stroke-width="1px" opacity="0.25"></line><line x1="163.02430555555554" y1="0" x2="163.02430555555554" y2="378" fill="rgb(0, 0, 0)" stroke="rgb(60, 60, 60)" stroke-width="1px" opacity="0.25"></line><line x1="326.0486111111111" y1="0" x2="326.0486111111111" y2="378" fill="rgb(0, 0, 0)" stroke="rgb(60, 60, 60)" stroke-width="1px" opacity="0.25"></line><line x1="489.07291666666663" y1="0" x2="489.07291666666663" y2="378" fill="rgb(0, 0, 0)" stroke="rgb(60, 60, 60)" stroke-width="1px" opacity="0.25"></line><line x1="652.0972222222222" y1="0" x2="652.0972222222222" y2="378" fill="rgb(0, 0, 0)" stroke="rgb(60, 60, 60)" stroke-width="1px" opacity="0.25"></line><line x1="815.1215277777778" y1="0" x2="815.1215277777778" y2="378" fill="rgb(0, 0, 0)" stroke="rgb(60, 60, 60)" stroke-width="1px" opacity="0.25"></line><line x1="978.1458333333333" y1="0" x2="978.1458333333333" y2="378" fill="rgb(0, 0, 0)" stroke="rgb(60, 60, 60)" stroke-width="1px" opacity="0.25"></line><line x1="1141.170138888889" y1="0" x2="1141.170138888889" y2="378" fill="rgb(0, 0, 0)" stroke="rgb(60, 60, 60)" stroke-width="1px" opacity="0.25"></line><line x1="1304.1944444444443" y1="0" x2="1304.1944444444443" y2="378" fill="rgb(0, 0, 0)" stroke="rgb(60, 60, 60)" stroke-width="1px" opacity="0.25"></line><line x1="1467.21875" y1="0" x2="1467.21875" y2="378" fill="rgb(0, 0, 0)" stroke="rgb(60, 60, 60)" stroke-width="1px" opacity="0.25"></line></g><g><line x1="0" y1="378" x2="1467.21875" y2="378" fill="rgb(0, 0, 0)" stroke="rgb(60, 60, 60)" stroke-width="1px" opacity="0.25"></line><line x1="0" y1="352.8" x2="1467.21875" y2="352.8" fill="rgb(0, 0, 0)" stroke="rgb(60, 60, 60)" stroke-width="1px" opacity="0.25"></line><line x1="0" y1="327.6" x2="1467.21875" y2="327.6" fill="rgb(0, 0, 0)" stroke="rgb(60, 60, 60)" stroke-width="1px" opacity="0.25"></line><line x1="0" y1="302.40000000000003" x2="1467.21875" y2="302.40000000000003" fill="rgb(0, 0, 0)" stroke="rgb(60, 60, 60)" stroke-width="1px" opacity="0.25"></line><line x1="0" y1="277.20000000000005" x2="1467.21875" y2="277.20000000000005" fill="rgb(0, 0, 0)" stroke="rgb(60, 60, 60)" stroke-width="1px" opacity="0.25"></line><line x1="0" y1="252.00000000000003" x2="1467.21875" y2="252.00000000000003" fill="rgb(0, 0, 0)" stroke="rgb(60, 60, 60)" stroke-width="1px" opacity="0.25"></line><line x1="0" y1="226.79999999999998" x2="1467.21875" y2="226.79999999999998" fill="rgb(0, 0, 0)" stroke="rgb(60, 60, 60)" stroke-width="1px" opacity="0.25"></line><line x1="0" y1="201.6" x2="1467.21875" y2="201.6" fill="rgb(0, 0, 0)" stroke="rgb(60, 60, 60)" stroke-width="1px" opacity="0.25"></line><line x1="0" y1="176.4" x2="1467.21875" y2="176.4" fill="rgb(0, 0, 0)" stroke="rgb(60, 60, 60)" stroke-width="1px" opacity="0.25"></line><line x1="0" y1="151.20000000000002" x2="1467.21875" y2="151.20000000000002" fill="rgb(0, 0, 0)" stroke="rgb(60, 60, 60)" stroke-width="1px" opacity="0.25"></line><line x1="0" y1="126.00000000000001" x2="1467.21875" y2="126.00000000000001" fill="rgb(0, 0, 0)" stroke="rgb(60, 60, 60)" stroke-width="1px" opacity="0.25"></line><line x1="0" y1="100.80000000000003" x2="1467.21875" y2="100.80000000000003" fill="rgb(0, 0, 0)" stroke="rgb(60, 60, 60)" stroke-width="1px" opacity="0.25"></line><line x1="0" y1="75.59999999999998" x2="1467.21875" y2="75.59999999999998" fill="rgb(0, 0, 0)" stroke="rgb(60, 60, 60)" stroke-width="1px" opacity="0.25"></line><line x1="0" y1="50.39999999999999" x2="1467.21875" y2="50.39999999999999" fill="rgb(0, 0, 0)" stroke="rgb(60, 60, 60)" stroke-width="1px" opacity="0.25"></line><line x1="0" y1="25.199999999999996" x2="1467.21875" y2="25.199999999999996" fill="rgb(0, 0, 0)" stroke="rgb(60, 60, 60)" stroke-width="1px" opacity="0.25"></line><line x1="0" y1="0" x2="1467.21875" y2="0" fill="rgb(0, 0, 0)" stroke="rgb(60, 60, 60)" stroke-width="1px" opacity="0.25"></line></g></g></g><g><g><line x1="0" y1="327.6" x2="1467.21875" y2="327.6" fill="rgb(0, 0, 0)" stroke="rgb(153, 153, 153)" stroke-width="1.5px"></line></g></g><g><g><line x1="163.02430555555554" y1="0" x2="163.02430555555554" y2="378" fill="rgb(0, 0, 0)" stroke="rgb(153, 153, 153)" stroke-width="1.5px"></line></g></g><g><g><g><g><g><path stroke="rgb(255, 112, 67)" stroke-width="2px" d="M178.6746388888889,252.00000000000003L191.71658333333332,252.00000000000003L204.75852777777777,252.00000000000003L217.8004722222222,246.20955882352942L230.84241666666665,243.25607217210268L243.8843611111111,241.63815789473682L256.92630555555553,240.71711132766202L269.96825,235.05516788868525L283.01019444444444,216.44555874962887L296.05213888888886,195.25922961917777L309.09408333333334,177.57136672565966L322.13602777777777,166.9998080532136L335.17797222222225,160.67161977885544L348.2199166666667,151.83604794530282L361.2618611111111,146.5391382397735L374.3038055555556,143.36258680379137L387.34575,141.45722956894446L400.3876944444445,140.31422165753273L413.4296388888889,159.78971975296523L426.47158333333334,156.3537062256806L439.5135277777778,154.29217851177663L452.55547222222225,132.895025474092L465.5974166666667,115.01687409529046L478.63936111111116,104.2900736295031L491.6813055555556,97.85402587983272L504.72324999999995,93.99240894068676L517.7651944444444,142.07549457698713L530.8071388888889,170.92531446269996L543.8490833333333,188.2351950555586L556.8910277777777,198.62111932939212L569.9329722222222,159.492666407467L582.9749166666667,136.01559797601982L596.0168611111111,121.92935811296628L609.0588055555555,113.47761462562735L622.10075,138.64656920804856L635.1426944444444,153.74794168059114L648.1846388888889,162.80876506442894L661.2265833333333,158.16525902141512L674.2685277777778,155.37915540664187L687.3104722222222,153.7074932417505L700.3524166666666,152.7044959442459L713.3943611111112,167.22269757353413L726.4363055555556,150.73361853935947L739.47825,140.84017112190168L752.5201944444443,134.904102672524L765.5621388888889,131.3424616032923L778.6040833333333,129.20547696189539L791.6460277777778,82.56328617609006L804.6879722222221,54.57797170527706L817.7299166666667,37.786783023030495L830.7718611111111,27.71206981376944L843.8138055555556,21.667241888244128L856.85575,98.68034513308086L869.8976944444445,144.88820707989694L882.9396388888888,167.57292424795244L895.9815833333333,161.02375454876895L909.0235277777778,157.0942527292605L922.0654722222223,139.61655163755393L935.1074166666666,129.12993098253145L948.1493611111111,122.83795858951859L961.1913055555556,119.062775153711L974.23325,101.67766509222632L987.2751944444444,91.24659905533568L1000.317138888889,84.9879594332014L1013.3590833333333,81.23277565992082L1026.401027777778,124.33966539595258L1039.4429722222221,150.20379923757153L1052.4849166666668,165.722279542543L1065.5268611111112,175.0333677255258L1078.5688055555556,180.62002063531548L1091.61075,183.97201238118927L1104.6526944444445,185.98320742871354L1117.694638888889,151.90992445722813L1130.7365833333333,131.4659546743369L1143.7785277777778,119.19957280460213L1156.8204722222222,111.83974368276127L1169.8624166666666,107.42384620965676L1182.904361111111,124.93430772579404L1195.9463055555555,135.44058463547645L1208.9882499999999,151.82435078128586L1222.0301944444445,161.65461046877152L1235.0721388888887,167.5527662812629L1248.1140833333334,171.09165976875775L1261.1560277777778,173.21499586125464L1274.1979722222222,174.48899751675276L1287.2399166666667,190.37339851005166L1300.281861111111,209.98403910603102L1313.3238055555555,221.75042346361863L1326.36575,228.81025407817117" style="fill: none;" fill="none"></path></g><g><path stroke="rgb(204, 51, 17)" stroke-width="2px" d="M178.6746388888889,289.79999999999995L191.71658333333332,274.05L204.75852777777777,269.2285714285714L217.8004722222222,261.3110294117647L230.84241666666665,240.87772380291463L243.8843611111111,203.25112781954886L256.92630555555553,181.83105164739655L269.96825,169.36932177970337L283.01019444444444,162.0276054828642L296.05213888888886,157.67021582069717L309.09408333333334,180.36446355508002L322.13602777777777,173.72422377639094L335.17797222222225,169.7493427954103L348.2199166666667,142.14797609695387L361.2618611111111,90.30440959165468L374.3038055555556,59.2138747734124L387.34575,40.565168261005205L400.3876944444445,29.37796478470286L413.4296388888889,22.666369893249914L426.47158333333334,64.00133320769983L439.5135277777778,88.80134396123172L452.55547222222225,118.80120123997199L465.5974166666667,136.80086289275135L478.63936111111116,122.40044950100072L491.6813055555556,103.68021647843875L504.72324999999995,92.44811072714317L517.7651944444444,85.70885953872722L530.8071388888889,81.66531324011794L543.8490833333333,79.23918705014873L556.8910277777777,82.82351302249022L569.9329722222222,84.97410809875845L582.9749166666667,121.54446776976606L596.0168611111111,143.48668170964348L609.0588055555555,156.65200940298828L622.10075,164.55120577758578L635.1426944444444,169.29072351543684L648.1846388888889,172.13443412686084L661.2265833333333,188.96066053859553L674.2685277777778,199.0563963456498L687.3104722222222,205.11383781548713L700.3524166666666,173.46830266391103L713.3943611111112,154.48098158920934L726.4363055555556,107.80858894004945L739.47825,79.80515335917828L752.5201944444443,63.00309201376049L765.5621388888889,52.921855207627544L778.6040833333333,46.873113124350155L791.6460277777778,63.403867874981266L804.6879722222221,68.28232072505445L817.7299166666667,71.2093924350563L830.7718611111111,72.9656354610423L843.8138055555556,74.01938127662847L856.85575,84.73162876599574L869.8976944444445,91.15897725960419L882.9396388888888,95.01538635576489L895.9815833333333,107.40923181346362L909.0235277777778,140.04553908808558L922.0654722222223,159.627323452854L935.1074166666666,166.33639407171293L948.1493611111111,155.2418364430272L961.1913055555556,148.5851018658162L974.23325,144.5910611194896L987.2751944444444,142.19463667169376L1000.317138888889,155.87678200301636L1013.3590833333333,174.16606920180985L1026.401027777778,185.13964152108596L1039.4429722222221,181.64378491265157L1052.4849166666668,179.54627094759098L1065.5268611111112,178.28776256855457L1078.5688055555556,177.53265754113272L1091.61075,156.9195945246796L1104.6526944444445,144.55175671480774L1117.694638888889,137.1310540288847L1130.7365833333333,132.6786324173308L1143.7785277777778,145.1271794503985L1156.8204722222222,152.59630767023913L1169.8624166666666,157.07778460214345L1182.904361111111,159.76667076128604L1195.9463055555555,166.42000245677164L1208.9882499999999,170.41200147406298L1222.0301944444445,152.6472008844378L1235.0721388888887,141.9883205306627L1248.1140833333334,110.39299231839759L1261.1560277777778,91.43579539103854L1274.1979722222222,80.0614772346231L1287.2399166666667,73.23688634077385L1300.281861111111,119.54213180446432L1313.3238055555555,152.36527908267863L1326.36575,172.05916744960714" style="fill: none;" fill="none"></path></g></g></g></g><g opacity="0.2"><g><g><g><path stroke="rgb(255, 112, 67)" stroke-width="2px" d="M178.6746388888889,252.00000000000003L191.71658333333332,252.00000000000003L204.75852777777777,252.00000000000003L217.8004722222222,239.39999999999998L230.84241666666665,239.39999999999998L243.8843611111111,239.39999999999998L256.92630555555553,239.39999999999998L269.96825,226.79999999999998L283.01019444444444,189L296.05213888888886,163.8L309.09408333333334,151.20000000000002L322.13602777777777,151.20000000000002L335.17797222222225,151.20000000000002L348.2199166666667,138.60000000000002L361.2618611111111,138.60000000000002L374.3038055555556,138.60000000000002L387.34575,138.60000000000002L400.3876944444445,138.60000000000002L413.4296388888889,189L426.47158333333334,151.20000000000002L439.5135277777778,151.20000000000002L452.55547222222225,100.80000000000003L465.5974166666667,88.19999999999997L478.63936111111116,88.19999999999997L491.6813055555556,88.19999999999997L504.72324999999995,88.19999999999997L517.7651944444444,214.2L530.8071388888889,214.2L543.8490833333333,214.2L556.8910277777777,214.2L569.9329722222222,100.80000000000003L582.9749166666667,100.80000000000003L596.0168611111111,100.80000000000003L609.0588055555555,100.80000000000003L622.10075,176.4L635.1426944444444,176.4L648.1846388888889,176.4L661.2265833333333,151.20000000000002L674.2685277777778,151.20000000000002L687.3104722222222,151.20000000000002L700.3524166666666,151.20000000000002L713.3943611111112,189L726.4363055555556,126.00000000000001L739.47825,126.00000000000001L752.5201944444443,126.00000000000001L765.5621388888889,126.00000000000001L778.6040833333333,126.00000000000001L791.6460277777778,12.599999999999998L804.6879722222221,12.599999999999998L817.7299166666667,12.599999999999998L830.7718611111111,12.599999999999998L843.8138055555556,12.599999999999998L856.85575,214.2L869.8976944444445,214.2L882.9396388888888,201.6L895.9815833333333,151.20000000000002L909.0235277777778,151.20000000000002L922.0654722222223,113.40000000000002L935.1074166666666,113.40000000000002L948.1493611111111,113.40000000000002L961.1913055555556,113.40000000000002L974.23325,75.59999999999998L987.2751944444444,75.59999999999998L1000.317138888889,75.59999999999998L1013.3590833333333,75.59999999999998L1026.401027777778,189L1039.4429722222221,189L1052.4849166666668,189L1065.5268611111112,189L1078.5688055555556,189L1091.61075,189L1104.6526944444445,189L1117.694638888889,100.80000000000003L1130.7365833333333,100.80000000000003L1143.7785277777778,100.80000000000003L1156.8204722222222,100.80000000000003L1169.8624166666666,100.80000000000003L1182.904361111111,151.20000000000002L1195.9463055555555,151.20000000000002L1208.9882499999999,176.4L1222.0301944444445,176.4L1235.0721388888887,176.4L1248.1140833333334,176.4L1261.1560277777778,176.4L1274.1979722222222,176.4L1287.2399166666667,214.2L1300.281861111111,239.39999999999998L1313.3238055555555,239.39999999999998L1326.36575,239.39999999999998" style="fill: none;" fill="none"></path></g><g><path stroke="rgb(204, 51, 17)" stroke-width="2px" d="M178.6746388888889,289.79999999999995L191.71658333333332,264.59999999999997L204.75852777777777,264.59999999999997L217.8004722222222,252.00000000000003L230.84241666666665,214.2L243.8843611111111,151.20000000000002L256.92630555555553,151.20000000000002L269.96825,151.20000000000002L283.01019444444444,151.20000000000002L296.05213888888886,151.20000000000002L309.09408333333334,214.2L322.13602777777777,163.8L335.17797222222225,163.8L348.2199166666667,100.80000000000003L361.2618611111111,12.599999999999998L374.3038055555556,12.599999999999998L387.34575,12.599999999999998L400.3876944444445,12.599999999999998L413.4296388888889,12.599999999999998L426.47158333333334,126.00000000000001L439.5135277777778,126.00000000000001L452.55547222222225,163.8L465.5974166666667,163.8L478.63936111111116,100.80000000000003L491.6813055555556,75.59999999999998L504.72324999999995,75.59999999999998L517.7651944444444,75.59999999999998L530.8071388888889,75.59999999999998L543.8490833333333,75.59999999999998L556.8910277777777,88.19999999999997L569.9329722222222,88.19999999999997L582.9749166666667,176.4L596.0168611111111,176.4L609.0588055555555,176.4L622.10075,176.4L635.1426944444444,176.4L648.1846388888889,176.4L661.2265833333333,214.2L674.2685277777778,214.2L687.3104722222222,214.2L700.3524166666666,126.00000000000001L713.3943611111112,126.00000000000001L726.4363055555556,37.79999999999999L739.47825,37.79999999999999L752.5201944444443,37.79999999999999L765.5621388888889,37.79999999999999L778.6040833333333,37.79999999999999L791.6460277777778,88.19999999999997L804.6879722222221,75.59999999999998L817.7299166666667,75.59999999999998L830.7718611111111,75.59999999999998L843.8138055555556,75.59999999999998L856.85575,100.80000000000003L869.8976944444445,100.80000000000003L882.9396388888888,100.80000000000003L895.9815833333333,126.00000000000001L909.0235277777778,189L922.0654722222223,189L935.1074166666666,176.4L948.1493611111111,138.60000000000002L961.1913055555556,138.60000000000002L974.23325,138.60000000000002L987.2751944444444,138.60000000000002L1000.317138888889,176.4L1013.3590833333333,201.6L1026.401027777778,201.6L1039.4429722222221,176.4L1052.4849166666668,176.4L1065.5268611111112,176.4L1078.5688055555556,176.4L1091.61075,126.00000000000001L1104.6526944444445,126.00000000000001L1117.694638888889,126.00000000000001L1130.7365833333333,126.00000000000001L1143.7785277777778,163.8L1156.8204722222222,163.8L1169.8624166666666,163.8L1182.904361111111,163.8L1195.9463055555555,176.4L1208.9882499999999,176.4L1222.0301944444445,126.00000000000001L1235.0721388888887,126.00000000000001L1248.1140833333334,62.999999999999986L1261.1560277777778,62.999999999999986L1274.1979722222222,62.999999999999986L1287.2399166666667,62.999999999999986L1300.281861111111,189L1313.3238055555555,201.6L1326.36575,201.6" style="fill: none;" fill="none"></path></g></g></g></g></g></g><g transform="translate(30, 378)" clip-path="url(#clip_1)"><clipPath id="clip_1"><rect width="1467" height="22"></rect></clipPath><g><g><line x1="0" y1="0" x2="0" y2="5" style="visibility: inherit;" fill="rgb(0, 0, 0)" stroke="rgb(204, 204, 204)" stroke-width="1px"></line><line x1="163.02430555555554" y1="0" x2="163.02430555555554" y2="5" style="visibility: inherit;" fill="rgb(0, 0, 0)" stroke="rgb(204, 204, 204)" stroke-width="1px"></line><line x1="326.0486111111111" y1="0" x2="326.0486111111111" y2="5" style="visibility: inherit;" fill="rgb(0, 0, 0)" stroke="rgb(204, 204, 204)" stroke-width="1px"></line><line x1="489.07291666666663" y1="0" x2="489.07291666666663" y2="5" style="visibility: inherit;" fill="rgb(0, 0, 0)" stroke="rgb(204, 204, 204)" stroke-width="1px"></line><line x1="652.0972222222222" y1="0" x2="652.0972222222222" y2="5" style="visibility: inherit;" fill="rgb(0, 0, 0)" stroke="rgb(204, 204, 204)" stroke-width="1px"></line><line x1="815.1215277777778" y1="0" x2="815.1215277777778" y2="5" style="visibility: inherit;" fill="rgb(0, 0, 0)" stroke="rgb(204, 204, 204)" stroke-width="1px"></line><line x1="978.1458333333333" y1="0" x2="978.1458333333333" y2="5" style="visibility: inherit;" fill="rgb(0, 0, 0)" stroke="rgb(204, 204, 204)" stroke-width="1px"></line><line x1="1141.170138888889" y1="0" x2="1141.170138888889" y2="5" style="visibility: inherit;" fill="rgb(0, 0, 0)" stroke="rgb(204, 204, 204)" stroke-width="1px"></line><line x1="1304.1944444444443" y1="0" x2="1304.1944444444443" y2="5" style="visibility: inherit;" fill="rgb(0, 0, 0)" stroke="rgb(204, 204, 204)" stroke-width="1px"></line><line x1="1467.21875" y1="0" x2="1467.21875" y2="5" style="visibility: inherit;" fill="rgb(0, 0, 0)" stroke="rgb(204, 204, 204)" stroke-width="1px"></line></g><g transform="translate(0, 8)"><text x="0" y="0" dx="0em" dy="0.95em" style="text-anchor: middle; visibility: hidden; font-family: Roboto, sans-serif; font-size: 12px; font-weight: 200;" fill="rgb(50, 49, 63)" stroke="none" stroke-width="1px">-50k</text><text x="163.02430555555554" y="0" dx="0em" dy="0.95em" style="text-anchor: middle; visibility: inherit; font-family: Roboto, sans-serif; font-size: 12px; font-weight: 200;" fill="rgb(50, 49, 63)" stroke="none" stroke-width="1px">0</text><text x="326.0486111111111" y="0" dx="0em" dy="0.95em" style="text-anchor: middle; visibility: inherit; font-family: Roboto, sans-serif; font-size: 12px; font-weight: 200;" fill="rgb(50, 49, 63)" stroke="none" stroke-width="1px">50k</text><text x="489.07291666666663" y="0" dx="0em" dy="0.95em" style="text-anchor: middle; visibility: inherit; font-family: Roboto, sans-serif; font-size: 12px; font-weight: 200;" fill="rgb(50, 49, 63)" stroke="none" stroke-width="1px">100k</text><text x="652.0972222222222" y="0" dx="0em" dy="0.95em" style="text-anchor: middle; visibility: inherit; font-family: Roboto, sans-serif; font-size: 12px; font-weight: 200;" fill="rgb(50, 49, 63)" stroke="none" stroke-width="1px">150k</text><text x="815.1215277777778" y="0" dx="0em" dy="0.95em" style="text-anchor: middle; visibility: inherit; font-family: Roboto, sans-serif; font-size: 12px; font-weight: 200;" fill="rgb(50, 49, 63)" stroke="none" stroke-width="1px">200k</text><text x="978.1458333333333" y="0" dx="0em" dy="0.95em" style="text-anchor: middle; visibility: inherit; font-family: Roboto, sans-serif; font-size: 12px; font-weight: 200;" fill="rgb(50, 49, 63)" stroke="none" stroke-width="1px">250k</text><text x="1141.170138888889" y="0" dx="0em" dy="0.95em" style="text-anchor: middle; visibility: inherit; font-family: Roboto, sans-serif; font-size: 12px; font-weight: 200;" fill="rgb(50, 49, 63)" stroke="none" stroke-width="1px">300k</text><text x="1304.1944444444443" y="0" dx="0em" dy="0.95em" style="text-anchor: middle; visibility: inherit; font-family: Roboto, sans-serif; font-size: 12px; font-weight: 200;" fill="rgb(50, 49, 63)" stroke="none" stroke-width="1px">350k</text><text x="1467.21875" y="0" dx="0em" dy="0.95em" style="text-anchor: middle; visibility: hidden; font-family: Roboto, sans-serif; font-size: 12px; font-weight: 200;" fill="rgb(50, 49, 63)" stroke="none" stroke-width="1px">400k</text></g><line x1="0" y1="0" x2="1467.21875" y2="0" fill="rgb(0, 0, 0)" stroke="rgb(204, 204, 204)" stroke-width="1px"></line></g></g></g></g></svg>