<svg viewBox="0 0 1498 400" xmlns="http://www.w3.org/2000/svg"><g><g><g><g><g><line x1="41.171875" y1="378" x2="36.171875" y2="378" style="visibility: inherit;" fill="rgb(0, 0, 0)" stroke="rgb(204, 204, 204)" stroke-width="1px"></line><line x1="41.171875" y1="352.79999999999995" x2="36.171875" y2="352.79999999999995" style="visibility: inherit;" fill="rgb(0, 0, 0)" stroke="rgb(204, 204, 204)" stroke-width="1px"></line><line x1="41.171875" y1="327.6" x2="36.171875" y2="327.6" style="visibility: inherit;" fill="rgb(0, 0, 0)" stroke="rgb(204, 204, 204)" stroke-width="1px"></line><line x1="41.171875" y1="302.40000000000003" x2="36.171875" y2="302.40000000000003" style="visibility: inherit;" fill="rgb(0, 0, 0)" stroke="rgb(204, 204, 204)" stroke-width="1px"></line><line x1="41.171875" y1="277.2" x2="36.171875" y2="277.2" style="visibility: inherit;" fill="rgb(0, 0, 0)" stroke="rgb(204, 204, 204)" stroke-width="1px"></line><line x1="41.171875" y1="251.99999999999994" x2="36.171875" y2="251.99999999999994" style="visibility: inherit;" fill="rgb(0, 0, 0)" stroke="rgb(204, 204, 204)" stroke-width="1px"></line><line x1="41.171875" y1="226.80000000000004" x2="36.171875" y2="226.80000000000004" style="visibility: inherit;" fill="rgb(0, 0, 0)" stroke="rgb(204, 204, 204)" stroke-width="1px"></line><line x1="41.171875" y1="201.60000000000005" x2="36.171875" y2="201.60000000000005" style="visibility: inherit;" fill="rgb(0, 0, 0)" stroke="rgb(204, 204, 204)" stroke-width="1px"></line><line x1="41.171875" y1="176.4" x2="36.171875" y2="176.4" style="visibility: inherit;" fill="rgb(0, 0, 0)" stroke="rgb(204, 204, 204)" stroke-width="1px"></line><line x1="41.171875" y1="151.20000000000002" x2="36.171875" y2="151.20000000000002" style="visibility: inherit;" fill="rgb(0, 0, 0)" stroke="rgb(204, 204, 204)" stroke-width="1px"></line><line x1="41.171875" y1="125.99999999999997" x2="36.171875" y2="125.99999999999997" style="visibility: inherit;" fill="rgb(0, 0, 0)" stroke="rgb(204, 204, 204)" stroke-width="1px"></line><line x1="41.171875" y1="100.80000000000007" x2="36.171875" y2="100.80000000000007" style="visibility: inherit;" fill="rgb(0, 0, 0)" stroke="rgb(204, 204, 204)" stroke-width="1px"></line><line x1="41.171875" y1="75.60000000000007" x2="36.171875" y2="75.60000000000007" style="visibility: inherit;" fill="rgb(0, 0, 0)" stroke="rgb(204, 204, 204)" stroke-width="1px"></line><line x1="41.171875" y1="50.400000000000034" x2="36.171875" y2="50.400000000000034" style="visibility: inherit;" fill="rgb(0, 0, 0)" stroke="rgb(204, 204, 204)" stroke-width="1px"></line><line x1="41.171875" y1="25.200000000000035" x2="36.171875" y2="25.200000000000035" style="visibility: inherit;" fill="rgb(0, 0, 0)" stroke="rgb(204, 204, 204)" stroke-width="1px"></line><line x1="41.171875" y1="0" x2="36.171875" y2="0" style="visibility: inherit;" fill="rgb(0, 0, 0)" stroke="rgb(204, 204, 204)" stroke-width="1px"></line></g><g transform="translate(31.171875, 0)"><text x="0" y="378" dx="0em" dy="0.3em" style="text-anchor: end; visibility: hidden; font-family: Roboto, sans-serif; font-size: 12px; font-weight: 200;" fill="rgb(50, 49, 63)" stroke="none" stroke-width="1px">3.4</text><text x="0" y="352.79999999999995" dx="0em" dy="0.3em" style="text-anchor: end; visibility: inherit; font-family: Roboto, sans-serif; font-size: 12px; font-weight: 200;" fill="rgb(50, 49, 63)" stroke="none" stroke-width="1px">3.6</text><text x="0" y="327.6" dx="0em" dy="0.3em" style="text-anchor: end; visibility: inherit; font-family: Roboto, sans-serif; font-size: 12px; font-weight: 200;" fill="rgb(50, 49, 63)" stroke="none" stroke-width="1px">3.8</text><text x="0" y="302.40000000000003" dx="0em" dy="0.3em" style="text-anchor: end; visibility: inherit; font-family: Roboto, sans-serif; font-size: 12px; font-weight: 200;" fill="rgb(50, 49, 63)" stroke="none" stroke-width="1px">4</text><text x="0" y="277.2" dx="0em" dy="0.3em" style="text-anchor: end; visibility: inherit; font-family: Roboto, sans-serif; font-size: 12px; font-weight: 200;" fill="rgb(50, 49, 63)" stroke="none" stroke-width="1px">4.2</text><text x="0" y="251.99999999999994" dx="0em" dy="0.3em" style="text-anchor: end; visibility: inherit; font-family: Roboto, sans-serif; font-size: 12px; font-weight: 200;" fill="rgb(50, 49, 63)" stroke="none" stroke-width="1px">4.4</text><text x="0" y="226.80000000000004" dx="0em" dy="0.3em" style="text-anchor: end; visibility: inherit; font-family: Roboto, sans-serif; font-size: 12px; font-weight: 200;" fill="rgb(50, 49, 63)" stroke="none" stroke-width="1px">4.6</text><text x="0" y="201.60000000000005" dx="0em" dy="0.3em" style="text-anchor: end; visibility: inherit; font-family: Roboto, sans-serif; font-size: 12px; font-weight: 200;" fill="rgb(50, 49, 63)" stroke="none" stroke-width="1px">4.8</text><text x="0" y="176.4" dx="0em" dy="0.3em" style="text-anchor: end; visibility: inherit; font-family: Roboto, sans-serif; font-size: 12px; font-weight: 200;" fill="rgb(50, 49, 63)" stroke="none" stroke-width="1px">5</text><text x="0" y="151.20000000000002" dx="0em" dy="0.3em" style="text-anchor: end; visibility: inherit; font-family: Roboto, sans-serif; font-size: 12px; font-weight: 200;" fill="rgb(50, 49, 63)" stroke="none" stroke-width="1px">5.2</text><text x="0" y="125.99999999999997" dx="0em" dy="0.3em" style="text-anchor: end; visibility: inherit; font-family: Roboto, sans-serif; font-size: 12px; font-weight: 200;" fill="rgb(50, 49, 63)" stroke="none" stroke-width="1px">5.4</text><text x="0" y="100.80000000000007" dx="0em" dy="0.3em" style="text-anchor: end; visibility: inherit; font-family: Roboto, sans-serif; font-size: 12px; font-weight: 200;" fill="rgb(50, 49, 63)" stroke="none" stroke-width="1px">5.6</text><text x="0" y="75.60000000000007" dx="0em" dy="0.3em" style="text-anchor: end; visibility: inherit; font-family: Roboto, sans-serif; font-size: 12px; font-weight: 200;" fill="rgb(50, 49, 63)" stroke="none" stroke-width="1px">5.8</text><text x="0" y="50.400000000000034" dx="0em" dy="0.3em" style="text-anchor: end; visibility: inherit; font-family: Roboto, sans-serif; font-size: 12px; font-weight: 200;" fill="rgb(50, 49, 63)" stroke="none" stroke-width="1px">6</text><text x="0" y="25.200000000000035" dx="0em" dy="0.3em" style="text-anchor: end; visibility: inherit; font-family: Roboto, sans-serif; font-size: 12px; font-weight: 200;" fill="rgb(50, 49, 63)" stroke="none" stroke-width="1px">6.2</text><text x="0" y="0" dx="0em" dy="0.3em" style="text-anchor: end; visibility: hidden; font-family: Roboto, sans-serif; font-size: 12px; font-weight: 200;" fill="rgb(50, 49, 63)" stroke="none" stroke-width="1px">6.4</text></g><line x1="41.171875" y1="0" x2="41.171875" y2="378" fill="rgb(0, 0, 0)" stroke="rgb(204, 204, 204)" stroke-width="1px"></line></g></g><g transform="translate(41, 0)" clip-path="url(#clip_0)"><clipPath id="clip_0"><rect width="1456" height="378"></rect></clipPath><g><g><g><line x1="0" y1="0" x2="0" y2="378" fill="rgb(0, 0, 0)" stroke="rgb(60, 60, 60)" stroke-width="1px" opacity="0.25"></line><line x1="161.86979166666666" y1="0" x2="161.86979166666666" y2="378" fill="rgb(0, 0, 0)" stroke="rgb(60, 60, 60)" stroke-width="1px" opacity="0.25"></line><line x1="323.7395833333333" y1="0" x2="323.7395833333333" y2="378" fill="rgb(0, 0, 0)" stroke="rgb(60, 60, 60)" stroke-width="1px" opacity="0.25"></line><line x1="485.609375" y1="0" x2="485.609375" y2="378" fill="rgb(0, 0, 0)" stroke="rgb(60, 60, 60)" stroke-width="1px" opacity="0.25"></line><line x1="647.4791666666666" y1="0" x2="647.4791666666666" y2="378" fill="rgb(0, 0, 0)" stroke="rgb(60, 60, 60)" stroke-width="1px" opacity="0.25"></line><line x1="809.3489583333334" y1="0" x2="809.3489583333334" y2="378" fill="rgb(0, 0, 0)" stroke="rgb(60, 60, 60)" stroke-width="1px" opacity="0.25"></line><line x1="971.21875" y1="0" x2="971.21875" y2="378" fill="rgb(0, 0, 0)" stroke="rgb(60, 60, 60)" stroke-width="1px" opacity="0.25"></line><line x1="1133.0885416666667" y1="0" x2="1133.0885416666667" y2="378" fill="rgb(0, 0, 0)" stroke="rgb(60, 60, 60)" stroke-width="1px" opacity="0.25"></line><line x1="1294.9583333333333" y1="0" x2="1294.9583333333333" y2="378" fill="rgb(0, 0, 0)" stroke="rgb(60, 60, 60)" stroke-width="1px" opacity="0.25"></line><line x1="1456.828125" y1="0" x2="1456.828125" y2="378" fill="rgb(0, 0, 0)" stroke="rgb(60, 60, 60)" stroke-width="1px" opacity="0.25"></line></g><g><line x1="0" y1="378" x2="1456.828125" y2="378" fill="rgb(0, 0, 0)" stroke="rgb(60, 60, 60)" stroke-width="1px" opacity="0.25"></line><line x1="0" y1="352.79999999999995" x2="1456.828125" y2="352.79999999999995" fill="rgb(0, 0, 0)" stroke="rgb(60, 60, 60)" stroke-width="1px" opacity="0.25"></line><line x1="0" y1="327.6" x2="1456.828125" y2="327.6" fill="rgb(0, 0, 0)" stroke="rgb(60, 60, 60)" stroke-width="1px" opacity="0.25"></line><line x1="0" y1="302.40000000000003" x2="1456.828125" y2="302.40000000000003" fill="rgb(0, 0, 0)" stroke="rgb(60, 60, 60)" stroke-width="1px" opacity="0.25"></line><line x1="0" y1="277.2" x2="1456.828125" y2="277.2" fill="rgb(0, 0, 0)" stroke="rgb(60, 60, 60)" stroke-width="1px" opacity="0.25"></line><line x1="0" y1="251.99999999999994" x2="1456.828125" y2="251.99999999999994" fill="rgb(0, 0, 0)" stroke="rgb(60, 60, 60)" stroke-width="1px" opacity="0.25"></line><line x1="0" y1="226.80000000000004" x2="1456.828125" y2="226.80000000000004" fill="rgb(0, 0, 0)" stroke="rgb(60, 60, 60)" stroke-width="1px" opacity="0.25"></line><line x1="0" y1="201.60000000000005" x2="1456.828125" y2="201.60000000000005" fill="rgb(0, 0, 0)" stroke="rgb(60, 60, 60)" stroke-width="1px" opacity="0.25"></line><line x1="0" y1="176.4" x2="1456.828125" y2="176.4" fill="rgb(0, 0, 0)" stroke="rgb(60, 60, 60)" stroke-width="1px" opacity="0.25"></line><line x1="0" y1="151.20000000000002" x2="1456.828125" y2="151.20000000000002" fill="rgb(0, 0, 0)" stroke="rgb(60, 60, 60)" stroke-width="1px" opacity="0.25"></line><line x1="0" y1="125.99999999999997" x2="1456.828125" y2="125.99999999999997" fill="rgb(0, 0, 0)" stroke="rgb(60, 60, 60)" stroke-width="1px" opacity="0.25"></line><line x1="0" y1="100.80000000000007" x2="1456.828125" y2="100.80000000000007" fill="rgb(0, 0, 0)" stroke="rgb(60, 60, 60)" stroke-width="1px" opacity="0.25"></line><line x1="0" y1="75.60000000000007" x2="1456.828125" y2="75.60000000000007" fill="rgb(0, 0, 0)" stroke="rgb(60, 60, 60)" stroke-width="1px" opacity="0.25"></line><line x1="0" y1="50.400000000000034" x2="1456.828125" y2="50.400000000000034" fill="rgb(0, 0, 0)" stroke="rgb(60, 60, 60)" stroke-width="1px" opacity="0.25"></line><line x1="0" y1="25.200000000000035" x2="1456.828125" y2="25.200000000000035" fill="rgb(0, 0, 0)" stroke="rgb(60, 60, 60)" stroke-width="1px" opacity="0.25"></line><line x1="0" y1="0" x2="1456.828125" y2="0" fill="rgb(0, 0, 0)" stroke="rgb(60, 60, 60)" stroke-width="1px" opacity="0.25"></line></g></g></g><g><g><line x1="0" y1="806.3999999999999" x2="1456.828125" y2="806.3999999999999" fill="rgb(0, 0, 0)" stroke="rgb(153, 153, 153)" stroke-width="1.5px"></line></g></g><g><g><line x1="161.86979166666666" y1="0" x2="161.86979166666666" y2="378" fill="rgb(0, 0, 0)" stroke="rgb(153, 153, 153)" stroke-width="1.5px"></line></g></g><g><g><g><g><g><path stroke="rgb(255, 112, 67)" stroke-width="2px" d="M177.40929166666666,407.39998998641965L190.35887499999998,369.33748873472206L203.3084583333333,352.32856488909033L216.25804166666666,325.2474111031084L229.20762499999998,306.39523671975496L242.15720833333333,279.1667824863491L255.10679166666665,258.48099172879455L268.056375,238.757324379908L281.00595833333335,219.50033495129944L293.95554166666665,201.31020097129985L306.905125,172.7625441154586L319.85470833333335,157.38404280841152L332.8042916666667,144.81400353485625L345.753875,130.55723152287234L358.70345833333334,126.21230560783614L371.6530416666667,132.84924450289898L384.60262500000005,133.46964370373504L397.55220833333334,138.8823471513788L410.5017916666667,161.45078832729055L423.45137500000004,163.2305300556874L436.40095833333334,167.65840395225365L449.3505416666667,154.35485925696588L462.30012500000004,122.85265715873166L475.2497083333334,112.35155094568472L488.1992916666667,107.73092223734878L501.148875,98.2385483653639L514.0984583333333,123.62314859142066L527.0480416666667,133.8138938107573L539.997625,135.72832737880285L552.9472083333333,140.23700863924356L565.8967916666667,127.82220513896536L578.846375,127.09331821885097L591.7959583333333,119.93599219170692L604.7455416666667,110.60160145627434L617.695125,123.48094987995972L630.6447083333334,135.40856684665667L643.5942916666667,144.2451353561618L656.543875,151.22707483093092L669.4934583333334,152.89625291314158L682.4430416666667,148.85774052727646L695.392625,158.1946459260274L708.3422083333334,169.67679557200626L721.2917916666667,166.48607093359095L734.2413750000001,161.21163935489514L747.1909583333332,164.76697400026947L760.1405416666666,162.7001908087242L773.090125,163.1401192917695L786.0397083333334,149.1240779834384L798.9892916666666,140.71445319864105L811.938875,122.22866711251672L824.8884583333332,111.13719546093768L837.8380416666666,106.16231086785662L850.7876249999999,123.33738491857103L863.7372083333333,135.32242774680967L876.6867916666666,134.9534486372213L889.636375,117.09206597798038L902.5859583333333,108.05523478026764L915.5355416666667,86.67313926598482L928.4851249999999,69.64387394655249L941.4347083333333,72.86632597010455L954.3842916666666,74.7997971842356L967.333875,70.91988471923271L980.2834583333333,85.39192121850256L993.2330416666667,96.5951527311016L1006.182625,114.23709324083401L1019.1322083333334,136.58224633146324L1032.0817916666667,144.10935580974228L1045.031375,152.8256054749811L1057.9809583333333,143.77535687629722L1070.9305416666668,135.82522213664257L1083.880125,139.45513328198558L1096.8297083333334,135.75307356049996L1109.7792916666667,128.49184253412713L1122.728875,118.2550975096121L1135.6784583333333,104.55306972097713L1148.6280416666666,95.49184183258632L1161.577625,82.49510029303329L1174.5272083333332,90.65705216495579L1187.4767916666667,88.83422969680059L1200.426375,85.22052660287042L1213.3759583333333,84.73232717693224L1226.3255416666666,90.31938989746793L1239.2751250000001,95.35162592761652L1252.2247083333332,107.61097075005142L1265.1742916666667,114.9665776435123L1278.123875,127.77995780131728L1291.0734583333333,142.18797948730895L1304.0230416666666,149.992781283694L1316.972625,158.87567037238927" style="fill: none;" fill="none"></path></g><g><path stroke="rgb(204, 51, 17)" stroke-width="2px" d="M203.3084583333333,393.5193302699497L216.25804166666666,369.26771569006576L229.20762499999998,342.18294388111224L242.15720833333333,287.60329670798507L255.10679166666665,235.79157500338994L268.056375,200.5225593702443L281.00595833333335,167.0158637273198L293.95554166666665,143.74883300107572L306.905125,143.36790659565108L319.85470833333335,133.03825695634586L332.8042916666667,120.9671804993383L345.753875,96.92147309285723L358.70345833333334,65.69820314301448L371.6530416666667,46.97363948060272L384.60262500000005,29.861280728981473L397.55220833333334,11.194874280131668L410.5017916666667,25.197779450917285L423.45137500000004,41.1592576561743L436.40095833333334,57.45591209260856L449.3505416666667,86.55392383986212L462.30012500000004,106.53251528523782L475.2497083333334,121.03956669587441L488.1992916666667,117.14371772630379L501.148875,113.96622681773631L514.0984583333333,109.53972354929402L527.0480416666667,110.24382334675013L539.997625,93.02628125544291L552.9472083333333,97.81577301644323L565.8967916666667,93.12946158608025L578.846375,112.15768006821254L591.7959583333333,121.05460045490862L604.7455416666667,128.91276210026362L617.695125,142.86766230657133L630.6447083333334,151.24060227682358L643.5942916666667,164.66435824482335L656.543875,176.0786085805859L669.4934583333334,191.32717479536115L682.4430416666667,194.59630808593246L695.392625,175.55779605149965L708.3422083333334,164.13468884061257L721.2917916666667,126.20081809993316L734.2413750000001,100.08049886629902L747.1909583333332,91.12830092102165L760.1405416666666,72.31697093840282L773.090125,62.710171347472375L786.0397083333334,67.86609319556204L798.9892916666666,75.1596543152626L811.938875,76.17579419133861L824.8884583333332,78.46547651481433L837.8380416666666,64.71927629581153L850.7876249999999,53.11155936877523L863.7372083333333,51.186924406053244L876.6867916666666,61.792156245811455L889.636375,84.95530336053272L902.5859583333333,97.1731932315323L915.5355416666667,102.82390472371009L928.4851249999999,100.3343492429173L941.4347083333333,88.76060153488571L954.3842916666666,82.6563641252768L967.333875,77.3138232816846L980.2834583333333,76.62828435597368L993.2330416666667,85.45696420489286L1006.182625,91.5941833294544L1019.1322083333334,95.27651480419105L1032.0817916666667,88.24591048468744L1045.031375,94.10753827994823L1057.9809583333333,100.14452457014184L1070.9305416666668,98.72672115077647L1083.880125,85.27603909915736L1096.8297083333334,86.4456330725315L1109.7792916666667,77.06737503700028L1122.728875,71.44042021568163L1135.6784583333333,79.82426014027324L1148.6280416666666,81.49456729937394L1161.577625,86.69673557310577L1174.5272083333332,98.21805255907341L1187.4767916666667,118.57082993327121L1200.426375,132.46249475561697L1213.3759583333333,122.3174872403331L1226.3255416666666,110.35050035506418L1239.2751250000001,84.69030181521127L1252.2247083333332,58.37418108912682L1265.1742916666667,56.024519868686056L1278.123875,55.4547103190388L1291.0734583333333,74.43281818055902L1304.0230416666666,90.8597021235453L1316.972625,105.75582768281859" style="fill: none;" fill="none"></path></g></g></g></g><g opacity="0.2"><g><g><g><path stroke="rgb(255, 112, 67)" stroke-width="2px" d="M177.40929166666666,407.39998998641965L190.35887499999998,346.4999879837036L203.3084583333333,335.99999799728397L216.25804166666666,293.39997425079343L229.20762499999998,281.78183784484867L242.15720833333333,241.50002803802488L255.10679166666665,228.89997997283936L268.056375,210.0000280380249L281.00595833333335,191.10001602172855L293.95554166666665,174.2999719619751L306.905125,130.19998397827152L319.85470833333335,134.3999799728394L332.8042916666667,125.99998798370363L345.753875,109.20000400543218L358.70345833333334,119.70002403259281L371.6530416666667,142.79997196197513L384.60262500000005,134.3999799728394L397.55220833333334,147.00002803802494L410.5017916666667,195.3000120162964L423.45137500000004,165.89997997283936L436.40095833333334,174.2999719619751L449.3505416666667,134.3999799728394L462.30012500000004,75.59997596740726L475.2497083333334,96.60001602172856L488.1992916666667,100.8000120162964L501.148875,84.00002803802495L514.0984583333333,161.6999839782715L527.0480416666667,149.09999599456788L539.997625,138.59997596740723L552.9472083333333,147.00002803802494L565.8967916666667,109.20000400543218L578.846375,125.99998798370363L591.7959583333333,109.20000400543218L604.7455416666667,96.60001602172856L617.695125,142.79997196197513L630.6447083333334,153.29999198913575L643.5942916666667,157.49998798370365L656.543875,161.6999839782715L669.4934583333334,155.40002002716065L682.4430416666667,142.79997196197513L695.392625,172.20000400543216L708.3422083333334,186.90002002716068L721.2917916666667,161.6999839782715L734.2413750000001,153.29999198913575L747.1909583333332,170.09997596740726L760.1405416666666,159.60001602172855L773.090125,163.8000120162964L786.0397083333334,128.10001602172852L798.9892916666666,128.10001602172852L811.938875,94.49998798370366L824.8884583333332,94.49998798370366L837.8380416666666,98.6999839782715L850.7876249999999,149.09999599456788L863.7372083333333,153.29999198913575L876.6867916666666,134.3999799728394L889.636375,90.29999198913578L902.5859583333333,94.49998798370366L915.5355416666667,54.59999599456792L928.4851249999999,44.09997596740728L941.4347083333333,77.70000400543216L954.3842916666666,77.70000400543216L967.333875,65.10001602172855L980.2834583333333,107.09997596740727L993.2330416666667,113.40000000000002L1006.182625,140.70000400543213L1019.1322083333334,170.09997596740726L1032.0817916666667,155.40002002716065L1045.031375,165.89997997283936L1057.9809583333333,130.19998397827152L1070.9305416666668,123.90002002716069L1083.880125,144.90000000000003L1096.8297083333334,130.19998397827152L1109.7792916666667,117.5999959945679L1122.728875,102.89997997283939L1135.6784583333333,84.00002803802495L1148.6280416666666,81.90000000000005L1161.577625,62.99998798370365L1174.5272083333332,102.89997997283939L1187.4767916666667,86.09999599456789L1200.426375,79.79997196197515L1213.3759583333333,84.00002803802495L1226.3255416666666,98.6999839782715L1239.2751250000001,102.89997997283939L1252.2247083333332,125.99998798370363L1265.1742916666667,125.99998798370363L1278.123875,147.00002803802494L1291.0734583333333,163.8000120162964L1304.0230416666666,161.6999839782715L1316.972625,172.20000400543216" style="fill: none;" fill="none"></path></g><g><path stroke="rgb(204, 51, 17)" stroke-width="2px" d="M190.35887499999998,398.1599987983704L203.3084583333333,369.105885887146L216.25804166666666,340.74781694412235L229.20762499999998,306.8210658073425L242.15720833333333,212.09999599456785L255.10679166666665,161.6999839782715L268.056375,149.09999599456788L281.00595833333335,117.5999959945679L293.95554166666665,109.20000400543218L306.905125,142.79997196197513L319.85470833333335,117.5999959945679L332.8042916666667,102.89997997283939L345.753875,60.900020027160664L358.70345833333334,18.90000000000006L371.6530416666667,18.90000000000006L384.60262500000005,4.199983978271543L397.55220833333334,-16.799995994567798L410.5017916666667,46.200004005432184L423.45137500000004,65.10001602172855L436.40095833333334,81.90000000000005L449.3505416666667,130.19998397827152L462.30012500000004,136.5000080108643L475.2497083333334,142.79997196197513L488.1992916666667,111.29997196197512L501.148875,109.20000400543218L514.0984583333333,102.89997997283939L527.0480416666667,111.29997196197512L539.997625,67.19998397827153L552.9472083333333,105.00000801086429L565.8967916666667,86.09999599456789L578.846375,140.70000400543213L591.7959583333333,134.3999799728394L604.7455416666667,140.70000400543213L617.695125,163.8000120162964L630.6447083333334,163.8000120162964L643.5942916666667,184.79999198913578L656.543875,193.1999839782715L669.4934583333334,214.20002403259275L682.4430416666667,199.50000801086424L695.392625,147.00002803802494L708.3422083333334,147.00002803802494L721.2917916666667,69.30001201629644L734.2413750000001,60.900020027160664L747.1909583333332,77.70000400543216L760.1405416666666,44.09997596740728L773.090125,48.29997196197513L786.0397083333334,75.59997596740726L798.9892916666666,86.09999599456789L811.938875,77.70000400543216L824.8884583333332,81.90000000000005L837.8380416666666,44.09997596740728L850.7876249999999,35.69998397827152L863.7372083333333,48.29997196197513L876.6867916666666,77.70000400543216L889.636375,119.70002403259281L902.5859583333333,115.50002803802492L915.5355416666667,111.29997196197512L928.4851249999999,96.60001602172856L941.4347083333333,71.39997997283938L954.3842916666666,73.50000801086428L967.333875,69.30001201629644L980.2834583333333,75.59997596740726L993.2330416666667,98.6999839782715L1006.182625,100.8000120162964L1019.1322083333334,100.8000120162964L1032.0817916666667,77.70000400543216L1045.031375,102.89997997283939L1057.9809583333333,109.20000400543218L1070.9305416666668,96.60001602172856L1083.880125,65.10001602172855L1096.8297083333334,88.2000240325928L1109.7792916666667,62.99998798370365L1122.728875,62.99998798370365L1135.6784583333333,92.40002002716068L1148.6280416666666,84.00002803802495L1161.577625,94.49998798370366L1174.5272083333332,115.50002803802492L1187.4767916666667,149.09999599456788L1200.426375,153.29999198913575L1213.3759583333333,107.09997596740727L1226.3255416666666,92.40002002716068L1239.2751250000001,46.200004005432184L1252.2247083333332,18.90000000000006L1265.1742916666667,52.50002803802494L1278.123875,54.59999599456792L1291.0734583333333,102.89997997283939L1304.0230416666666,115.50002803802492L1316.972625,128.10001602172852" style="fill: none;" fill="none"></path></g></g></g></g></g></g><g transform="translate(41, 378)" clip-path="url(#clip_1)"><clipPath id="clip_1"><rect width="1456" height="22"></rect></clipPath><g><g><line x1="0" y1="0" x2="0" y2="5" style="visibility: inherit;" fill="rgb(0, 0, 0)" stroke="rgb(204, 204, 204)" stroke-width="1px"></line><line x1="161.86979166666666" y1="0" x2="161.86979166666666" y2="5" style="visibility: inherit;" fill="rgb(0, 0, 0)" stroke="rgb(204, 204, 204)" stroke-width="1px"></line><line x1="323.7395833333333" y1="0" x2="323.7395833333333" y2="5" style="visibility: inherit;" fill="rgb(0, 0, 0)" stroke="rgb(204, 204, 204)" stroke-width="1px"></line><line x1="485.609375" y1="0" x2="485.609375" y2="5" style="visibility: inherit;" fill="rgb(0, 0, 0)" stroke="rgb(204, 204, 204)" stroke-width="1px"></line><line x1="647.4791666666666" y1="0" x2="647.4791666666666" y2="5" style="visibility: inherit;" fill="rgb(0, 0, 0)" stroke="rgb(204, 204, 204)" stroke-width="1px"></line><line x1="809.3489583333334" y1="0" x2="809.3489583333334" y2="5" style="visibility: inherit;" fill="rgb(0, 0, 0)" stroke="rgb(204, 204, 204)" stroke-width="1px"></line><line x1="971.21875" y1="0" x2="971.21875" y2="5" style="visibility: inherit;" fill="rgb(0, 0, 0)" stroke="rgb(204, 204, 204)" stroke-width="1px"></line><line x1="1133.0885416666667" y1="0" x2="1133.0885416666667" y2="5" style="visibility: inherit;" fill="rgb(0, 0, 0)" stroke="rgb(204, 204, 204)" stroke-width="1px"></line><line x1="1294.9583333333333" y1="0" x2="1294.9583333333333" y2="5" style="visibility: inherit;" fill="rgb(0, 0, 0)" stroke="rgb(204, 204, 204)" stroke-width="1px"></line><line x1="1456.828125" y1="0" x2="1456.828125" y2="5" style="visibility: inherit;" fill="rgb(0, 0, 0)" stroke="rgb(204, 204, 204)" stroke-width="1px"></line></g><g transform="translate(0, 8)"><text x="0" y="0" dx="0em" dy="0.95em" style="text-anchor: middle; visibility: hidden; font-family: Roboto, sans-serif; font-size: 12px; font-weight: 200;" fill="rgb(50, 49, 63)" stroke="none" stroke-width="1px">-50k</text><text x="161.86979166666666" y="0" dx="0em" dy="0.95em" style="text-anchor: middle; visibility: inherit; font-family: Roboto, sans-serif; font-size: 12px; font-weight: 200;" fill="rgb(50, 49, 63)" stroke="none" stroke-width="1px">0</text><text x="323.7395833333333" y="0" dx="0em" dy="0.95em" style="text-anchor: middle; visibility: inherit; font-family: Roboto, sans-serif; font-size: 12px; font-weight: 200;" fill="rgb(50, 49, 63)" stroke="none" stroke-width="1px">50k</text><text x="485.609375" y="0" dx="0em" dy="0.95em" style="text-anchor: middle; visibility: inherit; font-family: Roboto, sans-serif; font-size: 12px; font-weight: 200;" fill="rgb(50, 49, 63)" stroke="none" stroke-width="1px">100k</text><text x="647.4791666666666" y="0" dx="0em" dy="0.95em" style="text-anchor: middle; visibility: inherit; font-family: Roboto, sans-serif; font-size: 12px; font-weight: 200;" fill="rgb(50, 49, 63)" stroke="none" stroke-width="1px">150k</text><text x="809.3489583333334" y="0" dx="0em" dy="0.95em" style="text-anchor: middle; visibility: inherit; font-family: Roboto, sans-serif; font-size: 12px; font-weight: 200;" fill="rgb(50, 49, 63)" stroke="none" stroke-width="1px">200k</text><text x="971.21875" y="0" dx="0em" dy="0.95em" style="text-anchor: middle; visibility: inherit; font-family: Roboto, sans-serif; font-size: 12px; font-weight: 200;" fill="rgb(50, 49, 63)" stroke="none" stroke-width="1px">250k</text><text x="1133.0885416666667" y="0" dx="0em" dy="0.95em" style="text-anchor: middle; visibility: inherit; font-family: Roboto, sans-serif; font-size: 12px; font-weight: 200;" fill="rgb(50, 49, 63)" stroke="none" stroke-width="1px">300k</text><text x="1294.9583333333333" y="0" dx="0em" dy="0.95em" style="text-anchor: middle; visibility: inherit; font-family: Roboto, sans-serif; font-size: 12px; font-weight: 200;" fill="rgb(50, 49, 63)" stroke="none" stroke-width="1px">350k</text><text x="1456.828125" y="0" dx="0em" dy="0.95em" style="text-anchor: middle; visibility: hidden; font-family: Roboto, sans-serif; font-size: 12px; font-weight: 200;" fill="rgb(50, 49, 63)" stroke="none" stroke-width="1px">400k</text></g><line x1="0" y1="0" x2="1456.828125" y2="0" fill="rgb(0, 0, 0)" stroke="rgb(204, 204, 204)" stroke-width="1px"></line></g></g></g></g></svg>