<svg viewBox="0 0 1498 400" xmlns="http://www.w3.org/2000/svg"><g><g><g><g><g><line x1="41.171875" y1="378" x2="36.171875" y2="378" style="visibility: inherit;" fill="rgb(0, 0, 0)" stroke="rgb(204, 204, 204)" stroke-width="1px"></line><line x1="41.171875" y1="330.75" x2="36.171875" y2="330.75" style="visibility: inherit;" fill="rgb(0, 0, 0)" stroke="rgb(204, 204, 204)" stroke-width="1px"></line><line x1="41.171875" y1="283.5" x2="36.171875" y2="283.5" style="visibility: inherit;" fill="rgb(0, 0, 0)" stroke="rgb(204, 204, 204)" stroke-width="1px"></line><line x1="41.171875" y1="236.25" x2="36.171875" y2="236.25" style="visibility: inherit;" fill="rgb(0, 0, 0)" stroke="rgb(204, 204, 204)" stroke-width="1px"></line><line x1="41.171875" y1="189" x2="36.171875" y2="189" style="visibility: inherit;" fill="rgb(0, 0, 0)" stroke="rgb(204, 204, 204)" stroke-width="1px"></line><line x1="41.171875" y1="141.75" x2="36.171875" y2="141.75" style="visibility: inherit;" fill="rgb(0, 0, 0)" stroke="rgb(204, 204, 204)" stroke-width="1px"></line><line x1="41.171875" y1="94.5" x2="36.171875" y2="94.5" style="visibility: inherit;" fill="rgb(0, 0, 0)" stroke="rgb(204, 204, 204)" stroke-width="1px"></line><line x1="41.171875" y1="47.25" x2="36.171875" y2="47.25" style="visibility: inherit;" fill="rgb(0, 0, 0)" stroke="rgb(204, 204, 204)" stroke-width="1px"></line><line x1="41.171875" y1="0" x2="36.171875" y2="0" style="visibility: inherit;" fill="rgb(0, 0, 0)" stroke="rgb(204, 204, 204)" stroke-width="1px"></line></g><g transform="translate(31.171875, 0)"><text x="0" y="378" dx="0em" dy="0.3em" style="text-anchor: end; visibility: hidden; font-family: Roboto, sans-serif; font-size: 12px; font-weight: 200;" fill="rgb(50, 49, 63)" stroke="none" stroke-width="1px">5</text><text x="0" y="330.75" dx="0em" dy="0.3em" style="text-anchor: end; visibility: inherit; font-family: Roboto, sans-serif; font-size: 12px; font-weight: 200;" fill="rgb(50, 49, 63)" stroke="none" stroke-width="1px">5.5</text><text x="0" y="283.5" dx="0em" dy="0.3em" style="text-anchor: end; visibility: inherit; font-family: Roboto, sans-serif; font-size: 12px; font-weight: 200;" fill="rgb(50, 49, 63)" stroke="none" stroke-width="1px">6</text><text x="0" y="236.25" dx="0em" dy="0.3em" style="text-anchor: end; visibility: inherit; font-family: Roboto, sans-serif; font-size: 12px; font-weight: 200;" fill="rgb(50, 49, 63)" stroke="none" stroke-width="1px">6.5</text><text x="0" y="189" dx="0em" dy="0.3em" style="text-anchor: end; visibility: inherit; font-family: Roboto, sans-serif; font-size: 12px; font-weight: 200;" fill="rgb(50, 49, 63)" stroke="none" stroke-width="1px">7</text><text x="0" y="141.75" dx="0em" dy="0.3em" style="text-anchor: end; visibility: inherit; font-family: Roboto, sans-serif; font-size: 12px; font-weight: 200;" fill="rgb(50, 49, 63)" stroke="none" stroke-width="1px">7.5</text><text x="0" y="94.5" dx="0em" dy="0.3em" style="text-anchor: end; visibility: inherit; font-family: Roboto, sans-serif; font-size: 12px; font-weight: 200;" fill="rgb(50, 49, 63)" stroke="none" stroke-width="1px">8</text><text x="0" y="47.25" dx="0em" dy="0.3em" style="text-anchor: end; visibility: inherit; font-family: Roboto, sans-serif; font-size: 12px; font-weight: 200;" fill="rgb(50, 49, 63)" stroke="none" stroke-width="1px">8.5</text><text x="0" y="0" dx="0em" dy="0.3em" style="text-anchor: end; visibility: hidden; font-family: Roboto, sans-serif; font-size: 12px; font-weight: 200;" fill="rgb(50, 49, 63)" stroke="none" stroke-width="1px">9</text></g><line x1="41.171875" y1="0" x2="41.171875" y2="378" fill="rgb(0, 0, 0)" stroke="rgb(204, 204, 204)" stroke-width="1px"></line></g></g><g transform="translate(41, 0)" clip-path="url(#clip_0)"><clipPath id="clip_0"><rect width="1456" height="378"></rect></clipPath><g><g><g><line x1="0" y1="0" x2="0" y2="378" fill="rgb(0, 0, 0)" stroke="rgb(60, 60, 60)" stroke-width="1px" opacity="0.25"></line><line x1="161.86979166666666" y1="0" x2="161.86979166666666" y2="378" fill="rgb(0, 0, 0)" stroke="rgb(60, 60, 60)" stroke-width="1px" opacity="0.25"></line><line x1="323.7395833333333" y1="0" x2="323.7395833333333" y2="378" fill="rgb(0, 0, 0)" stroke="rgb(60, 60, 60)" stroke-width="1px" opacity="0.25"></line><line x1="485.609375" y1="0" x2="485.609375" y2="378" fill="rgb(0, 0, 0)" stroke="rgb(60, 60, 60)" stroke-width="1px" opacity="0.25"></line><line x1="647.4791666666666" y1="0" x2="647.4791666666666" y2="378" fill="rgb(0, 0, 0)" stroke="rgb(60, 60, 60)" stroke-width="1px" opacity="0.25"></line><line x1="809.3489583333334" y1="0" x2="809.3489583333334" y2="378" fill="rgb(0, 0, 0)" stroke="rgb(60, 60, 60)" stroke-width="1px" opacity="0.25"></line><line x1="971.21875" y1="0" x2="971.21875" y2="378" fill="rgb(0, 0, 0)" stroke="rgb(60, 60, 60)" stroke-width="1px" opacity="0.25"></line><line x1="1133.0885416666667" y1="0" x2="1133.0885416666667" y2="378" fill="rgb(0, 0, 0)" stroke="rgb(60, 60, 60)" stroke-width="1px" opacity="0.25"></line><line x1="1294.9583333333333" y1="0" x2="1294.9583333333333" y2="378" fill="rgb(0, 0, 0)" stroke="rgb(60, 60, 60)" stroke-width="1px" opacity="0.25"></line><line x1="1456.828125" y1="0" x2="1456.828125" y2="378" fill="rgb(0, 0, 0)" stroke="rgb(60, 60, 60)" stroke-width="1px" opacity="0.25"></line></g><g><line x1="0" y1="378" x2="1456.828125" y2="378" fill="rgb(0, 0, 0)" stroke="rgb(60, 60, 60)" stroke-width="1px" opacity="0.25"></line><line x1="0" y1="330.75" x2="1456.828125" y2="330.75" fill="rgb(0, 0, 0)" stroke="rgb(60, 60, 60)" stroke-width="1px" opacity="0.25"></line><line x1="0" y1="283.5" x2="1456.828125" y2="283.5" fill="rgb(0, 0, 0)" stroke="rgb(60, 60, 60)" stroke-width="1px" opacity="0.25"></line><line x1="0" y1="236.25" x2="1456.828125" y2="236.25" fill="rgb(0, 0, 0)" stroke="rgb(60, 60, 60)" stroke-width="1px" opacity="0.25"></line><line x1="0" y1="189" x2="1456.828125" y2="189" fill="rgb(0, 0, 0)" stroke="rgb(60, 60, 60)" stroke-width="1px" opacity="0.25"></line><line x1="0" y1="141.75" x2="1456.828125" y2="141.75" fill="rgb(0, 0, 0)" stroke="rgb(60, 60, 60)" stroke-width="1px" opacity="0.25"></line><line x1="0" y1="94.5" x2="1456.828125" y2="94.5" fill="rgb(0, 0, 0)" stroke="rgb(60, 60, 60)" stroke-width="1px" opacity="0.25"></line><line x1="0" y1="47.25" x2="1456.828125" y2="47.25" fill="rgb(0, 0, 0)" stroke="rgb(60, 60, 60)" stroke-width="1px" opacity="0.25"></line><line x1="0" y1="0" x2="1456.828125" y2="0" fill="rgb(0, 0, 0)" stroke="rgb(60, 60, 60)" stroke-width="1px" opacity="0.25"></line></g></g></g><g><g><line x1="0" y1="850.5" x2="1456.828125" y2="850.5" fill="rgb(0, 0, 0)" stroke="rgb(153, 153, 153)" stroke-width="1.5px"></line></g></g><g><g><line x1="161.86979166666666" y1="0" x2="161.86979166666666" y2="378" fill="rgb(0, 0, 0)" stroke="rgb(153, 153, 153)" stroke-width="1.5px"></line></g></g><g><g><g><g><g><path stroke="rgb(255, 112, 67)" stroke-width="2px" d="M177.40929166666666,283.49999999999994L190.35887499999998,283.49999999999994L203.3084583333333,283.49999999999994L216.25804166666666,305.2141544117646L229.20762499999998,316.2897293546149L242.15720833333333,322.35690789473676L255.10679166666665,332.2922651454269L268.056375,323.4264421559519L281.00595833333335,294.5650024701471L293.95554166666665,258.996653998601L306.905125,203.79772716783373L319.85470833333335,170.8068171206195L332.8042916666667,159.1688903322955L345.753875,135.5063227583819L358.70345833333334,112.79310222348587L371.6530416666667,105.47379647749591L384.60262500000005,101.08353476184826L397.55220833333334,106.32565925519347L410.5017916666667,110.66765148490836L423.45137500000004,121.75100126561463L436.40095833333334,128.40075178445898L449.3505416666667,135.69571266512818L462.30012500000004,126.30485343662346L475.2497083333334,130.38293939636483L488.1992916666667,132.94030481351172L501.148875,137.40919411610452L514.0984583333333,143.98040020938902L527.0480416666667,148.0186852248447L539.997625,150.23621195196907L552.9472083333333,151.65937313094688L565.8967916666667,162.61667511760635L578.846375,170.5631122589326L591.7959583333333,171.63787341482964L604.7455416666667,167.24271671319357L617.695125,164.60562277280482L630.6447083333334,163.02336643758514L643.5942916666667,160.81401384072984L656.543875,158.8584119020653L669.4934583333334,158.9450495446915L682.4430416666667,161.51702973025291L695.392625,164.32021663877038L708.3422083333334,172.9321311890361L721.2917916666667,171.16927751128296L734.2413750000001,168.22155809485164L747.1909583333332,166.45292644531963L760.1405416666666,165.39174745571816L773.090125,164.1250496750131L786.0397083333334,148.24502740139204L798.9892916666666,139.97701283583498L811.938875,143.20620529826778L824.8884583333332,147.03372798549776L837.8380416666666,149.33024159782394L850.7876249999999,148.81814255543412L863.7372083333333,148.51088313000096L876.6867916666666,146.4365382894067L889.636375,138.26192898178914L902.5859583333333,129.57714897766405L915.5355416666667,110.50629419311439L928.4851249999999,97.17377411260821L941.4347083333333,91.69425966104612L954.3842916666666,83.99654618359043L967.333875,71.18793491993199L980.2834583333333,72.95276816173693L993.2330416666667,73.3816777198571L1006.182625,76.78901143843288L1019.1322083333334,83.24341647609664L1032.0817916666667,90.89605589380625L1045.031375,96.74763834280225L1057.9809583333333,107.1885902154592L1070.9305416666668,115.97315893579405L1083.880125,120.61389175658755L1096.8297083333334,120.87833385232294L1109.7792916666667,115.36699550487516L1122.728875,107.65020571433267L1135.6784583333333,101.13010660578465L1148.6280416666666,95.32807597976715L1161.577625,91.84685760415671L1174.5272083333332,91.64809773967919L1187.4767916666667,89.63887066010383L1200.426375,104.18332840421047L1213.3759583333333,111.65000425230417L1226.3255416666666,113.609994139975L1239.2751250000001,125.49600489539243L1252.2247083333332,132.62761134864292L1265.1742916666667,136.9065752205932L1278.123875,140.10394393072625L1291.0734583333333,140.76236635843577L1304.0230416666666,142.41741861343183L1316.972625,143.41044996642947" style="fill: none;" fill="none"></path></g><g><path stroke="rgb(204, 51, 17)" stroke-width="2px" d="M203.3084583333333,378L216.25804166666666,378L229.20762499999998,281.5714285714285L242.15720833333333,181.1250138054876L255.10679166666665,114.27689328150657L268.056375,101.02275069226L281.00595833333335,108.94450802340137L293.95554166666665,121.00934901534576L306.905125,125.14730850428114L319.85470833333335,126.64288775962838L332.8042916666667,130.43147971880217L345.753875,124.76963738298095L358.70345833333334,108.8609902129432L371.6530416666667,107.31538492982172L384.60262500000005,96.51416680687214L397.55220833333334,92.94164121457588L410.5017916666667,97.86127691993939L423.45137500000004,102.8172634735951L436.40095833333334,113.75517349925113L449.3505416666667,118.65328919056905L462.30012500000004,124.11209686882506L475.2497083333334,133.12254229524768L488.1992916666667,144.13360512506193L501.148875,153.2602147318013L514.0984583333333,156.2161300330553L527.0480416666667,164.28969659838108L539.997625,164.72381840334808L552.9472083333333,169.39429871664234L565.8967916666667,171.56657642548637L578.846375,175.38994069238967L591.7959583333333,176.42395974607203L604.7455416666667,178.93437845069815L617.695125,186.7406238382935L630.6447083333334,201.50437953249363L643.5942916666667,210.99262307608723L656.543875,215.4255702864868L669.4934583333334,226.2753398357782L682.4430416666667,239.71520395137173L695.392625,240.84911997009007L708.3422083333334,241.5294695797042L721.2917916666667,242.56768775680345L734.2413750000001,244.45061746150674L747.1909583333332,249.99036206709613L760.1405416666666,243.2342184407169L773.090125,236.03052625716285L786.0397083333334,228.55832296360964L798.9892916666666,224.07500098777587L811.938875,216.34499458434377L824.8884583333332,211.70699074239565L837.8380416666666,205.14419204212507L850.7876249999999,201.83652123340727L863.7372083333333,192.92191634490726L876.6867916666666,188.8331522101964L889.636375,184.4898865195948L902.5859583333333,185.03393311338678L915.5355416666667,183.4703538598833L928.4851249999999,179.38221832407731L941.4347083333333,168.73933580096343L954.3842916666666,168.6536002789484L967.333875,163.56216377225766L980.2834583333333,166.1773054731325L993.2330416666667,165.2263748724721L1006.182625,160.2458297300017L1019.1322083333334,159.14749182985284L1032.0817916666667,157.85849870280063L1045.031375,155.1950956167915L1057.9809583333333,155.48706097496384L1070.9305416666668,155.0322317784598L1083.880125,149.08933065566845L1096.8297083333334,148.67359599014176L1109.7792916666667,144.64415879571467L1122.728875,139.70649888231773L1135.6784583333333,136.74390293427953L1148.6280416666666,134.96634536545668L1161.577625,132.63981202579254L1174.5272083333332,129.3538848122163L1187.4767916666667,126.12232968570015L1200.426375,128.59340141630904L1213.3759583333333,119.99603604326686L1226.3255416666666,109.79762162596015L1239.2751250000001,95.48858979839098L1252.2247083333332,88.79314186273824L1265.1742916666667,86.66588031112438L1278.123875,91.059526985045L1291.0734583333333,98.10571979591597L1304.0230416666666,111.78343548243853L1316.972625,126.29005888620388" style="fill: none;" fill="none"></path></g></g></g></g><g opacity="0.2"><g><g><g><path stroke="rgb(255, 112, 67)" stroke-width="2px" d="M177.40929166666666,283.5L190.35887499999998,283.5L203.3084583333333,283.5L216.25804166666666,330.75L229.20762499999998,330.75L242.15720833333333,330.75L255.10679166666665,346.4999849796295L268.056375,310.49998712539673L281.00595833333335,251.99998497962952L293.95554166666665,206.18180179595947L306.905125,121.49998712539673L319.85470833333335,121.49998712539673L332.8042916666667,141.75L345.753875,100.058828830719L358.70345833333334,78.74996995925903L371.6530416666667,94.5L384.60262500000005,94.5L397.55220833333334,114.18751502037048L410.5017916666667,117.1799783706665L423.45137500000004,138.37501287460327L436.40095833333334,138.37501287460327L449.3505416666667,146.63791394233704L462.30012500000004,112.21875L475.2497083333334,136.50002002716064L488.1992916666667,136.77633476257324L501.148875,144.1125090122223L514.0984583333333,153.8371925354004L527.0480416666667,154.07610654830933L539.997625,153.5625L552.9472083333333,153.794114112854L565.8967916666667,179.05262446403503L578.846375,182.4827663898468L591.7959583333333,173.25001502037048L604.7455416666667,160.64998197555542L617.695125,160.64998197555542L630.6447083333334,160.64998197555542L643.5942916666667,157.49998497962952L656.543875,155.9250090122223L669.4934583333334,159.0750060081482L682.4430416666667,165.375L695.392625,168.5249969959259L708.3422083333334,185.8500030040741L721.2917916666667,168.5249969959259L734.2413750000001,163.79997897148132L747.1909583333332,163.79997897148132L760.1405416666666,163.79997897148132L773.090125,162.2250030040741L786.0397083333334,124.4249939918518L798.9892916666666,127.57499098777771L811.938875,148.0499939918518L824.8884583333332,152.7750120162964L837.8380416666666,152.7750120162964L850.7876249999999,148.0499939918518L863.7372083333333,148.0499939918518L876.6867916666666,143.32502102851868L889.636375,126.00001502037048L902.5859583333333,116.54997897148132L915.5355416666667,81.90001201629639L928.4851249999999,77.1749939918518L941.4347083333333,83.47498798370361L954.3842916666666,72.44997596740723L967.333875,51.97501802444458L980.2834583333333,75.60001802444458L993.2330416666667,74.02504205703735L1006.182625,81.90001201629639L1019.1322083333334,92.92502403259277L1032.0817916666667,102.37501502037048L1045.031375,105.52501201629639L1057.9809583333333,122.85001802444458L1070.9305416666668,129.1500120162964L1083.880125,127.57499098777771L1096.8297083333334,121.2749969959259L1109.7792916666667,107.09998798370361L1122.728875,96.07502102851868L1135.6784583333333,91.34995794296265L1148.6280416666666,86.62503004074097L1161.577625,86.62503004074097L1174.5272083333332,91.34995794296265L1187.4767916666667,86.62503004074097L1200.426375,126.00001502037048L1213.3759583333333,122.85001802444458L1226.3255416666666,116.54997897148132L1239.2751250000001,143.32502102851868L1252.2247083333332,143.32502102851868L1265.1742916666667,143.32502102851868L1278.123875,144.8999969959259L1291.0734583333333,141.75L1304.0230416666666,144.8999969959259L1316.972625,144.8999969959259" style="fill: none;" fill="none"></path></g><g><path stroke="rgb(204, 51, 17)" stroke-width="2px" d="M203.3084583333333,378L216.25804166666666,378L229.20762499999998,189L242.15720833333333,63.00003004074097L255.10679166666665,26.99998712539673L268.056375,82.6875L281.00595833333335,120.27274775505066L293.95554166666665,138.6000030040741L306.905125,131.24999499320984L319.85470833333335,128.8636486530304L332.8042916666667,136.08000540733337L345.753875,116.30768537521362L358.70345833333334,85.04996395111084L371.6530416666667,105.00000500679016L384.60262500000005,80.32503604888916L397.55220833333334,87.58537244796753L410.5017916666667,105.2386486530304L423.45137500000004,110.24998497962952L436.40095833333334,130.16037225723267L449.3505416666667,126.00001502037048L462.30012500000004,132.3000090122223L475.2497083333334,146.63791394233704L488.1992916666667,160.64998197555542L501.148875,166.95002102851868L514.0984583333333,160.64998197555542L527.0480416666667,176.4000120162964L539.997625,165.375L552.9472083333333,176.4000120162964L565.8967916666667,174.8249909877777L578.846375,181.12498497962952L591.7959583333333,177.9749879837036L604.7455416666667,182.7000060081482L617.695125,198.4499909877777L630.6447083333334,223.6500120162964L643.5942916666667,225.2249879837036L656.543875,222.0749909877777L669.4934583333334,242.5499939918518L682.4430416666667,259.875L695.392625,242.5499939918518L708.3422083333334,242.5499939918518L721.2917916666667,244.12501502037048L734.2413750000001,247.2750120162964L747.1909583333332,258.2999789714813L760.1405416666666,233.1000030040741L773.090125,225.2249879837036L786.0397083333334,217.35001802444458L798.9892916666666,217.35001802444458L811.938875,204.74998497962952L824.8884583333332,204.74998497962952L837.8380416666666,195.2999939918518L850.7876249999999,196.87501502037048L863.7372083333333,179.5500090122223L876.6867916666666,182.7000060081482L889.636375,177.9749879837036L902.5859583333333,185.8500030040741L915.5355416666667,181.12498497962952L928.4851249999999,173.25001502037048L941.4347083333333,152.7750120162964L954.3842916666666,168.5249969959259L967.333875,155.9250090122223L980.2834583333333,170.10001802444458L993.2330416666667,163.79997897148132L1006.182625,152.7750120162964L1019.1322083333334,157.49998497962952L1032.0817916666667,155.9250090122223L1045.031375,151.1999909877777L1057.9809583333333,155.9250090122223L1070.9305416666668,154.3499879837036L1083.880125,140.17497897148132L1096.8297083333334,148.0499939918518L1109.7792916666667,138.6000030040741L1122.728875,132.3000090122223L1135.6784583333333,132.3000090122223L1148.6280416666666,132.3000090122223L1161.577625,129.1500120162964L1174.5272083333332,124.4249939918518L1187.4767916666667,121.2749969959259L1200.426375,132.3000090122223L1213.3759583333333,107.09998798370361L1226.3255416666666,94.5L1239.2751250000001,74.02504205703735L1252.2247083333332,78.74996995925903L1265.1742916666667,83.47498798370361L1278.123875,97.6499969959259L1291.0734583333333,108.67500901222229L1304.0230416666666,132.3000090122223L1316.972625,148.0499939918518" style="fill: none;" fill="none"></path></g></g></g></g></g></g><g transform="translate(41, 378)" clip-path="url(#clip_1)"><clipPath id="clip_1"><rect width="1456" height="22"></rect></clipPath><g><g><line x1="0" y1="0" x2="0" y2="5" style="visibility: inherit;" fill="rgb(0, 0, 0)" stroke="rgb(204, 204, 204)" stroke-width="1px"></line><line x1="161.86979166666666" y1="0" x2="161.86979166666666" y2="5" style="visibility: inherit;" fill="rgb(0, 0, 0)" stroke="rgb(204, 204, 204)" stroke-width="1px"></line><line x1="323.7395833333333" y1="0" x2="323.7395833333333" y2="5" style="visibility: inherit;" fill="rgb(0, 0, 0)" stroke="rgb(204, 204, 204)" stroke-width="1px"></line><line x1="485.609375" y1="0" x2="485.609375" y2="5" style="visibility: inherit;" fill="rgb(0, 0, 0)" stroke="rgb(204, 204, 204)" stroke-width="1px"></line><line x1="647.4791666666666" y1="0" x2="647.4791666666666" y2="5" style="visibility: inherit;" fill="rgb(0, 0, 0)" stroke="rgb(204, 204, 204)" stroke-width="1px"></line><line x1="809.3489583333334" y1="0" x2="809.3489583333334" y2="5" style="visibility: inherit;" fill="rgb(0, 0, 0)" stroke="rgb(204, 204, 204)" stroke-width="1px"></line><line x1="971.21875" y1="0" x2="971.21875" y2="5" style="visibility: inherit;" fill="rgb(0, 0, 0)" stroke="rgb(204, 204, 204)" stroke-width="1px"></line><line x1="1133.0885416666667" y1="0" x2="1133.0885416666667" y2="5" style="visibility: inherit;" fill="rgb(0, 0, 0)" stroke="rgb(204, 204, 204)" stroke-width="1px"></line><line x1="1294.9583333333333" y1="0" x2="1294.9583333333333" y2="5" style="visibility: inherit;" fill="rgb(0, 0, 0)" stroke="rgb(204, 204, 204)" stroke-width="1px"></line><line x1="1456.828125" y1="0" x2="1456.828125" y2="5" style="visibility: inherit;" fill="rgb(0, 0, 0)" stroke="rgb(204, 204, 204)" stroke-width="1px"></line></g><g transform="translate(0, 8)"><text x="0" y="0" dx="0em" dy="0.95em" style="text-anchor: middle; visibility: hidden; font-family: Roboto, sans-serif; font-size: 12px; font-weight: 200;" fill="rgb(50, 49, 63)" stroke="none" stroke-width="1px">-50k</text><text x="161.86979166666666" y="0" dx="0em" dy="0.95em" style="text-anchor: middle; visibility: inherit; font-family: Roboto, sans-serif; font-size: 12px; font-weight: 200;" fill="rgb(50, 49, 63)" stroke="none" stroke-width="1px">0</text><text x="323.7395833333333" y="0" dx="0em" dy="0.95em" style="text-anchor: middle; visibility: inherit; font-family: Roboto, sans-serif; font-size: 12px; font-weight: 200;" fill="rgb(50, 49, 63)" stroke="none" stroke-width="1px">50k</text><text x="485.609375" y="0" dx="0em" dy="0.95em" style="text-anchor: middle; visibility: inherit; font-family: Roboto, sans-serif; font-size: 12px; font-weight: 200;" fill="rgb(50, 49, 63)" stroke="none" stroke-width="1px">100k</text><text x="647.4791666666666" y="0" dx="0em" dy="0.95em" style="text-anchor: middle; visibility: inherit; font-family: Roboto, sans-serif; font-size: 12px; font-weight: 200;" fill="rgb(50, 49, 63)" stroke="none" stroke-width="1px">150k</text><text x="809.3489583333334" y="0" dx="0em" dy="0.95em" style="text-anchor: middle; visibility: inherit; font-family: Roboto, sans-serif; font-size: 12px; font-weight: 200;" fill="rgb(50, 49, 63)" stroke="none" stroke-width="1px">200k</text><text x="971.21875" y="0" dx="0em" dy="0.95em" style="text-anchor: middle; visibility: inherit; font-family: Roboto, sans-serif; font-size: 12px; font-weight: 200;" fill="rgb(50, 49, 63)" stroke="none" stroke-width="1px">250k</text><text x="1133.0885416666667" y="0" dx="0em" dy="0.95em" style="text-anchor: middle; visibility: inherit; font-family: Roboto, sans-serif; font-size: 12px; font-weight: 200;" fill="rgb(50, 49, 63)" stroke="none" stroke-width="1px">300k</text><text x="1294.9583333333333" y="0" dx="0em" dy="0.95em" style="text-anchor: middle; visibility: inherit; font-family: Roboto, sans-serif; font-size: 12px; font-weight: 200;" fill="rgb(50, 49, 63)" stroke="none" stroke-width="1px">350k</text><text x="1456.828125" y="0" dx="0em" dy="0.95em" style="text-anchor: middle; visibility: hidden; font-family: Roboto, sans-serif; font-size: 12px; font-weight: 200;" fill="rgb(50, 49, 63)" stroke="none" stroke-width="1px">400k</text></g><line x1="0" y1="0" x2="1456.828125" y2="0" fill="rgb(0, 0, 0)" stroke="rgb(204, 204, 204)" stroke-width="1px"></line></g></g></g></g></svg>