<svg viewBox="0 0 1498 400" xmlns="http://www.w3.org/2000/svg"><g><g><g><g><g><line x1="41.171875" y1="378" x2="36.171875" y2="378" style="visibility: inherit;" fill="rgb(0, 0, 0)" stroke="rgb(204, 204, 204)" stroke-width="1px"></line><line x1="41.171875" y1="351.0000000000001" x2="36.171875" y2="351.0000000000001" style="visibility: inherit;" fill="rgb(0, 0, 0)" stroke="rgb(204, 204, 204)" stroke-width="1px"></line><line x1="41.171875" y1="324.00000000000006" x2="36.171875" y2="324.00000000000006" style="visibility: inherit;" fill="rgb(0, 0, 0)" stroke="rgb(204, 204, 204)" stroke-width="1px"></line><line x1="41.171875" y1="297.00000000000006" x2="36.171875" y2="297.00000000000006" style="visibility: inherit;" fill="rgb(0, 0, 0)" stroke="rgb(204, 204, 204)" stroke-width="1px"></line><line x1="41.171875" y1="269.99999999999994" x2="36.171875" y2="269.99999999999994" style="visibility: inherit;" fill="rgb(0, 0, 0)" stroke="rgb(204, 204, 204)" stroke-width="1px"></line><line x1="41.171875" y1="242.99999999999997" x2="36.171875" y2="242.99999999999997" style="visibility: inherit;" fill="rgb(0, 0, 0)" stroke="rgb(204, 204, 204)" stroke-width="1px"></line><line x1="41.171875" y1="216.00000000000003" x2="36.171875" y2="216.00000000000003" style="visibility: inherit;" fill="rgb(0, 0, 0)" stroke="rgb(204, 204, 204)" stroke-width="1px"></line><line x1="41.171875" y1="189" x2="36.171875" y2="189" style="visibility: inherit;" fill="rgb(0, 0, 0)" stroke="rgb(204, 204, 204)" stroke-width="1px"></line><line x1="41.171875" y1="161.99999999999997" x2="36.171875" y2="161.99999999999997" style="visibility: inherit;" fill="rgb(0, 0, 0)" stroke="rgb(204, 204, 204)" stroke-width="1px"></line><line x1="41.171875" y1="134.99999999999994" x2="36.171875" y2="134.99999999999994" style="visibility: inherit;" fill="rgb(0, 0, 0)" stroke="rgb(204, 204, 204)" stroke-width="1px"></line><line x1="41.171875" y1="107.99999999999991" x2="36.171875" y2="107.99999999999991" style="visibility: inherit;" fill="rgb(0, 0, 0)" stroke="rgb(204, 204, 204)" stroke-width="1px"></line><line x1="41.171875" y1="80.99999999999996" x2="36.171875" y2="80.99999999999996" style="visibility: inherit;" fill="rgb(0, 0, 0)" stroke="rgb(204, 204, 204)" stroke-width="1px"></line><line x1="41.171875" y1="53.999999999999936" x2="36.171875" y2="53.999999999999936" style="visibility: inherit;" fill="rgb(0, 0, 0)" stroke="rgb(204, 204, 204)" stroke-width="1px"></line><line x1="41.171875" y1="26.999999999999904" x2="36.171875" y2="26.999999999999904" style="visibility: inherit;" fill="rgb(0, 0, 0)" stroke="rgb(204, 204, 204)" stroke-width="1px"></line><line x1="41.171875" y1="0" x2="36.171875" y2="0" style="visibility: inherit;" fill="rgb(0, 0, 0)" stroke="rgb(204, 204, 204)" stroke-width="1px"></line></g><g transform="translate(31.171875, 0)"><text x="0" y="378" dx="0em" dy="0.3em" style="text-anchor: end; visibility: hidden; font-family: Roboto, sans-serif; font-size: 12px; font-weight: 200;" fill="rgb(50, 49, 63)" stroke="none" stroke-width="1px">5.4</text><text x="0" y="351.0000000000001" dx="0em" dy="0.3em" style="text-anchor: end; visibility: inherit; font-family: Roboto, sans-serif; font-size: 12px; font-weight: 200;" fill="rgb(50, 49, 63)" stroke="none" stroke-width="1px">5.6</text><text x="0" y="324.00000000000006" dx="0em" dy="0.3em" style="text-anchor: end; visibility: inherit; font-family: Roboto, sans-serif; font-size: 12px; font-weight: 200;" fill="rgb(50, 49, 63)" stroke="none" stroke-width="1px">5.8</text><text x="0" y="297.00000000000006" dx="0em" dy="0.3em" style="text-anchor: end; visibility: inherit; font-family: Roboto, sans-serif; font-size: 12px; font-weight: 200;" fill="rgb(50, 49, 63)" stroke="none" stroke-width="1px">6</text><text x="0" y="269.99999999999994" dx="0em" dy="0.3em" style="text-anchor: end; visibility: inherit; font-family: Roboto, sans-serif; font-size: 12px; font-weight: 200;" fill="rgb(50, 49, 63)" stroke="none" stroke-width="1px">6.2</text><text x="0" y="242.99999999999997" dx="0em" dy="0.3em" style="text-anchor: end; visibility: inherit; font-family: Roboto, sans-serif; font-size: 12px; font-weight: 200;" fill="rgb(50, 49, 63)" stroke="none" stroke-width="1px">6.4</text><text x="0" y="216.00000000000003" dx="0em" dy="0.3em" style="text-anchor: end; visibility: inherit; font-family: Roboto, sans-serif; font-size: 12px; font-weight: 200;" fill="rgb(50, 49, 63)" stroke="none" stroke-width="1px">6.6</text><text x="0" y="189" dx="0em" dy="0.3em" style="text-anchor: end; visibility: inherit; font-family: Roboto, sans-serif; font-size: 12px; font-weight: 200;" fill="rgb(50, 49, 63)" stroke="none" stroke-width="1px">6.8</text><text x="0" y="161.99999999999997" dx="0em" dy="0.3em" style="text-anchor: end; visibility: inherit; font-family: Roboto, sans-serif; font-size: 12px; font-weight: 200;" fill="rgb(50, 49, 63)" stroke="none" stroke-width="1px">7</text><text x="0" y="134.99999999999994" dx="0em" dy="0.3em" style="text-anchor: end; visibility: inherit; font-family: Roboto, sans-serif; font-size: 12px; font-weight: 200;" fill="rgb(50, 49, 63)" stroke="none" stroke-width="1px">7.2</text><text x="0" y="107.99999999999991" dx="0em" dy="0.3em" style="text-anchor: end; visibility: inherit; font-family: Roboto, sans-serif; font-size: 12px; font-weight: 200;" fill="rgb(50, 49, 63)" stroke="none" stroke-width="1px">7.4</text><text x="0" y="80.99999999999996" dx="0em" dy="0.3em" style="text-anchor: end; visibility: inherit; font-family: Roboto, sans-serif; font-size: 12px; font-weight: 200;" fill="rgb(50, 49, 63)" stroke="none" stroke-width="1px">7.6</text><text x="0" y="53.999999999999936" dx="0em" dy="0.3em" style="text-anchor: end; visibility: inherit; font-family: Roboto, sans-serif; font-size: 12px; font-weight: 200;" fill="rgb(50, 49, 63)" stroke="none" stroke-width="1px">7.8</text><text x="0" y="26.999999999999904" dx="0em" dy="0.3em" style="text-anchor: end; visibility: inherit; font-family: Roboto, sans-serif; font-size: 12px; font-weight: 200;" fill="rgb(50, 49, 63)" stroke="none" stroke-width="1px">8</text><text x="0" y="0" dx="0em" dy="0.3em" style="text-anchor: end; visibility: hidden; font-family: Roboto, sans-serif; font-size: 12px; font-weight: 200;" fill="rgb(50, 49, 63)" stroke="none" stroke-width="1px">8.2</text></g><line x1="41.171875" y1="0" x2="41.171875" y2="378" fill="rgb(0, 0, 0)" stroke="rgb(204, 204, 204)" stroke-width="1px"></line></g></g><g transform="translate(41, 0)" clip-path="url(#clip_0)"><clipPath id="clip_0"><rect width="1456" height="378"></rect></clipPath><g><g><g><line x1="0" y1="0" x2="0" y2="378" fill="rgb(0, 0, 0)" stroke="rgb(60, 60, 60)" stroke-width="1px" opacity="0.25"></line><line x1="161.86979166666666" y1="0" x2="161.86979166666666" y2="378" fill="rgb(0, 0, 0)" stroke="rgb(60, 60, 60)" stroke-width="1px" opacity="0.25"></line><line x1="323.7395833333333" y1="0" x2="323.7395833333333" y2="378" fill="rgb(0, 0, 0)" stroke="rgb(60, 60, 60)" stroke-width="1px" opacity="0.25"></line><line x1="485.609375" y1="0" x2="485.609375" y2="378" fill="rgb(0, 0, 0)" stroke="rgb(60, 60, 60)" stroke-width="1px" opacity="0.25"></line><line x1="647.4791666666666" y1="0" x2="647.4791666666666" y2="378" fill="rgb(0, 0, 0)" stroke="rgb(60, 60, 60)" stroke-width="1px" opacity="0.25"></line><line x1="809.3489583333334" y1="0" x2="809.3489583333334" y2="378" fill="rgb(0, 0, 0)" stroke="rgb(60, 60, 60)" stroke-width="1px" opacity="0.25"></line><line x1="971.21875" y1="0" x2="971.21875" y2="378" fill="rgb(0, 0, 0)" stroke="rgb(60, 60, 60)" stroke-width="1px" opacity="0.25"></line><line x1="1133.0885416666667" y1="0" x2="1133.0885416666667" y2="378" fill="rgb(0, 0, 0)" stroke="rgb(60, 60, 60)" stroke-width="1px" opacity="0.25"></line><line x1="1294.9583333333333" y1="0" x2="1294.9583333333333" y2="378" fill="rgb(0, 0, 0)" stroke="rgb(60, 60, 60)" stroke-width="1px" opacity="0.25"></line><line x1="1456.828125" y1="0" x2="1456.828125" y2="378" fill="rgb(0, 0, 0)" stroke="rgb(60, 60, 60)" stroke-width="1px" opacity="0.25"></line></g><g><line x1="0" y1="378" x2="1456.828125" y2="378" fill="rgb(0, 0, 0)" stroke="rgb(60, 60, 60)" stroke-width="1px" opacity="0.25"></line><line x1="0" y1="351.0000000000001" x2="1456.828125" y2="351.0000000000001" fill="rgb(0, 0, 0)" stroke="rgb(60, 60, 60)" stroke-width="1px" opacity="0.25"></line><line x1="0" y1="324.00000000000006" x2="1456.828125" y2="324.00000000000006" fill="rgb(0, 0, 0)" stroke="rgb(60, 60, 60)" stroke-width="1px" opacity="0.25"></line><line x1="0" y1="297.00000000000006" x2="1456.828125" y2="297.00000000000006" fill="rgb(0, 0, 0)" stroke="rgb(60, 60, 60)" stroke-width="1px" opacity="0.25"></line><line x1="0" y1="269.99999999999994" x2="1456.828125" y2="269.99999999999994" fill="rgb(0, 0, 0)" stroke="rgb(60, 60, 60)" stroke-width="1px" opacity="0.25"></line><line x1="0" y1="242.99999999999997" x2="1456.828125" y2="242.99999999999997" fill="rgb(0, 0, 0)" stroke="rgb(60, 60, 60)" stroke-width="1px" opacity="0.25"></line><line x1="0" y1="216.00000000000003" x2="1456.828125" y2="216.00000000000003" fill="rgb(0, 0, 0)" stroke="rgb(60, 60, 60)" stroke-width="1px" opacity="0.25"></line><line x1="0" y1="189" x2="1456.828125" y2="189" fill="rgb(0, 0, 0)" stroke="rgb(60, 60, 60)" stroke-width="1px" opacity="0.25"></line><line x1="0" y1="161.99999999999997" x2="1456.828125" y2="161.99999999999997" fill="rgb(0, 0, 0)" stroke="rgb(60, 60, 60)" stroke-width="1px" opacity="0.25"></line><line x1="0" y1="134.99999999999994" x2="1456.828125" y2="134.99999999999994" fill="rgb(0, 0, 0)" stroke="rgb(60, 60, 60)" stroke-width="1px" opacity="0.25"></line><line x1="0" y1="107.99999999999991" x2="1456.828125" y2="107.99999999999991" fill="rgb(0, 0, 0)" stroke="rgb(60, 60, 60)" stroke-width="1px" opacity="0.25"></line><line x1="0" y1="80.99999999999996" x2="1456.828125" y2="80.99999999999996" fill="rgb(0, 0, 0)" stroke="rgb(60, 60, 60)" stroke-width="1px" opacity="0.25"></line><line x1="0" y1="53.999999999999936" x2="1456.828125" y2="53.999999999999936" fill="rgb(0, 0, 0)" stroke="rgb(60, 60, 60)" stroke-width="1px" opacity="0.25"></line><line x1="0" y1="26.999999999999904" x2="1456.828125" y2="26.999999999999904" fill="rgb(0, 0, 0)" stroke="rgb(60, 60, 60)" stroke-width="1px" opacity="0.25"></line><line x1="0" y1="0" x2="1456.828125" y2="0" fill="rgb(0, 0, 0)" stroke="rgb(60, 60, 60)" stroke-width="1px" opacity="0.25"></line></g></g></g><g><g><line x1="0" y1="1107.0000000000005" x2="1456.828125" y2="1107.0000000000005" fill="rgb(0, 0, 0)" stroke="rgb(153, 153, 153)" stroke-width="1.5px"></line></g></g><g><g><line x1="161.86979166666666" y1="0" x2="161.86979166666666" y2="378" fill="rgb(0, 0, 0)" stroke="rgb(153, 153, 153)" stroke-width="1.5px"></line></g></g><g><g><g><g><g><path stroke="rgb(255, 112, 67)" stroke-width="2px" d="M177.40929166666666,296.9999999999999L190.35887499999998,296.9999999999999L203.3084583333333,296.9999999999999L216.25804166666666,328.02022058823513L229.20762499999998,343.8424705065927L242.15720833333333,352.5098684210526L255.10679166666665,357.4440464589535L268.056375,332.8533994334278L281.00595833333335,318.3660404604844L293.95554166666665,309.767632994374L306.905125,304.64198409331067L319.85470833333335,301.5785219657401L332.8042916666667,299.7447181043321L345.753875,298.64596983770457L358.70345833333334,270.9745712264936L371.6530416666667,281.3876803884386L384.60262500000005,260.62909449792386L397.55220833333334,248.1761919825145L410.5017916666667,213.7036145694277L423.45137500000004,220.0223997664548L436.40095833333334,223.81352302555672L449.3505416666667,253.08849913755756L462.30012500000004,216.6528117388993L475.2497083333334,221.7917113934057L488.1992916666667,224.87503560202285L501.148875,226.72502451695684L514.0984583333333,254.83504348050766L527.0480416666667,244.7010198650593L539.997625,238.6206096786687L552.9472083333333,207.97235903167226L565.8967916666667,243.5834201426094L578.846375,264.9500537860637L591.7959583333333,277.7700328838173L604.7455416666667,285.46201995067486L617.695125,290.0772120497433L630.6447083333334,292.8463272584078L643.5942916666667,267.50779619823334L656.543875,252.30467766248782L669.4934583333334,216.18280651701625L682.4430416666667,194.50968388123826L695.392625,208.5058103399686L708.3422083333334,243.90348622101564L721.2917916666667,238.14209173094588L734.2413750000001,207.6852550332911L747.1909583333332,189.41115301807517L760.1405416666666,178.44669181016124L773.090125,171.86801508585052L786.0397083333334,167.92080905142177L798.9892916666666,165.55248543082118L811.938875,191.13149125869933L824.8884583333332,206.47889475529405L837.8380416666666,215.68733685320333L850.7876249999999,194.21240211188444L863.7372083333333,181.32744126711717L876.6867916666666,173.59646476026535L889.636375,168.95787885615758L902.5859583333333,166.17472731369384L915.5355416666667,137.50483638821237L928.4851249999999,147.30290183292817L941.4347083333333,153.1817410997571L954.3842916666666,102.70904465985286L967.333875,72.42542679591126L980.2834583333333,108.25525607754696L993.2330416666667,129.7531536465283L1006.182625,142.65189218791704L1019.1322083333334,150.39113531275012L1032.0817916666667,155.03468118765016L1045.031375,157.8208087125901L1057.9809583333333,159.49248522755389L1070.9305416666668,160.49549113653228L1083.880125,161.0972946819194L1096.8297083333334,161.4583768091517L1109.7792916666667,161.675026085491L1122.728875,161.8050156512947L1135.6784583333333,161.8830093907767L1148.6280416666666,161.92980563446594L1161.577625,161.95788338067948L1174.5272083333332,161.9747300284077L1187.4767916666667,161.9848380170445L1200.426375,188.9909028102268L1213.3759583333333,205.19454168613618L1226.3255416666666,187.9167250116818L1239.2751250000001,204.55003500700894L1252.2247083333332,214.53002100420537L1265.1742916666667,220.51801260252324L1278.123875,224.110807561514L1291.0734583333333,199.26648453690842L1304.0230416666666,211.359890722145L1316.972625,218.61593443328704" style="fill: none;" fill="none"></path></g><g><path stroke="rgb(204, 51, 17)" stroke-width="2px" d="M216.25804166666666,432.00000000000006L229.20762499999998,294.2448979591836L242.15720833333333,171.43014705882354L255.10679166666665,50.233865371270014L268.056375,40.48549946294304L281.00595833333335,90.49113750691357L293.95554166666665,119.58331944675895L306.905125,109.44784948294297L319.85470833333335,103.43233618116219L332.8042916666667,126.94470388652827L345.753875,113.93851068028707L358.70345833333334,133.18824790094487L371.6530416666667,144.7219870588472L384.60262500000005,151.6364433088136L397.55220833333334,155.7830357845996L410.5017916666667,158.2702424717655L423.45137500000004,159.76229701605413L436.40095833333334,160.65743275560058L449.3505416666667,161.19447928863255L462.30012500000004,161.51669464160187L475.2497083333334,188.7103747128115L488.1992916666667,232.02656690874818L501.148875,258.0160632933935L514.0984583333333,273.609682309144L527.0480416666667,282.96582534535696L539.997625,288.5795009527569L552.9472083333333,291.9477026400472L565.8967916666667,293.9686223286495L578.846375,322.1811796342504L591.7959583333333,312.1087064444935L604.7455416666667,306.0652233857158L617.695125,302.4391338582763L630.6447083333334,300.2634802526308L643.5942916666667,298.95808812913776L656.543875,298.17485286940394L669.4934583333334,297.704911718734L682.4430416666667,297.42294703019337L695.392625,297.2537682177391L708.3422083333334,297.15226093050785L721.2917916666667,297.0913565582559L734.2413750000001,297.0548139349358L747.1909583333332,297.03288836095516L760.1405416666666,297.01973301657085L773.090125,297.01183980994165L786.0397083333334,297.0071038859646L798.9892916666666,297.00426233157884L811.938875,297.00255739894715L824.8884583333332,297.0015344393682L837.8380416666666,297.00092066362095L850.7876249999999,297.0005523981727L863.7372083333333,297.0003314389036L876.6867916666666,297.0001988633422L889.636375,297.0001193180053L902.5859583333333,297.00007159080303L915.5355416666667,297.0000429544817L928.4851249999999,297.0000257726892L941.4347083333333,243.00001546360616L954.3842916666666,264.6000092781654L967.333875,250.56000556689864L980.2834583333333,242.13600334013907L993.2330416666667,237.08160200408338L1006.182625,234.04896120244996L1019.1322083333334,232.22937672147L1032.0817916666667,231.1376260328819L1045.031375,203.48257561972895L1057.9809583333333,186.88954537183741L1070.9305416666668,176.93372722310235L1083.880125,170.96023633386156L1096.8297083333334,194.37614180031673L1109.7792916666667,208.42568508019005L1122.728875,189.85541104811395L1135.6784583333333,178.71324662886835L1148.6280416666666,172.02794797732108L1161.577625,141.01676878639262L1174.5272083333332,95.41006127183554L1187.4767916666667,68.04603676310124L1200.426375,78.62762205786073L1213.3759583333333,57.97657323471637L1226.3255416666666,45.58594394082975L1239.2751250000001,38.15156636449778L1252.2247083333332,33.69093981869859L1265.1742916666667,31.014563891219158L1278.123875,29.40873833473144L1291.0734583333333,28.445243000838857L1304.0230416666666,81.86714580050334L1316.972625,113.92028748030202" style="fill: none;" fill="none"></path></g></g></g></g><g opacity="0.2"><g><g><g><path stroke="rgb(255, 112, 67)" stroke-width="2px" d="M177.40929166666666,297.00000000000006L190.35887499999998,297.00000000000006L203.3084583333333,297.00000000000006L216.25804166666666,364.50000000000006L229.20762499999998,364.50000000000006L242.15720833333333,364.50000000000006L255.10679166666665,364.50000000000006L268.056375,297.00000000000006L281.00595833333335,297.00000000000006L293.95554166666665,297.00000000000006L306.905125,297.00000000000006L319.85470833333335,297.00000000000006L332.8042916666667,297.00000000000006L345.753875,297.00000000000006L358.70345833333334,229.49999999999997L371.6530416666667,297.00000000000006L384.60262500000005,229.49999999999997L397.55220833333334,229.49999999999997L410.5017916666667,161.99999999999997L423.45137500000004,229.49999999999997L436.40095833333334,229.49999999999997L449.3505416666667,297.00000000000006L462.30012500000004,161.99999999999997L475.2497083333334,229.49999999999997L488.1992916666667,229.49999999999997L501.148875,229.49999999999997L514.0984583333333,297.00000000000006L527.0480416666667,229.49999999999997L539.997625,229.49999999999997L552.9472083333333,161.99999999999997L565.8967916666667,297.00000000000006L578.846375,297.00000000000006L591.7959583333333,297.00000000000006L604.7455416666667,297.00000000000006L617.695125,297.00000000000006L630.6447083333334,297.00000000000006L643.5942916666667,229.49999999999997L656.543875,229.49999999999997L669.4934583333334,161.99999999999997L682.4430416666667,161.99999999999997L695.392625,229.49999999999997L708.3422083333334,297.00000000000006L721.2917916666667,229.49999999999997L734.2413750000001,161.99999999999997L747.1909583333332,161.99999999999997L760.1405416666666,161.99999999999997L773.090125,161.99999999999997L786.0397083333334,161.99999999999997L798.9892916666666,161.99999999999997L811.938875,229.49999999999997L824.8884583333332,229.49999999999997L837.8380416666666,229.49999999999997L850.7876249999999,161.99999999999997L863.7372083333333,161.99999999999997L876.6867916666666,161.99999999999997L889.636375,161.99999999999997L902.5859583333333,161.99999999999997L915.5355416666667,94.49999999999996L928.4851249999999,161.99999999999997L941.4347083333333,161.99999999999997L954.3842916666666,26.999999999999904L967.333875,26.999999999999904L980.2834583333333,161.99999999999997L993.2330416666667,161.99999999999997L1006.182625,161.99999999999997L1019.1322083333334,161.99999999999997L1032.0817916666667,161.99999999999997L1045.031375,161.99999999999997L1057.9809583333333,161.99999999999997L1070.9305416666668,161.99999999999997L1083.880125,161.99999999999997L1096.8297083333334,161.99999999999997L1109.7792916666667,161.99999999999997L1122.728875,161.99999999999997L1135.6784583333333,161.99999999999997L1148.6280416666666,161.99999999999997L1161.577625,161.99999999999997L1174.5272083333332,161.99999999999997L1187.4767916666667,161.99999999999997L1200.426375,229.49999999999997L1213.3759583333333,229.49999999999997L1226.3255416666666,161.99999999999997L1239.2751250000001,229.49999999999997L1252.2247083333332,229.49999999999997L1265.1742916666667,229.49999999999997L1278.123875,229.49999999999997L1291.0734583333333,161.99999999999997L1304.0230416666666,229.49999999999997L1316.972625,229.49999999999997" style="fill: none;" fill="none"></path></g><g><path stroke="rgb(204, 51, 17)" stroke-width="2px" d="M216.25804166666666,432.00000000000006L229.20762499999998,161.99999999999997L242.15720833333333,26.999999999999904L255.10679166666665,-108.00000000000011L268.056375,26.999999999999904L281.00595833333335,161.99999999999997L293.95554166666665,161.99999999999997L306.905125,94.49999999999996L319.85470833333335,94.49999999999996L332.8042916666667,161.99999999999997L345.753875,94.49999999999996L358.70345833333334,161.99999999999997L371.6530416666667,161.99999999999997L384.60262500000005,161.99999999999997L397.55220833333334,161.99999999999997L410.5017916666667,161.99999999999997L423.45137500000004,161.99999999999997L436.40095833333334,161.99999999999997L449.3505416666667,161.99999999999997L462.30012500000004,161.99999999999997L475.2497083333334,229.49999999999997L488.1992916666667,297.00000000000006L501.148875,297.00000000000006L514.0984583333333,297.00000000000006L527.0480416666667,297.00000000000006L539.997625,297.00000000000006L552.9472083333333,297.00000000000006L565.8967916666667,297.00000000000006L578.846375,364.50000000000006L591.7959583333333,297.00000000000006L604.7455416666667,297.00000000000006L617.695125,297.00000000000006L630.6447083333334,297.00000000000006L643.5942916666667,297.00000000000006L656.543875,297.00000000000006L669.4934583333334,297.00000000000006L682.4430416666667,297.00000000000006L695.392625,297.00000000000006L708.3422083333334,297.00000000000006L721.2917916666667,297.00000000000006L734.2413750000001,297.00000000000006L747.1909583333332,297.00000000000006L760.1405416666666,297.00000000000006L773.090125,297.00000000000006L786.0397083333334,297.00000000000006L798.9892916666666,297.00000000000006L811.938875,297.00000000000006L824.8884583333332,297.00000000000006L837.8380416666666,297.00000000000006L850.7876249999999,297.00000000000006L863.7372083333333,297.00000000000006L876.6867916666666,297.00000000000006L889.636375,297.00000000000006L902.5859583333333,297.00000000000006L915.5355416666667,297.00000000000006L928.4851249999999,297.00000000000006L941.4347083333333,161.99999999999997L954.3842916666666,297.00000000000006L967.333875,229.49999999999997L980.2834583333333,229.49999999999997L993.2330416666667,229.49999999999997L1006.182625,229.49999999999997L1019.1322083333334,229.49999999999997L1032.0817916666667,229.49999999999997L1045.031375,161.99999999999997L1057.9809583333333,161.99999999999997L1070.9305416666668,161.99999999999997L1083.880125,161.99999999999997L1096.8297083333334,229.49999999999997L1109.7792916666667,229.49999999999997L1122.728875,161.99999999999997L1135.6784583333333,161.99999999999997L1148.6280416666666,161.99999999999997L1161.577625,94.49999999999996L1174.5272083333332,26.999999999999904L1187.4767916666667,26.999999999999904L1200.426375,94.49999999999996L1213.3759583333333,26.999999999999904L1226.3255416666666,26.999999999999904L1239.2751250000001,26.999999999999904L1252.2247083333332,26.999999999999904L1265.1742916666667,26.999999999999904L1278.123875,26.999999999999904L1291.0734583333333,26.999999999999904L1304.0230416666666,161.99999999999997L1316.972625,161.99999999999997" style="fill: none;" fill="none"></path></g></g></g></g></g></g><g transform="translate(41, 378)" clip-path="url(#clip_1)"><clipPath id="clip_1"><rect width="1456" height="22"></rect></clipPath><g><g><line x1="0" y1="0" x2="0" y2="5" style="visibility: inherit;" fill="rgb(0, 0, 0)" stroke="rgb(204, 204, 204)" stroke-width="1px"></line><line x1="161.86979166666666" y1="0" x2="161.86979166666666" y2="5" style="visibility: inherit;" fill="rgb(0, 0, 0)" stroke="rgb(204, 204, 204)" stroke-width="1px"></line><line x1="323.7395833333333" y1="0" x2="323.7395833333333" y2="5" style="visibility: inherit;" fill="rgb(0, 0, 0)" stroke="rgb(204, 204, 204)" stroke-width="1px"></line><line x1="485.609375" y1="0" x2="485.609375" y2="5" style="visibility: inherit;" fill="rgb(0, 0, 0)" stroke="rgb(204, 204, 204)" stroke-width="1px"></line><line x1="647.4791666666666" y1="0" x2="647.4791666666666" y2="5" style="visibility: inherit;" fill="rgb(0, 0, 0)" stroke="rgb(204, 204, 204)" stroke-width="1px"></line><line x1="809.3489583333334" y1="0" x2="809.3489583333334" y2="5" style="visibility: inherit;" fill="rgb(0, 0, 0)" stroke="rgb(204, 204, 204)" stroke-width="1px"></line><line x1="971.21875" y1="0" x2="971.21875" y2="5" style="visibility: inherit;" fill="rgb(0, 0, 0)" stroke="rgb(204, 204, 204)" stroke-width="1px"></line><line x1="1133.0885416666667" y1="0" x2="1133.0885416666667" y2="5" style="visibility: inherit;" fill="rgb(0, 0, 0)" stroke="rgb(204, 204, 204)" stroke-width="1px"></line><line x1="1294.9583333333333" y1="0" x2="1294.9583333333333" y2="5" style="visibility: inherit;" fill="rgb(0, 0, 0)" stroke="rgb(204, 204, 204)" stroke-width="1px"></line><line x1="1456.828125" y1="0" x2="1456.828125" y2="5" style="visibility: inherit;" fill="rgb(0, 0, 0)" stroke="rgb(204, 204, 204)" stroke-width="1px"></line></g><g transform="translate(0, 8)"><text x="0" y="0" dx="0em" dy="0.95em" style="text-anchor: middle; visibility: hidden; font-family: Roboto, sans-serif; font-size: 12px; font-weight: 200;" fill="rgb(50, 49, 63)" stroke="none" stroke-width="1px">-50k</text><text x="161.86979166666666" y="0" dx="0em" dy="0.95em" style="text-anchor: middle; visibility: inherit; font-family: Roboto, sans-serif; font-size: 12px; font-weight: 200;" fill="rgb(50, 49, 63)" stroke="none" stroke-width="1px">0</text><text x="323.7395833333333" y="0" dx="0em" dy="0.95em" style="text-anchor: middle; visibility: inherit; font-family: Roboto, sans-serif; font-size: 12px; font-weight: 200;" fill="rgb(50, 49, 63)" stroke="none" stroke-width="1px">50k</text><text x="485.609375" y="0" dx="0em" dy="0.95em" style="text-anchor: middle; visibility: inherit; font-family: Roboto, sans-serif; font-size: 12px; font-weight: 200;" fill="rgb(50, 49, 63)" stroke="none" stroke-width="1px">100k</text><text x="647.4791666666666" y="0" dx="0em" dy="0.95em" style="text-anchor: middle; visibility: inherit; font-family: Roboto, sans-serif; font-size: 12px; font-weight: 200;" fill="rgb(50, 49, 63)" stroke="none" stroke-width="1px">150k</text><text x="809.3489583333334" y="0" dx="0em" dy="0.95em" style="text-anchor: middle; visibility: inherit; font-family: Roboto, sans-serif; font-size: 12px; font-weight: 200;" fill="rgb(50, 49, 63)" stroke="none" stroke-width="1px">200k</text><text x="971.21875" y="0" dx="0em" dy="0.95em" style="text-anchor: middle; visibility: inherit; font-family: Roboto, sans-serif; font-size: 12px; font-weight: 200;" fill="rgb(50, 49, 63)" stroke="none" stroke-width="1px">250k</text><text x="1133.0885416666667" y="0" dx="0em" dy="0.95em" style="text-anchor: middle; visibility: inherit; font-family: Roboto, sans-serif; font-size: 12px; font-weight: 200;" fill="rgb(50, 49, 63)" stroke="none" stroke-width="1px">300k</text><text x="1294.9583333333333" y="0" dx="0em" dy="0.95em" style="text-anchor: middle; visibility: inherit; font-family: Roboto, sans-serif; font-size: 12px; font-weight: 200;" fill="rgb(50, 49, 63)" stroke="none" stroke-width="1px">350k</text><text x="1456.828125" y="0" dx="0em" dy="0.95em" style="text-anchor: middle; visibility: hidden; font-family: Roboto, sans-serif; font-size: 12px; font-weight: 200;" fill="rgb(50, 49, 63)" stroke="none" stroke-width="1px">400k</text></g><line x1="0" y1="0" x2="1456.828125" y2="0" fill="rgb(0, 0, 0)" stroke="rgb(204, 204, 204)" stroke-width="1px"></line></g></g></g></g></svg>