<svg viewBox="0 0 1498 400" xmlns="http://www.w3.org/2000/svg"><g><g><g><g><g><line x1="41.171875" y1="378" x2="36.171875" y2="378" style="visibility: inherit;" fill="rgb(0, 0, 0)" stroke="rgb(204, 204, 204)" stroke-width="1px"></line><line x1="41.171875" y1="340.2" x2="36.171875" y2="340.2" style="visibility: inherit;" fill="rgb(0, 0, 0)" stroke="rgb(204, 204, 204)" stroke-width="1px"></line><line x1="41.171875" y1="302.40000000000003" x2="36.171875" y2="302.40000000000003" style="visibility: inherit;" fill="rgb(0, 0, 0)" stroke="rgb(204, 204, 204)" stroke-width="1px"></line><line x1="41.171875" y1="264.59999999999997" x2="36.171875" y2="264.59999999999997" style="visibility: inherit;" fill="rgb(0, 0, 0)" stroke="rgb(204, 204, 204)" stroke-width="1px"></line><line x1="41.171875" y1="226.79999999999998" x2="36.171875" y2="226.79999999999998" style="visibility: inherit;" fill="rgb(0, 0, 0)" stroke="rgb(204, 204, 204)" stroke-width="1px"></line><line x1="41.171875" y1="188.99999999999997" x2="36.171875" y2="188.99999999999997" style="visibility: inherit;" fill="rgb(0, 0, 0)" stroke="rgb(204, 204, 204)" stroke-width="1px"></line><line x1="41.171875" y1="151.2000000000001" x2="36.171875" y2="151.2000000000001" style="visibility: inherit;" fill="rgb(0, 0, 0)" stroke="rgb(204, 204, 204)" stroke-width="1px"></line><line x1="41.171875" y1="113.40000000000006" x2="36.171875" y2="113.40000000000006" style="visibility: inherit;" fill="rgb(0, 0, 0)" stroke="rgb(204, 204, 204)" stroke-width="1px"></line><line x1="41.171875" y1="75.60000000000007" x2="36.171875" y2="75.60000000000007" style="visibility: inherit;" fill="rgb(0, 0, 0)" stroke="rgb(204, 204, 204)" stroke-width="1px"></line><line x1="41.171875" y1="37.80000000000003" x2="36.171875" y2="37.80000000000003" style="visibility: inherit;" fill="rgb(0, 0, 0)" stroke="rgb(204, 204, 204)" stroke-width="1px"></line><line x1="41.171875" y1="0" x2="36.171875" y2="0" style="visibility: inherit;" fill="rgb(0, 0, 0)" stroke="rgb(204, 204, 204)" stroke-width="1px"></line></g><g transform="translate(31.171875, 0)"><text x="0" y="378" dx="0em" dy="0.3em" style="text-anchor: end; visibility: hidden; font-family: Roboto, sans-serif; font-size: 12px; font-weight: 200;" fill="rgb(50, 49, 63)" stroke="none" stroke-width="1px">3.4</text><text x="0" y="340.2" dx="0em" dy="0.3em" style="text-anchor: end; visibility: inherit; font-family: Roboto, sans-serif; font-size: 12px; font-weight: 200;" fill="rgb(50, 49, 63)" stroke="none" stroke-width="1px">3.6</text><text x="0" y="302.40000000000003" dx="0em" dy="0.3em" style="text-anchor: end; visibility: inherit; font-family: Roboto, sans-serif; font-size: 12px; font-weight: 200;" fill="rgb(50, 49, 63)" stroke="none" stroke-width="1px">3.8</text><text x="0" y="264.59999999999997" dx="0em" dy="0.3em" style="text-anchor: end; visibility: inherit; font-family: Roboto, sans-serif; font-size: 12px; font-weight: 200;" fill="rgb(50, 49, 63)" stroke="none" stroke-width="1px">4</text><text x="0" y="226.79999999999998" dx="0em" dy="0.3em" style="text-anchor: end; visibility: inherit; font-family: Roboto, sans-serif; font-size: 12px; font-weight: 200;" fill="rgb(50, 49, 63)" stroke="none" stroke-width="1px">4.2</text><text x="0" y="188.99999999999997" dx="0em" dy="0.3em" style="text-anchor: end; visibility: inherit; font-family: Roboto, sans-serif; font-size: 12px; font-weight: 200;" fill="rgb(50, 49, 63)" stroke="none" stroke-width="1px">4.4</text><text x="0" y="151.2000000000001" dx="0em" dy="0.3em" style="text-anchor: end; visibility: inherit; font-family: Roboto, sans-serif; font-size: 12px; font-weight: 200;" fill="rgb(50, 49, 63)" stroke="none" stroke-width="1px">4.6</text><text x="0" y="113.40000000000006" dx="0em" dy="0.3em" style="text-anchor: end; visibility: inherit; font-family: Roboto, sans-serif; font-size: 12px; font-weight: 200;" fill="rgb(50, 49, 63)" stroke="none" stroke-width="1px">4.8</text><text x="0" y="75.60000000000007" dx="0em" dy="0.3em" style="text-anchor: end; visibility: inherit; font-family: Roboto, sans-serif; font-size: 12px; font-weight: 200;" fill="rgb(50, 49, 63)" stroke="none" stroke-width="1px">5</text><text x="0" y="37.80000000000003" dx="0em" dy="0.3em" style="text-anchor: end; visibility: inherit; font-family: Roboto, sans-serif; font-size: 12px; font-weight: 200;" fill="rgb(50, 49, 63)" stroke="none" stroke-width="1px">5.2</text><text x="0" y="0" dx="0em" dy="0.3em" style="text-anchor: end; visibility: hidden; font-family: Roboto, sans-serif; font-size: 12px; font-weight: 200;" fill="rgb(50, 49, 63)" stroke="none" stroke-width="1px">5.4</text></g><line x1="41.171875" y1="0" x2="41.171875" y2="378" fill="rgb(0, 0, 0)" stroke="rgb(204, 204, 204)" stroke-width="1px"></line></g></g><g transform="translate(41, 0)" clip-path="url(#clip_0)"><clipPath id="clip_0"><rect width="1456" height="378"></rect></clipPath><g><g><g><line x1="0" y1="0" x2="0" y2="378" fill="rgb(0, 0, 0)" stroke="rgb(60, 60, 60)" stroke-width="1px" opacity="0.25"></line><line x1="161.86979166666666" y1="0" x2="161.86979166666666" y2="378" fill="rgb(0, 0, 0)" stroke="rgb(60, 60, 60)" stroke-width="1px" opacity="0.25"></line><line x1="323.7395833333333" y1="0" x2="323.7395833333333" y2="378" fill="rgb(0, 0, 0)" stroke="rgb(60, 60, 60)" stroke-width="1px" opacity="0.25"></line><line x1="485.609375" y1="0" x2="485.609375" y2="378" fill="rgb(0, 0, 0)" stroke="rgb(60, 60, 60)" stroke-width="1px" opacity="0.25"></line><line x1="647.4791666666666" y1="0" x2="647.4791666666666" y2="378" fill="rgb(0, 0, 0)" stroke="rgb(60, 60, 60)" stroke-width="1px" opacity="0.25"></line><line x1="809.3489583333334" y1="0" x2="809.3489583333334" y2="378" fill="rgb(0, 0, 0)" stroke="rgb(60, 60, 60)" stroke-width="1px" opacity="0.25"></line><line x1="971.21875" y1="0" x2="971.21875" y2="378" fill="rgb(0, 0, 0)" stroke="rgb(60, 60, 60)" stroke-width="1px" opacity="0.25"></line><line x1="1133.0885416666667" y1="0" x2="1133.0885416666667" y2="378" fill="rgb(0, 0, 0)" stroke="rgb(60, 60, 60)" stroke-width="1px" opacity="0.25"></line><line x1="1294.9583333333333" y1="0" x2="1294.9583333333333" y2="378" fill="rgb(0, 0, 0)" stroke="rgb(60, 60, 60)" stroke-width="1px" opacity="0.25"></line><line x1="1456.828125" y1="0" x2="1456.828125" y2="378" fill="rgb(0, 0, 0)" stroke="rgb(60, 60, 60)" stroke-width="1px" opacity="0.25"></line></g><g><line x1="0" y1="378" x2="1456.828125" y2="378" fill="rgb(0, 0, 0)" stroke="rgb(60, 60, 60)" stroke-width="1px" opacity="0.25"></line><line x1="0" y1="340.2" x2="1456.828125" y2="340.2" fill="rgb(0, 0, 0)" stroke="rgb(60, 60, 60)" stroke-width="1px" opacity="0.25"></line><line x1="0" y1="302.40000000000003" x2="1456.828125" y2="302.40000000000003" fill="rgb(0, 0, 0)" stroke="rgb(60, 60, 60)" stroke-width="1px" opacity="0.25"></line><line x1="0" y1="264.59999999999997" x2="1456.828125" y2="264.59999999999997" fill="rgb(0, 0, 0)" stroke="rgb(60, 60, 60)" stroke-width="1px" opacity="0.25"></line><line x1="0" y1="226.79999999999998" x2="1456.828125" y2="226.79999999999998" fill="rgb(0, 0, 0)" stroke="rgb(60, 60, 60)" stroke-width="1px" opacity="0.25"></line><line x1="0" y1="188.99999999999997" x2="1456.828125" y2="188.99999999999997" fill="rgb(0, 0, 0)" stroke="rgb(60, 60, 60)" stroke-width="1px" opacity="0.25"></line><line x1="0" y1="151.2000000000001" x2="1456.828125" y2="151.2000000000001" fill="rgb(0, 0, 0)" stroke="rgb(60, 60, 60)" stroke-width="1px" opacity="0.25"></line><line x1="0" y1="113.40000000000006" x2="1456.828125" y2="113.40000000000006" fill="rgb(0, 0, 0)" stroke="rgb(60, 60, 60)" stroke-width="1px" opacity="0.25"></line><line x1="0" y1="75.60000000000007" x2="1456.828125" y2="75.60000000000007" fill="rgb(0, 0, 0)" stroke="rgb(60, 60, 60)" stroke-width="1px" opacity="0.25"></line><line x1="0" y1="37.80000000000003" x2="1456.828125" y2="37.80000000000003" fill="rgb(0, 0, 0)" stroke="rgb(60, 60, 60)" stroke-width="1px" opacity="0.25"></line><line x1="0" y1="0" x2="1456.828125" y2="0" fill="rgb(0, 0, 0)" stroke="rgb(60, 60, 60)" stroke-width="1px" opacity="0.25"></line></g></g></g><g><g><line x1="0" y1="1020.5999999999997" x2="1456.828125" y2="1020.5999999999997" fill="rgb(0, 0, 0)" stroke="rgb(153, 153, 153)" stroke-width="1.5px"></line></g></g><g><g><line x1="161.86979166666666" y1="0" x2="161.86979166666666" y2="378" fill="rgb(0, 0, 0)" stroke="rgb(153, 153, 153)" stroke-width="1.5px"></line></g></g><g><g><g><g><g><path stroke="rgb(255, 112, 67)" stroke-width="2px" d="M203.3084583333333,405.38571428571413L216.25804166666666,340.6863970588234L229.20762499999998,307.6857043719638L242.15720833333333,289.6079887218044L255.10679166666665,201.5394374358028L268.056375,150.3030885477421L281.00595833333335,120.11765349051093L293.95554166666665,102.20226458846061L306.905125,91.52261329258397L319.85470833333335,85.13967370540519L332.8042916666667,81.31881391518338L345.753875,79.02949434296386L358.70345833333334,77.657051303669L371.6530416666667,76.83399858998501L384.60262500000005,76.340315589951L397.55220833333334,76.04415927634827L410.5017916666667,75.86648473903816L423.45137500000004,75.75988694603873L436.40095833333334,75.69593076461967L449.3505416666667,75.65755795370248L462.30012500000004,75.6345345903991L475.2497083333334,75.6207206887838L488.1992916666667,75.6124323897065L501.148875,75.6074594253411L514.0984583333333,75.60447565215067L527.0480416666667,75.60268539019118L539.997625,75.60161123371921L552.9472083333333,75.600966740089L565.8967916666667,75.60058004400199L578.846375,75.60034802638289L591.7959583333333,75.60020881582298L604.7455416666667,75.60012528949146L617.695125,75.60007517369404L630.6447083333334,75.60004510421625L643.5942916666667,75.60002706252958L656.543875,75.60001623751766L669.4934583333334,75.60000974251089L682.4430416666667,75.60000584550633L695.392625,75.60000350730385L708.3422083333334,75.60000210438237L721.2917916666667,75.60000126262945L734.2413750000001,75.60000075757773L747.1909583333332,75.6000004545467L760.1405416666666,75.60000027272798L773.090125,75.60000016363692L786.0397083333334,75.6000000981822L798.9892916666666,75.60000005890936L811.938875,75.6000000353457L824.8884583333332,75.60000002120738L837.8380416666666,75.60000001272445L850.7876249999999,75.60000000763476L863.7372083333333,75.60000000458095L876.6867916666666,75.6000000027487L889.636375,75.60000000164935L902.5859583333333,75.60000000098964L915.5355416666667,75.60000000059398L928.4851249999999,75.60000000035645L941.4347083333333,75.6000000002141L954.3842916666666,75.60000000012849L967.333875,75.60000000007712L980.2834583333333,75.60000000004639L993.2330416666667,75.60000000002776L1006.182625,75.60000000001669L1019.1322083333334,75.60000000000997L1032.0817916666667,75.60000000000628L1045.031375,75.60000000000376L1057.9809583333333,75.60000000000241L1070.9305416666668,75.60000000000142L1083.880125,75.6000000000009L1096.8297083333334,75.60000000000058L1109.7792916666667,75.60000000000024L1122.728875,75.6000000000004L1135.6784583333333,75.6000000000004L1148.6280416666666,75.6000000000004L1161.577625,75.6000000000004L1174.5272083333332,75.6000000000004L1187.4767916666667,75.6000000000004L1200.426375,75.6000000000004L1213.3759583333333,75.6000000000004L1226.3255416666666,75.6000000000004L1239.2751250000001,75.6000000000004L1252.2247083333332,75.6000000000004L1265.1742916666667,75.6000000000004L1278.123875,75.6000000000004L1291.0734583333333,75.6000000000004L1304.0230416666666,75.6000000000004L1316.972625,75.6000000000004" style="fill: none;" fill="none"></path></g><g><path stroke="rgb(204, 51, 17)" stroke-width="2px" d="M203.3084583333333,453.5999999999999L216.25804166666666,366.74338235294107L229.20762499999998,322.44108258154057L242.15720833333333,298.17236842105257L255.10679166666665,206.57940425083638L268.056375,153.29262935344116L281.00595833333335,121.89920421714244L293.95554166666665,103.26685986902093L306.905125,92.1598199074232L319.85470833333335,85.52144163990151L332.8042916666667,81.54767496888297L345.753875,79.16673918090193L358.70345833333334,77.73937238210489L371.6530416666667,76.88338194495276L384.60262500000005,76.3699422587844L397.55220833333334,76.06193407397296L410.5017916666667,75.8771491843365L423.45137500000004,75.76628545724837L436.40095833333334,75.69976981519872L449.3505416666667,75.65986136383758L462.30012500000004,75.63591662920372L475.2497083333334,75.62154990944734L488.1992916666667,75.61292992116148L501.148875,75.60775794387453L514.0984583333333,75.60465476314866L527.0480416666667,75.60279285674575L539.997625,75.60167571363584L552.9472083333333,75.60100542803347L565.8967916666667,75.60060325676686L578.846375,75.60036195404115L591.7959583333333,75.60021717241763L604.7455416666667,75.60013030344835L617.695125,75.60007818206816L630.6447083333334,75.60004690924059L643.5942916666667,75.60002814554414L656.543875,75.60001688732655L669.4934583333334,75.60001013239616L682.4430416666667,75.60000607943762L695.392625,75.60000364766276L708.3422083333334,75.60000218859759L721.2917916666667,75.60000131315854L734.2413750000001,75.60000078789528L747.1909583333332,75.60000047273714L760.1405416666666,75.60000028364227L773.090125,75.60000017018535L786.0397083333334,75.60000010211128L798.9892916666666,75.60000006126685L811.938875,75.6000000367603L824.8884583333332,75.60000002205628L837.8380416666666,75.60000001323377L850.7876249999999,75.60000000794028L863.7372083333333,75.60000000476427L876.6867916666666,75.60000000285865L889.636375,75.60000000171515L902.5859583333333,75.60000000102909L915.5355416666667,75.60000000061748L928.4851249999999,75.60000000037054L941.4347083333333,75.6000000002225L954.3842916666666,75.60000000013352L967.333875,75.60000000008014L980.2834583333333,75.60000000004824L993.2330416666667,75.60000000002894L1006.182625,75.60000000001753L1019.1322083333334,75.60000000001048L1032.0817916666667,75.60000000000645L1045.031375,75.60000000000393L1057.9809583333333,75.60000000000241L1070.9305416666668,75.60000000000142L1083.880125,75.6000000000009L1096.8297083333334,75.60000000000058L1109.7792916666667,75.60000000000024L1122.728875,75.6000000000004L1135.6784583333333,75.6000000000004L1148.6280416666666,75.6000000000004L1161.577625,75.6000000000004L1174.5272083333332,75.6000000000004L1187.4767916666667,75.6000000000004L1200.426375,75.6000000000004L1213.3759583333333,75.6000000000004L1226.3255416666666,75.6000000000004L1239.2751250000001,75.6000000000004L1252.2247083333332,75.6000000000004L1265.1742916666667,75.6000000000004L1278.123875,75.6000000000004L1291.0734583333333,75.6000000000004L1304.0230416666666,75.6000000000004L1316.972625,75.6000000000004" style="fill: none;" fill="none"></path></g></g></g></g><g opacity="0.2"><g><g><g><path stroke="rgb(255, 112, 67)" stroke-width="2px" d="M190.35887499999998,453.59999999999997L203.3084583333333,359.09999999999997L216.25804166666666,264.59999999999997L229.20762499999998,264.59999999999997L242.15720833333333,264.59999999999997L255.10679166666665,75.60000000000007L268.056375,75.60000000000007L281.00595833333335,75.60000000000007L293.95554166666665,75.60000000000007L306.905125,75.60000000000007L319.85470833333335,75.60000000000007L332.8042916666667,75.60000000000007L345.753875,75.60000000000007L358.70345833333334,75.60000000000007L371.6530416666667,75.60000000000007L384.60262500000005,75.60000000000007L397.55220833333334,75.60000000000007L410.5017916666667,75.60000000000007L423.45137500000004,75.60000000000007L436.40095833333334,75.60000000000007L449.3505416666667,75.60000000000007L462.30012500000004,75.60000000000007L475.2497083333334,75.60000000000007L488.1992916666667,75.60000000000007L501.148875,75.60000000000007L514.0984583333333,75.60000000000007L527.0480416666667,75.60000000000007L539.997625,75.60000000000007L552.9472083333333,75.60000000000007L565.8967916666667,75.60000000000007L578.846375,75.60000000000007L591.7959583333333,75.60000000000007L604.7455416666667,75.60000000000007L617.695125,75.60000000000007L630.6447083333334,75.60000000000007L643.5942916666667,75.60000000000007L656.543875,75.60000000000007L669.4934583333334,75.60000000000007L682.4430416666667,75.60000000000007L695.392625,75.60000000000007L708.3422083333334,75.60000000000007L721.2917916666667,75.60000000000007L734.2413750000001,75.60000000000007L747.1909583333332,75.60000000000007L760.1405416666666,75.60000000000007L773.090125,75.60000000000007L786.0397083333334,75.60000000000007L798.9892916666666,75.60000000000007L811.938875,75.60000000000007L824.8884583333332,75.60000000000007L837.8380416666666,75.60000000000007L850.7876249999999,75.60000000000007L863.7372083333333,75.60000000000007L876.6867916666666,75.60000000000007L889.636375,75.60000000000007L902.5859583333333,75.60000000000007L915.5355416666667,75.60000000000007L928.4851249999999,75.60000000000007L941.4347083333333,75.60000000000007L954.3842916666666,75.60000000000007L967.333875,75.60000000000007L980.2834583333333,75.60000000000007L993.2330416666667,75.60000000000007L1006.182625,75.60000000000007L1019.1322083333334,75.60000000000007L1032.0817916666667,75.60000000000007L1045.031375,75.60000000000007L1057.9809583333333,75.60000000000007L1070.9305416666668,75.60000000000007L1083.880125,75.60000000000007L1096.8297083333334,75.60000000000007L1109.7792916666667,75.60000000000007L1122.728875,75.60000000000007L1135.6784583333333,75.60000000000007L1148.6280416666666,75.60000000000007L1161.577625,75.60000000000007L1174.5272083333332,75.60000000000007L1187.4767916666667,75.60000000000007L1200.426375,75.60000000000007L1213.3759583333333,75.60000000000007L1226.3255416666666,75.60000000000007L1239.2751250000001,75.60000000000007L1252.2247083333332,75.60000000000007L1265.1742916666667,75.60000000000007L1278.123875,75.60000000000007L1291.0734583333333,75.60000000000007L1304.0230416666666,75.60000000000007L1316.972625,75.60000000000007" style="fill: none;" fill="none"></path></g><g><path stroke="rgb(204, 51, 17)" stroke-width="2px" d="M203.3084583333333,453.59999999999997L216.25804166666666,264.59999999999997L229.20762499999998,264.59999999999997L242.15720833333333,264.59999999999997L255.10679166666665,75.60000000000007L268.056375,75.60000000000007L281.00595833333335,75.60000000000007L293.95554166666665,75.60000000000007L306.905125,75.60000000000007L319.85470833333335,75.60000000000007L332.8042916666667,75.60000000000007L345.753875,75.60000000000007L358.70345833333334,75.60000000000007L371.6530416666667,75.60000000000007L384.60262500000005,75.60000000000007L397.55220833333334,75.60000000000007L410.5017916666667,75.60000000000007L423.45137500000004,75.60000000000007L436.40095833333334,75.60000000000007L449.3505416666667,75.60000000000007L462.30012500000004,75.60000000000007L475.2497083333334,75.60000000000007L488.1992916666667,75.60000000000007L501.148875,75.60000000000007L514.0984583333333,75.60000000000007L527.0480416666667,75.60000000000007L539.997625,75.60000000000007L552.9472083333333,75.60000000000007L565.8967916666667,75.60000000000007L578.846375,75.60000000000007L591.7959583333333,75.60000000000007L604.7455416666667,75.60000000000007L617.695125,75.60000000000007L630.6447083333334,75.60000000000007L643.5942916666667,75.60000000000007L656.543875,75.60000000000007L669.4934583333334,75.60000000000007L682.4430416666667,75.60000000000007L695.392625,75.60000000000007L708.3422083333334,75.60000000000007L721.2917916666667,75.60000000000007L734.2413750000001,75.60000000000007L747.1909583333332,75.60000000000007L760.1405416666666,75.60000000000007L773.090125,75.60000000000007L786.0397083333334,75.60000000000007L798.9892916666666,75.60000000000007L811.938875,75.60000000000007L824.8884583333332,75.60000000000007L837.8380416666666,75.60000000000007L850.7876249999999,75.60000000000007L863.7372083333333,75.60000000000007L876.6867916666666,75.60000000000007L889.636375,75.60000000000007L902.5859583333333,75.60000000000007L915.5355416666667,75.60000000000007L928.4851249999999,75.60000000000007L941.4347083333333,75.60000000000007L954.3842916666666,75.60000000000007L967.333875,75.60000000000007L980.2834583333333,75.60000000000007L993.2330416666667,75.60000000000007L1006.182625,75.60000000000007L1019.1322083333334,75.60000000000007L1032.0817916666667,75.60000000000007L1045.031375,75.60000000000007L1057.9809583333333,75.60000000000007L1070.9305416666668,75.60000000000007L1083.880125,75.60000000000007L1096.8297083333334,75.60000000000007L1109.7792916666667,75.60000000000007L1122.728875,75.60000000000007L1135.6784583333333,75.60000000000007L1148.6280416666666,75.60000000000007L1161.577625,75.60000000000007L1174.5272083333332,75.60000000000007L1187.4767916666667,75.60000000000007L1200.426375,75.60000000000007L1213.3759583333333,75.60000000000007L1226.3255416666666,75.60000000000007L1239.2751250000001,75.60000000000007L1252.2247083333332,75.60000000000007L1265.1742916666667,75.60000000000007L1278.123875,75.60000000000007L1291.0734583333333,75.60000000000007L1304.0230416666666,75.60000000000007L1316.972625,75.60000000000007" style="fill: none;" fill="none"></path></g></g></g></g></g></g><g transform="translate(41, 378)" clip-path="url(#clip_1)"><clipPath id="clip_1"><rect width="1456" height="22"></rect></clipPath><g><g><line x1="0" y1="0" x2="0" y2="5" style="visibility: inherit;" fill="rgb(0, 0, 0)" stroke="rgb(204, 204, 204)" stroke-width="1px"></line><line x1="161.86979166666666" y1="0" x2="161.86979166666666" y2="5" style="visibility: inherit;" fill="rgb(0, 0, 0)" stroke="rgb(204, 204, 204)" stroke-width="1px"></line><line x1="323.7395833333333" y1="0" x2="323.7395833333333" y2="5" style="visibility: inherit;" fill="rgb(0, 0, 0)" stroke="rgb(204, 204, 204)" stroke-width="1px"></line><line x1="485.609375" y1="0" x2="485.609375" y2="5" style="visibility: inherit;" fill="rgb(0, 0, 0)" stroke="rgb(204, 204, 204)" stroke-width="1px"></line><line x1="647.4791666666666" y1="0" x2="647.4791666666666" y2="5" style="visibility: inherit;" fill="rgb(0, 0, 0)" stroke="rgb(204, 204, 204)" stroke-width="1px"></line><line x1="809.3489583333334" y1="0" x2="809.3489583333334" y2="5" style="visibility: inherit;" fill="rgb(0, 0, 0)" stroke="rgb(204, 204, 204)" stroke-width="1px"></line><line x1="971.21875" y1="0" x2="971.21875" y2="5" style="visibility: inherit;" fill="rgb(0, 0, 0)" stroke="rgb(204, 204, 204)" stroke-width="1px"></line><line x1="1133.0885416666667" y1="0" x2="1133.0885416666667" y2="5" style="visibility: inherit;" fill="rgb(0, 0, 0)" stroke="rgb(204, 204, 204)" stroke-width="1px"></line><line x1="1294.9583333333333" y1="0" x2="1294.9583333333333" y2="5" style="visibility: inherit;" fill="rgb(0, 0, 0)" stroke="rgb(204, 204, 204)" stroke-width="1px"></line><line x1="1456.828125" y1="0" x2="1456.828125" y2="5" style="visibility: inherit;" fill="rgb(0, 0, 0)" stroke="rgb(204, 204, 204)" stroke-width="1px"></line></g><g transform="translate(0, 8)"><text x="0" y="0" dx="0em" dy="0.95em" style="text-anchor: middle; visibility: hidden; font-family: Roboto, sans-serif; font-size: 12px; font-weight: 200;" fill="rgb(50, 49, 63)" stroke="none" stroke-width="1px">-50k</text><text x="161.86979166666666" y="0" dx="0em" dy="0.95em" style="text-anchor: middle; visibility: inherit; font-family: Roboto, sans-serif; font-size: 12px; font-weight: 200;" fill="rgb(50, 49, 63)" stroke="none" stroke-width="1px">0</text><text x="323.7395833333333" y="0" dx="0em" dy="0.95em" style="text-anchor: middle; visibility: inherit; font-family: Roboto, sans-serif; font-size: 12px; font-weight: 200;" fill="rgb(50, 49, 63)" stroke="none" stroke-width="1px">50k</text><text x="485.609375" y="0" dx="0em" dy="0.95em" style="text-anchor: middle; visibility: inherit; font-family: Roboto, sans-serif; font-size: 12px; font-weight: 200;" fill="rgb(50, 49, 63)" stroke="none" stroke-width="1px">100k</text><text x="647.4791666666666" y="0" dx="0em" dy="0.95em" style="text-anchor: middle; visibility: inherit; font-family: Roboto, sans-serif; font-size: 12px; font-weight: 200;" fill="rgb(50, 49, 63)" stroke="none" stroke-width="1px">150k</text><text x="809.3489583333334" y="0" dx="0em" dy="0.95em" style="text-anchor: middle; visibility: inherit; font-family: Roboto, sans-serif; font-size: 12px; font-weight: 200;" fill="rgb(50, 49, 63)" stroke="none" stroke-width="1px">200k</text><text x="971.21875" y="0" dx="0em" dy="0.95em" style="text-anchor: middle; visibility: inherit; font-family: Roboto, sans-serif; font-size: 12px; font-weight: 200;" fill="rgb(50, 49, 63)" stroke="none" stroke-width="1px">250k</text><text x="1133.0885416666667" y="0" dx="0em" dy="0.95em" style="text-anchor: middle; visibility: inherit; font-family: Roboto, sans-serif; font-size: 12px; font-weight: 200;" fill="rgb(50, 49, 63)" stroke="none" stroke-width="1px">300k</text><text x="1294.9583333333333" y="0" dx="0em" dy="0.95em" style="text-anchor: middle; visibility: inherit; font-family: Roboto, sans-serif; font-size: 12px; font-weight: 200;" fill="rgb(50, 49, 63)" stroke="none" stroke-width="1px">350k</text><text x="1456.828125" y="0" dx="0em" dy="0.95em" style="text-anchor: middle; visibility: hidden; font-family: Roboto, sans-serif; font-size: 12px; font-weight: 200;" fill="rgb(50, 49, 63)" stroke="none" stroke-width="1px">400k</text></g><line x1="0" y1="0" x2="1456.828125" y2="0" fill="rgb(0, 0, 0)" stroke="rgb(204, 204, 204)" stroke-width="1px"></line></g></g></g></g></svg>