<svg viewBox="0 0 1498 400" xmlns="http://www.w3.org/2000/svg"><g><g><g><g><g><line x1="51.5625" y1="378" x2="46.5625" y2="378" style="visibility: inherit;" fill="rgb(0, 0, 0)" stroke="rgb(204, 204, 204)" stroke-width="1px"></line><line x1="51.5625" y1="336" x2="46.5625" y2="336" style="visibility: inherit;" fill="rgb(0, 0, 0)" stroke="rgb(204, 204, 204)" stroke-width="1px"></line><line x1="51.5625" y1="294" x2="46.5625" y2="294" style="visibility: inherit;" fill="rgb(0, 0, 0)" stroke="rgb(204, 204, 204)" stroke-width="1px"></line><line x1="51.5625" y1="252.00000000000003" x2="46.5625" y2="252.00000000000003" style="visibility: inherit;" fill="rgb(0, 0, 0)" stroke="rgb(204, 204, 204)" stroke-width="1px"></line><line x1="51.5625" y1="210" x2="46.5625" y2="210" style="visibility: inherit;" fill="rgb(0, 0, 0)" stroke="rgb(204, 204, 204)" stroke-width="1px"></line><line x1="51.5625" y1="168" x2="46.5625" y2="168" style="visibility: inherit;" fill="rgb(0, 0, 0)" stroke="rgb(204, 204, 204)" stroke-width="1px"></line><line x1="51.5625" y1="126.00000000000001" x2="46.5625" y2="126.00000000000001" style="visibility: inherit;" fill="rgb(0, 0, 0)" stroke="rgb(204, 204, 204)" stroke-width="1px"></line><line x1="51.5625" y1="84" x2="46.5625" y2="84" style="visibility: inherit;" fill="rgb(0, 0, 0)" stroke="rgb(204, 204, 204)" stroke-width="1px"></line><line x1="51.5625" y1="42.00000000000002" x2="46.5625" y2="42.00000000000002" style="visibility: inherit;" fill="rgb(0, 0, 0)" stroke="rgb(204, 204, 204)" stroke-width="1px"></line><line x1="51.5625" y1="0" x2="46.5625" y2="0" style="visibility: inherit;" fill="rgb(0, 0, 0)" stroke="rgb(204, 204, 204)" stroke-width="1px"></line></g><g transform="translate(41.5625, 0)"><text x="0" y="378" dx="0em" dy="0.3em" style="text-anchor: end; visibility: hidden; font-family: Roboto, sans-serif; font-size: 12px; font-weight: 200;" fill="rgb(50, 49, 63)" stroke="none" stroke-width="1px">-0.5</text><text x="0" y="336" dx="0em" dy="0.3em" style="text-anchor: end; visibility: inherit; font-family: Roboto, sans-serif; font-size: 12px; font-weight: 200;" fill="rgb(50, 49, 63)" stroke="none" stroke-width="1px">0</text><text x="0" y="294" dx="0em" dy="0.3em" style="text-anchor: end; visibility: inherit; font-family: Roboto, sans-serif; font-size: 12px; font-weight: 200;" fill="rgb(50, 49, 63)" stroke="none" stroke-width="1px">0.5</text><text x="0" y="252.00000000000003" dx="0em" dy="0.3em" style="text-anchor: end; visibility: inherit; font-family: Roboto, sans-serif; font-size: 12px; font-weight: 200;" fill="rgb(50, 49, 63)" stroke="none" stroke-width="1px">1</text><text x="0" y="210" dx="0em" dy="0.3em" style="text-anchor: end; visibility: inherit; font-family: Roboto, sans-serif; font-size: 12px; font-weight: 200;" fill="rgb(50, 49, 63)" stroke="none" stroke-width="1px">1.5</text><text x="0" y="168" dx="0em" dy="0.3em" style="text-anchor: end; visibility: inherit; font-family: Roboto, sans-serif; font-size: 12px; font-weight: 200;" fill="rgb(50, 49, 63)" stroke="none" stroke-width="1px">2</text><text x="0" y="126.00000000000001" dx="0em" dy="0.3em" style="text-anchor: end; visibility: inherit; font-family: Roboto, sans-serif; font-size: 12px; font-weight: 200;" fill="rgb(50, 49, 63)" stroke="none" stroke-width="1px">2.5</text><text x="0" y="84" dx="0em" dy="0.3em" style="text-anchor: end; visibility: inherit; font-family: Roboto, sans-serif; font-size: 12px; font-weight: 200;" fill="rgb(50, 49, 63)" stroke="none" stroke-width="1px">3</text><text x="0" y="42.00000000000002" dx="0em" dy="0.3em" style="text-anchor: end; visibility: inherit; font-family: Roboto, sans-serif; font-size: 12px; font-weight: 200;" fill="rgb(50, 49, 63)" stroke="none" stroke-width="1px">3.5</text><text x="0" y="0" dx="0em" dy="0.3em" style="text-anchor: end; visibility: hidden; font-family: Roboto, sans-serif; font-size: 12px; font-weight: 200;" fill="rgb(50, 49, 63)" stroke="none" stroke-width="1px">4</text></g><line x1="51.5625" y1="0" x2="51.5625" y2="378" fill="rgb(0, 0, 0)" stroke="rgb(204, 204, 204)" stroke-width="1px"></line></g></g><g transform="translate(51, 0)" clip-path="url(#clip_0)"><clipPath id="clip_0"><rect width="1446" height="378"></rect></clipPath><g><g><g><line x1="0" y1="0" x2="0" y2="378" fill="rgb(0, 0, 0)" stroke="rgb(60, 60, 60)" stroke-width="1px" opacity="0.25"></line><line x1="160.71527777777777" y1="0" x2="160.71527777777777" y2="378" fill="rgb(0, 0, 0)" stroke="rgb(60, 60, 60)" stroke-width="1px" opacity="0.25"></line><line x1="321.43055555555554" y1="0" x2="321.43055555555554" y2="378" fill="rgb(0, 0, 0)" stroke="rgb(60, 60, 60)" stroke-width="1px" opacity="0.25"></line><line x1="482.1458333333333" y1="0" x2="482.1458333333333" y2="378" fill="rgb(0, 0, 0)" stroke="rgb(60, 60, 60)" stroke-width="1px" opacity="0.25"></line><line x1="642.8611111111111" y1="0" x2="642.8611111111111" y2="378" fill="rgb(0, 0, 0)" stroke="rgb(60, 60, 60)" stroke-width="1px" opacity="0.25"></line><line x1="803.5763888888889" y1="0" x2="803.5763888888889" y2="378" fill="rgb(0, 0, 0)" stroke="rgb(60, 60, 60)" stroke-width="1px" opacity="0.25"></line><line x1="964.2916666666666" y1="0" x2="964.2916666666666" y2="378" fill="rgb(0, 0, 0)" stroke="rgb(60, 60, 60)" stroke-width="1px" opacity="0.25"></line><line x1="1125.0069444444446" y1="0" x2="1125.0069444444446" y2="378" fill="rgb(0, 0, 0)" stroke="rgb(60, 60, 60)" stroke-width="1px" opacity="0.25"></line><line x1="1285.7222222222222" y1="0" x2="1285.7222222222222" y2="378" fill="rgb(0, 0, 0)" stroke="rgb(60, 60, 60)" stroke-width="1px" opacity="0.25"></line><line x1="1446.4375" y1="0" x2="1446.4375" y2="378" fill="rgb(0, 0, 0)" stroke="rgb(60, 60, 60)" stroke-width="1px" opacity="0.25"></line></g><g><line x1="0" y1="378" x2="1446.4375" y2="378" fill="rgb(0, 0, 0)" stroke="rgb(60, 60, 60)" stroke-width="1px" opacity="0.25"></line><line x1="0" y1="336" x2="1446.4375" y2="336" fill="rgb(0, 0, 0)" stroke="rgb(60, 60, 60)" stroke-width="1px" opacity="0.25"></line><line x1="0" y1="294" x2="1446.4375" y2="294" fill="rgb(0, 0, 0)" stroke="rgb(60, 60, 60)" stroke-width="1px" opacity="0.25"></line><line x1="0" y1="252.00000000000003" x2="1446.4375" y2="252.00000000000003" fill="rgb(0, 0, 0)" stroke="rgb(60, 60, 60)" stroke-width="1px" opacity="0.25"></line><line x1="0" y1="210" x2="1446.4375" y2="210" fill="rgb(0, 0, 0)" stroke="rgb(60, 60, 60)" stroke-width="1px" opacity="0.25"></line><line x1="0" y1="168" x2="1446.4375" y2="168" fill="rgb(0, 0, 0)" stroke="rgb(60, 60, 60)" stroke-width="1px" opacity="0.25"></line><line x1="0" y1="126.00000000000001" x2="1446.4375" y2="126.00000000000001" fill="rgb(0, 0, 0)" stroke="rgb(60, 60, 60)" stroke-width="1px" opacity="0.25"></line><line x1="0" y1="84" x2="1446.4375" y2="84" fill="rgb(0, 0, 0)" stroke="rgb(60, 60, 60)" stroke-width="1px" opacity="0.25"></line><line x1="0" y1="42.00000000000002" x2="1446.4375" y2="42.00000000000002" fill="rgb(0, 0, 0)" stroke="rgb(60, 60, 60)" stroke-width="1px" opacity="0.25"></line><line x1="0" y1="0" x2="1446.4375" y2="0" fill="rgb(0, 0, 0)" stroke="rgb(60, 60, 60)" stroke-width="1px" opacity="0.25"></line></g></g></g><g><g><line x1="0" y1="336" x2="1446.4375" y2="336" fill="rgb(0, 0, 0)" stroke="rgb(153, 153, 153)" stroke-width="1.5px"></line></g></g><g><g><line x1="160.71527777777777" y1="0" x2="160.71527777777777" y2="378" fill="rgb(0, 0, 0)" stroke="rgb(153, 153, 153)" stroke-width="1.5px"></line></g></g><g><g><g><g><g><path stroke="rgb(255, 112, 67)" stroke-width="2px" d="M176.14394444444443,223.12839460372925L189.00116666666665,235.50703239440918L201.85838888888887,241.2435928753444L214.7156111111111,240.70082064586526L227.57283333333334,242.8789895757216L240.43005555555555,248.21151250892117L253.28727777777777,252.59885743127813L266.1445,255.41607222216533L279.0017222222222,247.29842313922188L291.85894444444443,227.28026899301918L304.71616666666665,190.1882695326053L317.57338888888887,167.8554670729515L330.4306111111111,155.30130563472397L343.28783333333337,141.80423552162083L356.1450555555556,141.3006112485792L369.0022777777778,151.4625834524859L381.8595,156.23692487365398L394.71672222222224,157.2983929453496L407.57394444444446,181.33227145894645L420.4311666666667,179.9540118095729L433.2883888888889,185.65196819298188L446.1456111111111,165.65023962533778L459.00283333333334,133.9652803598059L471.8600555555556,122.56426929913633L484.71727777777784,114.0587465197396L497.57449999999994,108.62200354559057L510.43172222222216,155.72485556127913L523.2889444444444,181.07911912273866L536.1461666666667,199.10977822702057L549.0033888888888,207.80948763390532L561.8606111111111,188.2152641847713L574.7178333333333,177.33139534606858L587.5750555555555,167.57790320917786L600.4322777777778,158.82792606201656L613.2895,180.28964655485817L626.1467222222223,192.55164851013504L639.0039444444444,199.40980079403155L651.8611666666667,199.48969189334156L664.7183888888889,195.52091912343977L677.5756111111111,189.49456001855935L690.4328333333333,187.3786867693263L703.2900555555556,196.88035861920784L716.1472777777777,182.5595803712472L729.0045,169.43469460108975L741.8617222222222,164.67234439382585L754.7189444444444,162.59897357647387L767.5761666666666,165.40650176073544L780.4333888888889,132.45421256388013L793.290611111111,118.03069175322167L806.1478333333333,110.61487463134084L819.0050555555555,105.17609068759161L831.8622777777778,101.86034114960586L844.7194999999999,157.16131615531418L857.5767222222222,190.14616770683392L870.4339444444444,205.69256226504035L883.2911666666668,197.2448639886597L896.1483888888888,191.1494645128844L909.0056111111112,164.7617860227905L921.8628333333332,140.13696701467325L934.7200555555556,133.68146228277823L947.5772777777778,128.2689359634168L960.4345000000001,113.19190509611626L973.2917222222222,120.37315010723037L986.1489444444445,125.82072157678941L999.0061666666667,132.5171292961713L1011.863388888889,176.38192197925315L1024.720611111111,202.33076375273745L1037.5778333333335,218.8426992031806L1050.4350555555554,216.2604424436613L1063.2922777777778,215.73973943470267L1076.1495,225.22819748925178L1089.0067222222224,229.79664311055544L1101.8639444444445,212.0265654638064L1114.7211666666667,194.6145646521242L1127.5783888888889,175.32232460670417L1140.435611111111,160.8840018349454L1153.2928333333334,148.0125727318266L1166.1500555555556,159.96224296465746L1179.0072777777777,161.76648838743702L1191.8645,164.1573059047767L1204.7217222222223,164.89645339760236L1217.5789444444445,166.67434760161072L1230.4361666666666,169.6888616813888L1243.2933888888888,180.93476476273955L1256.1506111111112,188.71307252646696L1269.0078333333333,208.65248550654178L1281.8650555555555,229.1036179404302L1294.7222777777777,241.13352687006252L1307.5795,249.04823917654193" style="fill: none;" fill="none"></path></g><g><path stroke="rgb(204, 51, 17)" stroke-width="2px" d="M176.14394444444443,302.399999499321L189.00116666666665,283.3345540612936L201.85838888888887,270.9869928870882L214.7156111111111,264.0926391960067L227.57283333333334,252.13757728016435L240.43005555555555,221.67387132077732L253.28727777777777,202.5017208546018L266.1445,193.15671186448148L279.0017222222222,187.23497045091236L291.85894444444443,184.32420078421927L304.71616666666665,201.3043884040638L317.57338888888887,197.1493725884279L330.4306111111111,191.86403882343006L343.28783333333337,160.74684847395645L356.1450555555556,99.01668733374856L369.0022777777778,57.09049489381369L381.8595,29.846481852217867L394.71672222222224,9.42786968873567L407.57394444444446,20.479360654932762L420.4311666666667,56.92984263502051L433.2883888888889,86.11292580426772L446.1456111111111,130.86927211685673L459.00283333333334,155.54156764685408L471.8600555555556,156.22016169905766L484.71727777777784,134.39432477813222L497.57449999999994,120.50432744444414L510.43172222222216,112.80442879585533L523.2889444444444,107.54543557265406L536.1461666666667,97.66785867154195L549.0033888888888,111.99598852736133L561.8606111111111,119.7321850544448L574.7178333333333,152.0291142469909L587.5750555555555,171.55498645599616L600.4322777777778,183.12279284894993L613.2895,192.32933745058375L626.1467222222223,196.77769742590053L639.0039444444444,199.74327958381758L651.8611666666667,213.80171369024856L664.7183888888889,224.71649710290728L677.5756111111111,227.85427303705694L690.4328333333333,208.44258337606203L703.2900555555556,197.39895189105022L716.1472777777777,129.86995316164072L729.0045,88.06379012704652L741.8617222222222,70.66811873994708L754.7189444444444,49.23513180171353L767.5761666666666,59.026611079075195L780.4333888888889,76.41844581958853L793.290611111111,68.12373747455156L806.1478333333333,63.98912667048852L819.0050555555555,66.78472394237015L831.8622777777778,60.62268258622938L844.7194999999999,68.47431221898766L857.5767222222222,77.23849892197795L870.4339444444444,83.53670897233135L883.2911666666668,116.92420586436845L896.1483888888888,151.25440640742275L909.0056111111112,170.11572730240297L921.8628333333332,179.9233010512424L934.7200555555556,173.9972679079668L947.5772777777778,163.29382621414013L960.4345000000001,155.06586405734137L973.2917222222222,153.62140701472703L986.1489444444445,163.08998536026454L999.0061666666667,171.46367596957677L1011.863388888889,174.95948953255171L1024.720611111111,169.40705892338846L1037.5778333333335,171.03839104708726L1050.4350555555554,171.6779702743095L1063.2922777777778,173.96098157407056L1076.1495,160.67515652561906L1089.0067222222224,159.18637328854038L1101.8639444444445,152.1463912338664L1114.7211666666667,150.63112354342047L1127.5783888888889,160.53713035621587L1140.435611111111,167.01012439750642L1153.2928333333334,175.18535282148724L1166.1500555555556,181.8040337677825L1179.0072777777777,200.06526232457333L1191.8645,211.72103147921663L1204.7217222222223,190.3082086397272L1217.5789444444445,175.82801295239105L1230.4361666666666,141.75131178449615L1243.2933888888888,116.86985178322207L1256.1506111111112,113.63786298948888L1269.0078333333333,109.96068066905956L1281.8650555555555,143.39107743830095L1294.7222777777777,169.6657742019332L1307.5795,188.64560442899685" style="fill: none;" fill="none"></path></g></g></g></g><g opacity="0.2"><g><g><g><path stroke="rgb(255, 112, 67)" stroke-width="2px" d="M176.14394444444443,223.12839460372925L189.00116666666665,242.9342150688171L201.85838888888887,246.75069093704224L214.7156111111111,240.0625205039978L227.57283333333334,245.72280693054202L240.43005555555555,255.5883114337921L253.28727777777777,258.87283086776733L266.1445,259.5235984325409L279.0017222222222,235.3264675140381L291.85894444444443,197.55564308166507L304.71616666666665,134.88669204711914L317.57338888888887,134.47779750823975L330.4306111111111,136.51105499267578L343.28783333333337,121.585072517395L356.1450555555556,140.54576683044436L369.0022777777778,166.69837474822995L381.8595,163.39641666412354L394.71672222222224,158.89032554626468L407.57394444444446,217.37942790985105L420.4311666666667,177.8867483139038L433.2883888888889,194.19859027862552L446.1456111111111,135.64830493927002L459.00283333333334,86.43846702575685L471.8600555555556,105.46288776397704L484.71727777777784,101.30052280426027L497.57449999999994,100.46691226959227L510.43172222222216,226.37901306152344L523.2889444444444,219.11047554016113L536.1461666666667,226.15575027465823L549.0033888888888,220.85904693603513L561.8606111111111,158.82393550872803L574.7178333333333,161.00559425354004L587.5750555555555,152.94766616821292L600.4322777777778,145.70296096801755L613.2895,212.48222637176517L626.1467222222223,210.9446511268616L639.0039444444444,209.69702911376953L651.8611666666667,199.60952854156497L664.7183888888889,189.56775999069214L677.5756111111111,180.45502138137817L690.4328333333333,184.20487689971924L703.2900555555556,211.13286638259885L716.1472777777777,161.07841300964355L729.0045,149.7473659515381L741.8617222222222,157.52881908416748L754.7189444444444,159.48891735076907L767.5761666666666,169.6177940368652L780.4333888888889,83.02577877044678L793.290611111111,96.39541053771973L806.1478333333333,99.49114894866943L819.0050555555555,97.0179147720337L831.8622777777778,96.88671684265135L844.7194999999999,240.11277866363525L857.5767222222222,239.6234450340271L870.4339444444444,229.01215410232544L883.2911666666668,184.57331657409668L896.1483888888888,182.00636529922485L909.0056111111112,125.18026828765869L921.8628333333332,103.19973850250243L934.7200555555556,123.99820518493654L947.5772777777778,120.15014648437499L960.4345000000001,90.576358795166L973.2917222222222,131.14501762390137L986.1489444444445,133.99207878112796L999.0061666666667,142.56174087524414L1011.863388888889,242.17911100387576L1024.720611111111,241.25402641296387L1037.5778333333335,243.61060237884521L1050.4350555555554,212.38705730438235L1063.2922777777778,214.95868492126468L1076.1495,239.46088457107544L1089.0067222222224,236.64931154251101L1101.8639444444445,185.37144899368286L1114.7211666666667,168.49656343460083L1127.5783888888889,146.38396453857422L1140.435611111111,139.22651767730713L1153.2928333333334,128.70542907714844L1166.1500555555556,177.8867483139038L1179.0072777777777,164.47285652160647L1191.8645,167.74353218078613L1204.7217222222223,166.00517463684082L1217.5789444444445,169.3411889076233L1230.4361666666666,174.2106328010559L1243.2933888888888,197.8036193847656L1256.1506111111112,200.3805341720581L1269.0078333333333,238.56160497665408L1281.8650555555555,259.7803165912628L1294.7222777777777,259.1783902645111L1307.5795,260.920307636261" style="fill: none;" fill="none"></path></g><g><path stroke="rgb(204, 51, 17)" stroke-width="2px" d="M176.14394444444443,302.399999499321L189.00116666666665,271.8952867984772L201.85838888888887,259.1333341598511L214.7156111111111,255.9848792552948L227.57283333333334,236.52904844284055L240.43005555555555,179.53159904479978L253.28727777777777,175.0852389335632L266.1445,179.53159904479978L279.0017222222222,178.50155210494998L291.85894444444443,180.00204706192017L304.71616666666665,226.62066078186035L317.57338888888887,190.93946027755734L330.4306111111111,183.95329570770264L343.28783333333337,114.13202476501466L356.1450555555556,6.494007110595722L369.0022777777778,-5.7692241668701545L394.71672222222224,-21.19486427307128L407.57394444444446,37.054913520812995L420.4311666666667,111.60223388671874L433.2883888888889,129.88595008850098L446.1456111111111,198.00231885910034L459.00283333333334,192.54952383041385L471.8600555555556,157.23804473876953L484.71727777777784,101.65572452545165L497.57449999999994,99.66939067840578L510.43172222222216,101.25460052490236L523.2889444444444,99.65695381164552L536.1461666666667,82.85150241851808L549.0033888888888,133.48817539215088L561.8606111111111,131.3364772796631L574.7178333333333,200.47450160980225L587.5750555555555,200.84379243850705L600.4322777777778,200.47450160980225L613.2895,206.13915395736697L626.1467222222223,203.45023727416992L639.0039444444444,204.19165277481076L651.8611666666667,234.88936471939084L664.7183888888889,241.0886721611023L677.5756111111111,232.5609369277954L690.4328333333333,179.32504892349243L703.2900555555556,180.83350467681882L716.1472777777777,28.57645511627197L729.0045,25.354545593261708L741.8617222222222,44.57461166381838L754.7189444444444,17.085651397705067L767.5761666666666,73.71382999420167L780.4333888888889,102.50619792938231L793.290611111111,55.68167495727537L806.1478333333333,57.78721046447755L819.0050555555555,70.97811985015868L831.8622777777778,51.379620552062995L844.7194999999999,80.25175666809083L857.5767222222222,90.38477897644044L870.4339444444444,92.98402404785155L883.2911666666668,167.00545120239258L896.1483888888888,202.74970722198483L909.0056111111112,198.40770864486691L921.8628333333332,194.6346616744995L934.7200555555556,165.10821819305423L947.5772777777778,147.23866367340088L960.4345000000001,142.72392082214355L973.2917222222222,151.45472145080566L986.1489444444445,177.29285287857056L999.0061666666667,184.02421188354492L1011.863388888889,180.20320987701416L1024.720611111111,161.07841300964355L1037.5778333333335,173.48538923263547L1050.4350555555554,172.6373391151428L1063.2922777777778,177.38549852371216L1076.1495,140.74641895294187L1089.0067222222224,156.95319843292236L1101.8639444444445,141.58641815185547L1114.7211666666667,148.35822200775146L1127.5783888888889,175.39614057540894L1140.435611111111,176.71961545944214L1153.2928333333334,187.4481954574585L1166.1500555555556,191.73205518722534L1179.0072777777777,227.45710515975955L1191.8645,229.20468521118164L1204.7217222222223,158.18897438049316L1217.5789444444445,154.10771942138675L1230.4361666666666,90.63626003265382L1243.2933888888888,79.54766178131102L1256.1506111111112,108.78987979888915L1269.0078333333333,104.44490718841551L1281.8650555555555,193.5366725921631L1294.7222777777777,209.07781934738156L1307.5795,217.11534976959229" style="fill: none;" fill="none"></path></g></g></g></g></g></g><g transform="translate(51, 378)" clip-path="url(#clip_1)"><clipPath id="clip_1"><rect width="1446" height="22"></rect></clipPath><g><g><line x1="0" y1="0" x2="0" y2="5" style="visibility: inherit;" fill="rgb(0, 0, 0)" stroke="rgb(204, 204, 204)" stroke-width="1px"></line><line x1="160.71527777777777" y1="0" x2="160.71527777777777" y2="5" style="visibility: inherit;" fill="rgb(0, 0, 0)" stroke="rgb(204, 204, 204)" stroke-width="1px"></line><line x1="321.43055555555554" y1="0" x2="321.43055555555554" y2="5" style="visibility: inherit;" fill="rgb(0, 0, 0)" stroke="rgb(204, 204, 204)" stroke-width="1px"></line><line x1="482.1458333333333" y1="0" x2="482.1458333333333" y2="5" style="visibility: inherit;" fill="rgb(0, 0, 0)" stroke="rgb(204, 204, 204)" stroke-width="1px"></line><line x1="642.8611111111111" y1="0" x2="642.8611111111111" y2="5" style="visibility: inherit;" fill="rgb(0, 0, 0)" stroke="rgb(204, 204, 204)" stroke-width="1px"></line><line x1="803.5763888888889" y1="0" x2="803.5763888888889" y2="5" style="visibility: inherit;" fill="rgb(0, 0, 0)" stroke="rgb(204, 204, 204)" stroke-width="1px"></line><line x1="964.2916666666666" y1="0" x2="964.2916666666666" y2="5" style="visibility: inherit;" fill="rgb(0, 0, 0)" stroke="rgb(204, 204, 204)" stroke-width="1px"></line><line x1="1125.0069444444446" y1="0" x2="1125.0069444444446" y2="5" style="visibility: inherit;" fill="rgb(0, 0, 0)" stroke="rgb(204, 204, 204)" stroke-width="1px"></line><line x1="1285.7222222222222" y1="0" x2="1285.7222222222222" y2="5" style="visibility: inherit;" fill="rgb(0, 0, 0)" stroke="rgb(204, 204, 204)" stroke-width="1px"></line><line x1="1446.4375" y1="0" x2="1446.4375" y2="5" style="visibility: inherit;" fill="rgb(0, 0, 0)" stroke="rgb(204, 204, 204)" stroke-width="1px"></line></g><g transform="translate(0, 8)"><text x="0" y="0" dx="0em" dy="0.95em" style="text-anchor: middle; visibility: hidden; font-family: Roboto, sans-serif; font-size: 12px; font-weight: 200;" fill="rgb(50, 49, 63)" stroke="none" stroke-width="1px">-50k</text><text x="160.71527777777777" y="0" dx="0em" dy="0.95em" style="text-anchor: middle; visibility: inherit; font-family: Roboto, sans-serif; font-size: 12px; font-weight: 200;" fill="rgb(50, 49, 63)" stroke="none" stroke-width="1px">0</text><text x="321.43055555555554" y="0" dx="0em" dy="0.95em" style="text-anchor: middle; visibility: inherit; font-family: Roboto, sans-serif; font-size: 12px; font-weight: 200;" fill="rgb(50, 49, 63)" stroke="none" stroke-width="1px">50k</text><text x="482.1458333333333" y="0" dx="0em" dy="0.95em" style="text-anchor: middle; visibility: inherit; font-family: Roboto, sans-serif; font-size: 12px; font-weight: 200;" fill="rgb(50, 49, 63)" stroke="none" stroke-width="1px">100k</text><text x="642.8611111111111" y="0" dx="0em" dy="0.95em" style="text-anchor: middle; visibility: inherit; font-family: Roboto, sans-serif; font-size: 12px; font-weight: 200;" fill="rgb(50, 49, 63)" stroke="none" stroke-width="1px">150k</text><text x="803.5763888888889" y="0" dx="0em" dy="0.95em" style="text-anchor: middle; visibility: inherit; font-family: Roboto, sans-serif; font-size: 12px; font-weight: 200;" fill="rgb(50, 49, 63)" stroke="none" stroke-width="1px">200k</text><text x="964.2916666666666" y="0" dx="0em" dy="0.95em" style="text-anchor: middle; visibility: inherit; font-family: Roboto, sans-serif; font-size: 12px; font-weight: 200;" fill="rgb(50, 49, 63)" stroke="none" stroke-width="1px">250k</text><text x="1125.0069444444446" y="0" dx="0em" dy="0.95em" style="text-anchor: middle; visibility: inherit; font-family: Roboto, sans-serif; font-size: 12px; font-weight: 200;" fill="rgb(50, 49, 63)" stroke="none" stroke-width="1px">300k</text><text x="1285.7222222222222" y="0" dx="0em" dy="0.95em" style="text-anchor: middle; visibility: inherit; font-family: Roboto, sans-serif; font-size: 12px; font-weight: 200;" fill="rgb(50, 49, 63)" stroke="none" stroke-width="1px">350k</text><text x="1446.4375" y="0" dx="0em" dy="0.95em" style="text-anchor: middle; visibility: hidden; font-family: Roboto, sans-serif; font-size: 12px; font-weight: 200;" fill="rgb(50, 49, 63)" stroke="none" stroke-width="1px">400k</text></g><line x1="0" y1="0" x2="1446.4375" y2="0" fill="rgb(0, 0, 0)" stroke="rgb(204, 204, 204)" stroke-width="1px"></line></g></g></g></g></svg>