<svg viewBox="0 0 1498 400" xmlns="http://www.w3.org/2000/svg"><g><g><g><g><g><line x1="51.5625" y1="378" x2="46.5625" y2="378" style="visibility: inherit;" fill="rgb(0, 0, 0)" stroke="rgb(204, 204, 204)" stroke-width="1px"></line><line x1="51.5625" y1="330.75" x2="46.5625" y2="330.75" style="visibility: inherit;" fill="rgb(0, 0, 0)" stroke="rgb(204, 204, 204)" stroke-width="1px"></line><line x1="51.5625" y1="283.49999999999994" x2="46.5625" y2="283.49999999999994" style="visibility: inherit;" fill="rgb(0, 0, 0)" stroke="rgb(204, 204, 204)" stroke-width="1px"></line><line x1="51.5625" y1="236.24999999999997" x2="46.5625" y2="236.24999999999997" style="visibility: inherit;" fill="rgb(0, 0, 0)" stroke="rgb(204, 204, 204)" stroke-width="1px"></line><line x1="51.5625" y1="188.99999999999997" x2="46.5625" y2="188.99999999999997" style="visibility: inherit;" fill="rgb(0, 0, 0)" stroke="rgb(204, 204, 204)" stroke-width="1px"></line><line x1="51.5625" y1="141.74999999999991" x2="46.5625" y2="141.74999999999991" style="visibility: inherit;" fill="rgb(0, 0, 0)" stroke="rgb(204, 204, 204)" stroke-width="1px"></line><line x1="51.5625" y1="94.5" x2="46.5625" y2="94.5" style="visibility: inherit;" fill="rgb(0, 0, 0)" stroke="rgb(204, 204, 204)" stroke-width="1px"></line><line x1="51.5625" y1="47.24999999999996" x2="46.5625" y2="47.24999999999996" style="visibility: inherit;" fill="rgb(0, 0, 0)" stroke="rgb(204, 204, 204)" stroke-width="1px"></line><line x1="51.5625" y1="0" x2="46.5625" y2="0" style="visibility: inherit;" fill="rgb(0, 0, 0)" stroke="rgb(204, 204, 204)" stroke-width="1px"></line></g><g transform="translate(41.5625, 0)"><text x="0" y="378" dx="0em" dy="0.3em" style="text-anchor: end; visibility: hidden; font-family: Roboto, sans-serif; font-size: 12px; font-weight: 200;" fill="rgb(50, 49, 63)" stroke="none" stroke-width="1px">0.3</text><text x="0" y="330.75" dx="0em" dy="0.3em" style="text-anchor: end; visibility: inherit; font-family: Roboto, sans-serif; font-size: 12px; font-weight: 200;" fill="rgb(50, 49, 63)" stroke="none" stroke-width="1px">0.35</text><text x="0" y="283.49999999999994" dx="0em" dy="0.3em" style="text-anchor: end; visibility: inherit; font-family: Roboto, sans-serif; font-size: 12px; font-weight: 200;" fill="rgb(50, 49, 63)" stroke="none" stroke-width="1px">0.4</text><text x="0" y="236.24999999999997" dx="0em" dy="0.3em" style="text-anchor: end; visibility: inherit; font-family: Roboto, sans-serif; font-size: 12px; font-weight: 200;" fill="rgb(50, 49, 63)" stroke="none" stroke-width="1px">0.45</text><text x="0" y="188.99999999999997" dx="0em" dy="0.3em" style="text-anchor: end; visibility: inherit; font-family: Roboto, sans-serif; font-size: 12px; font-weight: 200;" fill="rgb(50, 49, 63)" stroke="none" stroke-width="1px">0.5</text><text x="0" y="141.74999999999991" dx="0em" dy="0.3em" style="text-anchor: end; visibility: inherit; font-family: Roboto, sans-serif; font-size: 12px; font-weight: 200;" fill="rgb(50, 49, 63)" stroke="none" stroke-width="1px">0.55</text><text x="0" y="94.5" dx="0em" dy="0.3em" style="text-anchor: end; visibility: inherit; font-family: Roboto, sans-serif; font-size: 12px; font-weight: 200;" fill="rgb(50, 49, 63)" stroke="none" stroke-width="1px">0.6</text><text x="0" y="47.24999999999996" dx="0em" dy="0.3em" style="text-anchor: end; visibility: inherit; font-family: Roboto, sans-serif; font-size: 12px; font-weight: 200;" fill="rgb(50, 49, 63)" stroke="none" stroke-width="1px">0.65</text><text x="0" y="0" dx="0em" dy="0.3em" style="text-anchor: end; visibility: hidden; font-family: Roboto, sans-serif; font-size: 12px; font-weight: 200;" fill="rgb(50, 49, 63)" stroke="none" stroke-width="1px">0.7</text></g><line x1="51.5625" y1="0" x2="51.5625" y2="378" fill="rgb(0, 0, 0)" stroke="rgb(204, 204, 204)" stroke-width="1px"></line></g></g><g transform="translate(51, 0)" clip-path="url(#clip_0)"><clipPath id="clip_0"><rect width="1446" height="378"></rect></clipPath><g><g><g><line x1="0" y1="0" x2="0" y2="378" fill="rgb(0, 0, 0)" stroke="rgb(60, 60, 60)" stroke-width="1px" opacity="0.25"></line><line x1="120.53645833333333" y1="0" x2="120.53645833333333" y2="378" fill="rgb(0, 0, 0)" stroke="rgb(60, 60, 60)" stroke-width="1px" opacity="0.25"></line><line x1="241.07291666666666" y1="0" x2="241.07291666666666" y2="378" fill="rgb(0, 0, 0)" stroke="rgb(60, 60, 60)" stroke-width="1px" opacity="0.25"></line><line x1="361.609375" y1="0" x2="361.609375" y2="378" fill="rgb(0, 0, 0)" stroke="rgb(60, 60, 60)" stroke-width="1px" opacity="0.25"></line><line x1="482.1458333333333" y1="0" x2="482.1458333333333" y2="378" fill="rgb(0, 0, 0)" stroke="rgb(60, 60, 60)" stroke-width="1px" opacity="0.25"></line><line x1="602.6822916666667" y1="0" x2="602.6822916666667" y2="378" fill="rgb(0, 0, 0)" stroke="rgb(60, 60, 60)" stroke-width="1px" opacity="0.25"></line><line x1="723.21875" y1="0" x2="723.21875" y2="378" fill="rgb(0, 0, 0)" stroke="rgb(60, 60, 60)" stroke-width="1px" opacity="0.25"></line><line x1="843.7552083333334" y1="0" x2="843.7552083333334" y2="378" fill="rgb(0, 0, 0)" stroke="rgb(60, 60, 60)" stroke-width="1px" opacity="0.25"></line><line x1="964.2916666666666" y1="0" x2="964.2916666666666" y2="378" fill="rgb(0, 0, 0)" stroke="rgb(60, 60, 60)" stroke-width="1px" opacity="0.25"></line><line x1="1084.828125" y1="0" x2="1084.828125" y2="378" fill="rgb(0, 0, 0)" stroke="rgb(60, 60, 60)" stroke-width="1px" opacity="0.25"></line><line x1="1205.3645833333335" y1="0" x2="1205.3645833333335" y2="378" fill="rgb(0, 0, 0)" stroke="rgb(60, 60, 60)" stroke-width="1px" opacity="0.25"></line><line x1="1325.9010416666665" y1="0" x2="1325.9010416666665" y2="378" fill="rgb(0, 0, 0)" stroke="rgb(60, 60, 60)" stroke-width="1px" opacity="0.25"></line><line x1="1446.4375" y1="0" x2="1446.4375" y2="378" fill="rgb(0, 0, 0)" stroke="rgb(60, 60, 60)" stroke-width="1px" opacity="0.25"></line></g><g><line x1="0" y1="378" x2="1446.4375" y2="378" fill="rgb(0, 0, 0)" stroke="rgb(60, 60, 60)" stroke-width="1px" opacity="0.25"></line><line x1="0" y1="330.75" x2="1446.4375" y2="330.75" fill="rgb(0, 0, 0)" stroke="rgb(60, 60, 60)" stroke-width="1px" opacity="0.25"></line><line x1="0" y1="283.49999999999994" x2="1446.4375" y2="283.49999999999994" fill="rgb(0, 0, 0)" stroke="rgb(60, 60, 60)" stroke-width="1px" opacity="0.25"></line><line x1="0" y1="236.24999999999997" x2="1446.4375" y2="236.24999999999997" fill="rgb(0, 0, 0)" stroke="rgb(60, 60, 60)" stroke-width="1px" opacity="0.25"></line><line x1="0" y1="188.99999999999997" x2="1446.4375" y2="188.99999999999997" fill="rgb(0, 0, 0)" stroke="rgb(60, 60, 60)" stroke-width="1px" opacity="0.25"></line><line x1="0" y1="141.74999999999991" x2="1446.4375" y2="141.74999999999991" fill="rgb(0, 0, 0)" stroke="rgb(60, 60, 60)" stroke-width="1px" opacity="0.25"></line><line x1="0" y1="94.5" x2="1446.4375" y2="94.5" fill="rgb(0, 0, 0)" stroke="rgb(60, 60, 60)" stroke-width="1px" opacity="0.25"></line><line x1="0" y1="47.24999999999996" x2="1446.4375" y2="47.24999999999996" fill="rgb(0, 0, 0)" stroke="rgb(60, 60, 60)" stroke-width="1px" opacity="0.25"></line><line x1="0" y1="0" x2="1446.4375" y2="0" fill="rgb(0, 0, 0)" stroke="rgb(60, 60, 60)" stroke-width="1px" opacity="0.25"></line></g></g></g><g><g><line x1="0" y1="661.5" x2="1446.4375" y2="661.5" fill="rgb(0, 0, 0)" stroke="rgb(153, 153, 153)" stroke-width="1.5px"></line></g></g><g><g><line x1="120.53645833333333" y1="0" x2="120.53645833333333" y2="378" fill="rgb(0, 0, 0)" stroke="rgb(153, 153, 153)" stroke-width="1.5px"></line></g></g><g><g><g><g><g><path stroke="rgb(238, 51, 119)" stroke-width="2px" d="M145.60804166666668,394.6321647280851L150.4295,372.19696592622165L155.25095833333333,329.2149622939451L160.07241666666667,304.2089765946974L164.893875,283.112783433344L169.71533333333332,245.23865971695827L174.5367916666667,216.33835237410838L179.35825,167.49668473286047L184.1797083333333,131.95158346650138L189.00116666666665,110.65425760444009L193.82262500000002,97.88654837342202L198.64408333333333,71.32442804778651L203.46554166666667,80.59621722062745L208.28699999999998,92.45894262043927L213.10845833333335,80.67465048901873L217.92991666666668,79.90475914088961L222.751375,123.54381279229975L227.57283333333334,137.12645593818377L232.39429166666667,176.77619119496416L237.21575,206.86585579124664L242.03720833333333,250.1196334424096L246.85866666666666,276.07182133106227L251.68012499999998,297.9431174367538L256.5015833333334,311.06588077372106L261.32304166666665,306.3395297268517L266.1445,265.7037141097217L270.96595833333333,222.42221221052685L275.7874166666667,158.65332525524056L280.608875,120.39199633016476L285.43033333333335,97.43520014443375L290.25179166666663,89.96111695410146L295.07325,98.07667776635338L299.89470833333337,128.14601285404896L304.71616666666665,152.4876078028144L309.537625,179.69256399128045L314.35908333333333,189.7155436652962L319.18054166666667,202.02932545803543L324.002,190.51760127742963L328.82345833333335,196.21056602523117L333.64491666666663,212.22634412402445L338.466375,209.23581173123347L343.28783333333337,220.0414915455252L348.10929166666665,245.4248926752094L352.93075,254.35493936041868L357.75220833333333,228.2129636158991L362.57366666666667,237.72777666757932L367.395125,230.8366652494957L372.21658333333335,214.1019991496487L377.03804166666663,229.2611979877786L381.8595,213.15671879265025L386.6809583333333,178.29403277760528L391.50241666666665,151.07642717673812L396.32387500000004,109.54586531825582L401.1453333333333,122.42751468484397L405.96679166666667,149.05650881090858L410.78824999999995,171.33391054367587L415.60970833333334,172.10035233435366L420.4311666666667,166.2602008863528L425.25262499999997,156.4561160257004L430.07408333333336,163.1736756235685L434.8955416666667,160.90419485988176L439.717,153.2425124098179L444.5384583333334,167.54550744589082L449.35991666666666,188.727303716516L454.181375,169.93637772379847L459.00283333333334,158.66182212816784L463.8242916666666,139.297100787086L468.64575,102.47826948447393L473.4672083333333,61.4869661967955L478.28866666666664,49.49217220789205L483.11012500000004,61.195300320661154L487.9315833333333,93.4171756862855L492.75304166666666,112.7503009056601L497.57449999999994,124.35017603728491L502.39595833333334,125.01010712440798L507.2174166666667,131.70605976853366L512.038875,129.42363736315724L516.8603333333333,134.35417791178315L521.6817916666668,149.91251275521802L526.50325,159.247513661279L531.3247083333333,164.84851420491557L536.1461666666667,161.90909800869L540.967625,141.24546631539923L545.7890833333333,135.14728129127658L550.6105416666667,150.38837478291416L555.432,128.03301585752624L560.2534583333332,108.31980651044167L565.0749166666667,102.79187489404273L569.896375,93.17512193235162L574.7178333333333,87.4050701553369L579.5392916666667,102.84304359523917L584.36075,99.50581714492121L589.1822083333333,129.00349629510092L594.0036666666667,140.4020872628012L598.825125,140.94124785156956L603.6465833333333,160.16474871094175L608.4680416666667,171.698849226565L613.2895,159.7193050298278L618.1109583333333,146.23158451993376L622.9324166666667,131.83895822214546L627.753875,116.90336592106499L632.5753333333333,89.04202856486127L637.3967916666667,84.9252141348426L642.21825,82.45512547683141L647.0397083333334,118.77308129424706L651.8611666666667,165.76385328265937L656.682625,200.25831046755854L661.5040833333333,208.3549855295166L666.3255416666667,219.51299582382106L671.147,219.9077967432741L675.9684583333333,188.6446735398533L680.7899166666667,182.48681013206019L685.611375,172.49207556497672L690.4328333333333,134.99524233491195L695.2542916666667,125.09715291113237L700.07575,112.85828273445712L704.8972083333333,92.91497264474835L709.7186666666666,93.5489745746267L714.540125,87.62938174070194L719.3615833333333,71.47763805664346L724.1830416666667,68.08658583806007L729.0045,72.35194849876197L733.8259583333332,68.61117210333123L738.6474166666667,85.26671077218393L743.468875,107.86002195719924L748.2903333333333,102.51600416209716L753.1117916666667,99.30959348503603L757.93325,91.08575308694755L762.7547083333333,92.45144283994627L767.5761666666666,86.97086269989369L772.3976250000001,108.88251311382501L777.2190833333333,103.12949885607274L782.0405416666666,118.57769480753248L786.8620000000001,96.34661988859365L791.6834583333333,83.00797493723032L796.5049166666666,106.504780456227L801.3263750000001,126.90285775947689L806.1478333333333,126.5417161577232L810.9692916666667,138.92501918037462L815.7907499999999,146.3550009939654L820.6122083333333,125.6129915841569L825.4336666666667,125.76779645253113L830.2551249999999,138.46066735725935L835.0765833333334,152.37640642250383L839.8980416666667,148.1258393473911L844.7194999999999,164.47550360843465L849.5409583333334,174.2853021650608L854.3624166666667,167.57117078477708L859.183875,163.54269195660686L864.0053333333334,161.12560465970475L868.8267916666667,140.77537030600806L873.64825,128.56522969379012L878.4697083333333,127.53913931831106L883.2911666666668,133.22347908487552L888.112625,161.83409270805492L892.9340833333333,179.00046088196257L897.7555416666667,189.30028178630724L902.577,189.1801690717843L907.3984583333333,189.10810144307058L912.2199166666667,195.364866122972L917.041375,180.21890915952386L921.8628333333332,177.4313515038625L926.6842916666667,169.4588003880582L931.50575,183.57528548996459L936.3272083333333,185.74517129397879L941.1486666666666,199.64710202536872L945.970125,207.9882604642027L950.7915833333333,206.6929615356513L955.6130416666666,199.61577692139076L960.4345000000001,214.2694706589456L965.2559583333333,235.66168615045996L970.0774166666666,273.69701394333157L974.8988750000001,290.2182053619248L979.7203333333333,287.53092096409927L984.5417916666667,298.51854957438553L989.3632500000001,273.61113425074245L994.1847083333333,233.46668655859366L999.0061666666667,215.68001193515616L1003.8276249999999,242.8080049080381L1008.6490833333334,240.18480745093402L1013.4705416666667,263.8108874746345L1018.2919999999999,284.2865294807066L1023.1134583333334,296.57191468434985L1027.9349166666666,297.64315181468396L1032.756375,285.685894843903L1037.5778333333335,284.81153465328623L1042.3992916666666,271.68691928993474L1047.22075,263.8121500719238L1052.0422083333335,265.3872937982469L1056.8636666666666,272.6323740258925L1061.685125,270.6794281706281L1066.5065833333333,282.107659906451L1071.3280416666666,295.26459293979644L1076.1495,290.5587535108223L1080.9709583333333,281.43525586158603L1085.7924166666667,275.9611572720442L1090.613875,241.17669436322652L1095.4353333333333,226.60602187506558L1100.2567916666667,236.7636116230023L1105.07825,236.55817147991252L1109.8997083333334,223.8349081450772L1114.7211666666667,216.200950144176L1119.542625,199.02057609465385L1124.3640833333334,201.31235091392193L1129.1855416666665,202.68741580548283L1134.007,209.8124487322712L1138.8284583333334,232.9874729944553L1143.6499166666665,234.29248830278436L1148.471375,247.67549673676322L1153.2928333333334,262.00529578900233L1158.1142916666665,258.0031759713643L1162.93575,230.40190558281859L1167.7572083333334,213.84114334969115L1172.5786666666665,185.00468150370358L1177.400125,186.6028089022221L1182.2215833333335,206.46168984744443L1187.0430416666666,199.4770139084666L1191.8645,214.18621285119113L1196.6859583333335,223.01173221682578L1201.5074166666666,209.40703933009547L1206.328875,213.84422284703874L1211.1503333333335,254.3065307041492L1215.9717916666666,272.2839214265636L1220.79325,289.3703498518641L1225.6147083333335,318.5222114131555L1230.4361666666666,329.71332309280075L1235.257625,336.4279901005878L1240.0790833333333,296.35679856646385L1244.9005416666666,284.91408289497093L1249.722,246.54844973698258L1254.5434583333333,236.129069091171L1259.3649166666667,242.47743995266558L1264.186375,271.48646096752526L1269.0078333333333,269.9918803356078L1273.8292916666667,287.9951251972905L1278.65075,298.79707211430025L1283.4722083333334,305.2782402645061L1288.2936666666667,296.5669419056481L1293.115125,316.54016138829627L1297.9365833333334,303.3240945799222L1302.7580416666665,270.1944559969347L1307.5795,244.0166788552905L1312.4009583333334,234.61000656215575L1317.2224166666665,247.86600769238615L1322.043875,243.21960912154276L1326.8653333333334,234.1317647219071L1331.6867916666665,228.67905808212572L1336.50825,193.90743034316426L1341.3297083333334,173.04445369978743L1346.1511666666665,166.82666170561308L1350.972625,156.79599251725665L1355.7940833333334,157.0775849960946L1360.6155416666666,182.44655024663825L1365.437,197.6679293969644L1370.2584583333335,187.90076364632682L1375.0799166666666,182.04046419594428L1379.901375,159.62428001960365L1384.7228333333335,158.77455749750285L1389.5442916666666,170.8647344985017L1394.36575,178.11884069910093" style="fill: none;" fill="none"></path></g><g><path stroke="rgb(51, 187, 238)" stroke-width="2px" d="M145.60804166666668,423.1817719495023L150.4295,371.1830120310188L155.25095833333333,315.65539379075165L160.07241666666667,257.7201527036618L164.893875,204.4957134052139L169.71533333333332,160.2297597363712L174.5367916666667,152.81093606183052L179.35825,179.9456272024475L184.1797083333333,202.49683426909849L189.00116666666665,216.0086935231285L193.82262500000002,230.41198682407864L198.64408333333333,251.65318221606827L203.46554166666667,258.09300313128875L208.28699999999998,274.55747701410144L213.10845833333335,284.4350911145709L217.92991666666668,258.86011885621724L222.751375,237.21560175615676L227.57283333333334,192.72877701256397L232.39429166666667,140.83685940545587L237.21575,134.9020890241053L242.03720833333333,137.64125669588464L246.85866666666666,158.1847890610433L251.68012499999998,183.11089819724006L256.5015833333334,223.2665613246491L261.32304166666665,196.95991658767497L266.1445,174.87594056430268L270.96595833333333,142.72555106179172L275.7874166666667,117.13532559636158L280.608875,82.88118621192909L285.43033333333335,62.32870362811939L290.25179166666663,49.99721445469946L295.07325,48.898337673707786L299.89470833333337,41.93899505097033L304.71616666666665,69.2634046422282L309.537625,91.95804433793569L314.35908333333333,111.87482212327389L319.18054166666667,142.72489329870766L324.002,136.03493747804217L328.82345833333335,106.82096548246409L333.64491666666663,64.09258378818726L338.466375,63.65555327694095L343.28783333333337,57.09334097797763L348.10929166666665,59.456007590949135L352.93075,98.67359404119063L357.75220833333333,109.60415792689867L362.57366666666667,109.86250226632649L367.395125,128.91749084562903L372.21658333333335,134.05049000128125L377.03804166666663,130.83029550280008L381.8595,128.89817880371498L386.6809583333333,146.63891329038842L391.50241666666665,138.38334947626694L396.32387500000004,133.43001118779608L401.1453333333333,130.4580082147143L405.96679166666667,128.67480643086546L410.78824999999995,152.80488385852044L415.60970833333334,167.2829303151127L420.4311666666667,194.8697626951793L425.25262499999997,211.4218621232189L430.07408333333336,215.0531165229128L434.8955416666667,210.93187517087733L439.717,208.45913035965603L444.5384583333334,200.6754782157936L449.35991666666666,189.70529293762434L454.181375,164.22317726461173L459.00283333333334,161.5338958445076L463.8242916666666,147.32033900874166L468.64575,145.09219889913373L473.4672083333333,175.25531858846165L478.28866666666664,187.05319641020668L483.11012500000004,162.63191934816103L487.9315833333333,147.97915311093368L492.75304166666666,126.58748285433789L497.57449999999994,88.55248220241748L502.39595833333334,65.73148181126524L507.2174166666667,70.93888608268499L512.038875,92.96333315164807L516.8603333333333,131.37799989098883L521.6817916666668,148.12680594274147L526.50325,177.07608281462626L531.3247083333333,200.7456541948869L536.1461666666667,227.54739627202474L540.967625,224.72843701219637L545.7890833333333,229.33706671342895L550.6105416666667,200.602229513798L555.432,195.9613377082788L560.2534583333332,174.27679811885608L565.0749166666667,167.5660683570543L569.896375,144.63964852441777L574.7178333333333,105.68379812687301L579.5392916666667,82.31028788834608L584.36075,74.58617573708177L589.1822083333333,57.35169793206377L594.0036666666667,53.31102777146058L598.825125,69.78660765065405L603.6465833333333,73.37196158631832L608.4680416666667,81.82316793956873L613.2895,118.39390677188938L618.1109583333333,127.7363395570225L622.9324166666667,145.94180974236164L627.753875,182.06509035152806L632.5753333333333,184.83905421091677L637.3967916666667,161.3034340285871L642.21825,147.18206191918935L647.0397083333334,126.10922813929126L651.8611666666667,107.16553387950073L656.682625,108.39932783788562L661.5040833333333,109.13960421291664L666.3255416666667,128.48375201349063L671.147,152.69025120809428L675.9684583333333,167.21415072485652L680.7899166666667,169.6284964430621L685.611375,158.47709335972613L690.4328333333333,158.0862455015763L695.2542916666667,157.85173678668642L700.07575,157.7110315577525L704.8972083333333,176.52662419178117L709.7186666666666,194.11597376405018L714.540125,198.36958951555974L719.3615833333333,188.32175971748404L724.1830416666667,163.3930573325274L729.0045,148.4358359015535L733.8259583333332,145.76149703482096L738.6474166666667,150.45688770663318L743.468875,184.77413713009108L748.2903333333333,217.96448603314727L753.1117916666667,231.57869011785127L757.93325,220.84721932784043L762.7547083333333,208.10833159670426L767.5761666666666,187.8649884437632L772.3976250000001,163.1189945682949L777.2190833333333,148.27139824301403L782.0405416666666,139.36284044784546L786.8620000000001,152.91771027685536L791.6834583333333,148.450621660002L796.5049166666666,158.37037900414938L801.3263750000001,158.02221688823028L806.1478333333333,164.11333614108634L810.9692916666667,148.86800318668884L815.7907499999999,146.02079740590213L820.6122083333333,125.41246943131902L825.4336666666667,113.04747264656903L830.2551249999999,130.8284730736821L835.0765833333334,154.0970838442092L839.8980416666667,174.3582555636552L844.7194999999999,180.21495333819308L849.5409583333334,177.42897801106406L854.3624166666667,182.05738680663848L859.183875,184.83443208398302L864.0053333333334,186.50065925038984L868.8267916666667,206.40040005634503L873.64825,230.94024378889964L878.4697083333333,233.06415077945087L883.2911666666668,228.03848971665204L888.112625,193.5230893238801L892.9340833333333,153.91384458210572L897.7555416666667,123.84830374518927L902.577,118.40898975729883L907.3984583333333,134.04538334011994L912.2199166666667,156.02723000407192L917.041375,144.01633950448013L921.8628333333332,117.90980069861405L926.6842916666667,95.94588342324259L931.50575,63.86752855190845L936.3272083333333,63.52052013521915L941.1486666666666,94.81230757502033L945.970125,126.18739055316034L950.7915833333333,138.71242381763685L955.6130416666666,146.22744377632281L960.4345000000001,144.4364617596825L965.2559583333333,130.76188456599476L970.0774166666666,103.65713374367103L974.8988750000001,118.89427574009149L979.7203333333333,102.83656243998082L984.5417916666667,99.5019284517661L989.3632500000001,110.10115857309674L994.1847083333333,91.26069814793213L999.0061666666667,67.35641137857407L1003.8276249999999,65.61384983121856L1008.6490833333334,77.16830088650892L1013.4705416666667,90.40098804209062L1018.2919999999999,98.34060033543963L1023.1134583333334,109.40436170330082L1027.9349166666666,90.84262002605462L1032.756375,79.70557501970686L1037.5778333333335,73.02334801589816L1042.3992916666666,100.51400430342774L1047.22075,135.90840258205668L1052.0422083333335,163.4450468063637L1056.8636666666666,198.86702658178118L1061.685125,232.7202136960131L1066.5065833333333,215.23212821760782L1071.3280416666666,198.4392829387129L1076.1495,175.76356525711654L1080.9709583333333,149.5581466644551L1085.7924166666667,102.33488048848781L1090.613875,99.20091928087034L1095.4353333333333,91.02054856444813L1100.2567916666667,105.01233064070587L1105.07825,100.80738937220123L1109.8997083333334,117.18442911720962L1114.7211666666667,145.91065747032576L1119.542625,175.7463937311769L1124.3640833333334,206.24783473666918L1129.1855416666665,230.84870459709407" style="fill: none;" fill="none"></path></g></g></g></g><g opacity="0.2"><g><g><g><path stroke="rgb(238, 51, 119)" stroke-width="2px" d="M140.7865833333333,394.9615261852741L145.60804166666668,352.92857775092125L150.4295,341.161009311676L155.25095833333333,267.75000938773155L160.07241666666667,267.75000938773155L164.893875,251.99999624490738L169.71533333333332,188.99999999999997L174.5367916666667,173.25001502037045L179.35825,94.49997746944423L184.1797083333333,78.74999248981472L189.00116666666665,78.74999248981472L193.82262500000002,78.74999248981472L198.64408333333333,31.499981224536853L203.46554166666667,94.49997746944423L208.28699999999998,110.25001877546306L213.10845833333335,63.0000075101852L217.92991666666668,78.74999248981472L222.751375,188.99999999999997L227.57283333333334,157.49997371435163L232.39429166666667,236.25001126527786L237.21575,251.99999624490738L242.03720833333333,314.99999248981476L246.85866666666666,314.99999248981476L251.68012499999998,330.75000563263893L256.5015833333334,330.75000563263893L261.32304166666665,299.25000751018524L266.1445,204.75001314282417L270.96595833333333,157.49997371435163L275.7874166666667,63.0000075101852L280.608875,63.0000075101852L285.43033333333335,63.0000075101852L290.25179166666663,78.74999248981472L295.07325,110.25001877546306L299.89470833333337,173.25001502037045L304.71616666666665,188.99999999999997L309.537625,220.4999981224537L314.35908333333333,204.75001314282417L319.18054166666667,220.4999981224537L324.002,173.25001502037045L328.82345833333335,204.75001314282417L333.64491666666663,236.25001126527786L338.466375,204.75001314282417L343.28783333333337,236.25001126527786L348.10929166666665,283.49999436736107L352.93075,267.75000938773155L357.75220833333333,188.99999999999997L362.57366666666667,251.99999624490738L367.395125,220.4999981224537L372.21658333333335,188.99999999999997L377.03804166666663,251.99999624490738L381.8595,188.99999999999997L386.6809583333333,126.00000375509258L391.50241666666665,110.25001877546306L396.32387500000004,47.25002253055568L401.1453333333333,141.7499887347221L405.96679166666667,188.99999999999997L410.78824999999995,204.75001314282417L415.60970833333334,173.25001502037045L420.4311666666667,157.49997371435163L425.25262499999997,141.7499887347221L430.07408333333336,173.25001502037045L434.8955416666667,157.49997371435163L439.717,141.7499887347221L444.5384583333334,188.99999999999997L449.35991666666666,220.4999981224537L454.181375,141.7499887347221L459.00283333333334,141.7499887347221L463.8242916666666,110.25001877546306L468.64575,47.25002253055568L473.4672083333333,0.000011265277820582398L478.28866666666664,31.499981224536853L483.11012500000004,78.74999248981472L487.9315833333333,141.7499887347221L492.75304166666666,141.7499887347221L497.57449999999994,141.7499887347221L502.39595833333334,126.00000375509258L507.2174166666667,141.7499887347221L512.038875,126.00000375509258L516.8603333333333,141.7499887347221L521.6817916666668,173.25001502037045L526.50325,173.25001502037045L531.3247083333333,173.25001502037045L536.1461666666667,157.49997371435163L540.967625,110.25001877546306L545.7890833333333,126.00000375509258L550.6105416666667,173.25001502037045L555.432,94.49997746944423L560.2534583333332,78.74999248981472L565.0749166666667,94.49997746944423L569.896375,78.74999248981472L574.7178333333333,78.74999248981472L579.5392916666667,126.00000375509258L584.36075,94.49997746944423L589.1822083333333,173.25001502037045L594.0036666666667,157.49997371435163L598.825125,141.7499887347221L603.6465833333333,188.99999999999997L608.4680416666667,188.99999999999997L613.2895,141.7499887347221L618.1109583333333,126.00000375509258L622.9324166666667,110.25001877546306L627.753875,94.49997746944423L632.5753333333333,47.25002253055568L637.3967916666667,78.74999248981472L642.21825,78.74999248981472L647.0397083333334,173.25001502037045L651.8611666666667,236.25001126527786L656.682625,251.99999624490738L661.5040833333333,220.4999981224537L666.3255416666667,236.25001126527786L671.147,220.4999981224537L675.9684583333333,141.7499887347221L680.7899166666667,173.25001502037045L685.611375,157.49997371435163L690.4328333333333,78.74999248981472L695.2542916666667,110.25001877546306L700.07575,94.49997746944423L704.8972083333333,63.0000075101852L709.7186666666666,94.49997746944423L714.540125,78.74999248981472L719.3615833333333,47.25002253055568L724.1830416666667,63.0000075101852L729.0045,78.74999248981472L733.8259583333332,63.0000075101852L738.6474166666667,110.25001877546306L743.468875,141.7499887347221L748.2903333333333,94.49997746944423L753.1117916666667,94.49997746944423L757.93325,78.74999248981472L762.7547083333333,94.49997746944423L767.5761666666666,78.74999248981472L772.3976250000001,141.7499887347221L777.2190833333333,94.49997746944423L782.0405416666666,141.7499887347221L786.8620000000001,63.0000075101852L791.6834583333333,63.0000075101852L796.5049166666666,141.7499887347221L801.3263750000001,157.49997371435163L806.1478333333333,126.00000375509258L810.9692916666667,157.49997371435163L815.7907499999999,157.49997371435163L820.6122083333333,94.49997746944423L825.4336666666667,126.00000375509258L830.2551249999999,157.49997371435163L835.0765833333334,173.25001502037045L839.8980416666667,141.7499887347221L844.7194999999999,188.99999999999997L849.5409583333334,188.99999999999997L854.3624166666667,157.49997371435163L859.183875,157.49997371435163L864.0053333333334,157.49997371435163L868.8267916666667,110.25001877546306L873.64825,110.25001877546306L878.4697083333333,126.00000375509258L883.2911666666668,141.7499887347221L888.112625,204.75001314282417L892.9340833333333,204.75001314282417L897.7555416666667,204.75001314282417L902.577,188.99999999999997L907.3984583333333,188.99999999999997L912.2199166666667,204.75001314282417L917.041375,157.49997371435163L921.8628333333332,173.25001502037045L926.6842916666667,157.49997371435163L931.50575,204.75001314282417L936.3272083333333,188.99999999999997L941.1486666666666,220.4999981224537L945.970125,220.4999981224537L950.7915833333333,204.75001314282417L955.6130416666666,188.99999999999997L960.4345000000001,236.25001126527786L965.2559583333333,267.75000938773155L970.0774166666666,330.75000563263893L974.8988750000001,314.99999248981476L979.7203333333333,283.49999436736107L984.5417916666667,314.99999248981476L989.3632500000001,236.25001126527786L994.1847083333333,173.25001502037045L999.0061666666667,188.99999999999997L1003.8276249999999,283.49999436736107L1008.6490833333334,236.25001126527786L1013.4705416666667,299.25000751018524L1018.2919999999999,314.99999248981476L1023.1134583333334,314.99999248981476L1027.9349166666666,299.25000751018524L1032.756375,267.75000938773155L1037.5778333333335,283.49999436736107L1042.3992916666666,251.99999624490738L1047.22075,251.99999624490738L1052.0422083333335,267.75000938773155L1056.8636666666666,283.49999436736107L1061.685125,267.75000938773155L1066.5065833333333,299.25000751018524L1071.3280416666666,314.99999248981476L1076.1495,283.49999436736107L1080.9709583333333,267.75000938773155L1085.7924166666667,267.75000938773155L1090.613875,188.99999999999997L1095.4353333333333,204.75001314282417L1100.2567916666667,251.99999624490738L1105.07825,236.25001126527786L1109.8997083333334,204.75001314282417L1114.7211666666667,204.75001314282417L1119.542625,173.25001502037045L1124.3640833333334,204.75001314282417L1129.1855416666665,204.75001314282417L1134.007,220.4999981224537L1138.8284583333334,267.75000938773155L1143.6499166666665,236.25001126527786L1148.471375,267.75000938773155L1153.2928333333334,283.49999436736107L1158.1142916666665,251.99999624490738L1162.93575,188.99999999999997L1167.7572083333334,188.99999999999997L1172.5786666666665,141.7499887347221L1177.400125,188.99999999999997L1182.2215833333335,236.25001126527786L1187.0430416666666,188.99999999999997L1191.8645,236.25001126527786L1196.6859583333335,236.25001126527786L1201.5074166666666,188.99999999999997L1206.328875,220.4999981224537L1211.1503333333335,314.99999248981476L1215.9717916666666,299.25000751018524L1220.79325,314.99999248981476L1225.6147083333335,362.2500037550926L1230.4361666666666,346.49999061226845L1235.257625,346.49999061226845L1240.0790833333333,236.25001126527786L1244.9005416666666,267.75000938773155L1249.722,188.99999999999997L1254.5434583333333,220.4999981224537L1259.3649166666667,251.99999624490738L1264.186375,314.99999248981476L1269.0078333333333,267.75000938773155L1273.8292916666667,314.99999248981476L1278.65075,314.99999248981476L1283.4722083333334,314.99999248981476L1288.2936666666667,283.49999436736107L1293.115125,346.49999061226845L1297.9365833333334,283.49999436736107L1302.7580416666665,220.4999981224537L1307.5795,204.75001314282417L1312.4009583333334,220.4999981224537L1317.2224166666665,267.75000938773155L1322.043875,236.25001126527786L1326.8653333333334,220.4999981224537L1331.6867916666665,220.4999981224537L1336.50825,141.7499887347221L1341.3297083333334,141.7499887347221L1346.1511666666665,157.49997371435163L1350.972625,141.7499887347221L1355.7940833333334,157.49997371435163L1360.6155416666666,220.4999981224537L1365.437,220.4999981224537L1370.2584583333335,173.25001502037045L1375.0799166666666,173.25001502037045L1379.901375,126.00000375509258L1384.7228333333335,157.49997371435163L1389.5442916666666,188.99999999999997L1394.36575,188.99999999999997" style="fill: none;" fill="none"></path></g><g><path stroke="rgb(51, 187, 238)" stroke-width="2px" d="M140.7865833333333,419.7558113336563L145.60804166666668,364.00000834465027L150.4295,299.25000751018524L155.25095833333333,236.25001126527786L160.07241666666667,173.25001502037045L164.893875,126.00000375509258L169.71533333333332,94.49997746944423L174.5367916666667,141.7499887347221L179.35825,220.4999981224537L184.1797083333333,236.25001126527786L189.00116666666665,236.25001126527786L193.82262500000002,251.99999624490738L198.64408333333333,283.49999436736107L203.46554166666667,267.75000938773155L208.28699999999998,299.25000751018524L213.10845833333335,299.25000751018524L217.92991666666668,220.4999981224537L222.751375,204.75001314282417L227.57283333333334,126.00000375509258L232.39429166666667,63.0000075101852L237.21575,126.00000375509258L242.03720833333333,141.7499887347221L246.85866666666666,188.99999999999997L251.68012499999998,220.4999981224537L256.5015833333334,283.49999436736107L261.32304166666665,157.49997371435163L266.1445,141.7499887347221L270.96595833333333,94.49997746944423L275.7874166666667,78.74999248981472L280.608875,31.499981224536853L285.43033333333335,31.499981224536853L290.25179166666663,31.499981224536853L295.07325,47.25002253055568L299.89470833333337,31.499981224536853L304.71616666666665,110.25001877546306L309.537625,126.00000375509258L314.35908333333333,141.7499887347221L319.18054166666667,188.99999999999997L324.002,126.00000375509258L328.82345833333335,63.0000075101852L333.64491666666663,0.000011265277820582398L338.466375,63.0000075101852L343.28783333333337,47.25002253055568L348.10929166666665,63.0000075101852L352.93075,157.49997371435163L357.75220833333333,126.00000375509258L362.57366666666667,110.25001877546306L367.395125,157.49997371435163L372.21658333333335,141.7499887347221L377.03804166666663,126.00000375509258L381.8595,126.00000375509258L386.6809583333333,173.25001502037045L391.50241666666665,126.00000375509258L396.32387500000004,126.00000375509258L401.1453333333333,126.00000375509258L405.96679166666667,126.00000375509258L410.78824999999995,188.99999999999997L415.60970833333334,188.99999999999997L420.4311666666667,236.25001126527786L425.25262499999997,236.25001126527786L430.07408333333336,220.4999981224537L434.8955416666667,204.75001314282417L439.717,204.75001314282417L444.5384583333334,188.99999999999997L449.35991666666666,173.25001502037045L454.181375,126.00000375509258L459.00283333333334,157.49997371435163L463.8242916666666,126.00000375509258L468.64575,141.7499887347221L473.4672083333333,220.4999981224537L478.28866666666664,204.75001314282417L483.11012500000004,126.00000375509258L487.9315833333333,126.00000375509258L492.75304166666666,94.49997746944423L497.57449999999994,31.499981224536853L502.39595833333334,31.499981224536853L507.2174166666667,78.74999248981472L512.038875,126.00000375509258L516.8603333333333,188.99999999999997L521.6817916666668,173.25001502037045L526.50325,220.4999981224537L531.3247083333333,236.25001126527786L536.1461666666667,267.75000938773155L540.967625,220.4999981224537L545.7890833333333,236.25001126527786L550.6105416666667,157.49997371435163L555.432,188.99999999999997L560.2534583333332,141.7499887347221L565.0749166666667,157.49997371435163L569.896375,110.25001877546306L574.7178333333333,47.25002253055568L579.5392916666667,47.25002253055568L584.36075,63.0000075101852L589.1822083333333,31.499981224536853L594.0036666666667,47.25002253055568L598.825125,94.49997746944423L603.6465833333333,78.74999248981472L608.4680416666667,94.49997746944423L613.2895,173.25001502037045L618.1109583333333,141.7499887347221L622.9324166666667,173.25001502037045L627.753875,236.25001126527786L632.5753333333333,188.99999999999997L637.3967916666667,126.00000375509258L642.21825,126.00000375509258L647.0397083333334,94.49997746944423L651.8611666666667,78.74999248981472L656.682625,110.25001877546306L661.5040833333333,110.25001877546306L666.3255416666667,157.49997371435163L671.147,188.99999999999997L675.9684583333333,188.99999999999997L680.7899166666667,173.25001502037045L685.611375,141.7499887347221L690.4328333333333,157.49997371435163L695.2542916666667,157.49997371435163L700.07575,157.49997371435163L704.8972083333333,204.75001314282417L709.7186666666666,220.4999981224537L714.540125,204.75001314282417L719.3615833333333,173.25001502037045L724.1830416666667,126.00000375509258L729.0045,126.00000375509258L733.8259583333332,141.7499887347221L738.6474166666667,157.49997371435163L743.468875,236.25001126527786L748.2903333333333,267.75000938773155L753.1117916666667,251.99999624490738L757.93325,204.75001314282417L762.7547083333333,188.99999999999997L767.5761666666666,157.49997371435163L772.3976250000001,126.00000375509258L777.2190833333333,126.00000375509258L782.0405416666666,126.00000375509258L786.8620000000001,173.25001502037045L791.6834583333333,141.7499887347221L796.5049166666666,173.25001502037045L801.3263750000001,157.49997371435163L806.1478333333333,173.25001502037045L810.9692916666667,126.00000375509258L815.7907499999999,141.7499887347221L820.6122083333333,94.49997746944423L825.4336666666667,94.49997746944423L830.2551249999999,157.49997371435163L835.0765833333334,188.99999999999997L839.8980416666667,204.75001314282417L844.7194999999999,188.99999999999997L849.5409583333334,173.25001502037045L854.3624166666667,188.99999999999997L859.183875,188.99999999999997L864.0053333333334,188.99999999999997L868.8267916666667,236.25001126527786L873.64825,267.75000938773155L878.4697083333333,236.25001126527786L883.2911666666668,220.4999981224537L888.112625,141.7499887347221L892.9340833333333,94.49997746944423L897.7555416666667,78.74999248981472L902.577,110.25001877546306L907.3984583333333,157.49997371435163L912.2199166666667,188.99999999999997L917.041375,126.00000375509258L921.8628333333332,78.74999248981472L926.6842916666667,63.0000075101852L931.50575,15.749996244907337L936.3272083333333,63.0000075101852L941.1486666666666,141.7499887347221L945.970125,173.25001502037045L950.7915833333333,157.49997371435163L955.6130416666666,157.49997371435163L960.4345000000001,141.7499887347221L965.2559583333333,110.25001877546306L970.0774166666666,63.0000075101852L974.8988750000001,141.7499887347221L979.7203333333333,78.74999248981472L984.5417916666667,94.49997746944423L989.3632500000001,126.00000375509258L994.1847083333333,63.0000075101852L999.0061666666667,31.499981224536853L1003.8276249999999,63.0000075101852L1008.6490833333334,94.49997746944423L1013.4705416666667,110.25001877546306L1018.2919999999999,110.25001877546306L1023.1134583333334,126.00000375509258L1027.9349166666666,63.0000075101852L1032.756375,63.0000075101852L1037.5778333333335,63.0000075101852L1042.3992916666666,141.7499887347221L1047.22075,188.99999999999997L1052.0422083333335,204.75001314282417L1056.8636666666666,251.99999624490738L1061.685125,283.49999436736107L1066.5065833333333,188.99999999999997L1071.3280416666666,173.25001502037045L1076.1495,141.7499887347221L1080.9709583333333,110.25001877546306L1085.7924166666667,31.499981224536853L1090.613875,94.49997746944423L1095.4353333333333,78.74999248981472L1100.2567916666667,126.00000375509258L1105.07825,94.49997746944423L1109.8997083333334,141.7499887347221L1114.7211666666667,188.99999999999997L1119.542625,220.4999981224537L1124.3640833333334,251.99999624490738L1129.1855416666665,267.75000938773155" style="fill: none;" fill="none"></path></g></g></g></g></g></g><g transform="translate(51, 378)" clip-path="url(#clip_1)"><clipPath id="clip_1"><rect width="1446" height="22"></rect></clipPath><g><g><line x1="0" y1="0" x2="0" y2="5" style="visibility: inherit;" fill="rgb(0, 0, 0)" stroke="rgb(204, 204, 204)" stroke-width="1px"></line><line x1="120.53645833333333" y1="0" x2="120.53645833333333" y2="5" style="visibility: inherit;" fill="rgb(0, 0, 0)" stroke="rgb(204, 204, 204)" stroke-width="1px"></line><line x1="241.07291666666666" y1="0" x2="241.07291666666666" y2="5" style="visibility: inherit;" fill="rgb(0, 0, 0)" stroke="rgb(204, 204, 204)" stroke-width="1px"></line><line x1="361.609375" y1="0" x2="361.609375" y2="5" style="visibility: inherit;" fill="rgb(0, 0, 0)" stroke="rgb(204, 204, 204)" stroke-width="1px"></line><line x1="482.1458333333333" y1="0" x2="482.1458333333333" y2="5" style="visibility: inherit;" fill="rgb(0, 0, 0)" stroke="rgb(204, 204, 204)" stroke-width="1px"></line><line x1="602.6822916666667" y1="0" x2="602.6822916666667" y2="5" style="visibility: inherit;" fill="rgb(0, 0, 0)" stroke="rgb(204, 204, 204)" stroke-width="1px"></line><line x1="723.21875" y1="0" x2="723.21875" y2="5" style="visibility: inherit;" fill="rgb(0, 0, 0)" stroke="rgb(204, 204, 204)" stroke-width="1px"></line><line x1="843.7552083333334" y1="0" x2="843.7552083333334" y2="5" style="visibility: inherit;" fill="rgb(0, 0, 0)" stroke="rgb(204, 204, 204)" stroke-width="1px"></line><line x1="964.2916666666666" y1="0" x2="964.2916666666666" y2="5" style="visibility: inherit;" fill="rgb(0, 0, 0)" stroke="rgb(204, 204, 204)" stroke-width="1px"></line><line x1="1084.828125" y1="0" x2="1084.828125" y2="5" style="visibility: inherit;" fill="rgb(0, 0, 0)" stroke="rgb(204, 204, 204)" stroke-width="1px"></line><line x1="1205.3645833333335" y1="0" x2="1205.3645833333335" y2="5" style="visibility: inherit;" fill="rgb(0, 0, 0)" stroke="rgb(204, 204, 204)" stroke-width="1px"></line><line x1="1325.9010416666665" y1="0" x2="1325.9010416666665" y2="5" style="visibility: inherit;" fill="rgb(0, 0, 0)" stroke="rgb(204, 204, 204)" stroke-width="1px"></line><line x1="1446.4375" y1="0" x2="1446.4375" y2="5" style="visibility: inherit;" fill="rgb(0, 0, 0)" stroke="rgb(204, 204, 204)" stroke-width="1px"></line></g><g transform="translate(0, 8)"><text x="0" y="0" dx="0em" dy="0.95em" style="text-anchor: middle; visibility: hidden; font-family: Roboto, sans-serif; font-size: 12px; font-weight: 200;" fill="rgb(50, 49, 63)" stroke="none" stroke-width="1px">-100k</text><text x="120.53645833333333" y="0" dx="0em" dy="0.95em" style="text-anchor: middle; visibility: inherit; font-family: Roboto, sans-serif; font-size: 12px; font-weight: 200;" fill="rgb(50, 49, 63)" stroke="none" stroke-width="1px">0</text><text x="241.07291666666666" y="0" dx="0em" dy="0.95em" style="text-anchor: middle; visibility: inherit; font-family: Roboto, sans-serif; font-size: 12px; font-weight: 200;" fill="rgb(50, 49, 63)" stroke="none" stroke-width="1px">100k</text><text x="361.609375" y="0" dx="0em" dy="0.95em" style="text-anchor: middle; visibility: inherit; font-family: Roboto, sans-serif; font-size: 12px; font-weight: 200;" fill="rgb(50, 49, 63)" stroke="none" stroke-width="1px">200k</text><text x="482.1458333333333" y="0" dx="0em" dy="0.95em" style="text-anchor: middle; visibility: inherit; font-family: Roboto, sans-serif; font-size: 12px; font-weight: 200;" fill="rgb(50, 49, 63)" stroke="none" stroke-width="1px">300k</text><text x="602.6822916666667" y="0" dx="0em" dy="0.95em" style="text-anchor: middle; visibility: inherit; font-family: Roboto, sans-serif; font-size: 12px; font-weight: 200;" fill="rgb(50, 49, 63)" stroke="none" stroke-width="1px">400k</text><text x="723.21875" y="0" dx="0em" dy="0.95em" style="text-anchor: middle; visibility: inherit; font-family: Roboto, sans-serif; font-size: 12px; font-weight: 200;" fill="rgb(50, 49, 63)" stroke="none" stroke-width="1px">500k</text><text x="843.7552083333334" y="0" dx="0em" dy="0.95em" style="text-anchor: middle; visibility: inherit; font-family: Roboto, sans-serif; font-size: 12px; font-weight: 200;" fill="rgb(50, 49, 63)" stroke="none" stroke-width="1px">600k</text><text x="964.2916666666666" y="0" dx="0em" dy="0.95em" style="text-anchor: middle; visibility: inherit; font-family: Roboto, sans-serif; font-size: 12px; font-weight: 200;" fill="rgb(50, 49, 63)" stroke="none" stroke-width="1px">700k</text><text x="1084.828125" y="0" dx="0em" dy="0.95em" style="text-anchor: middle; visibility: inherit; font-family: Roboto, sans-serif; font-size: 12px; font-weight: 200;" fill="rgb(50, 49, 63)" stroke="none" stroke-width="1px">800k</text><text x="1205.3645833333335" y="0" dx="0em" dy="0.95em" style="text-anchor: middle; visibility: inherit; font-family: Roboto, sans-serif; font-size: 12px; font-weight: 200;" fill="rgb(50, 49, 63)" stroke="none" stroke-width="1px">900k</text><text x="1325.9010416666665" y="0" dx="0em" dy="0.95em" style="text-anchor: middle; visibility: inherit; font-family: Roboto, sans-serif; font-size: 12px; font-weight: 200;" fill="rgb(50, 49, 63)" stroke="none" stroke-width="1px">1M</text><text x="1446.4375" y="0" dx="0em" dy="0.95em" style="text-anchor: middle; visibility: hidden; font-family: Roboto, sans-serif; font-size: 12px; font-weight: 200;" fill="rgb(50, 49, 63)" stroke="none" stroke-width="1px">1.1M</text></g><line x1="0" y1="0" x2="1446.4375" y2="0" fill="rgb(0, 0, 0)" stroke="rgb(204, 204, 204)" stroke-width="1px"></line></g></g></g></g></svg>