<svg viewBox="0 0 1498 400" xmlns="http://www.w3.org/2000/svg"><g><g><g><g><g><line x1="30.78125" y1="378" x2="25.78125" y2="378" style="visibility: inherit;" fill="rgb(0, 0, 0)" stroke="rgb(204, 204, 204)" stroke-width="1px"></line><line x1="30.78125" y1="343.6363636363636" x2="25.78125" y2="343.6363636363636" style="visibility: inherit;" fill="rgb(0, 0, 0)" stroke="rgb(204, 204, 204)" stroke-width="1px"></line><line x1="30.78125" y1="309.27272727272725" x2="25.78125" y2="309.27272727272725" style="visibility: inherit;" fill="rgb(0, 0, 0)" stroke="rgb(204, 204, 204)" stroke-width="1px"></line><line x1="30.78125" y1="274.90909090909093" x2="25.78125" y2="274.90909090909093" style="visibility: inherit;" fill="rgb(0, 0, 0)" stroke="rgb(204, 204, 204)" stroke-width="1px"></line><line x1="30.78125" y1="240.54545454545453" x2="25.78125" y2="240.54545454545453" style="visibility: inherit;" fill="rgb(0, 0, 0)" stroke="rgb(204, 204, 204)" stroke-width="1px"></line><line x1="30.78125" y1="206.18181818181816" x2="25.78125" y2="206.18181818181816" style="visibility: inherit;" fill="rgb(0, 0, 0)" stroke="rgb(204, 204, 204)" stroke-width="1px"></line><line x1="30.78125" y1="171.81818181818184" x2="25.78125" y2="171.81818181818184" style="visibility: inherit;" fill="rgb(0, 0, 0)" stroke="rgb(204, 204, 204)" stroke-width="1px"></line><line x1="30.78125" y1="137.45454545454547" x2="25.78125" y2="137.45454545454547" style="visibility: inherit;" fill="rgb(0, 0, 0)" stroke="rgb(204, 204, 204)" stroke-width="1px"></line><line x1="30.78125" y1="103.09090909090908" x2="25.78125" y2="103.09090909090908" style="visibility: inherit;" fill="rgb(0, 0, 0)" stroke="rgb(204, 204, 204)" stroke-width="1px"></line><line x1="30.78125" y1="68.7272727272727" x2="25.78125" y2="68.7272727272727" style="visibility: inherit;" fill="rgb(0, 0, 0)" stroke="rgb(204, 204, 204)" stroke-width="1px"></line><line x1="30.78125" y1="34.363636363636374" x2="25.78125" y2="34.363636363636374" style="visibility: inherit;" fill="rgb(0, 0, 0)" stroke="rgb(204, 204, 204)" stroke-width="1px"></line><line x1="30.78125" y1="0" x2="25.78125" y2="0" style="visibility: inherit;" fill="rgb(0, 0, 0)" stroke="rgb(204, 204, 204)" stroke-width="1px"></line></g><g transform="translate(20.78125, 0)"><text x="0" y="378" dx="0em" dy="0.3em" style="text-anchor: end; visibility: hidden; font-family: Roboto, sans-serif; font-size: 12px; font-weight: 200;" fill="rgb(50, 49, 63)" stroke="none" stroke-width="1px">-5</text><text x="0" y="343.6363636363636" dx="0em" dy="0.3em" style="text-anchor: end; visibility: inherit; font-family: Roboto, sans-serif; font-size: 12px; font-weight: 200;" fill="rgb(50, 49, 63)" stroke="none" stroke-width="1px">0</text><text x="0" y="309.27272727272725" dx="0em" dy="0.3em" style="text-anchor: end; visibility: inherit; font-family: Roboto, sans-serif; font-size: 12px; font-weight: 200;" fill="rgb(50, 49, 63)" stroke="none" stroke-width="1px">5</text><text x="0" y="274.90909090909093" dx="0em" dy="0.3em" style="text-anchor: end; visibility: inherit; font-family: Roboto, sans-serif; font-size: 12px; font-weight: 200;" fill="rgb(50, 49, 63)" stroke="none" stroke-width="1px">10</text><text x="0" y="240.54545454545453" dx="0em" dy="0.3em" style="text-anchor: end; visibility: inherit; font-family: Roboto, sans-serif; font-size: 12px; font-weight: 200;" fill="rgb(50, 49, 63)" stroke="none" stroke-width="1px">15</text><text x="0" y="206.18181818181816" dx="0em" dy="0.3em" style="text-anchor: end; visibility: inherit; font-family: Roboto, sans-serif; font-size: 12px; font-weight: 200;" fill="rgb(50, 49, 63)" stroke="none" stroke-width="1px">20</text><text x="0" y="171.81818181818184" dx="0em" dy="0.3em" style="text-anchor: end; visibility: inherit; font-family: Roboto, sans-serif; font-size: 12px; font-weight: 200;" fill="rgb(50, 49, 63)" stroke="none" stroke-width="1px">25</text><text x="0" y="137.45454545454547" dx="0em" dy="0.3em" style="text-anchor: end; visibility: inherit; font-family: Roboto, sans-serif; font-size: 12px; font-weight: 200;" fill="rgb(50, 49, 63)" stroke="none" stroke-width="1px">30</text><text x="0" y="103.09090909090908" dx="0em" dy="0.3em" style="text-anchor: end; visibility: inherit; font-family: Roboto, sans-serif; font-size: 12px; font-weight: 200;" fill="rgb(50, 49, 63)" stroke="none" stroke-width="1px">35</text><text x="0" y="68.7272727272727" dx="0em" dy="0.3em" style="text-anchor: end; visibility: inherit; font-family: Roboto, sans-serif; font-size: 12px; font-weight: 200;" fill="rgb(50, 49, 63)" stroke="none" stroke-width="1px">40</text><text x="0" y="34.363636363636374" dx="0em" dy="0.3em" style="text-anchor: end; visibility: inherit; font-family: Roboto, sans-serif; font-size: 12px; font-weight: 200;" fill="rgb(50, 49, 63)" stroke="none" stroke-width="1px">45</text><text x="0" y="0" dx="0em" dy="0.3em" style="text-anchor: end; visibility: hidden; font-family: Roboto, sans-serif; font-size: 12px; font-weight: 200;" fill="rgb(50, 49, 63)" stroke="none" stroke-width="1px">50</text></g><line x1="30.78125" y1="0" x2="30.78125" y2="378" fill="rgb(0, 0, 0)" stroke="rgb(204, 204, 204)" stroke-width="1px"></line></g></g><g transform="translate(30, 0)" clip-path="url(#clip_0)"><clipPath id="clip_0"><rect width="1467" height="378"></rect></clipPath><g><g><g><line x1="0" y1="0" x2="0" y2="378" fill="rgb(0, 0, 0)" stroke="rgb(60, 60, 60)" stroke-width="1px" opacity="0.25"></line><line x1="122.26822916666666" y1="0" x2="122.26822916666666" y2="378" fill="rgb(0, 0, 0)" stroke="rgb(60, 60, 60)" stroke-width="1px" opacity="0.25"></line><line x1="244.53645833333331" y1="0" x2="244.53645833333331" y2="378" fill="rgb(0, 0, 0)" stroke="rgb(60, 60, 60)" stroke-width="1px" opacity="0.25"></line><line x1="366.8046875" y1="0" x2="366.8046875" y2="378" fill="rgb(0, 0, 0)" stroke="rgb(60, 60, 60)" stroke-width="1px" opacity="0.25"></line><line x1="489.07291666666663" y1="0" x2="489.07291666666663" y2="378" fill="rgb(0, 0, 0)" stroke="rgb(60, 60, 60)" stroke-width="1px" opacity="0.25"></line><line x1="611.3411458333334" y1="0" x2="611.3411458333334" y2="378" fill="rgb(0, 0, 0)" stroke="rgb(60, 60, 60)" stroke-width="1px" opacity="0.25"></line><line x1="733.609375" y1="0" x2="733.609375" y2="378" fill="rgb(0, 0, 0)" stroke="rgb(60, 60, 60)" stroke-width="1px" opacity="0.25"></line><line x1="855.8776041666667" y1="0" x2="855.8776041666667" y2="378" fill="rgb(0, 0, 0)" stroke="rgb(60, 60, 60)" stroke-width="1px" opacity="0.25"></line><line x1="978.1458333333333" y1="0" x2="978.1458333333333" y2="378" fill="rgb(0, 0, 0)" stroke="rgb(60, 60, 60)" stroke-width="1px" opacity="0.25"></line><line x1="1100.4140625" y1="0" x2="1100.4140625" y2="378" fill="rgb(0, 0, 0)" stroke="rgb(60, 60, 60)" stroke-width="1px" opacity="0.25"></line><line x1="1222.6822916666667" y1="0" x2="1222.6822916666667" y2="378" fill="rgb(0, 0, 0)" stroke="rgb(60, 60, 60)" stroke-width="1px" opacity="0.25"></line><line x1="1344.9505208333333" y1="0" x2="1344.9505208333333" y2="378" fill="rgb(0, 0, 0)" stroke="rgb(60, 60, 60)" stroke-width="1px" opacity="0.25"></line><line x1="1467.21875" y1="0" x2="1467.21875" y2="378" fill="rgb(0, 0, 0)" stroke="rgb(60, 60, 60)" stroke-width="1px" opacity="0.25"></line></g><g><line x1="0" y1="378" x2="1467.21875" y2="378" fill="rgb(0, 0, 0)" stroke="rgb(60, 60, 60)" stroke-width="1px" opacity="0.25"></line><line x1="0" y1="343.6363636363636" x2="1467.21875" y2="343.6363636363636" fill="rgb(0, 0, 0)" stroke="rgb(60, 60, 60)" stroke-width="1px" opacity="0.25"></line><line x1="0" y1="309.27272727272725" x2="1467.21875" y2="309.27272727272725" fill="rgb(0, 0, 0)" stroke="rgb(60, 60, 60)" stroke-width="1px" opacity="0.25"></line><line x1="0" y1="274.90909090909093" x2="1467.21875" y2="274.90909090909093" fill="rgb(0, 0, 0)" stroke="rgb(60, 60, 60)" stroke-width="1px" opacity="0.25"></line><line x1="0" y1="240.54545454545453" x2="1467.21875" y2="240.54545454545453" fill="rgb(0, 0, 0)" stroke="rgb(60, 60, 60)" stroke-width="1px" opacity="0.25"></line><line x1="0" y1="206.18181818181816" x2="1467.21875" y2="206.18181818181816" fill="rgb(0, 0, 0)" stroke="rgb(60, 60, 60)" stroke-width="1px" opacity="0.25"></line><line x1="0" y1="171.81818181818184" x2="1467.21875" y2="171.81818181818184" fill="rgb(0, 0, 0)" stroke="rgb(60, 60, 60)" stroke-width="1px" opacity="0.25"></line><line x1="0" y1="137.45454545454547" x2="1467.21875" y2="137.45454545454547" fill="rgb(0, 0, 0)" stroke="rgb(60, 60, 60)" stroke-width="1px" opacity="0.25"></line><line x1="0" y1="103.09090909090908" x2="1467.21875" y2="103.09090909090908" fill="rgb(0, 0, 0)" stroke="rgb(60, 60, 60)" stroke-width="1px" opacity="0.25"></line><line x1="0" y1="68.7272727272727" x2="1467.21875" y2="68.7272727272727" fill="rgb(0, 0, 0)" stroke="rgb(60, 60, 60)" stroke-width="1px" opacity="0.25"></line><line x1="0" y1="34.363636363636374" x2="1467.21875" y2="34.363636363636374" fill="rgb(0, 0, 0)" stroke="rgb(60, 60, 60)" stroke-width="1px" opacity="0.25"></line><line x1="0" y1="0" x2="1467.21875" y2="0" fill="rgb(0, 0, 0)" stroke="rgb(60, 60, 60)" stroke-width="1px" opacity="0.25"></line></g></g></g><g><g><line x1="0" y1="343.6363636363636" x2="1467.21875" y2="343.6363636363636" fill="rgb(0, 0, 0)" stroke="rgb(153, 153, 153)" stroke-width="1.5px"></line></g></g><g><g><line x1="122.26822916666666" y1="0" x2="122.26822916666666" y2="378" fill="rgb(0, 0, 0)" stroke="rgb(153, 153, 153)" stroke-width="1.5px"></line></g></g><g><g><g><g><g><path stroke="rgb(238, 51, 119)" stroke-width="2px" d="M128.13710416666666,323.0181818181818L133.02783333333335,301.5409090909091L137.9185625,284.44675324675325L142.80929166666667,276.9052139037433L147.70002083333333,270.07767333291275L152.59074999999999,257.6866712235133L157.48147916666667,250.63271903634305L162.37220833333333,246.52888457984275L167.2629375,244.11114734522917L172.15366666666665,242.67619360880147L177.04439583333334,241.82079462111832L181.935125,235.7993694407007L186.82585416666666,232.19491399545396L191.71658333333332,210.77652769424822L196.6073125,197.93624294382525L201.49804166666667,190.23593706173733L206.38877083333333,185.6171440660452L211.27949999999998,182.84636867616223L216.17022916666667,194.93037573825566L221.06095833333333,202.18030869380723L225.9516875,206.53009881923379L230.84241666666665,209.13991182416189L235.73314583333334,210.70577764243095L240.623875,214.39439315443462L245.51460416666666,216.6075512756421L250.40533333333332,217.93544212143354L255.29606249999998,218.73217517921776L260.1867916666667,230.20658488117212L265.0775208333333,237.09122619266702L269.96825,235.7238263223947L274.85897916666664,229.40520404621634L279.74970833333333,225.6140312169123L284.6404375,223.3393277124349L289.53116666666665,221.97450567926626L294.42189583333334,237.65015822248986L299.31262499999997,241.55736770106728L304.20335416666666,243.90169336242127L309.09408333333334,245.30828874994845L313.9848125,246.15224597912206L318.87554166666666,246.65862031542287L323.76627083333335,246.96244491677015L328.657,247.14473967742254L333.54772916666667,247.25411653375784L338.4384583333333,230.82519719013575L343.32918750000005,220.96784558578412L348.2199166666667,215.05343462382888L353.1106458333333,211.50478804689183L358.001375,209.37560010081455L362.8921041666666,216.34536006058264L367.7828333333333,220.52721603638338L372.6735625,223.03632962184219L377.5642916666667,224.54179777310966L382.4550208333333,225.44507866386738L387.34575,228.7361381074148L392.23647916666664,230.71077377354104L397.12720833333333,231.89555517321597L402.0179375,232.60642401302067L406.90866666666665,233.03294531690335L411.79939583333334,241.53613082650634L416.69012499999997,249.38713304135874L421.58085416666665,245.85046164299695L426.47158333333334,243.72845880397995L431.3623125,242.4552571005698L436.25304166666666,227.94588153306907L441.14377083333335,219.2402561925687L446.0345,214.0168809882685L450.92522916666667,210.8828558656884L455.8159583333333,209.00244079214028L460.7066875,216.1214644752842L465.5974166666667,228.6401514124432L470.4881458333333,236.15136357473864L475.378875,240.65809087211593L480.2696041666666,226.8675817959968L485.1603333333333,218.5932763503254L490.0510625,213.6286930829225L494.94179166666663,210.64994312248078L499.8325208333333,208.86269314621572L504.72324999999995,213.28852497863855L509.61397916666664,215.9440240780922L514.5047083333334,217.5373235377644L519.3954375,218.49330321356777L524.2861666666666,219.06689101904973L529.1768958333333,222.16013461142984L534.067625,224.01608076685793L538.9583541666667,225.12964846011477L543.8490833333333,225.79778907606885L548.7398125,226.19867344564128L553.6305416666667,226.43920406738476L558.5212708333333,226.5835224404308L563.412,226.67011346425852L568.3027291666666,226.7220680785551L573.1934583333333,232.2514226653149L578.0841875,235.5690354173707L582.9749166666667,237.55960306860428L587.8656458333334,238.75394365934437L592.756375,239.4705480137884L597.6471041666666,237.15141971736398L602.5378333333333,235.75994273950926L607.4285625,234.9250565527965L612.3192916666667,234.42412484076877L617.2100208333334,234.12356581355218L622.10075,233.94323039722224L626.9914791666666,236.58412005651516L631.8822083333333,240.9177447611818L636.7729375,243.5179195839818L641.6636666666667,220.33620629584365L646.5543958333333,206.42717832296074L651.445125,198.08176153923097L656.3358541666668,193.07451146899314L661.2265833333333,201.06652506321407L666.1173125,205.86173321974667L671.0080416666666,216.98613084093887L675.8987708333333,209.9153148681997L680.7895000000001,205.67282528455618L685.6802291666667,203.12733153437006L690.5709583333334,201.60003528425838L695.4616874999999,200.68365753419138L700.3524166666666,200.1338308841512L705.2431458333334,210.8002985304907L710.133875,225.44745184556717L715.0246041666667,234.235743834613L719.9153333333333,239.50871902804053L724.8060624999999,245.42159505318799L729.6967916666667,248.96932066827642L734.5875208333334,251.0979560373295L739.47825,252.37513725876133L744.3689791666666,253.14144599162043L749.2597083333334,231.6085039586086L754.1504375000001,218.68873873880156L759.0411666666666,210.93687960691724L763.9318958333334,206.28576412778673L768.822625,203.4950948403084L773.7133541666667,218.31523872236684L778.6040833333333,221.7091432334201L783.4948125000001,223.74548594005202L788.3855416666667,224.96729156403123L793.2762708333332,225.70037493841875L798.167,223.39113405396031L803.0577291666667,222.0055895232853L807.9484583333333,221.17426280488027L812.8391875000001,220.6754667738372L817.7299166666667,220.37618915521142L822.6206458333334,231.1929862203996L827.5113749999999,240.4321553686034L832.4021041666667,221.2338386757075L837.2928333333333,209.71484865996996L842.1835624999999,202.80345465052744L847.0742916666667,198.65661824486187L851.9650208333334,193.41942549237166L856.85575,190.27710984087756L861.7464791666667,188.3917204499811L866.6372083333333,187.2604868154432L871.5279375,186.58174663472047L876.4186666666667,205.4181388899232L881.3093958333334,216.71997424304485L886.200125,228.99925727309963L891.0908541666666,236.36682709113254L895.9815833333333,240.78736898195223L900.8723125,243.43969411644406L905.7630416666666,223.0383619244119L910.6537708333334,210.7975626091926L915.5445,203.45308302006103L920.4352291666667,199.04639526658207L925.3259583333333,196.40238261449468L930.2166875,192.06688411415132L935.1074166666666,189.46558501394534L939.9981458333334,187.90480555382175L944.888875,186.9683378777476L949.7796041666667,186.4064572721031L954.6703333333332,205.31296527235278L959.5610625,211.15868825432074L964.4517916666666,214.66612204350153L969.3425208333333,216.77058231701005L974.23325,218.0332584811151L979.1239791666667,218.79086417957816L984.0147083333333,221.9945185077469L988.9054375000001,196.425802013739L993.7961666666666,181.08457211733432L998.6868958333333,171.87983417949152L1003.5776250000001,166.35699141678583L1008.4683541666667,163.0432857591624L1013.3590833333333,183.04778963731562L1018.2498125,197.79958287329848L1023.1405416666668,206.65065881488817L1028.0312708333333,220.20857710711473L1032.922,228.34332808245065L1037.8127291666667,233.22417866765218L1042.7034583333334,236.15268901877312L1047.5941874999999,221.41524977490025L1052.4849166666668,212.5727862285765L1057.3756458333332,207.26730810078226L1062.266375,204.08402122410575L1067.1571041666668,202.1740490980998L1072.0478333333333,203.77715673158716L1076.9385625,204.73902131167955L1081.8292916666667,205.31614005973503L1086.7200208333334,219.40786585402284L1091.61075,227.86290133059552L1096.5014791666665,224.6886498892664L1101.3922083333334,222.78409902446893L1106.2829375000001,221.64136850559046L1111.1736666666666,220.9557301942634L1116.0643958333335,217.7952562983762L1120.955125,215.8989719608439L1125.8458541666666,214.76120135832454L1130.7365833333333,214.0785389968129L1135.6273125,213.6689415799059L1140.5180416666667,229.91772858430718L1145.4087708333332,228.67063715058435L1150.2995,227.92238229035058L1155.1902291666668,227.47342937421035L1160.0809583333332,227.2040576245262L1164.9716875000001,227.04243457471574L1169.8624166666666,232.44364256301128L1174.7531458333333,235.68436735598854L1179.643875,237.62880223177496L1184.5346041666667,238.7954631572468L1189.4253333333334,239.4954597125299L1194.3160624999998,239.91545764569977L1199.2067916666667,240.1674564056017L1204.0975208333334,240.3186556615428L1208.9882499999999,240.4093752151075L1213.8789791666668,234.9656251290645L1218.7697083333333,231.69937507743873L1223.6604375,229.73962504646323L1228.5511666666666,228.56377502787797L1233.4418958333333,238.85462865309037L1238.332625,239.53095901003607L1243.2233541666667,226.1913026787489L1248.1140833333334,218.1875088799766L1253.0048125,213.38523260071327L1257.8955416666665,210.50386683315523L1262.7862708333334,219.77141100898405L1267.677,222.58284660539042L1272.5677291666666,224.26970796323425L1277.4584583333333,225.28182477794053L1282.3491875,225.8890948667643L1287.2399166666667,239.99891146551315L1292.1306458333333,248.4648014247624L1297.021375,253.54433540031198L1301.9121041666667,256.5920557856417L1306.8028333333334,239.17705165320322L1311.6935625,96.77168553737646L1316.5842916666666,11.32846586788045L1321.4750208333332,-39.93746593381722L1331.2564791666666,-89.15276046344687L1336.1472083333333,23.48288917647731L1341.0379375,102.06064259679549L1345.9286666666667,138.21093101262272L1350.8193958333334,159.9011040621191L1355.710125,172.91520789181692L1360.6008541666667,180.7236701896356L1365.4915833333332,185.40874756832682L1370.3823125000001,210.2125212682688L1375.2730416666666,208.60024003368855L1380.1637708333333,207.63287129294045L1385.0545,187.80881368485515L1389.9452291666666,175.91437912000399L1394.8359583333333,168.77771838109328L1399.7266875,164.49572193774688L1404.6174166666667,161.92652407173904L1409.5081458333334,160.38500535213433L1414.3988749999999,159.46009412037154" style="fill: none;" fill="none"></path></g><g><path stroke="rgb(51, 187, 238)" stroke-width="2px" d="M128.13710416666666,323.0181818181818L133.02783333333335,301.5409090909091L137.9185625,287.95324675324673L142.80929166666667,281.95868983957223L147.70002083333333,266.97755346665826L152.59074999999999,258.77091592617904L157.48147916666667,237.12945441137387L162.37220833333333,224.53892741361287L167.2629375,217.121331443659L172.15366666666665,212.7189063579165L177.04439583333334,210.09454999987125L181.935125,216.79130738310306L186.82585416666666,220.80002008686398L191.71658333333332,225.9531411614643L196.6073125,229.04242814232092L201.49804166666667,230.895070445239L206.38877083333333,141.2709628087543L211.27949999999998,87.50620824820005L216.17022916666667,55.25085034636043L221.06095833333333,35.898893578706435L225.9516875,24.288172352496325L230.84241666666665,102.54484253003345L235.73314583333334,149.49818541366864L240.623875,177.66995382769204L245.51460416666666,194.57292944317084L250.40533333333332,204.7146840567919L255.29606249999998,199.80335086191837L260.1867916666667,196.85655416208564L265.0775208333333,195.08847730033736L269.96825,194.02763160022252L274.85897916666664,193.39112433024988L279.74970833333333,198.5074022780644L284.6404375,185.08262254396084L289.53116666666665,177.0277551137769L294.42189583333334,172.1948348033666L299.31262499999997,169.29508267029252L304.20335416666666,167.55523140959L309.09408333333334,199.5004116916453L313.9848125,218.66751978496265L318.87554166666666,227.41869370085752L323.76627083333335,232.66939804290763L328.657,235.81982064544252L333.54772916666667,232.21189238622378L338.4384583333333,230.04713543135918L343.32918750000005,228.7482812586805L348.2199166666667,227.96896875515972L353.1106458333333,227.5013812530783L358.001375,227.22082875184068L362.8921041666666,227.0524972511021L367.7828333333333,226.95149835066042L372.6735625,226.89089901039603L377.5642916666667,229.60363031533637L382.4550208333333,231.23126909829557L387.34575,232.20785236806927L392.23647916666664,235.5428932390255L397.12720833333333,237.5439177615979L402.0179375,238.74453247514083L406.90866666666665,239.46490130326637L411.79939583333334,239.89712260014167L416.69012499999997,242.9055462873579L421.58085416666665,247.45969140877853L426.47158333333334,241.94490575435796L431.3623125,235.88694345261473L436.25304166666666,232.2521660715688L441.14377083333335,230.07129964294126L446.0345,228.76277978576474L450.92522916666667,227.97766787145883L455.8159583333333,227.50660072287528L460.7066875,227.22396043372518L465.5974166666667,227.0543762602351L470.4881458333333,237.9489893925047L475.378875,233.4893936355028L480.2696041666666,230.81363618130172L485.1603333333333,223.70999989059922L490.0510625,219.4478181161777L494.94179166666663,216.8905090515248L499.8325208333333,212.60703270364218L504.72324999999995,210.03694689491257L509.61397916666664,208.49489540967483L514.5047083333334,207.56966451853216L519.3954375,207.0145259838466L524.2861666666666,220.4268974084898L529.1768958333333,228.47432026327567L534.067625,233.30277397614725L538.9583541666667,236.19984620387018L543.8490833333333,122.47627135868576L548.7398125,54.242126451575075L553.6305416666667,13.301639507308684L558.5212708333333,-11.26265265925121L563.412,-26.00122795918703L568.3027291666666,75.11926322448775L573.1934583333333,135.7915579346927L578.0841875,172.19493476081556L582.9749166666667,196.78605176558028L587.8656458333334,211.5407219684391L592.756375,220.39352409015436L597.6471041666666,225.70520536318352L602.5378333333333,228.892214127001L607.4285625,228.05532847620063L612.3192916666667,227.55319708572037L617.2100208333334,227.25191825143222L622.10075,227.0711509508593L626.9914791666666,229.7117814796065L631.8822083333333,231.2961597968548L636.7729375,232.24678678720377L641.6636666666667,232.8171629814132L646.5543958333333,233.15938869793882L651.445125,233.3647241278542L656.3358541666668,118.02610720398525L661.2265833333333,48.82293704966386L666.1173125,7.301034957071058L671.0080416666666,-17.61210629848468L675.8987708333333,-32.55999105181807L680.7895000000001,82.1803690052728L685.6802291666667,151.02458503952732L690.5709583333334,186.8329328418982L695.4616874999999,208.3179415233207L700.3524166666666,218.45985582308333L705.2431458333334,224.54500440294095L710.133875,222.69791173267362L715.0246041666667,221.58965613051328L719.9153333333333,220.92470276921705L724.8060624999999,220.52573075243933L729.6967916666667,223.0354384514636L734.5875208333334,224.54126307087813L739.47825,225.44475784252685L744.3689791666666,225.98685470551612L749.2597083333334,223.56302191421875L754.1504375000001,222.10872223944034L759.0411666666666,221.2361424345733L763.9318958333334,220.71259455165307L768.822625,220.39846582190097L773.7133541666667,222.95907949314054L778.6040833333333,224.49544769588434L783.4948125000001,225.4172686175306L788.3855416666667,231.4685429887002L793.2762708333332,237.84839852049282L798.167,241.67631183956843L803.0577291666667,246.7221507401047L807.9484583333333,249.74965408042644L812.8391875000001,237.82070153916496L817.7299166666667,230.66333001440805L822.6206458333334,226.36890709955392L827.5113749999999,223.79225335064146L832.4021041666667,222.24626110129395L837.2928333333333,224.06775666077635L842.1835624999999,227.9097449055567L847.0742916666667,230.21493785242492L851.9650208333334,237.09623543872766L856.85575,241.22501399050932L861.7464791666667,125.49137203066925L866.6372083333333,56.051186854765184L871.5279375,14.387075749222749L876.4186666666667,-10.611390914102687L881.3093958333334,-25.610470912098L886.200125,42.36462654365027L891.0908541666666,83.14968501709924L895.9815833333333,107.62072010116863L900.8723125,122.30334115161025L905.7630416666666,147.60745923642068L910.6537708333334,162.78993008730694L915.5445,171.89941259783876L920.4352291666667,177.36510210415778L925.3259583333333,197.13906126249464L930.2166875,209.0034367574968L935.1074166666666,207.87478932722536L939.9981458333334,196.20123723269882L944.888875,189.1971059759829L949.7796041666667,184.99462722195338L954.6703333333332,182.47313996953562L959.5610625,180.96024761808502L964.4517916666666,188.29978493448738L969.3425208333333,192.7035073243288L974.23325,203.5930134855064L979.1239791666667,210.12671718221293L984.0147083333333,214.04693940023685L988.9054375000001,216.3990727310512L993.7961666666666,217.8103527295398L998.6868958333333,226.9043934559057L1003.5776250000001,232.36081789172525L1008.4683541666667,232.88558164412603L1013.3590833333333,233.20043989556655L1018.2498125,233.38935484643082L1023.1405416666668,233.5027038169494L1028.0312708333333,228.07253138107873L1032.922,224.81442791955635L1037.8127291666667,222.8595658426429L1042.7034583333334,216.188466778313L1047.5941874999999,212.18580733971507L1052.4849166666668,209.7842116765563L1057.3756458333332,208.34325427866105L1062.266375,207.47867983992393L1067.1571041666668,209.70902608577254L1072.0478333333333,211.0472338332817L1076.9385625,211.8501584817872L1081.8292916666667,212.33191327089048L1086.7200208333334,207.12278432617063L1091.61075,203.99730695933874L1096.5014791666665,202.12202053923963L1101.3922083333334,200.99684868718012L1106.2829375000001,200.32174557594442L1111.1736666666666,202.66577461829394L1116.0643958333335,91.35946477097634L1120.955125,24.575678862585804L1125.8458541666666,-15.494592682448552L1135.6273125,-53.96205336568153L1140.5180416666667,63.840949798772925L1145.4087708333332,137.27184260653644" style="fill: none;" fill="none"></path></g></g></g></g><g opacity="0.2"><g><g><g><path stroke="rgb(238, 51, 119)" stroke-width="2px" d="M128.13710416666666,323.0181818181818L133.02783333333335,288.6545454545455L137.9185625,268.03636363636366L142.80929166666667,268.03636363636366L147.70002083333333,261.1636363636364L152.59074999999999,240.54545454545453L157.48147916666667,240.54545454545453L162.37220833333333,240.54545454545453L167.2629375,240.54545454545453L172.15366666666665,240.54545454545453L177.04439583333334,240.54545454545453L181.935125,226.79999999999998L186.82585416666666,226.79999999999998L191.71658333333332,178.69090909090912L196.6073125,178.69090909090912L201.49804166666667,178.69090909090912L206.38877083333333,178.69090909090912L211.27949999999998,178.69090909090912L216.17022916666667,213.0545454545455L221.06095833333333,213.0545454545455L225.9516875,213.0545454545455L230.84241666666665,213.0545454545455L235.73314583333334,213.0545454545455L240.623875,219.9272727272727L245.51460416666666,219.9272727272727L250.40533333333332,219.9272727272727L255.29606249999998,219.9272727272727L260.1867916666667,247.4181818181818L265.0775208333333,247.4181818181818L269.96825,233.67272727272726L274.85897916666664,219.9272727272727L279.74970833333333,219.9272727272727L284.6404375,219.9272727272727L289.53116666666665,219.9272727272727L294.42189583333334,261.1636363636364L299.31262499999997,247.4181818181818L304.20335416666666,247.4181818181818L309.09408333333334,247.4181818181818L313.9848125,247.4181818181818L318.87554166666666,247.4181818181818L323.76627083333335,247.4181818181818L328.657,247.4181818181818L333.54772916666667,247.4181818181818L338.4384583333333,206.18181818181816L343.32918750000005,206.18181818181816L348.2199166666667,206.18181818181816L353.1106458333333,206.18181818181816L358.001375,206.18181818181816L362.8921041666666,226.79999999999998L367.7828333333333,226.79999999999998L372.6735625,226.79999999999998L377.5642916666667,226.79999999999998L382.4550208333333,226.79999999999998L387.34575,233.67272727272726L392.23647916666664,233.67272727272726L397.12720833333333,233.67272727272726L402.0179375,233.67272727272726L406.90866666666665,233.67272727272726L411.79939583333334,254.29090909090908L416.69012499999997,261.1636363636364L421.58085416666665,240.54545454545453L426.47158333333334,240.54545454545453L431.3623125,240.54545454545453L436.25304166666666,206.18181818181816L441.14377083333335,206.18181818181816L446.0345,206.18181818181816L450.92522916666667,206.18181818181816L455.8159583333333,206.18181818181816L460.7066875,226.79999999999998L465.5974166666667,247.4181818181818L470.4881458333333,247.4181818181818L475.378875,247.4181818181818L480.2696041666666,206.18181818181816L485.1603333333333,206.18181818181816L490.0510625,206.18181818181816L494.94179166666663,206.18181818181816L499.8325208333333,206.18181818181816L504.72324999999995,219.9272727272727L509.61397916666664,219.9272727272727L514.5047083333334,219.9272727272727L519.3954375,219.9272727272727L524.2861666666666,219.9272727272727L529.1768958333333,226.79999999999998L534.067625,226.79999999999998L538.9583541666667,226.79999999999998L543.8490833333333,226.79999999999998L548.7398125,226.79999999999998L553.6305416666667,226.79999999999998L558.5212708333333,226.79999999999998L563.412,226.79999999999998L568.3027291666666,226.79999999999998L573.1934583333333,240.54545454545453L578.0841875,240.54545454545453L582.9749166666667,240.54545454545453L587.8656458333334,240.54545454545453L592.756375,240.54545454545453L597.6471041666666,233.67272727272726L602.5378333333333,233.67272727272726L607.4285625,233.67272727272726L612.3192916666667,233.67272727272726L617.2100208333334,233.67272727272726L622.10075,233.67272727272726L626.9914791666666,240.54545454545453L631.8822083333333,247.4181818181818L636.7729375,247.4181818181818L641.6636666666667,185.5636363636364L646.5543958333333,185.5636363636364L651.445125,185.5636363636364L656.3358541666668,185.5636363636364L661.2265833333333,213.0545454545455L666.1173125,213.0545454545455L671.0080416666666,233.67272727272726L675.8987708333333,199.30909090909094L680.7895000000001,199.30909090909094L685.6802291666667,199.30909090909094L690.5709583333334,199.30909090909094L695.4616874999999,199.30909090909094L700.3524166666666,199.30909090909094L705.2431458333334,226.79999999999998L710.133875,247.4181818181818L715.0246041666667,247.4181818181818L719.9153333333333,247.4181818181818L724.8060624999999,254.29090909090908L729.6967916666667,254.29090909090908L734.5875208333334,254.29090909090908L739.47825,254.29090909090908L744.3689791666666,254.29090909090908L749.2597083333334,199.30909090909094L754.1504375000001,199.30909090909094L759.0411666666666,199.30909090909094L763.9318958333334,199.30909090909094L768.822625,199.30909090909094L773.7133541666667,240.54545454545453L778.6040833333333,226.79999999999998L783.4948125000001,226.79999999999998L788.3855416666667,226.79999999999998L793.2762708333332,226.79999999999998L798.167,219.9272727272727L803.0577291666667,219.9272727272727L807.9484583333333,219.9272727272727L812.8391875000001,219.9272727272727L817.7299166666667,219.9272727272727L822.6206458333334,247.4181818181818L827.5113749999999,254.29090909090908L832.4021041666667,192.4363636363636L837.2928333333333,192.4363636363636L842.1835624999999,192.4363636363636L847.0742916666667,192.4363636363636L851.9650208333334,185.5636363636364L856.85575,185.5636363636364L861.7464791666667,185.5636363636364L866.6372083333333,185.5636363636364L871.5279375,185.5636363636364L876.4186666666667,233.67272727272726L881.3093958333334,233.67272727272726L886.200125,247.4181818181818L891.0908541666666,247.4181818181818L895.9815833333333,247.4181818181818L900.8723125,247.4181818181818L905.7630416666666,192.4363636363636L910.6537708333334,192.4363636363636L915.5445,192.4363636363636L920.4352291666667,192.4363636363636L925.3259583333333,192.4363636363636L930.2166875,185.5636363636364L935.1074166666666,185.5636363636364L939.9981458333334,185.5636363636364L944.888875,185.5636363636364L949.7796041666667,185.5636363636364L954.6703333333332,233.67272727272726L959.5610625,219.9272727272727L964.4517916666666,219.9272727272727L969.3425208333333,219.9272727272727L974.23325,219.9272727272727L979.1239791666667,219.9272727272727L984.0147083333333,226.79999999999998L988.9054375000001,158.0727272727273L993.7961666666666,158.0727272727273L998.6868958333333,158.0727272727273L1003.5776250000001,158.0727272727273L1008.4683541666667,158.0727272727273L1013.3590833333333,213.0545454545455L1018.2498125,219.9272727272727L1023.1405416666668,219.9272727272727L1028.0312708333333,240.54545454545453L1032.922,240.54545454545453L1037.8127291666667,240.54545454545453L1042.7034583333334,240.54545454545453L1047.5941874999999,199.30909090909094L1052.4849166666668,199.30909090909094L1057.3756458333332,199.30909090909094L1062.266375,199.30909090909094L1067.1571041666668,199.30909090909094L1072.0478333333333,206.18181818181816L1076.9385625,206.18181818181816L1081.8292916666667,206.18181818181816L1086.7200208333334,240.54545454545453L1091.61075,240.54545454545453L1096.5014791666665,219.9272727272727L1101.3922083333334,219.9272727272727L1106.2829375000001,219.9272727272727L1111.1736666666666,219.9272727272727L1116.0643958333335,213.0545454545455L1120.955125,213.0545454545455L1125.8458541666666,213.0545454545455L1130.7365833333333,213.0545454545455L1135.6273125,213.0545454545455L1140.5180416666667,254.29090909090908L1145.4087708333332,226.79999999999998L1150.2995,226.79999999999998L1155.1902291666668,226.79999999999998L1160.0809583333332,226.79999999999998L1164.9716875000001,226.79999999999998L1169.8624166666666,240.54545454545453L1174.7531458333333,240.54545454545453L1179.643875,240.54545454545453L1184.5346041666667,240.54545454545453L1189.4253333333334,240.54545454545453L1194.3160624999998,240.54545454545453L1199.2067916666667,240.54545454545453L1204.0975208333334,240.54545454545453L1208.9882499999999,240.54545454545453L1213.8789791666668,226.79999999999998L1218.7697083333333,226.79999999999998L1223.6604375,226.79999999999998L1228.5511666666666,226.79999999999998L1233.4418958333333,254.29090909090908L1238.332625,240.54545454545453L1243.2233541666667,206.18181818181816L1248.1140833333334,206.18181818181816L1253.0048125,206.18181818181816L1257.8955416666665,206.18181818181816L1262.7862708333334,233.67272727272726L1267.677,226.79999999999998L1272.5677291666666,226.79999999999998L1277.4584583333333,226.79999999999998L1282.3491875,226.79999999999998L1287.2399166666667,261.1636363636364L1292.1306458333333,261.1636363636364L1297.021375,261.1636363636364L1301.9121041666667,261.1636363636364L1306.8028333333334,213.0545454545455L1311.6935625,-116.83636363636363L1331.2564791666666,-116.83636363636363L1336.1472083333333,192.4363636363636L1341.0379375,219.9272727272727L1345.9286666666667,192.4363636363636L1350.8193958333334,192.4363636363636L1355.710125,192.4363636363636L1360.6008541666667,192.4363636363636L1365.4915833333332,192.4363636363636L1370.3823125000001,247.4181818181818L1375.2730416666666,206.18181818181816L1380.1637708333333,206.18181818181816L1385.0545,158.0727272727273L1389.9452291666666,158.0727272727273L1394.8359583333333,158.0727272727273L1399.7266875,158.0727272727273L1404.6174166666667,158.0727272727273L1409.5081458333334,158.0727272727273L1414.3988749999999,158.0727272727273" style="fill: none;" fill="none"></path></g><g><path stroke="rgb(51, 187, 238)" stroke-width="2px" d="M128.13710416666666,323.0181818181818L133.02783333333335,288.6545454545455L137.9185625,274.90909090909093L142.80929166666667,274.90909090909093L147.70002083333333,247.4181818181818L152.59074999999999,247.4181818181818L157.48147916666667,206.18181818181816L162.37220833333333,206.18181818181816L167.2629375,206.18181818181816L172.15366666666665,206.18181818181816L177.04439583333334,206.18181818181816L181.935125,226.79999999999998L186.82585416666666,226.79999999999998L191.71658333333332,233.67272727272726L196.6073125,233.67272727272726L201.49804166666667,233.67272727272726L206.38877083333333,6.872727272727275L211.27949999999998,6.872727272727275L216.17022916666667,6.872727272727275L221.06095833333333,6.872727272727275L225.9516875,6.872727272727275L230.84241666666665,219.9272727272727L235.73314583333334,219.9272727272727L240.623875,219.9272727272727L245.51460416666666,219.9272727272727L250.40533333333332,219.9272727272727L255.29606249999998,192.4363636363636L260.1867916666667,192.4363636363636L265.0775208333333,192.4363636363636L269.96825,192.4363636363636L274.85897916666664,192.4363636363636L279.74970833333333,206.18181818181816L284.6404375,164.94545454545457L289.53116666666665,164.94545454545457L294.42189583333334,164.94545454545457L299.31262499999997,164.94545454545457L304.20335416666666,164.94545454545457L309.09408333333334,247.4181818181818L313.9848125,247.4181818181818L318.87554166666666,240.54545454545453L323.76627083333335,240.54545454545453L328.657,240.54545454545453L333.54772916666667,226.79999999999998L338.4384583333333,226.79999999999998L343.32918750000005,226.79999999999998L348.2199166666667,226.79999999999998L353.1106458333333,226.79999999999998L358.001375,226.79999999999998L362.8921041666666,226.79999999999998L367.7828333333333,226.79999999999998L372.6735625,226.79999999999998L377.5642916666667,233.67272727272726L382.4550208333333,233.67272727272726L387.34575,233.67272727272726L392.23647916666664,240.54545454545453L397.12720833333333,240.54545454545453L402.0179375,240.54545454545453L406.90866666666665,240.54545454545453L411.79939583333334,240.54545454545453L416.69012499999997,247.4181818181818L421.58085416666665,254.29090909090908L426.47158333333334,233.67272727272726L431.3623125,226.79999999999998L436.25304166666666,226.79999999999998L441.14377083333335,226.79999999999998L446.0345,226.79999999999998L450.92522916666667,226.79999999999998L455.8159583333333,226.79999999999998L460.7066875,226.79999999999998L465.5974166666667,226.79999999999998L470.4881458333333,254.29090909090908L475.378875,226.79999999999998L480.2696041666666,226.79999999999998L485.1603333333333,213.0545454545455L490.0510625,213.0545454545455L494.94179166666663,213.0545454545455L499.8325208333333,206.18181818181816L504.72324999999995,206.18181818181816L509.61397916666664,206.18181818181816L514.5047083333334,206.18181818181816L519.3954375,206.18181818181816L524.2861666666666,240.54545454545453L529.1768958333333,240.54545454545453L534.067625,240.54545454545453L538.9583541666667,240.54545454545453L543.8490833333333,-48.10909090909088L563.412,-48.10909090909088L568.3027291666666,226.79999999999998L573.1934583333333,226.79999999999998L578.0841875,226.79999999999998L582.9749166666667,233.67272727272726L587.8656458333334,233.67272727272726L592.756375,233.67272727272726L597.6471041666666,233.67272727272726L602.5378333333333,233.67272727272726L607.4285625,226.79999999999998L612.3192916666667,226.79999999999998L617.2100208333334,226.79999999999998L622.10075,226.79999999999998L626.9914791666666,233.67272727272726L631.8822083333333,233.67272727272726L636.7729375,233.67272727272726L641.6636666666667,233.67272727272726L646.5543958333333,233.67272727272726L651.445125,233.67272727272726L656.3358541666668,-54.9818181818182L675.8987708333333,-54.9818181818182L680.7895000000001,254.29090909090908L685.6802291666667,254.29090909090908L690.5709583333334,240.54545454545453L695.4616874999999,240.54545454545453L700.3524166666666,233.67272727272726L705.2431458333334,233.67272727272726L710.133875,219.9272727272727L715.0246041666667,219.9272727272727L719.9153333333333,219.9272727272727L724.8060624999999,219.9272727272727L729.6967916666667,226.79999999999998L734.5875208333334,226.79999999999998L739.47825,226.79999999999998L744.3689791666666,226.79999999999998L749.2597083333334,219.9272727272727L754.1504375000001,219.9272727272727L759.0411666666666,219.9272727272727L763.9318958333334,219.9272727272727L768.822625,219.9272727272727L773.7133541666667,226.79999999999998L778.6040833333333,226.79999999999998L783.4948125000001,226.79999999999998L788.3855416666667,240.54545454545453L793.2762708333332,247.4181818181818L798.167,247.4181818181818L803.0577291666667,254.29090909090908L807.9484583333333,254.29090909090908L812.8391875000001,219.9272727272727L817.7299166666667,219.9272727272727L822.6206458333334,219.9272727272727L827.5113749999999,219.9272727272727L832.4021041666667,219.9272727272727L837.2928333333333,226.79999999999998L842.1835624999999,233.67272727272726L847.0742916666667,233.67272727272726L851.9650208333334,247.4181818181818L856.85575,247.4181818181818L861.7464791666667,-48.10909090909088L881.3093958333334,-48.10909090909088L886.200125,144.32727272727274L891.0908541666666,144.32727272727274L895.9815833333333,144.32727272727274L900.8723125,144.32727272727274L905.7630416666666,185.5636363636364L910.6537708333334,185.5636363636364L915.5445,185.5636363636364L920.4352291666667,185.5636363636364L925.3259583333333,226.79999999999998L930.2166875,226.79999999999998L935.1074166666666,206.18181818181816L939.9981458333334,178.69090909090912L944.888875,178.69090909090912L949.7796041666667,178.69090909090912L954.6703333333332,178.69090909090912L959.5610625,178.69090909090912L964.4517916666666,199.30909090909094L969.3425208333333,199.30909090909094L974.23325,219.9272727272727L979.1239791666667,219.9272727272727L984.0147083333333,219.9272727272727L988.9054375000001,219.9272727272727L993.7961666666666,219.9272727272727L998.6868958333333,240.54545454545453L1003.5776250000001,240.54545454545453L1008.4683541666667,233.67272727272726L1013.3590833333333,233.67272727272726L1018.2498125,233.67272727272726L1023.1405416666668,233.67272727272726L1028.0312708333333,219.9272727272727L1032.922,219.9272727272727L1037.8127291666667,219.9272727272727L1042.7034583333334,206.18181818181816L1047.5941874999999,206.18181818181816L1052.4849166666668,206.18181818181816L1057.3756458333332,206.18181818181816L1062.266375,206.18181818181816L1067.1571041666668,213.0545454545455L1072.0478333333333,213.0545454545455L1076.9385625,213.0545454545455L1081.8292916666667,213.0545454545455L1086.7200208333334,199.30909090909094L1091.61075,199.30909090909094L1096.5014791666665,199.30909090909094L1101.3922083333334,199.30909090909094L1106.2829375000001,199.30909090909094L1111.1736666666666,206.18181818181816L1116.0643958333335,-75.59999999999998L1135.6273125,-75.59999999999998L1140.5180416666667,240.54545454545453L1145.4087708333332,247.4181818181818" style="fill: none;" fill="none"></path></g></g></g></g></g></g><g transform="translate(30, 378)" clip-path="url(#clip_1)"><clipPath id="clip_1"><rect width="1467" height="22"></rect></clipPath><g><g><line x1="0" y1="0" x2="0" y2="5" style="visibility: inherit;" fill="rgb(0, 0, 0)" stroke="rgb(204, 204, 204)" stroke-width="1px"></line><line x1="122.26822916666666" y1="0" x2="122.26822916666666" y2="5" style="visibility: inherit;" fill="rgb(0, 0, 0)" stroke="rgb(204, 204, 204)" stroke-width="1px"></line><line x1="244.53645833333331" y1="0" x2="244.53645833333331" y2="5" style="visibility: inherit;" fill="rgb(0, 0, 0)" stroke="rgb(204, 204, 204)" stroke-width="1px"></line><line x1="366.8046875" y1="0" x2="366.8046875" y2="5" style="visibility: inherit;" fill="rgb(0, 0, 0)" stroke="rgb(204, 204, 204)" stroke-width="1px"></line><line x1="489.07291666666663" y1="0" x2="489.07291666666663" y2="5" style="visibility: inherit;" fill="rgb(0, 0, 0)" stroke="rgb(204, 204, 204)" stroke-width="1px"></line><line x1="611.3411458333334" y1="0" x2="611.3411458333334" y2="5" style="visibility: inherit;" fill="rgb(0, 0, 0)" stroke="rgb(204, 204, 204)" stroke-width="1px"></line><line x1="733.609375" y1="0" x2="733.609375" y2="5" style="visibility: inherit;" fill="rgb(0, 0, 0)" stroke="rgb(204, 204, 204)" stroke-width="1px"></line><line x1="855.8776041666667" y1="0" x2="855.8776041666667" y2="5" style="visibility: inherit;" fill="rgb(0, 0, 0)" stroke="rgb(204, 204, 204)" stroke-width="1px"></line><line x1="978.1458333333333" y1="0" x2="978.1458333333333" y2="5" style="visibility: inherit;" fill="rgb(0, 0, 0)" stroke="rgb(204, 204, 204)" stroke-width="1px"></line><line x1="1100.4140625" y1="0" x2="1100.4140625" y2="5" style="visibility: inherit;" fill="rgb(0, 0, 0)" stroke="rgb(204, 204, 204)" stroke-width="1px"></line><line x1="1222.6822916666667" y1="0" x2="1222.6822916666667" y2="5" style="visibility: inherit;" fill="rgb(0, 0, 0)" stroke="rgb(204, 204, 204)" stroke-width="1px"></line><line x1="1344.9505208333333" y1="0" x2="1344.9505208333333" y2="5" style="visibility: inherit;" fill="rgb(0, 0, 0)" stroke="rgb(204, 204, 204)" stroke-width="1px"></line><line x1="1467.21875" y1="0" x2="1467.21875" y2="5" style="visibility: inherit;" fill="rgb(0, 0, 0)" stroke="rgb(204, 204, 204)" stroke-width="1px"></line></g><g transform="translate(0, 8)"><text x="0" y="0" dx="0em" dy="0.95em" style="text-anchor: middle; visibility: hidden; font-family: Roboto, sans-serif; font-size: 12px; font-weight: 200;" fill="rgb(50, 49, 63)" stroke="none" stroke-width="1px">-100k</text><text x="122.26822916666666" y="0" dx="0em" dy="0.95em" style="text-anchor: middle; visibility: inherit; font-family: Roboto, sans-serif; font-size: 12px; font-weight: 200;" fill="rgb(50, 49, 63)" stroke="none" stroke-width="1px">0</text><text x="244.53645833333331" y="0" dx="0em" dy="0.95em" style="text-anchor: middle; visibility: inherit; font-family: Roboto, sans-serif; font-size: 12px; font-weight: 200;" fill="rgb(50, 49, 63)" stroke="none" stroke-width="1px">100k</text><text x="366.8046875" y="0" dx="0em" dy="0.95em" style="text-anchor: middle; visibility: inherit; font-family: Roboto, sans-serif; font-size: 12px; font-weight: 200;" fill="rgb(50, 49, 63)" stroke="none" stroke-width="1px">200k</text><text x="489.07291666666663" y="0" dx="0em" dy="0.95em" style="text-anchor: middle; visibility: inherit; font-family: Roboto, sans-serif; font-size: 12px; font-weight: 200;" fill="rgb(50, 49, 63)" stroke="none" stroke-width="1px">300k</text><text x="611.3411458333334" y="0" dx="0em" dy="0.95em" style="text-anchor: middle; visibility: inherit; font-family: Roboto, sans-serif; font-size: 12px; font-weight: 200;" fill="rgb(50, 49, 63)" stroke="none" stroke-width="1px">400k</text><text x="733.609375" y="0" dx="0em" dy="0.95em" style="text-anchor: middle; visibility: inherit; font-family: Roboto, sans-serif; font-size: 12px; font-weight: 200;" fill="rgb(50, 49, 63)" stroke="none" stroke-width="1px">500k</text><text x="855.8776041666667" y="0" dx="0em" dy="0.95em" style="text-anchor: middle; visibility: inherit; font-family: Roboto, sans-serif; font-size: 12px; font-weight: 200;" fill="rgb(50, 49, 63)" stroke="none" stroke-width="1px">600k</text><text x="978.1458333333333" y="0" dx="0em" dy="0.95em" style="text-anchor: middle; visibility: inherit; font-family: Roboto, sans-serif; font-size: 12px; font-weight: 200;" fill="rgb(50, 49, 63)" stroke="none" stroke-width="1px">700k</text><text x="1100.4140625" y="0" dx="0em" dy="0.95em" style="text-anchor: middle; visibility: inherit; font-family: Roboto, sans-serif; font-size: 12px; font-weight: 200;" fill="rgb(50, 49, 63)" stroke="none" stroke-width="1px">800k</text><text x="1222.6822916666667" y="0" dx="0em" dy="0.95em" style="text-anchor: middle; visibility: inherit; font-family: Roboto, sans-serif; font-size: 12px; font-weight: 200;" fill="rgb(50, 49, 63)" stroke="none" stroke-width="1px">900k</text><text x="1344.9505208333333" y="0" dx="0em" dy="0.95em" style="text-anchor: middle; visibility: inherit; font-family: Roboto, sans-serif; font-size: 12px; font-weight: 200;" fill="rgb(50, 49, 63)" stroke="none" stroke-width="1px">1M</text><text x="1467.21875" y="0" dx="0em" dy="0.95em" style="text-anchor: middle; visibility: hidden; font-family: Roboto, sans-serif; font-size: 12px; font-weight: 200;" fill="rgb(50, 49, 63)" stroke="none" stroke-width="1px">1.1M</text></g><line x1="0" y1="0" x2="1467.21875" y2="0" fill="rgb(0, 0, 0)" stroke="rgb(204, 204, 204)" stroke-width="1px"></line></g></g></g></g></svg>