<svg viewBox="0 0 1498 400" xmlns="http://www.w3.org/2000/svg"><g><g><g><g><g><line x1="41.171875" y1="378" x2="36.171875" y2="378" style="visibility: inherit;" fill="rgb(0, 0, 0)" stroke="rgb(204, 204, 204)" stroke-width="1px"></line><line x1="41.171875" y1="348.9230769230769" x2="36.171875" y2="348.9230769230769" style="visibility: inherit;" fill="rgb(0, 0, 0)" stroke="rgb(204, 204, 204)" stroke-width="1px"></line><line x1="41.171875" y1="319.8461538461538" x2="36.171875" y2="319.8461538461538" style="visibility: inherit;" fill="rgb(0, 0, 0)" stroke="rgb(204, 204, 204)" stroke-width="1px"></line><line x1="41.171875" y1="290.7692307692307" x2="36.171875" y2="290.7692307692307" style="visibility: inherit;" fill="rgb(0, 0, 0)" stroke="rgb(204, 204, 204)" stroke-width="1px"></line><line x1="41.171875" y1="261.6923076923078" x2="36.171875" y2="261.6923076923078" style="visibility: inherit;" fill="rgb(0, 0, 0)" stroke="rgb(204, 204, 204)" stroke-width="1px"></line><line x1="41.171875" y1="232.61538461538464" x2="36.171875" y2="232.61538461538464" style="visibility: inherit;" fill="rgb(0, 0, 0)" stroke="rgb(204, 204, 204)" stroke-width="1px"></line><line x1="41.171875" y1="203.53846153846158" x2="36.171875" y2="203.53846153846158" style="visibility: inherit;" fill="rgb(0, 0, 0)" stroke="rgb(204, 204, 204)" stroke-width="1px"></line><line x1="41.171875" y1="174.46153846153848" x2="36.171875" y2="174.46153846153848" style="visibility: inherit;" fill="rgb(0, 0, 0)" stroke="rgb(204, 204, 204)" stroke-width="1px"></line><line x1="41.171875" y1="145.38461538461536" x2="36.171875" y2="145.38461538461536" style="visibility: inherit;" fill="rgb(0, 0, 0)" stroke="rgb(204, 204, 204)" stroke-width="1px"></line><line x1="41.171875" y1="116.30769230769239" x2="36.171875" y2="116.30769230769239" style="visibility: inherit;" fill="rgb(0, 0, 0)" stroke="rgb(204, 204, 204)" stroke-width="1px"></line><line x1="41.171875" y1="87.2307692307693" x2="36.171875" y2="87.2307692307693" style="visibility: inherit;" fill="rgb(0, 0, 0)" stroke="rgb(204, 204, 204)" stroke-width="1px"></line><line x1="41.171875" y1="58.153846153846196" x2="36.171875" y2="58.153846153846196" style="visibility: inherit;" fill="rgb(0, 0, 0)" stroke="rgb(204, 204, 204)" stroke-width="1px"></line><line x1="41.171875" y1="29.076923076923226" x2="36.171875" y2="29.076923076923226" style="visibility: inherit;" fill="rgb(0, 0, 0)" stroke="rgb(204, 204, 204)" stroke-width="1px"></line><line x1="41.171875" y1="0" x2="36.171875" y2="0" style="visibility: inherit;" fill="rgb(0, 0, 0)" stroke="rgb(204, 204, 204)" stroke-width="1px"></line></g><g transform="translate(31.171875, 0)"><text x="0" y="378" dx="0em" dy="0.3em" style="text-anchor: end; visibility: hidden; font-family: Roboto, sans-serif; font-size: 12px; font-weight: 200;" fill="rgb(50, 49, 63)" stroke="none" stroke-width="1px">5.8</text><text x="0" y="348.9230769230769" dx="0em" dy="0.3em" style="text-anchor: end; visibility: inherit; font-family: Roboto, sans-serif; font-size: 12px; font-weight: 200;" fill="rgb(50, 49, 63)" stroke="none" stroke-width="1px">6</text><text x="0" y="319.8461538461538" dx="0em" dy="0.3em" style="text-anchor: end; visibility: inherit; font-family: Roboto, sans-serif; font-size: 12px; font-weight: 200;" fill="rgb(50, 49, 63)" stroke="none" stroke-width="1px">6.2</text><text x="0" y="290.7692307692307" dx="0em" dy="0.3em" style="text-anchor: end; visibility: inherit; font-family: Roboto, sans-serif; font-size: 12px; font-weight: 200;" fill="rgb(50, 49, 63)" stroke="none" stroke-width="1px">6.4</text><text x="0" y="261.6923076923078" dx="0em" dy="0.3em" style="text-anchor: end; visibility: inherit; font-family: Roboto, sans-serif; font-size: 12px; font-weight: 200;" fill="rgb(50, 49, 63)" stroke="none" stroke-width="1px">6.6</text><text x="0" y="232.61538461538464" dx="0em" dy="0.3em" style="text-anchor: end; visibility: inherit; font-family: Roboto, sans-serif; font-size: 12px; font-weight: 200;" fill="rgb(50, 49, 63)" stroke="none" stroke-width="1px">6.8</text><text x="0" y="203.53846153846158" dx="0em" dy="0.3em" style="text-anchor: end; visibility: inherit; font-family: Roboto, sans-serif; font-size: 12px; font-weight: 200;" fill="rgb(50, 49, 63)" stroke="none" stroke-width="1px">7</text><text x="0" y="174.46153846153848" dx="0em" dy="0.3em" style="text-anchor: end; visibility: inherit; font-family: Roboto, sans-serif; font-size: 12px; font-weight: 200;" fill="rgb(50, 49, 63)" stroke="none" stroke-width="1px">7.2</text><text x="0" y="145.38461538461536" dx="0em" dy="0.3em" style="text-anchor: end; visibility: inherit; font-family: Roboto, sans-serif; font-size: 12px; font-weight: 200;" fill="rgb(50, 49, 63)" stroke="none" stroke-width="1px">7.4</text><text x="0" y="116.30769230769239" dx="0em" dy="0.3em" style="text-anchor: end; visibility: inherit; font-family: Roboto, sans-serif; font-size: 12px; font-weight: 200;" fill="rgb(50, 49, 63)" stroke="none" stroke-width="1px">7.6</text><text x="0" y="87.2307692307693" dx="0em" dy="0.3em" style="text-anchor: end; visibility: inherit; font-family: Roboto, sans-serif; font-size: 12px; font-weight: 200;" fill="rgb(50, 49, 63)" stroke="none" stroke-width="1px">7.8</text><text x="0" y="58.153846153846196" dx="0em" dy="0.3em" style="text-anchor: end; visibility: inherit; font-family: Roboto, sans-serif; font-size: 12px; font-weight: 200;" fill="rgb(50, 49, 63)" stroke="none" stroke-width="1px">8</text><text x="0" y="29.076923076923226" dx="0em" dy="0.3em" style="text-anchor: end; visibility: inherit; font-family: Roboto, sans-serif; font-size: 12px; font-weight: 200;" fill="rgb(50, 49, 63)" stroke="none" stroke-width="1px">8.2</text><text x="0" y="0" dx="0em" dy="0.3em" style="text-anchor: end; visibility: hidden; font-family: Roboto, sans-serif; font-size: 12px; font-weight: 200;" fill="rgb(50, 49, 63)" stroke="none" stroke-width="1px">8.4</text></g><line x1="41.171875" y1="0" x2="41.171875" y2="378" fill="rgb(0, 0, 0)" stroke="rgb(204, 204, 204)" stroke-width="1px"></line></g></g><g transform="translate(41, 0)" clip-path="url(#clip_0)"><clipPath id="clip_0"><rect width="1456" height="378"></rect></clipPath><g><g><g><line x1="0" y1="0" x2="0" y2="378" fill="rgb(0, 0, 0)" stroke="rgb(60, 60, 60)" stroke-width="1px" opacity="0.25"></line><line x1="121.40234375" y1="0" x2="121.40234375" y2="378" fill="rgb(0, 0, 0)" stroke="rgb(60, 60, 60)" stroke-width="1px" opacity="0.25"></line><line x1="242.8046875" y1="0" x2="242.8046875" y2="378" fill="rgb(0, 0, 0)" stroke="rgb(60, 60, 60)" stroke-width="1px" opacity="0.25"></line><line x1="364.20703125" y1="0" x2="364.20703125" y2="378" fill="rgb(0, 0, 0)" stroke="rgb(60, 60, 60)" stroke-width="1px" opacity="0.25"></line><line x1="485.609375" y1="0" x2="485.609375" y2="378" fill="rgb(0, 0, 0)" stroke="rgb(60, 60, 60)" stroke-width="1px" opacity="0.25"></line><line x1="607.01171875" y1="0" x2="607.01171875" y2="378" fill="rgb(0, 0, 0)" stroke="rgb(60, 60, 60)" stroke-width="1px" opacity="0.25"></line><line x1="728.4140625" y1="0" x2="728.4140625" y2="378" fill="rgb(0, 0, 0)" stroke="rgb(60, 60, 60)" stroke-width="1px" opacity="0.25"></line><line x1="849.81640625" y1="0" x2="849.81640625" y2="378" fill="rgb(0, 0, 0)" stroke="rgb(60, 60, 60)" stroke-width="1px" opacity="0.25"></line><line x1="971.21875" y1="0" x2="971.21875" y2="378" fill="rgb(0, 0, 0)" stroke="rgb(60, 60, 60)" stroke-width="1px" opacity="0.25"></line><line x1="1092.62109375" y1="0" x2="1092.62109375" y2="378" fill="rgb(0, 0, 0)" stroke="rgb(60, 60, 60)" stroke-width="1px" opacity="0.25"></line><line x1="1214.0234375" y1="0" x2="1214.0234375" y2="378" fill="rgb(0, 0, 0)" stroke="rgb(60, 60, 60)" stroke-width="1px" opacity="0.25"></line><line x1="1335.42578125" y1="0" x2="1335.42578125" y2="378" fill="rgb(0, 0, 0)" stroke="rgb(60, 60, 60)" stroke-width="1px" opacity="0.25"></line><line x1="1456.828125" y1="0" x2="1456.828125" y2="378" fill="rgb(0, 0, 0)" stroke="rgb(60, 60, 60)" stroke-width="1px" opacity="0.25"></line></g><g><line x1="0" y1="378" x2="1456.828125" y2="378" fill="rgb(0, 0, 0)" stroke="rgb(60, 60, 60)" stroke-width="1px" opacity="0.25"></line><line x1="0" y1="348.9230769230769" x2="1456.828125" y2="348.9230769230769" fill="rgb(0, 0, 0)" stroke="rgb(60, 60, 60)" stroke-width="1px" opacity="0.25"></line><line x1="0" y1="319.8461538461538" x2="1456.828125" y2="319.8461538461538" fill="rgb(0, 0, 0)" stroke="rgb(60, 60, 60)" stroke-width="1px" opacity="0.25"></line><line x1="0" y1="290.7692307692307" x2="1456.828125" y2="290.7692307692307" fill="rgb(0, 0, 0)" stroke="rgb(60, 60, 60)" stroke-width="1px" opacity="0.25"></line><line x1="0" y1="261.6923076923078" x2="1456.828125" y2="261.6923076923078" fill="rgb(0, 0, 0)" stroke="rgb(60, 60, 60)" stroke-width="1px" opacity="0.25"></line><line x1="0" y1="232.61538461538464" x2="1456.828125" y2="232.61538461538464" fill="rgb(0, 0, 0)" stroke="rgb(60, 60, 60)" stroke-width="1px" opacity="0.25"></line><line x1="0" y1="203.53846153846158" x2="1456.828125" y2="203.53846153846158" fill="rgb(0, 0, 0)" stroke="rgb(60, 60, 60)" stroke-width="1px" opacity="0.25"></line><line x1="0" y1="174.46153846153848" x2="1456.828125" y2="174.46153846153848" fill="rgb(0, 0, 0)" stroke="rgb(60, 60, 60)" stroke-width="1px" opacity="0.25"></line><line x1="0" y1="145.38461538461536" x2="1456.828125" y2="145.38461538461536" fill="rgb(0, 0, 0)" stroke="rgb(60, 60, 60)" stroke-width="1px" opacity="0.25"></line><line x1="0" y1="116.30769230769239" x2="1456.828125" y2="116.30769230769239" fill="rgb(0, 0, 0)" stroke="rgb(60, 60, 60)" stroke-width="1px" opacity="0.25"></line><line x1="0" y1="87.2307692307693" x2="1456.828125" y2="87.2307692307693" fill="rgb(0, 0, 0)" stroke="rgb(60, 60, 60)" stroke-width="1px" opacity="0.25"></line><line x1="0" y1="58.153846153846196" x2="1456.828125" y2="58.153846153846196" fill="rgb(0, 0, 0)" stroke="rgb(60, 60, 60)" stroke-width="1px" opacity="0.25"></line><line x1="0" y1="29.076923076923226" x2="1456.828125" y2="29.076923076923226" fill="rgb(0, 0, 0)" stroke="rgb(60, 60, 60)" stroke-width="1px" opacity="0.25"></line><line x1="0" y1="0" x2="1456.828125" y2="0" fill="rgb(0, 0, 0)" stroke="rgb(60, 60, 60)" stroke-width="1px" opacity="0.25"></line></g></g></g><g><g><line x1="0" y1="1221.230769230769" x2="1456.828125" y2="1221.230769230769" fill="rgb(0, 0, 0)" stroke="rgb(153, 153, 153)" stroke-width="1.5px"></line></g></g><g><g><line x1="121.40234375" y1="0" x2="121.40234375" y2="378" fill="rgb(0, 0, 0)" stroke="rgb(153, 153, 153)" stroke-width="1.5px"></line></g></g><g><g><g><g><g><path stroke="rgb(238, 51, 119)" stroke-width="2px" d="M166.07840625,394.4723949413245L170.93449999999999,368.34082134198167L175.79059375,354.7088882530957L180.64668749999998,317.4210941632402L185.50278125,288.30693723206963L190.35887499999998,253.40295102774354L195.21496875000003,220.84184363959474L200.0710625,179.98587871601703L204.92715625,150.63272181016328L209.78324999999998,143.68663288992744L214.63934375000002,144.36586173129083L219.4954375,149.6197128252166L224.35153125,168.2799182588619L229.20762499999998,191.10671848999553L234.06371875000002,210.61803133457803L238.9198125,227.17090647788646L243.77590625,245.82566090518603L248.632,248.2954099993573L253.48809375,237.17724201492044L258.34418750000003,242.1371137882282L263.20028125,259.65150179813656L268.056375,261.43704607646805L272.91246874999996,250.87761270927712L277.76856250000003,245.5111696424579L282.62465625,252.95284674367832L287.48075,258.3870965146112L292.33684375,269.4014851700207L297.19293749999997,285.7024167910588L302.04903125,279.0060543258431L306.905125,281.7728596776883L311.76121875,291.1867816586975L316.61731249999997,262.9120763520662L321.47340625000004,256.6087953596885L326.3295,240.22682491277294L331.18559375,229.42839893953158L336.04168749999997,199.68779934603094L340.89778125000004,197.35114484315926L345.753875,202.73377492127415L350.60996875,213.71719172742047L355.46606249999996,213.52261903143358L360.32215625,218.25203850336828L365.17825,215.2743111170397L370.03434375,191.1953466575715L374.8904375,163.17875015332191L379.74653125,167.69187656858233L384.60262500000005,164.58434561841105L389.45871874999995,168.5352338476304L394.3148125,188.35190399337188L399.17090625000003,183.76498485254632L404.027,175.19745429864906L408.88309375,192.34923626397705L413.73918749999996,212.33263162209104L418.59528124999997,212.6918829682404L423.45137500000004,223.56897593479056L428.30746875,223.310608935461L433.1635625,217.34020966646187L438.01965625,192.43488578734144L442.87575,179.43015114966968L447.73184375,161.935011918064L452.58793749999995,165.00717393761929L457.44403125,173.63506619869676L462.30012500000004,201.1041295829218L467.15621875,205.9547817447389L472.0123125,214.68055211123084L476.86840624999996,189.86987527425987L481.7245,178.86038855167854L486.58059375000005,175.16239991778798L491.4366875,191.3589876555162L496.29278125,193.3230738090361L501.148875,220.6707729083278L506.00496875,234.1716889682445L510.8610625,239.364562934451L515.71715625,225.03412237605522L520.57325,212.55893866141665L525.42934375,213.79691090169337L530.2854375,184.49352745907873L535.1415312500001,166.91149739350988L539.997625,170.90074089263004L544.85371875,168.44812390264352L549.7098125,175.6996361777114L554.56590625,194.58900508121368L559.422,189.445705195053L564.2780937499999,161.15972156603473L569.1341874999999,157.75737694714218L573.9902812500001,158.62364584555024L578.846375,158.17419120465212L583.70246875,169.5352765589166L588.5585625,168.59808901227308L593.41465625,170.94347988394517L598.27075,170.41225471714773L603.1268437499999,159.43197745820888L607.9829375,169.32073233110765L612.8390312500001,168.46936247558767L617.695125,161.17391778301644L622.55121875,169.39665281613466L627.4073125,173.3610778560625L632.26340625,176.70894885996216L637.1195,142.85612560611963L641.97559375,136.1136772123328L646.8316875,118.49896261754208L651.6877812500001,112.77629695012648L656.543875,131.63499784734077L661.39996875,152.64254456458693L666.2560625,155.55474641601708L671.11215625,153.42514814727406L675.96825,161.83971536494585L680.82434375,163.98075229589057L685.6804375,162.35767105479928L690.5365312499999,172.04536446900482L695.392625,148.78105744060517L700.2487187500001,138.69939260316636L705.1048125,132.6503937007033L709.96090625,113.51331684082082L714.817,109.78490948409352L719.67309375,114.33248784931662L724.5291875,125.7841173375102L729.38528125,135.56277070016998L734.2413750000001,147.24534178716743L739.09746875,154.2548844393659L743.9535625000001,135.1990937530784L748.80965625,135.39637748010915L753.66575,128.73012493706824L758.5218437500001,118.91499434184215L763.3779375,124.65670185342451L768.2340312499999,131.97864573997495L773.090125,115.04872775418434L777.9462187500001,121.36769819097222L782.8023125,131.94370323230424L787.65840625,134.41238687750229L792.5145000000001,121.35513552615963L797.37059375,125.1515428541573L802.2266874999999,140.0293890996169L807.08278125,152.83301622649378L811.938875,156.63827312301873L816.79496875,176.3675921990535L821.6510625,193.0513190042183L826.50715625,192.40001292845682L831.36325,183.28617454385483L836.2193437499999,194.29479274135568L841.0754375,206.71534272925794L845.93153125,206.41383396279699L850.7876249999999,215.92522715192325L855.6437187500001,215.81668399599735L860.4998125,204.1207722337237L865.35590625,198.07246888621717L870.2120000000001,191.53578347805495L875.06809375,184.70609656341435L879.9241875,191.26979884357553L884.7802812499999,199.08496732118817L889.636375,201.83560871795518L894.49246875,218.99367107441978L899.3485625,220.56542601923877L904.2046562500001,218.60080331638662L909.06075,207.72970351575782L913.91684375,201.20704363538056L918.7729375,193.41652832755307L923.62903125,147.0652942172725L928.4851249999999,129.9160959099646L933.34121875,116.71890125583641L938.1973125000001,104.92363735384365L943.05340625,111.41572457116665L947.9095,135.66481750942359L952.76559375,153.1219766720359L957.6216875,179.10394968800773L962.4777812499999,197.60083689724917L967.333875,201.91434644353467L972.18996875,226.7947524689697L977.0460625,261.1076207121511L981.9021562500001,251.6491748712791L986.75825,224.65105077894992L991.61434375,223.9598538419567L996.4704375000001,202.22207909195467L1001.32653125,163.97941054463166L1006.182625,162.35686600404395L1011.0387187499999,187.55258668687082L1015.8948125000001,185.22385415844724L1020.75090625,207.08815864891446L1025.607,231.83749948199812L1030.46309375,247.65634769170597L1035.3191875,262.9630356869323L1040.17528125,246.9470447867463L1045.031375,242.18361333609343L1049.88746875,219.9409298377814L1054.7435625,199.81072468944961L1059.5996562500002,193.5479806698521L1064.45575,214.99033795541575L1069.31184375,223.97880521723806L1074.1679374999999,218.7103711453857L1079.02403125,224.27236544141925L1083.880125,220.82496696969488L1088.73621875,203.2488226383411L1093.5923125000002,201.4262185085888L1098.44840625,193.54803325147796L1103.3045,194.6365011666132L1108.16059375,193.3511222258938L1113.0166875,210.0260597995819L1117.87278125,202.58485740567494L1122.728875,201.02783936898908L1127.5849687500001,200.09362854697744L1132.4410625,219.8869426616337L1137.29715625,229.82447144062698L1142.15325,232.87928530836467L1147.00934375,230.8352542494063L1151.8654374999999,217.97807747522776L1156.72153125,210.26377141072072L1161.577625,207.5736474618169L1166.43371875,196.26727464347212L1171.2898125000002,194.32958631200916L1176.14590625,186.3823782637868L1181.002,175.79864663553693L1185.8580937499999,188.8330322865073L1190.7141875,211.19212521555107L1195.5702812499999,212.97682283417407L1200.426375,223.73993985435067L1205.2824687500001,217.59780821779563L1210.1385625,208.09715016646092L1214.99465625,200.4582956458594L1219.85075,216.22882354136186L1224.70684375,231.50651934806487L1229.5629374999999,234.85775776268505L1234.41903125,225.2377426726539L1239.2751250000001,212.68111083937572L1244.13121875,223.56251265747161L1248.9873125,198.10672727174781L1253.84340625,199.31017726857561L1258.6995,183.55532603841024L1263.5555937499998,185.73320116902903L1268.4116875,194.79376500660254L1273.26778125,214.76856484760825L1278.123875,248.0765290699325L1282.9799687500001,265.153604203669L1287.8360625,265.7075508349081L1292.69215625,267.97837850345195L1297.54825,264.49471201511955L1302.40434375,206.18912565807457L1307.2604375,133.40576829786457L1312.11653125,74.22807636333414L1316.972625,38.72146120261604L1321.82871875,25.171330865387354L1326.6848125,101.3643462240758L1331.54090625,159.68015728794973L1336.397,190.79269681675845L1341.25309375,213.3371676435595L1346.1091875,209.41768520152033L1350.96528125,200.2813729570375L1355.821375,177.35344840214276L1360.6774687500001,167.47361304880704L1365.5335625,151.85338565788805L1370.38965625,146.3581963328525L1375.2457499999998,135.3072162487144L1380.10184375,125.76895252848804L1384.9579375,101.63061337828948L1389.81403125,94.90144864737255L1394.670125,89.89470609896479L1399.52621875,76.22914614097444L1404.3823125,70.93748583592375" style="fill: none;" fill="none"></path></g><g><path stroke="rgb(51, 187, 238)" stroke-width="2px" d="M161.2223125,416.1023234563131L166.07840625,332.16938776872604L170.93449999999999,256.0258464118611L175.79059375,219.39027443761088L180.64668749999998,249.9468260759318L185.50278125,280.85461165875085L190.35887499999998,318.7732545508808L195.21496875000003,346.3538567330901L200.0710625,367.7414190833521L204.92715625,328.2227665549301L209.78324999999998,299.6692289700237L214.63934375000002,259.2760009069033L219.4954375,211.7792449055512L224.35153125,188.1285721272109L229.20762499999998,194.29260902381498L234.06371875000002,204.77565559672007L238.9198125,211.0654305560283L243.77590625,216.77774165832645L248.632,212.45126594006112L253.48809375,209.85538523241993L258.34418750000003,222.83632897467837L263.20028125,216.0864232230025L268.056375,195.55952876290584L272.91246874999996,163.85879552188024L277.76856250000003,159.37682096394425L282.62465625,121.79533264497333L287.48075,91.4926018207694L292.33684375,76.21861187171413L297.19293749999997,84.50041091830813L302.04903125,86.56178687394154L306.905125,131.41399721649393L311.76121875,167.04840580393076L316.61731249999997,173.89058934768696L321.47340625000004,171.21127668338636L326.3295,167.66522939544782L331.18559375,159.7222219526961L336.04168749999997,138.47949625739628L340.89778125000004,132.51845589262146L345.753875,138.63415785367522L350.60996875,152.96512118932284L355.46606249999996,175.13291701927653L360.32215625,199.09513667593436L365.17825,219.28784753917103L370.03434375,244.00347590573082L374.8904375,254.95593354597753L379.74653125,248.92740628142198L384.60262500000005,228.8333686944163L389.45871874999995,235.19232706030053L394.3148125,234.1615389903677L399.17090625000003,250.98923108653221L404.027,257.2089269646268L408.88309375,265.7869075809421L413.73918749999996,268.02599255107265L418.59528124999997,264.5232804436919L423.45137500000004,250.79089504046004L428.30746875,223.16683917060035L433.1635625,186.23856504082158L438.01965625,168.92776365241312L442.87575,151.7566600401089L447.73184375,149.20783663192856L452.58793749999995,165.12470752514022L457.44403125,171.76712666140884L462.30012500000004,180.5987412326287L467.15621875,184.92846626550306L472.0123125,176.86475912636735L476.86840624999996,175.90348195240165L481.7245,162.7267137993613L486.58059375000005,160.63603197693877L491.4366875,154.5354597940265L496.29278125,118.89051773761251L501.148875,83.9343069452456L506.00496875,84.2836647875462L510.8610625,87.40095516267013L515.71715625,97.99441185680442L520.57325,134.39665266006566L525.42934375,159.14567281176573L530.2854375,178.84124799224475L535.1415312500001,197.44321587979127L539.997625,183.40439291499726L544.85371875,165.28880068711808L549.7098125,158.29636472999175L554.56590625,129.87011543833688L559.422,116.6913129728598L564.2780937499999,152.39941610895815L569.1341874999999,175.76273768041767L573.9902812500001,183.96532382397695L578.846375,182.1022804607681L583.70246875,162.56907352478007L588.5585625,143.09528287407025L593.41465625,134.31871188330257L598.27075,107.7296849711211L603.1268437499999,127.63781467999462L607.9829375,130.8596100362589L612.8390312500001,152.17731187793763L617.695125,176.59869112174837L622.55121875,183.4976799088325L627.4073125,175.037071332422L632.26340625,181.59146432537906L637.1195,181.64718074155212L641.97559375,173.92677183205382L646.8316875,198.37144956327782L651.6877812500001,144.22286788930577L656.543875,112.70296259478025L661.39996875,103.48331786706771L666.2560625,73.72077104297578L671.11215625,69.43246077712443L675.96825,145.36716137932308L680.82434375,185.1126026712406L685.6804375,198.29832528753076L690.5365312499999,201.36362349776078L695.392625,172.1873919272603L700.2487187500001,144.98935453595726L705.1048125,112.19361087291333L709.96090625,123.53154744181064L714.817,148.74969030121173L719.67309375,189.0805797141743L724.5291875,199.70989553334795L729.38528125,200.27207822553564L734.2413750000001,185.1017103224439L739.09746875,161.4610280421273L743.9535625000001,136.61507651507694L748.80965625,147.87672527611167L753.66575,154.63371453273243L758.5218437500001,166.4417745758219L763.3779375,173.52661060167554L768.2340312499999,193.28518973559213L773.090125,200.29420185639808L777.9462187500001,196.7457426397647L782.8023125,191.7089914400412L787.65840625,178.0253985613467L792.5145000000001,158.18445696541184L797.37059375,141.43375664830708L802.2266874999999,129.44487676824363L807.08278125,119.34384544054738L811.938875,119.09860571333125L816.79496875,108.28991971814116L821.6510625,110.52779059008701L826.50715625,111.8705131132545L831.36325,124.30693249587299L836.2193437499999,135.64570350504513L841.0754375,148.26434517995014L845.93153125,164.558612653953L850.7876249999999,159.79671159989317L855.6437187500001,83.27801956529196L860.4998125,43.18221114384761L865.35590625,19.12472609098102L870.2120000000001,2.75174763954574L875.06809375,-17.733581590175817L879.9241875,35.88293351495454L884.7802812499999,67.08359886817505L889.636375,85.8039980801074L894.49246875,63.113179170799526L899.3485625,80.5140705919385L904.2046562500001,94.83152482422308L909.06075,102.4527536537362L913.91684375,101.21011188204234L918.7729375,120.8183674268892L923.62903125,109.32177674627584L928.4851249999999,76.25463039055775L933.34121875,46.72201639820937L938.1973125000001,37.72550274194544L943.05340625,24.57375578898482L947.9095,38.975035644787106L952.76559375,72.8157795256757L957.6216875,107.65868739267025L962.4777812499999,113.0567545944626L967.333875,111.44943182607925L972.18996875,110.48503816504933L977.0460625,91.49102105036867L981.9021562500001,101.41769509928116L986.75825,87.98907490070833L991.61434375,91.56268865028267L996.4704375000001,99.52223596942895L1001.32653125,92.66717849219863L1006.182625,86.61568431605984L1011.0387187499999,96.55403336889529L1015.8948125000001,111.24012526965633L1020.75090625,130.7132948390587L1025.607,146.27414369021585L1030.46309375,160.45678836045423L1035.3191875,138.92023610573133L1040.17528125,125.99830475289767L1045.031375,107.58360378233684L1049.88746875,109.13478504866151L1054.7435625,107.15779040879805L1059.5996562500002,121.47929887319906L1064.45575,135.8875830212414L1069.31184375,160.0402310284712L1074.1679374999999,151.27030355520247L1079.02403125,125.65447873346322L1083.880125,112.22344353022035L1088.73621875,102.22636271847405L1093.5923125000002,73.93581393376243L1098.44840625,75.37686558099817L1103.3045,89.81074212785823L1108.16059375,43.22492530178622L1113.0166875,6.550325007168465L1117.87278125,-16.423651149545197L1127.5849687500001,-16.76789755029221L1132.4410625,64.57002330595L1137.29715625,125.97277766835619" style="fill: none;" fill="none"></path></g></g></g></g><g opacity="0.2"><g><g><g><path stroke="rgb(238, 51, 119)" stroke-width="2px" d="M156.36621875,397.3846384928776L161.2223125,370.73078309572657L166.07840625,353.7692261475783L170.93449999999999,329.53848002507135L175.79059375,334.38462924957275L180.64668749999998,261.6923215572651L185.50278125,244.73076460911676L190.35887499999998,201.11535226381747L195.21496875000003,172.03845691680908L200.0710625,118.73074612250699L204.92715625,106.61540772364694L209.78324999999998,133.269263120798L214.63934375000002,145.38460151965802L219.4954375,157.50000924330493L224.35153125,196.26920303931607L229.20762499999998,225.34616771111124L234.06371875000002,239.88461538461536L238.9198125,252.00002310826227L243.77590625,273.8076599561251L248.632,252.00002310826227L253.48809375,220.50001848660983L258.34418750000003,249.57691383361816L263.20028125,285.92306767977203L268.056375,264.1153615071224L272.91246874999996,235.03846616011398L277.76856250000003,237.46150610997125L282.62465625,264.1153615071224L287.48075,266.5384707817665L292.33684375,285.92306767977203L297.19293749999997,310.15381380227893L302.04903125,268.9615107316238L306.905125,285.92306767977203L311.76121875,305.30766457777753L316.61731249999997,220.50001848660983L321.47340625000004,247.15387388376087L326.3295,215.6538692621085L331.18559375,213.23075998746432L336.04168749999997,155.07689996866083L340.89778125000004,193.84616308945877L345.753875,210.80772003760708L350.60996875,230.19231693561258L355.46606249999996,213.23075998746432L360.32215625,225.34616771111124L365.17825,210.80772003760708L370.03434375,155.07689996866083L374.8904375,121.15385539715109L379.74653125,174.46156619145324L384.60262500000005,159.92304919316223L389.45871874999995,174.46156619145324L394.3148125,218.07690921196573L399.17090625000003,176.88460614131048L404.027,162.34615846780633L408.88309375,218.07690921196573L413.73918749999996,242.3077246592595L418.59528124999997,213.23075998746432L423.45137500000004,239.88461538461536L428.30746875,222.9230584364671L433.1635625,208.38461076296298L438.01965625,155.07689996866083L442.87575,159.92304919316223L447.73184375,135.69230307065524L452.58793749999995,169.61541696695184L457.44403125,186.57690459031326L462.30012500000004,242.3077246592595L467.15621875,213.23075998746432L472.0123125,227.76920766096848L476.86840624999996,152.65386001880353L481.7245,162.34615846780633L486.58059375000005,169.61541696695184L491.4366875,215.6538692621085L496.29278125,196.26920303931607L501.148875,261.6923215572651L506.00496875,254.42306305811957L510.8610625,247.15387388376087L515.71715625,203.53846153846158L520.57325,193.84616308945877L525.42934375,215.6538692621085L530.2854375,140.53845229515665L535.1415312500001,140.53845229515665L539.997625,176.88460614131048L544.85371875,164.76919841766357L549.7098125,186.57690459031326L554.56590625,222.9230584364671L559.422,181.7307553658119L564.2780937499999,118.73074612250699L569.1341874999999,152.65386001880353L573.9902812500001,159.92304919316223L578.846375,157.50000924330493L583.70246875,186.57690459031326L588.5585625,167.19230769230774L593.41465625,174.46156619145324L598.27075,169.61541696695184L603.1268437499999,142.96156156980075L607.9829375,184.153864640456L612.8390312500001,167.19230769230774L617.695125,150.23075074415942L622.55121875,181.7307553658119L627.4073125,179.3077154159546L632.26340625,181.7307553658119L637.1195,92.07689072535592L641.97559375,126.0000046216525L646.8316875,92.07689072535592L651.6877812500001,104.19229844900279L656.543875,159.92304919316223L661.39996875,184.153864640456L666.2560625,159.92304919316223L671.11215625,150.23075074415942L675.96825,174.46156619145324L680.82434375,167.19230769230774L685.6804375,159.92304919316223L690.5365312499999,186.57690459031326L695.392625,113.88459689800558L700.2487187500001,123.57689534700837L705.1048125,123.57689534700837L709.96090625,84.80770155099725L714.817,104.19229844900279L719.67309375,121.15385539715109L724.5291875,142.96156156980075L729.38528125,150.23075074415942L734.2413750000001,164.76919841766357L739.09746875,164.76919841766357L743.9535625000001,106.61540772364694L748.80965625,135.69230307065524L753.66575,118.73074612250699L758.5218437500001,104.19229844900279L763.3779375,133.269263120798L768.2340312499999,142.96156156980075L773.090125,89.65385077549864L777.9462187500001,130.8461538461539L782.8023125,147.80771079430215L787.65840625,138.1154123452994L792.5145000000001,101.76925849914555L797.37059375,130.8461538461539L802.2266874999999,162.34615846780633L807.08278125,172.03845691680908L811.938875,162.34615846780633L816.79496875,205.96157081310568L821.6510625,218.07690921196573L826.50715625,191.42305381481466L831.36325,169.61541696695184L836.2193437499999,210.80772003760708L841.0754375,225.34616771111124L845.93153125,205.96157081310568L850.7876249999999,230.19231693561258L855.6437187500001,215.6538692621085L860.4998125,186.57690459031326L865.35590625,189.0000138649574L870.2120000000001,181.7307553658119L875.06809375,174.46156619145324L879.9241875,201.11535226381747L884.7802812499999,210.80772003760708L889.636375,205.96157081310568L894.49246875,244.73076460911676L899.3485625,222.9230584364671L904.2046562500001,215.6538692621085L909.06075,191.42305381481466L913.91684375,191.42305381481466L918.7729375,181.7307553658119L923.62903125,77.53844305185174L928.4851249999999,104.19229844900279L933.34121875,96.92310927464415L938.1973125000001,87.23074150085453L943.05340625,121.15385539715109L947.9095,172.03845691680908L952.76559375,179.3077154159546L957.6216875,218.07690921196573L962.4777812499999,225.34616771111124L967.333875,208.38461076296298L972.18996875,264.1153615071224L977.0460625,312.57692307692304L981.9021562500001,237.46150610997125L986.75825,184.153864640456L991.61434375,222.9230584364671L996.4704375000001,169.61541696695184L1001.32653125,106.61540772364694L1006.182625,159.92304919316223L1011.0387187499999,225.34616771111124L1015.8948125000001,181.7307553658119L1020.75090625,239.88461538461536L1025.607,268.9615107316238L1030.46309375,271.3846200062679L1035.3191875,285.92306767977203L1040.17528125,222.9230584364671L1045.031375,235.03846616011398L1049.88746875,186.57690459031326L1054.7435625,169.61541696695184L1059.5996562500002,184.153864640456L1064.45575,247.15387388376087L1069.31184375,237.46150610997125L1074.1679374999999,210.80772003760708L1079.02403125,232.61535688546985L1083.880125,215.6538692621085L1088.73621875,176.88460614131048L1093.5923125000002,198.69231231396017L1098.44840625,181.7307553658119L1103.3045,196.26920303931607L1108.16059375,191.42305381481466L1113.0166875,235.03846616011398L1117.87278125,191.42305381481466L1122.728875,198.69231231396017L1127.5849687500001,198.69231231396017L1132.4410625,249.57691383361816L1137.29715625,244.73076460911676L1142.15325,237.46150610997125L1147.00934375,227.76920766096848L1151.8654374999999,198.69231231396017L1156.72153125,198.69231231396017L1161.577625,203.53846153846158L1166.43371875,179.3077154159546L1171.2898125000002,191.42305381481466L1176.14590625,174.46156619145324L1181.002,159.92304919316223L1185.8580937499999,208.38461076296298L1190.7141875,244.73076460911676L1195.5702812499999,215.6538692621085L1200.426375,239.88461538461536L1205.2824687500001,208.38461076296298L1210.1385625,193.84616308945877L1214.99465625,189.0000138649574L1219.85075,239.88461538461536L1224.70684375,254.42306305811957L1229.5629374999999,239.88461538461536L1234.41903125,210.80772003760708L1239.2751250000001,193.84616308945877L1244.13121875,239.88461538461536L1248.9873125,159.92304919316223L1253.84340625,201.11535226381747L1258.6995,159.92304919316223L1263.5555937499998,189.0000138649574L1268.4116875,208.38461076296298L1273.26778125,244.73076460911676L1278.123875,298.0384754034189L1282.9799687500001,290.7692169042734L1287.8360625,266.5384707817665L1292.69215625,271.3846200062679L1297.54825,259.26921228262097L1302.40434375,118.73074612250699L1307.2604375,24.23073225754964L1312.11653125,-14.538461538461487L1316.972625,-14.538461538461487L1321.82871875,4.846135359544056L1326.6848125,215.6538692621085L1331.54090625,247.15387388376087L1336.397,237.46150610997125L1341.25309375,247.15387388376087L1346.1091875,203.53846153846158L1350.96528125,186.57690459031326L1355.821375,142.96156156980075L1360.6774687500001,152.65386001880353L1365.5335625,128.42304457150976L1370.38965625,138.1154123452994L1375.2457499999998,118.73074612250699L1380.10184375,111.4615569481483L1384.9579375,65.42310465299171L1389.81403125,84.80770155099725L1394.670125,82.38459227635313L1399.52621875,55.73080620398891L1404.3823125,62.99999537834759" style="fill: none;" fill="none"></path></g><g><path stroke="rgb(51, 187, 238)" stroke-width="2px" d="M156.36621875,409.49997689173773L161.2223125,281.07691845527063L166.07840625,208.38461076296298L170.93449999999999,142.96156156980075L175.79059375,164.76919841766357L180.64668749999998,295.6153661287748L185.50278125,327.11537075042725L190.35887499999998,375.57693232022797L195.21496875000003,387.6923400438749L200.0710625,399.8076784427349L204.92715625,268.9615107316238L209.78324999999998,256.8461723327637L214.63934375000002,198.69231231396017L219.4954375,140.53845229515665L224.35153125,152.65386001880353L229.20762499999998,203.53846153846158L234.06371875000002,220.50001848660983L238.9198125,220.50001848660983L243.77590625,225.34616771111124L248.632,205.96157081310568L253.48809375,205.96157081310568L258.34418750000003,242.3077246592595L263.20028125,205.96157081310568L268.056375,164.76919841766357L272.91246874999996,116.3077061726497L277.76856250000003,152.65386001880353L282.62465625,65.42310465299171L287.48075,46.03850775498616L292.33684375,53.30762760455798L297.19293749999997,96.92310927464415L302.04903125,89.65385077549864L306.905125,198.69231231396017L311.76121875,220.50001848660983L316.61731249999997,184.153864640456L321.47340625000004,167.19230769230774L326.3295,162.34615846780633L331.18559375,147.80771079430215L336.04168749999997,106.61540772364694L340.89778125000004,123.57689534700837L345.753875,147.80771079430215L350.60996875,174.46156619145324L355.46606249999996,208.38461076296298L360.32215625,235.03846616011398L365.17825,249.57691383361816L370.03434375,281.07691845527063L374.8904375,271.3846200062679L379.74653125,239.88461538461536L384.60262500000005,198.69231231396017L389.45871874999995,244.73076460911676L394.3148125,232.61535688546985L399.17090625000003,276.2307692307693L404.027,266.5384707817665L408.88309375,278.6538785054134L413.73918749999996,271.3846200062679L418.59528124999997,259.26921228262097L423.45137500000004,230.19231693561258L428.30746875,181.7307553658119L433.1635625,130.8461538461539L438.01965625,142.96156156980075L442.87575,126.0000046216525L447.73184375,145.38460151965802L452.58793749999995,189.0000138649574L457.44403125,181.7307553658119L462.30012500000004,193.84616308945877L467.15621875,191.42305381481466L472.0123125,164.76919841766357L476.86840624999996,174.46156619145324L481.7245,142.96156156980075L486.58059375000005,157.50000924330493L491.4366875,145.38460151965802L496.29278125,65.42310465299171L501.148875,31.499990756695148L506.00496875,84.80770155099725L510.8610625,92.07689072535592L515.71715625,113.88459689800558L520.57325,189.0000138649574L525.42934375,196.26920303931607L530.2854375,208.38461076296298L535.1415312500001,225.34616771111124L539.997625,162.34615846780633L544.85371875,138.1154123452994L549.7098125,147.80771079430215L554.56590625,87.23074150085453L559.422,96.92310927464415L564.2780937499999,205.96157081310568L569.1341874999999,210.80772003760708L573.9902812500001,196.26920303931607L578.846375,179.3077154159546L583.70246875,133.269263120798L588.5585625,113.88459689800558L593.41465625,121.15385539715109L598.27075,67.846144602849L603.1268437499999,157.50000924330493L607.9829375,135.69230307065524L612.8390312500001,184.153864640456L617.695125,213.23075998746432L622.55121875,193.84616308945877L627.4073125,162.34615846780633L632.26340625,191.42305381481466L637.1195,181.7307553658119L641.97559375,162.34615846780633L646.8316875,235.03846616011398L651.6877812500001,62.99999537834759L656.543875,65.42310465299171L661.39996875,89.65385077549864L666.2560625,29.076950806837864L671.11215625,62.99999537834759L675.96825,259.26921228262097L680.82434375,244.73076460911676L685.6804375,218.07690921196573L690.5365312499999,205.96157081310568L695.392625,128.42304457150976L700.2487187500001,104.19229844900279L705.1048125,62.99999537834759L709.96090625,140.53845229515665L714.817,186.57690459031326L719.67309375,249.57691383361816L724.5291875,215.6538692621085L729.38528125,201.11535226381747L734.2413750000001,162.34615846780633L739.09746875,126.0000046216525L743.9535625000001,99.34614922450143L748.80965625,164.76919841766357L753.66575,164.76919841766357L758.5218437500001,184.153864640456L763.3779375,184.153864640456L768.2340312499999,222.9230584364671L773.090125,210.80772003760708L777.9462187500001,191.42305381481466L782.8023125,184.153864640456L787.65840625,157.50000924330493L792.5145000000001,128.42304457150976L797.37059375,116.3077061726497L802.2266874999999,111.4615569481483L807.08278125,104.19229844900279L811.938875,118.73074612250699L816.79496875,92.07689072535592L821.6510625,113.88459689800558L826.50715625,113.88459689800558L831.36325,142.96156156980075L836.2193437499999,152.65386001880353L841.0754375,167.19230769230774L845.93153125,189.0000138649574L850.7876249999999,152.65386001880353L855.6437187500001,-31.500018486609786L875.06809375,-48.46157543475809L879.9241875,116.3077061726497L884.7802812499999,113.88459689800558L889.636375,113.88459689800558L894.49246875,29.076950806837864L899.3485625,106.61540772364694L904.2046562500001,116.3077061726497L909.06075,113.88459689800558L913.91684375,99.34614922450143L918.7729375,150.23075074415942L923.62903125,92.07689072535592L928.4851249999999,26.65391085698058L933.34121875,2.4230954096868134L938.1973125000001,24.23073225754964L943.05340625,4.846135359544056L947.9095,60.57695542849031L952.76559375,123.57689534700837L957.6216875,159.92304919316223L962.4777812499999,121.15385539715109L967.333875,109.0384476735042L972.18996875,109.0384476735042L977.0460625,62.99999537834759L981.9021562500001,116.3077061726497L986.75825,67.846144602849L991.61434375,96.92310927464415L996.4704375000001,111.4615569481483L1001.32653125,82.38459227635313L1006.182625,77.53844305185174L1011.0387187499999,111.4615569481483L1015.8948125000001,133.269263120798L1020.75090625,159.92304919316223L1025.607,169.61541696695184L1030.46309375,181.7307553658119L1035.3191875,106.61540772364694L1040.17528125,106.61540772364694L1045.031375,79.96155232649585L1049.88746875,111.4615569481483L1054.7435625,104.19229844900279L1059.5996562500002,142.96156156980075L1064.45575,157.50000924330493L1069.31184375,196.26920303931607L1074.1679374999999,138.1154123452994L1079.02403125,87.23074150085453L1083.880125,92.07689072535592L1088.73621875,87.23074150085453L1093.5923125000002,31.499990756695148L1098.44840625,77.53844305185174L1103.3045,111.4615569481483L1108.16059375,-26.653799937321565L1122.728875,-53.30765533447257L1127.5849687500001,4.846135359544056L1132.4410625,186.57690459031326L1137.29715625,218.07690921196573" style="fill: none;" fill="none"></path></g></g></g></g></g><g><g opacity="0.929252"><span fill="rgb(0, 0, 0)" stroke="none" stroke-width="1px">Alt + Scroll to Zoom</span></g></g></g><g transform="translate(41, 378)" clip-path="url(#clip_1)"><clipPath id="clip_1"><rect width="1456" height="22"></rect></clipPath><g><g><line x1="0" y1="0" x2="0" y2="5" style="visibility: inherit;" fill="rgb(0, 0, 0)" stroke="rgb(204, 204, 204)" stroke-width="1px"></line><line x1="121.40234375" y1="0" x2="121.40234375" y2="5" style="visibility: inherit;" fill="rgb(0, 0, 0)" stroke="rgb(204, 204, 204)" stroke-width="1px"></line><line x1="242.8046875" y1="0" x2="242.8046875" y2="5" style="visibility: inherit;" fill="rgb(0, 0, 0)" stroke="rgb(204, 204, 204)" stroke-width="1px"></line><line x1="364.20703125" y1="0" x2="364.20703125" y2="5" style="visibility: inherit;" fill="rgb(0, 0, 0)" stroke="rgb(204, 204, 204)" stroke-width="1px"></line><line x1="485.609375" y1="0" x2="485.609375" y2="5" style="visibility: inherit;" fill="rgb(0, 0, 0)" stroke="rgb(204, 204, 204)" stroke-width="1px"></line><line x1="607.01171875" y1="0" x2="607.01171875" y2="5" style="visibility: inherit;" fill="rgb(0, 0, 0)" stroke="rgb(204, 204, 204)" stroke-width="1px"></line><line x1="728.4140625" y1="0" x2="728.4140625" y2="5" style="visibility: inherit;" fill="rgb(0, 0, 0)" stroke="rgb(204, 204, 204)" stroke-width="1px"></line><line x1="849.81640625" y1="0" x2="849.81640625" y2="5" style="visibility: inherit;" fill="rgb(0, 0, 0)" stroke="rgb(204, 204, 204)" stroke-width="1px"></line><line x1="971.21875" y1="0" x2="971.21875" y2="5" style="visibility: inherit;" fill="rgb(0, 0, 0)" stroke="rgb(204, 204, 204)" stroke-width="1px"></line><line x1="1092.62109375" y1="0" x2="1092.62109375" y2="5" style="visibility: inherit;" fill="rgb(0, 0, 0)" stroke="rgb(204, 204, 204)" stroke-width="1px"></line><line x1="1214.0234375" y1="0" x2="1214.0234375" y2="5" style="visibility: inherit;" fill="rgb(0, 0, 0)" stroke="rgb(204, 204, 204)" stroke-width="1px"></line><line x1="1335.42578125" y1="0" x2="1335.42578125" y2="5" style="visibility: inherit;" fill="rgb(0, 0, 0)" stroke="rgb(204, 204, 204)" stroke-width="1px"></line><line x1="1456.828125" y1="0" x2="1456.828125" y2="5" style="visibility: inherit;" fill="rgb(0, 0, 0)" stroke="rgb(204, 204, 204)" stroke-width="1px"></line></g><g transform="translate(0, 8)"><text x="0" y="0" dx="0em" dy="0.95em" style="text-anchor: middle; visibility: hidden; font-family: Roboto, sans-serif; font-size: 12px; font-weight: 200;" fill="rgb(50, 49, 63)" stroke="none" stroke-width="1px">-100k</text><text x="121.40234375" y="0" dx="0em" dy="0.95em" style="text-anchor: middle; visibility: inherit; font-family: Roboto, sans-serif; font-size: 12px; font-weight: 200;" fill="rgb(50, 49, 63)" stroke="none" stroke-width="1px">0</text><text x="242.8046875" y="0" dx="0em" dy="0.95em" style="text-anchor: middle; visibility: inherit; font-family: Roboto, sans-serif; font-size: 12px; font-weight: 200;" fill="rgb(50, 49, 63)" stroke="none" stroke-width="1px">100k</text><text x="364.20703125" y="0" dx="0em" dy="0.95em" style="text-anchor: middle; visibility: inherit; font-family: Roboto, sans-serif; font-size: 12px; font-weight: 200;" fill="rgb(50, 49, 63)" stroke="none" stroke-width="1px">200k</text><text x="485.609375" y="0" dx="0em" dy="0.95em" style="text-anchor: middle; visibility: inherit; font-family: Roboto, sans-serif; font-size: 12px; font-weight: 200;" fill="rgb(50, 49, 63)" stroke="none" stroke-width="1px">300k</text><text x="607.01171875" y="0" dx="0em" dy="0.95em" style="text-anchor: middle; visibility: inherit; font-family: Roboto, sans-serif; font-size: 12px; font-weight: 200;" fill="rgb(50, 49, 63)" stroke="none" stroke-width="1px">400k</text><text x="728.4140625" y="0" dx="0em" dy="0.95em" style="text-anchor: middle; visibility: inherit; font-family: Roboto, sans-serif; font-size: 12px; font-weight: 200;" fill="rgb(50, 49, 63)" stroke="none" stroke-width="1px">500k</text><text x="849.81640625" y="0" dx="0em" dy="0.95em" style="text-anchor: middle; visibility: inherit; font-family: Roboto, sans-serif; font-size: 12px; font-weight: 200;" fill="rgb(50, 49, 63)" stroke="none" stroke-width="1px">600k</text><text x="971.21875" y="0" dx="0em" dy="0.95em" style="text-anchor: middle; visibility: inherit; font-family: Roboto, sans-serif; font-size: 12px; font-weight: 200;" fill="rgb(50, 49, 63)" stroke="none" stroke-width="1px">700k</text><text x="1092.62109375" y="0" dx="0em" dy="0.95em" style="text-anchor: middle; visibility: inherit; font-family: Roboto, sans-serif; font-size: 12px; font-weight: 200;" fill="rgb(50, 49, 63)" stroke="none" stroke-width="1px">800k</text><text x="1214.0234375" y="0" dx="0em" dy="0.95em" style="text-anchor: middle; visibility: inherit; font-family: Roboto, sans-serif; font-size: 12px; font-weight: 200;" fill="rgb(50, 49, 63)" stroke="none" stroke-width="1px">900k</text><text x="1335.42578125" y="0" dx="0em" dy="0.95em" style="text-anchor: middle; visibility: inherit; font-family: Roboto, sans-serif; font-size: 12px; font-weight: 200;" fill="rgb(50, 49, 63)" stroke="none" stroke-width="1px">1M</text><text x="1456.828125" y="0" dx="0em" dy="0.95em" style="text-anchor: middle; visibility: hidden; font-family: Roboto, sans-serif; font-size: 12px; font-weight: 200;" fill="rgb(50, 49, 63)" stroke="none" stroke-width="1px">1.1M</text></g><line x1="0" y1="0" x2="1456.828125" y2="0" fill="rgb(0, 0, 0)" stroke="rgb(204, 204, 204)" stroke-width="1px"></line></g></g></g></g></svg>