<svg viewBox="0 0 1498 400" xmlns="http://www.w3.org/2000/svg"><g><g><g><g><g><line x1="41.171875" y1="378" x2="36.171875" y2="378" style="visibility: inherit;" fill="rgb(0, 0, 0)" stroke="rgb(204, 204, 204)" stroke-width="1px"></line><line x1="41.171875" y1="348.9230769230769" x2="36.171875" y2="348.9230769230769" style="visibility: inherit;" fill="rgb(0, 0, 0)" stroke="rgb(204, 204, 204)" stroke-width="1px"></line><line x1="41.171875" y1="319.8461538461538" x2="36.171875" y2="319.8461538461538" style="visibility: inherit;" fill="rgb(0, 0, 0)" stroke="rgb(204, 204, 204)" stroke-width="1px"></line><line x1="41.171875" y1="290.7692307692307" x2="36.171875" y2="290.7692307692307" style="visibility: inherit;" fill="rgb(0, 0, 0)" stroke="rgb(204, 204, 204)" stroke-width="1px"></line><line x1="41.171875" y1="261.6923076923078" x2="36.171875" y2="261.6923076923078" style="visibility: inherit;" fill="rgb(0, 0, 0)" stroke="rgb(204, 204, 204)" stroke-width="1px"></line><line x1="41.171875" y1="232.61538461538464" x2="36.171875" y2="232.61538461538464" style="visibility: inherit;" fill="rgb(0, 0, 0)" stroke="rgb(204, 204, 204)" stroke-width="1px"></line><line x1="41.171875" y1="203.53846153846158" x2="36.171875" y2="203.53846153846158" style="visibility: inherit;" fill="rgb(0, 0, 0)" stroke="rgb(204, 204, 204)" stroke-width="1px"></line><line x1="41.171875" y1="174.46153846153848" x2="36.171875" y2="174.46153846153848" style="visibility: inherit;" fill="rgb(0, 0, 0)" stroke="rgb(204, 204, 204)" stroke-width="1px"></line><line x1="41.171875" y1="145.38461538461536" x2="36.171875" y2="145.38461538461536" style="visibility: inherit;" fill="rgb(0, 0, 0)" stroke="rgb(204, 204, 204)" stroke-width="1px"></line><line x1="41.171875" y1="116.30769230769239" x2="36.171875" y2="116.30769230769239" style="visibility: inherit;" fill="rgb(0, 0, 0)" stroke="rgb(204, 204, 204)" stroke-width="1px"></line><line x1="41.171875" y1="87.2307692307693" x2="36.171875" y2="87.2307692307693" style="visibility: inherit;" fill="rgb(0, 0, 0)" stroke="rgb(204, 204, 204)" stroke-width="1px"></line><line x1="41.171875" y1="58.153846153846196" x2="36.171875" y2="58.153846153846196" style="visibility: inherit;" fill="rgb(0, 0, 0)" stroke="rgb(204, 204, 204)" stroke-width="1px"></line><line x1="41.171875" y1="29.076923076923098" x2="36.171875" y2="29.076923076923098" style="visibility: inherit;" fill="rgb(0, 0, 0)" stroke="rgb(204, 204, 204)" stroke-width="1px"></line><line x1="41.171875" y1="0" x2="36.171875" y2="0" style="visibility: inherit;" fill="rgb(0, 0, 0)" stroke="rgb(204, 204, 204)" stroke-width="1px"></line></g><g transform="translate(31.171875, 0)"><text x="0" y="378" dx="0em" dy="0.3em" style="text-anchor: end; visibility: hidden; font-family: Roboto, sans-serif; font-size: 12px; font-weight: 200;" fill="rgb(50, 49, 63)" stroke="none" stroke-width="1px">4.8</text><text x="0" y="348.9230769230769" dx="0em" dy="0.3em" style="text-anchor: end; visibility: inherit; font-family: Roboto, sans-serif; font-size: 12px; font-weight: 200;" fill="rgb(50, 49, 63)" stroke="none" stroke-width="1px">5</text><text x="0" y="319.8461538461538" dx="0em" dy="0.3em" style="text-anchor: end; visibility: inherit; font-family: Roboto, sans-serif; font-size: 12px; font-weight: 200;" fill="rgb(50, 49, 63)" stroke="none" stroke-width="1px">5.2</text><text x="0" y="290.7692307692307" dx="0em" dy="0.3em" style="text-anchor: end; visibility: inherit; font-family: Roboto, sans-serif; font-size: 12px; font-weight: 200;" fill="rgb(50, 49, 63)" stroke="none" stroke-width="1px">5.4</text><text x="0" y="261.6923076923078" dx="0em" dy="0.3em" style="text-anchor: end; visibility: inherit; font-family: Roboto, sans-serif; font-size: 12px; font-weight: 200;" fill="rgb(50, 49, 63)" stroke="none" stroke-width="1px">5.6</text><text x="0" y="232.61538461538464" dx="0em" dy="0.3em" style="text-anchor: end; visibility: inherit; font-family: Roboto, sans-serif; font-size: 12px; font-weight: 200;" fill="rgb(50, 49, 63)" stroke="none" stroke-width="1px">5.8</text><text x="0" y="203.53846153846158" dx="0em" dy="0.3em" style="text-anchor: end; visibility: inherit; font-family: Roboto, sans-serif; font-size: 12px; font-weight: 200;" fill="rgb(50, 49, 63)" stroke="none" stroke-width="1px">6</text><text x="0" y="174.46153846153848" dx="0em" dy="0.3em" style="text-anchor: end; visibility: inherit; font-family: Roboto, sans-serif; font-size: 12px; font-weight: 200;" fill="rgb(50, 49, 63)" stroke="none" stroke-width="1px">6.2</text><text x="0" y="145.38461538461536" dx="0em" dy="0.3em" style="text-anchor: end; visibility: inherit; font-family: Roboto, sans-serif; font-size: 12px; font-weight: 200;" fill="rgb(50, 49, 63)" stroke="none" stroke-width="1px">6.4</text><text x="0" y="116.30769230769239" dx="0em" dy="0.3em" style="text-anchor: end; visibility: inherit; font-family: Roboto, sans-serif; font-size: 12px; font-weight: 200;" fill="rgb(50, 49, 63)" stroke="none" stroke-width="1px">6.6</text><text x="0" y="87.2307692307693" dx="0em" dy="0.3em" style="text-anchor: end; visibility: inherit; font-family: Roboto, sans-serif; font-size: 12px; font-weight: 200;" fill="rgb(50, 49, 63)" stroke="none" stroke-width="1px">6.8</text><text x="0" y="58.153846153846196" dx="0em" dy="0.3em" style="text-anchor: end; visibility: inherit; font-family: Roboto, sans-serif; font-size: 12px; font-weight: 200;" fill="rgb(50, 49, 63)" stroke="none" stroke-width="1px">7</text><text x="0" y="29.076923076923098" dx="0em" dy="0.3em" style="text-anchor: end; visibility: inherit; font-family: Roboto, sans-serif; font-size: 12px; font-weight: 200;" fill="rgb(50, 49, 63)" stroke="none" stroke-width="1px">7.2</text><text x="0" y="0" dx="0em" dy="0.3em" style="text-anchor: end; visibility: hidden; font-family: Roboto, sans-serif; font-size: 12px; font-weight: 200;" fill="rgb(50, 49, 63)" stroke="none" stroke-width="1px">7.4</text></g><line x1="41.171875" y1="0" x2="41.171875" y2="378" fill="rgb(0, 0, 0)" stroke="rgb(204, 204, 204)" stroke-width="1px"></line></g></g><g transform="translate(41, 0)" clip-path="url(#clip_0)"><clipPath id="clip_0"><rect width="1456" height="378"></rect></clipPath><g><g><g><line x1="0" y1="0" x2="0" y2="378" fill="rgb(0, 0, 0)" stroke="rgb(60, 60, 60)" stroke-width="1px" opacity="0.25"></line><line x1="121.40234375" y1="0" x2="121.40234375" y2="378" fill="rgb(0, 0, 0)" stroke="rgb(60, 60, 60)" stroke-width="1px" opacity="0.25"></line><line x1="242.8046875" y1="0" x2="242.8046875" y2="378" fill="rgb(0, 0, 0)" stroke="rgb(60, 60, 60)" stroke-width="1px" opacity="0.25"></line><line x1="364.20703125" y1="0" x2="364.20703125" y2="378" fill="rgb(0, 0, 0)" stroke="rgb(60, 60, 60)" stroke-width="1px" opacity="0.25"></line><line x1="485.609375" y1="0" x2="485.609375" y2="378" fill="rgb(0, 0, 0)" stroke="rgb(60, 60, 60)" stroke-width="1px" opacity="0.25"></line><line x1="607.01171875" y1="0" x2="607.01171875" y2="378" fill="rgb(0, 0, 0)" stroke="rgb(60, 60, 60)" stroke-width="1px" opacity="0.25"></line><line x1="728.4140625" y1="0" x2="728.4140625" y2="378" fill="rgb(0, 0, 0)" stroke="rgb(60, 60, 60)" stroke-width="1px" opacity="0.25"></line><line x1="849.81640625" y1="0" x2="849.81640625" y2="378" fill="rgb(0, 0, 0)" stroke="rgb(60, 60, 60)" stroke-width="1px" opacity="0.25"></line><line x1="971.21875" y1="0" x2="971.21875" y2="378" fill="rgb(0, 0, 0)" stroke="rgb(60, 60, 60)" stroke-width="1px" opacity="0.25"></line><line x1="1092.62109375" y1="0" x2="1092.62109375" y2="378" fill="rgb(0, 0, 0)" stroke="rgb(60, 60, 60)" stroke-width="1px" opacity="0.25"></line><line x1="1214.0234375" y1="0" x2="1214.0234375" y2="378" fill="rgb(0, 0, 0)" stroke="rgb(60, 60, 60)" stroke-width="1px" opacity="0.25"></line><line x1="1335.42578125" y1="0" x2="1335.42578125" y2="378" fill="rgb(0, 0, 0)" stroke="rgb(60, 60, 60)" stroke-width="1px" opacity="0.25"></line><line x1="1456.828125" y1="0" x2="1456.828125" y2="378" fill="rgb(0, 0, 0)" stroke="rgb(60, 60, 60)" stroke-width="1px" opacity="0.25"></line></g><g><line x1="0" y1="378" x2="1456.828125" y2="378" fill="rgb(0, 0, 0)" stroke="rgb(60, 60, 60)" stroke-width="1px" opacity="0.25"></line><line x1="0" y1="348.9230769230769" x2="1456.828125" y2="348.9230769230769" fill="rgb(0, 0, 0)" stroke="rgb(60, 60, 60)" stroke-width="1px" opacity="0.25"></line><line x1="0" y1="319.8461538461538" x2="1456.828125" y2="319.8461538461538" fill="rgb(0, 0, 0)" stroke="rgb(60, 60, 60)" stroke-width="1px" opacity="0.25"></line><line x1="0" y1="290.7692307692307" x2="1456.828125" y2="290.7692307692307" fill="rgb(0, 0, 0)" stroke="rgb(60, 60, 60)" stroke-width="1px" opacity="0.25"></line><line x1="0" y1="261.6923076923078" x2="1456.828125" y2="261.6923076923078" fill="rgb(0, 0, 0)" stroke="rgb(60, 60, 60)" stroke-width="1px" opacity="0.25"></line><line x1="0" y1="232.61538461538464" x2="1456.828125" y2="232.61538461538464" fill="rgb(0, 0, 0)" stroke="rgb(60, 60, 60)" stroke-width="1px" opacity="0.25"></line><line x1="0" y1="203.53846153846158" x2="1456.828125" y2="203.53846153846158" fill="rgb(0, 0, 0)" stroke="rgb(60, 60, 60)" stroke-width="1px" opacity="0.25"></line><line x1="0" y1="174.46153846153848" x2="1456.828125" y2="174.46153846153848" fill="rgb(0, 0, 0)" stroke="rgb(60, 60, 60)" stroke-width="1px" opacity="0.25"></line><line x1="0" y1="145.38461538461536" x2="1456.828125" y2="145.38461538461536" fill="rgb(0, 0, 0)" stroke="rgb(60, 60, 60)" stroke-width="1px" opacity="0.25"></line><line x1="0" y1="116.30769230769239" x2="1456.828125" y2="116.30769230769239" fill="rgb(0, 0, 0)" stroke="rgb(60, 60, 60)" stroke-width="1px" opacity="0.25"></line><line x1="0" y1="87.2307692307693" x2="1456.828125" y2="87.2307692307693" fill="rgb(0, 0, 0)" stroke="rgb(60, 60, 60)" stroke-width="1px" opacity="0.25"></line><line x1="0" y1="58.153846153846196" x2="1456.828125" y2="58.153846153846196" fill="rgb(0, 0, 0)" stroke="rgb(60, 60, 60)" stroke-width="1px" opacity="0.25"></line><line x1="0" y1="29.076923076923098" x2="1456.828125" y2="29.076923076923098" fill="rgb(0, 0, 0)" stroke="rgb(60, 60, 60)" stroke-width="1px" opacity="0.25"></line><line x1="0" y1="0" x2="1456.828125" y2="0" fill="rgb(0, 0, 0)" stroke="rgb(60, 60, 60)" stroke-width="1px" opacity="0.25"></line></g></g></g><g><g><line x1="0" y1="1075.8461538461538" x2="1456.828125" y2="1075.8461538461538" fill="rgb(0, 0, 0)" stroke="rgb(153, 153, 153)" stroke-width="1.5px"></line></g></g><g><g><line x1="121.40234375" y1="0" x2="121.40234375" y2="378" fill="rgb(0, 0, 0)" stroke="rgb(153, 153, 153)" stroke-width="1.5px"></line></g></g><g><g><g><g><g><path stroke="rgb(238, 51, 119)" stroke-width="2px" d="M161.2223125,381.69048828400395L166.07840625,368.4500910413019L170.93449999999999,331.3379594490294L175.79059375,309.21482126770866L180.64668749999998,266.85206287182945L185.50278125,241.49350229844867L190.35887499999998,226.299579403784L195.21496875000003,217.19084946961127L200.0710625,211.7283532669357L204.92715625,208.45184197163732L209.78324999999998,206.48629017701202L214.63934375000002,176.22839185016292L219.4954375,187.15281913985262L224.35153125,193.70721988286184L229.20762499999998,197.639768305974L234.06371875000002,229.0764169406075L238.9198125,218.86118637609118L243.77590625,212.73207901581046L248.632,209.0546257518076L253.48809375,206.84815780817036L258.34418750000003,234.60121942020476L263.20028125,280.329979270414L268.056375,307.7672243971383L272.91246874999996,266.07571372352413L277.76856250000003,241.06081085864767L282.62465625,226.05187041386665L287.48075,217.04650660569035L292.33684375,211.6432884859138L297.19293749999997,208.4013576734941L302.04903125,206.45619920744323L306.905125,205.28910413551688L311.76121875,204.58884709513447L316.61731249999997,204.1686928719037L321.47340625000004,203.91660033832468L326.3295,203.7653448183067L331.18559375,203.67459150634232L336.04168749999997,203.6201395191806L340.89778125000004,203.58746832688956L345.753875,203.5678656115171L350.60996875,203.5561039822944L355.46606249999996,203.54904700476115L360.32215625,203.54481281824113L365.17825,203.54227230632918L370.03434375,145.38690184505398L374.8904375,110.49367956846949L379.74653125,147.71159235653127L384.60262500000005,170.04234002932674L389.45871874999995,183.44078863298904L394.3148125,191.47985779518106L399.17090625000003,167.2263762155647L404.027,152.67428726779826L408.88309375,173.01995697606512L413.73918749999996,185.2273588010243L418.59528124999997,192.5517998959994L423.45137500000004,196.94646455298428L428.30746875,199.58326334717506L433.1635625,201.16534262368972L438.01965625,173.0376671126754L442.87575,127.08413872914346L447.73184375,157.66586785287083L452.58793749999995,176.0149053271071L457.44403125,187.02432781164887L462.30012500000004,193.62998130237398L467.15621875,197.59337339680886L472.0123125,199.97140865347004L476.86840624999996,201.39822980746655L481.7245,202.25432249986451L486.58059375000005,202.76797811530324L491.4366875,203.07617148456654L496.29278125,203.2610875061245L501.148875,203.37203711905934L506.00496875,203.4386068868202L510.8610625,203.4785487474767L515.71715625,203.5025138638707L520.57325,203.51689293370694L525.42934375,203.52552037560872L530.2854375,203.53069684074987L535.1415312500001,145.3799565659884L539.997625,168.64335855497762L544.85371875,182.6013997483711L549.7098125,190.97622446440724L554.56590625,196.001119294029L559.422,199.016056191802L564.2780937499999,142.67117217661956L569.1341874999999,167.0180879213563L573.9902812500001,181.62623736819845L578.846375,190.39112703630366L583.70246875,195.65006083716682L588.5585625,140.65157496383853L593.41465625,136.72940651676467L598.27075,134.37610544852043L603.1268437499999,103.88720173065076L607.9829375,143.74770565377509L612.8390312500001,167.6640080076497L617.695125,182.01378941997444L622.55121875,190.6236582673693L627.4073125,195.78957957580616L632.26340625,198.88913236086822L637.1195,142.59501787805937L641.97559375,166.97239534222015L646.8316875,181.5988218207166L651.6877812500001,190.3746777078146L656.543875,195.6401912400733L661.39996875,198.7994993594286L666.2560625,200.6950842310418L671.11215625,201.8324351540097L675.96825,202.5148457077904L680.82434375,202.92429204005882L685.6804375,174.09303676249684L690.5365312499999,185.87120667288272L695.392625,134.78426246526817L700.2487187500001,104.13209594069937L705.1048125,85.74079602595813L709.96090625,74.70601607711333L714.817,68.08514810780653L719.67309375,64.11262732622251L724.5291875,61.72911485727197L729.38528125,60.299007375901695L734.2413750000001,59.44094288707952L739.09746875,58.92610419378625L743.9535625000001,58.61720097781016L748.80965625,58.43185904822449L753.66575,58.320653890473146L758.5218437500001,58.25393079582225L763.3779375,58.21389693903177L768.2340312499999,58.1898766249576L773.090125,58.17546443651306L777.9462187500001,58.16681712344641L782.8023125,58.16162873560625L787.65840625,116.31236185674832L792.5145000000001,151.2028017294336L797.37059375,172.1370656530447L802.2266874999999,184.69762400721143L807.08278125,192.2339590197114L811.938875,196.75576002721147L816.79496875,199.46884063171152L821.6510625,142.94284284056536L826.50715625,109.02724416587769L831.36325,88.67788496106512L836.2193437499999,134.6221155920237L841.0754375,162.18865397059886L845.93153125,178.72857699774386L850.7876249999999,188.65253081403083L855.6437187500001,194.60690310380298L860.4998125,198.17952647766646L865.35590625,200.3231005019844L870.2120000000001,201.60924491657522L875.06809375,202.38093156532966L879.9241875,202.84394355458238L884.7802812499999,203.1217507481341L889.636375,203.28843506426503L894.49246875,203.38844565394368L899.3485625,203.44845200775077L904.2046562500001,203.4844558200351L909.06075,203.5060581074057L913.91684375,203.51901947982805L918.7729375,203.52679630328151L923.62903125,203.53146239735355L928.4851249999999,203.53426205379677L933.34121875,203.53594184766263L938.1973125000001,203.53694972398227L943.05340625,203.5375544497739L947.9095,203.537917285249L952.76559375,203.53813498653406L957.6216875,203.538265607305L962.4777812499999,203.53834397976757L967.333875,203.5383910032451L972.18996875,203.53841921733172L977.0460625,261.69228229962994L981.9021562500001,296.5846001490087L986.75825,317.5199908586359L991.61434375,301.0043022074893L996.4704375000001,262.0179659398781L1001.32653125,238.6261641793114L1006.182625,224.5910831229715L1011.0387187499999,216.17003448916753L1015.8948125000001,211.11740530888514L1020.75090625,208.08582780071566L1025.607,206.26688129581402L1030.46309375,205.175513392873L1035.3191875,204.5206926511083L1040.17528125,204.1278002060495L1045.031375,203.89206473901433L1049.88746875,203.7506234587932L1054.7435625,203.66575869066045L1059.5996562500002,203.61483982978095L1064.45575,203.58428851325326L1069.31184375,203.56595772333654L1074.1679374999999,203.5549592493866L1079.02403125,203.54836016501653L1083.880125,203.54440071439444L1088.73621875,203.54202504402133L1093.5923125000002,203.54059964179748L1098.44840625,203.5397444004631L1103.3045,203.5392312556625L1108.16059375,203.5389233687821L1113.0166875,203.5387386366538L1117.87278125,203.53862779737682L1122.728875,203.53856129381077L1127.5849687500001,203.53852139167108L1132.4410625,203.53849745038724L1137.29715625,203.53848308561692L1142.15325,203.53847446675476L1147.00934375,203.53846929543735L1151.8654374999999,203.538466192647L1156.72153125,203.53846433097277L1161.577625,203.53846321396827L1166.43371875,203.53846254376558L1171.2898125000002,203.5384621416439L1176.14590625,203.538461900371L1181.002,203.53846175560722L1185.8580937499999,203.53846166874888L1190.7141875,203.5384616166339L1195.5702812499999,203.53846158536493L1200.426375,203.5384615666036L1205.2824687500001,203.53846155534677L1210.1385625,174.46153847166968L1214.99465625,157.0153846214634L1219.85075,175.6246153882627L1224.70684375,186.79015384834224L1229.5629374999999,193.4894769243899L1234.41903125,197.5090707700186L1239.2751250000001,199.92082707739573L1244.13121875,201.36788086182202L1248.9873125,144.08226697863165L1253.84340625,167.8647448025636L1258.6995,182.13423149692275L1263.5555937499998,190.6959235135382L1268.4116875,195.83293872350745L1273.26778125,198.91514784948902L1278.123875,200.76447332507803L1282.9799687500001,201.8740686104314L1287.8360625,202.5398257816435L1292.69215625,202.93928008437072L1297.54825,203.17895266600704L1302.40434375,203.3227562149888L1307.2604375,203.40903834437782L1312.11653125,203.46080762201132L1316.972625,203.49186918859138L1321.82871875,203.51050612853945L1326.6848125,203.52168829250832L1331.54090625,203.5283975908896L1336.397,203.5324231699183L1341.25309375,203.53483851733557L1346.1091875,203.53628772578602L1350.96528125,203.53715725085613L1355.821375,174.46075588897529L1360.6774687500001,127.93799199492372L1365.5335625,100.02433365849261L1370.38965625,83.27613865663393L1375.2457499999998,131.3810678093649L1380.10184375,102.09017914715741L1384.9579375,84.5156459498328L1389.81403125,103.0478491083611L1394.670125,143.24409408040128L1399.52621875,167.36184106362538L1404.3823125,181.83248925355986" style="fill: none;" fill="none"></path></g><g><path stroke="rgb(51, 187, 238)" stroke-width="2px" d="M161.2223125,386.74971118595624L166.07840625,312.7191538756747L170.93449999999999,268.7812009412682L175.79059375,242.58908093987642L180.64668749999998,256.07511241132323L185.50278125,293.2628680057206L190.35887499999998,315.54441231861165L195.21496875000003,328.90215877220805L200.0710625,336.91278591851636L204.92715625,341.71771563443014L209.78324999999998,315.5202764621786L214.63934375000002,270.7248208379725L219.4954375,243.8492945063436L224.35153125,227.72460759272994L229.20762499999998,218.0500218324763L234.06371875000002,212.24535187363742L238.9198125,208.76257923686214L243.77590625,206.6729262165581L248.632,205.41913820658627L253.48809375,204.66686676939364L258.34418750000003,262.36938626565075L263.20028125,238.83700770411642L268.056375,224.7175861164186L272.91246874999996,216.24593516151904L277.76856250000003,211.1629453077581L282.62465625,208.11315165440573L287.48075,148.12942773557745L292.33684375,112.13919448418731L297.19293749999997,90.54505492931982L302.04903125,77.58857133894712L306.905125,127.96852760582338L311.76121875,158.19650124622405L316.61731249999997,176.33328538736336L321.47340625000004,187.21535585653058L326.3295,193.74459813244493L331.18559375,139.50829732534518L336.04168749999997,106.96651685110793L340.89778125000004,87.44144857017358L345.753875,133.8802537603852L350.60996875,161.7435368726583L355.46606249999996,178.461506739355L360.32215625,188.49228865913275L365.17825,194.51075781091288L370.03434375,198.12183930194996L374.8904375,200.2884881965608L379.74653125,201.58847753332319L384.60262500000005,202.36847113537934L389.45871874999995,202.8364672966125L394.3148125,203.11726499335217L399.17090625000003,203.285743611396L404.027,203.3868307822222L408.88309375,203.4474830847179L413.73918749999996,203.48387446621538L418.59528124999997,203.50570929511383L423.45137500000004,203.51881019245295L428.30746875,203.52667073085644L433.1635625,203.53138705389844L438.01965625,203.53421684772357L442.87575,203.5359147240187L447.73184375,203.53693344979584L452.58793749999995,203.5375446852621L457.44403125,203.53791142654177L462.30012500000004,203.5381314713096L467.15621875,203.5382634981702L472.0123125,203.53834271428678L476.86840624999996,203.53839024395654L481.7245,203.5384187617586L486.58059375000005,203.5384358724397L491.4366875,203.5384461388484L496.29278125,145.3846061448475L501.148875,110.49230214844688L506.00496875,89.55691975060668L510.8610625,76.99569031190244L515.71715625,69.45895264867983L520.57325,64.9369100507465L525.42934375,62.22368449198647L530.2854375,89.67267223365343L535.1415312500001,135.21898795557664L539.997625,162.54677738873065L544.85371875,178.94345104862296L549.7098125,188.7814552445583L554.56590625,194.68425776211956L559.422,198.2259392726563L564.2780937499999,200.3509481789783L569.1341874999999,201.62595352277162L573.9902812500001,202.39095672904756L578.846375,202.84995865281311L583.70246875,203.1253598070725L588.5585625,145.13675434578195L593.41465625,139.42051414593067L598.27075,106.91384694909688L603.1268437499999,145.56369278484277L607.9829375,168.75360028629032L612.8390312500001,182.66754478715876L617.695125,191.0159114876799L622.55121875,196.02493150799262L627.4073125,199.03034352018017L632.26340625,200.8335907274927L637.1195,201.9155390518802L641.97559375,202.56470804651275L646.8316875,202.95420944329223L651.6877812500001,203.18791028135996L656.543875,203.3281307842005L661.39996875,203.41226308590484L666.2560625,203.4627424669275L671.11215625,203.493030095541L675.96825,203.5112026727092L680.82434375,203.52210621901017L685.6804375,203.5286483467907L690.5365312499999,203.53257362345906L695.392625,203.53492878946L700.2487187500001,203.53634188906057L705.1048125,145.3833435949748L709.96090625,168.6453907723695L714.817,182.6026190788063L719.67309375,190.9769560626683L724.5291875,196.0015582529857L729.38528125,199.016319567176L734.2413750000001,200.82517635569022L739.09746875,172.8335673518756L743.9535625000001,156.038601949587L748.80965625,175.03854578513682L753.66575,186.43851208646672L758.5218437500001,193.27849186726453L763.3779375,197.3824797357433L768.2340312499999,199.84487245683053L773.090125,201.32230808948302L777.9462187500001,202.20876946907435L782.8023125,202.74064629682925L787.65840625,173.9828493165592L792.5145000000001,127.651248051474L797.37059375,99.85228729242279L802.2266874999999,83.17291083699213L807.08278125,73.16528496373382L811.938875,125.31455559362492L816.79496875,98.45027181771353L821.6510625,111.40862462908976L826.50715625,90.10671323899231L831.36325,77.32556640493378L836.2193437499999,69.65687830449883L841.0754375,65.05566544423766L845.93153125,62.294937728081145L850.7876249999999,60.63850109838717L855.6437187500001,59.64463912057065L860.4998125,88.12524501080406L865.35590625,105.2136085449441L870.2120000000001,115.4666266654279L875.06809375,150.6953606146414L879.9241875,171.83260098416943L884.7802812499999,184.51494520588625L889.636375,133.97050558507016L894.49246875,103.64384181258058L899.3485625,85.44784354908671L904.2046562500001,74.53024459099045L909.06075,67.97968521613272L913.91684375,64.0493495912182L918.7729375,119.84499437011544L923.62903125,95.16853508360772L928.4851249999999,80.36265951170304L933.34121875,71.47913416856021L938.1973125000001,66.14901896267455L943.05340625,62.950949839143085L947.9095,61.0321083650244L952.76559375,118.03464963439923L957.6216875,152.2361743960241L962.4777812499999,143.68016617607594L967.333875,138.54656124410715L972.18996875,135.46639828492587L977.0460625,104.54137743249393L981.9021562500001,144.14021107488097L986.75825,138.82258818339005L991.61434375,106.55509137157242L996.4704375000001,87.19459328448201L1001.32653125,75.57829443222779L1006.182625,39.531592043952124L1011.0387187499999,46.98049368790966L1015.8948125000001,51.449834674284396L1020.75090625,83.20836234303222L1025.607,131.34040202120394L1030.46309375,160.21962582810698L1035.3191875,148.47023703532577L1040.17528125,112.34368068273396L1045.031375,90.66774687117884L1049.88746875,77.66218658424582L1054.7435625,98.93577348900915L1059.5996562500002,140.77684870879003L1064.45575,165.88149384065866L1069.31184375,180.94428091977977L1074.1679374999999,160.90503009032935L1079.02403125,119.80455651573612L1083.880125,95.14427237098015L1088.73621875,109.42502496104959L1093.5923125000002,88.91655343816828L1098.44840625,134.76531667828561L1103.3045,162.27457462235603L1108.16059375,178.78012938879814L1113.0166875,130.52961609481727L1117.87278125,130.6562311953519L1122.728875,130.7322002556726L1127.5849687500001,101.700858614942L1132.4410625,142.43589978434983L1137.29715625,166.87692448599458" style="fill: none;" fill="none"></path></g><g><path stroke="rgb(187, 187, 187)" stroke-width="2px" d="M151.510125,379.49132446500874L156.36621875,307.0832156597387L161.2223125,264.9577682565726L166.07840625,240.13993903101303L170.93449999999999,225.4102834392492L175.79059375,216.6296989770056L180.64668749999998,211.38178042518354L185.50278125,208.24034994426634L190.35887499999998,206.35811958785936L195.21496875000003,205.22972581429124L200.0710625,204.5530292004071L204.92715625,204.14713343103435L209.78324999999998,232.9835163727303L214.63934375000002,221.20477669004768L219.4954375,272.29396468491814L224.35153125,244.791160098669L229.20762499999998,228.28986348170815L234.06371875000002,218.38922451607144L238.9198125,241.52595203258844L243.77590625,226.33091263500282L248.632,275.3678619983083L253.48809375,304.78997808146806L258.34418750000003,322.4432284588707L263.20028125,333.03517174722396L268.056375,339.39033522252595L272.91246874999996,343.2034324085321L277.76856250000003,345.491290396433L282.62465625,346.8640050726403L287.48075,289.53378601639037L292.33684375,284.2125792106666L297.19293749999997,251.94293180894175L302.04903125,232.5811435809261L306.905125,220.96407072080387L311.76121875,213.99382703233778L316.61731249999997,209.81168082919683L321.47340625000004,207.30239311089L326.3295,205.796820481194L331.18559375,204.89347690384008L336.04168749999997,204.35147075759477L340.89778125000004,204.0262670699075L345.753875,203.831144857317L350.60996875,203.7140715297705L355.46606249999996,203.64382753324523L360.32215625,203.60168113533126L365.17825,203.5763932965831L370.03434375,174.4842975162704L374.8904375,127.95211697116535L379.74653125,100.0328086441889L384.60262500000005,83.28122364803419L389.45871874999995,73.2302726503528L394.3148125,67.19970205174774L399.17090625000003,63.58135969258624L404.027,61.410354277089894L408.88309375,60.1077510277924L413.73918749999996,88.40311215513836L418.59528124999997,134.45725190846892L423.45137500000004,162.08973576046645L428.30746875,178.6692260716646L433.1635625,188.61692025838354L438.01965625,194.5855367704147L442.87575,198.16670667763333L447.73184375,200.31540862196468L452.58793749999995,201.60462978856347L457.44403125,202.37816248852266L462.30012500000004,173.76535903157512L467.15621875,185.67460003432961L472.0123125,192.8201446359824L476.86840624999996,197.10747139697398L481.7245,199.67986745356907L486.58059375000005,201.22330508752606L491.4366875,202.14936766790024L496.29278125,202.70500521612482L501.148875,203.03838774505954L506.00496875,203.23841726242026L510.8610625,203.35843497283665L515.71715625,203.43044559908657L520.57325,203.47365197483663L525.42934375,203.49957580028646L530.2854375,203.51513009555637L535.1415312500001,203.5244626727185L539.997625,203.53006221901575L544.85371875,203.533421946794L549.7098125,203.53543778346096L554.56590625,203.53664728546119L559.422,203.53737298666135L564.2780937499999,203.53780840738142L569.1341874999999,174.46114658289036L573.9902812500001,127.93822641127264L578.846375,100.02447430830208L583.70246875,83.27622304651959L588.5585625,73.22727228945035L593.41465625,67.19790183520874L598.27075,63.580279562663776L603.1268437499999,61.40970619913675L607.9829375,60.107362181020555L612.8390312500001,59.32595577015083L617.695125,58.857111923628885L622.55121875,116.72965176956194L627.4073125,122.37625260019868L632.26340625,154.84113617550386L637.1195,174.320066320687L641.97559375,186.0074244077968L646.8316875,193.01983926006278L651.6877812500001,197.22728817142223L656.543875,199.751757518238L661.39996875,201.26643912632738L666.2560625,202.17524809118106L671.11215625,202.72053347009327L675.96825,203.0477046974406L680.82434375,203.244007433849L685.6804375,203.361789075694L690.5365312499999,203.43245806080097L695.392625,203.47485945186514L700.2487187500001,203.5003002865037L705.1048125,203.5155647872869L709.96090625,203.5247234877568L714.817,203.5302187080386L719.67309375,203.53351584020777L724.5291875,203.53549411950925L729.38528125,203.5366810870901L734.2413750000001,203.5373932676387L739.09746875,203.5378205759678L743.9535625000001,203.53807696096527L748.80965625,203.53823079196385L753.66575,145.38447693671682L758.5218437500001,110.49222462356859L763.3779375,147.7107193895257L768.2340312499999,140.96489317217703L773.090125,136.9173974417678L777.9462187500001,163.56582308044523L782.8023125,150.47795538672867L787.65840625,113.54831169357573L792.5145000000001,149.54437163153005L797.37059375,171.1420075943027L802.2266874999999,184.10058917196625L807.08278125,191.87573811856439L811.938875,196.54082748652326L816.79496875,199.33988110729854L821.6510625,201.0193132797636L826.50715625,202.02697258324278" style="fill: none;" fill="none"></path></g><g><path stroke="rgb(0, 153, 136)" stroke-width="2px" d="M146.65403125,378.8878449794481L151.510125,366.3153556969346L156.36621875,299.3294205596874L161.2223125,260.35847470934317L166.07840625,237.3990917592721L170.93449999999999,223.77244454607947L175.79059375,215.64938110802206L180.64668749999998,210.79444514134303L185.50278125,207.88825601549783L190.35887499999998,206.14697368333913L195.21496875000003,205.1030780013128L200.0710625,204.47705480814903L204.92715625,204.1015539405209L209.78324999999998,203.8762941023178L214.63934375000002,203.7411528418109L219.4954375,203.66007335607677L224.35153125,145.4563056620055L229.20762499999998,110.53486221675315L234.06371875000002,89.58229032279773L238.9198125,106.08791394207906L243.77590625,145.06824380283248L248.632,168.45637079295534L253.48809375,182.4892214536453L258.34418750000003,249.06280452387062L263.20028125,289.0069282012265L268.056375,254.8195339781792L272.91246874999996,234.30710228143383L277.76856250000003,221.99964500473624L282.62465625,214.61517126560315L287.48075,181.1075633377909L292.33684375,190.07992277230034L297.19293749999997,195.4633383342916L302.04903125,256.8472341496894L306.905125,293.67757139580266L311.76121875,315.77577365594533L316.61731249999997,299.95777186473003L321.47340625000004,261.3900477032894L326.3295,180.09556704439075L331.18559375,131.31887867408918L336.04168749999997,160.20671182484259L340.89778125000004,177.53941171209195L345.753875,187.93903164328825L350.60996875,194.178803601591L355.46606249999996,197.92266677642334L360.32215625,200.16898468126885L365.17825,201.51677542415672L370.03434375,202.32544986988265L374.8904375,202.81065453731568L379.74653125,261.2556234917222L384.60262500000005,238.16875871039383L389.45871874999995,224.31663984161221L394.3148125,216.0053685203489L399.17090625000003,211.01860572759284L404.027,208.02654805193978L408.88309375,206.2313134465483L413.73918749999996,205.15417268331365L418.59528124999997,204.5078882253726L423.45137500000004,204.12011755060837L428.30746875,203.88745514574958L433.1635625,203.74785770283438L438.01965625,203.66409923708522L442.87575,203.61384415763553L447.73184375,145.42984495611972L452.58793749999995,110.5194454352103L457.44403125,89.57320572266474L462.30012500000004,135.15930804898343L467.15621875,133.43404636785152L472.0123125,161.4758124360955L476.86840624999996,120.14702592319577L481.7245,153.50360016930222L486.58059375000005,115.36369856311985L491.4366875,121.5566806763335L496.29278125,96.1955468673385L501.148875,80.97886658194157L506.00496875,71.84885841070337L510.8610625,95.44777658488357L515.71715625,138.6840505663148L520.57325,106.47196880132726L525.42934375,145.2985658961809L530.2854375,168.59452415309318L535.1415312500001,124.41825295339434L539.997625,97.91249023357506L544.85371875,82.00903260168353L549.7098125,72.46695802254861L554.56590625,66.7417132750676L559.422,63.30656642657899L564.2780937499999,61.24547831748595L569.1341874999999,60.00882545203016L573.9902812500001,59.266833732756645L578.846375,58.82163870119244L583.70246875,58.554521682254034L588.5585625,58.39425147089088L593.41465625,58.29808934407293L598.27075,58.240392067982235L603.1268437499999,58.20577370232772L607.9829375,58.18500268293512L612.8390312500001,87.24946314822255L617.695125,104.68813942739517L622.55121875,144.22826827182166L627.4073125,138.87542250155454L632.26340625,106.58679196247128L637.1195,87.21361363902133L641.97559375,75.58970664495122L646.8316875,68.61536244850916L651.6877812500001,122.58460208449013L656.543875,154.96614586607868L661.39996875,174.39507213503185L666.2560625,186.05242789640363L671.11215625,193.04684135322677L675.96825,168.16656635039763L680.82434375,124.16147827177701L685.6804375,97.75842542460467L690.5365312499999,81.91659371630138L695.392625,72.4114946913194L700.2487187500001,124.86228143017621L705.1048125,156.33275347349036L709.96090625,175.2150366994787L714.817,186.54440663507185L719.67309375,193.3420285964276L724.5291875,197.42060177324117L729.38528125,199.86774567932923L734.2413750000001,201.33603202298218L739.09746875,202.2170038291739L743.9535625000001,202.74558691288897L748.80965625,203.06273676311798L753.66575,203.25302667325545L758.5218437500001,203.3672006193379L763.3779375,203.43570498698733L768.2340312499999,203.476807607577L773.090125,203.5014691799308L777.9462187500001,203.51626612334314L782.8023125,203.52514428939043L787.65840625,203.53047118901875L792.5145000000001,203.53366732879576L797.37059375,203.53558501266215L802.2266874999999,203.53673562298184L807.08278125,203.53742598917367L811.938875,203.5378402088888L816.79496875,203.53808874071782L821.6510625,203.53823785981524L826.50715625,174.46140425435067L831.36325,186.09222716799496L836.2193437499999,193.0707209161816L841.0754375,139.10397101124744L845.93153125,106.72392106828703L850.7876249999999,87.29589110251074L855.6437187500001,75.63907312304502L860.4998125,68.6449823353654L865.35590625,64.4485278627578L870.2120000000001,120.08450133303926L875.06809375,153.46608541520808L879.9241875,173.49503586450942L884.7802812499999,185.5124061340902L889.636375,192.72282829583875L894.49246875,197.04908159288786L899.3485625,170.56791049419417L904.2046562500001,154.67920783497806L909.06075,116.06906316252537L913.91684375,121.9798994359767L918.7729375,154.60332427697068L923.62903125,174.17737918156703L928.4851249999999,185.92181212432484L933.34121875,192.9684718899795L938.1973125000001,197.19646774937226L943.05340625,199.733265265008L947.9095,201.2553437743894L952.76559375,202.1685908800183L957.6216875,173.6396160664726L962.4777812499999,127.44530810142194L967.333875,99.72872332239153L972.18996875,83.09877245497348L977.0460625,73.12080193452252L981.9021562500001,67.13401962225203L986.75825,63.54195023488979L991.61434375,61.38670860247245L996.4704375000001,60.09356362302208L1001.32653125,30.24075355842868L1006.182625,41.40599059659566L1011.0387187499999,48.105132819495815L1015.8948125000001,52.124618153236064L1020.75090625,54.536309353480235L1025.607,55.98332407362656L1030.46309375,56.8515329057143L1035.3191875,86.44938128189024L1040.17528125,75.13116723067273L1045.031375,68.34023879994217L1049.88746875,64.26568174150385L1054.7435625,61.820947506440824L1059.5996562500002,60.354106965403034L1064.45575,59.47400264078039L1069.31184375,58.94594004600676L1074.1679374999999,58.62910248914259L1079.02403125,58.43899995502412L1083.880125,58.32493843455295L1088.73621875,58.256501522270376L1093.5923125000002,58.215439374900626L1098.44840625,58.19080208647898L1103.3045,58.176019713425916L1108.16059375,58.16715028959401L1113.0166875,58.161828635294796L1117.87278125,58.15863564271543L1122.728875,87.2336429240907L1127.5849687500001,75.6017242159929L1132.4410625,68.6225729911343L1137.29715625,64.43508225621912L1142.15325,61.92258781527001L1147.00934375,60.415091150700476L1151.8654374999999,1.3567469981126687L1156.72153125,-5.001336416516977L1161.577625,20.26073661162837L1166.43371875,35.41798042851542L1171.2898125000002,44.51232671864771L1176.14590625,49.96893449272711L1181.002,53.242899157174755L1185.8580937499999,-2.9465681980027996L1205.2824687500001,-0.7075367769224861L1210.1385625,22.837016395385056L1214.99465625,36.96374829876942L1219.85075,45.43978744080017L1224.70684375,50.52541092601871L1229.5629374999999,53.57678501714975L1234.41903125,55.407609471828316L1239.2751250000001,-1.6477420092106132L1244.13121875,-35.88095289783402L1248.9873125,1.7329667228379584L1253.84340625,24.30131849524134L1258.6995,37.84232955868331L1263.5555937499998,45.96693619674854L1268.4116875,50.84170017958752L1273.26778125,24.68963549236795L1278.123875,8.99839668003626L1282.9799687500001,-29.493269684285973" style="fill: none;" fill="none"></path></g></g></g></g><g opacity="0.2"><g><g><g><path stroke="rgb(238, 51, 119)" stroke-width="2px" d="M146.65403125,494.3076923076922L151.510125,348.9230769230769L156.36621875,348.9230769230769L161.2223125,348.9230769230769L166.07840625,348.9230769230769L170.93449999999999,276.2307692307693L175.79059375,276.2307692307693L180.64668749999998,203.53846153846158L185.50278125,203.53846153846158L190.35887499999998,203.53846153846158L195.21496875000003,203.53846153846158L200.0710625,203.53846153846158L204.92715625,203.53846153846158L209.78324999999998,203.53846153846158L214.63934375000002,130.8461538461539L219.4954375,203.53846153846158L224.35153125,203.53846153846158L229.20762499999998,203.53846153846158L234.06371875000002,276.2307692307693L238.9198125,203.53846153846158L243.77590625,203.53846153846158L248.632,203.53846153846158L253.48809375,203.53846153846158L258.34418750000003,276.2307692307693L263.20028125,348.9230769230769L268.056375,348.9230769230769L272.91246874999996,203.53846153846158L277.76856250000003,203.53846153846158L282.62465625,203.53846153846158L287.48075,203.53846153846158L292.33684375,203.53846153846158L297.19293749999997,203.53846153846158L302.04903125,203.53846153846158L306.905125,203.53846153846158L311.76121875,203.53846153846158L316.61731249999997,203.53846153846158L321.47340625000004,203.53846153846158L326.3295,203.53846153846158L331.18559375,203.53846153846158L336.04168749999997,203.53846153846158L340.89778125000004,203.53846153846158L345.753875,203.53846153846158L350.60996875,203.53846153846158L355.46606249999996,203.53846153846158L360.32215625,203.53846153846158L365.17825,203.53846153846158L370.03434375,58.153846153846196L374.8904375,58.153846153846196L379.74653125,203.53846153846158L384.60262500000005,203.53846153846158L389.45871874999995,203.53846153846158L394.3148125,203.53846153846158L399.17090625000003,130.8461538461539L404.027,130.8461538461539L408.88309375,203.53846153846158L413.73918749999996,203.53846153846158L418.59528124999997,203.53846153846158L423.45137500000004,203.53846153846158L428.30746875,203.53846153846158L433.1635625,203.53846153846158L438.01965625,130.8461538461539L442.87575,58.153846153846196L447.73184375,203.53846153846158L452.58793749999995,203.53846153846158L457.44403125,203.53846153846158L462.30012500000004,203.53846153846158L467.15621875,203.53846153846158L472.0123125,203.53846153846158L476.86840624999996,203.53846153846158L481.7245,203.53846153846158L486.58059375000005,203.53846153846158L491.4366875,203.53846153846158L496.29278125,203.53846153846158L501.148875,203.53846153846158L506.00496875,203.53846153846158L510.8610625,203.53846153846158L515.71715625,203.53846153846158L520.57325,203.53846153846158L525.42934375,203.53846153846158L530.2854375,203.53846153846158L535.1415312500001,58.153846153846196L539.997625,203.53846153846158L544.85371875,203.53846153846158L549.7098125,203.53846153846158L554.56590625,203.53846153846158L559.422,203.53846153846158L564.2780937499999,58.153846153846196L569.1341874999999,203.53846153846158L573.9902812500001,203.53846153846158L578.846375,203.53846153846158L583.70246875,203.53846153846158L588.5585625,58.153846153846196L593.41465625,130.8461538461539L598.27075,130.8461538461539L603.1268437499999,58.153846153846196L607.9829375,203.53846153846158L612.8390312500001,203.53846153846158L617.695125,203.53846153846158L622.55121875,203.53846153846158L627.4073125,203.53846153846158L632.26340625,203.53846153846158L637.1195,58.153846153846196L641.97559375,203.53846153846158L646.8316875,203.53846153846158L651.6877812500001,203.53846153846158L656.543875,203.53846153846158L661.39996875,203.53846153846158L666.2560625,203.53846153846158L671.11215625,203.53846153846158L675.96825,203.53846153846158L680.82434375,203.53846153846158L685.6804375,130.8461538461539L690.5365312499999,203.53846153846158L695.392625,58.153846153846196L700.2487187500001,58.153846153846196L705.1048125,58.153846153846196L709.96090625,58.153846153846196L714.817,58.153846153846196L719.67309375,58.153846153846196L724.5291875,58.153846153846196L729.38528125,58.153846153846196L734.2413750000001,58.153846153846196L739.09746875,58.153846153846196L743.9535625000001,58.153846153846196L748.80965625,58.153846153846196L753.66575,58.153846153846196L758.5218437500001,58.153846153846196L763.3779375,58.153846153846196L768.2340312499999,58.153846153846196L773.090125,58.153846153846196L777.9462187500001,58.153846153846196L782.8023125,58.153846153846196L787.65840625,203.53846153846158L792.5145000000001,203.53846153846158L797.37059375,203.53846153846158L802.2266874999999,203.53846153846158L807.08278125,203.53846153846158L811.938875,203.53846153846158L816.79496875,203.53846153846158L821.6510625,58.153846153846196L826.50715625,58.153846153846196L831.36325,58.153846153846196L836.2193437499999,203.53846153846158L841.0754375,203.53846153846158L845.93153125,203.53846153846158L850.7876249999999,203.53846153846158L855.6437187500001,203.53846153846158L860.4998125,203.53846153846158L865.35590625,203.53846153846158L870.2120000000001,203.53846153846158L875.06809375,203.53846153846158L879.9241875,203.53846153846158L884.7802812499999,203.53846153846158L889.636375,203.53846153846158L894.49246875,203.53846153846158L899.3485625,203.53846153846158L904.2046562500001,203.53846153846158L909.06075,203.53846153846158L913.91684375,203.53846153846158L918.7729375,203.53846153846158L923.62903125,203.53846153846158L928.4851249999999,203.53846153846158L933.34121875,203.53846153846158L938.1973125000001,203.53846153846158L943.05340625,203.53846153846158L947.9095,203.53846153846158L952.76559375,203.53846153846158L957.6216875,203.53846153846158L962.4777812499999,203.53846153846158L967.333875,203.53846153846158L972.18996875,203.53846153846158L977.0460625,348.9230769230769L981.9021562500001,348.9230769230769L986.75825,348.9230769230769L991.61434375,276.2307692307693L996.4704375000001,203.53846153846158L1001.32653125,203.53846153846158L1006.182625,203.53846153846158L1011.0387187499999,203.53846153846158L1015.8948125000001,203.53846153846158L1020.75090625,203.53846153846158L1025.607,203.53846153846158L1030.46309375,203.53846153846158L1035.3191875,203.53846153846158L1040.17528125,203.53846153846158L1045.031375,203.53846153846158L1049.88746875,203.53846153846158L1054.7435625,203.53846153846158L1059.5996562500002,203.53846153846158L1064.45575,203.53846153846158L1069.31184375,203.53846153846158L1074.1679374999999,203.53846153846158L1079.02403125,203.53846153846158L1083.880125,203.53846153846158L1088.73621875,203.53846153846158L1093.5923125000002,203.53846153846158L1098.44840625,203.53846153846158L1103.3045,203.53846153846158L1108.16059375,203.53846153846158L1113.0166875,203.53846153846158L1117.87278125,203.53846153846158L1122.728875,203.53846153846158L1127.5849687500001,203.53846153846158L1132.4410625,203.53846153846158L1137.29715625,203.53846153846158L1142.15325,203.53846153846158L1147.00934375,203.53846153846158L1151.8654374999999,203.53846153846158L1156.72153125,203.53846153846158L1161.577625,203.53846153846158L1166.43371875,203.53846153846158L1171.2898125000002,203.53846153846158L1176.14590625,203.53846153846158L1181.002,203.53846153846158L1185.8580937499999,203.53846153846158L1190.7141875,203.53846153846158L1195.5702812499999,203.53846153846158L1200.426375,203.53846153846158L1205.2824687500001,203.53846153846158L1210.1385625,130.8461538461539L1214.99465625,130.8461538461539L1219.85075,203.53846153846158L1224.70684375,203.53846153846158L1229.5629374999999,203.53846153846158L1234.41903125,203.53846153846158L1239.2751250000001,203.53846153846158L1244.13121875,203.53846153846158L1248.9873125,58.153846153846196L1253.84340625,203.53846153846158L1258.6995,203.53846153846158L1263.5555937499998,203.53846153846158L1268.4116875,203.53846153846158L1273.26778125,203.53846153846158L1278.123875,203.53846153846158L1282.9799687500001,203.53846153846158L1287.8360625,203.53846153846158L1292.69215625,203.53846153846158L1297.54825,203.53846153846158L1302.40434375,203.53846153846158L1307.2604375,203.53846153846158L1312.11653125,203.53846153846158L1316.972625,203.53846153846158L1321.82871875,203.53846153846158L1326.6848125,203.53846153846158L1331.54090625,203.53846153846158L1336.397,203.53846153846158L1341.25309375,203.53846153846158L1346.1091875,203.53846153846158L1350.96528125,203.53846153846158L1355.821375,130.8461538461539L1360.6774687500001,58.153846153846196L1365.5335625,58.153846153846196L1370.38965625,58.153846153846196L1375.2457499999998,203.53846153846158L1380.10184375,58.153846153846196L1384.9579375,58.153846153846196L1389.81403125,130.8461538461539L1394.670125,203.53846153846158L1399.52621875,203.53846153846158L1404.3823125,203.53846153846158" style="fill: none;" fill="none"></path></g><g><path stroke="rgb(51, 187, 238)" stroke-width="2px" d="M146.65403125,494.3076923076922L151.510125,348.9230769230769L156.36621875,348.9230769230769L161.2223125,348.9230769230769L166.07840625,203.53846153846158L170.93449999999999,203.53846153846158L175.79059375,203.53846153846158L180.64668749999998,276.2307692307693L185.50278125,348.9230769230769L190.35887499999998,348.9230769230769L195.21496875000003,348.9230769230769L200.0710625,348.9230769230769L204.92715625,348.9230769230769L209.78324999999998,276.2307692307693L214.63934375000002,203.53846153846158L219.4954375,203.53846153846158L224.35153125,203.53846153846158L229.20762499999998,203.53846153846158L234.06371875000002,203.53846153846158L238.9198125,203.53846153846158L243.77590625,203.53846153846158L248.632,203.53846153846158L253.48809375,203.53846153846158L258.34418750000003,348.9230769230769L263.20028125,203.53846153846158L268.056375,203.53846153846158L272.91246874999996,203.53846153846158L277.76856250000003,203.53846153846158L282.62465625,203.53846153846158L287.48075,58.153846153846196L292.33684375,58.153846153846196L297.19293749999997,58.153846153846196L302.04903125,58.153846153846196L306.905125,203.53846153846158L311.76121875,203.53846153846158L316.61731249999997,203.53846153846158L321.47340625000004,203.53846153846158L326.3295,203.53846153846158L331.18559375,58.153846153846196L336.04168749999997,58.153846153846196L340.89778125000004,58.153846153846196L345.753875,203.53846153846158L350.60996875,203.53846153846158L355.46606249999996,203.53846153846158L360.32215625,203.53846153846158L365.17825,203.53846153846158L370.03434375,203.53846153846158L374.8904375,203.53846153846158L379.74653125,203.53846153846158L384.60262500000005,203.53846153846158L389.45871874999995,203.53846153846158L394.3148125,203.53846153846158L399.17090625000003,203.53846153846158L404.027,203.53846153846158L408.88309375,203.53846153846158L413.73918749999996,203.53846153846158L418.59528124999997,203.53846153846158L423.45137500000004,203.53846153846158L428.30746875,203.53846153846158L433.1635625,203.53846153846158L438.01965625,203.53846153846158L442.87575,203.53846153846158L447.73184375,203.53846153846158L452.58793749999995,203.53846153846158L457.44403125,203.53846153846158L462.30012500000004,203.53846153846158L467.15621875,203.53846153846158L472.0123125,203.53846153846158L476.86840624999996,203.53846153846158L481.7245,203.53846153846158L486.58059375000005,203.53846153846158L491.4366875,203.53846153846158L496.29278125,58.153846153846196L501.148875,58.153846153846196L506.00496875,58.153846153846196L510.8610625,58.153846153846196L515.71715625,58.153846153846196L520.57325,58.153846153846196L525.42934375,58.153846153846196L530.2854375,130.8461538461539L535.1415312500001,203.53846153846158L539.997625,203.53846153846158L544.85371875,203.53846153846158L549.7098125,203.53846153846158L554.56590625,203.53846153846158L559.422,203.53846153846158L564.2780937499999,203.53846153846158L569.1341874999999,203.53846153846158L573.9902812500001,203.53846153846158L578.846375,203.53846153846158L583.70246875,203.53846153846158L588.5585625,58.153846153846196L593.41465625,130.8461538461539L598.27075,58.153846153846196L603.1268437499999,203.53846153846158L607.9829375,203.53846153846158L612.8390312500001,203.53846153846158L617.695125,203.53846153846158L622.55121875,203.53846153846158L627.4073125,203.53846153846158L632.26340625,203.53846153846158L637.1195,203.53846153846158L641.97559375,203.53846153846158L646.8316875,203.53846153846158L651.6877812500001,203.53846153846158L656.543875,203.53846153846158L661.39996875,203.53846153846158L666.2560625,203.53846153846158L671.11215625,203.53846153846158L675.96825,203.53846153846158L680.82434375,203.53846153846158L685.6804375,203.53846153846158L690.5365312499999,203.53846153846158L695.392625,203.53846153846158L700.2487187500001,203.53846153846158L705.1048125,58.153846153846196L709.96090625,203.53846153846158L714.817,203.53846153846158L719.67309375,203.53846153846158L724.5291875,203.53846153846158L729.38528125,203.53846153846158L734.2413750000001,203.53846153846158L739.09746875,130.8461538461539L743.9535625000001,130.8461538461539L748.80965625,203.53846153846158L753.66575,203.53846153846158L758.5218437500001,203.53846153846158L763.3779375,203.53846153846158L768.2340312499999,203.53846153846158L773.090125,203.53846153846158L777.9462187500001,203.53846153846158L782.8023125,203.53846153846158L787.65840625,130.8461538461539L792.5145000000001,58.153846153846196L797.37059375,58.153846153846196L802.2266874999999,58.153846153846196L807.08278125,58.153846153846196L811.938875,203.53846153846158L816.79496875,58.153846153846196L821.6510625,130.8461538461539L826.50715625,58.153846153846196L831.36325,58.153846153846196L836.2193437499999,58.153846153846196L841.0754375,58.153846153846196L845.93153125,58.153846153846196L850.7876249999999,58.153846153846196L855.6437187500001,58.153846153846196L860.4998125,130.8461538461539L865.35590625,130.8461538461539L870.2120000000001,130.8461538461539L875.06809375,203.53846153846158L879.9241875,203.53846153846158L884.7802812499999,203.53846153846158L889.636375,58.153846153846196L894.49246875,58.153846153846196L899.3485625,58.153846153846196L904.2046562500001,58.153846153846196L909.06075,58.153846153846196L913.91684375,58.153846153846196L918.7729375,203.53846153846158L923.62903125,58.153846153846196L928.4851249999999,58.153846153846196L933.34121875,58.153846153846196L938.1973125000001,58.153846153846196L943.05340625,58.153846153846196L947.9095,58.153846153846196L952.76559375,203.53846153846158L957.6216875,203.53846153846158L962.4777812499999,130.8461538461539L967.333875,130.8461538461539L972.18996875,130.8461538461539L977.0460625,58.153846153846196L981.9021562500001,203.53846153846158L986.75825,130.8461538461539L991.61434375,58.153846153846196L996.4704375000001,58.153846153846196L1001.32653125,58.153846153846196L1006.182625,-14.538461538461487L1011.0387187499999,58.153846153846196L1015.8948125000001,58.153846153846196L1020.75090625,130.8461538461539L1025.607,203.53846153846158L1030.46309375,203.53846153846158L1035.3191875,130.8461538461539L1040.17528125,58.153846153846196L1045.031375,58.153846153846196L1049.88746875,58.153846153846196L1054.7435625,130.8461538461539L1059.5996562500002,203.53846153846158L1064.45575,203.53846153846158L1069.31184375,203.53846153846158L1074.1679374999999,130.8461538461539L1079.02403125,58.153846153846196L1083.880125,58.153846153846196L1088.73621875,130.8461538461539L1093.5923125000002,58.153846153846196L1098.44840625,203.53846153846158L1103.3045,203.53846153846158L1108.16059375,203.53846153846158L1113.0166875,58.153846153846196L1117.87278125,130.8461538461539L1122.728875,130.8461538461539L1127.5849687500001,58.153846153846196L1132.4410625,203.53846153846158L1137.29715625,203.53846153846158" style="fill: none;" fill="none"></path></g><g><path stroke="rgb(187, 187, 187)" stroke-width="2px" d="M136.94184375,494.3076923076922L141.7979375,348.9230769230769L146.65403125,348.9230769230769L151.510125,348.9230769230769L156.36621875,203.53846153846158L161.2223125,203.53846153846158L166.07840625,203.53846153846158L170.93449999999999,203.53846153846158L175.79059375,203.53846153846158L180.64668749999998,203.53846153846158L185.50278125,203.53846153846158L190.35887499999998,203.53846153846158L195.21496875000003,203.53846153846158L200.0710625,203.53846153846158L204.92715625,203.53846153846158L209.78324999999998,276.2307692307693L214.63934375000002,203.53846153846158L219.4954375,348.9230769230769L224.35153125,203.53846153846158L229.20762499999998,203.53846153846158L234.06371875000002,203.53846153846158L238.9198125,276.2307692307693L243.77590625,203.53846153846158L248.632,348.9230769230769L253.48809375,348.9230769230769L258.34418750000003,348.9230769230769L263.20028125,348.9230769230769L268.056375,348.9230769230769L272.91246874999996,348.9230769230769L277.76856250000003,348.9230769230769L282.62465625,348.9230769230769L287.48075,203.53846153846158L292.33684375,276.2307692307693L297.19293749999997,203.53846153846158L302.04903125,203.53846153846158L306.905125,203.53846153846158L311.76121875,203.53846153846158L316.61731249999997,203.53846153846158L321.47340625000004,203.53846153846158L326.3295,203.53846153846158L331.18559375,203.53846153846158L336.04168749999997,203.53846153846158L340.89778125000004,203.53846153846158L345.753875,203.53846153846158L350.60996875,203.53846153846158L355.46606249999996,203.53846153846158L360.32215625,203.53846153846158L365.17825,203.53846153846158L370.03434375,130.8461538461539L374.8904375,58.153846153846196L379.74653125,58.153846153846196L384.60262500000005,58.153846153846196L389.45871874999995,58.153846153846196L394.3148125,58.153846153846196L399.17090625000003,58.153846153846196L404.027,58.153846153846196L408.88309375,58.153846153846196L413.73918749999996,130.8461538461539L418.59528124999997,203.53846153846158L423.45137500000004,203.53846153846158L428.30746875,203.53846153846158L433.1635625,203.53846153846158L438.01965625,203.53846153846158L442.87575,203.53846153846158L447.73184375,203.53846153846158L452.58793749999995,203.53846153846158L457.44403125,203.53846153846158L462.30012500000004,130.8461538461539L467.15621875,203.53846153846158L472.0123125,203.53846153846158L476.86840624999996,203.53846153846158L481.7245,203.53846153846158L486.58059375000005,203.53846153846158L491.4366875,203.53846153846158L496.29278125,203.53846153846158L501.148875,203.53846153846158L506.00496875,203.53846153846158L510.8610625,203.53846153846158L515.71715625,203.53846153846158L520.57325,203.53846153846158L525.42934375,203.53846153846158L530.2854375,203.53846153846158L535.1415312500001,203.53846153846158L539.997625,203.53846153846158L544.85371875,203.53846153846158L549.7098125,203.53846153846158L554.56590625,203.53846153846158L559.422,203.53846153846158L564.2780937499999,203.53846153846158L569.1341874999999,130.8461538461539L573.9902812500001,58.153846153846196L578.846375,58.153846153846196L583.70246875,58.153846153846196L588.5585625,58.153846153846196L593.41465625,58.153846153846196L598.27075,58.153846153846196L603.1268437499999,58.153846153846196L607.9829375,58.153846153846196L612.8390312500001,58.153846153846196L617.695125,58.153846153846196L622.55121875,203.53846153846158L627.4073125,130.8461538461539L632.26340625,203.53846153846158L637.1195,203.53846153846158L641.97559375,203.53846153846158L646.8316875,203.53846153846158L651.6877812500001,203.53846153846158L656.543875,203.53846153846158L661.39996875,203.53846153846158L666.2560625,203.53846153846158L671.11215625,203.53846153846158L675.96825,203.53846153846158L680.82434375,203.53846153846158L685.6804375,203.53846153846158L690.5365312499999,203.53846153846158L695.392625,203.53846153846158L700.2487187500001,203.53846153846158L705.1048125,203.53846153846158L709.96090625,203.53846153846158L714.817,203.53846153846158L719.67309375,203.53846153846158L724.5291875,203.53846153846158L729.38528125,203.53846153846158L734.2413750000001,203.53846153846158L739.09746875,203.53846153846158L743.9535625000001,203.53846153846158L748.80965625,203.53846153846158L753.66575,58.153846153846196L758.5218437500001,58.153846153846196L763.3779375,203.53846153846158L768.2340312499999,130.8461538461539L773.090125,130.8461538461539L777.9462187500001,203.53846153846158L782.8023125,130.8461538461539L787.65840625,58.153846153846196L792.5145000000001,203.53846153846158L797.37059375,203.53846153846158L802.2266874999999,203.53846153846158L807.08278125,203.53846153846158L811.938875,203.53846153846158L816.79496875,203.53846153846158L821.6510625,203.53846153846158L826.50715625,203.53846153846158" style="fill: none;" fill="none"></path></g><g><path stroke="rgb(0, 153, 136)" stroke-width="2px" d="M132.08575000000002,494.3076923076922L136.94184375,348.9230769230769L141.7979375,348.9230769230769L146.65403125,348.9230769230769L151.510125,348.9230769230769L156.36621875,203.53846153846158L161.2223125,203.53846153846158L166.07840625,203.53846153846158L170.93449999999999,203.53846153846158L175.79059375,203.53846153846158L180.64668749999998,203.53846153846158L185.50278125,203.53846153846158L190.35887499999998,203.53846153846158L195.21496875000003,203.53846153846158L200.0710625,203.53846153846158L204.92715625,203.53846153846158L209.78324999999998,203.53846153846158L214.63934375000002,203.53846153846158L219.4954375,203.53846153846158L224.35153125,58.153846153846196L229.20762499999998,58.153846153846196L234.06371875000002,58.153846153846196L238.9198125,130.8461538461539L243.77590625,203.53846153846158L248.632,203.53846153846158L253.48809375,203.53846153846158L258.34418750000003,348.9230769230769L263.20028125,348.9230769230769L268.056375,203.53846153846158L272.91246874999996,203.53846153846158L277.76856250000003,203.53846153846158L282.62465625,203.53846153846158L287.48075,130.8461538461539L292.33684375,203.53846153846158L297.19293749999997,203.53846153846158L302.04903125,348.9230769230769L306.905125,348.9230769230769L311.76121875,348.9230769230769L316.61731249999997,276.2307692307693L321.47340625000004,203.53846153846158L326.3295,58.153846153846196L331.18559375,58.153846153846196L336.04168749999997,203.53846153846158L340.89778125000004,203.53846153846158L345.753875,203.53846153846158L350.60996875,203.53846153846158L355.46606249999996,203.53846153846158L360.32215625,203.53846153846158L365.17825,203.53846153846158L370.03434375,203.53846153846158L374.8904375,203.53846153846158L379.74653125,348.9230769230769L384.60262500000005,203.53846153846158L389.45871874999995,203.53846153846158L394.3148125,203.53846153846158L399.17090625000003,203.53846153846158L404.027,203.53846153846158L408.88309375,203.53846153846158L413.73918749999996,203.53846153846158L418.59528124999997,203.53846153846158L423.45137500000004,203.53846153846158L428.30746875,203.53846153846158L433.1635625,203.53846153846158L438.01965625,203.53846153846158L442.87575,203.53846153846158L447.73184375,58.153846153846196L452.58793749999995,58.153846153846196L457.44403125,58.153846153846196L462.30012500000004,203.53846153846158L467.15621875,130.8461538461539L472.0123125,203.53846153846158L476.86840624999996,58.153846153846196L481.7245,203.53846153846158L486.58059375000005,58.153846153846196L491.4366875,130.8461538461539L496.29278125,58.153846153846196L501.148875,58.153846153846196L506.00496875,58.153846153846196L510.8610625,130.8461538461539L515.71715625,203.53846153846158L520.57325,58.153846153846196L525.42934375,203.53846153846158L530.2854375,203.53846153846158L535.1415312500001,58.153846153846196L539.997625,58.153846153846196L544.85371875,58.153846153846196L549.7098125,58.153846153846196L554.56590625,58.153846153846196L559.422,58.153846153846196L564.2780937499999,58.153846153846196L569.1341874999999,58.153846153846196L573.9902812500001,58.153846153846196L578.846375,58.153846153846196L583.70246875,58.153846153846196L588.5585625,58.153846153846196L593.41465625,58.153846153846196L598.27075,58.153846153846196L603.1268437499999,58.153846153846196L607.9829375,58.153846153846196L612.8390312500001,130.8461538461539L617.695125,130.8461538461539L622.55121875,203.53846153846158L627.4073125,130.8461538461539L632.26340625,58.153846153846196L637.1195,58.153846153846196L641.97559375,58.153846153846196L646.8316875,58.153846153846196L651.6877812500001,203.53846153846158L656.543875,203.53846153846158L661.39996875,203.53846153846158L666.2560625,203.53846153846158L671.11215625,203.53846153846158L675.96825,130.8461538461539L680.82434375,58.153846153846196L685.6804375,58.153846153846196L690.5365312499999,58.153846153846196L695.392625,58.153846153846196L700.2487187500001,203.53846153846158L705.1048125,203.53846153846158L709.96090625,203.53846153846158L714.817,203.53846153846158L719.67309375,203.53846153846158L724.5291875,203.53846153846158L729.38528125,203.53846153846158L734.2413750000001,203.53846153846158L739.09746875,203.53846153846158L743.9535625000001,203.53846153846158L748.80965625,203.53846153846158L753.66575,203.53846153846158L758.5218437500001,203.53846153846158L763.3779375,203.53846153846158L768.2340312499999,203.53846153846158L773.090125,203.53846153846158L777.9462187500001,203.53846153846158L782.8023125,203.53846153846158L787.65840625,203.53846153846158L792.5145000000001,203.53846153846158L797.37059375,203.53846153846158L802.2266874999999,203.53846153846158L807.08278125,203.53846153846158L811.938875,203.53846153846158L816.79496875,203.53846153846158L821.6510625,203.53846153846158L826.50715625,130.8461538461539L831.36325,203.53846153846158L836.2193437499999,203.53846153846158L841.0754375,58.153846153846196L845.93153125,58.153846153846196L850.7876249999999,58.153846153846196L855.6437187500001,58.153846153846196L860.4998125,58.153846153846196L865.35590625,58.153846153846196L870.2120000000001,203.53846153846158L875.06809375,203.53846153846158L879.9241875,203.53846153846158L884.7802812499999,203.53846153846158L889.636375,203.53846153846158L894.49246875,203.53846153846158L899.3485625,130.8461538461539L904.2046562500001,130.8461538461539L909.06075,58.153846153846196L913.91684375,130.8461538461539L918.7729375,203.53846153846158L923.62903125,203.53846153846158L928.4851249999999,203.53846153846158L933.34121875,203.53846153846158L938.1973125000001,203.53846153846158L943.05340625,203.53846153846158L947.9095,203.53846153846158L952.76559375,203.53846153846158L957.6216875,130.8461538461539L962.4777812499999,58.153846153846196L967.333875,58.153846153846196L972.18996875,58.153846153846196L977.0460625,58.153846153846196L981.9021562500001,58.153846153846196L986.75825,58.153846153846196L991.61434375,58.153846153846196L996.4704375000001,58.153846153846196L1001.32653125,-14.538461538461487L1006.182625,58.153846153846196L1011.0387187499999,58.153846153846196L1015.8948125000001,58.153846153846196L1020.75090625,58.153846153846196L1025.607,58.153846153846196L1030.46309375,58.153846153846196L1035.3191875,130.8461538461539L1040.17528125,58.153846153846196L1045.031375,58.153846153846196L1049.88746875,58.153846153846196L1054.7435625,58.153846153846196L1059.5996562500002,58.153846153846196L1064.45575,58.153846153846196L1069.31184375,58.153846153846196L1074.1679374999999,58.153846153846196L1079.02403125,58.153846153846196L1083.880125,58.153846153846196L1088.73621875,58.153846153846196L1093.5923125000002,58.153846153846196L1098.44840625,58.153846153846196L1103.3045,58.153846153846196L1108.16059375,58.153846153846196L1113.0166875,58.153846153846196L1117.87278125,58.153846153846196L1122.728875,130.8461538461539L1127.5849687500001,58.153846153846196L1132.4410625,58.153846153846196L1137.29715625,58.153846153846196L1142.15325,58.153846153846196L1147.00934375,58.153846153846196L1151.8654374999999,-87.23076923076917L1156.72153125,-14.538461538461487L1161.577625,58.153846153846196L1166.43371875,58.153846153846196L1171.2898125000002,58.153846153846196L1176.14590625,58.153846153846196L1181.002,58.153846153846196L1185.8580937499999,-87.23076923076917L1200.426375,-14.538461538461487L1205.2824687500001,58.153846153846196L1210.1385625,58.153846153846196L1214.99465625,58.153846153846196L1219.85075,58.153846153846196L1224.70684375,58.153846153846196L1229.5629374999999,58.153846153846196L1234.41903125,58.153846153846196L1239.2751250000001,-87.23076923076917L1244.13121875,-87.23076923076917L1248.9873125,58.153846153846196L1253.84340625,58.153846153846196L1258.6995,58.153846153846196L1263.5555937499998,58.153846153846196L1268.4116875,58.153846153846196L1273.26778125,-14.538461538461487" style="fill: none;" fill="none"></path></g></g></g></g></g></g><g transform="translate(41, 378)" clip-path="url(#clip_1)"><clipPath id="clip_1"><rect width="1456" height="22"></rect></clipPath><g><g><line x1="0" y1="0" x2="0" y2="5" style="visibility: inherit;" fill="rgb(0, 0, 0)" stroke="rgb(204, 204, 204)" stroke-width="1px"></line><line x1="121.40234375" y1="0" x2="121.40234375" y2="5" style="visibility: inherit;" fill="rgb(0, 0, 0)" stroke="rgb(204, 204, 204)" stroke-width="1px"></line><line x1="242.8046875" y1="0" x2="242.8046875" y2="5" style="visibility: inherit;" fill="rgb(0, 0, 0)" stroke="rgb(204, 204, 204)" stroke-width="1px"></line><line x1="364.20703125" y1="0" x2="364.20703125" y2="5" style="visibility: inherit;" fill="rgb(0, 0, 0)" stroke="rgb(204, 204, 204)" stroke-width="1px"></line><line x1="485.609375" y1="0" x2="485.609375" y2="5" style="visibility: inherit;" fill="rgb(0, 0, 0)" stroke="rgb(204, 204, 204)" stroke-width="1px"></line><line x1="607.01171875" y1="0" x2="607.01171875" y2="5" style="visibility: inherit;" fill="rgb(0, 0, 0)" stroke="rgb(204, 204, 204)" stroke-width="1px"></line><line x1="728.4140625" y1="0" x2="728.4140625" y2="5" style="visibility: inherit;" fill="rgb(0, 0, 0)" stroke="rgb(204, 204, 204)" stroke-width="1px"></line><line x1="849.81640625" y1="0" x2="849.81640625" y2="5" style="visibility: inherit;" fill="rgb(0, 0, 0)" stroke="rgb(204, 204, 204)" stroke-width="1px"></line><line x1="971.21875" y1="0" x2="971.21875" y2="5" style="visibility: inherit;" fill="rgb(0, 0, 0)" stroke="rgb(204, 204, 204)" stroke-width="1px"></line><line x1="1092.62109375" y1="0" x2="1092.62109375" y2="5" style="visibility: inherit;" fill="rgb(0, 0, 0)" stroke="rgb(204, 204, 204)" stroke-width="1px"></line><line x1="1214.0234375" y1="0" x2="1214.0234375" y2="5" style="visibility: inherit;" fill="rgb(0, 0, 0)" stroke="rgb(204, 204, 204)" stroke-width="1px"></line><line x1="1335.42578125" y1="0" x2="1335.42578125" y2="5" style="visibility: inherit;" fill="rgb(0, 0, 0)" stroke="rgb(204, 204, 204)" stroke-width="1px"></line><line x1="1456.828125" y1="0" x2="1456.828125" y2="5" style="visibility: inherit;" fill="rgb(0, 0, 0)" stroke="rgb(204, 204, 204)" stroke-width="1px"></line></g><g transform="translate(0, 8)"><text x="0" y="0" dx="0em" dy="0.95em" style="text-anchor: middle; visibility: hidden; font-family: Roboto, sans-serif; font-size: 12px; font-weight: 200;" fill="rgb(50, 49, 63)" stroke="none" stroke-width="1px">-100k</text><text x="121.40234375" y="0" dx="0em" dy="0.95em" style="text-anchor: middle; visibility: inherit; font-family: Roboto, sans-serif; font-size: 12px; font-weight: 200;" fill="rgb(50, 49, 63)" stroke="none" stroke-width="1px">0</text><text x="242.8046875" y="0" dx="0em" dy="0.95em" style="text-anchor: middle; visibility: inherit; font-family: Roboto, sans-serif; font-size: 12px; font-weight: 200;" fill="rgb(50, 49, 63)" stroke="none" stroke-width="1px">100k</text><text x="364.20703125" y="0" dx="0em" dy="0.95em" style="text-anchor: middle; visibility: inherit; font-family: Roboto, sans-serif; font-size: 12px; font-weight: 200;" fill="rgb(50, 49, 63)" stroke="none" stroke-width="1px">200k</text><text x="485.609375" y="0" dx="0em" dy="0.95em" style="text-anchor: middle; visibility: inherit; font-family: Roboto, sans-serif; font-size: 12px; font-weight: 200;" fill="rgb(50, 49, 63)" stroke="none" stroke-width="1px">300k</text><text x="607.01171875" y="0" dx="0em" dy="0.95em" style="text-anchor: middle; visibility: inherit; font-family: Roboto, sans-serif; font-size: 12px; font-weight: 200;" fill="rgb(50, 49, 63)" stroke="none" stroke-width="1px">400k</text><text x="728.4140625" y="0" dx="0em" dy="0.95em" style="text-anchor: middle; visibility: inherit; font-family: Roboto, sans-serif; font-size: 12px; font-weight: 200;" fill="rgb(50, 49, 63)" stroke="none" stroke-width="1px">500k</text><text x="849.81640625" y="0" dx="0em" dy="0.95em" style="text-anchor: middle; visibility: inherit; font-family: Roboto, sans-serif; font-size: 12px; font-weight: 200;" fill="rgb(50, 49, 63)" stroke="none" stroke-width="1px">600k</text><text x="971.21875" y="0" dx="0em" dy="0.95em" style="text-anchor: middle; visibility: inherit; font-family: Roboto, sans-serif; font-size: 12px; font-weight: 200;" fill="rgb(50, 49, 63)" stroke="none" stroke-width="1px">700k</text><text x="1092.62109375" y="0" dx="0em" dy="0.95em" style="text-anchor: middle; visibility: inherit; font-family: Roboto, sans-serif; font-size: 12px; font-weight: 200;" fill="rgb(50, 49, 63)" stroke="none" stroke-width="1px">800k</text><text x="1214.0234375" y="0" dx="0em" dy="0.95em" style="text-anchor: middle; visibility: inherit; font-family: Roboto, sans-serif; font-size: 12px; font-weight: 200;" fill="rgb(50, 49, 63)" stroke="none" stroke-width="1px">900k</text><text x="1335.42578125" y="0" dx="0em" dy="0.95em" style="text-anchor: middle; visibility: inherit; font-family: Roboto, sans-serif; font-size: 12px; font-weight: 200;" fill="rgb(50, 49, 63)" stroke="none" stroke-width="1px">1M</text><text x="1456.828125" y="0" dx="0em" dy="0.95em" style="text-anchor: middle; visibility: hidden; font-family: Roboto, sans-serif; font-size: 12px; font-weight: 200;" fill="rgb(50, 49, 63)" stroke="none" stroke-width="1px">1.1M</text></g><line x1="0" y1="0" x2="1456.828125" y2="0" fill="rgb(0, 0, 0)" stroke="rgb(204, 204, 204)" stroke-width="1px"></line></g></g></g></g></svg>