<svg viewBox="0 0 1498 400" xmlns="http://www.w3.org/2000/svg"><g><g><g><g><g><line x1="51.5625" y1="378" x2="46.5625" y2="378" style="visibility: inherit;" fill="rgb(0, 0, 0)" stroke="rgb(204, 204, 204)" stroke-width="1px"></line><line x1="51.5625" y1="351" x2="46.5625" y2="351" style="visibility: inherit;" fill="rgb(0, 0, 0)" stroke="rgb(204, 204, 204)" stroke-width="1px"></line><line x1="51.5625" y1="324" x2="46.5625" y2="324" style="visibility: inherit;" fill="rgb(0, 0, 0)" stroke="rgb(204, 204, 204)" stroke-width="1px"></line><line x1="51.5625" y1="297" x2="46.5625" y2="297" style="visibility: inherit;" fill="rgb(0, 0, 0)" stroke="rgb(204, 204, 204)" stroke-width="1px"></line><line x1="51.5625" y1="270" x2="46.5625" y2="270" style="visibility: inherit;" fill="rgb(0, 0, 0)" stroke="rgb(204, 204, 204)" stroke-width="1px"></line><line x1="51.5625" y1="242.99999999999997" x2="46.5625" y2="242.99999999999997" style="visibility: inherit;" fill="rgb(0, 0, 0)" stroke="rgb(204, 204, 204)" stroke-width="1px"></line><line x1="51.5625" y1="216" x2="46.5625" y2="216" style="visibility: inherit;" fill="rgb(0, 0, 0)" stroke="rgb(204, 204, 204)" stroke-width="1px"></line><line x1="51.5625" y1="189" x2="46.5625" y2="189" style="visibility: inherit;" fill="rgb(0, 0, 0)" stroke="rgb(204, 204, 204)" stroke-width="1px"></line><line x1="51.5625" y1="162" x2="46.5625" y2="162" style="visibility: inherit;" fill="rgb(0, 0, 0)" stroke="rgb(204, 204, 204)" stroke-width="1px"></line><line x1="51.5625" y1="134.99999999999997" x2="46.5625" y2="134.99999999999997" style="visibility: inherit;" fill="rgb(0, 0, 0)" stroke="rgb(204, 204, 204)" stroke-width="1px"></line><line x1="51.5625" y1="108" x2="46.5625" y2="108" style="visibility: inherit;" fill="rgb(0, 0, 0)" stroke="rgb(204, 204, 204)" stroke-width="1px"></line><line x1="51.5625" y1="81" x2="46.5625" y2="81" style="visibility: inherit;" fill="rgb(0, 0, 0)" stroke="rgb(204, 204, 204)" stroke-width="1px"></line><line x1="51.5625" y1="54.00000000000002" x2="46.5625" y2="54.00000000000002" style="visibility: inherit;" fill="rgb(0, 0, 0)" stroke="rgb(204, 204, 204)" stroke-width="1px"></line><line x1="51.5625" y1="26.99999999999999" x2="46.5625" y2="26.99999999999999" style="visibility: inherit;" fill="rgb(0, 0, 0)" stroke="rgb(204, 204, 204)" stroke-width="1px"></line><line x1="51.5625" y1="0" x2="46.5625" y2="0" style="visibility: inherit;" fill="rgb(0, 0, 0)" stroke="rgb(204, 204, 204)" stroke-width="1px"></line></g><g transform="translate(41.5625, 0)"><text x="0" y="378" dx="0em" dy="0.3em" style="text-anchor: end; visibility: hidden; font-family: Roboto, sans-serif; font-size: 12px; font-weight: 200;" fill="rgb(50, 49, 63)" stroke="none" stroke-width="1px">-1</text><text x="0" y="351" dx="0em" dy="0.3em" style="text-anchor: end; visibility: inherit; font-family: Roboto, sans-serif; font-size: 12px; font-weight: 200;" fill="rgb(50, 49, 63)" stroke="none" stroke-width="1px">-0.5</text><text x="0" y="324" dx="0em" dy="0.3em" style="text-anchor: end; visibility: inherit; font-family: Roboto, sans-serif; font-size: 12px; font-weight: 200;" fill="rgb(50, 49, 63)" stroke="none" stroke-width="1px">0</text><text x="0" y="297" dx="0em" dy="0.3em" style="text-anchor: end; visibility: inherit; font-family: Roboto, sans-serif; font-size: 12px; font-weight: 200;" fill="rgb(50, 49, 63)" stroke="none" stroke-width="1px">0.5</text><text x="0" y="270" dx="0em" dy="0.3em" style="text-anchor: end; visibility: inherit; font-family: Roboto, sans-serif; font-size: 12px; font-weight: 200;" fill="rgb(50, 49, 63)" stroke="none" stroke-width="1px">1</text><text x="0" y="242.99999999999997" dx="0em" dy="0.3em" style="text-anchor: end; visibility: inherit; font-family: Roboto, sans-serif; font-size: 12px; font-weight: 200;" fill="rgb(50, 49, 63)" stroke="none" stroke-width="1px">1.5</text><text x="0" y="216" dx="0em" dy="0.3em" style="text-anchor: end; visibility: inherit; font-family: Roboto, sans-serif; font-size: 12px; font-weight: 200;" fill="rgb(50, 49, 63)" stroke="none" stroke-width="1px">2</text><text x="0" y="189" dx="0em" dy="0.3em" style="text-anchor: end; visibility: inherit; font-family: Roboto, sans-serif; font-size: 12px; font-weight: 200;" fill="rgb(50, 49, 63)" stroke="none" stroke-width="1px">2.5</text><text x="0" y="162" dx="0em" dy="0.3em" style="text-anchor: end; visibility: inherit; font-family: Roboto, sans-serif; font-size: 12px; font-weight: 200;" fill="rgb(50, 49, 63)" stroke="none" stroke-width="1px">3</text><text x="0" y="134.99999999999997" dx="0em" dy="0.3em" style="text-anchor: end; visibility: inherit; font-family: Roboto, sans-serif; font-size: 12px; font-weight: 200;" fill="rgb(50, 49, 63)" stroke="none" stroke-width="1px">3.5</text><text x="0" y="108" dx="0em" dy="0.3em" style="text-anchor: end; visibility: inherit; font-family: Roboto, sans-serif; font-size: 12px; font-weight: 200;" fill="rgb(50, 49, 63)" stroke="none" stroke-width="1px">4</text><text x="0" y="81" dx="0em" dy="0.3em" style="text-anchor: end; visibility: inherit; font-family: Roboto, sans-serif; font-size: 12px; font-weight: 200;" fill="rgb(50, 49, 63)" stroke="none" stroke-width="1px">4.5</text><text x="0" y="54.00000000000002" dx="0em" dy="0.3em" style="text-anchor: end; visibility: inherit; font-family: Roboto, sans-serif; font-size: 12px; font-weight: 200;" fill="rgb(50, 49, 63)" stroke="none" stroke-width="1px">5</text><text x="0" y="26.99999999999999" dx="0em" dy="0.3em" style="text-anchor: end; visibility: inherit; font-family: Roboto, sans-serif; font-size: 12px; font-weight: 200;" fill="rgb(50, 49, 63)" stroke="none" stroke-width="1px">5.5</text><text x="0" y="0" dx="0em" dy="0.3em" style="text-anchor: end; visibility: hidden; font-family: Roboto, sans-serif; font-size: 12px; font-weight: 200;" fill="rgb(50, 49, 63)" stroke="none" stroke-width="1px">6</text></g><line x1="51.5625" y1="0" x2="51.5625" y2="378" fill="rgb(0, 0, 0)" stroke="rgb(204, 204, 204)" stroke-width="1px"></line></g></g><g transform="translate(51, 0)" clip-path="url(#clip_0)"><clipPath id="clip_0"><rect width="1446" height="378"></rect></clipPath><g><g><g><line x1="0" y1="0" x2="0" y2="378" fill="rgb(0, 0, 0)" stroke="rgb(60, 60, 60)" stroke-width="1px" opacity="0.25"></line><line x1="120.53645833333333" y1="0" x2="120.53645833333333" y2="378" fill="rgb(0, 0, 0)" stroke="rgb(60, 60, 60)" stroke-width="1px" opacity="0.25"></line><line x1="241.07291666666666" y1="0" x2="241.07291666666666" y2="378" fill="rgb(0, 0, 0)" stroke="rgb(60, 60, 60)" stroke-width="1px" opacity="0.25"></line><line x1="361.609375" y1="0" x2="361.609375" y2="378" fill="rgb(0, 0, 0)" stroke="rgb(60, 60, 60)" stroke-width="1px" opacity="0.25"></line><line x1="482.1458333333333" y1="0" x2="482.1458333333333" y2="378" fill="rgb(0, 0, 0)" stroke="rgb(60, 60, 60)" stroke-width="1px" opacity="0.25"></line><line x1="602.6822916666667" y1="0" x2="602.6822916666667" y2="378" fill="rgb(0, 0, 0)" stroke="rgb(60, 60, 60)" stroke-width="1px" opacity="0.25"></line><line x1="723.21875" y1="0" x2="723.21875" y2="378" fill="rgb(0, 0, 0)" stroke="rgb(60, 60, 60)" stroke-width="1px" opacity="0.25"></line><line x1="843.7552083333334" y1="0" x2="843.7552083333334" y2="378" fill="rgb(0, 0, 0)" stroke="rgb(60, 60, 60)" stroke-width="1px" opacity="0.25"></line><line x1="964.2916666666666" y1="0" x2="964.2916666666666" y2="378" fill="rgb(0, 0, 0)" stroke="rgb(60, 60, 60)" stroke-width="1px" opacity="0.25"></line><line x1="1084.828125" y1="0" x2="1084.828125" y2="378" fill="rgb(0, 0, 0)" stroke="rgb(60, 60, 60)" stroke-width="1px" opacity="0.25"></line><line x1="1205.3645833333335" y1="0" x2="1205.3645833333335" y2="378" fill="rgb(0, 0, 0)" stroke="rgb(60, 60, 60)" stroke-width="1px" opacity="0.25"></line><line x1="1325.9010416666665" y1="0" x2="1325.9010416666665" y2="378" fill="rgb(0, 0, 0)" stroke="rgb(60, 60, 60)" stroke-width="1px" opacity="0.25"></line><line x1="1446.4375" y1="0" x2="1446.4375" y2="378" fill="rgb(0, 0, 0)" stroke="rgb(60, 60, 60)" stroke-width="1px" opacity="0.25"></line></g><g><line x1="0" y1="378" x2="1446.4375" y2="378" fill="rgb(0, 0, 0)" stroke="rgb(60, 60, 60)" stroke-width="1px" opacity="0.25"></line><line x1="0" y1="351" x2="1446.4375" y2="351" fill="rgb(0, 0, 0)" stroke="rgb(60, 60, 60)" stroke-width="1px" opacity="0.25"></line><line x1="0" y1="324" x2="1446.4375" y2="324" fill="rgb(0, 0, 0)" stroke="rgb(60, 60, 60)" stroke-width="1px" opacity="0.25"></line><line x1="0" y1="297" x2="1446.4375" y2="297" fill="rgb(0, 0, 0)" stroke="rgb(60, 60, 60)" stroke-width="1px" opacity="0.25"></line><line x1="0" y1="270" x2="1446.4375" y2="270" fill="rgb(0, 0, 0)" stroke="rgb(60, 60, 60)" stroke-width="1px" opacity="0.25"></line><line x1="0" y1="242.99999999999997" x2="1446.4375" y2="242.99999999999997" fill="rgb(0, 0, 0)" stroke="rgb(60, 60, 60)" stroke-width="1px" opacity="0.25"></line><line x1="0" y1="216" x2="1446.4375" y2="216" fill="rgb(0, 0, 0)" stroke="rgb(60, 60, 60)" stroke-width="1px" opacity="0.25"></line><line x1="0" y1="189" x2="1446.4375" y2="189" fill="rgb(0, 0, 0)" stroke="rgb(60, 60, 60)" stroke-width="1px" opacity="0.25"></line><line x1="0" y1="162" x2="1446.4375" y2="162" fill="rgb(0, 0, 0)" stroke="rgb(60, 60, 60)" stroke-width="1px" opacity="0.25"></line><line x1="0" y1="134.99999999999997" x2="1446.4375" y2="134.99999999999997" fill="rgb(0, 0, 0)" stroke="rgb(60, 60, 60)" stroke-width="1px" opacity="0.25"></line><line x1="0" y1="108" x2="1446.4375" y2="108" fill="rgb(0, 0, 0)" stroke="rgb(60, 60, 60)" stroke-width="1px" opacity="0.25"></line><line x1="0" y1="81" x2="1446.4375" y2="81" fill="rgb(0, 0, 0)" stroke="rgb(60, 60, 60)" stroke-width="1px" opacity="0.25"></line><line x1="0" y1="54.00000000000002" x2="1446.4375" y2="54.00000000000002" fill="rgb(0, 0, 0)" stroke="rgb(60, 60, 60)" stroke-width="1px" opacity="0.25"></line><line x1="0" y1="26.99999999999999" x2="1446.4375" y2="26.99999999999999" fill="rgb(0, 0, 0)" stroke="rgb(60, 60, 60)" stroke-width="1px" opacity="0.25"></line><line x1="0" y1="0" x2="1446.4375" y2="0" fill="rgb(0, 0, 0)" stroke="rgb(60, 60, 60)" stroke-width="1px" opacity="0.25"></line></g></g></g><g><g><line x1="0" y1="324" x2="1446.4375" y2="324" fill="rgb(0, 0, 0)" stroke="rgb(153, 153, 153)" stroke-width="1.5px"></line></g></g><g><g><line x1="120.53645833333333" y1="0" x2="120.53645833333333" y2="378" fill="rgb(0, 0, 0)" stroke="rgb(153, 153, 153)" stroke-width="1.5px"></line></g></g><g><g><g><g><g><path stroke="rgb(238, 51, 119)" stroke-width="2px" d="M126.32220833333334,297.5455114245415L131.1436666666667,245.8247046545148L135.965125,215.40383469693515L140.7865833333333,205.9111727303004L145.60804166666668,195.46388884516412L150.4295,186.15377989466572L155.25095833333333,179.2890307415247L160.07241666666667,174.89244570020585L164.893875,173.0464007411516L169.71533333333332,176.37233713469976L174.5367916666667,179.84659581643982L179.35825,174.25042538868973L184.1797083333333,168.97341909651945L189.00116666666665,151.65683819927102L193.82262500000002,139.95261630306888L198.64408333333333,131.86039062054354L203.46554166666667,128.50753734492773L208.28699999999998,129.88113171199745L213.10845833333335,134.7911570268637L217.92991666666668,133.85383780268754L222.751375,134.526046141803L227.57283333333334,137.51106263477783L232.39429166666667,137.11335269412047L237.21575,153.686032763474L242.03720833333333,163.65298119295323L246.85866666666666,165.47954627186587L251.68012499999998,164.1968206885435L256.5015833333334,165.7029796982181L261.32304166666665,171.28245920150871L266.1445,168.01601238880588L270.96595833333333,159.19599904747724L275.7874166666667,158.61594246856427L280.608875,161.1452331739386L285.43033333333335,172.5952191890228L290.25179166666663,189.00169718699317L295.07325,199.11053799348917L299.89470833333337,200.06002092208666L304.71616666666665,198.46533536227204L309.537625,197.51865376804952L314.35908333333333,187.132889482054L319.18054166666667,184.55489314151043L324.002,181.9341010829248L328.82345833333335,178.45213163873976L333.64491666666663,165.6134441650406L338.466375,161.13504686049734L343.28783333333337,158.49865716734251L348.10929166666665,159.12482296253833L352.93075,162.2407118012746L357.75220833333333,174.950903101749L362.57366666666667,172.28845892187994L367.395125,167.7345612158378L372.21658333333335,157.2716567581588L377.03804166666663,153.3295628109919L381.8595,146.6381668018835L386.6809583333333,145.10210746333127L391.50241666666665,149.4231339085424L396.32387500000004,154.3949095123019L401.1453333333333,157.54603994566278L405.96679166666667,167.56750910686384L410.78824999999995,176.6662630629957L415.60970833333334,174.52270686581247L420.4311666666667,175.87042343589377L425.25262499999997,178.1830439327521L430.07408333333336,172.31666820993198L434.8955416666667,164.9509515866647L439.717,162.54613953262626L444.5384583333334,155.65521458047667L449.35991666666666,148.33846966778057L454.181375,150.97384653302922L459.00283333333334,161.31137357838682L463.8242916666666,163.42900993041835L468.64575,167.95815897949123L473.4672083333333,160.29129725079295L478.28866666666664,154.0172860943112L483.11012500000004,151.09494025247295L487.9315833333333,153.1819033070624L492.75304166666666,153.26943422819494L497.57449999999994,162.90927329936815L502.39595833333334,170.22115010785572L507.2174166666667,175.36538011293118L512.038875,175.01153573072258L516.8603333333333,175.60205331251802L521.6817916666668,185.3451837468492L526.50325,180.6924976687638L531.3247083333333,177.12971788531593L536.1461666666667,174.8485393875006L540.967625,171.30477106292028L545.7890833333333,173.4802188618122L550.6105416666667,182.0485198821508L555.432,181.56873709713716L560.2534583333332,176.65159782621447L565.0749166666667,178.60283537419548L569.896375,179.84525854415838L574.7178333333333,178.15735577957122L579.5392916666667,178.2555790866392L584.36075,177.58033624440296L589.1822083333333,175.33483294933953L594.0036666666667,172.6510956543083L598.825125,168.83719498261186L603.6465833333333,176.61985334363206L608.4680416666667,181.41015549067626L613.2895,180.4916846487759L618.1109583333333,187.72826426826947L622.9324166666667,192.64050546647923L627.753875,193.94402083970195L632.5753333333333,170.79275756607703L637.3967916666667,152.1783591600076L642.21825,136.5686102683434L647.0397083333334,125.45749516338643L651.8611666666667,128.4764261904391L656.682625,134.45582431930498L661.5040833333333,141.2548166893613L666.3255416666667,141.10726356403185L671.147,145.41488857207386L675.9684583333333,151.1403054424387L680.7899166666667,154.73254332710871L685.611375,159.70132676225646L690.4328333333333,159.06839184440216L695.2542916666667,166.4914850501838L700.07575,174.3654999320878L704.8972083333333,175.52825801284155L709.7186666666666,174.52809257931136L714.540125,177.52806713358538L719.3615833333333,183.90442744598377L724.1830416666667,185.16111140075677L729.0045,190.83439438714595L733.8259583333332,196.14625678762204L738.6474166666667,178.7930828231836L743.468875,166.27912651886135L748.2903333333333,158.35069048040856L753.1117916666667,148.80583169241999L757.93325,152.25042845118196L762.7547083333333,159.3124089795837L767.5761666666666,158.01970284929806L772.3976250000001,158.36384006590208L777.2190833333333,163.1320312276516L782.0405416666666,159.58222776979406L786.8620000000001,149.46188281971334L791.6834583333333,148.78696188329528L796.5049166666666,148.8699928343229L801.3263750000001,149.8141843450029L806.1478333333333,154.19935808014625L810.9692916666667,170.77826162237974L815.7907499999999,187.50250651871593L820.6122083333333,178.9679307605948L825.4336666666667,172.6182374755219L830.2551249999999,171.51628016231513L835.0765833333334,170.17776774643687L839.8980416666667,154.984417529576L844.7194999999999,159.67916942338522L849.5409583333334,158.91461492002236L854.3624166666667,156.17934336912768L859.183875,154.35656098516068L864.0053333333334,162.55920999044943L868.8267916666667,166.70697393891075L873.64825,172.40909723566094L878.4697083333333,177.77519848421883L883.2911666666668,179.73365279719633L888.112625,187.07749369552968L892.9340833333333,175.684800927706L897.7555416666667,169.22340363554204L902.577,159.89859963829545L907.3984583333333,152.68473072871703L912.2199166666667,141.37602093234742L917.041375,114.62311965474531L921.8628333333332,106.43703020959522L926.6842916666667,105.02816470473662L931.50575,105.33935556417497L936.3272083333333,111.66054044726964L941.1486666666666,133.48738795854734L945.970125,142.05457152329734L950.7915833333333,150.18893245102674L955.6130416666666,157.88237688089438L960.4345000000001,154.5636916467251L965.2559583333333,157.38340045861608L970.0774166666666,168.59121066243773L974.8988750000001,145.49930952734547L979.7203333333333,122.54386367050883L984.5417916666667,114.99172805337957L989.3632500000001,107.60401510351208L994.1847083333333,102.46481880636996L999.0061666666667,116.32708044702997L1003.8276249999999,137.69115354928485L1008.6490833333334,145.42620450444886L1013.4705416666667,160.16858185641686L1018.2919999999999,171.28158124275635L1023.1134583333334,181.7943914412715L1027.9349166666666,187.6581457900559L1032.756375,179.78288948819372L1037.5778333333335,175.47965705564815L1042.3992916666666,170.67949555022238L1047.22075,158.93212894024083L1052.0422083333335,150.1901270116665L1056.8636666666666,157.5726096847831L1061.685125,162.6225264203059L1066.5065833333333,158.70628810712736L1071.3280416666666,167.97567887776518L1076.1495,175.1339083413686L1080.9709583333333,167.93067688348324L1085.7924166666667,166.40797545076865L1090.613875,164.42615390754617L1095.4353333333333,163.7654346998744L1100.2567916666667,156.08009803153348L1105.07825,155.96464569483564L1109.8997083333334,153.26552543112254L1114.7211666666667,157.8525390211857L1119.542625,160.48280408287744L1124.3640833333334,181.7122425693554L1129.1855416666665,188.88607890953315L1134.007,192.2189043495041L1138.8284583333334,190.5486991007913L1143.6499166666665,188.30251848696403L1148.471375,184.09286820887763L1153.2928333333334,183.8680374383881L1158.1142916666665,180.61362260341375L1162.93575,180.37380062198477L1167.7572083333334,178.9601522603979L1172.5786666666665,177.65141293521822L1177.400125,182.5568881816632L1182.2215833333335,191.96039690893687L1187.0430416666666,191.3856755156624L1191.8645,195.8714195763652L1196.6859583333335,191.0783544466248L1201.5074166666666,188.9146508744568L1206.328875,189.93703477211062L1211.1503333333335,196.300649169846L1215.9717916666666,206.62082205043055L1220.79325,203.74792276517044L1225.6147083333335,188.8220139664143L1230.4361666666666,179.9353941632348L1235.257625,178.32509929853904L1240.0790833333333,172.96970748256584L1244.9005416666666,180.25406856149993L1249.722,169.6410519767437L1254.5434583333333,161.87199595502815L1259.3649166666667,160.73803369362238L1264.186375,163.80236859416416L1269.0078333333333,184.1758766847578L1273.8292916666667,199.84986280666155L1278.65075,207.89292225400425L1283.4722083333334,212.88726073002707L1288.2936666666667,205.0009359210485L1293.115125,77.1527191454025L1297.9365833333334,-6.086147901186221L1312.4009583333334,-104.82009342028907L1317.2224166666665,0.9204670267451127L1322.043875,77.05258577329806L1326.8653333333334,115.97620764531428L1331.6867916666665,142.40606684182723L1336.50825,154.0770274799743L1341.3297083333334,159.43208208094114L1346.1511666666665,159.1181275749807L1350.972625,173.2271254005792L1355.7940833333334,169.03797869341147L1360.6155416666666,165.21955178056103L1365.437,145.51409095450606L1370.2584583333335,136.86530538752297L1375.0799166666666,116.22006252023351L1379.901375,109.18887535698873L1384.7228333333335,101.86012239436903L1389.5442916666666,97.35244771945833L1394.36575,92.54967396919938" style="fill: none;" fill="none"></path></g><g><path stroke="rgb(51, 187, 238)" stroke-width="2px" d="M126.32220833333334,299.6052870154381L131.1436666666667,256.5501222386956L135.965125,237.72969473989642L140.7865833333333,234.91936416419992L145.60804166666668,223.82286187987788L150.4295,219.14749582399136L155.25095833333333,200.72724812962923L160.07241666666667,179.97785647585337L164.893875,167.24827353132977L169.71533333333332,157.5716592729614L174.5367916666667,146.6372137713009L179.35825,154.7534384723619L184.1797083333333,157.79719043514902L189.00116666666665,168.1691518558658L193.82262500000002,179.26010461750147L198.64408333333333,186.8366906566929L203.46554166666667,112.42435425027566L208.28699999999998,67.27215137559914L213.10845833333335,37.63222328915675L217.92991666666668,18.53957417893161L222.751375,6.245761424430346L227.57283333333334,60.41817720544358L232.39429166666667,102.00728735445503L237.21575,124.56937304297296L242.03720833333333,137.55317311397928L246.85866666666666,141.7530621938248L251.68012499999998,137.92959028472208L256.5015833333334,137.02909875639642L261.32304166666665,137.7772640644164L266.1445,141.0773269950509L270.96595833333333,130.200464464054L275.7874166666667,135.12960428892666L280.608875,116.57304290672603L285.43033333333335,104.79130808774953L290.25179166666663,99.65619765194674L295.07325,101.75460499586852L299.89470833333337,106.33971561683917L304.71616666666665,132.9538386242003L309.537625,150.20621930487604L314.35908333333333,156.20030515356024L319.18054166666667,161.263240919378L324.002,164.36786791585283L328.82345833333335,162.9315682222415L333.64491666666663,160.47252907531384L338.466375,160.91274355759984L343.28783333333337,158.8642330103477L348.10929166666665,159.5450792273156L352.93075,161.4983282065992L357.75220833333333,163.76079768998127L362.57366666666667,168.11491538923144L367.395125,174.493866645374L372.21658333333335,181.7609812039814L377.03804166666663,185.07218606583942L381.8595,188.03402113505118L386.6809583333333,192.2123489832184L391.50241666666665,187.26444571347656L396.32387500000004,187.81485810954356L401.1453333333333,186.3277265493807L405.96679166666667,185.0028918424091L410.78824999999995,190.33562754624165L415.60970833333334,200.04841746707632L420.4311666666667,195.1999554027311L425.25262499999997,180.51617799932893L430.07408333333336,169.20721885404066L434.8955416666667,162.33229792619392L439.717,156.18270070853612L444.5384583333334,152.96300444306598L449.35991666666666,163.7283264237742L454.181375,170.17065903175475L459.00283333333334,176.22967985051037L463.8242916666666,187.47675863967635L468.64575,186.75369339028774L473.4672083333333,182.39311054253446L478.28866666666664,170.24383293929023L483.11012500000004,164.18608781899405L487.9315833333333,160.12596085790037L492.75304166666666,150.7030383296206L497.57449999999994,146.6144760815736L502.39595833333334,153.31196300795298L507.2174166666667,157.83159652120244L512.038875,160.21188134411793L516.8603333333333,175.89085275208845L521.6817916666668,187.4144804851764L526.50325,190.18369405129874L531.3247083333333,190.82696466838908L536.1461666666667,97.38082540747877L540.967625,41.030745152934536L545.7890833333333,5.555011727991188L550.6105416666667,-16.133073819528526L555.432,-30.033562095672217L560.2534583333332,54.09360042112454L565.0749166666667,101.16292771635881L569.896375,126.41322331987878L574.7178333333333,143.5739965758506L579.5392916666667,154.33405439387462L584.36075,158.96840481955232L589.1822083333333,163.9676800072099L594.0036666666667,162.24338323473367L598.825125,158.81275910496376L603.6465833333333,154.18086987948215L608.4680416666667,154.09233788380502L613.2895,156.0820268376438L618.1109583333333,161.28737089537196L622.9324166666667,159.66936562956937L627.753875,160.80694355071526L632.5753333333333,166.1693055957612L637.3967916666667,166.93632533133365L642.21825,174.53845039594378L647.0397083333334,82.45767984144808L651.8611666666667,28.00709272237375L656.682625,-5.416331143309128L666.3255416666667,-36.14099401872024L671.147,59.28075030660236L675.9684583333333,113.88771574029685L680.7899166666667,141.09821858602385L685.611375,152.3441657936431L690.4328333333333,153.10187129472837L695.2542916666667,154.36287734684433L700.07575,150.14935883150747L704.8972083333333,153.18795838514714L709.7186666666666,159.14751700496524L714.540125,170.6594151254645L719.3615833333333,174.2664172408671L724.1830416666667,174.5485884045178L729.0045,169.75855787364327L733.8259583333332,166.0024232373696L738.6474166666667,158.20657078659897L743.468875,159.6200238241933L748.2903333333333,161.67744318092957L753.1117916666667,169.2590175595587L757.93325,166.53967185775667L762.7547083333333,171.6365175006403L767.5761666666666,173.76733931050384L772.3976250000001,172.47538695422222L777.2190833333333,174.13310357145912L782.0405416666666,179.3657851470259L786.8620000000001,182.08067637996356L791.6834583333333,185.47119673679163L796.5049166666666,186.8155589615696L801.3263750000001,184.3384984323617L806.1478333333333,175.3681110375664L810.9692916666667,170.09690917930254L815.7907499999999,166.48820150733738L820.6122083333333,166.63089888596983L825.4336666666667,172.11933427634506L830.2551249999999,182.24198115815324L835.0765833333334,187.28173864453794L839.8980416666667,198.64322741371254L844.7194999999999,197.54565400804196L849.5409583333334,98.68142835453219L854.3624166666667,37.634997607201704L859.183875,1.213029814321013L864.0053333333334,-20.94545405354602L868.8267916666667,-44.60045953539916L873.64825,16.511755109143845L878.4697083333333,55.47114436645071L883.2911666666668,79.59032230865216L888.112625,83.1359309035018L892.9340833333333,109.19391854271143L897.7555416666667,129.45803737440616L902.577,142.46382236360856L907.3984583333333,144.9651145927867L912.2199166666667,161.2326530452228L917.041375,161.97707084629872L921.8628333333332,155.57263529189788L926.6842916666667,140.11932198934772L931.50575,132.62440519769797L936.3272083333333,119.07677896761776L941.1486666666666,112.03137965168885L945.970125,113.03003422717053L950.7915833333333,126.8396565455186L955.6130416666666,135.22833406555577L960.4345000000001,143.7160592772241L965.2559583333333,151.6536418376968L970.0774166666666,155.79618652931484L974.8988750000001,160.69894585771343L979.7203333333333,159.22602873899334L984.5417916666667,165.3452644220459L989.3632500000001,171.1217210693042L994.1847083333333,170.0232134582329L999.0061666666667,175.63884548674395L1003.8276249999999,179.91860335070118L1008.6490833333334,185.012125641097L1013.4705416666667,185.63679808973632L1018.2919999999999,185.29949180245018L1023.1134583333334,185.45318865751992L1027.9349166666666,171.47496914849145L1032.756375,161.64634966841618L1037.5778333333335,155.18518795961901L1042.3992916666666,153.73000296589592L1047.22075,147.17032390020407L1052.0422083333335,147.98893235434363L1056.8636666666666,154.86687396949097L1061.685125,162.01120390287377L1066.5065833333333,158.79530190105046L1071.3280416666666,146.91743630573032L1076.1495,140.53570844176343L1080.9709583333333,135.86199990178898L1085.7924166666667,131.9998789266691L1090.613875,130.37609427189503L1095.4353333333333,135.8652657092551L1100.2567916666667,45.85014315968395L1105.07825,-8.185987636294152L1119.542625,-67.98661884030375L1124.3640833333334,31.78352689528063L1129.1855416666665,96.5458943354106" style="fill: none;" fill="none"></path></g><g><path stroke="rgb(187, 187, 187)" stroke-width="2px" d="M126.32220833333334,297.5455114245415L131.1436666666667,224.48301393538713L135.965125,198.9937812880594L140.7865833333333,187.47276303194027L145.60804166666668,170.8316068048282L150.4295,159.65750614779367L155.25095833333333,152.51007614684025L160.07241666666667,149.9727687628332L164.893875,154.85385238747614L169.71533333333332,69.5177241974409L174.5367916666667,20.01204668135014L179.35825,-7.394575016582036L189.00116666666665,-36.57618950088031L193.82262500000002,60.306828146490396L198.64408333333333,121.77680960604376L203.46554166666667,162.55438271695036L208.28699999999998,191.43198301219314L213.10845833333335,200.52941942328627L217.92991666666668,204.63930536639987L222.751375,209.21519547988277L227.57283333333334,209.57667453601297L232.39429166666667,209.5311415385336L237.21575,200.29160829051543L242.03720833333333,182.98642815006158L246.85866666666666,171.26141906552235L251.68012499999998,148.1568348491839L256.5015833333334,136.16185019629162L261.32304166666665,134.25037994418196L266.1445,142.13118750293958L270.96595833333333,148.22522362504466L275.7874166666667,159.68862458168374L280.608875,167.01322793233157L285.43033333333335,165.3096401636531L290.25179166666663,166.2451739915937L295.07325,179.76241367744518L299.89470833333337,182.83820040750894L304.71616666666665,187.91110889249245L309.537625,195.43740975228786L314.35908333333333,200.28451044830615L319.18054166666667,199.96694631236915L324.002,199.46511537323954L328.82345833333335,199.65126904546963L333.64491666666663,198.58100057046795L338.466375,193.66624789426015L343.28783333333337,184.58280747469811L348.10929166666665,179.17086234869106L352.93075,158.2929354614192L357.75220833333333,140.699626404178L362.57366666666667,130.32383906721537L367.395125,124.50193912908276L372.21658333333335,125.44226149991339L377.03804166666663,141.75642059016204L381.8595,156.45063427549928L386.6809583333333,162.03365952648477L391.50241666666665,169.55982088374031L396.32387500000004,175.1355249841639L401.1453333333333,178.42908339259844L405.96679166666667,182.42873528336213L410.78824999999995,190.91943942746397L415.60970833333334,201.37372662568646L420.4311666666667,191.97105489936192L425.25262499999997,186.4904153035087L430.07408333333336,185.6826380065681L434.8955416666667,176.43898763487346L439.717,171.71594289678097L444.5384583333334,178.70642196975805L449.35991666666666,177.77946517373715L454.181375,176.9342614025211L459.00283333333334,182.6620829111538L463.8242916666666,182.2637301925541L468.64575,183.03527707122095L473.4672083333333,186.26292840398744L478.28866666666664,187.70568032120107L483.11012500000004,185.6919418993857L487.9315833333333,186.07416553635994L492.75304166666666,184.30187484824418L497.57449999999994,184.98947222950318L502.39595833333334,175.79768476439867L507.2174166666667,170.88545270892L512.038875,164.7814409979106L516.8603333333333,162.62133022832398L521.6817916666668,158.81165197305396L526.50325,165.45863615758728L531.3247083333333,167.44795696310706L536.1461666666667,173.40907168610397L540.967625,176.52443318500224L545.7890833333333,178.78067095836465L550.6105416666667,179.9348830208806L555.432,175.69642175588774L560.2534583333332,174.7578965029345L565.0749166666667,175.6566977024809L569.896375,164.042043943449L574.7178333333333,159.21341243937263L579.5392916666667,157.10900525781304L584.36075,153.4497329505252L589.1822083333333,144.31087542247576L594.0036666666667,145.719341186713L598.825125,147.26587023021628L603.6465833333333,144.0586144309154L608.4680416666667,151.3592849839276L613.2895,162.34610974005145L618.1109583333333,164.6330557060914L622.9324166666667,156.79865113453133L627.753875,154.39906563494245L632.5753333333333,153.58318156083607L637.3967916666667,144.02325106907L642.21825,146.0367636754996L647.0397083333334,155.87400198429143L651.8611666666667,159.51534319191768L656.682625,155.27648306053635L661.5040833333333,159.64771471119977L666.3255416666667,162.31255880413684L671.147,162.39185523640057L675.9684583333333,166.38926868230666L680.7899166666667,179.53620803708176L685.611375,187.810269858565L690.4328333333333,190.13708182938458L695.2542916666667,188.6940923974965L700.07575,173.85131528652036L704.8972083333333,165.7090769450445L709.7186666666666,158.8753120804178L714.540125,157.2729579391687L719.3615833333333,162.6041005005007L724.1830416666667,176.1439712255934L729.0045,181.52812143622273L733.8259583333332,183.56525943552512L738.6474166666667,99.43333595916666L743.468875,46.64183102801466L748.2903333333333,16.577643935412294L753.1117916666667,-1.3946825596510033L757.93325,-13.37573585109823L762.7547083333333,65.56707309963159L767.5761666666666,105.70821604300652L772.3976250000001,126.94163552027415L777.2190833333333,140.4073822444765L782.0405416666666,149.0334292856507L786.8620000000001,159.62987831876592L791.6834583333333,181.8253637054319L796.5049166666666,199.83688978545396L801.3263750000001,207.89915373440104L806.1478333333333,215.8683082730503L810.9692916666667,217.7288110060055L815.7907499999999,206.9816189171409L820.6122083333333,195.11449129352184" style="fill: none;" fill="none"></path></g><g><path stroke="rgb(0, 153, 136)" stroke-width="2px" d="M126.32220833333334,261.025719165802L131.1436666666667,231.9905678629875L135.965125,223.33688931562463L140.7865833333333,201.11777923212333L145.60804166666668,189.81150467605912L150.4295,181.19525880626657L155.25095833333333,169.52999757790437L160.07241666666667,162.26848673841604L164.893875,156.82541605899942L169.71533333333332,150.9253164821322L174.5367916666667,151.38744088010446L179.35825,142.11745622989494L184.1797083333333,141.95893189343144L189.00116666666665,144.2355129870734L193.82262500000002,153.7046963699013L198.64408333333333,155.04926296537118L203.46554166666667,169.45913350087315L208.28699999999998,167.16390437630386L213.10845833333335,151.6389918683669L217.92991666666668,132.64832617366318L222.751375,124.07640188534037L227.57283333333334,114.12926466390743L232.39429166666667,117.32596603981611L237.21575,125.68286325586898L242.03720833333333,136.1800433219038L246.85866666666666,149.68176747707034L251.68012499999998,160.17293402444824L256.5015833333334,166.9685782017264L261.32304166666665,169.61051019153106L266.1445,180.73668916697284L270.96595833333333,189.72819137437426L275.7874166666667,182.73019868387675L280.608875,173.42700922323377L285.43033333333335,167.7614521062345L290.25179166666663,162.22258543243967L295.07325,158.97455101996857L299.89470833333337,161.26269540885647L304.71616666666665,163.33807703848163L309.537625,164.6944550365357L314.35908333333333,164.83207161982267L319.18054166666667,163.59532432313557L324.002,75.1817337359044L328.82345833333335,25.850456776981478L333.64491666666663,-4.843443743083707L367.395125,-29.473609553130988L372.21658333333335,46.698182138216126L377.03804166666663,103.48587343250394L381.8595,129.15194905495161L386.6809583333333,153.0731707376125L391.50241666666665,163.82252888452712L396.32387500000004,166.4230545316446L401.1453333333333,167.3718365642017L405.96679166666667,172.14141420201017L410.78824999999995,168.24103805825425L415.60970833333334,168.6706854188759L420.4311666666667,180.53243616129893L425.25262499999997,172.82114683929638L430.07408333333336,62.015897866150304L434.8955416666667,-4.262823417150907L449.35991666666666,-74.41884152863688L454.181375,27.878761382256375L459.00283333333334,97.72859063825275L463.8242916666666,139.7092058127002L468.64575,158.07442657142136L473.4672083333333,161.84604830735472L478.28866666666664,164.80856034275027L483.11012500000004,153.65101545522296L487.9315833333333,147.84149390142963L492.75304166666666,149.60335081626062L497.57449999999994,152.97738371973682L502.39595833333334,154.32199351004036L507.2174166666667,162.50371837622686L512.038875,169.07742404941774L516.8603333333333,161.34112243654764L521.6817916666668,155.9292136001732L526.50325,151.47231392670548L531.3247083333333,147.1184246337943L536.1461666666667,133.4351270077546L540.967625,134.6816217826557L545.7890833333333,143.47316908399767L550.6105416666667,150.6842112038166L555.432,153.6112641032714L560.2534583333332,168.78556701756588L565.0749166666667,172.49914038906735L569.896375,175.88439710575486L574.7178333333333,173.9899610021004L579.5392916666667,175.4444265448027L584.36075,185.38007469671805L589.1822083333333,182.41922447501327L594.0036666666667,179.74433482538876L598.825125,176.88950880081188L603.6465833333333,167.6765645486756L608.4680416666667,157.932854660907L613.2895,157.4239088109485L618.1109583333333,160.89922005005786L622.9324166666667,158.0662053469903L627.753875,161.0848356273226L632.5753333333333,170.0044273010762L637.3967916666667,175.4195820016784L642.21825,174.47147175807493L647.0397083333334,182.56803243838985L651.8611666666667,186.51305647780444L656.682625,192.3325708633062L661.5040833333333,200.49329041990023L666.3255416666667,197.62278299064863L671.147,182.12961232978955L675.9684583333333,176.96300203990253L680.7899166666667,171.3991715394933L685.611375,166.9867914368796L690.4328333333333,176.63383702338263L695.2542916666667,174.1952855819495L700.07575,168.4322123190183L704.8972083333333,164.37727516057603L709.7186666666666,158.961205489412L714.540125,156.1244316142649L719.3615833333333,166.60581035863464L724.1830416666667,168.23761551052988L729.0045,169.56426654142535L733.8259583333332,176.71337948967454L738.6474166666667,181.3121518774595L743.468875,193.19904554389512L748.2903333333333,188.39501345457194L753.1117916666667,183.19883744896387L757.93325,178.092077737933L762.7547083333333,176.04921999328474L767.5761666666666,178.44074358196937L772.3976250000001,183.68203419239453L777.2190833333333,189.69804593200163L782.0405416666666,193.0561295764129L786.8620000000001,195.973293758421L791.6834583333333,200.96356342851448L796.5049166666666,204.6356503404339L801.3263750000001,202.98917981607676L806.1478333333333,199.9109923638282L810.9692916666667,196.3444912312852L815.7907499999999,194.92689184417884L820.6122083333333,193.47596886200046L825.4336666666667,197.15763274694885L830.2551249999999,202.75798697391392L835.0765833333334,199.44104916524438L839.8980416666667,189.5393397728893L844.7194999999999,186.81965832235173L849.5409583333334,183.4084711332426L854.3624166666667,182.06308480854665L859.183875,175.19213116619488L864.0053333333334,180.31476524146498L868.8267916666667,177.7605476061827L873.64825,161.09991529466666L878.4697083333333,151.70952288438056L883.2911666666668,150.73469905930267L888.112625,147.7569773487896L892.9340833333333,146.67300412015024L897.7555416666667,148.6565168199295L902.577,150.69774386270967L907.3984583333333,147.23540866961554L912.2199166666667,141.25955708378834L917.041375,129.05472583505082L921.8628333333332,112.88061458428245L926.6842916666667,102.19296073054996L931.50575,100.27295608005359L936.3272083333333,102.75169440914055L941.1486666666666,114.92167551999606L945.970125,148.6556521396954L950.7915833333333,164.19194131738658L955.6130416666666,174.50537341622544L960.4345000000001,191.12723003499522L965.2559583333333,190.59527799292098L970.0774166666666,192.91962845804503L974.8988750000001,190.2306154232157L979.7203333333333,176.5243347919543L984.5417916666667,164.19188397148605L989.3632500000001,159.4277366222105L994.1847083333333,153.68632584936387L999.0061666666667,149.02410324887614L1003.8276249999999,155.98772225663768L1008.6490833333334,162.7008463971955L1013.4705416666667,164.71720831591742L1018.2919999999999,163.60633187889374L1023.1134583333334,161.0170406663377L1027.9349166666666,159.23087335610148L1032.756375,90.13900809874384L1037.5778333333335,51.91947244042305L1042.3992916666666,26.978859749043828L1047.22075,13.223211387756377L1052.0422083333335,4.529150450207532L1056.8636666666666,70.21775291203127L1061.685125,92.00548466347851L1066.5065833333333,111.04368958653926L1071.3280416666666,116.76482668985079L1076.1495,117.70531019848082L1080.9709583333333,126.07804203797275L1085.7924166666667,138.20945091705855L1090.613875,137.5531323651155L1095.4353333333333,134.77040194867135L1100.2567916666667,137.54646720527464L1105.07825,50.21790984892162L1109.8997083333334,-2.2788533948462533L1124.3640833333334,-55.020211779697895L1129.1855416666665,38.4381205060338L1134.007,90.79836424697965L1138.8284583333334,126.16487651174978L1143.6499166666665,128.77880891028474L1148.471375,129.90891685404438L1153.2928333333334,134.0180479426268L1158.1142916666665,134.1165462338378L1162.93575,136.94117693921626L1167.7572083333334,152.06111786854686L1172.5786666666665,158.06439498718038L1177.400125,164.30785906109483L1182.2215833333335,169.18533704157633L1187.0430416666666,176.11715410635446L1191.8645,94.48727816632734L1196.6859583333335,44.85130587989893L1201.5074166666666,16.21235899791006L1206.328875,-1.0615021427578628L1211.1503333333335,-11.122245981699654L1215.9717916666666,64.43800952767941L1220.79325,104.4513435049988L1225.6147083333335,126.41540277505736L1230.4361666666666,139.02558424773707L1235.257625,137.16206075372034L1240.0790833333333,144.72949391378003L1244.9005416666666,141.1133416043105L1249.722,133.67301938214197L1254.5434583333333,131.59510801600393L1259.3649166666667,135.8807430169998L1264.186375,136.7599016131174L1269.0078333333333,140.98215556747985L1273.8292916666667,151.27781224612752L1278.65075,157.95988040187578" style="fill: none;" fill="none"></path></g></g></g></g><g opacity="0.2"><g><g><g><path stroke="rgb(238, 51, 119)" stroke-width="2px" d="M126.32220833333334,297.5455114245415L131.1436666666667,214.79222059249878L135.965125,186.1997995376587L140.7865833333333,194.74780225753784L145.60804166666668,181.82391500473022L150.4295,173.27454757690427L155.25095833333333,169.47232961654663L160.07241666666667,168.48218250274658L164.893875,170.32384300231934L169.71533333333332,181.31096506118774L174.5367916666667,185.02647256851196L179.35825,165.88662385940552L184.1797083333333,161.07513999938965L189.00116666666665,125.71589183807374L193.82262500000002,122.41004133224487L198.64408333333333,119.7277593612671L203.46554166666667,123.47967624664305L208.28699999999998,131.9411745071411L213.10845833333335,142.1554470062256L217.92991666666668,132.44794464111328L222.751375,135.53432178497314L227.57283333333334,141.988489151001L232.39429166666667,136.5167956352234L237.21575,178.54485654830935L242.03720833333333,178.6033329963684L246.85866666666666,168.21938610076904L251.68012499999998,162.27273559570312L256.5015833333334,167.96221590042114L261.32304166666665,179.65167331695557L266.1445,163.11634397506714L270.96595833333333,145.9659819602966L275.7874166666667,157.74585771560666L280.608875,164.9391689300537L285.43033333333335,189.77019739151L290.25179166666663,213.6114134788513L295.07325,214.27379894256592L299.89470833333337,201.484245300293L304.71616666666665,196.07330703735354L309.537625,196.09863138198855L314.35908333333333,171.55424308776855L319.18054166666667,180.68789863586426L324.002,178.00291299819946L328.82345833333335,173.22917747497561L333.64491666666663,146.3554129600525L338.466375,154.4174509048462L343.28783333333337,154.54407262802124L348.10929166666665,160.0640716552734L352.93075,166.9145450592041L357.75220833333333,194.01619005203247L362.57366666666667,168.29479265213013L367.395125,160.90371465682983L372.21658333333335,141.57730007171628L377.03804166666663,147.4164218902588L381.8595,136.60107278823855L386.6809583333333,142.79801845550537L391.50241666666665,155.90467357635498L396.32387500000004,161.85257291793823L401.1453333333333,162.27273559570312L405.96679166666667,182.59971284866333L410.78824999999995,190.31439399719238L415.60970833333334,171.30737257003784L420.4311666666667,177.89199829101562L425.25262499999997,181.65197467803955L430.07408333333336,163.51710462570188L434.8955416666667,153.90237665176394L439.717,158.9389214515686L444.5384583333334,145.3188271522522L449.35991666666666,137.36335229873657L454.181375,154.9269118309021L459.00283333333334,176.81766414642337L463.8242916666666,166.6054644584656L468.64575,174.75188255310061L473.4672083333333,148.7910046577454L478.28866666666664,144.60626935958865L483.11012500000004,146.71142148971558L487.9315833333333,156.31234788894653L492.75304166666666,153.4007306098938L497.57449999999994,177.36903190612796L502.39595833333334,181.18896532058716L507.2174166666667,183.08172512054443L512.038875,174.48076915740967L516.8603333333333,176.48782968521118L521.6817916666668,199.95987939834592L526.50325,173.71346855163574L531.3247083333333,171.78554821014401L536.1461666666667,171.42677164077756L540.967625,165.98911857604983L545.7890833333333,176.74339056015015L550.6105416666667,194.9009714126587L555.432,180.8490629196167L560.2534583333332,169.27588891983032L565.0749166666667,181.529691696167L569.896375,181.70889329910278L574.7178333333333,175.62550163269043L579.5392916666667,178.40291404724124L584.36075,176.56747198104858L589.1822083333333,171.96657800674438L594.0036666666667,168.62548971176147L598.825125,163.11634397506714L603.6465833333333,188.29384088516235L608.4680416666667,188.59560871124268L613.2895,179.11397838592532L618.1109583333333,198.58313369750977L622.9324166666667,200.00886726379395L627.753875,195.89929389953613L632.5753333333333,136.06586265563965L637.3967916666667,124.25676155090333L642.21825,113.15398693084717L647.0397083333334,108.79082250595093L651.8611666666667,133.00482273101807L656.682625,143.42492151260376L661.5040833333333,151.45330524444583L666.3255416666667,140.88593387603763L671.147,151.87632608413696L675.9684583333333,159.72843074798584L680.7899166666667,160.1209001541138L685.611375,167.15450191497803L690.4328333333333,158.11898946762085L695.2542916666667,177.6261248588562L700.07575,186.17652225494385L704.8972083333333,177.27239513397217L709.7186666666666,173.02784442901614L714.540125,182.0280289649963L719.3615833333333,193.4689679145813L724.1830416666667,187.04613733291626L729.0045,199.34431886672974L733.8259583333332,204.11405038833618L738.6474166666667,152.7633218765259L743.468875,147.50819206237793L748.2903333333333,146.4580364227295L753.1117916666667,134.488543510437L757.93325,157.41732358932498L762.7547083333333,169.9053797721863L767.5761666666666,156.08064365386963L772.3976250000001,158.88004589080808L777.2190833333333,170.28431797027588L782.0405416666666,154.2575225830078L786.8620000000001,134.28136539459226L791.6834583333333,147.7745804786682L796.5049166666666,148.99453926086423L801.3263750000001,151.23047161102292L806.1478333333333,160.7771186828613L810.9692916666667,195.64661693572998L815.7907499999999,212.58887386322021L820.6122083333333,166.16606712341306L825.4336666666667,163.0936975479126L830.2551249999999,169.86334419250488L835.0765833333334,168.16999912261963L839.8980416666667,132.19439220428467L844.7194999999999,166.72129726409912L849.5409583333334,157.76778316497803L854.3624166666667,152.07643604278564L859.183875,151.6223874092102L864.0053333333334,174.8631834983826L868.8267916666667,172.9286198616028L873.64825,180.96228218078613L878.4697083333333,185.82435035705566L883.2911666666668,182.6713342666626L888.112625,198.09325504302979L892.9340833333333,158.5957617759705L897.7555416666667,159.53130769729614L902.577,145.91139364242554L907.3984583333333,141.86392736434937L912.2199166666667,124.41295623779297L917.041375,74.49376773834229L921.8628333333332,94.15789604187012L926.6842916666667,102.91486644744872L931.50575,105.80614185333252L936.3272083333333,121.14231777191164L941.1486666666666,166.22765922546387L945.970125,154.9053468704224L950.7915833333333,162.39047384262085L955.6130416666666,169.42254352569577L960.4345000000001,149.5856637954712L965.2559583333333,161.61296367645267L970.0774166666666,185.40292596817014L974.8988750000001,110.86145782470703L979.7203333333333,88.1106948852539L984.5417916666667,103.66352462768556L989.3632500000001,96.52244567871092L994.1847083333333,94.75602436065675L999.0061666666667,137.12047290802002L1003.8276249999999,169.73726320266724L1008.6490833333334,157.02878093719482L1013.4705416666667,182.2821478843689L1018.2919999999999,187.95108032226562L1023.1134583333334,197.5636067390442L1027.9349166666666,196.45377731323242L1032.756375,167.97000503540042L1037.5778333333335,169.02480840682983L1042.3992916666666,163.4792532920837L1047.22075,141.31107902526853L1052.0422083333335,137.07712411880493L1056.8636666666666,168.646333694458L1061.685125,170.1974015235901L1066.5065833333333,152.83193063735962L1071.3280416666666,181.87976503372192L1076.1495,185.8712525367737L1080.9709583333333,157.12582969665527L1085.7924166666667,164.12392330169678L1090.613875,161.4534215927124L1095.4353333333333,162.7743558883667L1100.2567916666667,144.55209302902222L1105.07825,155.7914671897888L1109.8997083333334,149.21684503555298L1114.7211666666667,164.73305940628052L1119.542625,164.42820167541507L1124.3640833333334,213.55640029907227L1129.1855416666665,199.64683341979983L1134.007,197.21814250946045L1138.8284583333334,188.04339122772217L1143.6499166666665,184.93324756622314L1148.471375,177.77839279174805L1153.2928333333334,183.5307912826538L1158.1142916666665,175.73200035095212L1162.93575,180.01406764984128L1167.7572083333334,176.83967971801758L1172.5786666666665,175.68830394744873L1177.400125,189.91510105133057L1182.2215833333335,206.06565999984738L1187.0430416666666,190.52359342575073L1191.8645,202.60003566741943L1196.6859583333335,183.88875675201416L1201.5074166666666,185.66909551620483L1206.328875,191.4706106185913L1211.1503333333335,205.846070766449L1215.9717916666666,222.10108137130737L1220.79325,199.43857383728027L1225.6147083333335,166.43315076828006L1230.4361666666666,166.6054644584656L1235.257625,175.90965700149536L1240.0790833333333,164.93661975860593L1244.9005416666666,191.18061017990112L1249.722,153.72152709960938L1254.5434583333333,150.21841192245483L1259.3649166666667,159.0370903015137L1264.186375,168.3988709449768L1269.0078333333333,214.73613882064816L1273.8292916666667,223.3608419895172L1278.65075,219.9575114250183L1283.4722083333334,220.37876844406128L1288.2936666666667,193.17144870758057L1293.115125,-114.6196060180664L1312.4009583333334,-129.18912506103516L1317.2224166666665,159.53130769729614L1322.043875,191.25076389312744L1326.8653333333334,174.36164045333862L1331.6867916666665,182.05085563659668L1336.50825,171.58346843719482L1341.3297083333334,167.46466398239136L1346.1511666666665,158.64719581604004L1350.972625,194.39062213897705L1355.7940833333334,162.7542586326599L1360.6155416666666,159.4919114112854L1365.437,115.95589971542358L1370.2584583333335,123.89212703704835L1375.0799166666666,85.25219821929932L1379.901375,98.6420946121216L1384.7228333333335,90.86699295043945L1389.5442916666666,90.5909357070923L1394.36575,85.34551334381104" style="fill: none;" fill="none"></path></g><g><path stroke="rgb(51, 187, 238)" stroke-width="2px" d="M126.32220833333334,299.6052870154381L131.1436666666667,230.71702337265015L135.965125,219.66208434104917L140.7865833333333,231.6144154071808L145.60804166666668,209.33526849746704L150.4295,212.67978143692017L155.25095833333333,174.38599920272827L160.07241666666667,149.72504425048828L164.893875,148.47461128234863L169.71533333333332,143.20301485061643L174.5367916666667,130.3347201347351L179.35825,166.88360738754272L184.1797083333333,162.35288000106812L189.00116666666665,183.70677423477173L193.82262500000002,195.88349676132202L198.64408333333333,198.19622611999515L203.46554166666667,0.8373384475707888L208.28699999999998,-0.44468879699704633L222.751375,-12.194283485412573L227.57283333333334,141.67501831054688L232.39429166666667,164.39013147354126L237.21575,158.41223430633545L242.03720833333333,157.02878093719482L246.85866666666666,148.05287790298462L251.68012499999998,132.19439220428467L256.5015833333334,135.6783628463745L261.32304166666665,138.89951133728027L266.1445,146.02741956710815L270.96595833333333,113.88517427444457L275.7874166666667,142.52331304550168L280.608875,88.73820304870607L285.43033333333335,87.11870670318605L290.25179166666663,91.95353221893312L295.07325,104.9022159576416L299.89470833333337,113.21738147735597L304.71616666666665,172.8750228881836L309.537625,176.0847902297974L314.35908333333333,165.19143390655518L319.18054166666667,168.85764455795288L324.002,169.02480840682983L328.82345833333335,160.7771186828613L333.64491666666663,156.78397035598755L338.466375,161.5730652809143L343.28783333333337,155.7914671897888L348.10929166666665,160.56634855270386L352.93075,164.42820167541507L357.75220833333333,167.15450191497803L362.57366666666667,174.6460919380188L367.395125,184.0622935295105L372.21658333333335,192.6616530418396L377.03804166666663,190.0389933586121L381.8595,192.47677373886108L386.6809583333333,198.47984075546267L391.50241666666665,179.8425908088684L396.32387500000004,188.64047670364377L401.1453333333333,184.09702920913696L405.96679166666667,183.01563978195193L410.78824999999995,198.33473110198975L415.60970833333334,214.61760234832764L420.4311666666667,187.92726230621338L425.25262499999997,158.49051189422607L430.07408333333336,152.2437801361084L434.8955416666667,152.01991653442383L439.717,146.95830488204956L444.5384583333334,148.13346004486084L449.35991666666666,179.87630939483643L454.181375,179.8341579437256L459.00283333333334,185.31821107864377L463.8242916666666,204.3473768234253L468.64575,185.66909551620483L473.4672083333333,175.85223627090454L478.28866666666664,152.01991653442383L483.11012500000004,155.09947013854983L487.9315833333333,154.03577041625977L492.75304166666666,136.56865453720093L497.57449999999994,140.48163270950317L502.39595833333334,163.35819339752197L507.2174166666667,164.61104679107666L512.038875,163.7823085784912L516.8603333333333,199.4093098640442L521.6817916666668,204.69992208480835L526.50325,194.33751440048215L531.3247083333333,191.7918705940247L536.1461666666667,-42.78838348388674L555.432,-50.884294509887674L560.2534583333332,180.28434419631955L565.0749166666667,171.7669186592102L569.896375,164.2886667251587L574.7178333333333,169.31515645980835L579.5392916666667,170.47414112091067L584.36075,165.91993045806885L589.1822083333333,171.4665927886963L594.0036666666667,159.6569380760193L598.825125,153.66682291030884L603.6465833333333,147.23303604125977L608.4680416666667,153.9595398902893L613.2895,159.06656026840213L618.1109583333333,169.0953869819641L622.9324166666667,157.24235773086548L627.753875,162.51331043243408L632.5753333333333,174.21284866333008L637.3967916666667,168.08685493469238L642.21825,185.94163799285892L647.0397083333334,-55.66347599029539L666.3255416666667,-52.707801818847656L671.147,202.41336679458615L675.9684583333333,195.79816389083865L680.7899166666667,181.91397285461426L685.611375,169.21308660507202L690.4328333333333,154.2384295463562L695.2542916666667,156.25438642501834L700.07575,143.8290810585022L704.8972083333333,157.74585771560666L709.7186666666666,168.08685493469238L714.540125,187.92726230621338L719.3615833333333,179.67692041397092L724.1830416666667,174.9718451499939L729.0045,162.57351207733154L733.8259583333332,160.36822128295898L738.6474166666667,146.51279211044312L743.468875,161.74020338058472L748.2903333333333,164.76357221603394L753.1117916666667,180.63137912750244L757.93325,162.46065330505374L762.7547083333333,179.28178596496585L767.5761666666666,176.9635720252991L772.3976250000001,170.5374584197998L777.2190833333333,176.61967849731445L782.0405416666666,187.21480751037598L786.8620000000001,186.1530132293701L791.6834583333333,190.55697727203366L796.5049166666666,188.83210229873657L801.3263750000001,180.6229076385498L806.1478333333333,161.91252994537356L810.9692916666667,162.19010639190677L815.7907499999999,161.07513999938965L820.6122083333333,166.84494495391846L825.4336666666667,180.351987361908L830.2551249999999,197.4259514808655L835.0765833333334,194.841374874115L839.8980416666667,215.68546056747437L844.7194999999999,195.89929389953613L849.5409583333334,-49.61491012573241L868.8267916666667,-80.08296775817871L873.64825,108.18007707595824L878.4697083333333,113.91022825241087L883.2911666666668,115.76908922195433L888.112625,88.45434379577635L892.9340833333333,148.28090000152588L897.7555416666667,159.85421562194824L902.577,161.97249984741208L907.3984583333333,148.71705293655393L912.2199166666667,185.63396072387698L917.041375,163.0936975479126L921.8628333333332,145.9659819602966L926.6842916666667,116.93935203552246L931.50575,121.38203001022337L936.3272083333333,98.75533962249756L941.1486666666666,101.46328067779542L945.970125,114.52801609039305L950.7915833333333,147.55409002304077L955.6130416666666,147.81135034561157L960.4345000000001,156.44764709472653L965.2559583333333,163.56001567840576L970.0774166666666,162.01000356674194L974.8988750000001,168.05308485031128L979.7203333333333,157.0166530609131L984.5417916666667,174.52411794662476L989.3632500000001,179.78640604019165L994.1847083333333,168.37545204162598L999.0061666666667,184.0622935295105L1003.8276249999999,186.33824014663696L1008.6490833333334,192.65240907669065L1013.4705416666667,186.5738067626953L1018.2919999999999,184.793532371521L1023.1134583333334,185.6837339401245L1027.9349166666666,150.50763988494873L1032.756375,146.90342044830322L1037.5778333333335,145.49344539642334L1042.3992916666666,151.54722547531128L1047.22075,137.33080530166626L1052.0422083333335,149.21684503555298L1056.8636666666666,165.18378639221194L1061.685125,172.727698802948L1066.5065833333333,153.9714488983154L1071.3280416666666,129.10063791275024L1076.1495,130.96311664581302L1080.9709583333333,128.8514370918274L1085.7924166666667,126.20669746398927L1090.613875,127.9404172897339L1095.4353333333333,144.0990228652954L1100.2567916666667,-89.17254066467282L1119.542625,-79.13168907165532L1124.3640833333334,181.43874549865723L1129.1855416666665,193.68944549560544" style="fill: none;" fill="none"></path></g><g><path stroke="rgb(187, 187, 187)" stroke-width="2px" d="M126.32220833333334,297.5455114245415L131.1436666666667,180.64551544189456L135.965125,174.52411794662476L140.7865833333333,173.92404556274414L145.60804166666668,149.1049132347107L150.4295,144.19970226287842L155.25095833333333,142.2891368865967L160.07241666666667,146.27335023880008L164.893875,162.0525026321411L169.71533333333332,-57.19648075103763L189.00116666666665,-53.38235378265382L193.82262500000002,205.51747226715088L198.64408333333333,213.93842840194702L203.46554166666667,223.7034866809845L208.28699999999998,234.74105143547058L213.10845833333335,214.17418813705444L217.92991666666668,210.80375862121582L222.751375,216.07877969741818L227.57283333333334,210.11888122558594L232.39429166666667,209.46284294128418L237.21575,186.43241786956787L242.03720833333333,157.02878093719482L246.85866666666666,153.6739554405212L251.68012499999998,113.50001764297485L256.5015833333334,118.16939163208008L261.32304166666665,131.38317632675174L266.1445,153.95239448547366L270.96595833333333,157.36627578735352L275.7874166666667,176.88372373580935L280.608875,178.00013208389282L285.43033333333335,162.7542586326599L290.25179166666663,167.64847469329834L295.07325,200.03827285766602L299.89470833333337,187.4518804550171L304.71616666666665,195.52047157287598L309.537625,206.72686100006104L314.35908333333333,207.55516147613525L319.18054166666667,199.49060010910034L324.002,198.71236896514893L328.82345833333335,199.9304995536804L333.64491666666663,196.97559785842896L338.466375,186.2941188812256L343.28783333333337,170.95764684677127L348.10929166666665,171.05294466018674L352.93075,126.97604513168335L357.75220833333333,114.3096628189087L362.57366666666667,114.7601580619812L367.395125,115.76908922195433L372.21658333333335,126.85274505615234L377.03804166666663,166.22765922546387L381.8595,178.49195480346683L386.6809583333333,170.4081974029541L391.50241666666665,180.8490629196167L396.32387500000004,183.49908113479614L401.1453333333333,183.36942100524902L405.96679166666667,188.42821311950684L410.78824999999995,203.65549564361572L415.60970833333334,217.05515742301944L420.4311666666667,177.86704730987552L425.25262499999997,178.269455909729L430.07408333333336,184.4709720611572L434.8955416666667,162.57351207733154L439.717,164.6313757896423L444.5384583333334,189.19214057922363L449.35991666666666,176.3890299797058L454.181375,175.66645574569702L459.00283333333334,191.25381517410278L463.8242916666666,181.66620111465454L468.64575,184.1925973892212L473.4672083333333,191.1044054031372L478.28866666666664,189.86980819702148L483.11012500000004,182.6713342666626L487.9315833333333,186.6475009918213L492.75304166666666,181.64343881607059L497.57449999999994,186.0208683013916L502.39595833333334,162.01000356674194L507.2174166666667,163.51710462570188L512.038875,155.6254234313965L516.8603333333333,159.3811640739441L521.6817916666668,153.09713459014895L526.50325,175.4291124343872L531.3247083333333,170.43193817138672L536.1461666666667,182.35074377059937L540.967625,181.1974754333496L545.7890833333333,182.1650276184082L550.6105416666667,181.66620111465454L555.432,169.3387298583984L560.2534583333332,173.35010862350464L565.0749166666667,177.00489950180054L569.896375,146.62006330490112L574.7178333333333,151.97046518325803L579.5392916666667,153.95239448547366L584.36075,147.9608244895935L589.1822083333333,130.6025891304016L594.0036666666667,147.83203983306885L598.825125,149.5856637954712L603.6465833333333,139.24773073196408L608.4680416666667,162.31029081344604L613.2895,178.82634687423703L618.1109583333333,168.06347465515137L622.9324166666667,145.04704427719116L627.753875,150.79968738555905L632.5753333333333,152.3593554496765L637.3967916666667,129.6833553314209L642.21825,149.05703258514404L647.0397083333334,170.62985944747925L651.8611666666667,164.9773550033569L656.682625,148.91819286346436L661.5040833333333,166.20456218719482L666.3255416666667,166.30982494354248L671.147,162.5107998847961L675.9684583333333,172.38538885116577L680.7899166666667,199.25661706924438L685.611375,200.22136259078982L690.4328333333333,193.62729978561404L695.2542916666667,186.5296082496643L700.07575,151.58714962005615L704.8972083333333,153.4957194328308L709.7186666666666,148.62466478347778L714.540125,154.8694267272949L719.3615833333333,170.60081434249878L724.1830416666667,196.45377731323242L729.0045,189.60434675216675L733.8259583333332,186.62096643447876L738.6474166666667,-26.76454925537113L757.93325,-31.347315788269032L762.7547083333333,183.98128652572632L767.5761666666666,165.91993045806885L772.3976250000001,158.79176473617554L777.2190833333333,160.60600233078003L782.0405416666666,161.97249984741208L786.8620000000001,175.52455186843872L791.6834583333333,215.1185917854309L796.5049166666666,226.85417890548706L801.3263750000001,219.99254965782166L806.1478333333333,227.82204008102417L810.9692916666667,220.51956510543823L815.7907499999999,190.860830783844L820.6122083333333,177.31379985809326" style="fill: none;" fill="none"></path></g><g><path stroke="rgb(0, 153, 136)" stroke-width="2px" d="M126.32220833333334,261.025719165802L131.1436666666667,214.56947708129883L135.965125,215.02935791015625L140.7865833333333,174.98810577392578L145.60804166666668,175.05003261566162L150.4295,169.27588891983032L155.25095833333333,152.84848737716678L160.07241666666667,151.68113422393802L164.893875,148.79794406890872L169.71533333333332,142.16435623168942L174.5367916666667,152.07643604278564L179.35825,128.26292610168457L184.1797083333333,141.72166299819946L189.00116666666665,147.64592456817627L193.82262500000002,167.89734077453613L198.64408333333333,157.06516456604L203.46554166666667,191.0678415298462L208.28699999999998,163.721643447876L213.10845833333335,128.3539881706238L217.92991666666668,104.16406345367433L222.751375,111.21898555755615L227.57283333333334,99.20888614654541L232.39429166666667,122.12095499038698L237.21575,138.2181100845337L242.03720833333333,151.92573881149292L246.85866666666666,169.93429613113403L251.68012499999998,175.90965700149536L256.5015833333334,177.162034034729L261.32304166666665,173.57340574264526L266.1445,197.4259514808655L270.96595833333333,203.2154417037964L275.7874166666667,172.23321104049683L280.608875,159.4722261428833L285.43033333333335,159.26311683654788L290.25179166666663,153.91428565979004L295.07325,154.10249948501587L299.89470833333337,164.69491195678708L304.71616666666665,166.45114946365356L309.537625,166.72902202606204L314.35908333333333,165.0384964942932L319.18054166666667,161.74020338058472L324.002,-57.43865203857424L362.57366666666667,-131.6836051940918L367.395125,114.00085258483888L372.21658333333335,160.95586967468262L377.03804166666663,188.66741037368774L381.8595,167.65106248855594L386.6809583333333,188.95500326156613L391.50241666666665,179.9465661048889L396.32387500000004,170.32384300231934L401.1453333333333,168.7950096130371L405.96679166666667,179.29578065872192L410.78824999999995,162.39047384262085L415.60970833333334,169.31515645980835L420.4311666666667,198.32506227493283L425.25262499999997,161.25421285629272L430.07408333333336,-104.19197559356694L449.35991666666666,-91.30001735687257L454.181375,181.32516574859616L459.00283333333334,202.50333452224731L463.8242916666666,202.6801285743713L468.64575,185.62225770950317L473.4672083333333,167.50348091125485L478.28866666666664,169.2523283958435L483.11012500000004,136.9146981239319L487.9315833333333,139.12721157073975L492.75304166666666,152.24613618850708L497.57449999999994,158.03843307495117L502.39595833333334,156.3389081954956L507.2174166666667,174.77630567550662L512.038875,178.9379825592041L516.8603333333333,149.73667001724243L521.6817916666668,147.81135034561157L526.50325,144.78696441650393L531.3247083333333,140.5875906944275L536.1461666666667,112.91018056869505L540.967625,136.5513639450073L545.7890833333333,156.66049003601074L550.6105416666667,161.50077438354492L555.432,158.0018434524536L560.2534583333332,191.54702138900757L565.0749166666667,178.06950044631955L569.896375,180.96228218078613L574.7178333333333,171.14830684661865L579.5392916666667,177.6261248588562L584.36075,200.2835469245911L589.1822083333333,177.97794914245605L594.0036666666667,175.73200035095212L598.825125,172.60726976394653L603.6465833333333,153.8571481704712L608.4680416666667,143.31728982925412L613.2895,156.66049003601074L618.1109583333333,166.11218690872192L622.9324166666667,153.81668329238892L627.753875,165.61278104782104L632.5753333333333,183.38381481170654L637.3967916666667,183.54231405258182L642.21825,173.04930639266968L647.0397083333334,194.71287345886228L651.8611666666667,192.43059253692627L656.682625,201.06184244155887L661.5040833333333,212.73436975479126L666.3255416666667,193.31702184677124L671.147,158.88985633850098L675.9684583333333,169.21308660507202L680.7899166666667,163.05342578887937L685.611375,160.36822128295898L690.4328333333333,191.1044054031372L695.2542916666667,170.5374584197998L700.07575,159.78760242462158L704.8972083333333,158.2948694229126L709.7186666666666,150.83710098266602L714.540125,151.8692708015442L719.3615833333333,182.3278784751892L724.1830416666667,170.6853232383728L729.0045,171.55424308776855L733.8259583333332,187.43704891204834L738.6474166666667,188.21031045913696L743.468875,211.02938604354858L748.2903333333333,181.18896532058716L753.1117916666667,175.40457344055176L757.93325,170.43193817138672L762.7547083333333,172.98493337631226L767.5761666666666,182.0280289649963L772.3976250000001,191.54397010803223L777.2190833333333,198.72206354141235L782.0405416666666,198.09325504302979L786.8620000000001,200.3490400314331L791.6834583333333,208.44896793365479L796.5049166666666,210.14378070831296L801.3263750000001,200.51947402954102L806.1478333333333,195.2937111854553L810.9692916666667,190.99473953247073L815.7907499999999,192.8004927635193L820.6122083333333,191.29958438873288L825.4336666666667,202.6801285743713L830.2551249999999,211.15851831436157L835.0765833333334,194.46564245224L839.8980416666667,174.6867756843567L844.7194999999999,182.74013614654544L849.5409583333334,178.29169034957886L854.3624166666667,180.04500532150269L859.183875,164.8857007026672L864.0053333333334,187.9987163543701L868.8267916666667,173.92922115325928L873.64825,136.10896682739258L878.4697083333333,137.62393426895142L883.2911666666668,149.2724633216858L888.112625,143.29039478302005L892.9340833333333,145.04704427719116L897.7555416666667,151.63178586959836L902.577,153.75958442687988L907.3984583333333,142.04190587997437L912.2199166666667,132.2957797050476L917.041375,110.74747896194457L921.8628333333332,88.61944770812987L926.6842916666667,86.16147994995117L931.50575,97.3929491043091L936.3272083333333,106.469801902771L941.1486666666666,133.17664718627927L945.970125,199.25661706924438L950.7915833333333,187.4963750839233L955.6130416666666,189.97552156448364L960.4345000000001,216.06001496315002L965.2559583333333,189.79734992980957L970.0774166666666,196.4061541557312L974.8988750000001,186.19709587097168L979.7203333333333,155.96491384506228L984.5417916666667,145.6932077407837L989.3632500000001,152.28151559829712L994.1847083333333,145.074209690094L999.0061666666667,142.03076934814453L1003.8276249999999,166.43315076828006L1008.6490833333334,172.77053260803223L1013.4705416666667,167.74175119400024L1018.2919999999999,161.94001722335818L1023.1134583333334,157.13310384750366L1027.9349166666666,156.55162239074707L1032.756375,-13.498789787292468L1052.0422083333335,-8.511940956115735L1056.8636666666666,168.75065660476685L1061.685125,124.6870822906494L1066.5065833333333,139.60099697113037L1071.3280416666666,125.34653234481812L1076.1495,119.11603546142578L1080.9709583333333,138.6371397972107L1085.7924166666667,156.40656423568726L1090.613875,136.56865453720093L1095.4353333333333,130.59630632400513L1100.2567916666667,141.71056509017944L1105.07825,-80.77492618560791L1124.3640833333334,-67.2785568237305L1129.1855416666665,178.62561893463135L1134.007,169.3387298583984L1138.8284583333334,179.21464490890506L1143.6499166666665,132.69970750808716L1148.471375,131.60407876968384L1153.2928333333334,140.1817445755005L1158.1142916666665,134.26429367065433L1162.93575,141.17812299728394L1167.7572083333334,174.74102926254272L1172.5786666666665,167.06931066513062L1177.400125,173.67305517196655L1182.2215833333335,176.50155401229856L1187.0430416666666,186.51487970352173L1191.8645,-27.95753574371338L1211.1503333333335,-26.21336174011234L1215.9717916666666,177.77839279174805L1220.79325,164.47134447097778L1225.6147083333335,159.36149168014526L1230.4361666666666,157.9408564567566L1235.257625,134.3667755126953L1240.0790833333333,156.08064365386963L1244.9005416666666,135.6891131401062L1249.722,122.51253604888917L1254.5434583333333,128.47824096679688L1259.3649166666667,142.30919551849365L1264.186375,138.0786395072937L1269.0078333333333,147.31553649902344L1273.8292916666667,166.72129726409912L1278.65075,167.98298263549808" style="fill: none;" fill="none"></path></g></g></g></g></g></g><g transform="translate(51, 378)" clip-path="url(#clip_1)"><clipPath id="clip_1"><rect width="1446" height="22"></rect></clipPath><g><g><line x1="0" y1="0" x2="0" y2="5" style="visibility: inherit;" fill="rgb(0, 0, 0)" stroke="rgb(204, 204, 204)" stroke-width="1px"></line><line x1="120.53645833333333" y1="0" x2="120.53645833333333" y2="5" style="visibility: inherit;" fill="rgb(0, 0, 0)" stroke="rgb(204, 204, 204)" stroke-width="1px"></line><line x1="241.07291666666666" y1="0" x2="241.07291666666666" y2="5" style="visibility: inherit;" fill="rgb(0, 0, 0)" stroke="rgb(204, 204, 204)" stroke-width="1px"></line><line x1="361.609375" y1="0" x2="361.609375" y2="5" style="visibility: inherit;" fill="rgb(0, 0, 0)" stroke="rgb(204, 204, 204)" stroke-width="1px"></line><line x1="482.1458333333333" y1="0" x2="482.1458333333333" y2="5" style="visibility: inherit;" fill="rgb(0, 0, 0)" stroke="rgb(204, 204, 204)" stroke-width="1px"></line><line x1="602.6822916666667" y1="0" x2="602.6822916666667" y2="5" style="visibility: inherit;" fill="rgb(0, 0, 0)" stroke="rgb(204, 204, 204)" stroke-width="1px"></line><line x1="723.21875" y1="0" x2="723.21875" y2="5" style="visibility: inherit;" fill="rgb(0, 0, 0)" stroke="rgb(204, 204, 204)" stroke-width="1px"></line><line x1="843.7552083333334" y1="0" x2="843.7552083333334" y2="5" style="visibility: inherit;" fill="rgb(0, 0, 0)" stroke="rgb(204, 204, 204)" stroke-width="1px"></line><line x1="964.2916666666666" y1="0" x2="964.2916666666666" y2="5" style="visibility: inherit;" fill="rgb(0, 0, 0)" stroke="rgb(204, 204, 204)" stroke-width="1px"></line><line x1="1084.828125" y1="0" x2="1084.828125" y2="5" style="visibility: inherit;" fill="rgb(0, 0, 0)" stroke="rgb(204, 204, 204)" stroke-width="1px"></line><line x1="1205.3645833333335" y1="0" x2="1205.3645833333335" y2="5" style="visibility: inherit;" fill="rgb(0, 0, 0)" stroke="rgb(204, 204, 204)" stroke-width="1px"></line><line x1="1325.9010416666665" y1="0" x2="1325.9010416666665" y2="5" style="visibility: inherit;" fill="rgb(0, 0, 0)" stroke="rgb(204, 204, 204)" stroke-width="1px"></line><line x1="1446.4375" y1="0" x2="1446.4375" y2="5" style="visibility: inherit;" fill="rgb(0, 0, 0)" stroke="rgb(204, 204, 204)" stroke-width="1px"></line></g><g transform="translate(0, 8)"><text x="0" y="0" dx="0em" dy="0.95em" style="text-anchor: middle; visibility: hidden; font-family: Roboto, sans-serif; font-size: 12px; font-weight: 200;" fill="rgb(50, 49, 63)" stroke="none" stroke-width="1px">-100k</text><text x="120.53645833333333" y="0" dx="0em" dy="0.95em" style="text-anchor: middle; visibility: inherit; font-family: Roboto, sans-serif; font-size: 12px; font-weight: 200;" fill="rgb(50, 49, 63)" stroke="none" stroke-width="1px">0</text><text x="241.07291666666666" y="0" dx="0em" dy="0.95em" style="text-anchor: middle; visibility: inherit; font-family: Roboto, sans-serif; font-size: 12px; font-weight: 200;" fill="rgb(50, 49, 63)" stroke="none" stroke-width="1px">100k</text><text x="361.609375" y="0" dx="0em" dy="0.95em" style="text-anchor: middle; visibility: inherit; font-family: Roboto, sans-serif; font-size: 12px; font-weight: 200;" fill="rgb(50, 49, 63)" stroke="none" stroke-width="1px">200k</text><text x="482.1458333333333" y="0" dx="0em" dy="0.95em" style="text-anchor: middle; visibility: inherit; font-family: Roboto, sans-serif; font-size: 12px; font-weight: 200;" fill="rgb(50, 49, 63)" stroke="none" stroke-width="1px">300k</text><text x="602.6822916666667" y="0" dx="0em" dy="0.95em" style="text-anchor: middle; visibility: inherit; font-family: Roboto, sans-serif; font-size: 12px; font-weight: 200;" fill="rgb(50, 49, 63)" stroke="none" stroke-width="1px">400k</text><text x="723.21875" y="0" dx="0em" dy="0.95em" style="text-anchor: middle; visibility: inherit; font-family: Roboto, sans-serif; font-size: 12px; font-weight: 200;" fill="rgb(50, 49, 63)" stroke="none" stroke-width="1px">500k</text><text x="843.7552083333334" y="0" dx="0em" dy="0.95em" style="text-anchor: middle; visibility: inherit; font-family: Roboto, sans-serif; font-size: 12px; font-weight: 200;" fill="rgb(50, 49, 63)" stroke="none" stroke-width="1px">600k</text><text x="964.2916666666666" y="0" dx="0em" dy="0.95em" style="text-anchor: middle; visibility: inherit; font-family: Roboto, sans-serif; font-size: 12px; font-weight: 200;" fill="rgb(50, 49, 63)" stroke="none" stroke-width="1px">700k</text><text x="1084.828125" y="0" dx="0em" dy="0.95em" style="text-anchor: middle; visibility: inherit; font-family: Roboto, sans-serif; font-size: 12px; font-weight: 200;" fill="rgb(50, 49, 63)" stroke="none" stroke-width="1px">800k</text><text x="1205.3645833333335" y="0" dx="0em" dy="0.95em" style="text-anchor: middle; visibility: inherit; font-family: Roboto, sans-serif; font-size: 12px; font-weight: 200;" fill="rgb(50, 49, 63)" stroke="none" stroke-width="1px">900k</text><text x="1325.9010416666665" y="0" dx="0em" dy="0.95em" style="text-anchor: middle; visibility: inherit; font-family: Roboto, sans-serif; font-size: 12px; font-weight: 200;" fill="rgb(50, 49, 63)" stroke="none" stroke-width="1px">1M</text><text x="1446.4375" y="0" dx="0em" dy="0.95em" style="text-anchor: middle; visibility: hidden; font-family: Roboto, sans-serif; font-size: 12px; font-weight: 200;" fill="rgb(50, 49, 63)" stroke="none" stroke-width="1px">1.1M</text></g><line x1="0" y1="0" x2="1446.4375" y2="0" fill="rgb(0, 0, 0)" stroke="rgb(204, 204, 204)" stroke-width="1px"></line></g></g></g></g></svg>