<svg viewBox="0 0 1498 400" xmlns="http://www.w3.org/2000/svg"><g><g><g><g><g><line x1="51.5625" y1="378" x2="46.5625" y2="378" style="visibility: inherit;" fill="rgb(0, 0, 0)" stroke="rgb(204, 204, 204)" stroke-width="1px"></line><line x1="51.5625" y1="336" x2="46.5625" y2="336" style="visibility: inherit;" fill="rgb(0, 0, 0)" stroke="rgb(204, 204, 204)" stroke-width="1px"></line><line x1="51.5625" y1="294" x2="46.5625" y2="294" style="visibility: inherit;" fill="rgb(0, 0, 0)" stroke="rgb(204, 204, 204)" stroke-width="1px"></line><line x1="51.5625" y1="252" x2="46.5625" y2="252" style="visibility: inherit;" fill="rgb(0, 0, 0)" stroke="rgb(204, 204, 204)" stroke-width="1px"></line><line x1="51.5625" y1="210" x2="46.5625" y2="210" style="visibility: inherit;" fill="rgb(0, 0, 0)" stroke="rgb(204, 204, 204)" stroke-width="1px"></line><line x1="51.5625" y1="168" x2="46.5625" y2="168" style="visibility: inherit;" fill="rgb(0, 0, 0)" stroke="rgb(204, 204, 204)" stroke-width="1px"></line><line x1="51.5625" y1="126.00000000000001" x2="46.5625" y2="126.00000000000001" style="visibility: inherit;" fill="rgb(0, 0, 0)" stroke="rgb(204, 204, 204)" stroke-width="1px"></line><line x1="51.5625" y1="84.00000000000004" x2="46.5625" y2="84.00000000000004" style="visibility: inherit;" fill="rgb(0, 0, 0)" stroke="rgb(204, 204, 204)" stroke-width="1px"></line><line x1="51.5625" y1="42.00000000000002" x2="46.5625" y2="42.00000000000002" style="visibility: inherit;" fill="rgb(0, 0, 0)" stroke="rgb(204, 204, 204)" stroke-width="1px"></line><line x1="51.5625" y1="0" x2="46.5625" y2="0" style="visibility: inherit;" fill="rgb(0, 0, 0)" stroke="rgb(204, 204, 204)" stroke-width="1px"></line></g><g transform="translate(41.5625, 0)"><text x="0" y="378" dx="0em" dy="0.3em" style="text-anchor: end; visibility: hidden; font-family: Roboto, sans-serif; font-size: 12px; font-weight: 200;" fill="rgb(50, 49, 63)" stroke="none" stroke-width="1px">-0.1</text><text x="0" y="336" dx="0em" dy="0.3em" style="text-anchor: end; visibility: inherit; font-family: Roboto, sans-serif; font-size: 12px; font-weight: 200;" fill="rgb(50, 49, 63)" stroke="none" stroke-width="1px">0</text><text x="0" y="294" dx="0em" dy="0.3em" style="text-anchor: end; visibility: inherit; font-family: Roboto, sans-serif; font-size: 12px; font-weight: 200;" fill="rgb(50, 49, 63)" stroke="none" stroke-width="1px">0.1</text><text x="0" y="252" dx="0em" dy="0.3em" style="text-anchor: end; visibility: inherit; font-family: Roboto, sans-serif; font-size: 12px; font-weight: 200;" fill="rgb(50, 49, 63)" stroke="none" stroke-width="1px">0.2</text><text x="0" y="210" dx="0em" dy="0.3em" style="text-anchor: end; visibility: inherit; font-family: Roboto, sans-serif; font-size: 12px; font-weight: 200;" fill="rgb(50, 49, 63)" stroke="none" stroke-width="1px">0.3</text><text x="0" y="168" dx="0em" dy="0.3em" style="text-anchor: end; visibility: inherit; font-family: Roboto, sans-serif; font-size: 12px; font-weight: 200;" fill="rgb(50, 49, 63)" stroke="none" stroke-width="1px">0.4</text><text x="0" y="126.00000000000001" dx="0em" dy="0.3em" style="text-anchor: end; visibility: inherit; font-family: Roboto, sans-serif; font-size: 12px; font-weight: 200;" fill="rgb(50, 49, 63)" stroke="none" stroke-width="1px">0.5</text><text x="0" y="84.00000000000004" dx="0em" dy="0.3em" style="text-anchor: end; visibility: inherit; font-family: Roboto, sans-serif; font-size: 12px; font-weight: 200;" fill="rgb(50, 49, 63)" stroke="none" stroke-width="1px">0.6</text><text x="0" y="42.00000000000002" dx="0em" dy="0.3em" style="text-anchor: end; visibility: inherit; font-family: Roboto, sans-serif; font-size: 12px; font-weight: 200;" fill="rgb(50, 49, 63)" stroke="none" stroke-width="1px">0.7</text><text x="0" y="0" dx="0em" dy="0.3em" style="text-anchor: end; visibility: hidden; font-family: Roboto, sans-serif; font-size: 12px; font-weight: 200;" fill="rgb(50, 49, 63)" stroke="none" stroke-width="1px">0.8</text></g><line x1="51.5625" y1="0" x2="51.5625" y2="378" fill="rgb(0, 0, 0)" stroke="rgb(204, 204, 204)" stroke-width="1px"></line></g></g><g transform="translate(51, 0)" clip-path="url(#clip_0)"><clipPath id="clip_0"><rect width="1446" height="378"></rect></clipPath><g><g><g><line x1="0" y1="0" x2="0" y2="378" fill="rgb(0, 0, 0)" stroke="rgb(60, 60, 60)" stroke-width="1px" opacity="0.25"></line><line x1="103.31696428571428" y1="0" x2="103.31696428571428" y2="378" fill="rgb(0, 0, 0)" stroke="rgb(60, 60, 60)" stroke-width="1px" opacity="0.25"></line><line x1="206.63392857142856" y1="0" x2="206.63392857142856" y2="378" fill="rgb(0, 0, 0)" stroke="rgb(60, 60, 60)" stroke-width="1px" opacity="0.25"></line><line x1="309.95089285714283" y1="0" x2="309.95089285714283" y2="378" fill="rgb(0, 0, 0)" stroke="rgb(60, 60, 60)" stroke-width="1px" opacity="0.25"></line><line x1="413.2678571428571" y1="0" x2="413.2678571428571" y2="378" fill="rgb(0, 0, 0)" stroke="rgb(60, 60, 60)" stroke-width="1px" opacity="0.25"></line><line x1="516.5848214285714" y1="0" x2="516.5848214285714" y2="378" fill="rgb(0, 0, 0)" stroke="rgb(60, 60, 60)" stroke-width="1px" opacity="0.25"></line><line x1="619.9017857142857" y1="0" x2="619.9017857142857" y2="378" fill="rgb(0, 0, 0)" stroke="rgb(60, 60, 60)" stroke-width="1px" opacity="0.25"></line><line x1="723.21875" y1="0" x2="723.21875" y2="378" fill="rgb(0, 0, 0)" stroke="rgb(60, 60, 60)" stroke-width="1px" opacity="0.25"></line><line x1="826.5357142857142" y1="0" x2="826.5357142857142" y2="378" fill="rgb(0, 0, 0)" stroke="rgb(60, 60, 60)" stroke-width="1px" opacity="0.25"></line><line x1="929.8526785714287" y1="0" x2="929.8526785714287" y2="378" fill="rgb(0, 0, 0)" stroke="rgb(60, 60, 60)" stroke-width="1px" opacity="0.25"></line><line x1="1033.169642857143" y1="0" x2="1033.169642857143" y2="378" fill="rgb(0, 0, 0)" stroke="rgb(60, 60, 60)" stroke-width="1px" opacity="0.25"></line><line x1="1136.486607142857" y1="0" x2="1136.486607142857" y2="378" fill="rgb(0, 0, 0)" stroke="rgb(60, 60, 60)" stroke-width="1px" opacity="0.25"></line><line x1="1239.8035714285713" y1="0" x2="1239.8035714285713" y2="378" fill="rgb(0, 0, 0)" stroke="rgb(60, 60, 60)" stroke-width="1px" opacity="0.25"></line><line x1="1343.1205357142858" y1="0" x2="1343.1205357142858" y2="378" fill="rgb(0, 0, 0)" stroke="rgb(60, 60, 60)" stroke-width="1px" opacity="0.25"></line><line x1="1446.4375" y1="0" x2="1446.4375" y2="378" fill="rgb(0, 0, 0)" stroke="rgb(60, 60, 60)" stroke-width="1px" opacity="0.25"></line></g><g><line x1="0" y1="378" x2="1446.4375" y2="378" fill="rgb(0, 0, 0)" stroke="rgb(60, 60, 60)" stroke-width="1px" opacity="0.25"></line><line x1="0" y1="336" x2="1446.4375" y2="336" fill="rgb(0, 0, 0)" stroke="rgb(60, 60, 60)" stroke-width="1px" opacity="0.25"></line><line x1="0" y1="294" x2="1446.4375" y2="294" fill="rgb(0, 0, 0)" stroke="rgb(60, 60, 60)" stroke-width="1px" opacity="0.25"></line><line x1="0" y1="252" x2="1446.4375" y2="252" fill="rgb(0, 0, 0)" stroke="rgb(60, 60, 60)" stroke-width="1px" opacity="0.25"></line><line x1="0" y1="210" x2="1446.4375" y2="210" fill="rgb(0, 0, 0)" stroke="rgb(60, 60, 60)" stroke-width="1px" opacity="0.25"></line><line x1="0" y1="168" x2="1446.4375" y2="168" fill="rgb(0, 0, 0)" stroke="rgb(60, 60, 60)" stroke-width="1px" opacity="0.25"></line><line x1="0" y1="126.00000000000001" x2="1446.4375" y2="126.00000000000001" fill="rgb(0, 0, 0)" stroke="rgb(60, 60, 60)" stroke-width="1px" opacity="0.25"></line><line x1="0" y1="84.00000000000004" x2="1446.4375" y2="84.00000000000004" fill="rgb(0, 0, 0)" stroke="rgb(60, 60, 60)" stroke-width="1px" opacity="0.25"></line><line x1="0" y1="42.00000000000002" x2="1446.4375" y2="42.00000000000002" fill="rgb(0, 0, 0)" stroke="rgb(60, 60, 60)" stroke-width="1px" opacity="0.25"></line><line x1="0" y1="0" x2="1446.4375" y2="0" fill="rgb(0, 0, 0)" stroke="rgb(60, 60, 60)" stroke-width="1px" opacity="0.25"></line></g></g></g><g><g><line x1="0" y1="336" x2="1446.4375" y2="336" fill="rgb(0, 0, 0)" stroke="rgb(153, 153, 153)" stroke-width="1.5px"></line></g></g><g><g><line x1="103.31696428571428" y1="0" x2="103.31696428571428" y2="378" fill="rgb(0, 0, 0)" stroke="rgb(153, 153, 153)" stroke-width="1.5px"></line></g></g><g><g><g><g><g><path stroke="rgb(204, 51, 17)" stroke-width="2px" d="M103.31696428571428,336L117.0804484796627,336L130.8446788516865,329.6974789681179L144.62056108134922,328.3978861736353L158.39575453125,325.30336483919024L172.13811614583335,312.169232578416L185.91107106150793,301.8115918110168L199.66904501736113,295.785743897472L213.42942970238096,283.7501544928172L227.1805732589286,273.7898659722488L240.95427435267857,267.85237788379203L254.71925090277776,253.07926888756438L268.47033706101195,241.43234730813882L282.2405942559523,240.05833148197354L295.99127862599204,242.03592839177063L309.7648075248016,232.01873140748265L323.51560669146824,228.8106934943351L337.28942258184526,226.8862183104827L351.0678877356151,225.73165829554847L364.83131453125,230.6391742369944L378.5989314037698,230.78350770843286L392.3788889136905,233.67014245254504L406.1552877281746,238.20212092814472L419.9249135416667,243.72129820817446L433.7085445436507,247.03278783888604L447.49464367311504,254.6196848107266L461.2628919270834,261.9718174099148L475.03378050347226,263.58309060095746L488.82274954861117,270.14985561189087L502.60712672867066,268.4899121656993L516.385075297619,261.8939459238229L530.1564804588294,257.93636673864444L543.9443589360119,249.96181949549333L557.7019311036706,245.17709139331487L571.4717865104167,245.1062545009852L585.2494480877976,245.06375236636674L599.0067332638889,250.63825078674662L612.7799751711309,259.58294950390336L626.545640500992,267.74976855228596L640.3199155778769,269.8498601328208L654.0804724578373,268.3099152439924L667.8552067212302,270.1859481459402L681.6373453670635,271.31156788653107L695.4050770362103,271.9869397306776L709.1552448214286,280.79216358898236L722.91861421875,280.4752969851186L736.7021878224206,271.88517752317773L750.47324859375,261.1311061798791L764.2456295262898,263.07866287348867L778.0203637896825,258.6471972233784L791.7720239310516,267.1883171658174L805.5436012872024,272.3129891312543L819.3050765401786,266.98779281117123L833.0769408878969,269.3926746853473L846.8413434548612,268.03560397674244L860.6043110639882,264.4213617184721L874.385933125,253.85281686418784L888.1455142336308,244.7116901185115L901.9216260565477,230.8270120683897L915.671793841766,216.89620557210313L929.4553674454365,200.1377246784054L943.2115620535715,184.48263647597304L956.9773421800595,177.88958088422567L970.7520190451389,182.33374953189352L984.5215300620039,193.40024771642007L998.305964640377,208.44014862985208L1012.0776567931548,217.46408917791123L1025.8560645486111,231.27845300606776L1039.6216150818452,245.16707096917565L1053.4219489930556,256.3002415801474L1067.198175612599,257.3801442805164L1080.9604544419642,258.02808590073784L1094.7373124429564,244.41684920394061L1108.5133668675594,233.45010985615036L1122.2809263417657,232.47006591369023L1136.04039265377,234.68203938132115L1149.8252290203372,247.20922279432762L1163.5987579191467,263.1255335931501L1177.3639640625,278.2753197386576L1191.158558142361,278.9651906749435L1204.9316278546628,268.1791139042871L1218.7214004761906,253.30746834257226L1232.5065238343252,233.18448167311539L1246.286366547619,218.31068733493916L1260.063109751984,206.58641340232157L1273.8568428571427,196.7518467062489L1287.6862203149801,202.0511060210333L1301.4690477405754,202.430664280192L1315.262436455853,199.85839689918515" style="fill: none;" fill="none"></path></g><g><path stroke="rgb(187, 187, 187)" stroke-width="2px" d="M103.31696428571428,336L104.69928786954364,270.375L106.08947502232142,239.5714260169438L107.37485285466269,209.6496013643987L108.59892928819446,171.5826076557039L109.85250845486112,147.97704072565512L111.11848565724206,121.6492096581908L112.29262555803572,106.33225578145615L113.47445683283729,94.47990777362048L114.65846924355158,90.26243923927291L115.87737982886905,96.17892638202021L117.2185488219246,105.3272724576412L118.5015733234127,110.8035185022673L119.80267829365079,125.2934680319033L121.17696611359126,133.98016717736178L122.57099895337302,139.18957193947176L123.98161990575399,142.3142740740881L125.19255212549602,149.7893252792594L126.47115695684525,154.27387010659274L127.88866570684523,159.76452180952327L129.2832151314484,151.85853931878032L130.61416722470238,152.71513419834392L131.99098057043653,161.62915225084507L133.26872442708333,166.97751802824766L134.6264241344246,161.78649539114969L136.04284231646824,164.27190047297876L137.39124349702382,160.16313541093373L138.66026281001984,157.69787906508853L139.87859941220236,153.418727865088L141.15117742063492,162.0512399626201L142.49900461805555,158.83074288281932L143.90072883184524,145.6984446845365L145.2309347470238,140.61906890467378L146.54696327876985,131.97144376532768L147.85432466517855,126.78286884028942L149.10302497519842,129.26972366632626L150.2942121750992,136.36183624640245L151.55238320684524,140.61710376635813L152.84924070188492,145.97026160416922L154.17898743055557,154.78215597292282L155.6539518923611,148.86929324522526L161.5496196626984,131.3215739359746L173.0284787847222,123.59293968634907L184.50865806795636,107.75575980363362L195.9886077579365,98.25345187576032L207.46792606646824,84.15207513000888L218.94684258680553,81.29124374275428L230.4272514632937,87.97474691337466L241.90691416170634,91.98484881565082L253.38801181795637,102.79091195976591L264.86623955853173,98.0745505136968L276.3464762400793,89.64472897304951L287.8252779637897,87.38683337839363L299.3050554588294,91.63210069461267L310.78621051339286,80.17926442219256L322.26461044890874,76.10755998845804L333.7441583506944,84.86453666064882L345.2239358457341,81.71872066124484L356.70331155257935,85.43123573460731L361.3607255059524,96.05873676776079L365.8311931522818,102.4352373876525L377.31137243551586,103.46114042987553L388.7905185491071,109.67668692821344L400.27006645089284,116.20601215692814L411.75081971726195,106.12361063201692L423.22956404265875,102.87416704678219L434.7092841393849,106.52449555506517L446.18900423611103,105.91469533032304L457.6690113244047,111.14881986848194L469.149190607639,111.48928724808496L480.62850891617063,106.09357301642301L492.10754023313496,111.25614648014184L503.5869733382937,111.55368321508092L515.0674396130953,108.93220792633255L526.5473893030754,110.15932008279538L538.0267076116071,122.09559171589126L549.5051649454365,115.25735302681868L560.9858034151786,111.15440981337517L572.4651791220238,108.69264388530905L583.9458749900793,104.41558699875746L595.4243897222221,101.84935286682655L606.9046838020834,105.90960704709178L618.3833133308532,105.54576222553898L629.8632630208333,105.32745533260731L641.3443032787699,93.99647186442039L652.8234493923611,95.59788378622424L664.3023085143849,99.35872826901848L675.7818564161706,104.41523228840697L687.2617487078372,110.24914204333226L698.7419279910715,116.5494852259994L710.2213610962301,123.12969347210172L721.7000480233136,115.87781408054497L733.1806290947421,103.12668444289486L744.6600621999008,101.07601133330894L756.1413894494049,97.0456101378455L767.6195023933532,94.62736942056738L779.0993946850198,104.37642432262852L790.5794017733135,104.62585259086106L802.0586052852182,101.97551222208865L813.5396455431547,103.18530533053716L825.0175862921627,106.71117852531816L836.4970767956348,103.22670778276292L847.9771412822421,101.1360253372298L859.4566317857142,102.68161319962185L870.9380738318453,103.60896591705705L882.4159571825398,101.36538021780625L893.8959068725198,105.61922345767957L905.3759713591269,108.17152940160356L916.8553470659723,109.70291296795801L928.3361577306548,113.4217504510629L939.8143854712303,110.05304826792171L951.294392559524,110.83182428774886L962.774227452877,114.09909724293743L974.2534309647817,110.4594563430464L985.7345860193452,113.8756764761159L997.2125267683531,121.5254082221716L1008.6925912549602,126.11524726980508L1020.1718521651786,131.66914802809703L1031.6520314484128,129.4014888168582L1043.1325551215277,125.24089596040302L1054.6108402604168,119.94453290323769L1066.0911343402777,119.56672241223067L1077.570395250496,116.54002877433427L1089.0499431522817,128.72401926731663L1100.5305816220239,133.23441122660395L1112.0092685491072,133.14064907246447L1123.4892182390874,124.68438477047451L1134.968306954365,119.61062618928058L1146.4481992460317,119.36637838385643L1157.9288951140873,110.81982769788593L1169.407754236111,111.29189194572741L1180.8882205109126,122.77513483365044L1192.367711014385,132.46508290290635L1203.8472589161706,143.87905141067387L1215.3272660044643,147.92743017883228L1226.8060677281744,144.75645777351338L1238.28544343502,134.45387733439608L1249.7651635317459,119.8723270682097L1261.2449410267857,119.5233989112139L1272.7261534796626,122.11403934672838L1284.2040942286706,132.06842561075308L1295.683929122024,149.24105670159585L1307.163419625496,162.3446326858135L1318.6435989087304,170.2067782763441L1330.1239503869047,163.72406629823445" style="fill: none;" fill="none"></path></g><g><path stroke="rgb(0, 153, 136)" stroke-width="2px" d="M103.31696428571428,336L107.79609907738096,283.49999921768904L112.2738563095238,238.85714034523284L116.922890109127,204.31447724800776L121.55981286458332,181.277317182667L126.07981525545635,163.95835654846485L130.5502255034722,136.81517935146914L135.11855727430557,123.87170494101149L139.7843513814484,107.76065671289042L144.35256835565477,109.46670517740209L148.9989618328373,116.10410339175793L153.8298334895833,125.68331355674874L158.42003401785715,125.81015379620486L162.9969755357143,120.28175532146615L167.52897417410713,108.56354680504924L172.1846087797619,101.53614891470848L176.81728406001986,97.32097919926248L181.34073034970237,100.39289750073102L185.7936341121032,113.43653566373672L190.52474750000002,118.4621051410246L195.26573339781746,118.67727047497412L199.98467834325396,102.00614152160068L204.75384681299602,103.20369236766538L209.43439228670633,103.92221682252601L214.470635109127,107.15333460667235L219.3907037450397,117.49202073641499L224.1646362748016,126.49522132275206L228.7951304191468,131.89713577714966L233.68959940724204,132.33828396533585L238.44206496775794,118.6029680102534L242.9623543501984,113.16177808169289L247.86451471230157,98.69706436267411L252.6864322321428,87.21823940461205L257.5009453695436,83.13094219051735L262.2962874702381,94.67856083981803L266.91088228174607,104.4071392745236L271.6804525396825,115.84428597199677L276.49984453373014,125.50657128529001L281.07133321180555,128.50394511435397L285.6618207316468,121.90236238678355L290.50750115327384,109.54142076001614L301.9447464980159,96.52485111460172L315.7243596180556,94.31491400598307L329.5001844494048,98.5889464016142L343.27457432291664,109.55336784210824L357.0446593229167,118.93202304235194L363.3498640600198,127.35921349194052L367.959235625,124.01553076537733L372.59145171875,122.00932112948749L377.3082729265873,118.00558800465599L381.96465371031746,115.60334812977781L386.5903263963294,111.36200687513829L391.41918911210314,122.81720379131697L395.940454265873,121.2903249450767L400.7386088839286,123.1741949670472L405.37954952132935,127.10451931673188L409.95585965773813,118.26270958732107L414.6419727678571,107.35762909025128L419.28899762648814,106.41457545143466L423.9411309350199,105.8487432681447L428.77584827876984,116.70924829738922L433.39968421875005,140.02555031357804L438.39098416170634,156.81532885300294L443.0407067410714,164.08919864694582L447.6138599702381,160.0535185205955L452.14396446428566,149.2321134488593L456.7535082242063,128.73926873688762L461.44226165674604,110.8435572367004L466.15391701636906,97.30613300687625L470.82258103918645,94.7836831419858L475.65638000992067,96.07021055276356L480.3632139112104,94.04212966951825L485.1885753298611,92.82528113957105L490.0588796279761,100.49516401073852L495.1132029191467,102.29709640372707L500.2110915302579,103.3782558395202L505.0439147296627,106.82694883070795L509.9050926959325,108.89616462542062L514.6317864136905,96.13769744010834L519.6015045907739,94.08262180192513L524.6768930629961,101.24956840815089L529.5066741517858,102.74973904217448L534.4112452430555,109.24984609559276L539.0939144543651,104.74990832492769L543.7941475496032,96.44994098952449L548.5095337996032,85.86996592885876L553.2178600570437,71.12197888974323L557.8168999255953,62.27318666627391L562.5351560912699,65.36391333490839L567.2516903075397,72.81834399551289L572.0063370039682,74.49100506216372L576.7285536532738,78.2945990318661L581.4848075024801,86.17676008669171L586.4203736830357,85.30605204658288L591.1565955208333,70.7836305603777L596.065930672123,67.67018234165872L600.7382107886905,57.40211140771129L605.258385374504,51.24126884734282L610.0854113442459,44.74476598140983L614.7607335714285,49.24685625098583L619.3580514905755,51.9481104127314L624.0196555208333,59.16886758278285L628.6103152356152,69.10131654423759L633.1357704662698,72.26078859139854L637.6139868849206,68.55647716027124L642.618718033234,74.73388229073063L647.3463875223214,84.04033004201044L651.8582393526785,100.82419802520623L656.3320361011904,116.49451848133774L661.0438636557539,134.29671275773268L665.8761702703373,142.1780269870676L670.5778383234127,141.30681585845454L675.3130843898809,132.3840921853608L680.1504420560516,124.23045063821235L684.7544181795636,116.53826838021135L689.284752266865,109.12296169569882L693.7868463839286,107.47377501470322L706.7607019791666,106.48426300610589L720.5377895734126,122.69055980637958L734.3341056026786,140.81433488246972L748.100976297123,157.28859959433782L761.8622793551588,164.3731610917467L775.6471731200397,165.82389565368996L784.1416069320436,169.49433872735807L788.7327832316467,154.8966055729169L793.4666517385913,137.73795867074602L798.2468406845238,127.44277052944348L802.9629731125991,124.06566498795415L807.575329389881,122.0394016630606L812.2272331051587,120.82364366812445L816.8562348933532,122.89418620087463L821.6878527281747,124.1365117205248L826.4896808382937,124.88190703231491L831.2132176488095,130.9291438856029L835.9310146279763,137.35748833407783L840.6102973387895,141.21449500316274L845.333432361111,157.52869566675363L850.0304511507937,170.1172184014102L854.7051993948413,174.87032970570206L859.4628882018849,183.3221961544912L864.1672539756946,179.99331902783877L868.8504397718253,166.79599341941935L873.6115724776786,150.47759605165157L878.370064861111,137.88656030127905L882.9852336557539,121.93193684833946L887.5652172842264,117.95915743599953L892.1941042757937,109.97549512917175L896.8771178769841,99.5852930720709L901.6679829092261,87.75117717838661L906.2411935367062,83.45070497188793L910.9299469692461,75.2704269885649L915.9290530828372,70.36226019857111L920.5190814161707,73.01735478399867L925.1639251388888,77.41040886496708L929.7947636731151,88.44624331626417L934.4129745783729,97.86774131675435L939.0833605505952,117.52064679276864L943.8474205704366,134.91238974459125L948.5005296502977,142.54743317918272L953.2740603918651,135.92845990750962L957.8660402678573,129.15707861479382L962.4285748090279,122.29424249587218L967.3539814880951,115.37654349480727L972.0978946999007,122.42592843338645L976.7614502728175,123.85555706003186L981.3723141939485,127.51333657252118L986.3150551636904,135.30800394622878L991.185187266865,139.98480437045333L995.7523710714287,137.19088495877406L1000.2834513368057,132.71453097526447L1004.9385693576388,138.42872058787472L1009.7138794469246,136.25723468922695L1014.5269002281747,129.35434348382427L1019.3092703100199,128.01260609029455L1023.935918767361,118.8075616514607L1028.7794754513889,102.0845356557324L1033.7699718179563,86.45072539887157L1038.4826603472222,77.07043924475508L1043.239545577877,68.64226020899298L1047.9996451140873,57.98535812811183L1052.5785955729166,51.591216879583214L1057.2615517757938,47.754732130466L1061.955069268353,42.65284395128375L1066.7317569171626,45.19170570319822L1071.5261232465277,55.115024757063L1076.0963491617065,63.86901351909374L1080.7450959697421,71.92140410602417L1085.4258710367062,82.3528431311865L1090.231602232143,71.81170254085184L1094.9480790500993,68.28702552994324L1099.5244465848216,63.372211980105845L1104.1626321031745,63.22333119349568L1108.9554486780753,60.333995378237255L1113.4963440550596,67.00039589179836L1118.3261251438491,71.00023619993499L1123.3558819568452,79.00014505782111L1128.202136361607,83.80009037255279L1132.8914063789682,81.08005288838763L1137.5429083060517,73.84803573846474L1142.1396522420634,72.30882277822289L1146.8017728571429,68.58529767236587L1151.5247930828373,57.95118060613561L1156.1320409102184,51.570710366397435L1160.6621454042659,53.34242288197833L1165.2783473685517,46.00545840219117L1169.9334653893848,38.80327237102659L1174.6604460987103,34.48196075232788L1179.4979759598214,34.689181124400875L1184.1935597916668,43.21350533678042L1188.9704196354166,45.528102534496234L1193.8531793675595,52.516865526129884L1198.6301540079367,53.91011597781781L1203.3971987400794,51.94606891911867L1208.0126545262897,50.76764068389918L1212.6926260168652,61.260583075195456L1217.4710930133929,64.75635118026132L1222.1961795783732,64.05381471358889L1226.7556720089287,66.43229016329741L1231.3636660143848,53.859378770982616L1235.9897978869049,40.71562726258953L1240.6167333358135,35.62937368726566L1245.5632625942462,35.377628885363585L1250.3793828844246,40.826576663646165L1255.1772505109127,46.89594266032759L1260.0970895535713,58.937564261052565L1264.8828461359128,71.76254189449165L1269.5390547247023,82.25752580426703L1274.196755669643,88.55451615013223L1278.8166885243056,92.33271035765138L1283.4464938888889,80.59963022002299L1288.2483793973215,70.75977479415367L1292.8590137251983,62.05586420892019L1297.559992998512,48.433515855064016L1302.278076969246,51.4601061751783L1307.0408742261905,50.47606303753494L1311.7560308829363,44.2856424955251L1316.2895218774802,40.57139017031922L1320.9115210714285,38.342838775195716L1325.544827733135,34.20570059482934L1330.248217735615,28.923420356897644" style="fill: none;" fill="none"></path></g></g></g></g><g opacity="0.2"><g><g><g><path stroke="rgb(204, 51, 17)" stroke-width="2px" d="M103.31696428571428,336L117.0804484796627,336L130.8446788516865,323.6470587775111L144.62056108134922,326.8695650473237L158.39575453125,321.2631577849388L172.13811614583335,293.99999937415123L185.91107106150793,286.99999979138374L199.66904501736113,286.99999979138374L213.42942970238096,265.99999791383743L227.1805732589286,258.99999833106995L240.95427435267857,258.99999833106995L254.71925090277776,231.00000000000003L268.47033706101195,223.99999415874484L282.2405942559523,237.9999995827675L295.99127862599204,244.99999916553497L309.7648075248016,217.00000083446503L323.51560669146824,223.99999415874484L337.28942258184526,223.99999415874484L351.0678877356151,223.99999415874484L364.83131453125,237.9999995827675L378.5989314037698,231.00000000000003L392.3788889136905,237.9999995827675L406.1552877281746,244.99999916553497L419.9249135416667,251.9999987483025L433.7085445436507,251.9999987483025L447.49464367311504,265.99999791383743L461.2628919270834,272.9999974966049L475.03378050347226,265.99999791383743L488.82274954861117,279.9999970793724L502.60712672867066,265.99999791383743L516.385075297619,251.9999987483025L530.1564804588294,251.9999987483025L543.9443589360119,237.9999995827675L557.7019311036706,237.9999995827675L571.4717865104167,244.99999916553497L585.2494480877976,244.99999916553497L599.0067332638889,258.99999833106995L612.7799751711309,272.9999974966049L626.545640500992,279.9999970793724L640.3199155778769,272.9999974966049L654.0804724578373,265.99999791383743L667.8552067212302,272.9999974966049L681.6373453670635,272.9999974966049L695.4050770362103,272.9999974966049L709.1552448214286,293.99999937415123L722.91861421875,279.9999970793724L736.7021878224206,258.99999833106995L750.47324859375,244.99999916553497L764.2456295262898,265.99999791383743L778.0203637896825,251.9999987483025L791.7720239310516,279.9999970793724L805.5436012872024,279.9999970793724L819.3050765401786,258.99999833106995L833.0769408878969,272.9999974966049L846.8413434548612,265.99999791383743L860.6043110639882,258.99999833106995L874.385933125,237.9999995827675L888.1455142336308,231.00000000000003L901.9216260565477,209.99999499320984L915.671793841766,195.99999582767487L929.4553674454365,175.0000033378601L943.2115620535715,161.00000417232516L956.9773421800595,167.99999749660492L970.7520190451389,189.0000025033951L984.5215300620039,209.99999499320984L998.305964640377,231.00000000000003L1012.0776567931548,231.00000000000003L1025.8560645486111,251.9999987483025L1039.6216150818452,265.99999791383743L1053.4219489930556,272.9999974966049L1067.198175612599,258.99999833106995L1080.9604544419642,258.99999833106995L1094.7373124429564,223.99999415874484L1108.5133668675594,217.00000083446503L1122.2809263417657,231.00000000000003L1136.04039265377,237.9999995827675L1149.8252290203372,265.99999791383743L1163.5987579191467,286.99999979138374L1177.3639640625,300.9999989569187L1191.158558142361,279.9999970793724L1204.9316278546628,251.9999987483025L1218.7214004761906,231.00000000000003L1232.5065238343252,203.00000166893005L1246.286366547619,195.99999582767487L1260.063109751984,189.0000025033951L1273.8568428571427,181.99999666213992L1287.6862203149801,209.99999499320984L1301.4690477405754,203.00000166893005L1315.262436455853,195.99999582767487" style="fill: none;" fill="none"></path></g><g><path stroke="rgb(187, 187, 187)" stroke-width="2px" d="M103.31696428571428,336L104.69928786954364,231.00000000000003L106.08947502232142,209.99999499320984L107.37485285466269,174.46153557300568L108.59892928819446,121.88234066963199L109.85250845486112,115.32204365730287L111.11848565724206,83.99998998641968L112.29262555803572,83.99998998641968L113.47445683283729,76.99999666213992L114.65846924355158,83.99998998641968L115.87737982886905,104.99999499320985L117.2185488219246,119.00000667572024L118.5015733234127,119.00000667572024L119.80267829365079,147.0000050067902L121.17696611359126,147.0000050067902L122.57099895337302,147.0000050067902L123.98161990575399,147.0000050067902L125.19255212549602,161.00000417232516L126.47115695684525,161.00000417232516L127.88866570684523,167.99999749660492L129.2832151314484,139.999999165535L130.61416722470238,153.99999833106995L131.99098057043653,175.0000033378601L133.26872442708333,175.0000033378601L134.6264241344246,153.99999833106995L136.04284231646824,167.99999749660492L137.39124349702382,153.99999833106995L138.66026281001984,153.99999833106995L139.87859941220236,147.0000050067902L141.15117742063492,175.0000033378601L142.49900461805555,153.99999833106995L143.90072883184524,126.00000000000001L145.2309347470238,133.0000058412552L146.54696327876985,119.00000667572024L147.85432466517855,119.00000667572024L149.10302497519842,133.0000058412552L150.2942121750992,147.0000050067902L151.55238320684524,147.0000050067902L152.84924070188492,153.99999833106995L154.17898743055557,167.99999749660492L155.6539518923611,139.999999165535L161.5496196626984,104.99999499320985L173.0284787847222,111.99998831748965L184.50865806795636,83.99998998641968L195.9886077579365,83.99998998641968L207.46792606646824,63.000010013580344L218.94684258680553,76.99999666213992L230.4272514632937,98.00000166893008L241.90691416170634,98.00000166893008L253.38801181795637,119.00000667572024L264.86623955853173,91.00000834465027L276.3464762400793,76.99999666213992L287.8252779637897,83.99998998641968L299.3050554588294,98.00000166893008L310.78621051339286,63.000010013580344L322.26461044890874,70.00000333786011L333.7441583506944,98.00000166893008L345.2239358457341,76.99999666213992L356.70331155257935,91.00000834465027L361.3607255059524,111.99998831748965L365.8311931522818,111.99998831748965L377.31137243551586,104.99999499320985L388.7905185491071,119.00000667572024L400.27006645089284,126.00000000000001L411.75081971726195,91.00000834465027L423.22956404265875,98.00000166893008L434.7092841393849,111.99998831748965L446.18900423611103,104.99999499320985L457.6690113244047,119.00000667572024L469.149190607639,111.99998831748965L480.62850891617063,98.00000166893008L492.10754023313496,119.00000667572024L503.5869733382937,111.99998831748965L515.0674396130953,104.99999499320985L526.5473893030754,111.99998831748965L538.0267076116071,139.999999165535L549.5051649454365,104.99999499320985L560.9858034151786,104.99999499320985L572.4651791220238,104.99999499320985L583.9458749900793,98.00000166893008L595.4243897222221,98.00000166893008L606.9046838020834,111.99998831748965L618.3833133308532,104.99999499320985L629.8632630208333,104.99999499320985L641.3443032787699,76.99999666213992L652.8234493923611,98.00000166893008L664.3023085143849,104.99999499320985L675.7818564161706,111.99998831748965L687.2617487078372,119.00000667572024L698.7419279910715,126.00000000000001L710.2213610962301,133.0000058412552L721.7000480233136,104.99999499320985L733.1806290947421,83.99998998641968L744.6600621999008,98.00000166893008L756.1413894494049,91.00000834465027L767.6195023933532,91.00000834465027L779.0993946850198,119.00000667572024L790.5794017733135,104.99999499320985L802.0586052852182,98.00000166893008L813.5396455431547,104.99999499320985L825.0175862921627,111.99998831748965L836.4970767956348,98.00000166893008L847.9771412822421,98.00000166893008L859.4566317857142,104.99999499320985L870.9380738318453,104.99999499320985L882.4159571825398,98.00000166893008L893.8959068725198,111.99998831748965L905.3759713591269,111.99998831748965L916.8553470659723,111.99998831748965L928.3361577306548,119.00000667572024L939.8143854712303,104.99999499320985L951.294392559524,111.99998831748965L962.774227452877,119.00000667572024L974.2534309647817,104.99999499320985L985.7345860193452,119.00000667572024L997.2125267683531,133.0000058412552L1008.6925912549602,133.0000058412552L1020.1718521651786,139.999999165535L1031.6520314484128,126.00000000000001L1043.1325551215277,119.00000667572024L1054.6108402604168,111.99998831748965L1066.0911343402777,119.00000667572024L1077.570395250496,111.99998831748965L1089.0499431522817,147.0000050067902L1100.5305816220239,139.999999165535L1112.0092685491072,133.0000058412552L1123.4892182390874,111.99998831748965L1134.968306954365,111.99998831748965L1146.4481992460317,119.00000667572024L1157.9288951140873,98.00000166893008L1169.407754236111,111.99998831748965L1180.8882205109126,139.999999165535L1192.367711014385,147.0000050067902L1203.8472589161706,161.00000417232516L1215.3272660044643,153.99999833106995L1226.8060677281744,139.999999165535L1238.28544343502,119.00000667572024L1249.7651635317459,98.00000166893008L1261.2449410267857,119.00000667572024L1272.7261534796626,126.00000000000001L1284.2040942286706,147.0000050067902L1295.683929122024,175.0000033378601L1307.163419625496,181.99999666213992L1318.6435989087304,181.99999666213992L1330.1239503869047,153.99999833106995" style="fill: none;" fill="none"></path></g><g><path stroke="rgb(0, 153, 136)" stroke-width="2px" d="M103.31696428571428,336L107.79609907738096,251.9999987483025L112.2738563095238,195.99999582767487L116.922890109127,163.69230544567108L121.55981286458332,151.20000100135806L126.07981525545635,139.999999165535L130.5502255034722,98.00000166893008L135.11855727430557,104.99999499320985L139.7843513814484,83.99998998641968L144.35256835565477,111.99998831748965L148.9989618328373,126.00000000000001L153.8298334895833,139.999999165535L158.42003401785715,126.00000000000001L162.9969755357143,111.99998831748965L167.52897417410713,91.00000834465027L172.1846087797619,91.00000834465027L176.81728406001986,91.00000834465027L181.34073034970237,104.99999499320985L185.7936341121032,133.0000058412552L190.52474750000002,126.00000000000001L195.26573339781746,119.00000667572024L199.98467834325396,76.99999666213992L204.75384681299602,104.99999499320985L209.43439228670633,104.99999499320985L214.470635109127,111.99998831748965L219.3907037450397,133.0000058412552L224.1646362748016,139.999999165535L228.7951304191468,139.999999165535L233.68959940724204,133.0000058412552L238.44206496775794,98.00000166893008L242.9623543501984,104.99999499320985L247.86451471230157,76.99999666213992L252.6864322321428,70.00000333786011L257.5009453695436,76.99999666213992L262.2962874702381,111.99998831748965L266.91088228174607,119.00000667572024L271.6804525396825,133.0000058412552L276.49984453373014,139.999999165535L281.07133321180555,133.0000058412552L285.6618207316468,111.99998831748965L290.50750115327384,91.00000834465027L301.9447464980159,76.99999666213992L315.7243596180556,91.00000834465027L329.5001844494048,104.99999499320985L343.27457432291664,126.00000000000001L357.0446593229167,133.0000058412552L363.3498640600198,139.999999165535L367.959235625,119.00000667572024L372.59145171875,119.00000667572024L377.3082729265873,111.99998831748965L381.96465371031746,111.99998831748965L386.5903263963294,104.99999499320985L391.41918911210314,139.999999165535L395.940454265873,119.00000667572024L400.7386088839286,126.00000000000001L405.37954952132935,133.0000058412552L409.95585965773813,104.99999499320985L414.6419727678571,91.00000834465027L419.28899762648814,104.99999499320985L423.9411309350199,104.99999499320985L428.77584827876984,133.0000058412552L433.39968421875005,175.0000033378601L438.39098416170634,181.99999666213992L443.0407067410714,175.0000033378601L447.6138599702381,153.99999833106995L452.14396446428566,133.0000058412552L456.7535082242063,98.00000166893008L461.44226165674604,83.99998998641968L466.15391701636906,76.99999666213992L470.82258103918645,91.00000834465027L475.65638000992067,98.00000166893008L480.3632139112104,91.00000834465027L485.1885753298611,91.00000834465027L490.0588796279761,111.99998831748965L495.1132029191467,104.99999499320985L500.2110915302579,104.99999499320985L505.0439147296627,111.99998831748965L509.9050926959325,111.99998831748965L514.6317864136905,76.99999666213992L519.6015045907739,91.00000834465027L524.6768930629961,111.99998831748965L529.5066741517858,104.99999499320985L534.4112452430555,119.00000667572024L539.0939144543651,98.00000166893008L543.7941475496032,83.99998998641968L548.5095337996032,70.00000333786011L553.2178600570437,48.99999833106998L557.8168999255953,48.99999833106998L562.5351560912699,70.00000333786011L567.2516903075397,83.99998998641968L572.0063370039682,76.99999666213992L576.7285536532738,83.99998998641968L581.4848075024801,98.00000166893008L586.4203736830357,83.99998998641968L591.1565955208333,48.99999833106998L596.065930672123,63.000010013580344L600.7382107886905,42.000005006790175L605.258385374504,42.000005006790175L610.0854113442459,35.00001168251041L614.7607335714285,55.99999165534975L619.3580514905755,55.99999165534975L624.0196555208333,70.00000333786011L628.6103152356152,83.99998998641968L633.1357704662698,76.99999666213992L637.6139868849206,63.000010013580344L642.618718033234,83.99998998641968L647.3463875223214,98.00000166893008L651.8582393526785,126.00000000000001L656.3320361011904,139.999999165535L661.0438636557539,161.00000417232516L665.8761702703373,153.99999833106995L670.5778383234127,139.999999165535L675.3130843898809,119.00000667572024L680.1504420560516,111.99998831748965L684.7544181795636,104.99999499320985L689.284752266865,98.00000166893008L693.7868463839286,104.99999499320985L706.7607019791666,104.99999499320985L720.5377895734126,147.0000050067902L734.3341056026786,167.99999749660492L748.100976297123,181.99999666213992L761.8622793551588,175.0000033378601L775.6471731200397,167.99999749660492L784.1416069320436,175.0000033378601L788.7327832316467,133.0000058412552L793.4666517385913,111.99998831748965L798.2468406845238,111.99998831748965L802.9629731125991,119.00000667572024L807.575329389881,119.00000667572024L812.2272331051587,119.00000667572024L816.8562348933532,126.00000000000001L821.6878527281747,126.00000000000001L826.4896808382937,126.00000000000001L831.2132176488095,139.999999165535L835.9310146279763,147.0000050067902L840.6102973387895,147.0000050067902L845.333432361111,181.99999666213992L850.0304511507937,189.0000025033951L854.7051993948413,181.99999666213992L859.4628882018849,195.99999582767487L864.1672539756946,175.0000033378601L868.8504397718253,147.0000050067902L873.6115724776786,126.00000000000001L878.370064861111,119.00000667572024L882.9852336557539,98.00000166893008L887.5652172842264,111.99998831748965L892.1941042757937,98.00000166893008L896.8771178769841,83.99998998641968L901.6679829092261,70.00000333786011L906.2411935367062,76.99999666213992L910.9299469692461,63.000010013580344L915.9290530828372,63.000010013580344L920.5190814161707,76.99999666213992L925.1639251388888,83.99998998641968L929.7947636731151,104.99999499320985L934.4129745783729,111.99998831748965L939.0833605505952,147.0000050067902L943.8474205704366,161.00000417232516L948.5005296502977,153.99999833106995L953.2740603918651,126.00000000000001L957.8660402678573,119.00000667572024L962.4285748090279,111.99998831748965L967.3539814880951,104.99999499320985L972.0978946999007,133.0000058412552L976.7614502728175,126.00000000000001L981.3723141939485,133.0000058412552L986.3150551636904,147.0000050067902L991.185187266865,147.0000050067902L995.7523710714287,133.0000058412552L1000.2834513368057,126.00000000000001L1004.9385693576388,147.0000050067902L1009.7138794469246,133.0000058412552L1014.5269002281747,119.00000667572024L1019.3092703100199,126.00000000000001L1023.935918767361,104.99999499320985L1028.7794754513889,76.99999666213992L1033.7699718179563,63.000010013580344L1038.4826603472222,63.000010013580344L1043.239545577877,55.99999165534975L1047.9996451140873,42.000005006790175L1052.5785955729166,42.000005006790175L1057.2615517757938,42.000005006790175L1061.955069268353,35.00001168251041L1066.7317569171626,48.99999833106998L1071.5261232465277,70.00000333786011L1076.0963491617065,76.99999666213992L1080.7450959697421,83.99998998641968L1085.4258710367062,98.00000166893008L1090.231602232143,55.99999165534975L1094.9480790500993,63.000010013580344L1099.5244465848216,55.99999165534975L1104.1626321031745,63.000010013580344L1108.9554486780753,55.99999165534975L1113.4963440550596,76.99999666213992L1118.3261251438491,76.99999666213992L1123.3558819568452,91.00000834465027L1128.202136361607,91.00000834465027L1132.8914063789682,76.99999666213992L1137.5429083060517,63.000010013580344L1142.1396522420634,70.00000333786011L1146.8017728571429,63.000010013580344L1151.5247930828373,42.000005006790175L1156.1320409102184,42.000005006790175L1160.6621454042659,55.99999165534975L1165.2783473685517,35.00001168251041L1169.9334653893848,27.999993324279817L1174.6604460987103,27.999993324279817L1179.4979759598214,35.00001168251041L1184.1935597916668,55.99999165534975L1188.9704196354166,48.99999833106998L1193.8531793675595,63.000010013580344L1198.6301540079367,55.99999165534975L1203.3971987400794,48.99999833106998L1208.0126545262897,48.99999833106998L1212.6926260168652,76.99999666213992L1217.4710930133929,70.00000333786011L1222.1961795783732,63.000010013580344L1226.7556720089287,70.00000333786011L1231.3636660143848,35.00001168251041L1235.9897978869049,21.00000000000001L1240.6167333358135,27.999993324279817L1245.5632625942462,35.00001168251041L1250.3793828844246,48.99999833106998L1255.1772505109127,55.99999165534975L1260.0970895535713,76.99999666213992L1264.8828461359128,91.00000834465027L1269.5390547247023,98.00000166893008L1274.196755669643,98.00000166893008L1278.8166885243056,98.00000166893008L1283.4464938888889,63.000010013580344L1288.2483793973215,55.99999165534975L1292.8590137251983,48.99999833106998L1297.559992998512,27.999993324279817L1302.278076969246,55.99999165534975L1307.0408742261905,48.99999833106998L1311.7560308829363,35.00001168251041L1316.2895218774802,35.00001168251041L1320.9115210714285,35.00001168251041L1325.544827733135,27.999993324279817L1330.248217735615,21.00000000000001" style="fill: none;" fill="none"></path></g></g></g></g></g></g><g transform="translate(51, 378)" clip-path="url(#clip_1)"><clipPath id="clip_1"><rect width="1446" height="22"></rect></clipPath><g><g><line x1="0" y1="0" x2="0" y2="5" style="visibility: inherit;" fill="rgb(0, 0, 0)" stroke="rgb(204, 204, 204)" stroke-width="1px"></line><line x1="103.31696428571428" y1="0" x2="103.31696428571428" y2="5" style="visibility: inherit;" fill="rgb(0, 0, 0)" stroke="rgb(204, 204, 204)" stroke-width="1px"></line><line x1="206.63392857142856" y1="0" x2="206.63392857142856" y2="5" style="visibility: inherit;" fill="rgb(0, 0, 0)" stroke="rgb(204, 204, 204)" stroke-width="1px"></line><line x1="309.95089285714283" y1="0" x2="309.95089285714283" y2="5" style="visibility: inherit;" fill="rgb(0, 0, 0)" stroke="rgb(204, 204, 204)" stroke-width="1px"></line><line x1="413.2678571428571" y1="0" x2="413.2678571428571" y2="5" style="visibility: inherit;" fill="rgb(0, 0, 0)" stroke="rgb(204, 204, 204)" stroke-width="1px"></line><line x1="516.5848214285714" y1="0" x2="516.5848214285714" y2="5" style="visibility: inherit;" fill="rgb(0, 0, 0)" stroke="rgb(204, 204, 204)" stroke-width="1px"></line><line x1="619.9017857142857" y1="0" x2="619.9017857142857" y2="5" style="visibility: inherit;" fill="rgb(0, 0, 0)" stroke="rgb(204, 204, 204)" stroke-width="1px"></line><line x1="723.21875" y1="0" x2="723.21875" y2="5" style="visibility: inherit;" fill="rgb(0, 0, 0)" stroke="rgb(204, 204, 204)" stroke-width="1px"></line><line x1="826.5357142857142" y1="0" x2="826.5357142857142" y2="5" style="visibility: inherit;" fill="rgb(0, 0, 0)" stroke="rgb(204, 204, 204)" stroke-width="1px"></line><line x1="929.8526785714287" y1="0" x2="929.8526785714287" y2="5" style="visibility: inherit;" fill="rgb(0, 0, 0)" stroke="rgb(204, 204, 204)" stroke-width="1px"></line><line x1="1033.169642857143" y1="0" x2="1033.169642857143" y2="5" style="visibility: inherit;" fill="rgb(0, 0, 0)" stroke="rgb(204, 204, 204)" stroke-width="1px"></line><line x1="1136.486607142857" y1="0" x2="1136.486607142857" y2="5" style="visibility: inherit;" fill="rgb(0, 0, 0)" stroke="rgb(204, 204, 204)" stroke-width="1px"></line><line x1="1239.8035714285713" y1="0" x2="1239.8035714285713" y2="5" style="visibility: inherit;" fill="rgb(0, 0, 0)" stroke="rgb(204, 204, 204)" stroke-width="1px"></line><line x1="1343.1205357142858" y1="0" x2="1343.1205357142858" y2="5" style="visibility: inherit;" fill="rgb(0, 0, 0)" stroke="rgb(204, 204, 204)" stroke-width="1px"></line><line x1="1446.4375" y1="0" x2="1446.4375" y2="5" style="visibility: inherit;" fill="rgb(0, 0, 0)" stroke="rgb(204, 204, 204)" stroke-width="1px"></line></g><g transform="translate(0, 8)"><text x="0" y="0" dx="0em" dy="0.95em" style="text-anchor: middle; visibility: hidden; font-family: Roboto, sans-serif; font-size: 12px; font-weight: 200;" fill="rgb(50, 49, 63)" stroke="none" stroke-width="1px">-0.5</text><text x="103.31696428571428" y="0" dx="0em" dy="0.95em" style="text-anchor: middle; visibility: inherit; font-family: Roboto, sans-serif; font-size: 12px; font-weight: 200;" fill="rgb(50, 49, 63)" stroke="none" stroke-width="1px">0</text><text x="206.63392857142856" y="0" dx="0em" dy="0.95em" style="text-anchor: middle; visibility: inherit; font-family: Roboto, sans-serif; font-size: 12px; font-weight: 200;" fill="rgb(50, 49, 63)" stroke="none" stroke-width="1px">0.5</text><text x="309.95089285714283" y="0" dx="0em" dy="0.95em" style="text-anchor: middle; visibility: inherit; font-family: Roboto, sans-serif; font-size: 12px; font-weight: 200;" fill="rgb(50, 49, 63)" stroke="none" stroke-width="1px">1</text><text x="413.2678571428571" y="0" dx="0em" dy="0.95em" style="text-anchor: middle; visibility: inherit; font-family: Roboto, sans-serif; font-size: 12px; font-weight: 200;" fill="rgb(50, 49, 63)" stroke="none" stroke-width="1px">1.5</text><text x="516.5848214285714" y="0" dx="0em" dy="0.95em" style="text-anchor: middle; visibility: inherit; font-family: Roboto, sans-serif; font-size: 12px; font-weight: 200;" fill="rgb(50, 49, 63)" stroke="none" stroke-width="1px">2</text><text x="619.9017857142857" y="0" dx="0em" dy="0.95em" style="text-anchor: middle; visibility: inherit; font-family: Roboto, sans-serif; font-size: 12px; font-weight: 200;" fill="rgb(50, 49, 63)" stroke="none" stroke-width="1px">2.5</text><text x="723.21875" y="0" dx="0em" dy="0.95em" style="text-anchor: middle; visibility: inherit; font-family: Roboto, sans-serif; font-size: 12px; font-weight: 200;" fill="rgb(50, 49, 63)" stroke="none" stroke-width="1px">3</text><text x="826.5357142857142" y="0" dx="0em" dy="0.95em" style="text-anchor: middle; visibility: inherit; font-family: Roboto, sans-serif; font-size: 12px; font-weight: 200;" fill="rgb(50, 49, 63)" stroke="none" stroke-width="1px">3.5</text><text x="929.8526785714287" y="0" dx="0em" dy="0.95em" style="text-anchor: middle; visibility: inherit; font-family: Roboto, sans-serif; font-size: 12px; font-weight: 200;" fill="rgb(50, 49, 63)" stroke="none" stroke-width="1px">4</text><text x="1033.169642857143" y="0" dx="0em" dy="0.95em" style="text-anchor: middle; visibility: inherit; font-family: Roboto, sans-serif; font-size: 12px; font-weight: 200;" fill="rgb(50, 49, 63)" stroke="none" stroke-width="1px">4.5</text><text x="1136.486607142857" y="0" dx="0em" dy="0.95em" style="text-anchor: middle; visibility: inherit; font-family: Roboto, sans-serif; font-size: 12px; font-weight: 200;" fill="rgb(50, 49, 63)" stroke="none" stroke-width="1px">5</text><text x="1239.8035714285713" y="0" dx="0em" dy="0.95em" style="text-anchor: middle; visibility: inherit; font-family: Roboto, sans-serif; font-size: 12px; font-weight: 200;" fill="rgb(50, 49, 63)" stroke="none" stroke-width="1px">5.5</text><text x="1343.1205357142858" y="0" dx="0em" dy="0.95em" style="text-anchor: middle; visibility: inherit; font-family: Roboto, sans-serif; font-size: 12px; font-weight: 200;" fill="rgb(50, 49, 63)" stroke="none" stroke-width="1px">6</text><text x="1446.4375" y="0" dx="0em" dy="0.95em" style="text-anchor: middle; visibility: hidden; font-family: Roboto, sans-serif; font-size: 12px; font-weight: 200;" fill="rgb(50, 49, 63)" stroke="none" stroke-width="1px">6.5</text></g><line x1="0" y1="0" x2="1446.4375" y2="0" fill="rgb(0, 0, 0)" stroke="rgb(204, 204, 204)" stroke-width="1px"></line></g></g></g></g></svg>