<svg viewBox="0 0 1498 400" xmlns="http://www.w3.org/2000/svg"><g><g><g><g><g><line x1="51.5625" y1="378" x2="46.5625" y2="378" style="visibility: inherit;" fill="rgb(0, 0, 0)" stroke="rgb(204, 204, 204)" stroke-width="1px"></line><line x1="51.5625" y1="336" x2="46.5625" y2="336" style="visibility: inherit;" fill="rgb(0, 0, 0)" stroke="rgb(204, 204, 204)" stroke-width="1px"></line><line x1="51.5625" y1="294" x2="46.5625" y2="294" style="visibility: inherit;" fill="rgb(0, 0, 0)" stroke="rgb(204, 204, 204)" stroke-width="1px"></line><line x1="51.5625" y1="252" x2="46.5625" y2="252" style="visibility: inherit;" fill="rgb(0, 0, 0)" stroke="rgb(204, 204, 204)" stroke-width="1px"></line><line x1="51.5625" y1="210" x2="46.5625" y2="210" style="visibility: inherit;" fill="rgb(0, 0, 0)" stroke="rgb(204, 204, 204)" stroke-width="1px"></line><line x1="51.5625" y1="168" x2="46.5625" y2="168" style="visibility: inherit;" fill="rgb(0, 0, 0)" stroke="rgb(204, 204, 204)" stroke-width="1px"></line><line x1="51.5625" y1="126.00000000000001" x2="46.5625" y2="126.00000000000001" style="visibility: inherit;" fill="rgb(0, 0, 0)" stroke="rgb(204, 204, 204)" stroke-width="1px"></line><line x1="51.5625" y1="84.00000000000004" x2="46.5625" y2="84.00000000000004" style="visibility: inherit;" fill="rgb(0, 0, 0)" stroke="rgb(204, 204, 204)" stroke-width="1px"></line><line x1="51.5625" y1="42.00000000000002" x2="46.5625" y2="42.00000000000002" style="visibility: inherit;" fill="rgb(0, 0, 0)" stroke="rgb(204, 204, 204)" stroke-width="1px"></line><line x1="51.5625" y1="0" x2="46.5625" y2="0" style="visibility: inherit;" fill="rgb(0, 0, 0)" stroke="rgb(204, 204, 204)" stroke-width="1px"></line></g><g transform="translate(41.5625, 0)"><text x="0" y="378" dx="0em" dy="0.3em" style="text-anchor: end; visibility: hidden; font-family: Roboto, sans-serif; font-size: 12px; font-weight: 200;" fill="rgb(50, 49, 63)" stroke="none" stroke-width="1px">-0.1</text><text x="0" y="336" dx="0em" dy="0.3em" style="text-anchor: end; visibility: inherit; font-family: Roboto, sans-serif; font-size: 12px; font-weight: 200;" fill="rgb(50, 49, 63)" stroke="none" stroke-width="1px">0</text><text x="0" y="294" dx="0em" dy="0.3em" style="text-anchor: end; visibility: inherit; font-family: Roboto, sans-serif; font-size: 12px; font-weight: 200;" fill="rgb(50, 49, 63)" stroke="none" stroke-width="1px">0.1</text><text x="0" y="252" dx="0em" dy="0.3em" style="text-anchor: end; visibility: inherit; font-family: Roboto, sans-serif; font-size: 12px; font-weight: 200;" fill="rgb(50, 49, 63)" stroke="none" stroke-width="1px">0.2</text><text x="0" y="210" dx="0em" dy="0.3em" style="text-anchor: end; visibility: inherit; font-family: Roboto, sans-serif; font-size: 12px; font-weight: 200;" fill="rgb(50, 49, 63)" stroke="none" stroke-width="1px">0.3</text><text x="0" y="168" dx="0em" dy="0.3em" style="text-anchor: end; visibility: inherit; font-family: Roboto, sans-serif; font-size: 12px; font-weight: 200;" fill="rgb(50, 49, 63)" stroke="none" stroke-width="1px">0.4</text><text x="0" y="126.00000000000001" dx="0em" dy="0.3em" style="text-anchor: end; visibility: inherit; font-family: Roboto, sans-serif; font-size: 12px; font-weight: 200;" fill="rgb(50, 49, 63)" stroke="none" stroke-width="1px">0.5</text><text x="0" y="84.00000000000004" dx="0em" dy="0.3em" style="text-anchor: end; visibility: inherit; font-family: Roboto, sans-serif; font-size: 12px; font-weight: 200;" fill="rgb(50, 49, 63)" stroke="none" stroke-width="1px">0.6</text><text x="0" y="42.00000000000002" dx="0em" dy="0.3em" style="text-anchor: end; visibility: inherit; font-family: Roboto, sans-serif; font-size: 12px; font-weight: 200;" fill="rgb(50, 49, 63)" stroke="none" stroke-width="1px">0.7</text><text x="0" y="0" dx="0em" dy="0.3em" style="text-anchor: end; visibility: hidden; font-family: Roboto, sans-serif; font-size: 12px; font-weight: 200;" fill="rgb(50, 49, 63)" stroke="none" stroke-width="1px">0.8</text></g><line x1="51.5625" y1="0" x2="51.5625" y2="378" fill="rgb(0, 0, 0)" stroke="rgb(204, 204, 204)" stroke-width="1px"></line></g></g><g transform="translate(51, 0)" clip-path="url(#clip_0)"><clipPath id="clip_0"><rect width="1446" height="378"></rect></clipPath><g><g><g><line x1="0" y1="0" x2="0" y2="378" fill="rgb(0, 0, 0)" stroke="rgb(60, 60, 60)" stroke-width="1px" opacity="0.25"></line><line x1="103.31696428571428" y1="0" x2="103.31696428571428" y2="378" fill="rgb(0, 0, 0)" stroke="rgb(60, 60, 60)" stroke-width="1px" opacity="0.25"></line><line x1="206.63392857142856" y1="0" x2="206.63392857142856" y2="378" fill="rgb(0, 0, 0)" stroke="rgb(60, 60, 60)" stroke-width="1px" opacity="0.25"></line><line x1="309.95089285714283" y1="0" x2="309.95089285714283" y2="378" fill="rgb(0, 0, 0)" stroke="rgb(60, 60, 60)" stroke-width="1px" opacity="0.25"></line><line x1="413.2678571428571" y1="0" x2="413.2678571428571" y2="378" fill="rgb(0, 0, 0)" stroke="rgb(60, 60, 60)" stroke-width="1px" opacity="0.25"></line><line x1="516.5848214285714" y1="0" x2="516.5848214285714" y2="378" fill="rgb(0, 0, 0)" stroke="rgb(60, 60, 60)" stroke-width="1px" opacity="0.25"></line><line x1="619.9017857142857" y1="0" x2="619.9017857142857" y2="378" fill="rgb(0, 0, 0)" stroke="rgb(60, 60, 60)" stroke-width="1px" opacity="0.25"></line><line x1="723.21875" y1="0" x2="723.21875" y2="378" fill="rgb(0, 0, 0)" stroke="rgb(60, 60, 60)" stroke-width="1px" opacity="0.25"></line><line x1="826.5357142857142" y1="0" x2="826.5357142857142" y2="378" fill="rgb(0, 0, 0)" stroke="rgb(60, 60, 60)" stroke-width="1px" opacity="0.25"></line><line x1="929.8526785714287" y1="0" x2="929.8526785714287" y2="378" fill="rgb(0, 0, 0)" stroke="rgb(60, 60, 60)" stroke-width="1px" opacity="0.25"></line><line x1="1033.169642857143" y1="0" x2="1033.169642857143" y2="378" fill="rgb(0, 0, 0)" stroke="rgb(60, 60, 60)" stroke-width="1px" opacity="0.25"></line><line x1="1136.486607142857" y1="0" x2="1136.486607142857" y2="378" fill="rgb(0, 0, 0)" stroke="rgb(60, 60, 60)" stroke-width="1px" opacity="0.25"></line><line x1="1239.8035714285713" y1="0" x2="1239.8035714285713" y2="378" fill="rgb(0, 0, 0)" stroke="rgb(60, 60, 60)" stroke-width="1px" opacity="0.25"></line><line x1="1343.1205357142858" y1="0" x2="1343.1205357142858" y2="378" fill="rgb(0, 0, 0)" stroke="rgb(60, 60, 60)" stroke-width="1px" opacity="0.25"></line><line x1="1446.4375" y1="0" x2="1446.4375" y2="378" fill="rgb(0, 0, 0)" stroke="rgb(60, 60, 60)" stroke-width="1px" opacity="0.25"></line></g><g><line x1="0" y1="378" x2="1446.4375" y2="378" fill="rgb(0, 0, 0)" stroke="rgb(60, 60, 60)" stroke-width="1px" opacity="0.25"></line><line x1="0" y1="336" x2="1446.4375" y2="336" fill="rgb(0, 0, 0)" stroke="rgb(60, 60, 60)" stroke-width="1px" opacity="0.25"></line><line x1="0" y1="294" x2="1446.4375" y2="294" fill="rgb(0, 0, 0)" stroke="rgb(60, 60, 60)" stroke-width="1px" opacity="0.25"></line><line x1="0" y1="252" x2="1446.4375" y2="252" fill="rgb(0, 0, 0)" stroke="rgb(60, 60, 60)" stroke-width="1px" opacity="0.25"></line><line x1="0" y1="210" x2="1446.4375" y2="210" fill="rgb(0, 0, 0)" stroke="rgb(60, 60, 60)" stroke-width="1px" opacity="0.25"></line><line x1="0" y1="168" x2="1446.4375" y2="168" fill="rgb(0, 0, 0)" stroke="rgb(60, 60, 60)" stroke-width="1px" opacity="0.25"></line><line x1="0" y1="126.00000000000001" x2="1446.4375" y2="126.00000000000001" fill="rgb(0, 0, 0)" stroke="rgb(60, 60, 60)" stroke-width="1px" opacity="0.25"></line><line x1="0" y1="84.00000000000004" x2="1446.4375" y2="84.00000000000004" fill="rgb(0, 0, 0)" stroke="rgb(60, 60, 60)" stroke-width="1px" opacity="0.25"></line><line x1="0" y1="42.00000000000002" x2="1446.4375" y2="42.00000000000002" fill="rgb(0, 0, 0)" stroke="rgb(60, 60, 60)" stroke-width="1px" opacity="0.25"></line><line x1="0" y1="0" x2="1446.4375" y2="0" fill="rgb(0, 0, 0)" stroke="rgb(60, 60, 60)" stroke-width="1px" opacity="0.25"></line></g></g></g><g><g><line x1="0" y1="336" x2="1446.4375" y2="336" fill="rgb(0, 0, 0)" stroke="rgb(153, 153, 153)" stroke-width="1.5px"></line></g></g><g><g><line x1="103.31696428571428" y1="0" x2="103.31696428571428" y2="378" fill="rgb(0, 0, 0)" stroke="rgb(153, 153, 153)" stroke-width="1.5px"></line></g></g><g><g><g><g><g><path stroke="rgb(204, 51, 17)" stroke-width="2px" d="M103.31696428571428,336L117.0804484796627,336L130.8446788516865,329.6974789681179L144.62056108134922,328.3978861736353L158.39575453125,325.30336483919024L172.13811614583335,312.169232578416L185.91107106150793,301.8115918110168L199.66904501736113,295.785743897472L213.42942970238096,283.7501544928172L227.1805732589286,273.7898659722488L240.95427435267857,267.85237788379203L254.71925090277776,253.07926888756438L268.47033706101195,241.43234730813882L282.2405942559523,240.05833148197354L295.99127862599204,242.03592839177063L309.7648075248016,232.01873140748265L323.51560669146824,228.8106934943351L337.28942258184526,226.8862183104827L351.0678877356151,225.73165829554847L364.83131453125,230.6391742369944L378.5989314037698,230.78350770843286L392.3788889136905,233.67014245254504L406.1552877281746,238.20212092814472L419.9249135416667,243.72129820817446L433.7085445436507,247.03278783888604L447.49464367311504,254.6196848107266L461.2628919270834,261.9718174099148L475.03378050347226,263.58309060095746L488.82274954861117,270.14985561189087L502.60712672867066,268.4899121656993L516.385075297619,261.8939459238229L530.1564804588294,257.93636673864444L543.9443589360119,249.96181949549333L557.7019311036706,245.17709139331487L571.4717865104167,245.1062545009852L585.2494480877976,245.06375236636674L599.0067332638889,250.63825078674662L612.7799751711309,259.58294950390336L626.545640500992,267.74976855228596L640.3199155778769,269.8498601328208L654.0804724578373,268.3099152439924L667.8552067212302,270.1859481459402L681.6373453670635,271.31156788653107L695.4050770362103,271.9869397306776L709.1552448214286,280.79216358898236L722.91861421875,280.4752969851186L736.7021878224206,271.88517752317773L750.47324859375,261.1311061798791L764.2456295262898,263.07866287348867L778.0203637896825,258.6471972233784L791.7720239310516,267.1883171658174L805.5436012872024,272.3129891312543L819.3050765401786,266.98779281117123L833.0769408878969,269.3926746853473L846.8413434548612,268.03560397674244L860.6043110639882,264.4213617184721L874.385933125,253.85281686418784L888.1455142336308,244.7116901185115L901.9216260565477,230.8270120683897L915.671793841766,216.89620557210313L929.4553674454365,200.1377246784054L943.2115620535715,184.48263647597304L956.9773421800595,177.88958088422567L970.7520190451389,182.33374953189352L984.5215300620039,193.40024771642007L998.305964640377,208.44014862985208L1012.0776567931548,217.46408917791123L1025.8560645486111,231.27845300606776L1039.6216150818452,245.16707096917565L1053.4219489930556,256.3002415801474L1067.198175612599,257.3801442805164L1080.9604544419642,258.02808590073784L1094.7373124429564,244.41684920394061L1108.5133668675594,233.45010985615036L1122.2809263417657,232.47006591369023L1136.04039265377,234.68203938132115L1149.8252290203372,247.20922279432762L1163.5987579191467,263.1255335931501L1177.3639640625,278.2753197386576L1191.158558142361,278.9651906749435L1204.9316278546628,268.1791139042871L1218.7214004761906,253.30746834257226L1232.5065238343252,233.18448167311539L1246.286366547619,218.31068733493916L1260.063109751984,206.58641340232157L1273.8568428571427,196.7518467062489L1287.6862203149801,202.0511060210333L1301.4690477405754,202.430664280192L1315.262436455853,199.85839689918515" style="fill: none;" fill="none"></path></g></g></g></g><g opacity="0.2"><g><g><g><path stroke="rgb(204, 51, 17)" stroke-width="2px" d="M103.31696428571428,336L117.0804484796627,336L130.8446788516865,323.6470587775111L144.62056108134922,326.8695650473237L158.39575453125,321.2631577849388L172.13811614583335,293.99999937415123L185.91107106150793,286.99999979138374L199.66904501736113,286.99999979138374L213.42942970238096,265.99999791383743L227.1805732589286,258.99999833106995L240.95427435267857,258.99999833106995L254.71925090277776,231.00000000000003L268.47033706101195,223.99999415874484L282.2405942559523,237.9999995827675L295.99127862599204,244.99999916553497L309.7648075248016,217.00000083446503L323.51560669146824,223.99999415874484L337.28942258184526,223.99999415874484L351.0678877356151,223.99999415874484L364.83131453125,237.9999995827675L378.5989314037698,231.00000000000003L392.3788889136905,237.9999995827675L406.1552877281746,244.99999916553497L419.9249135416667,251.9999987483025L433.7085445436507,251.9999987483025L447.49464367311504,265.99999791383743L461.2628919270834,272.9999974966049L475.03378050347226,265.99999791383743L488.82274954861117,279.9999970793724L502.60712672867066,265.99999791383743L516.385075297619,251.9999987483025L530.1564804588294,251.9999987483025L543.9443589360119,237.9999995827675L557.7019311036706,237.9999995827675L571.4717865104167,244.99999916553497L585.2494480877976,244.99999916553497L599.0067332638889,258.99999833106995L612.7799751711309,272.9999974966049L626.545640500992,279.9999970793724L640.3199155778769,272.9999974966049L654.0804724578373,265.99999791383743L667.8552067212302,272.9999974966049L681.6373453670635,272.9999974966049L695.4050770362103,272.9999974966049L709.1552448214286,293.99999937415123L722.91861421875,279.9999970793724L736.7021878224206,258.99999833106995L750.47324859375,244.99999916553497L764.2456295262898,265.99999791383743L778.0203637896825,251.9999987483025L791.7720239310516,279.9999970793724L805.5436012872024,279.9999970793724L819.3050765401786,258.99999833106995L833.0769408878969,272.9999974966049L846.8413434548612,265.99999791383743L860.6043110639882,258.99999833106995L874.385933125,237.9999995827675L888.1455142336308,231.00000000000003L901.9216260565477,209.99999499320984L915.671793841766,195.99999582767487L929.4553674454365,175.0000033378601L943.2115620535715,161.00000417232516L956.9773421800595,167.99999749660492L970.7520190451389,189.0000025033951L984.5215300620039,209.99999499320984L998.305964640377,231.00000000000003L1012.0776567931548,231.00000000000003L1025.8560645486111,251.9999987483025L1039.6216150818452,265.99999791383743L1053.4219489930556,272.9999974966049L1067.198175612599,258.99999833106995L1080.9604544419642,258.99999833106995L1094.7373124429564,223.99999415874484L1108.5133668675594,217.00000083446503L1122.2809263417657,231.00000000000003L1136.04039265377,237.9999995827675L1149.8252290203372,265.99999791383743L1163.5987579191467,286.99999979138374L1177.3639640625,300.9999989569187L1191.158558142361,279.9999970793724L1204.9316278546628,251.9999987483025L1218.7214004761906,231.00000000000003L1232.5065238343252,203.00000166893005L1246.286366547619,195.99999582767487L1260.063109751984,189.0000025033951L1273.8568428571427,181.99999666213992L1287.6862203149801,209.99999499320984L1301.4690477405754,203.00000166893005L1315.262436455853,195.99999582767487" style="fill: none;" fill="none"></path></g></g></g></g></g></g><g transform="translate(51, 378)" clip-path="url(#clip_1)"><clipPath id="clip_1"><rect width="1446" height="22"></rect></clipPath><g><g><line x1="0" y1="0" x2="0" y2="5" style="visibility: inherit;" fill="rgb(0, 0, 0)" stroke="rgb(204, 204, 204)" stroke-width="1px"></line><line x1="103.31696428571428" y1="0" x2="103.31696428571428" y2="5" style="visibility: inherit;" fill="rgb(0, 0, 0)" stroke="rgb(204, 204, 204)" stroke-width="1px"></line><line x1="206.63392857142856" y1="0" x2="206.63392857142856" y2="5" style="visibility: inherit;" fill="rgb(0, 0, 0)" stroke="rgb(204, 204, 204)" stroke-width="1px"></line><line x1="309.95089285714283" y1="0" x2="309.95089285714283" y2="5" style="visibility: inherit;" fill="rgb(0, 0, 0)" stroke="rgb(204, 204, 204)" stroke-width="1px"></line><line x1="413.2678571428571" y1="0" x2="413.2678571428571" y2="5" style="visibility: inherit;" fill="rgb(0, 0, 0)" stroke="rgb(204, 204, 204)" stroke-width="1px"></line><line x1="516.5848214285714" y1="0" x2="516.5848214285714" y2="5" style="visibility: inherit;" fill="rgb(0, 0, 0)" stroke="rgb(204, 204, 204)" stroke-width="1px"></line><line x1="619.9017857142857" y1="0" x2="619.9017857142857" y2="5" style="visibility: inherit;" fill="rgb(0, 0, 0)" stroke="rgb(204, 204, 204)" stroke-width="1px"></line><line x1="723.21875" y1="0" x2="723.21875" y2="5" style="visibility: inherit;" fill="rgb(0, 0, 0)" stroke="rgb(204, 204, 204)" stroke-width="1px"></line><line x1="826.5357142857142" y1="0" x2="826.5357142857142" y2="5" style="visibility: inherit;" fill="rgb(0, 0, 0)" stroke="rgb(204, 204, 204)" stroke-width="1px"></line><line x1="929.8526785714287" y1="0" x2="929.8526785714287" y2="5" style="visibility: inherit;" fill="rgb(0, 0, 0)" stroke="rgb(204, 204, 204)" stroke-width="1px"></line><line x1="1033.169642857143" y1="0" x2="1033.169642857143" y2="5" style="visibility: inherit;" fill="rgb(0, 0, 0)" stroke="rgb(204, 204, 204)" stroke-width="1px"></line><line x1="1136.486607142857" y1="0" x2="1136.486607142857" y2="5" style="visibility: inherit;" fill="rgb(0, 0, 0)" stroke="rgb(204, 204, 204)" stroke-width="1px"></line><line x1="1239.8035714285713" y1="0" x2="1239.8035714285713" y2="5" style="visibility: inherit;" fill="rgb(0, 0, 0)" stroke="rgb(204, 204, 204)" stroke-width="1px"></line><line x1="1343.1205357142858" y1="0" x2="1343.1205357142858" y2="5" style="visibility: inherit;" fill="rgb(0, 0, 0)" stroke="rgb(204, 204, 204)" stroke-width="1px"></line><line x1="1446.4375" y1="0" x2="1446.4375" y2="5" style="visibility: inherit;" fill="rgb(0, 0, 0)" stroke="rgb(204, 204, 204)" stroke-width="1px"></line></g><g transform="translate(0, 8)"><text x="0" y="0" dx="0em" dy="0.95em" style="text-anchor: middle; visibility: hidden; font-family: Roboto, sans-serif; font-size: 12px; font-weight: 200;" fill="rgb(50, 49, 63)" stroke="none" stroke-width="1px">-0.5</text><text x="103.31696428571428" y="0" dx="0em" dy="0.95em" style="text-anchor: middle; visibility: inherit; font-family: Roboto, sans-serif; font-size: 12px; font-weight: 200;" fill="rgb(50, 49, 63)" stroke="none" stroke-width="1px">0</text><text x="206.63392857142856" y="0" dx="0em" dy="0.95em" style="text-anchor: middle; visibility: inherit; font-family: Roboto, sans-serif; font-size: 12px; font-weight: 200;" fill="rgb(50, 49, 63)" stroke="none" stroke-width="1px">0.5</text><text x="309.95089285714283" y="0" dx="0em" dy="0.95em" style="text-anchor: middle; visibility: inherit; font-family: Roboto, sans-serif; font-size: 12px; font-weight: 200;" fill="rgb(50, 49, 63)" stroke="none" stroke-width="1px">1</text><text x="413.2678571428571" y="0" dx="0em" dy="0.95em" style="text-anchor: middle; visibility: inherit; font-family: Roboto, sans-serif; font-size: 12px; font-weight: 200;" fill="rgb(50, 49, 63)" stroke="none" stroke-width="1px">1.5</text><text x="516.5848214285714" y="0" dx="0em" dy="0.95em" style="text-anchor: middle; visibility: inherit; font-family: Roboto, sans-serif; font-size: 12px; font-weight: 200;" fill="rgb(50, 49, 63)" stroke="none" stroke-width="1px">2</text><text x="619.9017857142857" y="0" dx="0em" dy="0.95em" style="text-anchor: middle; visibility: inherit; font-family: Roboto, sans-serif; font-size: 12px; font-weight: 200;" fill="rgb(50, 49, 63)" stroke="none" stroke-width="1px">2.5</text><text x="723.21875" y="0" dx="0em" dy="0.95em" style="text-anchor: middle; visibility: inherit; font-family: Roboto, sans-serif; font-size: 12px; font-weight: 200;" fill="rgb(50, 49, 63)" stroke="none" stroke-width="1px">3</text><text x="826.5357142857142" y="0" dx="0em" dy="0.95em" style="text-anchor: middle; visibility: inherit; font-family: Roboto, sans-serif; font-size: 12px; font-weight: 200;" fill="rgb(50, 49, 63)" stroke="none" stroke-width="1px">3.5</text><text x="929.8526785714287" y="0" dx="0em" dy="0.95em" style="text-anchor: middle; visibility: inherit; font-family: Roboto, sans-serif; font-size: 12px; font-weight: 200;" fill="rgb(50, 49, 63)" stroke="none" stroke-width="1px">4</text><text x="1033.169642857143" y="0" dx="0em" dy="0.95em" style="text-anchor: middle; visibility: inherit; font-family: Roboto, sans-serif; font-size: 12px; font-weight: 200;" fill="rgb(50, 49, 63)" stroke="none" stroke-width="1px">4.5</text><text x="1136.486607142857" y="0" dx="0em" dy="0.95em" style="text-anchor: middle; visibility: inherit; font-family: Roboto, sans-serif; font-size: 12px; font-weight: 200;" fill="rgb(50, 49, 63)" stroke="none" stroke-width="1px">5</text><text x="1239.8035714285713" y="0" dx="0em" dy="0.95em" style="text-anchor: middle; visibility: inherit; font-family: Roboto, sans-serif; font-size: 12px; font-weight: 200;" fill="rgb(50, 49, 63)" stroke="none" stroke-width="1px">5.5</text><text x="1343.1205357142858" y="0" dx="0em" dy="0.95em" style="text-anchor: middle; visibility: inherit; font-family: Roboto, sans-serif; font-size: 12px; font-weight: 200;" fill="rgb(50, 49, 63)" stroke="none" stroke-width="1px">6</text><text x="1446.4375" y="0" dx="0em" dy="0.95em" style="text-anchor: middle; visibility: hidden; font-family: Roboto, sans-serif; font-size: 12px; font-weight: 200;" fill="rgb(50, 49, 63)" stroke="none" stroke-width="1px">6.5</text></g><line x1="0" y1="0" x2="1446.4375" y2="0" fill="rgb(0, 0, 0)" stroke="rgb(204, 204, 204)" stroke-width="1px"></line></g></g></g></g></svg>