<svg viewBox="0 0 1498 400" xmlns="http://www.w3.org/2000/svg"><g><g><g><g><g><line x1="30.78125" y1="378" x2="25.78125" y2="378" style="visibility: inherit;" fill="rgb(0, 0, 0)" stroke="rgb(204, 204, 204)" stroke-width="1px"></line><line x1="30.78125" y1="346.5" x2="25.78125" y2="346.5" style="visibility: inherit;" fill="rgb(0, 0, 0)" stroke="rgb(204, 204, 204)" stroke-width="1px"></line><line x1="30.78125" y1="315" x2="25.78125" y2="315" style="visibility: inherit;" fill="rgb(0, 0, 0)" stroke="rgb(204, 204, 204)" stroke-width="1px"></line><line x1="30.78125" y1="283.5" x2="25.78125" y2="283.5" style="visibility: inherit;" fill="rgb(0, 0, 0)" stroke="rgb(204, 204, 204)" stroke-width="1px"></line><line x1="30.78125" y1="252.00000000000003" x2="25.78125" y2="252.00000000000003" style="visibility: inherit;" fill="rgb(0, 0, 0)" stroke="rgb(204, 204, 204)" stroke-width="1px"></line><line x1="30.78125" y1="220.49999999999997" x2="25.78125" y2="220.49999999999997" style="visibility: inherit;" fill="rgb(0, 0, 0)" stroke="rgb(204, 204, 204)" stroke-width="1px"></line><line x1="30.78125" y1="189" x2="25.78125" y2="189" style="visibility: inherit;" fill="rgb(0, 0, 0)" stroke="rgb(204, 204, 204)" stroke-width="1px"></line><line x1="30.78125" y1="157.5" x2="25.78125" y2="157.5" style="visibility: inherit;" fill="rgb(0, 0, 0)" stroke="rgb(204, 204, 204)" stroke-width="1px"></line><line x1="30.78125" y1="126.00000000000001" x2="25.78125" y2="126.00000000000001" style="visibility: inherit;" fill="rgb(0, 0, 0)" stroke="rgb(204, 204, 204)" stroke-width="1px"></line><line x1="30.78125" y1="94.5" x2="25.78125" y2="94.5" style="visibility: inherit;" fill="rgb(0, 0, 0)" stroke="rgb(204, 204, 204)" stroke-width="1px"></line><line x1="30.78125" y1="62.999999999999986" x2="25.78125" y2="62.999999999999986" style="visibility: inherit;" fill="rgb(0, 0, 0)" stroke="rgb(204, 204, 204)" stroke-width="1px"></line><line x1="30.78125" y1="31.500000000000014" x2="25.78125" y2="31.500000000000014" style="visibility: inherit;" fill="rgb(0, 0, 0)" stroke="rgb(204, 204, 204)" stroke-width="1px"></line><line x1="30.78125" y1="0" x2="25.78125" y2="0" style="visibility: inherit;" fill="rgb(0, 0, 0)" stroke="rgb(204, 204, 204)" stroke-width="1px"></line></g><g transform="translate(20.78125, 0)"><text x="0" y="378" dx="0em" dy="0.3em" style="text-anchor: end; visibility: hidden; font-family: Roboto, sans-serif; font-size: 12px; font-weight: 200;" fill="rgb(50, 49, 63)" stroke="none" stroke-width="1px">-5</text><text x="0" y="346.5" dx="0em" dy="0.3em" style="text-anchor: end; visibility: inherit; font-family: Roboto, sans-serif; font-size: 12px; font-weight: 200;" fill="rgb(50, 49, 63)" stroke="none" stroke-width="1px">0</text><text x="0" y="315" dx="0em" dy="0.3em" style="text-anchor: end; visibility: inherit; font-family: Roboto, sans-serif; font-size: 12px; font-weight: 200;" fill="rgb(50, 49, 63)" stroke="none" stroke-width="1px">5</text><text x="0" y="283.5" dx="0em" dy="0.3em" style="text-anchor: end; visibility: inherit; font-family: Roboto, sans-serif; font-size: 12px; font-weight: 200;" fill="rgb(50, 49, 63)" stroke="none" stroke-width="1px">10</text><text x="0" y="252.00000000000003" dx="0em" dy="0.3em" style="text-anchor: end; visibility: inherit; font-family: Roboto, sans-serif; font-size: 12px; font-weight: 200;" fill="rgb(50, 49, 63)" stroke="none" stroke-width="1px">15</text><text x="0" y="220.49999999999997" dx="0em" dy="0.3em" style="text-anchor: end; visibility: inherit; font-family: Roboto, sans-serif; font-size: 12px; font-weight: 200;" fill="rgb(50, 49, 63)" stroke="none" stroke-width="1px">20</text><text x="0" y="189" dx="0em" dy="0.3em" style="text-anchor: end; visibility: inherit; font-family: Roboto, sans-serif; font-size: 12px; font-weight: 200;" fill="rgb(50, 49, 63)" stroke="none" stroke-width="1px">25</text><text x="0" y="157.5" dx="0em" dy="0.3em" style="text-anchor: end; visibility: inherit; font-family: Roboto, sans-serif; font-size: 12px; font-weight: 200;" fill="rgb(50, 49, 63)" stroke="none" stroke-width="1px">30</text><text x="0" y="126.00000000000001" dx="0em" dy="0.3em" style="text-anchor: end; visibility: inherit; font-family: Roboto, sans-serif; font-size: 12px; font-weight: 200;" fill="rgb(50, 49, 63)" stroke="none" stroke-width="1px">35</text><text x="0" y="94.5" dx="0em" dy="0.3em" style="text-anchor: end; visibility: inherit; font-family: Roboto, sans-serif; font-size: 12px; font-weight: 200;" fill="rgb(50, 49, 63)" stroke="none" stroke-width="1px">40</text><text x="0" y="62.999999999999986" dx="0em" dy="0.3em" style="text-anchor: end; visibility: inherit; font-family: Roboto, sans-serif; font-size: 12px; font-weight: 200;" fill="rgb(50, 49, 63)" stroke="none" stroke-width="1px">45</text><text x="0" y="31.500000000000014" dx="0em" dy="0.3em" style="text-anchor: end; visibility: inherit; font-family: Roboto, sans-serif; font-size: 12px; font-weight: 200;" fill="rgb(50, 49, 63)" stroke="none" stroke-width="1px">50</text><text x="0" y="0" dx="0em" dy="0.3em" style="text-anchor: end; visibility: hidden; font-family: Roboto, sans-serif; font-size: 12px; font-weight: 200;" fill="rgb(50, 49, 63)" stroke="none" stroke-width="1px">55</text></g><line x1="30.78125" y1="0" x2="30.78125" y2="378" fill="rgb(0, 0, 0)" stroke="rgb(204, 204, 204)" stroke-width="1px"></line></g></g><g transform="translate(30, 0)" clip-path="url(#clip_0)"><clipPath id="clip_0"><rect width="1467" height="378"></rect></clipPath><g><g><g><line x1="0" y1="0" x2="0" y2="378" fill="rgb(0, 0, 0)" stroke="rgb(60, 60, 60)" stroke-width="1px" opacity="0.25"></line><line x1="104.80133928571428" y1="0" x2="104.80133928571428" y2="378" fill="rgb(0, 0, 0)" stroke="rgb(60, 60, 60)" stroke-width="1px" opacity="0.25"></line><line x1="209.60267857142856" y1="0" x2="209.60267857142856" y2="378" fill="rgb(0, 0, 0)" stroke="rgb(60, 60, 60)" stroke-width="1px" opacity="0.25"></line><line x1="314.40401785714283" y1="0" x2="314.40401785714283" y2="378" fill="rgb(0, 0, 0)" stroke="rgb(60, 60, 60)" stroke-width="1px" opacity="0.25"></line><line x1="419.2053571428571" y1="0" x2="419.2053571428571" y2="378" fill="rgb(0, 0, 0)" stroke="rgb(60, 60, 60)" stroke-width="1px" opacity="0.25"></line><line x1="524.0066964285714" y1="0" x2="524.0066964285714" y2="378" fill="rgb(0, 0, 0)" stroke="rgb(60, 60, 60)" stroke-width="1px" opacity="0.25"></line><line x1="628.8080357142857" y1="0" x2="628.8080357142857" y2="378" fill="rgb(0, 0, 0)" stroke="rgb(60, 60, 60)" stroke-width="1px" opacity="0.25"></line><line x1="733.609375" y1="0" x2="733.609375" y2="378" fill="rgb(0, 0, 0)" stroke="rgb(60, 60, 60)" stroke-width="1px" opacity="0.25"></line><line x1="838.4107142857142" y1="0" x2="838.4107142857142" y2="378" fill="rgb(0, 0, 0)" stroke="rgb(60, 60, 60)" stroke-width="1px" opacity="0.25"></line><line x1="943.2120535714287" y1="0" x2="943.2120535714287" y2="378" fill="rgb(0, 0, 0)" stroke="rgb(60, 60, 60)" stroke-width="1px" opacity="0.25"></line><line x1="1048.013392857143" y1="0" x2="1048.013392857143" y2="378" fill="rgb(0, 0, 0)" stroke="rgb(60, 60, 60)" stroke-width="1px" opacity="0.25"></line><line x1="1152.814732142857" y1="0" x2="1152.814732142857" y2="378" fill="rgb(0, 0, 0)" stroke="rgb(60, 60, 60)" stroke-width="1px" opacity="0.25"></line><line x1="1257.6160714285713" y1="0" x2="1257.6160714285713" y2="378" fill="rgb(0, 0, 0)" stroke="rgb(60, 60, 60)" stroke-width="1px" opacity="0.25"></line><line x1="1362.4174107142858" y1="0" x2="1362.4174107142858" y2="378" fill="rgb(0, 0, 0)" stroke="rgb(60, 60, 60)" stroke-width="1px" opacity="0.25"></line><line x1="1467.21875" y1="0" x2="1467.21875" y2="378" fill="rgb(0, 0, 0)" stroke="rgb(60, 60, 60)" stroke-width="1px" opacity="0.25"></line></g><g><line x1="0" y1="378" x2="1467.21875" y2="378" fill="rgb(0, 0, 0)" stroke="rgb(60, 60, 60)" stroke-width="1px" opacity="0.25"></line><line x1="0" y1="346.5" x2="1467.21875" y2="346.5" fill="rgb(0, 0, 0)" stroke="rgb(60, 60, 60)" stroke-width="1px" opacity="0.25"></line><line x1="0" y1="315" x2="1467.21875" y2="315" fill="rgb(0, 0, 0)" stroke="rgb(60, 60, 60)" stroke-width="1px" opacity="0.25"></line><line x1="0" y1="283.5" x2="1467.21875" y2="283.5" fill="rgb(0, 0, 0)" stroke="rgb(60, 60, 60)" stroke-width="1px" opacity="0.25"></line><line x1="0" y1="252.00000000000003" x2="1467.21875" y2="252.00000000000003" fill="rgb(0, 0, 0)" stroke="rgb(60, 60, 60)" stroke-width="1px" opacity="0.25"></line><line x1="0" y1="220.49999999999997" x2="1467.21875" y2="220.49999999999997" fill="rgb(0, 0, 0)" stroke="rgb(60, 60, 60)" stroke-width="1px" opacity="0.25"></line><line x1="0" y1="189" x2="1467.21875" y2="189" fill="rgb(0, 0, 0)" stroke="rgb(60, 60, 60)" stroke-width="1px" opacity="0.25"></line><line x1="0" y1="157.5" x2="1467.21875" y2="157.5" fill="rgb(0, 0, 0)" stroke="rgb(60, 60, 60)" stroke-width="1px" opacity="0.25"></line><line x1="0" y1="126.00000000000001" x2="1467.21875" y2="126.00000000000001" fill="rgb(0, 0, 0)" stroke="rgb(60, 60, 60)" stroke-width="1px" opacity="0.25"></line><line x1="0" y1="94.5" x2="1467.21875" y2="94.5" fill="rgb(0, 0, 0)" stroke="rgb(60, 60, 60)" stroke-width="1px" opacity="0.25"></line><line x1="0" y1="62.999999999999986" x2="1467.21875" y2="62.999999999999986" fill="rgb(0, 0, 0)" stroke="rgb(60, 60, 60)" stroke-width="1px" opacity="0.25"></line><line x1="0" y1="31.500000000000014" x2="1467.21875" y2="31.500000000000014" fill="rgb(0, 0, 0)" stroke="rgb(60, 60, 60)" stroke-width="1px" opacity="0.25"></line><line x1="0" y1="0" x2="1467.21875" y2="0" fill="rgb(0, 0, 0)" stroke="rgb(60, 60, 60)" stroke-width="1px" opacity="0.25"></line></g></g></g><g><g><line x1="0" y1="346.5" x2="1467.21875" y2="346.5" fill="rgb(0, 0, 0)" stroke="rgb(153, 153, 153)" stroke-width="1.5px"></line></g></g><g><g><line x1="104.80133928571428" y1="0" x2="104.80133928571428" y2="378" fill="rgb(0, 0, 0)" stroke="rgb(153, 153, 153)" stroke-width="1.5px"></line></g></g><g><g><g><g><g><path stroke="rgb(187, 187, 187)" stroke-width="2px" d="M104.80133928571428,327.6L106.20352298239087,296.1L107.61368322544642,286.45714285714286L108.91752833209324,276.41249999999997L110.1591913107639,265.8241498959057L111.43078089409724,260.0238721804511L112.71494663814484,251.53673786510046L113.90595563616073,246.59910952341275L115.10476651165673,243.69015010535614L116.30578985987103,138.0151135271593L117.54221277157738,75.0205256058778L118.9026506014385,37.370359146229845L120.20410856646825,14.83277984502641L121.52390676587301,1.3290858500946228L122.91793924727182,106.68698921422501L124.33200042906746,169.87001815542794L125.76288804811509,212.80927907572084L126.99121796750991,241.08843947573735L128.2881927641369,247.97348323228977L129.72606713913692,252.1042409664214L131.14065232762897,254.58259894746953L132.49072646949404,256.0695789403657L133.88732076140874,259.4817743113575L135.18342221354166,251.4490265245923L136.5606282576885,244.10939504797167L137.99739639632935,239.70562951676368L139.3651703199405,232.02336984733944L140.65242188120038,227.41401907782796L141.88826256324404,224.6484104276902L143.1791239484127,222.98904588977192L144.54631564236112,221.99342740179998L145.96817870163693,226.43605679465384L147.31749594494048,229.10163420407883L148.6524321155754,230.7009805682705L149.97857661830355,231.66058835745866L151.24521724950398,234.75635304640622L152.45351846850198,236.6138118393389L153.7297658891369,237.72828710774158L155.0452555890377,248.47697228859215L156.39410704861112,254.92618338177624L157.8902626128472,253.755710028127L163.87063459325395,253.05342601653822L175.51441272569443,252.63205560980126L187.15952998635913,252.37923336583694L198.80441435515874,252.22754001948644L210.44865827132935,242.0565240110575L222.09249462673608,235.95391440640617L233.73784477926588,222.21234864353514L245.3824380332341,213.96740918600997L257.0284868613591,209.02044551156604L268.6716245411706,206.05226730692522L280.3168000248016,204.27136038414994L291.9605199342758,215.8028162305101L303.6052296341766,230.28168973832123L315.25133668526786,236.44901384299658L326.89464903397817,240.14940830579937L338.5391258420139,242.3696449834801L350.1838355419147,243.70178699008824L361.8281376810516,244.501072194053L366.5524656101191,252.5406433164322L371.0871613380457,257.36438598985944L382.7322785987103,245.13863159391548L394.3763478459821,237.8031789563492L406.0208246540178,233.4019073738095L417.66652414434526,230.76114442428567L429.3101858308532,229.17668665457143L440.9548373077877,233.26601199274288L452.59948878472215,235.71960719564572L464.244431376488,237.19176431738742L475.88954863715287,245.63505859043246L487.5337925533234,250.70103515425947L499.1777453546627,251.2206210925557L510.8221057167659,251.5323726555334L522.467514092262,251.71942359332004L534.1123984610615,251.83165415599203L545.7566423772321,251.89899249359522L557.4000129489086,251.93939549615715L569.0455959933036,254.48363729769426L580.6898399094742,248.45018237861655L592.3355393998016,244.83010942716996L603.9789681944444,242.65806565630194L615.6242019010417,241.3548393937812L627.2677471416171,240.57290363626868L638.9126315104166,242.62374218176123L650.5586221155754,243.85424530905672L662.2026913628473,244.59254718543403L673.8464694952877,245.0355283112604L685.4909463033234,245.3013169867563L697.1357142261904,245.46079019205374L708.7808897098215,245.55647411523225L720.4252500719246,245.61388446913932L732.0688535354662,245.64833068148363L743.7143783568948,243.14899840889015L755.3587387189981,241.64939904533406L767.0050204389881,240.74963942720046L778.6480416728671,240.20978365632024L790.2928095957342,239.88587019379216L801.9377521875,239.6915221162753L813.5819378807043,239.57491326976515L825.2279284858631,239.5049479618591L836.8707750508433,239.46296877711544L848.5151936359126,244.4777812662693L860.1601944506449,242.44666875976154L871.8046130357143,241.22800125585692L883.4510112016369,240.49680075351418L895.093799543651,240.0580804521085L906.7386839124504,237.27484827126509L918.3836847271824,235.60490896275903L930.0279868663196,234.6029453776554L941.6737445796131,234.00176722659324L953.3168822594247,231.12106033595595L964.9618248511906,229.39263620157357L976.6065927740575,228.35558172094414L988.2507202442956,227.73334903256654L999.8967690724206,227.36000941953986L1011.539673860367,242.25600565172394L1023.1846746750991,251.1936033910344L1034.8288603683036,256.5561620346206L1046.4739776289682,252.2136972207724L1058.1194442274304,237.00821833246346L1069.7626401302084,227.88493099947806L1081.4078738368055,222.4109585996868L1093.0520595300097,219.1265751598121L1104.6965363380457,217.1559450958873L1116.3421193824404,233.61356705753238L1127.985722845982,243.4881402345194L1139.6306072147818,249.41288414071164L1151.2746182390872,152.167730484427L1162.9194443849206,93.82063829065616L1174.5650856522816,58.812382974393685L1186.208863784722,37.80742978463623L1197.8542721602182,25.204457870781695L1209.4986907452876,115.92267472246904L1221.1431675533233,162.79360483348145L1232.7881101450891,190.9161629000889L1244.4318300545633,207.78969774005333L1256.0761321937005,217.91381864403195L1267.7207836706348,223.9882911864192L1279.3654933705357,242.7529747118515L1291.0116586445931,254.0117848271109L1302.6545052095735,260.7670708962665L1314.2992731324405,264.82024253775995L1325.9436917175099,267.25214552265595L1337.5888089781747,261.15128731359357L1349.234100907738,257.49077238815613" style="fill: none;" fill="none"></path></g><g><path stroke="rgb(0, 153, 136)" stroke-width="2px" d="M104.80133928571428,315L109.34476845858136,291.375L113.88691672619046,284.14285714285717L118.60274410218256,263.58088235294116L123.30628643229166,253.09299097848714L127.89122858010914,247.34774436090223L132.42586608506943,238.89193816007793L137.05983197048613,233.97253582736207L141.79266045262898,231.07431409889716L146.42650989211307,229.35418751164156L151.13965901165676,228.32879240372105L156.03993674479165,227.71594139899094L160.69608558035713,227.3490857003918L165.3387849107143,227.12927917068544L169.93589565848214,226.99750554443085L174.65841867559524,226.91848103297528L179.3576525062004,236.95278709259955L183.9460298090278,237.93177168119212L188.4629675322421,230.95863809402832L193.26205375,221.73484561994997L198.07115431795634,216.2007859715766L202.85789726686508,212.880427879827L207.69558531125992,210.88824099499428L212.44331887276783,209.6929389331996L217.55197660218252,219.05578997877498L222.5427328249008,227.19348786869068L227.38525337549603,232.07609771851855L232.08227473338292,235.00566043013865L237.04706351314482,236.76339690573272L241.86780867435516,245.37804004791252L246.45304193700397,253.06682504862147L251.42563259424603,245.080094393536L256.3168275446428,240.28805640729237L261.20051173239085,237.4128337619969L266.06474944940476,235.68770022754188L270.74564304563495,234.65262012584887L275.58373865079363,241.59157211845212L280.4723717906746,238.19494325845895L285.1095399392361,236.1569659505349L289.7659798896329,234.93417956868637L294.68127914806547,234.2005077406234L306.2828456299603,135.48030459686692L320.26043314236114,76.24818274101759L334.2341779389881,40.70890963845364L348.2064671614583,19.385345780855737L362.17438966145835,-16.088792533698978L382.72913455853177,-62.40382751274177L387.45241447420636,35.63770349283046L392.1445451029266,119.66262209594278L397.0427850322421,170.07757325765368L401.6290080853174,200.32654395462384L406.4960987276786,220.99592637278738L411.2037166654266,233.3975558236771L415.8457755431548,240.83853349420795L420.5992149553571,245.30312009652536L425.3130045275298,247.98187205791544L430.03197594370044,249.5891232347493L434.9361546155754,250.55347394084964L439.6263638864088,251.13208436450978L444.68943303323414,233.8392506187057L449.4059590848214,117.6235503712227L454.04481569940475,47.89413022273335L458.64000508928564,6.0564781336399065L463.31577506448406,-19.046113119816077L468.071892733135,-34.107667871889646L472.8512413653274,75.29539927686623L477.5869809957837,145.9772395661198L482.49022810019846,188.38634373967184L487.26468600322426,213.83180624380313L492.15937433159723,224.05908374628183L497.0996512425595,230.1954502477691L502.22659098338283,233.87727014866147L507.39772195560505,236.08636208919688L512.2999792695932,237.4118172535181L517.2309987289186,238.20709035211084L522.0256017782738,236.16425421126652L527.0667208668156,234.93855252675993L532.21502843626,234.20313151605595L537.1141999330357,228.72187890963357L542.0892359548611,225.43312734578015L546.8391819890874,223.45987640746807L551.606944250992,222.27592584448084L556.3900773759921,219.04555550668852L561.1660490761409,217.1073333040131L565.8311060255458,215.94439998240784L570.6171502988591,215.24663998944473L575.4015061061508,214.82798399366683L580.2244637400793,234.73679039620006L585.0145253980654,239.12207423772008L589.8391132750495,241.75324454263202L594.8455896986607,243.3319467255792L599.6498577604167,244.2791680353475L604.6297262884425,249.8875008212085L609.3691339657738,240.65250049272512L613.9542507824901,235.1115002956351L618.8506275768849,231.786900177381L623.5931210714286,229.7921401064286L628.2564895548115,228.5952840638572L632.9850677604167,235.4371704383143L637.6416823797124,239.54230226298858L642.2321557093254,242.00538135779317L646.7747115376984,243.48322881467587L651.8513466356646,246.88993728880553L656.6469394754464,248.93396237328332L661.2236139620536,250.16037742397L665.7616866220237,250.89622645438197L670.541209923115,251.33773587262922L675.4429432304067,251.60264152357752L680.2121610664683,251.7615849141465L685.0154393377976,251.85695094848793L689.9222962661211,236.79417056909273L694.5924186135913,227.75650234145567L699.1878408953372,222.3339014048734L703.7546174776786,219.08034084292402L716.914812766617,229.72820450575443L730.8898384685019,228.55692270345267L744.8844270870536,227.85415362207158L758.8490891009425,227.432492173243L772.8081034871033,227.1794953039458L786.7910475124008,227.0276971823675L795.4075225136409,234.4966183094205L800.0646611396329,241.4979709856523L804.8665420597719,245.69878259139134L809.7154089136906,248.2192695548348L814.4992989372519,249.7315617329009L819.1779218377976,255.67893703974053L823.8966603621031,249.16736222384432L828.592167922867,245.2604173343066L833.4932025545635,242.91625040058398L838.364019466766,241.5097502403504L843.1554202529762,243.18585014421026L847.9409987425596,249.23151008652613L852.6875096217756,257.8989060519157L857.4785028472222,263.0993436311494L862.243004623016,266.2196061786897L866.9849158878968,268.0917637072138L871.8109593390376,269.21505822432823L876.5829136545141,267.369034934597L881.3333836954365,266.2614209607582L886.1629205245536,265.59685257645486L890.9897790972221,265.19811154587296L895.6712549231149,264.9588669275238L900.3170400706847,264.81532015651425L905.012431185516,264.7291920939086L909.7627265575397,262.15751525634516L914.6224228831844,253.0545091538071L919.261337720734,247.59270549228424L924.0173971664186,244.31562329537056L929.0883846366567,242.34937397722234L933.7443588033235,238.6496243863334L938.4559359027777,236.42977463180003L943.1533065984623,235.09786477908L947.8378682415673,226.738718867448L952.5753545610119,221.72323132046878L957.4078607614088,218.7139387922813L962.1278219680061,216.90836327536877L966.9699349578373,215.82501796522126L971.6278887053573,225.25501077913276L976.2559740711806,230.91300646747965L981.2521450297618,229.2678038804878L986.0641567460317,228.28068232829267L990.7947727554564,217.60840939697562L995.471881858879,211.20504563818534L1000.4856361532737,207.36302738291124L1005.4257383953372,205.05781642974674L1010.0585398214287,203.67468985784805L1014.6547190017362,202.84481391470882L1019.3767180121528,217.46688834882528L1024.2206359139384,226.24013300929522L1029.1028063045635,231.5040798055771L1033.9538856312004,237.18244788334627L1038.6470060503473,233.02946873000775L1043.560151059028,230.5376812380047L1048.622288638393,229.04260874280283L1053.4027435069445,228.14556524568167L1058.2279718365576,227.607339147409L1063.0564606522817,234.8444034884454L1067.7011977864581,239.18664209306726L1072.451434935516,241.79198525584033L1077.212385110367,243.35519115350417L1082.0577003633432,244.29311469210253L1086.9209482899305,237.29586881526154L1091.556835533234,233.09752128915693L1096.272371794395,230.57851277349414L1101.0203964707339,229.0671076640965L1105.895172544643,147.5202645984579L1110.679411906002,98.59215875907474L1115.3215290066967,69.23529525544485L1120.0263522420635,51.6211771532669L1124.8880281485613,41.05270629196013L1129.4941052331349,112.83162377517608L1134.393334952877,150.85897426510564L1139.4952970411707,173.6753845590634L1144.4111785292657,187.36523073543802L1149.1678784275794,195.57913844126278L1153.886209391121,208.06748306475768L1158.5489956448414,215.5604898388546L1163.278097857143,215.0162939033128L1168.0689746366568,214.68977634198765L1172.7424156932045,214.4938658051926L1177.3376050830852,113.57631948311553L1182.0201289223712,53.02579168986932L1186.7421279327875,16.695475013921612L1191.5369638740078,-5.10271499164708L1196.4440536941963,-18.181628994988262L1201.2070998958334,84.85102260300708L1206.0525898177084,146.67061356180426L1211.0055011123513,183.76236813708258L1215.8511074801588,200.9774208822495L1220.6865830518354,211.30645252934974L1225.3684082155257,217.5038715176098L1230.1156177703374,221.2223229105659L1234.9627379352678,223.45339374633954L1239.7557107415676,234.87203624780372L1244.3807102901787,241.72322174868222L1249.0549082452876,248.35393304920933L1253.747504657738,247.2923598295256L1258.4408579687502,246.65541589771533L1263.4585132018851,147.99324953862921L1268.3438276326885,88.79594972317751L1273.2106271602183,53.2775698339065L1278.2011504910713,31.966541900343863L1283.0556649727184,19.179925140206336L1287.778770219494,104.74795508412382L1292.503389263393,156.08877305047432L1297.189697595486,186.89326383028458L1301.8860202777778,205.37595829817073L1306.7568954129465,208.90557497890242L1311.4337716245038,211.02334498734146L1316.2022907849703,209.77400699240488L1320.988160389385,209.0244041954429L1325.8193856845237,208.57464251726574L1330.6022859176587,208.30478551035947L1335.2009104625495,208.14287130621568L1339.8893148214286,213.08572278372938L1344.5891891046629,223.61143367023766L1349.3601536297124,229.92686020214262" style="fill: none;" fill="none"></path></g></g></g></g><g opacity="0.2"><g><g><g><path stroke="rgb(187, 187, 187)" stroke-width="2px" d="M104.80133928571428,327.6L106.20352298239087,277.20000000000005L107.61368322544642,277.20000000000005L108.91752833209324,264.59999999999997L110.1591913107639,252.00000000000003L111.43078089409724,252.00000000000003L112.71494663814484,239.39999999999998L113.90595563616073,239.39999999999998L115.10476651165673,239.39999999999998L116.30578985987103,-18.900000000000016L121.52390676587301,-18.900000000000016L122.91793924727182,264.59999999999997L124.33200042906746,264.59999999999997L125.76288804811509,277.20000000000005L126.99121796750991,283.5L128.2881927641369,258.3L129.72606713913692,258.3L131.14065232762897,258.3L132.49072646949404,258.3L133.88732076140874,264.59999999999997L135.18342221354166,239.39999999999998L136.5606282576885,233.10000000000002L137.99739639632935,233.10000000000002L139.3651703199405,220.49999999999997L140.65242188120038,220.49999999999997L141.88826256324404,220.49999999999997L143.1791239484127,220.49999999999997L144.54631564236112,220.49999999999997L145.96817870163693,233.10000000000002L147.31749594494048,233.10000000000002L148.6524321155754,233.10000000000002L149.97857661830355,233.10000000000002L151.24521724950398,239.39999999999998L152.45351846850198,239.39999999999998L153.7297658891369,239.39999999999998L155.0452555890377,264.59999999999997L156.39410704861112,264.59999999999997L157.8902626128472,252.00000000000003L163.87063459325395,252.00000000000003L175.51441272569443,252.00000000000003L187.15952998635913,252.00000000000003L198.80441435515874,252.00000000000003L210.44865827132935,226.79999999999998L222.09249462673608,226.79999999999998L233.73784477926588,201.6L245.3824380332341,201.6L257.0284868613591,201.6L268.6716245411706,201.6L280.3168000248016,201.6L291.9605199342758,233.10000000000002L303.6052296341766,252.00000000000003L315.25133668526786,245.70000000000002L326.89464903397817,245.70000000000002L338.5391258420139,245.70000000000002L350.1838355419147,245.70000000000002L361.8281376810516,245.70000000000002L366.5524656101191,264.59999999999997L371.0871613380457,264.59999999999997L382.7322785987103,226.79999999999998L394.3763478459821,226.79999999999998L406.0208246540178,226.79999999999998L417.66652414434526,226.79999999999998L429.3101858308532,226.79999999999998L440.9548373077877,239.39999999999998L452.59948878472215,239.39999999999998L464.244431376488,239.39999999999998L475.88954863715287,258.3L487.5337925533234,258.3L499.1777453546627,252.00000000000003L510.8221057167659,252.00000000000003L522.467514092262,252.00000000000003L534.1123984610615,252.00000000000003L545.7566423772321,252.00000000000003L557.4000129489086,252.00000000000003L569.0455959933036,258.3L580.6898399094742,239.39999999999998L592.3355393998016,239.39999999999998L603.9789681944444,239.39999999999998L615.6242019010417,239.39999999999998L627.2677471416171,239.39999999999998L638.9126315104166,245.70000000000002L650.5586221155754,245.70000000000002L662.2026913628473,245.70000000000002L673.8464694952877,245.70000000000002L685.4909463033234,245.70000000000002L697.1357142261904,245.70000000000002L708.7808897098215,245.70000000000002L720.4252500719246,245.70000000000002L732.0688535354662,245.70000000000002L743.7143783568948,239.39999999999998L755.3587387189981,239.39999999999998L767.0050204389881,239.39999999999998L778.6480416728671,239.39999999999998L790.2928095957342,239.39999999999998L801.9377521875,239.39999999999998L813.5819378807043,239.39999999999998L825.2279284858631,239.39999999999998L836.8707750508433,239.39999999999998L848.5151936359126,252.00000000000003L860.1601944506449,239.39999999999998L871.8046130357143,239.39999999999998L883.4510112016369,239.39999999999998L895.093799543651,239.39999999999998L906.7386839124504,233.10000000000002L918.3836847271824,233.10000000000002L930.0279868663196,233.10000000000002L941.6737445796131,233.10000000000002L953.3168822594247,226.79999999999998L964.9618248511906,226.79999999999998L976.6065927740575,226.79999999999998L988.2507202442956,226.79999999999998L999.8967690724206,226.79999999999998L1011.539673860367,264.59999999999997L1023.1846746750991,264.59999999999997L1034.8288603683036,264.59999999999997L1046.4739776289682,245.70000000000002L1058.1194442274304,214.2L1069.7626401302084,214.2L1081.4078738368055,214.2L1093.0520595300097,214.2L1104.6965363380457,214.2L1116.3421193824404,258.3L1127.985722845982,258.3L1139.6306072147818,258.3L1151.2746182390872,6.300000000000019L1162.9194443849206,6.300000000000019L1174.5650856522816,6.300000000000019L1186.208863784722,6.300000000000019L1197.8542721602182,6.300000000000019L1209.4986907452876,252.00000000000003L1221.1431675533233,233.10000000000002L1232.7881101450891,233.10000000000002L1244.4318300545633,233.10000000000002L1256.0761321937005,233.10000000000002L1267.7207836706348,233.10000000000002L1279.3654933705357,270.9L1291.0116586445931,270.9L1302.6545052095735,270.9L1314.2992731324405,270.9L1325.9436917175099,270.9L1337.5888089781747,252.00000000000003L1349.234100907738,252.00000000000003" style="fill: none;" fill="none"></path></g><g><path stroke="rgb(0, 153, 136)" stroke-width="2px" d="M104.80133928571428,315L109.34476845858136,277.20000000000005L113.88691672619046,277.20000000000005L118.60274410218256,239.39999999999998L123.30628643229166,239.39999999999998L127.89122858010914,239.39999999999998L132.42586608506943,226.79999999999998L137.05983197048613,226.79999999999998L141.79266045262898,226.79999999999998L146.42650989211307,226.79999999999998L151.13965901165676,226.79999999999998L156.03993674479165,226.79999999999998L160.69608558035713,226.79999999999998L165.3387849107143,226.79999999999998L169.93589565848214,226.79999999999998L174.65841867559524,226.79999999999998L179.3576525062004,252.00000000000003L183.9460298090278,239.39999999999998L188.4629675322421,220.49999999999997L193.26205375,207.9L198.07115431795634,207.9L202.85789726686508,207.9L207.69558531125992,207.9L212.44331887276783,207.9L217.55197660218252,233.10000000000002L222.5427328249008,239.39999999999998L227.38525337549603,239.39999999999998L232.08227473338292,239.39999999999998L237.04706351314482,239.39999999999998L241.86780867435516,258.3L246.45304193700397,264.59999999999997L251.42563259424603,233.10000000000002L256.3168275446428,233.10000000000002L261.20051173239085,233.10000000000002L266.06474944940476,233.10000000000002L270.74564304563495,233.10000000000002L275.58373865079363,252.00000000000003L280.4723717906746,233.10000000000002L285.1095399392361,233.10000000000002L289.7659798896329,233.10000000000002L294.68127914806547,233.10000000000002L306.2828456299603,-12.600000000000039L382.72913455853177,-69.30000000000001L387.45241447420636,182.7L392.1445451029266,245.70000000000002L397.0427850322421,245.70000000000002L401.6290080853174,245.70000000000002L406.4960987276786,252.00000000000003L411.2037166654266,252.00000000000003L415.8457755431548,252.00000000000003L420.5992149553571,252.00000000000003L425.3130045275298,252.00000000000003L430.03197594370044,252.00000000000003L434.9361546155754,252.00000000000003L439.6263638864088,252.00000000000003L444.68943303323414,207.9L449.4059590848214,-56.69999999999997L468.071892733135,-56.69999999999997L472.8512413653274,239.39999999999998L477.5869809957837,252.00000000000003L482.49022810019846,252.00000000000003L487.26468600322426,252.00000000000003L492.15937433159723,239.39999999999998L497.0996512425595,239.39999999999998L502.22659098338283,239.39999999999998L507.39772195560505,239.39999999999998L512.2999792695932,239.39999999999998L517.2309987289186,239.39999999999998L522.0256017782738,233.10000000000002L527.0667208668156,233.10000000000002L532.21502843626,233.10000000000002L537.1141999330357,220.49999999999997L542.0892359548611,220.49999999999997L546.8391819890874,220.49999999999997L551.606944250992,220.49999999999997L556.3900773759921,214.2L561.1660490761409,214.2L565.8311060255458,214.2L570.6171502988591,214.2L575.4015061061508,214.2L580.2244637400793,264.59999999999997L585.0145253980654,245.70000000000002L589.8391132750495,245.70000000000002L594.8455896986607,245.70000000000002L599.6498577604167,245.70000000000002L604.6297262884425,258.3L609.3691339657738,226.79999999999998L613.9542507824901,226.79999999999998L618.8506275768849,226.79999999999998L623.5931210714286,226.79999999999998L628.2564895548115,226.79999999999998L632.9850677604167,245.70000000000002L637.6416823797124,245.70000000000002L642.2321557093254,245.70000000000002L646.7747115376984,245.70000000000002L651.8513466356646,252.00000000000003L656.6469394754464,252.00000000000003L661.2236139620536,252.00000000000003L665.7616866220237,252.00000000000003L670.541209923115,252.00000000000003L675.4429432304067,252.00000000000003L680.2121610664683,252.00000000000003L685.0154393377976,252.00000000000003L689.9222962661211,214.2L694.5924186135913,214.2L699.1878408953372,214.2L703.7546174776786,214.2L716.914812766617,245.70000000000002L730.8898384685019,226.79999999999998L744.8844270870536,226.79999999999998L758.8490891009425,226.79999999999998L772.8081034871033,226.79999999999998L786.7910475124008,226.79999999999998L795.4075225136409,245.70000000000002L800.0646611396329,252.00000000000003L804.8665420597719,252.00000000000003L809.7154089136906,252.00000000000003L814.4992989372519,252.00000000000003L819.1779218377976,264.59999999999997L823.8966603621031,239.39999999999998L828.592167922867,239.39999999999998L833.4932025545635,239.39999999999998L838.364019466766,239.39999999999998L843.1554202529762,245.70000000000002L847.9409987425596,258.3L852.6875096217756,270.9L857.4785028472222,270.9L862.243004623016,270.9L866.9849158878968,270.9L871.8109593390376,270.9L876.5829136545141,264.59999999999997L881.3333836954365,264.59999999999997L886.1629205245536,264.59999999999997L890.9897790972221,264.59999999999997L895.6712549231149,264.59999999999997L900.3170400706847,264.59999999999997L905.012431185516,264.59999999999997L909.7627265575397,258.3L914.6224228831844,239.39999999999998L919.261337720734,239.39999999999998L924.0173971664186,239.39999999999998L929.0883846366567,239.39999999999998L933.7443588033235,233.10000000000002L938.4559359027777,233.10000000000002L943.1533065984623,233.10000000000002L947.8378682415673,214.2L952.5753545610119,214.2L957.4078607614088,214.2L962.1278219680061,214.2L966.9699349578373,214.2L971.6278887053573,239.39999999999998L976.2559740711806,239.39999999999998L981.2521450297618,226.79999999999998L986.0641567460317,226.79999999999998L990.7947727554564,201.6L995.471881858879,201.6L1000.4856361532737,201.6L1005.4257383953372,201.6L1010.0585398214287,201.6L1014.6547190017362,201.6L1019.3767180121528,239.39999999999998L1024.2206359139384,239.39999999999998L1029.1028063045635,239.39999999999998L1033.9538856312004,245.70000000000002L1038.6470060503473,226.79999999999998L1043.560151059028,226.79999999999998L1048.622288638393,226.79999999999998L1053.4027435069445,226.79999999999998L1058.2279718365576,226.79999999999998L1063.0564606522817,245.70000000000002L1067.7011977864581,245.70000000000002L1072.451434935516,245.70000000000002L1077.212385110367,245.70000000000002L1082.0577003633432,245.70000000000002L1086.9209482899305,226.79999999999998L1091.556835533234,226.79999999999998L1096.272371794395,226.79999999999998L1101.0203964707339,226.79999999999998L1105.895172544643,25.199999999999996L1110.679411906002,25.199999999999996L1115.3215290066967,25.199999999999996L1120.0263522420635,25.199999999999996L1124.8880281485613,25.199999999999996L1129.4941052331349,220.49999999999997L1134.393334952877,207.9L1139.4952970411707,207.9L1144.4111785292657,207.9L1149.1678784275794,207.9L1153.886209391121,226.79999999999998L1158.5489956448414,226.79999999999998L1163.278097857143,214.2L1168.0689746366568,214.2L1172.7424156932045,214.2L1177.3376050830852,-37.80000000000003L1196.4440536941963,-37.80000000000003L1201.2070998958334,239.39999999999998L1206.0525898177084,239.39999999999998L1211.0055011123513,239.39999999999998L1215.8511074801588,226.79999999999998L1220.6865830518354,226.79999999999998L1225.3684082155257,226.79999999999998L1230.1156177703374,226.79999999999998L1234.9627379352678,226.79999999999998L1239.7557107415676,252.00000000000003L1244.3807102901787,252.00000000000003L1249.0549082452876,258.3L1253.747504657738,245.70000000000002L1258.4408579687502,245.70000000000002L1263.4585132018851,0L1268.3438276326885,0L1273.2106271602183,0L1278.2011504910713,0L1283.0556649727184,0L1287.778770219494,233.10000000000002L1292.503389263393,233.10000000000002L1297.189697595486,233.10000000000002L1301.8860202777778,233.10000000000002L1306.7568954129465,214.2L1311.4337716245038,214.2L1316.2022907849703,207.9L1320.988160389385,207.9L1325.8193856845237,207.9L1330.6022859176587,207.9L1335.2009104625495,207.9L1339.8893148214286,220.49999999999997L1344.5891891046629,239.39999999999998L1349.3601536297124,239.39999999999998" style="fill: none;" fill="none"></path></g></g></g></g></g></g><g transform="translate(30, 378)" clip-path="url(#clip_1)"><clipPath id="clip_1"><rect width="1467" height="22"></rect></clipPath><g><g><line x1="0" y1="0" x2="0" y2="5" style="visibility: inherit;" fill="rgb(0, 0, 0)" stroke="rgb(204, 204, 204)" stroke-width="1px"></line><line x1="104.80133928571428" y1="0" x2="104.80133928571428" y2="5" style="visibility: inherit;" fill="rgb(0, 0, 0)" stroke="rgb(204, 204, 204)" stroke-width="1px"></line><line x1="209.60267857142856" y1="0" x2="209.60267857142856" y2="5" style="visibility: inherit;" fill="rgb(0, 0, 0)" stroke="rgb(204, 204, 204)" stroke-width="1px"></line><line x1="314.40401785714283" y1="0" x2="314.40401785714283" y2="5" style="visibility: inherit;" fill="rgb(0, 0, 0)" stroke="rgb(204, 204, 204)" stroke-width="1px"></line><line x1="419.2053571428571" y1="0" x2="419.2053571428571" y2="5" style="visibility: inherit;" fill="rgb(0, 0, 0)" stroke="rgb(204, 204, 204)" stroke-width="1px"></line><line x1="524.0066964285714" y1="0" x2="524.0066964285714" y2="5" style="visibility: inherit;" fill="rgb(0, 0, 0)" stroke="rgb(204, 204, 204)" stroke-width="1px"></line><line x1="628.8080357142857" y1="0" x2="628.8080357142857" y2="5" style="visibility: inherit;" fill="rgb(0, 0, 0)" stroke="rgb(204, 204, 204)" stroke-width="1px"></line><line x1="733.609375" y1="0" x2="733.609375" y2="5" style="visibility: inherit;" fill="rgb(0, 0, 0)" stroke="rgb(204, 204, 204)" stroke-width="1px"></line><line x1="838.4107142857142" y1="0" x2="838.4107142857142" y2="5" style="visibility: inherit;" fill="rgb(0, 0, 0)" stroke="rgb(204, 204, 204)" stroke-width="1px"></line><line x1="943.2120535714287" y1="0" x2="943.2120535714287" y2="5" style="visibility: inherit;" fill="rgb(0, 0, 0)" stroke="rgb(204, 204, 204)" stroke-width="1px"></line><line x1="1048.013392857143" y1="0" x2="1048.013392857143" y2="5" style="visibility: inherit;" fill="rgb(0, 0, 0)" stroke="rgb(204, 204, 204)" stroke-width="1px"></line><line x1="1152.814732142857" y1="0" x2="1152.814732142857" y2="5" style="visibility: inherit;" fill="rgb(0, 0, 0)" stroke="rgb(204, 204, 204)" stroke-width="1px"></line><line x1="1257.6160714285713" y1="0" x2="1257.6160714285713" y2="5" style="visibility: inherit;" fill="rgb(0, 0, 0)" stroke="rgb(204, 204, 204)" stroke-width="1px"></line><line x1="1362.4174107142858" y1="0" x2="1362.4174107142858" y2="5" style="visibility: inherit;" fill="rgb(0, 0, 0)" stroke="rgb(204, 204, 204)" stroke-width="1px"></line><line x1="1467.21875" y1="0" x2="1467.21875" y2="5" style="visibility: inherit;" fill="rgb(0, 0, 0)" stroke="rgb(204, 204, 204)" stroke-width="1px"></line></g><g transform="translate(0, 8)"><text x="0" y="0" dx="0em" dy="0.95em" style="text-anchor: middle; visibility: hidden; font-family: Roboto, sans-serif; font-size: 12px; font-weight: 200;" fill="rgb(50, 49, 63)" stroke="none" stroke-width="1px">-0.5</text><text x="104.80133928571428" y="0" dx="0em" dy="0.95em" style="text-anchor: middle; visibility: inherit; font-family: Roboto, sans-serif; font-size: 12px; font-weight: 200;" fill="rgb(50, 49, 63)" stroke="none" stroke-width="1px">0</text><text x="209.60267857142856" y="0" dx="0em" dy="0.95em" style="text-anchor: middle; visibility: inherit; font-family: Roboto, sans-serif; font-size: 12px; font-weight: 200;" fill="rgb(50, 49, 63)" stroke="none" stroke-width="1px">0.5</text><text x="314.40401785714283" y="0" dx="0em" dy="0.95em" style="text-anchor: middle; visibility: inherit; font-family: Roboto, sans-serif; font-size: 12px; font-weight: 200;" fill="rgb(50, 49, 63)" stroke="none" stroke-width="1px">1</text><text x="419.2053571428571" y="0" dx="0em" dy="0.95em" style="text-anchor: middle; visibility: inherit; font-family: Roboto, sans-serif; font-size: 12px; font-weight: 200;" fill="rgb(50, 49, 63)" stroke="none" stroke-width="1px">1.5</text><text x="524.0066964285714" y="0" dx="0em" dy="0.95em" style="text-anchor: middle; visibility: inherit; font-family: Roboto, sans-serif; font-size: 12px; font-weight: 200;" fill="rgb(50, 49, 63)" stroke="none" stroke-width="1px">2</text><text x="628.8080357142857" y="0" dx="0em" dy="0.95em" style="text-anchor: middle; visibility: inherit; font-family: Roboto, sans-serif; font-size: 12px; font-weight: 200;" fill="rgb(50, 49, 63)" stroke="none" stroke-width="1px">2.5</text><text x="733.609375" y="0" dx="0em" dy="0.95em" style="text-anchor: middle; visibility: inherit; font-family: Roboto, sans-serif; font-size: 12px; font-weight: 200;" fill="rgb(50, 49, 63)" stroke="none" stroke-width="1px">3</text><text x="838.4107142857142" y="0" dx="0em" dy="0.95em" style="text-anchor: middle; visibility: inherit; font-family: Roboto, sans-serif; font-size: 12px; font-weight: 200;" fill="rgb(50, 49, 63)" stroke="none" stroke-width="1px">3.5</text><text x="943.2120535714287" y="0" dx="0em" dy="0.95em" style="text-anchor: middle; visibility: inherit; font-family: Roboto, sans-serif; font-size: 12px; font-weight: 200;" fill="rgb(50, 49, 63)" stroke="none" stroke-width="1px">4</text><text x="1048.013392857143" y="0" dx="0em" dy="0.95em" style="text-anchor: middle; visibility: inherit; font-family: Roboto, sans-serif; font-size: 12px; font-weight: 200;" fill="rgb(50, 49, 63)" stroke="none" stroke-width="1px">4.5</text><text x="1152.814732142857" y="0" dx="0em" dy="0.95em" style="text-anchor: middle; visibility: inherit; font-family: Roboto, sans-serif; font-size: 12px; font-weight: 200;" fill="rgb(50, 49, 63)" stroke="none" stroke-width="1px">5</text><text x="1257.6160714285713" y="0" dx="0em" dy="0.95em" style="text-anchor: middle; visibility: inherit; font-family: Roboto, sans-serif; font-size: 12px; font-weight: 200;" fill="rgb(50, 49, 63)" stroke="none" stroke-width="1px">5.5</text><text x="1362.4174107142858" y="0" dx="0em" dy="0.95em" style="text-anchor: middle; visibility: inherit; font-family: Roboto, sans-serif; font-size: 12px; font-weight: 200;" fill="rgb(50, 49, 63)" stroke="none" stroke-width="1px">6</text><text x="1467.21875" y="0" dx="0em" dy="0.95em" style="text-anchor: middle; visibility: hidden; font-family: Roboto, sans-serif; font-size: 12px; font-weight: 200;" fill="rgb(50, 49, 63)" stroke="none" stroke-width="1px">6.5</text></g><line x1="0" y1="0" x2="1467.21875" y2="0" fill="rgb(0, 0, 0)" stroke="rgb(204, 204, 204)" stroke-width="1px"></line></g></g></g></g></svg>