<svg viewBox="0 0 1498 400" xmlns="http://www.w3.org/2000/svg"><g><g><g><g><g><line x1="41.171875" y1="378" x2="36.171875" y2="378" style="visibility: inherit;" fill="rgb(0, 0, 0)" stroke="rgb(204, 204, 204)" stroke-width="1px"></line><line x1="41.171875" y1="330.75" x2="36.171875" y2="330.75" style="visibility: inherit;" fill="rgb(0, 0, 0)" stroke="rgb(204, 204, 204)" stroke-width="1px"></line><line x1="41.171875" y1="283.5" x2="36.171875" y2="283.5" style="visibility: inherit;" fill="rgb(0, 0, 0)" stroke="rgb(204, 204, 204)" stroke-width="1px"></line><line x1="41.171875" y1="236.25" x2="36.171875" y2="236.25" style="visibility: inherit;" fill="rgb(0, 0, 0)" stroke="rgb(204, 204, 204)" stroke-width="1px"></line><line x1="41.171875" y1="189" x2="36.171875" y2="189" style="visibility: inherit;" fill="rgb(0, 0, 0)" stroke="rgb(204, 204, 204)" stroke-width="1px"></line><line x1="41.171875" y1="141.75" x2="36.171875" y2="141.75" style="visibility: inherit;" fill="rgb(0, 0, 0)" stroke="rgb(204, 204, 204)" stroke-width="1px"></line><line x1="41.171875" y1="94.5" x2="36.171875" y2="94.5" style="visibility: inherit;" fill="rgb(0, 0, 0)" stroke="rgb(204, 204, 204)" stroke-width="1px"></line><line x1="41.171875" y1="47.25" x2="36.171875" y2="47.25" style="visibility: inherit;" fill="rgb(0, 0, 0)" stroke="rgb(204, 204, 204)" stroke-width="1px"></line><line x1="41.171875" y1="0" x2="36.171875" y2="0" style="visibility: inherit;" fill="rgb(0, 0, 0)" stroke="rgb(204, 204, 204)" stroke-width="1px"></line></g><g transform="translate(31.171875, 0)"><text x="0" y="378" dx="0em" dy="0.3em" style="text-anchor: end; visibility: hidden; font-family: Roboto, sans-serif; font-size: 12px; font-weight: 200;" fill="rgb(50, 49, 63)" stroke="none" stroke-width="1px">6</text><text x="0" y="330.75" dx="0em" dy="0.3em" style="text-anchor: end; visibility: inherit; font-family: Roboto, sans-serif; font-size: 12px; font-weight: 200;" fill="rgb(50, 49, 63)" stroke="none" stroke-width="1px">6.5</text><text x="0" y="283.5" dx="0em" dy="0.3em" style="text-anchor: end; visibility: inherit; font-family: Roboto, sans-serif; font-size: 12px; font-weight: 200;" fill="rgb(50, 49, 63)" stroke="none" stroke-width="1px">7</text><text x="0" y="236.25" dx="0em" dy="0.3em" style="text-anchor: end; visibility: inherit; font-family: Roboto, sans-serif; font-size: 12px; font-weight: 200;" fill="rgb(50, 49, 63)" stroke="none" stroke-width="1px">7.5</text><text x="0" y="189" dx="0em" dy="0.3em" style="text-anchor: end; visibility: inherit; font-family: Roboto, sans-serif; font-size: 12px; font-weight: 200;" fill="rgb(50, 49, 63)" stroke="none" stroke-width="1px">8</text><text x="0" y="141.75" dx="0em" dy="0.3em" style="text-anchor: end; visibility: inherit; font-family: Roboto, sans-serif; font-size: 12px; font-weight: 200;" fill="rgb(50, 49, 63)" stroke="none" stroke-width="1px">8.5</text><text x="0" y="94.5" dx="0em" dy="0.3em" style="text-anchor: end; visibility: inherit; font-family: Roboto, sans-serif; font-size: 12px; font-weight: 200;" fill="rgb(50, 49, 63)" stroke="none" stroke-width="1px">9</text><text x="0" y="47.25" dx="0em" dy="0.3em" style="text-anchor: end; visibility: inherit; font-family: Roboto, sans-serif; font-size: 12px; font-weight: 200;" fill="rgb(50, 49, 63)" stroke="none" stroke-width="1px">9.5</text><text x="0" y="0" dx="0em" dy="0.3em" style="text-anchor: end; visibility: hidden; font-family: Roboto, sans-serif; font-size: 12px; font-weight: 200;" fill="rgb(50, 49, 63)" stroke="none" stroke-width="1px">10</text></g><line x1="41.171875" y1="0" x2="41.171875" y2="378" fill="rgb(0, 0, 0)" stroke="rgb(204, 204, 204)" stroke-width="1px"></line></g></g><g transform="translate(41, 0)" clip-path="url(#clip_0)"><clipPath id="clip_0"><rect width="1456" height="378"></rect></clipPath><g><g><g><line x1="0" y1="0" x2="0" y2="378" fill="rgb(0, 0, 0)" stroke="rgb(60, 60, 60)" stroke-width="1px" opacity="0.25"></line><line x1="104.05915178571428" y1="0" x2="104.05915178571428" y2="378" fill="rgb(0, 0, 0)" stroke="rgb(60, 60, 60)" stroke-width="1px" opacity="0.25"></line><line x1="208.11830357142856" y1="0" x2="208.11830357142856" y2="378" fill="rgb(0, 0, 0)" stroke="rgb(60, 60, 60)" stroke-width="1px" opacity="0.25"></line><line x1="312.17745535714283" y1="0" x2="312.17745535714283" y2="378" fill="rgb(0, 0, 0)" stroke="rgb(60, 60, 60)" stroke-width="1px" opacity="0.25"></line><line x1="416.2366071428571" y1="0" x2="416.2366071428571" y2="378" fill="rgb(0, 0, 0)" stroke="rgb(60, 60, 60)" stroke-width="1px" opacity="0.25"></line><line x1="520.2957589285714" y1="0" x2="520.2957589285714" y2="378" fill="rgb(0, 0, 0)" stroke="rgb(60, 60, 60)" stroke-width="1px" opacity="0.25"></line><line x1="624.3549107142857" y1="0" x2="624.3549107142857" y2="378" fill="rgb(0, 0, 0)" stroke="rgb(60, 60, 60)" stroke-width="1px" opacity="0.25"></line><line x1="728.4140625" y1="0" x2="728.4140625" y2="378" fill="rgb(0, 0, 0)" stroke="rgb(60, 60, 60)" stroke-width="1px" opacity="0.25"></line><line x1="832.4732142857142" y1="0" x2="832.4732142857142" y2="378" fill="rgb(0, 0, 0)" stroke="rgb(60, 60, 60)" stroke-width="1px" opacity="0.25"></line><line x1="936.5323660714287" y1="0" x2="936.5323660714287" y2="378" fill="rgb(0, 0, 0)" stroke="rgb(60, 60, 60)" stroke-width="1px" opacity="0.25"></line><line x1="1040.591517857143" y1="0" x2="1040.591517857143" y2="378" fill="rgb(0, 0, 0)" stroke="rgb(60, 60, 60)" stroke-width="1px" opacity="0.25"></line><line x1="1144.650669642857" y1="0" x2="1144.650669642857" y2="378" fill="rgb(0, 0, 0)" stroke="rgb(60, 60, 60)" stroke-width="1px" opacity="0.25"></line><line x1="1248.7098214285713" y1="0" x2="1248.7098214285713" y2="378" fill="rgb(0, 0, 0)" stroke="rgb(60, 60, 60)" stroke-width="1px" opacity="0.25"></line><line x1="1352.7689732142858" y1="0" x2="1352.7689732142858" y2="378" fill="rgb(0, 0, 0)" stroke="rgb(60, 60, 60)" stroke-width="1px" opacity="0.25"></line><line x1="1456.828125" y1="0" x2="1456.828125" y2="378" fill="rgb(0, 0, 0)" stroke="rgb(60, 60, 60)" stroke-width="1px" opacity="0.25"></line></g><g><line x1="0" y1="378" x2="1456.828125" y2="378" fill="rgb(0, 0, 0)" stroke="rgb(60, 60, 60)" stroke-width="1px" opacity="0.25"></line><line x1="0" y1="330.75" x2="1456.828125" y2="330.75" fill="rgb(0, 0, 0)" stroke="rgb(60, 60, 60)" stroke-width="1px" opacity="0.25"></line><line x1="0" y1="283.5" x2="1456.828125" y2="283.5" fill="rgb(0, 0, 0)" stroke="rgb(60, 60, 60)" stroke-width="1px" opacity="0.25"></line><line x1="0" y1="236.25" x2="1456.828125" y2="236.25" fill="rgb(0, 0, 0)" stroke="rgb(60, 60, 60)" stroke-width="1px" opacity="0.25"></line><line x1="0" y1="189" x2="1456.828125" y2="189" fill="rgb(0, 0, 0)" stroke="rgb(60, 60, 60)" stroke-width="1px" opacity="0.25"></line><line x1="0" y1="141.75" x2="1456.828125" y2="141.75" fill="rgb(0, 0, 0)" stroke="rgb(60, 60, 60)" stroke-width="1px" opacity="0.25"></line><line x1="0" y1="94.5" x2="1456.828125" y2="94.5" fill="rgb(0, 0, 0)" stroke="rgb(60, 60, 60)" stroke-width="1px" opacity="0.25"></line><line x1="0" y1="47.25" x2="1456.828125" y2="47.25" fill="rgb(0, 0, 0)" stroke="rgb(60, 60, 60)" stroke-width="1px" opacity="0.25"></line><line x1="0" y1="0" x2="1456.828125" y2="0" fill="rgb(0, 0, 0)" stroke="rgb(60, 60, 60)" stroke-width="1px" opacity="0.25"></line></g></g></g><g><g><line x1="0" y1="945" x2="1456.828125" y2="945" fill="rgb(0, 0, 0)" stroke="rgb(153, 153, 153)" stroke-width="1.5px"></line></g></g><g><g><line x1="104.05915178571428" y1="0" x2="104.05915178571428" y2="378" fill="rgb(0, 0, 0)" stroke="rgb(153, 153, 153)" stroke-width="1.5px"></line></g></g><g><g><g><g><g><path stroke="rgb(204, 51, 17)" stroke-width="2px" d="M145.6593991908482,472.5L159.53354808779764,376.0714285714285L173.37462929873513,275.62501380548764L187.24658139136903,208.77689328150657L201.10332928571427,195.52275069226002L214.9625630375744,203.44450802340137L228.8124892764137,215.50934901534578L242.6851350967262,219.64730850428114L256.54899369977676,221.14288775962837L270.3988621279762,224.93147971880217L284.2680393098958,219.26963738298093L298.1175030636161,203.3609902129432L311.98997545200893,201.8153849298217L325.83955482700895,191.01416680687214L339.7123162686012,187.4416412145759L353.5897603720238,192.36127691993937L367.4520580877976,197.31726347359512L381.3185759802828,208.25517349925113L395.19752316034226,213.15328919056904L409.0728860807291,218.61209686882506L422.9414273456102,227.62254229524768L436.8241322172618,238.63360512506193L450.70920732514884,247.7602147318013L464.5763611346726,250.7161300330553L478.44617423363104,258.7896965983811L492.3341976841518,259.22381840334805L506.21765409412205,263.89429871664237L520.0945200911459,266.0665764254864L533.9648534858632,269.88994069238964L547.8517785342262,270.923959746072L561.7081795647322,273.43437845069815L575.5770098828125,281.24062383829346L589.4535868266369,296.00437953249366L603.3096988039434,305.4926230760872L617.1818821391369,309.9255702864868L631.046492280506,320.7753398357782L644.9196583965775,334.21520395137173L658.7790655803572,335.34911997009004L672.6527519921875,336.0294695797042L686.5338959765625,337.0676877568035L700.4005294903274,338.95061746150674L714.2494729482887,344.4903620670961L728.1117706640624,337.73421844071686L741.9943021037947,330.5305262571628L755.8642886346726,323.0583229636096L769.7356048102679,318.57500098777587L783.6092912220981,310.8449945843438L797.4597377566964,306.20699074239565L811.3303023939732,299.64419204212504L825.1905767373513,296.33652123340727L839.0613726171877,287.42191634490723L852.9246531138393,283.3331522101964L866.786488344494,278.9898865195948L880.6671120331101,279.5339331133868L894.5255364360119,277.9703538598833L908.4006103031994,273.8822183240773L922.2496115718006,263.23933580096343L936.1322008221726,263.1536002789484L949.9871565866816,258.0621637722577L963.8518245386906,260.6773054731325L977.725453139881,259.7263748724721L991.5938787834821,254.7458297300017L1005.4773351934523,253.64749182985284L1019.3479576413689,252.35849870280063L1033.2254017447917,249.6950956167915L1047.089780643601,249.98706097496384L1060.9892506008187,249.5322317784598L1074.8644978999255,243.58933065566845L1088.7256394029018,243.17359599014176L1102.6014069977678,239.14415879571467L1116.4764230543153,234.20649888231773L1130.3428831361607,231.24390293427953L1144.2012497284227,229.46634536545668L1158.0850530022321,227.13981202579254L1171.957525390625,223.8538848122163L1185.8216152362352,220.62232968570015L1199.7153041294641,223.09340141630904L1213.587314032738,214.49603604326686L1227.4761468322172,204.29762162596015L1241.360296969866,189.988589798391L1255.2391863392859,183.29314186273822L1269.1148383128718,181.1658803111244L1283.0077178571428,185.55952698504498L1296.9363821875002,192.60571979591597L1310.8182198995537,206.28343548243853L1324.7106947693453,220.79005888620387" style="fill: none;" fill="none"></path></g><g><path stroke="rgb(187, 187, 187)" stroke-width="2px" d="M105.45134761532738,245.6999909877777L106.85152131324405,216.8249997496604L108.14613278273808,221.91429018974304L109.37900248883929,211.79919483030542L110.6415868638393,191.33325609542038L111.91671614769345,165.31221466180986L113.09923278645833,156.09016358257432L114.28955386160713,154.57143545642418L115.48207174107142,124.26904869822972L116.70973848958333,102.14767937086394L118.06054190104166,87.06388646919726L119.3527831343006,80.57420525809165L120.66323471912202,82.99770042403244L122.04739486979167,81.92779625251447L123.45144188058036,91.37112266831245L124.87225397693453,110.26798779151457L126.09182723586308,123.49302161830873L127.37961704985119,131.42660909274832L128.80736642299107,173.98856742144264L130.2118759188988,211.4945177379817L131.55238903645835,234.6272144987272L132.93915066592263,243.4664462443402L134.2260733203125,243.72987583513546L135.59346838541666,238.8478951586173L137.02006154575895,239.06873652139902L138.37814909784225,235.42123809413295L139.65628453497024,229.45274275593044L140.88337317708334,222.72164152002784L142.1651506845238,221.20298194919744L143.52266013020835,217.14177986028517L144.93439595610118,210.92506228504007L146.27415753534225,208.45503116629448L147.59963988653274,223.35301580629576L148.9163928311012,234.81180380393715L150.1741211123512,246.72708969697234L151.37380751116072,246.3162502090569L152.6410167373512,247.9597537404941L153.94724814546132,249.5758462421491L155.28648942894344,251.80550054047922L156.77204944196427,243.69329310366558L162.71006931733632,237.56596984913676L174.27138794456846,231.99958671332192L185.83403621651786,219.83974721796352L197.3964532459077,203.72383390843046L208.9582921688988,188.3843003434638L220.51961079613096,181.07058741539993L232.08254812127979,162.19236446483004L243.64461828683037,142.67541146868194L255.20819152901788,124.03523726792086L266.7688742392113,109.07115437692778L278.33158032180063,88.75269743257671L289.89284113839284,83.49162566930869L301.4550847358631,79.70499222439344L313.0187157886905,83.73298812486263L324.5795719308036,84.25977845536211L336.1415842857143,100.95585505692716L347.70382788318454,112.23351784067744L359.2657246168155,124.04011070440801L363.95659555803576,142.4640736324241L368.45917724516374,162.3384429778259L380.02176770647327,157.88308020625124L391.5833753869048,153.3198553335285L403.1453877418155,161.29190118382073L414.7086141201637,173.00514912170004L426.2698171261161,178.14307265020523L437.8320029129464,173.66583397708587L449.39418869977675,164.67951480580723L460.9566635398065,155.50770888348424L472.5193696223959,144.3346397496463L484.0810929241071,147.71078865630625L495.6425849832589,145.9564635807467L507.2044817168898,144.2738781484478L518.7674190420387,149.56433890536502L530.3298938820685,147.69862016603412L541.8916749944196,153.50915527680567L553.4525311365327,164.5555051823798L565.0156418936012,168.03329109313145L576.5774808165924,169.48997225261962L588.1406493843006,176.0339665287567L599.7016211476935,169.25038232051324L611.2644428515625,167.7002293923079L622.8255302362352,164.25014003864396L634.387947265625,163.4400672003714L645.9514048865327,164.84403070718574L657.5130125669643,159.38643284386703L669.0743311941965,157.37185489980163L680.6363435491072,162.46312014965878L692.1987027678572,162.36785526698046L703.7614088504465,156.01072036996615L715.3232477734375,149.04641539916472L726.8843929687499,139.8278372232024L738.4474459151786,125.476716753477L750.0093426488096,121.90603966512327L761.5731471335566,115.35362860559256L773.1337142224703,101.34219158291113L784.6960734412203,86.00532696604303L796.25854828125,79.32320579266299L807.8202137723214,86.02391386256065L819.383729203869,83.11433630123997L830.9441228608631,81.36858976444756L842.506077405134,89.1411514554093L854.0686100558036,91.91468126020847L865.6305646000743,80.34882077242143L877.1944847061012,93.56928525367496L888.7548205524554,109.6915831685013L900.3172375818451,110.5449523043601L911.8797702325149,113.57697138261608L923.4416091555058,123.58616600675464L935.0048933444942,121.40169960405292L946.5655760546875,109.38100293961685L958.1280508947173,107.83860657028869L969.6903523028274,120.77317355521029L981.2520177938987,121.60391134290404L992.8156488467262,126.51235882203888L1004.3760425037201,130.71740808344555L1015.9385751543897,137.65044244680792L1027.500298456101,136.770267871344L1039.0629467280505,131.20216793258427L1050.6259418638392,131.01129595303206L1062.1867401953125,149.16678237833773L1073.7495040885417,148.7200670237433L1085.311169579613,152.8620426175052L1096.8731819345237,152.82723037702166L1108.4363505022322,150.91633582295378L1119.997437886905,145.35979428399446L1131.5598549162949,142.02586936061883L1143.1214047860865,149.47551440659345L1154.6837640048361,144.49530143417817L1166.2469325725447,142.13716403769203L1177.8082511997766,140.09229121283747L1189.3712463355653,138.23537713096175L1200.9331430691966,133.3412142622807L1212.4951554241072,119.06474538018347L1224.057630264137,115.53885924440632L1235.618891080729,112.16331074012531L1247.1807300037203,110.13798163755656L1258.7429736011904,117.11280340208967L1270.305159388021,128.22769886406877L1281.868848251488,135.5266265282191L1293.4292997191221,138.01597591693147L1304.9915433165922,140.1395759371218L1316.553497860863,147.08375757856948L1328.1161461328127,143.69023772432666L1339.6789678366815,150.47413542481823" style="fill: none;" fill="none"></path></g><g><path stroke="rgb(0, 153, 136)" stroke-width="2px" d="M108.57040506882441,283.5L113.08032870721725,313.03125L117.76275929501489,316.04464285714283L122.43299183779762,295.1664286089295L126.98546410714286,282.7872608014068L131.48804579427082,260.42921161315496L136.08913681175594,251.974706637228L140.78844810639882,241.5726147915097L145.38948131324406,229.31415800311365L150.06925261160714,220.0049261551174L154.9348851171875,209.48683300858414L159.55800198846728,194.96046705203352L164.1678802232143,179.32584591138715L168.73237710565476,176.8935895131405L173.42145591703868,169.76280332254865L178.08741047247022,174.3089765352546L182.64335138020834,165.69393248850454L187.12824301153273,147.29448123259326L191.89334281436015,149.48682713880774L196.6684438578869,148.28205944484654L201.42122999441966,143.14912546924805L206.2246582514881,137.5494063836107L210.9388268805803,141.7496745976946L216.01124804501484,136.0797923121081L220.96671828497026,130.78786755194812L225.77488701450895,135.80271947255298L230.43864476562496,159.60165363825243L235.36827364955357,180.81100520749166L240.15487901041664,206.1366184640309L244.70764033296135,217.55196519064648L249.64501584263388,218.731185278953L254.501572077753,215.02871207433418L259.35067074032736,219.10722263283876L264.18046064918155,213.99433583647235L268.8282048530506,210.29659543016848L273.6320377845982,207.44796083360802L278.48605035156254,200.06877645449754L283.09037876488094,193.12126825016034L287.7138425,195.25275734995606L292.5943323400297,183.30165439399792L304.1137382533482,149.04100943173486L317.99233856956846,135.4145888296686L331.86712338355653,128.4987532958044L345.74046293154765,128.12926639697412L359.60946668154764,132.31754301580494L365.9599654724702,119.71052340543743L370.6024489081101,100.80630442951797L375.2679987890625,93.24378746405948L380.0186459319196,88.07628689792172L384.70847628162204,137.26576372774315L389.36737793898806,164.25945222862853L394.2309292615327,186.12566893398153L398.7847311755952,189.795398957136L403.61729599516366,188.21722255146514L408.29157528273805,182.2303215145788L412.90081760044643,186.198191707119L417.62053605096725,190.46892103242064L422.300943266369,201.22135982923172L426.98649562872026,200.11281229265006L431.8560014471726,190.62769218210812L436.5129953534227,189.346624922302L441.54020859747027,178.49795813056613L446.2232751023065,137.338782088117L450.8292800241815,99.41326204309223L455.39192696614583,81.69794520955905L460.03458383370537,73.58875270617966L464.7570193843007,68.09324681718925L469.50252138020835,68.57595770335062L474.20472320684524,72.64556260571402L479.0732462444196,63.11732795039104L483.8138921465774,93.31037994741978L488.6739170200893,112.68622796845176L493.579207624628,126.83173437781169L498.66983914062496,119.56902620713142L503.80434893229165,115.21140130472308L508.67194699962795,116.37684078283398L513.5679879017857,107.6261044697004L518.3286362853422,101.74567229485748L523.3341127287947,105.77740578017384L528.4459029389881,116.38642904854856L533.3103792317709,113.30184300957355L538.2501827883185,113.34109859596636L542.9664904110863,118.40464714128343L547.7004880896577,115.77279068802933L552.4497477771578,112.93365999326194L557.1918967559525,108.71018397966081L561.8239742764138,99.24609596824085L566.5761244959077,91.04764556464806L571.3265403962054,91.79859695182608L576.115342561384,93.5091485580586L580.8715395256696,92.01548192505726L585.661902578125,96.15927713873798L590.6329816908482,106.83557349302069L595.403226640625,120.17135370884955L600.347770669643,133.21281703182828L605.0536723772321,143.5576926223563L609.6063180784971,162.36462398482132L614.4679616499255,175.53877198763362L619.1768695107887,176.5132583860617L623.8072127120536,175.2079430153406L628.5023038299851,166.23477061572285L633.1259988076638,165.89086236943368L637.6839052771578,160.6445222281787L642.1942914006696,148.6767085303888L647.2349745238096,138.97602271497408L651.996605688244,135.04561843550292L656.5409266573661,127.01735423848675L661.0468035509673,122.20039572027704L665.7924789787946,126.24022301261056L670.6594989397321,136.85413861408495L675.3949418843007,138.81248316845105L680.1642618638393,132.42749711084844L685.0363113504463,125.44648144369408L689.6733605859374,125.03788646295723L694.2362965811011,127.3127270712558L698.7706741201637,133.08763624275355L711.8377286737351,131.51258655217063L725.7137853218006,119.8575399150059L739.6092085342262,104.0445383685592L753.4749748883929,98.33671581135769L767.335191421131,88.61204630962962L781.2190525055803,89.70721096296286L789.7745647228422,94.14432417451837L794.398664375,96.17660171448883L799.1665968991815,99.91596583521198L803.9810669884673,102.15958430764582L808.7310782142857,109.17574097155044L813.3765678031995,117.79543977641178L818.061946733631,131.15727828540275L822.7241435974704,141.064352551686L827.5904698307291,150.78861153101164L832.42679234189,157.25315730556974L837.1842611402532,169.321903996379L841.935948874628,174.04315441412382L846.6488456696428,171.20588303543715L851.4059097935269,165.72354183755866L856.1366700762647,161.80411068297963L860.8449998307292,155.67247361956558L865.6368659598213,151.36350099455427L870.3750260044643,149.40810780651034L875.091853922991,142.5648502643505L879.8871886904764,137.8289053520918L884.6798641685267,132.4673408079958L889.3281864787945,133.0304165010939L893.9410708668155,137.7782667234712L898.6032099200148,141.2569672438605L903.3198644066221,139.5641731365385L908.1451450855653,133.50850147866385L912.7512078180802,134.28510329045756L917.4736433686757,141.68106678079315L922.508661049107,145.48865448803159L927.131662299107,135.80320951563397L931.8098727101933,134.4019112898247L936.4739773251488,130.41114437063555L941.1253635993303,114.78666979956643L945.8293575558035,104.1520042829992L950.6276406659227,102.18120977957732L955.314117998512,107.29870904493139L960.1219976748512,106.58923023347738L964.7469066759672,94.82353573682718L969.3422166294644,89.65412624861493L974.3030054482887,89.07247815242827L979.0809970238095,81.7934868914569L983.778053703497,72.3860969413927L988.4220402157738,49.101643745280015L993.400345658482,40.171003069982916L998.3054050204612,39.85261385828614L1002.9054554464287,41.55155149215664L1007.4690273586309,40.68094291159037L1012.1576436848958,50.86855853717639L1016.9671998697917,53.831139928824356L1021.8147954557292,63.798671940998226L1026.6315201599703,88.04920076133962L1031.2914045982145,110.1595108437667L1036.1698132552085,130.9856896834451L1041.196101529018,140.96139939051127L1045.9427019270834,133.08685645712177L1050.7337587072172,127.73210426123603L1055.5280528831845,113.80927216977865L1060.1398966796874,93.48557531816361L1064.8564355450148,78.14133317460188L1069.58366937872,81.53481192105758L1074.394670829613,77.27088715263449L1079.2234779575892,94.87254911439567L1083.8265923474703,97.87351745234098L1088.5086760714287,107.86411768118242L1093.2230759430804,117.00846580219103L1098.0633873883928,99.18506986827758L1102.813687667411,89.12105874378142L1107.4229877957591,82.4526256332317L1112.0944343619792,89.16158258971683L1116.9216806026786,93.18695676360807L1121.4951959449404,94.97219088097984L1126.359730048363,81.55330010903225L1131.4255607998512,99.96199448497494L1136.3066287462798,102.81719188446648L1141.029584592634,100.7503319534947L1145.7145588485862,98.88018955905977L1150.3442661328124,88.93813055825083L1155.039877546503,85.49289275450627L1159.7968260491073,78.38571882988882L1164.4371704910714,79.16144571748896L1168.9998752436757,50.01686502723413L1173.6491803348215,41.980116613081165L1178.3377388504464,44.71806035481153L1183.0986762872024,42.58084822918323L1187.970957016369,57.67852335706567L1192.70032984375,63.58710440120226L1197.5114469159228,69.65225062442501L1202.4293402399553,104.16133595509933L1207.2405729334077,99.66681118609665L1212.0418621968006,91.93010113121379L1216.690473560268,91.06805346895041L1221.4040640829612,79.84084409766663L1226.2169154743303,83.81449924882205L1230.9758873493304,81.15869714603402L1235.5681911495537,78.30523511043542L1240.2092293191965,92.97312424344635L1244.8685934616817,100.51387694932708L1249.5287669531251,105.66831895981845L1254.5108300874256,80.41098416611311L1259.3615474479166,65.25658328988996L1264.1938810249255,57.42395958697105L1269.1490622116817,50.83437815544184L1273.9691977436755,51.29063410304294L1278.6588546614582,47.154382865085005L1283.350072466518,45.93261289623613L1288.003135249256,42.67955331818615L1292.6661992726933,74.11774881372669L1297.502579594494,82.27064928823594L1302.1463348642114,87.7923799599045L1306.8811418917412,90.47542797594267L1311.6330608686756,80.74524957578774L1316.4300721447173,79.31714734221339L1321.1791005896578,83.50028119555017L1325.745158359375,91.05015670103381L1330.4003601357888,88.65007960106459L1335.066950608259,82.17003814760162L1339.8041278720236,87.73201327552385" style="fill: none;" fill="none"></path></g></g></g></g><g opacity="0.2"><g><g><g><path stroke="rgb(204, 51, 17)" stroke-width="2px" d="M145.6593991908482,472.5L159.53354808779764,283.5L173.37462929873513,157.50003004074097L187.24658139136903,121.49998712539673L201.10332928571427,177.1875L214.9625630375744,214.77274775505066L228.8124892764137,233.1000030040741L242.6851350967262,225.74999499320984L256.54899369977676,223.3636486530304L270.3988621279762,230.58000540733337L284.2680393098958,210.80768537521362L298.1175030636161,179.54996395111084L311.98997545200893,199.50000500679016L325.83955482700895,174.82503604888916L339.7123162686012,182.08537244796753L353.5897603720238,199.7386486530304L367.4520580877976,204.74998497962952L381.3185759802828,224.66037225723267L395.19752316034226,220.50001502037048L409.0728860807291,226.8000090122223L422.9414273456102,241.13791394233704L436.8241322172618,255.14998197555542L450.70920732514884,261.4500210285187L464.5763611346726,255.14998197555542L478.44617423363104,270.9000120162964L492.3341976841518,259.875L506.21765409412205,270.9000120162964L520.0945200911459,269.3249909877777L533.9648534858632,275.6249849796295L547.8517785342262,272.4749879837036L561.7081795647322,277.2000060081482L575.5770098828125,292.9499909877777L589.4535868266369,318.1500120162964L603.3096988039434,319.7249879837036L617.1818821391369,316.5749909877777L631.046492280506,337.0499939918518L644.9196583965775,354.375L658.7790655803572,337.0499939918518L672.6527519921875,337.0499939918518L686.5338959765625,338.6250150203705L700.4005294903274,341.7750120162964L714.2494729482887,352.7999789714813L728.1117706640624,327.6000030040741L741.9943021037947,319.7249879837036L755.8642886346726,311.8500180244446L769.7356048102679,311.8500180244446L783.6092912220981,299.2499849796295L797.4597377566964,299.2499849796295L811.3303023939732,289.7999939918518L825.1905767373513,291.3750150203705L839.0613726171877,274.0500090122223L852.9246531138393,277.2000060081482L866.786488344494,272.4749879837036L880.6671120331101,280.3500030040741L894.5255364360119,275.6249849796295L908.4006103031994,267.7500150203705L922.2496115718006,247.2750120162964L936.1322008221726,263.0249969959259L949.9871565866816,250.4250090122223L963.8518245386906,264.6000180244446L977.725453139881,258.2999789714813L991.5938787834821,247.2750120162964L1005.4773351934523,251.99998497962952L1019.3479576413689,250.4250090122223L1033.2254017447917,245.6999909877777L1047.089780643601,250.4250090122223L1060.9892506008187,248.8499879837036L1074.8644978999255,234.67497897148132L1088.7256394029018,242.5499939918518L1102.6014069977678,233.1000030040741L1116.4764230543153,226.8000090122223L1130.3428831361607,226.8000090122223L1144.2012497284227,226.8000090122223L1158.0850530022321,223.6500120162964L1171.957525390625,218.9249939918518L1185.8216152362352,215.7749969959259L1199.7153041294641,226.8000090122223L1213.587314032738,201.5999879837036L1227.4761468322172,189L1241.360296969866,168.52504205703735L1255.2391863392859,173.24996995925903L1269.1148383128718,177.9749879837036L1283.0077178571428,192.1499969959259L1296.9363821875002,203.1750090122223L1310.8182198995537,226.8000090122223L1324.7106947693453,242.5499939918518" style="fill: none;" fill="none"></path></g><g><path stroke="rgb(187, 187, 187)" stroke-width="2px" d="M105.45134761532738,245.6999909877777L106.85152131324405,199.50000500679016L108.14613278273808,226.8000090122223L109.37900248883929,199.9038426876068L110.6415868638393,164.6129264831543L111.91671614769345,129.3157467842102L113.09923278645833,142.9024829864502L114.28955386160713,152.35711526870728L115.48207174107142,79.57891416549683L116.70973848958333,69.30002403259277L118.06054190104166,64.5750060081482L119.3527831343006,70.875L120.66323471912202,86.62503004074097L122.04739486979167,80.32503604888916L123.45144188058036,105.52501201629639L124.87225397693453,138.59995794296265L126.09182723586308,143.32497596740723L127.37961704985119,143.32497596740723L128.80736642299107,237.82502102851868L130.2118759188988,267.7500150203705L131.55238903645835,269.3249909877777L132.93915066592263,256.7250030040741L134.2260733203125,244.12501502037048L135.59346838541666,231.52498197555542L137.02006154575895,239.3999969959259L138.37814909784225,229.9500060081482L139.65628453497024,220.50001502037048L140.88337317708334,212.625L142.1651506845238,218.9249939918518L143.52266013020835,211.04997897148132L144.93439595610118,201.5999879837036L146.27415753534225,204.74998497962952L147.59963988653274,245.6999909877777L148.9163928311012,251.99998497962952L150.1741211123512,264.6000180244446L151.37380751116072,245.6999909877777L152.6410167373512,250.4250090122223L153.94724814546132,251.99998497962952L155.28648942894344,255.14998197555542L156.77204944196427,231.52498197555542L162.71006931733632,228.37498497962952L174.27138794456846,223.6500120162964L185.83403621651786,201.5999879837036L197.3964532459077,179.54996395111084L208.9582921688988,165.375L220.51961079613096,170.10001802444458L232.08254812127979,133.87503004074097L243.64461828683037,113.39998197555542L255.20819152901788,96.07497596740723L266.7688742392113,86.62503004074097L278.33158032180063,58.27501201629639L289.89284113839284,75.60001802444458L301.4550847358631,74.02504205703735L313.0187157886905,89.77498197555542L324.5795719308036,85.04996395111084L336.1415842857143,125.99996995925903L347.70382788318454,129.1500120162964L359.2657246168155,141.75L363.95659555803576,170.10001802444458L368.45917724516374,192.1499969959259L380.02176770647327,151.20003604888916L391.5833753869048,146.47501802444458L403.1453877418155,173.24996995925903L414.7086141201637,190.57502102851868L426.2698171261161,185.84995794296265L437.8320029129464,166.94997596740723L449.39418869977675,151.20003604888916L460.9566635398065,141.75L472.5193696223959,127.57503604888916L484.0810929241071,152.7750120162964L495.6425849832589,143.32497596740723L507.2044817168898,141.75L518.7674190420387,157.50003004074097L530.3298938820685,144.90004205703735L541.8916749944196,162.22495794296265L553.4525311365327,181.12503004074097L565.0156418936012,173.24996995925903L576.5774808165924,171.6749939918518L588.1406493843006,185.84995794296265L599.7016211476935,159.0750060081482L611.2644428515625,165.375L622.8255302362352,159.0750060081482L634.387947265625,162.22495794296265L645.9514048865327,166.94997596740723L657.5130125669643,151.20003604888916L669.0743311941965,154.3499879837036L680.6363435491072,170.10001802444458L692.1987027678572,162.22495794296265L703.7614088504465,146.47501802444458L715.3232477734375,138.59995794296265L726.8843929687499,125.99996995925903L738.4474459151786,103.95003604888916L750.0093426488096,116.55002403259277L761.5731471335566,105.52501201629639L773.1337142224703,80.32503604888916L784.6960734412203,63.00003004074097L796.25854828125,69.30002403259277L807.8202137723214,96.07497596740723L819.383729203869,78.74996995925903L830.9441228608631,78.74996995925903L842.506077405134,100.7999939918518L854.0686100558036,96.07497596740723L865.6305646000743,63.00003004074097L877.1944847061012,113.39998197555542L888.7548205524554,133.87503004074097L900.3172375818451,111.8250060081482L911.8797702325149,118.125L923.4416091555058,138.59995794296265L935.0048933444942,118.125L946.5655760546875,91.34995794296265L958.1280508947173,105.52501201629639L969.6903523028274,140.17502403259277L981.2520177938987,122.85001802444458L992.8156488467262,133.87503004074097L1004.3760425037201,137.02498197555542L1015.9385751543897,148.0499939918518L1027.500298456101,135.4500060081482L1039.0629467280505,122.85001802444458L1050.6259418638392,130.7249879837036L1062.1867401953125,176.4000120162964L1073.7495040885417,148.0499939918518L1085.311169579613,159.0750060081482L1096.8731819345237,152.7750120162964L1108.4363505022322,148.0499939918518L1119.997437886905,137.02498197555542L1131.5598549162949,137.02498197555542L1143.1214047860865,160.64998197555542L1154.6837640048361,137.02498197555542L1166.2469325725447,138.59995794296265L1177.8082511997766,137.02498197555542L1189.3712463355653,135.4500060081482L1200.9331430691966,125.99996995925903L1212.4951554241072,97.65004205703735L1224.057630264137,110.25003004074097L1235.618891080729,107.09998798370361L1247.1807300037203,107.09998798370361L1258.7429736011904,127.57503604888916L1270.305159388021,144.90004205703735L1281.868848251488,146.47501802444458L1293.4292997191221,141.75L1304.9915433165922,143.32497596740723L1316.553497860863,157.50003004074097L1328.1161461328127,138.59995794296265L1339.6789678366815,160.64998197555542" style="fill: none;" fill="none"></path></g><g><path stroke="rgb(0, 153, 136)" stroke-width="2px" d="M108.57040506882441,283.5L113.08032870721725,330.75L117.76275929501489,318.9375L122.43299183779762,270.6136486530304L126.98546410714286,266.6250193119049L131.48804579427082,229.4999806880951L136.08913681175594,239.88462924957275L140.78844810639882,226.40626502037048L145.38948131324406,211.23531532287598L150.06925261160714,206.18180179595947L154.9348851171875,193.80509161949158L159.55800198846728,173.24996995925903L164.1678802232143,155.92496395111084L168.73237710565476,173.24996995925903L173.42145591703868,159.0750060081482L178.08741047247022,181.12503004074097L182.64335138020834,152.7750120162964L187.12824301153273,119.69997596740723L191.89334281436015,152.7750120162964L196.6684438578869,146.47501802444458L201.42122999441966,135.4500060081482L206.2246582514881,129.1500120162964L210.9388268805803,148.0499939918518L216.01124804501484,127.57503604888916L220.96671828497026,122.85001802444458L225.77488701450895,143.32497596740723L230.43864476562496,195.2999939918518L235.36827364955357,212.625L240.15487901041664,244.12501502037048L244.70764033296135,234.67497897148132L249.64501584263388,220.50001502037048L254.501572077753,209.4750030040741L259.35067074032736,225.2249879837036L264.18046064918155,206.3250060081482L268.8282048530506,204.74998497962952L273.6320377845982,203.1750090122223L278.48605035156254,189L283.09037876488094,182.7000060081482L287.7138425,198.4499909877777L292.5943323400297,165.375L304.1137382533482,97.65004205703735L317.99233856956846,114.97495794296265L331.86712338355653,118.125L345.74046293154765,127.57503604888916L359.60946668154764,138.59995794296265L365.9599654724702,100.7999939918518L370.6024489081101,72.44997596740723L375.2679987890625,81.90001201629639L380.0186459319196,80.32503604888916L384.70847628162204,211.04997897148132L389.36737793898806,204.74998497962952L394.2309292615327,218.9249939918518L398.7847311755952,195.2999939918518L403.61729599516366,185.84995794296265L408.29157528273805,173.24996995925903L412.90081760044643,192.1499969959259L417.62053605096725,196.87501502037048L422.300943266369,217.35001802444458L426.98649562872026,198.4499909877777L431.8560014471726,176.4000120162964L436.5129953534227,187.42502403259277L441.54020859747027,162.22495794296265L446.2232751023065,75.60001802444458L450.8292800241815,42.52498197555542L455.39192696614583,55.12496995925903L460.03458383370537,61.42496395111084L464.7570193843007,59.84998798370361L469.50252138020835,69.30002403259277L474.20472320684524,78.74996995925903L479.0732462444196,48.82497596740723L483.8138921465774,138.59995794296265L488.6739170200893,141.75L493.579207624628,148.0499939918518L498.66983914062496,108.67496395111084L503.80434893229165,108.67496395111084L508.67194699962795,118.125L513.5679879017857,94.5L518.3286362853422,92.92502403259277L523.3341127287947,111.8250060081482L528.4459029389881,132.29996395111084L533.3103792317709,108.67496395111084L538.2501827883185,113.39998197555542L542.9664904110863,125.99996995925903L547.7004880896577,111.8250060081482L552.4497477771578,108.67496395111084L557.1918967559525,102.37496995925903L561.8239742764138,85.04996395111084L566.5761244959077,78.74996995925903L571.3265403962054,92.92502403259277L576.115342561384,96.07497596740723L580.8715395256696,89.77498197555542L585.661902578125,102.37496995925903L590.6329816908482,122.85001802444458L595.403226640625,140.17502403259277L600.347770669643,152.7750120162964L605.0536723772321,159.0750060081482L609.6063180784971,190.57502102851868L614.4679616499255,195.2999939918518L619.1768695107887,177.9749879837036L623.8072127120536,173.24996995925903L628.5023038299851,152.7750120162964L633.1259988076638,165.375L637.6839052771578,152.7750120162964L642.1942914006696,130.7249879837036L647.2349745238096,124.4249939918518L651.996605688244,129.1500120162964L656.5409266573661,114.97495794296265L661.0468035509673,114.97495794296265L665.7924789787946,132.29996395111084L670.6594989397321,152.7750120162964L675.3949418843007,141.75L680.1642618638393,122.85001802444458L685.0363113504463,114.97495794296265L689.6733605859374,124.4249939918518L694.2362965811011,130.7249879837036L698.7706741201637,141.75L711.8377286737351,129.1500120162964L725.7137853218006,102.37496995925903L739.6092085342262,80.32503604888916L753.4749748883929,89.77498197555542L767.335191421131,74.02504205703735L781.2190525055803,91.34995794296265L789.7745647228422,100.7999939918518L794.398664375,99.22501802444458L799.1665968991815,105.52501201629639L803.9810669884673,105.52501201629639L808.7310782142857,119.69997596740723L813.3765678031995,130.7249879837036L818.061946733631,151.20003604888916L822.7241435974704,155.92496395111084L827.5904698307291,165.375L832.42679234189,166.94997596740723L837.1842611402532,187.42502403259277L841.935948874628,181.12503004074097L846.6488456696428,166.94997596740723L851.4059097935269,157.50003004074097L856.1366700762647,155.92496395111084L860.8449998307292,146.47501802444458L865.6368659598213,144.90004205703735L870.3750260044643,146.47501802444458L875.091853922991,132.29996395111084L879.8871886904764,130.7249879837036L884.6798641685267,124.4249939918518L889.3281864787945,133.87503004074097L893.9410708668155,144.90004205703735L898.6032099200148,146.47501802444458L903.3198644066221,137.02498197555542L908.1451450855653,124.4249939918518L912.7512078180802,135.4500060081482L917.4736433686757,152.7750120162964L922.508661049107,151.20003604888916L927.131662299107,121.27504205703735L931.8098727101933,132.29996395111084L936.4739773251488,124.4249939918518L941.1253635993303,91.34995794296265L945.8293575558035,88.2000060081482L950.6276406659227,99.22501802444458L955.314117998512,114.97495794296265L960.1219976748512,105.52501201629639L964.7469066759672,77.1749939918518L969.3422166294644,81.90001201629639L974.3030054482887,88.2000060081482L979.0809970238095,70.875L983.778053703497,58.27501201629639L988.4220402157738,14.17496395111084L993.400345658482,26.775042057037354L998.3054050204612,39.37503004074097L1002.9054554464287,44.09995794296265L1007.4690273586309,39.37503004074097L1012.1576436848958,66.14998197555542L1016.9671998697917,58.27501201629639L1021.8147954557292,78.74996995925903L1026.6315201599703,124.4249939918518L1031.2914045982145,143.32497596740723L1036.1698132552085,162.22495794296265L1041.196101529018,155.92496395111084L1045.9427019270834,121.27504205703735L1050.7337587072172,119.69997596740723L1055.5280528831845,92.92502403259277L1060.1398966796874,63.00003004074097L1064.8564355450148,55.12496995925903L1069.58366937872,86.62503004074097L1074.394670829613,70.875L1079.2234779575892,121.27504205703735L1083.8265923474703,102.37496995925903L1088.5086760714287,122.85001802444458L1093.2230759430804,130.7249879837036L1098.0633873883928,72.44997596740723L1102.813687667411,74.02504205703735L1107.4229877957591,72.44997596740723L1112.0944343619792,99.22501802444458L1116.9216806026786,99.22501802444458L1121.4951959449404,97.65004205703735L1126.359730048363,61.42496395111084L1131.4255607998512,127.57503604888916L1136.3066287462798,107.09998798370361L1141.029584592634,97.65004205703735L1145.7145588485862,96.07497596740723L1150.3442661328124,74.02504205703735L1155.039877546503,80.32503604888916L1159.7968260491073,67.72495794296265L1164.4371704910714,80.32503604888916L1168.9998752436757,6.299993991851807L1173.6491803348215,29.924993991851807L1178.3377388504464,48.82497596740723L1183.0986762872024,39.37503004074097L1187.970957016369,80.32503604888916L1192.70032984375,72.44997596740723L1197.5114469159228,78.74996995925903L1202.4293402399553,155.92496395111084L1207.2405729334077,92.92502403259277L1212.0418621968006,80.32503604888916L1216.690473560268,89.77498197555542L1221.4040640829612,63.00003004074097L1226.2169154743303,89.77498197555542L1230.9758873493304,77.1749939918518L1235.5681911495537,74.02504205703735L1240.2092293191965,114.97495794296265L1244.8685934616817,111.8250060081482L1249.5287669531251,113.39998197555542L1254.5108300874256,42.52498197555542L1259.3615474479166,42.52498197555542L1264.1938810249255,45.67502403259277L1269.1490622116817,40.95000600814819L1273.9691977436755,51.97501802444458L1278.6588546614582,40.95000600814819L1283.350072466518,44.09995794296265L1288.003135249256,37.79996395111084L1292.6661992726933,121.27504205703735L1297.502579594494,94.5L1302.1463348642114,96.07497596740723L1306.8811418917412,94.5L1311.6330608686756,66.14998197555542L1316.4300721447173,77.1749939918518L1321.1791005896578,89.77498197555542L1325.745158359375,102.37496995925903L1330.4003601357888,85.04996395111084L1335.066950608259,72.44997596740723L1339.8041278720236,96.07497596740723" style="fill: none;" fill="none"></path></g></g></g></g></g></g><g transform="translate(41, 378)" clip-path="url(#clip_1)"><clipPath id="clip_1"><rect width="1456" height="22"></rect></clipPath><g><g><line x1="0" y1="0" x2="0" y2="5" style="visibility: inherit;" fill="rgb(0, 0, 0)" stroke="rgb(204, 204, 204)" stroke-width="1px"></line><line x1="104.05915178571428" y1="0" x2="104.05915178571428" y2="5" style="visibility: inherit;" fill="rgb(0, 0, 0)" stroke="rgb(204, 204, 204)" stroke-width="1px"></line><line x1="208.11830357142856" y1="0" x2="208.11830357142856" y2="5" style="visibility: inherit;" fill="rgb(0, 0, 0)" stroke="rgb(204, 204, 204)" stroke-width="1px"></line><line x1="312.17745535714283" y1="0" x2="312.17745535714283" y2="5" style="visibility: inherit;" fill="rgb(0, 0, 0)" stroke="rgb(204, 204, 204)" stroke-width="1px"></line><line x1="416.2366071428571" y1="0" x2="416.2366071428571" y2="5" style="visibility: inherit;" fill="rgb(0, 0, 0)" stroke="rgb(204, 204, 204)" stroke-width="1px"></line><line x1="520.2957589285714" y1="0" x2="520.2957589285714" y2="5" style="visibility: inherit;" fill="rgb(0, 0, 0)" stroke="rgb(204, 204, 204)" stroke-width="1px"></line><line x1="624.3549107142857" y1="0" x2="624.3549107142857" y2="5" style="visibility: inherit;" fill="rgb(0, 0, 0)" stroke="rgb(204, 204, 204)" stroke-width="1px"></line><line x1="728.4140625" y1="0" x2="728.4140625" y2="5" style="visibility: inherit;" fill="rgb(0, 0, 0)" stroke="rgb(204, 204, 204)" stroke-width="1px"></line><line x1="832.4732142857142" y1="0" x2="832.4732142857142" y2="5" style="visibility: inherit;" fill="rgb(0, 0, 0)" stroke="rgb(204, 204, 204)" stroke-width="1px"></line><line x1="936.5323660714287" y1="0" x2="936.5323660714287" y2="5" style="visibility: inherit;" fill="rgb(0, 0, 0)" stroke="rgb(204, 204, 204)" stroke-width="1px"></line><line x1="1040.591517857143" y1="0" x2="1040.591517857143" y2="5" style="visibility: inherit;" fill="rgb(0, 0, 0)" stroke="rgb(204, 204, 204)" stroke-width="1px"></line><line x1="1144.650669642857" y1="0" x2="1144.650669642857" y2="5" style="visibility: inherit;" fill="rgb(0, 0, 0)" stroke="rgb(204, 204, 204)" stroke-width="1px"></line><line x1="1248.7098214285713" y1="0" x2="1248.7098214285713" y2="5" style="visibility: inherit;" fill="rgb(0, 0, 0)" stroke="rgb(204, 204, 204)" stroke-width="1px"></line><line x1="1352.7689732142858" y1="0" x2="1352.7689732142858" y2="5" style="visibility: inherit;" fill="rgb(0, 0, 0)" stroke="rgb(204, 204, 204)" stroke-width="1px"></line><line x1="1456.828125" y1="0" x2="1456.828125" y2="5" style="visibility: inherit;" fill="rgb(0, 0, 0)" stroke="rgb(204, 204, 204)" stroke-width="1px"></line></g><g transform="translate(0, 8)"><text x="0" y="0" dx="0em" dy="0.95em" style="text-anchor: middle; visibility: hidden; font-family: Roboto, sans-serif; font-size: 12px; font-weight: 200;" fill="rgb(50, 49, 63)" stroke="none" stroke-width="1px">-0.5</text><text x="104.05915178571428" y="0" dx="0em" dy="0.95em" style="text-anchor: middle; visibility: inherit; font-family: Roboto, sans-serif; font-size: 12px; font-weight: 200;" fill="rgb(50, 49, 63)" stroke="none" stroke-width="1px">0</text><text x="208.11830357142856" y="0" dx="0em" dy="0.95em" style="text-anchor: middle; visibility: inherit; font-family: Roboto, sans-serif; font-size: 12px; font-weight: 200;" fill="rgb(50, 49, 63)" stroke="none" stroke-width="1px">0.5</text><text x="312.17745535714283" y="0" dx="0em" dy="0.95em" style="text-anchor: middle; visibility: inherit; font-family: Roboto, sans-serif; font-size: 12px; font-weight: 200;" fill="rgb(50, 49, 63)" stroke="none" stroke-width="1px">1</text><text x="416.2366071428571" y="0" dx="0em" dy="0.95em" style="text-anchor: middle; visibility: inherit; font-family: Roboto, sans-serif; font-size: 12px; font-weight: 200;" fill="rgb(50, 49, 63)" stroke="none" stroke-width="1px">1.5</text><text x="520.2957589285714" y="0" dx="0em" dy="0.95em" style="text-anchor: middle; visibility: inherit; font-family: Roboto, sans-serif; font-size: 12px; font-weight: 200;" fill="rgb(50, 49, 63)" stroke="none" stroke-width="1px">2</text><text x="624.3549107142857" y="0" dx="0em" dy="0.95em" style="text-anchor: middle; visibility: inherit; font-family: Roboto, sans-serif; font-size: 12px; font-weight: 200;" fill="rgb(50, 49, 63)" stroke="none" stroke-width="1px">2.5</text><text x="728.4140625" y="0" dx="0em" dy="0.95em" style="text-anchor: middle; visibility: inherit; font-family: Roboto, sans-serif; font-size: 12px; font-weight: 200;" fill="rgb(50, 49, 63)" stroke="none" stroke-width="1px">3</text><text x="832.4732142857142" y="0" dx="0em" dy="0.95em" style="text-anchor: middle; visibility: inherit; font-family: Roboto, sans-serif; font-size: 12px; font-weight: 200;" fill="rgb(50, 49, 63)" stroke="none" stroke-width="1px">3.5</text><text x="936.5323660714287" y="0" dx="0em" dy="0.95em" style="text-anchor: middle; visibility: inherit; font-family: Roboto, sans-serif; font-size: 12px; font-weight: 200;" fill="rgb(50, 49, 63)" stroke="none" stroke-width="1px">4</text><text x="1040.591517857143" y="0" dx="0em" dy="0.95em" style="text-anchor: middle; visibility: inherit; font-family: Roboto, sans-serif; font-size: 12px; font-weight: 200;" fill="rgb(50, 49, 63)" stroke="none" stroke-width="1px">4.5</text><text x="1144.650669642857" y="0" dx="0em" dy="0.95em" style="text-anchor: middle; visibility: inherit; font-family: Roboto, sans-serif; font-size: 12px; font-weight: 200;" fill="rgb(50, 49, 63)" stroke="none" stroke-width="1px">5</text><text x="1248.7098214285713" y="0" dx="0em" dy="0.95em" style="text-anchor: middle; visibility: inherit; font-family: Roboto, sans-serif; font-size: 12px; font-weight: 200;" fill="rgb(50, 49, 63)" stroke="none" stroke-width="1px">5.5</text><text x="1352.7689732142858" y="0" dx="0em" dy="0.95em" style="text-anchor: middle; visibility: inherit; font-family: Roboto, sans-serif; font-size: 12px; font-weight: 200;" fill="rgb(50, 49, 63)" stroke="none" stroke-width="1px">6</text><text x="1456.828125" y="0" dx="0em" dy="0.95em" style="text-anchor: middle; visibility: hidden; font-family: Roboto, sans-serif; font-size: 12px; font-weight: 200;" fill="rgb(50, 49, 63)" stroke="none" stroke-width="1px">6.5</text></g><line x1="0" y1="0" x2="1456.828125" y2="0" fill="rgb(0, 0, 0)" stroke="rgb(204, 204, 204)" stroke-width="1px"></line></g></g></g></g></svg>