<svg viewBox="0 0 1498 400" xmlns="http://www.w3.org/2000/svg"><g><g><g><g><g><line x1="41.171875" y1="378" x2="36.171875" y2="378" style="visibility: inherit;" fill="rgb(0, 0, 0)" stroke="rgb(204, 204, 204)" stroke-width="1px"></line><line x1="41.171875" y1="340.2" x2="36.171875" y2="340.2" style="visibility: inherit;" fill="rgb(0, 0, 0)" stroke="rgb(204, 204, 204)" stroke-width="1px"></line><line x1="41.171875" y1="302.40000000000003" x2="36.171875" y2="302.40000000000003" style="visibility: inherit;" fill="rgb(0, 0, 0)" stroke="rgb(204, 204, 204)" stroke-width="1px"></line><line x1="41.171875" y1="264.59999999999997" x2="36.171875" y2="264.59999999999997" style="visibility: inherit;" fill="rgb(0, 0, 0)" stroke="rgb(204, 204, 204)" stroke-width="1px"></line><line x1="41.171875" y1="226.79999999999998" x2="36.171875" y2="226.79999999999998" style="visibility: inherit;" fill="rgb(0, 0, 0)" stroke="rgb(204, 204, 204)" stroke-width="1px"></line><line x1="41.171875" y1="189" x2="36.171875" y2="189" style="visibility: inherit;" fill="rgb(0, 0, 0)" stroke="rgb(204, 204, 204)" stroke-width="1px"></line><line x1="41.171875" y1="151.20000000000002" x2="36.171875" y2="151.20000000000002" style="visibility: inherit;" fill="rgb(0, 0, 0)" stroke="rgb(204, 204, 204)" stroke-width="1px"></line><line x1="41.171875" y1="113.40000000000002" x2="36.171875" y2="113.40000000000002" style="visibility: inherit;" fill="rgb(0, 0, 0)" stroke="rgb(204, 204, 204)" stroke-width="1px"></line><line x1="41.171875" y1="75.59999999999998" x2="36.171875" y2="75.59999999999998" style="visibility: inherit;" fill="rgb(0, 0, 0)" stroke="rgb(204, 204, 204)" stroke-width="1px"></line><line x1="41.171875" y1="37.79999999999999" x2="36.171875" y2="37.79999999999999" style="visibility: inherit;" fill="rgb(0, 0, 0)" stroke="rgb(204, 204, 204)" stroke-width="1px"></line><line x1="41.171875" y1="0" x2="36.171875" y2="0" style="visibility: inherit;" fill="rgb(0, 0, 0)" stroke="rgb(204, 204, 204)" stroke-width="1px"></line></g><g transform="translate(31.171875, 0)"><text x="0" y="378" dx="0em" dy="0.3em" style="text-anchor: end; visibility: hidden; font-family: Roboto, sans-serif; font-size: 12px; font-weight: 200;" fill="rgb(50, 49, 63)" stroke="none" stroke-width="1px">3</text><text x="0" y="340.2" dx="0em" dy="0.3em" style="text-anchor: end; visibility: inherit; font-family: Roboto, sans-serif; font-size: 12px; font-weight: 200;" fill="rgb(50, 49, 63)" stroke="none" stroke-width="1px">3.5</text><text x="0" y="302.40000000000003" dx="0em" dy="0.3em" style="text-anchor: end; visibility: inherit; font-family: Roboto, sans-serif; font-size: 12px; font-weight: 200;" fill="rgb(50, 49, 63)" stroke="none" stroke-width="1px">4</text><text x="0" y="264.59999999999997" dx="0em" dy="0.3em" style="text-anchor: end; visibility: inherit; font-family: Roboto, sans-serif; font-size: 12px; font-weight: 200;" fill="rgb(50, 49, 63)" stroke="none" stroke-width="1px">4.5</text><text x="0" y="226.79999999999998" dx="0em" dy="0.3em" style="text-anchor: end; visibility: inherit; font-family: Roboto, sans-serif; font-size: 12px; font-weight: 200;" fill="rgb(50, 49, 63)" stroke="none" stroke-width="1px">5</text><text x="0" y="189" dx="0em" dy="0.3em" style="text-anchor: end; visibility: inherit; font-family: Roboto, sans-serif; font-size: 12px; font-weight: 200;" fill="rgb(50, 49, 63)" stroke="none" stroke-width="1px">5.5</text><text x="0" y="151.20000000000002" dx="0em" dy="0.3em" style="text-anchor: end; visibility: inherit; font-family: Roboto, sans-serif; font-size: 12px; font-weight: 200;" fill="rgb(50, 49, 63)" stroke="none" stroke-width="1px">6</text><text x="0" y="113.40000000000002" dx="0em" dy="0.3em" style="text-anchor: end; visibility: inherit; font-family: Roboto, sans-serif; font-size: 12px; font-weight: 200;" fill="rgb(50, 49, 63)" stroke="none" stroke-width="1px">6.5</text><text x="0" y="75.59999999999998" dx="0em" dy="0.3em" style="text-anchor: end; visibility: inherit; font-family: Roboto, sans-serif; font-size: 12px; font-weight: 200;" fill="rgb(50, 49, 63)" stroke="none" stroke-width="1px">7</text><text x="0" y="37.79999999999999" dx="0em" dy="0.3em" style="text-anchor: end; visibility: inherit; font-family: Roboto, sans-serif; font-size: 12px; font-weight: 200;" fill="rgb(50, 49, 63)" stroke="none" stroke-width="1px">7.5</text><text x="0" y="0" dx="0em" dy="0.3em" style="text-anchor: end; visibility: hidden; font-family: Roboto, sans-serif; font-size: 12px; font-weight: 200;" fill="rgb(50, 49, 63)" stroke="none" stroke-width="1px">8</text></g><line x1="41.171875" y1="0" x2="41.171875" y2="378" fill="rgb(0, 0, 0)" stroke="rgb(204, 204, 204)" stroke-width="1px"></line></g></g><g transform="translate(41, 0)" clip-path="url(#clip_0)"><clipPath id="clip_0"><rect width="1456" height="378"></rect></clipPath><g><g><g><line x1="0" y1="0" x2="0" y2="378" fill="rgb(0, 0, 0)" stroke="rgb(60, 60, 60)" stroke-width="1px" opacity="0.25"></line><line x1="104.05915178571428" y1="0" x2="104.05915178571428" y2="378" fill="rgb(0, 0, 0)" stroke="rgb(60, 60, 60)" stroke-width="1px" opacity="0.25"></line><line x1="208.11830357142856" y1="0" x2="208.11830357142856" y2="378" fill="rgb(0, 0, 0)" stroke="rgb(60, 60, 60)" stroke-width="1px" opacity="0.25"></line><line x1="312.17745535714283" y1="0" x2="312.17745535714283" y2="378" fill="rgb(0, 0, 0)" stroke="rgb(60, 60, 60)" stroke-width="1px" opacity="0.25"></line><line x1="416.2366071428571" y1="0" x2="416.2366071428571" y2="378" fill="rgb(0, 0, 0)" stroke="rgb(60, 60, 60)" stroke-width="1px" opacity="0.25"></line><line x1="520.2957589285714" y1="0" x2="520.2957589285714" y2="378" fill="rgb(0, 0, 0)" stroke="rgb(60, 60, 60)" stroke-width="1px" opacity="0.25"></line><line x1="624.3549107142857" y1="0" x2="624.3549107142857" y2="378" fill="rgb(0, 0, 0)" stroke="rgb(60, 60, 60)" stroke-width="1px" opacity="0.25"></line><line x1="728.4140625" y1="0" x2="728.4140625" y2="378" fill="rgb(0, 0, 0)" stroke="rgb(60, 60, 60)" stroke-width="1px" opacity="0.25"></line><line x1="832.4732142857142" y1="0" x2="832.4732142857142" y2="378" fill="rgb(0, 0, 0)" stroke="rgb(60, 60, 60)" stroke-width="1px" opacity="0.25"></line><line x1="936.5323660714287" y1="0" x2="936.5323660714287" y2="378" fill="rgb(0, 0, 0)" stroke="rgb(60, 60, 60)" stroke-width="1px" opacity="0.25"></line><line x1="1040.591517857143" y1="0" x2="1040.591517857143" y2="378" fill="rgb(0, 0, 0)" stroke="rgb(60, 60, 60)" stroke-width="1px" opacity="0.25"></line><line x1="1144.650669642857" y1="0" x2="1144.650669642857" y2="378" fill="rgb(0, 0, 0)" stroke="rgb(60, 60, 60)" stroke-width="1px" opacity="0.25"></line><line x1="1248.7098214285713" y1="0" x2="1248.7098214285713" y2="378" fill="rgb(0, 0, 0)" stroke="rgb(60, 60, 60)" stroke-width="1px" opacity="0.25"></line><line x1="1352.7689732142858" y1="0" x2="1352.7689732142858" y2="378" fill="rgb(0, 0, 0)" stroke="rgb(60, 60, 60)" stroke-width="1px" opacity="0.25"></line><line x1="1456.828125" y1="0" x2="1456.828125" y2="378" fill="rgb(0, 0, 0)" stroke="rgb(60, 60, 60)" stroke-width="1px" opacity="0.25"></line></g><g><line x1="0" y1="378" x2="1456.828125" y2="378" fill="rgb(0, 0, 0)" stroke="rgb(60, 60, 60)" stroke-width="1px" opacity="0.25"></line><line x1="0" y1="340.2" x2="1456.828125" y2="340.2" fill="rgb(0, 0, 0)" stroke="rgb(60, 60, 60)" stroke-width="1px" opacity="0.25"></line><line x1="0" y1="302.40000000000003" x2="1456.828125" y2="302.40000000000003" fill="rgb(0, 0, 0)" stroke="rgb(60, 60, 60)" stroke-width="1px" opacity="0.25"></line><line x1="0" y1="264.59999999999997" x2="1456.828125" y2="264.59999999999997" fill="rgb(0, 0, 0)" stroke="rgb(60, 60, 60)" stroke-width="1px" opacity="0.25"></line><line x1="0" y1="226.79999999999998" x2="1456.828125" y2="226.79999999999998" fill="rgb(0, 0, 0)" stroke="rgb(60, 60, 60)" stroke-width="1px" opacity="0.25"></line><line x1="0" y1="189" x2="1456.828125" y2="189" fill="rgb(0, 0, 0)" stroke="rgb(60, 60, 60)" stroke-width="1px" opacity="0.25"></line><line x1="0" y1="151.20000000000002" x2="1456.828125" y2="151.20000000000002" fill="rgb(0, 0, 0)" stroke="rgb(60, 60, 60)" stroke-width="1px" opacity="0.25"></line><line x1="0" y1="113.40000000000002" x2="1456.828125" y2="113.40000000000002" fill="rgb(0, 0, 0)" stroke="rgb(60, 60, 60)" stroke-width="1px" opacity="0.25"></line><line x1="0" y1="75.59999999999998" x2="1456.828125" y2="75.59999999999998" fill="rgb(0, 0, 0)" stroke="rgb(60, 60, 60)" stroke-width="1px" opacity="0.25"></line><line x1="0" y1="37.79999999999999" x2="1456.828125" y2="37.79999999999999" fill="rgb(0, 0, 0)" stroke="rgb(60, 60, 60)" stroke-width="1px" opacity="0.25"></line><line x1="0" y1="0" x2="1456.828125" y2="0" fill="rgb(0, 0, 0)" stroke="rgb(60, 60, 60)" stroke-width="1px" opacity="0.25"></line></g></g></g><g><g><line x1="0" y1="604.8000000000001" x2="1456.828125" y2="604.8000000000001" fill="rgb(0, 0, 0)" stroke="rgb(153, 153, 153)" stroke-width="1.5px"></line></g></g><g><g><line x1="104.05915178571428" y1="0" x2="104.05915178571428" y2="378" fill="rgb(0, 0, 0)" stroke="rgb(153, 153, 153)" stroke-width="1.5px"></line></g></g><g><g><g><g><g><path stroke="rgb(204, 51, 17)" stroke-width="2px" d="M104.05915178571428,377.99999999999994L117.92156512276786,377.99999999999994L131.7846721875,377.99999999999994L145.6594570014881,343.2573529411764L159.5336637090774,325.53643303261623L173.37474492001488,315.82894736842104L187.24663920200894,279.19176170033455L201.10338709635417,257.8770517413765L214.96267865885414,245.31968168685697L228.8125470870536,237.86674394760837L242.68525071800593,233.42392796296926L256.5491093210565,230.76857665596057L270.39891993861613,229.17906998755313L284.26815493117556,228.22669567236076L298.11756087425596,227.65574895284195L311.9900910732887,227.31335277798107L325.8396704482887,227.10797690351373L339.712431889881,226.98477362958917L353.58987599330356,226.91085967373456L367.4521737090774,226.8665141828993L381.31869160156253,226.83990792607946L395.197638781622,226.823944545535L409.07294389136905,226.81436665168144L422.9415429668899,226.80861996377894L436.8241900279018,226.80517196846455L450.7093229464286,226.80310317754981L464.5764767559524,226.80186190525944L478.4462898549107,226.80111714269825L492.3343133054316,226.8006702854543L506.2177119047619,226.80040217121334L520.0945779017857,226.8002413027067L533.9649691071429,226.8001447816164L547.8518941555059,226.80008686896704L561.7082951860119,226.8000521213793L575.5770676934524,226.80003127282723L589.4537024479166,226.80001876369622L603.3097566145834,226.80001125821764L617.1819977604166,226.8000067549306L631.0465500911458,226.80000405295846L644.9197740178571,226.800002431775L658.7791812016369,226.8000014590651L672.6528676134673,226.800000875439L686.5340115978422,226.80000052526339L700.4006451116072,226.80000031515812L714.2495885695683,226.80000018909482L728.1118284747024,226.80000011345686L741.9944177250744,226.80000006807413L755.8644042559524,226.80000004084448L769.7357204315475,226.80000002450672L783.609406843378,226.8000000147041L797.4598533779762,226.80000000882248L811.330360204613,226.80000000529347L825.1906923586309,226.8000000031761L839.0614882384673,226.8000000019057L852.924768735119,226.80000000114345L866.786603965774,226.80000000068603L880.6672276543898,226.8000000004116L894.5255942466516,226.80000000024697L908.4007259244792,226.80000000014817L922.2496693824406,226.80000000008897L936.1322586328124,226.80000000005336L949.9872143973214,226.80000000003201L963.8519401599702,226.80000000001925L977.7255687611606,226.80000000001152L991.593994404762,226.800000000007L1005.4774508147323,226.80000000000413L1019.3480732626489,226.80000000000254L1033.2254595554316,226.80000000000155L1047.089896264881,226.80000000000095L1060.9893662220982,226.80000000000052L1074.8645557105656,226.80000000000032L1088.7256972135415,226.8000000000002L1102.6015226190477,226.80000000000007L1116.4765386755953,226.80000000000013L1130.3429987574405,226.80000000000013L1144.2013075390623,226.80000000000013L1158.085110812872,226.80000000000013L1171.957583201265,226.80000000000013L1185.821673046875,226.80000000000013L1199.715419750744,226.80000000000013L1213.5874296540178,226.80000000000013L1227.4762624534972,226.80000000000013L1241.3604125911459,226.80000000000013L1255.2392441499255,226.80000000000013L1269.1149539341518,226.80000000000013L1283.0077756677829,226.80000000000013L1296.9364978087797,226.80000000000013L1310.8183355208332,226.80000000000013L1324.710810390625,226.80000000000013" style="fill: none;" fill="none"></path></g></g></g></g><g opacity="0.2"><g><g><g><path stroke="rgb(204, 51, 17)" stroke-width="2px" d="M104.05915178571428,378L117.92156512276786,378L131.7846721875,378L145.6594570014881,302.40000000000003L159.5336637090774,302.40000000000003L173.37474492001488,302.40000000000003L187.24663920200894,226.79999999999998L201.10338709635417,226.79999999999998L214.96267865885414,226.79999999999998L228.8125470870536,226.79999999999998L242.68525071800593,226.79999999999998L256.5491093210565,226.79999999999998L270.39891993861613,226.79999999999998L284.26815493117556,226.79999999999998L298.11756087425596,226.79999999999998L311.9900910732887,226.79999999999998L325.8396704482887,226.79999999999998L339.712431889881,226.79999999999998L353.58987599330356,226.79999999999998L367.4521737090774,226.79999999999998L381.31869160156253,226.79999999999998L395.197638781622,226.79999999999998L409.07294389136905,226.79999999999998L422.9415429668899,226.79999999999998L436.8241900279018,226.79999999999998L450.7093229464286,226.79999999999998L464.5764767559524,226.79999999999998L478.4462898549107,226.79999999999998L492.3343133054316,226.79999999999998L506.2177119047619,226.79999999999998L520.0945779017857,226.79999999999998L533.9649691071429,226.79999999999998L547.8518941555059,226.79999999999998L561.7082951860119,226.79999999999998L575.5770676934524,226.79999999999998L589.4537024479166,226.79999999999998L603.3097566145834,226.79999999999998L617.1819977604166,226.79999999999998L631.0465500911458,226.79999999999998L644.9197740178571,226.79999999999998L658.7791812016369,226.79999999999998L672.6528676134673,226.79999999999998L686.5340115978422,226.79999999999998L700.4006451116072,226.79999999999998L714.2495885695683,226.79999999999998L728.1118284747024,226.79999999999998L741.9944177250744,226.79999999999998L755.8644042559524,226.79999999999998L769.7357204315475,226.79999999999998L783.609406843378,226.79999999999998L797.4598533779762,226.79999999999998L811.330360204613,226.79999999999998L825.1906923586309,226.79999999999998L839.0614882384673,226.79999999999998L852.924768735119,226.79999999999998L866.786603965774,226.79999999999998L880.6672276543898,226.79999999999998L894.5255942466516,226.79999999999998L908.4007259244792,226.79999999999998L922.2496693824406,226.79999999999998L936.1322586328124,226.79999999999998L949.9872143973214,226.79999999999998L963.8519401599702,226.79999999999998L977.7255687611606,226.79999999999998L991.593994404762,226.79999999999998L1005.4774508147323,226.79999999999998L1019.3480732626489,226.79999999999998L1033.2254595554316,226.79999999999998L1047.089896264881,226.79999999999998L1060.9893662220982,226.79999999999998L1074.8645557105656,226.79999999999998L1088.7256972135415,226.79999999999998L1102.6015226190477,226.79999999999998L1116.4765386755953,226.79999999999998L1130.3429987574405,226.79999999999998L1144.2013075390623,226.79999999999998L1158.085110812872,226.79999999999998L1171.957583201265,226.79999999999998L1185.821673046875,226.79999999999998L1199.715419750744,226.79999999999998L1213.5874296540178,226.79999999999998L1227.4762624534972,226.79999999999998L1241.3604125911459,226.79999999999998L1255.2392441499255,226.79999999999998L1269.1149539341518,226.79999999999998L1283.0077756677829,226.79999999999998L1296.9364978087797,226.79999999999998L1310.8183355208332,226.79999999999998L1324.710810390625,226.79999999999998" style="fill: none;" fill="none"></path></g></g></g></g></g></g><g transform="translate(41, 378)" clip-path="url(#clip_1)"><clipPath id="clip_1"><rect width="1456" height="22"></rect></clipPath><g><g><line x1="0" y1="0" x2="0" y2="5" style="visibility: inherit;" fill="rgb(0, 0, 0)" stroke="rgb(204, 204, 204)" stroke-width="1px"></line><line x1="104.05915178571428" y1="0" x2="104.05915178571428" y2="5" style="visibility: inherit;" fill="rgb(0, 0, 0)" stroke="rgb(204, 204, 204)" stroke-width="1px"></line><line x1="208.11830357142856" y1="0" x2="208.11830357142856" y2="5" style="visibility: inherit;" fill="rgb(0, 0, 0)" stroke="rgb(204, 204, 204)" stroke-width="1px"></line><line x1="312.17745535714283" y1="0" x2="312.17745535714283" y2="5" style="visibility: inherit;" fill="rgb(0, 0, 0)" stroke="rgb(204, 204, 204)" stroke-width="1px"></line><line x1="416.2366071428571" y1="0" x2="416.2366071428571" y2="5" style="visibility: inherit;" fill="rgb(0, 0, 0)" stroke="rgb(204, 204, 204)" stroke-width="1px"></line><line x1="520.2957589285714" y1="0" x2="520.2957589285714" y2="5" style="visibility: inherit;" fill="rgb(0, 0, 0)" stroke="rgb(204, 204, 204)" stroke-width="1px"></line><line x1="624.3549107142857" y1="0" x2="624.3549107142857" y2="5" style="visibility: inherit;" fill="rgb(0, 0, 0)" stroke="rgb(204, 204, 204)" stroke-width="1px"></line><line x1="728.4140625" y1="0" x2="728.4140625" y2="5" style="visibility: inherit;" fill="rgb(0, 0, 0)" stroke="rgb(204, 204, 204)" stroke-width="1px"></line><line x1="832.4732142857142" y1="0" x2="832.4732142857142" y2="5" style="visibility: inherit;" fill="rgb(0, 0, 0)" stroke="rgb(204, 204, 204)" stroke-width="1px"></line><line x1="936.5323660714287" y1="0" x2="936.5323660714287" y2="5" style="visibility: inherit;" fill="rgb(0, 0, 0)" stroke="rgb(204, 204, 204)" stroke-width="1px"></line><line x1="1040.591517857143" y1="0" x2="1040.591517857143" y2="5" style="visibility: inherit;" fill="rgb(0, 0, 0)" stroke="rgb(204, 204, 204)" stroke-width="1px"></line><line x1="1144.650669642857" y1="0" x2="1144.650669642857" y2="5" style="visibility: inherit;" fill="rgb(0, 0, 0)" stroke="rgb(204, 204, 204)" stroke-width="1px"></line><line x1="1248.7098214285713" y1="0" x2="1248.7098214285713" y2="5" style="visibility: inherit;" fill="rgb(0, 0, 0)" stroke="rgb(204, 204, 204)" stroke-width="1px"></line><line x1="1352.7689732142858" y1="0" x2="1352.7689732142858" y2="5" style="visibility: inherit;" fill="rgb(0, 0, 0)" stroke="rgb(204, 204, 204)" stroke-width="1px"></line><line x1="1456.828125" y1="0" x2="1456.828125" y2="5" style="visibility: inherit;" fill="rgb(0, 0, 0)" stroke="rgb(204, 204, 204)" stroke-width="1px"></line></g><g transform="translate(0, 8)"><text x="0" y="0" dx="0em" dy="0.95em" style="text-anchor: middle; visibility: hidden; font-family: Roboto, sans-serif; font-size: 12px; font-weight: 200;" fill="rgb(50, 49, 63)" stroke="none" stroke-width="1px">-0.5</text><text x="104.05915178571428" y="0" dx="0em" dy="0.95em" style="text-anchor: middle; visibility: inherit; font-family: Roboto, sans-serif; font-size: 12px; font-weight: 200;" fill="rgb(50, 49, 63)" stroke="none" stroke-width="1px">0</text><text x="208.11830357142856" y="0" dx="0em" dy="0.95em" style="text-anchor: middle; visibility: inherit; font-family: Roboto, sans-serif; font-size: 12px; font-weight: 200;" fill="rgb(50, 49, 63)" stroke="none" stroke-width="1px">0.5</text><text x="312.17745535714283" y="0" dx="0em" dy="0.95em" style="text-anchor: middle; visibility: inherit; font-family: Roboto, sans-serif; font-size: 12px; font-weight: 200;" fill="rgb(50, 49, 63)" stroke="none" stroke-width="1px">1</text><text x="416.2366071428571" y="0" dx="0em" dy="0.95em" style="text-anchor: middle; visibility: inherit; font-family: Roboto, sans-serif; font-size: 12px; font-weight: 200;" fill="rgb(50, 49, 63)" stroke="none" stroke-width="1px">1.5</text><text x="520.2957589285714" y="0" dx="0em" dy="0.95em" style="text-anchor: middle; visibility: inherit; font-family: Roboto, sans-serif; font-size: 12px; font-weight: 200;" fill="rgb(50, 49, 63)" stroke="none" stroke-width="1px">2</text><text x="624.3549107142857" y="0" dx="0em" dy="0.95em" style="text-anchor: middle; visibility: inherit; font-family: Roboto, sans-serif; font-size: 12px; font-weight: 200;" fill="rgb(50, 49, 63)" stroke="none" stroke-width="1px">2.5</text><text x="728.4140625" y="0" dx="0em" dy="0.95em" style="text-anchor: middle; visibility: inherit; font-family: Roboto, sans-serif; font-size: 12px; font-weight: 200;" fill="rgb(50, 49, 63)" stroke="none" stroke-width="1px">3</text><text x="832.4732142857142" y="0" dx="0em" dy="0.95em" style="text-anchor: middle; visibility: inherit; font-family: Roboto, sans-serif; font-size: 12px; font-weight: 200;" fill="rgb(50, 49, 63)" stroke="none" stroke-width="1px">3.5</text><text x="936.5323660714287" y="0" dx="0em" dy="0.95em" style="text-anchor: middle; visibility: inherit; font-family: Roboto, sans-serif; font-size: 12px; font-weight: 200;" fill="rgb(50, 49, 63)" stroke="none" stroke-width="1px">4</text><text x="1040.591517857143" y="0" dx="0em" dy="0.95em" style="text-anchor: middle; visibility: inherit; font-family: Roboto, sans-serif; font-size: 12px; font-weight: 200;" fill="rgb(50, 49, 63)" stroke="none" stroke-width="1px">4.5</text><text x="1144.650669642857" y="0" dx="0em" dy="0.95em" style="text-anchor: middle; visibility: inherit; font-family: Roboto, sans-serif; font-size: 12px; font-weight: 200;" fill="rgb(50, 49, 63)" stroke="none" stroke-width="1px">5</text><text x="1248.7098214285713" y="0" dx="0em" dy="0.95em" style="text-anchor: middle; visibility: inherit; font-family: Roboto, sans-serif; font-size: 12px; font-weight: 200;" fill="rgb(50, 49, 63)" stroke="none" stroke-width="1px">5.5</text><text x="1352.7689732142858" y="0" dx="0em" dy="0.95em" style="text-anchor: middle; visibility: inherit; font-family: Roboto, sans-serif; font-size: 12px; font-weight: 200;" fill="rgb(50, 49, 63)" stroke="none" stroke-width="1px">6</text><text x="1456.828125" y="0" dx="0em" dy="0.95em" style="text-anchor: middle; visibility: hidden; font-family: Roboto, sans-serif; font-size: 12px; font-weight: 200;" fill="rgb(50, 49, 63)" stroke="none" stroke-width="1px">6.5</text></g><line x1="0" y1="0" x2="1456.828125" y2="0" fill="rgb(0, 0, 0)" stroke="rgb(204, 204, 204)" stroke-width="1px"></line></g></g></g></g></svg>