<svg viewBox="0 0 1498 400" xmlns="http://www.w3.org/2000/svg"><g><g><g><g><g><line x1="41.171875" y1="378" x2="36.171875" y2="378" style="visibility: inherit;" fill="rgb(0, 0, 0)" stroke="rgb(204, 204, 204)" stroke-width="1px"></line><line x1="41.171875" y1="348.9230769230769" x2="36.171875" y2="348.9230769230769" style="visibility: inherit;" fill="rgb(0, 0, 0)" stroke="rgb(204, 204, 204)" stroke-width="1px"></line><line x1="41.171875" y1="319.8461538461538" x2="36.171875" y2="319.8461538461538" style="visibility: inherit;" fill="rgb(0, 0, 0)" stroke="rgb(204, 204, 204)" stroke-width="1px"></line><line x1="41.171875" y1="290.7692307692307" x2="36.171875" y2="290.7692307692307" style="visibility: inherit;" fill="rgb(0, 0, 0)" stroke="rgb(204, 204, 204)" stroke-width="1px"></line><line x1="41.171875" y1="261.6923076923078" x2="36.171875" y2="261.6923076923078" style="visibility: inherit;" fill="rgb(0, 0, 0)" stroke="rgb(204, 204, 204)" stroke-width="1px"></line><line x1="41.171875" y1="232.61538461538464" x2="36.171875" y2="232.61538461538464" style="visibility: inherit;" fill="rgb(0, 0, 0)" stroke="rgb(204, 204, 204)" stroke-width="1px"></line><line x1="41.171875" y1="203.53846153846158" x2="36.171875" y2="203.53846153846158" style="visibility: inherit;" fill="rgb(0, 0, 0)" stroke="rgb(204, 204, 204)" stroke-width="1px"></line><line x1="41.171875" y1="174.46153846153848" x2="36.171875" y2="174.46153846153848" style="visibility: inherit;" fill="rgb(0, 0, 0)" stroke="rgb(204, 204, 204)" stroke-width="1px"></line><line x1="41.171875" y1="145.38461538461536" x2="36.171875" y2="145.38461538461536" style="visibility: inherit;" fill="rgb(0, 0, 0)" stroke="rgb(204, 204, 204)" stroke-width="1px"></line><line x1="41.171875" y1="116.30769230769239" x2="36.171875" y2="116.30769230769239" style="visibility: inherit;" fill="rgb(0, 0, 0)" stroke="rgb(204, 204, 204)" stroke-width="1px"></line><line x1="41.171875" y1="87.2307692307693" x2="36.171875" y2="87.2307692307693" style="visibility: inherit;" fill="rgb(0, 0, 0)" stroke="rgb(204, 204, 204)" stroke-width="1px"></line><line x1="41.171875" y1="58.153846153846196" x2="36.171875" y2="58.153846153846196" style="visibility: inherit;" fill="rgb(0, 0, 0)" stroke="rgb(204, 204, 204)" stroke-width="1px"></line><line x1="41.171875" y1="29.076923076923226" x2="36.171875" y2="29.076923076923226" style="visibility: inherit;" fill="rgb(0, 0, 0)" stroke="rgb(204, 204, 204)" stroke-width="1px"></line><line x1="41.171875" y1="0" x2="36.171875" y2="0" style="visibility: inherit;" fill="rgb(0, 0, 0)" stroke="rgb(204, 204, 204)" stroke-width="1px"></line></g><g transform="translate(31.171875, 0)"><text x="0" y="378" dx="0em" dy="0.3em" style="text-anchor: end; visibility: hidden; font-family: Roboto, sans-serif; font-size: 12px; font-weight: 200;" fill="rgb(50, 49, 63)" stroke="none" stroke-width="1px">5.8</text><text x="0" y="348.9230769230769" dx="0em" dy="0.3em" style="text-anchor: end; visibility: inherit; font-family: Roboto, sans-serif; font-size: 12px; font-weight: 200;" fill="rgb(50, 49, 63)" stroke="none" stroke-width="1px">6</text><text x="0" y="319.8461538461538" dx="0em" dy="0.3em" style="text-anchor: end; visibility: inherit; font-family: Roboto, sans-serif; font-size: 12px; font-weight: 200;" fill="rgb(50, 49, 63)" stroke="none" stroke-width="1px">6.2</text><text x="0" y="290.7692307692307" dx="0em" dy="0.3em" style="text-anchor: end; visibility: inherit; font-family: Roboto, sans-serif; font-size: 12px; font-weight: 200;" fill="rgb(50, 49, 63)" stroke="none" stroke-width="1px">6.4</text><text x="0" y="261.6923076923078" dx="0em" dy="0.3em" style="text-anchor: end; visibility: inherit; font-family: Roboto, sans-serif; font-size: 12px; font-weight: 200;" fill="rgb(50, 49, 63)" stroke="none" stroke-width="1px">6.6</text><text x="0" y="232.61538461538464" dx="0em" dy="0.3em" style="text-anchor: end; visibility: inherit; font-family: Roboto, sans-serif; font-size: 12px; font-weight: 200;" fill="rgb(50, 49, 63)" stroke="none" stroke-width="1px">6.8</text><text x="0" y="203.53846153846158" dx="0em" dy="0.3em" style="text-anchor: end; visibility: inherit; font-family: Roboto, sans-serif; font-size: 12px; font-weight: 200;" fill="rgb(50, 49, 63)" stroke="none" stroke-width="1px">7</text><text x="0" y="174.46153846153848" dx="0em" dy="0.3em" style="text-anchor: end; visibility: inherit; font-family: Roboto, sans-serif; font-size: 12px; font-weight: 200;" fill="rgb(50, 49, 63)" stroke="none" stroke-width="1px">7.2</text><text x="0" y="145.38461538461536" dx="0em" dy="0.3em" style="text-anchor: end; visibility: inherit; font-family: Roboto, sans-serif; font-size: 12px; font-weight: 200;" fill="rgb(50, 49, 63)" stroke="none" stroke-width="1px">7.4</text><text x="0" y="116.30769230769239" dx="0em" dy="0.3em" style="text-anchor: end; visibility: inherit; font-family: Roboto, sans-serif; font-size: 12px; font-weight: 200;" fill="rgb(50, 49, 63)" stroke="none" stroke-width="1px">7.6</text><text x="0" y="87.2307692307693" dx="0em" dy="0.3em" style="text-anchor: end; visibility: inherit; font-family: Roboto, sans-serif; font-size: 12px; font-weight: 200;" fill="rgb(50, 49, 63)" stroke="none" stroke-width="1px">7.8</text><text x="0" y="58.153846153846196" dx="0em" dy="0.3em" style="text-anchor: end; visibility: inherit; font-family: Roboto, sans-serif; font-size: 12px; font-weight: 200;" fill="rgb(50, 49, 63)" stroke="none" stroke-width="1px">8</text><text x="0" y="29.076923076923226" dx="0em" dy="0.3em" style="text-anchor: end; visibility: inherit; font-family: Roboto, sans-serif; font-size: 12px; font-weight: 200;" fill="rgb(50, 49, 63)" stroke="none" stroke-width="1px">8.2</text><text x="0" y="0" dx="0em" dy="0.3em" style="text-anchor: end; visibility: hidden; font-family: Roboto, sans-serif; font-size: 12px; font-weight: 200;" fill="rgb(50, 49, 63)" stroke="none" stroke-width="1px">8.4</text></g><line x1="41.171875" y1="0" x2="41.171875" y2="378" fill="rgb(0, 0, 0)" stroke="rgb(204, 204, 204)" stroke-width="1px"></line></g></g><g transform="translate(41, 0)" clip-path="url(#clip_0)"><clipPath id="clip_0"><rect width="1456" height="378"></rect></clipPath><g><g><g><line x1="0" y1="0" x2="0" y2="378" fill="rgb(0, 0, 0)" stroke="rgb(60, 60, 60)" stroke-width="1px" opacity="0.25"></line><line x1="121.40234375" y1="0" x2="121.40234375" y2="378" fill="rgb(0, 0, 0)" stroke="rgb(60, 60, 60)" stroke-width="1px" opacity="0.25"></line><line x1="242.8046875" y1="0" x2="242.8046875" y2="378" fill="rgb(0, 0, 0)" stroke="rgb(60, 60, 60)" stroke-width="1px" opacity="0.25"></line><line x1="364.20703125" y1="0" x2="364.20703125" y2="378" fill="rgb(0, 0, 0)" stroke="rgb(60, 60, 60)" stroke-width="1px" opacity="0.25"></line><line x1="485.609375" y1="0" x2="485.609375" y2="378" fill="rgb(0, 0, 0)" stroke="rgb(60, 60, 60)" stroke-width="1px" opacity="0.25"></line><line x1="607.01171875" y1="0" x2="607.01171875" y2="378" fill="rgb(0, 0, 0)" stroke="rgb(60, 60, 60)" stroke-width="1px" opacity="0.25"></line><line x1="728.4140625" y1="0" x2="728.4140625" y2="378" fill="rgb(0, 0, 0)" stroke="rgb(60, 60, 60)" stroke-width="1px" opacity="0.25"></line><line x1="849.81640625" y1="0" x2="849.81640625" y2="378" fill="rgb(0, 0, 0)" stroke="rgb(60, 60, 60)" stroke-width="1px" opacity="0.25"></line><line x1="971.21875" y1="0" x2="971.21875" y2="378" fill="rgb(0, 0, 0)" stroke="rgb(60, 60, 60)" stroke-width="1px" opacity="0.25"></line><line x1="1092.62109375" y1="0" x2="1092.62109375" y2="378" fill="rgb(0, 0, 0)" stroke="rgb(60, 60, 60)" stroke-width="1px" opacity="0.25"></line><line x1="1214.0234375" y1="0" x2="1214.0234375" y2="378" fill="rgb(0, 0, 0)" stroke="rgb(60, 60, 60)" stroke-width="1px" opacity="0.25"></line><line x1="1335.42578125" y1="0" x2="1335.42578125" y2="378" fill="rgb(0, 0, 0)" stroke="rgb(60, 60, 60)" stroke-width="1px" opacity="0.25"></line><line x1="1456.828125" y1="0" x2="1456.828125" y2="378" fill="rgb(0, 0, 0)" stroke="rgb(60, 60, 60)" stroke-width="1px" opacity="0.25"></line></g><g><line x1="0" y1="378" x2="1456.828125" y2="378" fill="rgb(0, 0, 0)" stroke="rgb(60, 60, 60)" stroke-width="1px" opacity="0.25"></line><line x1="0" y1="348.9230769230769" x2="1456.828125" y2="348.9230769230769" fill="rgb(0, 0, 0)" stroke="rgb(60, 60, 60)" stroke-width="1px" opacity="0.25"></line><line x1="0" y1="319.8461538461538" x2="1456.828125" y2="319.8461538461538" fill="rgb(0, 0, 0)" stroke="rgb(60, 60, 60)" stroke-width="1px" opacity="0.25"></line><line x1="0" y1="290.7692307692307" x2="1456.828125" y2="290.7692307692307" fill="rgb(0, 0, 0)" stroke="rgb(60, 60, 60)" stroke-width="1px" opacity="0.25"></line><line x1="0" y1="261.6923076923078" x2="1456.828125" y2="261.6923076923078" fill="rgb(0, 0, 0)" stroke="rgb(60, 60, 60)" stroke-width="1px" opacity="0.25"></line><line x1="0" y1="232.61538461538464" x2="1456.828125" y2="232.61538461538464" fill="rgb(0, 0, 0)" stroke="rgb(60, 60, 60)" stroke-width="1px" opacity="0.25"></line><line x1="0" y1="203.53846153846158" x2="1456.828125" y2="203.53846153846158" fill="rgb(0, 0, 0)" stroke="rgb(60, 60, 60)" stroke-width="1px" opacity="0.25"></line><line x1="0" y1="174.46153846153848" x2="1456.828125" y2="174.46153846153848" fill="rgb(0, 0, 0)" stroke="rgb(60, 60, 60)" stroke-width="1px" opacity="0.25"></line><line x1="0" y1="145.38461538461536" x2="1456.828125" y2="145.38461538461536" fill="rgb(0, 0, 0)" stroke="rgb(60, 60, 60)" stroke-width="1px" opacity="0.25"></line><line x1="0" y1="116.30769230769239" x2="1456.828125" y2="116.30769230769239" fill="rgb(0, 0, 0)" stroke="rgb(60, 60, 60)" stroke-width="1px" opacity="0.25"></line><line x1="0" y1="87.2307692307693" x2="1456.828125" y2="87.2307692307693" fill="rgb(0, 0, 0)" stroke="rgb(60, 60, 60)" stroke-width="1px" opacity="0.25"></line><line x1="0" y1="58.153846153846196" x2="1456.828125" y2="58.153846153846196" fill="rgb(0, 0, 0)" stroke="rgb(60, 60, 60)" stroke-width="1px" opacity="0.25"></line><line x1="0" y1="29.076923076923226" x2="1456.828125" y2="29.076923076923226" fill="rgb(0, 0, 0)" stroke="rgb(60, 60, 60)" stroke-width="1px" opacity="0.25"></line><line x1="0" y1="0" x2="1456.828125" y2="0" fill="rgb(0, 0, 0)" stroke="rgb(60, 60, 60)" stroke-width="1px" opacity="0.25"></line></g></g></g><g><g><line x1="0" y1="1221.230769230769" x2="1456.828125" y2="1221.230769230769" fill="rgb(0, 0, 0)" stroke="rgb(153, 153, 153)" stroke-width="1.5px"></line></g></g><g><g><line x1="121.40234375" y1="0" x2="121.40234375" y2="378" fill="rgb(0, 0, 0)" stroke="rgb(153, 153, 153)" stroke-width="1.5px"></line></g></g><g><g><g><g><g><path stroke="rgb(238, 51, 119)" stroke-width="2px" d="M166.07840625,394.4723949413245L170.93449999999999,368.34082134198167L175.79059375,354.7088882530957L180.64668749999998,317.4210941632402L185.50278125,288.30693723206963L190.35887499999998,253.40295102774354L195.21496875000003,220.84184363959474L200.0710625,179.98587871601703L204.92715625,150.63272181016328L209.78324999999998,143.68663288992744L214.63934375000002,144.36586173129083L219.4954375,149.6197128252166L224.35153125,168.2799182588619L229.20762499999998,191.10671848999553L234.06371875000002,210.61803133457803L238.9198125,227.17090647788646L243.77590625,245.82566090518603L248.632,248.2954099993573L253.48809375,237.17724201492044L258.34418750000003,242.1371137882282L263.20028125,259.65150179813656L268.056375,261.43704607646805L272.91246874999996,250.87761270927712L277.76856250000003,245.5111696424579L282.62465625,252.95284674367832L287.48075,258.3870965146112L292.33684375,269.4014851700207L297.19293749999997,285.7024167910588L302.04903125,279.0060543258431L306.905125,281.7728596776883L311.76121875,291.1867816586975L316.61731249999997,262.9120763520662L321.47340625000004,256.6087953596885L326.3295,240.22682491277294L331.18559375,229.42839893953158L336.04168749999997,199.68779934603094L340.89778125000004,197.35114484315926L345.753875,202.73377492127415L350.60996875,213.71719172742047L355.46606249999996,213.52261903143358L360.32215625,218.25203850336828L365.17825,215.2743111170397L370.03434375,191.1953466575715L374.8904375,163.17875015332191L379.74653125,167.69187656858233L384.60262500000005,164.58434561841105L389.45871874999995,168.5352338476304L394.3148125,188.35190399337188L399.17090625000003,183.76498485254632L404.027,175.19745429864906L408.88309375,192.34923626397705L413.73918749999996,212.33263162209104L418.59528124999997,212.6918829682404L423.45137500000004,223.56897593479056L428.30746875,223.310608935461L433.1635625,217.34020966646187L438.01965625,192.43488578734144L442.87575,179.43015114966968L447.73184375,161.935011918064L452.58793749999995,165.00717393761929L457.44403125,173.63506619869676L462.30012500000004,201.1041295829218L467.15621875,205.9547817447389L472.0123125,214.68055211123084L476.86840624999996,189.86987527425987L481.7245,178.86038855167854L486.58059375000005,175.16239991778798L491.4366875,191.3589876555162L496.29278125,193.3230738090361L501.148875,220.6707729083278L506.00496875,234.1716889682445L510.8610625,239.364562934451L515.71715625,225.03412237605522L520.57325,212.55893866141665L525.42934375,213.79691090169337L530.2854375,184.49352745907873L535.1415312500001,166.91149739350988L539.997625,170.90074089263004L544.85371875,168.44812390264352L549.7098125,175.6996361777114L554.56590625,194.58900508121368L559.422,189.445705195053L564.2780937499999,161.15972156603473L569.1341874999999,157.75737694714218L573.9902812500001,158.62364584555024L578.846375,158.17419120465212L583.70246875,169.5352765589166L588.5585625,168.59808901227308L593.41465625,170.94347988394517L598.27075,170.41225471714773L603.1268437499999,159.43197745820888L607.9829375,169.32073233110765L612.8390312500001,168.46936247558767L617.695125,161.17391778301644L622.55121875,169.39665281613466L627.4073125,173.3610778560625L632.26340625,176.70894885996216L637.1195,142.85612560611963L641.97559375,136.1136772123328L646.8316875,118.49896261754208L651.6877812500001,112.77629695012648L656.543875,131.63499784734077L661.39996875,152.64254456458693L666.2560625,155.55474641601708L671.11215625,153.42514814727406L675.96825,161.83971536494585L680.82434375,163.98075229589057L685.6804375,162.35767105479928L690.5365312499999,172.04536446900482L695.392625,148.78105744060517L700.2487187500001,138.69939260316636L705.1048125,132.6503937007033L709.96090625,113.51331684082082L714.817,109.78490948409352L719.67309375,114.33248784931662L724.5291875,125.7841173375102L729.38528125,135.56277070016998L734.2413750000001,147.24534178716743L739.09746875,154.2548844393659L743.9535625000001,135.1990937530784L748.80965625,135.39637748010915L753.66575,128.73012493706824L758.5218437500001,118.91499434184215L763.3779375,124.65670185342451L768.2340312499999,131.97864573997495L773.090125,115.04872775418434L777.9462187500001,121.36769819097222L782.8023125,131.94370323230424L787.65840625,134.41238687750229L792.5145000000001,121.35513552615963L797.37059375,125.1515428541573L802.2266874999999,140.0293890996169L807.08278125,152.83301622649378L811.938875,156.63827312301873L816.79496875,176.3675921990535L821.6510625,193.0513190042183L826.50715625,192.40001292845682L831.36325,183.28617454385483L836.2193437499999,194.29479274135568L841.0754375,206.71534272925794L845.93153125,206.41383396279699L850.7876249999999,215.92522715192325L855.6437187500001,215.81668399599735L860.4998125,204.1207722337237L865.35590625,198.07246888621717L870.2120000000001,191.53578347805495L875.06809375,184.70609656341435L879.9241875,191.26979884357553L884.7802812499999,199.08496732118817L889.636375,201.83560871795518L894.49246875,218.99367107441978L899.3485625,220.56542601923877L904.2046562500001,218.60080331638662L909.06075,207.72970351575782L913.91684375,201.20704363538056L918.7729375,193.41652832755307L923.62903125,147.0652942172725L928.4851249999999,129.9160959099646L933.34121875,116.71890125583641L938.1973125000001,104.92363735384365L943.05340625,111.41572457116665L947.9095,135.66481750942359L952.76559375,153.1219766720359L957.6216875,179.10394968800773L962.4777812499999,197.60083689724917L967.333875,201.91434644353467L972.18996875,226.7947524689697L977.0460625,261.1076207121511L981.9021562500001,251.6491748712791L986.75825,224.65105077894992L991.61434375,223.9598538419567L996.4704375000001,202.22207909195467L1001.32653125,163.97941054463166L1006.182625,162.35686600404395L1011.0387187499999,187.55258668687082L1015.8948125000001,185.22385415844724L1020.75090625,207.08815864891446L1025.607,231.83749948199812L1030.46309375,247.65634769170597L1035.3191875,262.9630356869323L1040.17528125,246.9470447867463L1045.031375,242.18361333609343L1049.88746875,219.9409298377814L1054.7435625,199.81072468944961L1059.5996562500002,193.5479806698521L1064.45575,214.99033795541575L1069.31184375,223.97880521723806L1074.1679374999999,218.7103711453857L1079.02403125,224.27236544141925L1083.880125,220.82496696969488L1088.73621875,203.2488226383411L1093.5923125000002,201.4262185085888L1098.44840625,193.54803325147796L1103.3045,194.6365011666132L1108.16059375,193.3511222258938L1113.0166875,210.0260597995819L1117.87278125,202.58485740567494L1122.728875,201.02783936898908L1127.5849687500001,200.09362854697744L1132.4410625,219.8869426616337L1137.29715625,229.82447144062698L1142.15325,232.87928530836467L1147.00934375,230.8352542494063L1151.8654374999999,217.97807747522776L1156.72153125,210.26377141072072L1161.577625,207.5736474618169L1166.43371875,196.26727464347212L1171.2898125000002,194.32958631200916L1176.14590625,186.3823782637868L1181.002,175.79864663553693L1185.8580937499999,188.8330322865073L1190.7141875,211.19212521555107L1195.5702812499999,212.97682283417407L1200.426375,223.73993985435067L1205.2824687500001,217.59780821779563L1210.1385625,208.09715016646092L1214.99465625,200.4582956458594L1219.85075,216.22882354136186L1224.70684375,231.50651934806487L1229.5629374999999,234.85775776268505L1234.41903125,225.2377426726539L1239.2751250000001,212.68111083937572L1244.13121875,223.56251265747161L1248.9873125,198.10672727174781L1253.84340625,199.31017726857561L1258.6995,183.55532603841024L1263.5555937499998,185.73320116902903L1268.4116875,194.79376500660254L1273.26778125,214.76856484760825L1278.123875,248.0765290699325L1282.9799687500001,265.153604203669L1287.8360625,265.7075508349081L1292.69215625,267.97837850345195L1297.54825,264.49471201511955L1302.40434375,206.18912565807457L1307.2604375,133.40576829786457L1312.11653125,74.22807636333414L1316.972625,38.72146120261604L1321.82871875,25.171330865387354L1326.6848125,101.3643462240758L1331.54090625,159.68015728794973L1336.397,190.79269681675845L1341.25309375,213.3371676435595L1346.1091875,209.41768520152033L1350.96528125,200.2813729570375L1355.821375,177.35344840214276L1360.6774687500001,167.47361304880704L1365.5335625,151.85338565788805L1370.38965625,146.3581963328525L1375.2457499999998,135.3072162487144L1380.10184375,125.76895252848804L1384.9579375,101.63061337828948L1389.81403125,94.90144864737255L1394.670125,89.89470609896479L1399.52621875,76.22914614097444L1404.3823125,70.93748583592375" style="fill: none;" fill="none"></path></g><g><path stroke="rgb(51, 187, 238)" stroke-width="2px" d="M161.2223125,416.1023234563131L166.07840625,332.16938776872604L170.93449999999999,256.0258464118611L175.79059375,219.39027443761088L180.64668749999998,249.9468260759318L185.50278125,280.85461165875085L190.35887499999998,318.7732545508808L195.21496875000003,346.3538567330901L200.0710625,367.7414190833521L204.92715625,328.2227665549301L209.78324999999998,299.6692289700237L214.63934375000002,259.2760009069033L219.4954375,211.7792449055512L224.35153125,188.1285721272109L229.20762499999998,194.29260902381498L234.06371875000002,204.77565559672007L238.9198125,211.0654305560283L243.77590625,216.77774165832645L248.632,212.45126594006112L253.48809375,209.85538523241993L258.34418750000003,222.83632897467837L263.20028125,216.0864232230025L268.056375,195.55952876290584L272.91246874999996,163.85879552188024L277.76856250000003,159.37682096394425L282.62465625,121.79533264497333L287.48075,91.4926018207694L292.33684375,76.21861187171413L297.19293749999997,84.50041091830813L302.04903125,86.56178687394154L306.905125,131.41399721649393L311.76121875,167.04840580393076L316.61731249999997,173.89058934768696L321.47340625000004,171.21127668338636L326.3295,167.66522939544782L331.18559375,159.7222219526961L336.04168749999997,138.47949625739628L340.89778125000004,132.51845589262146L345.753875,138.63415785367522L350.60996875,152.96512118932284L355.46606249999996,175.13291701927653L360.32215625,199.09513667593436L365.17825,219.28784753917103L370.03434375,244.00347590573082L374.8904375,254.95593354597753L379.74653125,248.92740628142198L384.60262500000005,228.8333686944163L389.45871874999995,235.19232706030053L394.3148125,234.1615389903677L399.17090625000003,250.98923108653221L404.027,257.2089269646268L408.88309375,265.7869075809421L413.73918749999996,268.02599255107265L418.59528124999997,264.5232804436919L423.45137500000004,250.79089504046004L428.30746875,223.16683917060035L433.1635625,186.23856504082158L438.01965625,168.92776365241312L442.87575,151.7566600401089L447.73184375,149.20783663192856L452.58793749999995,165.12470752514022L457.44403125,171.76712666140884L462.30012500000004,180.5987412326287L467.15621875,184.92846626550306L472.0123125,176.86475912636735L476.86840624999996,175.90348195240165L481.7245,162.7267137993613L486.58059375000005,160.63603197693877L491.4366875,154.5354597940265L496.29278125,118.89051773761251L501.148875,83.9343069452456L506.00496875,84.2836647875462L510.8610625,87.40095516267013L515.71715625,97.99441185680442L520.57325,134.39665266006566L525.42934375,159.14567281176573L530.2854375,178.84124799224475L535.1415312500001,197.44321587979127L539.997625,183.40439291499726L544.85371875,165.28880068711808L549.7098125,158.29636472999175L554.56590625,129.87011543833688L559.422,116.6913129728598L564.2780937499999,152.39941610895815L569.1341874999999,175.76273768041767L573.9902812500001,183.96532382397695L578.846375,182.1022804607681L583.70246875,162.56907352478007L588.5585625,143.09528287407025L593.41465625,134.31871188330257L598.27075,107.7296849711211L603.1268437499999,127.63781467999462L607.9829375,130.8596100362589L612.8390312500001,152.17731187793763L617.695125,176.59869112174837L622.55121875,183.4976799088325L627.4073125,175.037071332422L632.26340625,181.59146432537906L637.1195,181.64718074155212L641.97559375,173.92677183205382L646.8316875,198.37144956327782L651.6877812500001,144.22286788930577L656.543875,112.70296259478025L661.39996875,103.48331786706771L666.2560625,73.72077104297578L671.11215625,69.43246077712443L675.96825,145.36716137932308L680.82434375,185.1126026712406L685.6804375,198.29832528753076L690.5365312499999,201.36362349776078L695.392625,172.1873919272603L700.2487187500001,144.98935453595726L705.1048125,112.19361087291333L709.96090625,123.53154744181064L714.817,148.74969030121173L719.67309375,189.0805797141743L724.5291875,199.70989553334795L729.38528125,200.27207822553564L734.2413750000001,185.1017103224439L739.09746875,161.4610280421273L743.9535625000001,136.61507651507694L748.80965625,147.87672527611167L753.66575,154.63371453273243L758.5218437500001,166.4417745758219L763.3779375,173.52661060167554L768.2340312499999,193.28518973559213L773.090125,200.29420185639808L777.9462187500001,196.7457426397647L782.8023125,191.7089914400412L787.65840625,178.0253985613467L792.5145000000001,158.18445696541184L797.37059375,141.43375664830708L802.2266874999999,129.44487676824363L807.08278125,119.34384544054738L811.938875,119.09860571333125L816.79496875,108.28991971814116L821.6510625,110.52779059008701L826.50715625,111.8705131132545L831.36325,124.30693249587299L836.2193437499999,135.64570350504513L841.0754375,148.26434517995014L845.93153125,164.558612653953L850.7876249999999,159.79671159989317L855.6437187500001,83.27801956529196L860.4998125,43.18221114384761L865.35590625,19.12472609098102L870.2120000000001,2.75174763954574L875.06809375,-17.733581590175817L879.9241875,35.88293351495454L884.7802812499999,67.08359886817505L889.636375,85.8039980801074L894.49246875,63.113179170799526L899.3485625,80.5140705919385L904.2046562500001,94.83152482422308L909.06075,102.4527536537362L913.91684375,101.21011188204234L918.7729375,120.8183674268892L923.62903125,109.32177674627584L928.4851249999999,76.25463039055775L933.34121875,46.72201639820937L938.1973125000001,37.72550274194544L943.05340625,24.57375578898482L947.9095,38.975035644787106L952.76559375,72.8157795256757L957.6216875,107.65868739267025L962.4777812499999,113.0567545944626L967.333875,111.44943182607925L972.18996875,110.48503816504933L977.0460625,91.49102105036867L981.9021562500001,101.41769509928116L986.75825,87.98907490070833L991.61434375,91.56268865028267L996.4704375000001,99.52223596942895L1001.32653125,92.66717849219863L1006.182625,86.61568431605984L1011.0387187499999,96.55403336889529L1015.8948125000001,111.24012526965633L1020.75090625,130.7132948390587L1025.607,146.27414369021585L1030.46309375,160.45678836045423L1035.3191875,138.92023610573133L1040.17528125,125.99830475289767L1045.031375,107.58360378233684L1049.88746875,109.13478504866151L1054.7435625,107.15779040879805L1059.5996562500002,121.47929887319906L1064.45575,135.8875830212414L1069.31184375,160.0402310284712L1074.1679374999999,151.27030355520247L1079.02403125,125.65447873346322L1083.880125,112.22344353022035L1088.73621875,102.22636271847405L1093.5923125000002,73.93581393376243L1098.44840625,75.37686558099817L1103.3045,89.81074212785823L1108.16059375,43.22492530178622L1113.0166875,6.550325007168465L1117.87278125,-16.423651149545197L1127.5849687500001,-16.76789755029221L1132.4410625,64.57002330595L1137.29715625,125.97277766835619" style="fill: none;" fill="none"></path></g><g><path stroke="rgb(187, 187, 187)" stroke-width="2px" d="M151.510125,380.86883254303547L156.36621875,301.9109908341422L161.2223125,259.91820182299176L166.07840625,216.57567226455546L170.93449999999999,150.87116436670192L175.79059375,116.5674877523614L180.64668749999998,119.37736728635605L185.50278125,120.08889183111044L190.35887499999998,130.2151110335621L195.21496875000003,191.55792017987554L200.0710625,239.97918150870115L204.92715625,272.90077004076556L209.78324999999998,305.2514380159285L214.63934375000002,315.93612188114685L219.4954375,337.85478774813066L224.35153125,351.00547437313253L229.20762499999998,353.0802461012673L234.06371875000002,349.4788902991954L238.9198125,343.44115727026485L243.77590625,307.83381835271643L248.632,297.13104013675417L253.48809375,255.8170470333619L258.34418750000003,238.78252175419922L263.20028125,230.50027368565753L268.056375,247.82323202349895L272.91246874999996,268.87854814827864L277.76856250000003,281.51173603571027L282.62465625,291.0301079070582L287.48075,284.1411285293077L292.33684375,280.97698475549845L297.19293749999997,291.67850050464784L302.04903125,276.7763254338122L306.905125,267.83502045033424L311.76121875,272.1625636820073L316.61731249999997,273.7898459036873L321.47340625000004,264.1046730678918L326.3295,258.29356937138584L331.18559375,249.96074406441383L336.04168749999997,231.39183105081597L340.89778125000004,207.6504813947454L345.753875,184.68258913307872L350.60996875,172.8403134668684L355.46606249999996,152.16573023851728L360.32215625,139.7609803018038L365.17825,133.2873463198331L370.03434375,119.71086748163474L374.8904375,91.21113957083536L379.74653125,90.58822405269946L384.60262500000005,97.96831350102914L389.45871874999995,87.85790563155136L394.3148125,84.69936430952798L399.17090625000003,109.94270290344336L404.027,116.36562359072778L408.88309375,128.9424584721586L413.73918749999996,158.78085969868113L418.59528124999997,196.06852506251468L423.45137500000004,193.24112058349175L428.30746875,196.39081325562202L433.1635625,204.09603565821664L438.01965625,187.3960847820525L442.87575,176.40687054649632L447.73184375,189.19796663308296L452.58793749999995,185.2418661462316L457.44403125,178.99128647451974L462.30012500000004,164.579396512632L467.15621875,148.1783960463825L472.0123125,153.84550101495202L476.86840624999996,167.90730615495414L481.7245,175.37514552909784L486.58059375000005,187.60971564270093L491.4366875,210.4581352292673L496.29278125,218.35180791180542L501.148875,216.30338874206907L506.00496875,209.25895817082557L510.8610625,208.9092192076806L515.71715625,187.3762915120727L520.57325,182.21040138382492L525.42934375,180.0800832868191L530.2854375,182.67881180821672L535.1415312500001,176.48421016185304L539.997625,190.2136141121547L544.85371875,207.17431122148068L549.7098125,207.6584310380736L554.56590625,208.918146637887L559.422,199.9816498188575L564.2780937499999,200.4351307968415L569.1341874999999,184.23029815536984L573.9902812500001,139.6150964241621L578.846375,134.1690597031583L583.70246875,131.87065365049887L588.5585625,111.10701312089769L593.41465625,101.55650447288048L598.27075,108.42620113273108L603.1268437499999,109.64034345889796L607.9829375,98.73804298588009L612.8390312500001,119.3351260891919L617.695125,132.66261966103647L622.55121875,151.32065796300367L627.4073125,145.06931600606435L632.26340625,153.91851268056172L637.1195,157.2895709954595L641.97559375,144.7737444459368L646.8316875,152.77192603462754L651.6877812500001,173.07854023616116L656.543875,175.57021030807854L661.39996875,153.80366834370756L666.2560625,164.00528717260627L671.11215625,171.09547444988848L675.96825,166.62650434719802L680.82434375,182.36053093356108L685.6804375,213.12400347318507L690.5365312499999,223.8282482377572L695.392625,231.22003880635822L700.2487187500001,223.05511129885784L705.1048125,206.5253689256394L709.96090625,198.54598319150887L714.817,197.6352711306317L719.67309375,195.15038420430483L724.5291875,214.9825363662296L729.38528125,235.60491013244436L734.2413750000001,231.50141316391108L739.09746875,210.62393406472847L743.9535625000001,161.26665703917885L748.80965625,123.89845206464685L753.66575,79.18522878226395L758.5218437500001,65.92654037135291L763.3779375,75.41746453301131L768.2340312499999,120.85048426578985L773.090125,141.32567332619746L777.9462187500001,154.58003047229982L782.8023125,154.7787782708443L787.65840625,151.99035128022737L792.5145000000001,160.9788372447176L797.37059375,199.3257712799359L802.2266874999999,223.30314768100996L807.08278125,249.3203593903725L811.938875,279.4691479544514L816.79496875,297.5584210928988L821.6510625,285.15044096844593L826.50715625,266.07486702505616" style="fill: none;" fill="none"></path></g><g><path stroke="rgb(0, 153, 136)" stroke-width="2px" d="M156.36621875,398.4481158802946L161.2223125,359.5697114784671L166.07840625,308.2709967894415L170.93449999999999,275.8743912528343L175.79059375,263.37158076698745L180.64668749999998,249.09956445156533L185.50278125,239.5857800927392L190.35887499999998,227.09552447642164L195.21496875000003,223.48638140576034L200.0710625,221.32198192736124L204.92715625,225.84009667650156L209.78324999999998,221.76519186358817L214.63934375000002,202.8425885274693L219.4954375,168.22736999830772L224.35153125,135.82800785611846L229.20762499999998,89.25005258982168L234.06371875000002,101.04242313080996L238.9198125,135.2563778333757L243.77590625,177.10779183864693L248.632,222.5724394192793L253.48809375,258.5742697298634L258.34418750000003,285.9907269743768L263.20028125,299.53291380476077L268.056375,310.56589902213256L272.91246874999996,313.30876869767553L277.76856250000003,290.7237283542441L282.62465625,254.8803762064829L287.48075,211.08206507687973L292.33684375,193.52616182125254L297.19293749999997,195.59262203964994L302.04903125,215.24787918907623L306.905125,235.7641159023329L311.76121875,250.0123175756506L316.61731249999997,252.7458594821498L321.47340625000004,229.18598090617718L326.3295,156.89620759085565L331.18559375,126.12234547622609L336.04168749999997,114.44265099356993L340.89778125000004,106.4655905953129L345.753875,73.5716472581562L350.60996875,80.973744645313L355.46606249999996,65.06116246910969L360.32215625,59.390532543269615L365.17825,54.04972262791319L370.03434375,119.66059726185229L374.8904375,183.25790975946185L379.74653125,246.61627322536026L384.60262500000005,259.43131533739506L389.45871874999995,280.68955843321964L394.3148125,268.2445005933744L399.17090625000003,240.42362528160237L404.027,216.94647731528292L408.88309375,214.49097440421247L413.73918749999996,204.29459018850994L418.59528124999997,213.68443717749366L423.45137500000004,257.1183509168673L428.30746875,275.4248604012888L433.1635625,229.22413591803775L438.01965625,172.42677815116429L442.87575,127.68684906209444L447.73184375,92.11980913959293L452.58793749999995,52.36420426802929L457.44403125,86.66468749893747L462.30012500000004,137.2911164943481L467.15621875,166.6977579116516L472.0123125,181.4340393623755L476.86840624999996,168.952723915089L481.7245,169.21780113583418L486.58059375000005,137.39222099169984L491.4366875,120.23533259502004L496.29278125,113.81811893661309L501.148875,116.75241352082837L506.00496875,116.57453058155691L510.8610625,138.76010111565776L515.71715625,163.70220157492167L520.57325,153.46748588307273L525.42934375,159.9266583166243L530.2854375,151.20215992809435L535.1415312500001,130.45975564665713L539.997625,98.62968844987456L544.85371875,93.10089369032357L549.7098125,91.72207652439356L554.56590625,97.67940900409488L559.422,100.28456478205814L564.2780937499999,101.84765824883607L569.1341874999999,106.66243370850398L573.9902812500001,115.3666780537064L578.846375,125.43538775028658L583.70246875,130.50739758829167L588.5585625,167.4736619275618L593.41465625,168.33036394331774L598.27075,172.7213045323724L603.1268437499999,173.4174091960047L607.9829375,176.74274766392756L612.8390312500001,171.95332796542195L617.695125,168.1104601663757L622.55121875,174.5278219560077L627.4073125,164.80899347126845L632.26340625,144.4392348419632L637.1195,141.9097058432977L641.97559375,145.23812380364245L646.8316875,142.38903922030516L651.6877812500001,164.91034845776704L656.543875,192.9615955387058L661.39996875,215.6077228566707L666.2560625,224.34923615799084L671.11215625,210.2095472407774L675.96825,176.52573019312752L680.82434375,157.28465594448042L685.6804375,146.70925510514988L690.5365312499999,142.302474291352L695.392625,160.98149012079423L700.2487187500001,182.85044177732L705.1048125,188.21794628211833L709.96090625,193.37690867479787L714.817,186.77998766140288L719.67309375,184.7602947431664L724.5291875,202.93310362014492L729.38528125,194.45216431841166L734.2413750000001,181.60976197816944L739.09746875,186.50432242268516L743.9535625000001,199.1333571383973L748.80965625,218.34156383654272L753.66575,221.1434053863701L758.5218437500001,223.79372629620931L763.3779375,230.23008193157176L768.2340312499999,234.09189531278926L773.090125,247.0705255003801L777.9462187500001,258.73462299253583L782.8023125,263.79462179802863L787.65840625,261.98445799186555L792.5145000000001,256.0522243486237L797.37059375,248.61593705316272L802.2266874999999,255.78495054460427L807.08278125,250.39406019046643L811.938875,228.74411733000622L816.79496875,218.66185501338836L821.6510625,219.39712040267696L826.50715625,203.361358407988L831.36325,206.33990305983556L836.2193437499999,205.21932645128587L841.0754375,190.0085189476945L845.93153125,162.4666535274772L850.7876249999999,154.66461674440657L855.6437187500001,142.22952818544724L860.4998125,143.49155751913156L865.35590625,136.49493636013995L870.2120000000001,158.46618334200974L875.06809375,170.67971555118885L879.9241875,160.56166993857656L884.7802812499999,164.18316874992658L889.636375,173.14066308608128L894.49246875,163.97669814931254L899.3485625,148.78602073824857L904.2046562500001,131.9177755324079L909.06075,112.10450222998598L913.91684375,105.0627013379917L918.7729375,93.08378204359288L923.62903125,75.2348883080931L928.4851249999999,68.40247144639432L933.34121875,66.24148101917558L938.1973125000001,80.45259201116363L943.05340625,109.33309921421959L947.9095,132.47678260545484L952.76559375,173.50145602731848L957.6216875,179.70087916237412L962.4777812499999,177.60515397400582L967.333875,191.85539637938916L972.18996875,191.68245935355932L977.0460625,185.76331806865977L981.9021562500001,167.67337175925846L986.75825,122.8963455371507L991.61434375,90.21472300456955L996.4704375000001,52.19036856695818L1001.32653125,29.375755904391436L1006.182625,21.502395106167825L1011.0387187499999,39.07067892489731L1015.8948125000001,51.550108905935694L1020.75090625,89.08390595142458L1025.607,111.60418417871797L1030.46309375,117.36251235589178L1035.3191875,124.69442864179726L1040.17528125,82.57051812821237L1045.031375,59.23460377994725L1049.88746875,39.41770383150115L1054.7435625,44.97367334072366L1059.5996562500002,49.27652648602982L1064.45575,89.6582161892817L1069.31184375,82.87184724450921L1074.1679374999999,93.33848741610714L1079.02403125,79.2646309112028L1083.880125,66.94339762865903L1088.73621875,64.39682074859162L1093.5923125000002,83.22271522841437L1098.44840625,76.10287099824527L1103.3045,60.20020632134059L1108.16059375,43.87398473593833L1113.0166875,5.970544687716882L1117.87278125,-25.494574080361325L1122.728875,-11.4198028846839L1127.5849687500001,0.9019792123236376L1132.4410625,1.5104256912688911L1137.29715625,56.15242035288124L1142.15325,73.42991190152942L1147.00934375,86.70411023037641L1151.8654374999999,46.20708152284134L1156.72153125,30.63191903746544L1161.577625,27.102228345556156L1166.43371875,25.953629910353364L1171.2898125000002,42.71063578735161L1176.14590625,72.14946394147093L1181.002,80.12043465502494L1185.8580937499999,72.30304296441105L1190.7141875,57.92030950103986L1195.5702812499999,50.2598854029603L1200.426375,-1.8286730508731197L1210.1385625,-2.5967631317729425L1214.99465625,4.25731564435494L1219.85075,17.092873109006188L1224.70684375,54.840346644663185L1229.5629374999999,64.88882891739625L1234.41903125,66.07175519157735L1239.2751250000001,57.08918477716836L1244.13121875,36.19196501011876L1248.9873125,38.192094688350515L1253.84340625,25.822926936770838L1258.6995,19.37069772559543L1263.5555937499998,17.43779215877609L1268.4116875,19.185752218342714L1273.26778125,20.234528254082512L1278.123875,25.709929235070515L1282.9799687500001,28.025953843720426L1287.8360625,13.907891090505856" style="fill: none;" fill="none"></path></g></g></g></g><g opacity="0.2"><g><g><g><path stroke="rgb(238, 51, 119)" stroke-width="2px" d="M156.36621875,397.3846384928776L161.2223125,370.73078309572657L166.07840625,353.7692261475783L170.93449999999999,329.53848002507135L175.79059375,334.38462924957275L180.64668749999998,261.6923215572651L185.50278125,244.73076460911676L190.35887499999998,201.11535226381747L195.21496875000003,172.03845691680908L200.0710625,118.73074612250699L204.92715625,106.61540772364694L209.78324999999998,133.269263120798L214.63934375000002,145.38460151965802L219.4954375,157.50000924330493L224.35153125,196.26920303931607L229.20762499999998,225.34616771111124L234.06371875000002,239.88461538461536L238.9198125,252.00002310826227L243.77590625,273.8076599561251L248.632,252.00002310826227L253.48809375,220.50001848660983L258.34418750000003,249.57691383361816L263.20028125,285.92306767977203L268.056375,264.1153615071224L272.91246874999996,235.03846616011398L277.76856250000003,237.46150610997125L282.62465625,264.1153615071224L287.48075,266.5384707817665L292.33684375,285.92306767977203L297.19293749999997,310.15381380227893L302.04903125,268.9615107316238L306.905125,285.92306767977203L311.76121875,305.30766457777753L316.61731249999997,220.50001848660983L321.47340625000004,247.15387388376087L326.3295,215.6538692621085L331.18559375,213.23075998746432L336.04168749999997,155.07689996866083L340.89778125000004,193.84616308945877L345.753875,210.80772003760708L350.60996875,230.19231693561258L355.46606249999996,213.23075998746432L360.32215625,225.34616771111124L365.17825,210.80772003760708L370.03434375,155.07689996866083L374.8904375,121.15385539715109L379.74653125,174.46156619145324L384.60262500000005,159.92304919316223L389.45871874999995,174.46156619145324L394.3148125,218.07690921196573L399.17090625000003,176.88460614131048L404.027,162.34615846780633L408.88309375,218.07690921196573L413.73918749999996,242.3077246592595L418.59528124999997,213.23075998746432L423.45137500000004,239.88461538461536L428.30746875,222.9230584364671L433.1635625,208.38461076296298L438.01965625,155.07689996866083L442.87575,159.92304919316223L447.73184375,135.69230307065524L452.58793749999995,169.61541696695184L457.44403125,186.57690459031326L462.30012500000004,242.3077246592595L467.15621875,213.23075998746432L472.0123125,227.76920766096848L476.86840624999996,152.65386001880353L481.7245,162.34615846780633L486.58059375000005,169.61541696695184L491.4366875,215.6538692621085L496.29278125,196.26920303931607L501.148875,261.6923215572651L506.00496875,254.42306305811957L510.8610625,247.15387388376087L515.71715625,203.53846153846158L520.57325,193.84616308945877L525.42934375,215.6538692621085L530.2854375,140.53845229515665L535.1415312500001,140.53845229515665L539.997625,176.88460614131048L544.85371875,164.76919841766357L549.7098125,186.57690459031326L554.56590625,222.9230584364671L559.422,181.7307553658119L564.2780937499999,118.73074612250699L569.1341874999999,152.65386001880353L573.9902812500001,159.92304919316223L578.846375,157.50000924330493L583.70246875,186.57690459031326L588.5585625,167.19230769230774L593.41465625,174.46156619145324L598.27075,169.61541696695184L603.1268437499999,142.96156156980075L607.9829375,184.153864640456L612.8390312500001,167.19230769230774L617.695125,150.23075074415942L622.55121875,181.7307553658119L627.4073125,179.3077154159546L632.26340625,181.7307553658119L637.1195,92.07689072535592L641.97559375,126.0000046216525L646.8316875,92.07689072535592L651.6877812500001,104.19229844900279L656.543875,159.92304919316223L661.39996875,184.153864640456L666.2560625,159.92304919316223L671.11215625,150.23075074415942L675.96825,174.46156619145324L680.82434375,167.19230769230774L685.6804375,159.92304919316223L690.5365312499999,186.57690459031326L695.392625,113.88459689800558L700.2487187500001,123.57689534700837L705.1048125,123.57689534700837L709.96090625,84.80770155099725L714.817,104.19229844900279L719.67309375,121.15385539715109L724.5291875,142.96156156980075L729.38528125,150.23075074415942L734.2413750000001,164.76919841766357L739.09746875,164.76919841766357L743.9535625000001,106.61540772364694L748.80965625,135.69230307065524L753.66575,118.73074612250699L758.5218437500001,104.19229844900279L763.3779375,133.269263120798L768.2340312499999,142.96156156980075L773.090125,89.65385077549864L777.9462187500001,130.8461538461539L782.8023125,147.80771079430215L787.65840625,138.1154123452994L792.5145000000001,101.76925849914555L797.37059375,130.8461538461539L802.2266874999999,162.34615846780633L807.08278125,172.03845691680908L811.938875,162.34615846780633L816.79496875,205.96157081310568L821.6510625,218.07690921196573L826.50715625,191.42305381481466L831.36325,169.61541696695184L836.2193437499999,210.80772003760708L841.0754375,225.34616771111124L845.93153125,205.96157081310568L850.7876249999999,230.19231693561258L855.6437187500001,215.6538692621085L860.4998125,186.57690459031326L865.35590625,189.0000138649574L870.2120000000001,181.7307553658119L875.06809375,174.46156619145324L879.9241875,201.11535226381747L884.7802812499999,210.80772003760708L889.636375,205.96157081310568L894.49246875,244.73076460911676L899.3485625,222.9230584364671L904.2046562500001,215.6538692621085L909.06075,191.42305381481466L913.91684375,191.42305381481466L918.7729375,181.7307553658119L923.62903125,77.53844305185174L928.4851249999999,104.19229844900279L933.34121875,96.92310927464415L938.1973125000001,87.23074150085453L943.05340625,121.15385539715109L947.9095,172.03845691680908L952.76559375,179.3077154159546L957.6216875,218.07690921196573L962.4777812499999,225.34616771111124L967.333875,208.38461076296298L972.18996875,264.1153615071224L977.0460625,312.57692307692304L981.9021562500001,237.46150610997125L986.75825,184.153864640456L991.61434375,222.9230584364671L996.4704375000001,169.61541696695184L1001.32653125,106.61540772364694L1006.182625,159.92304919316223L1011.0387187499999,225.34616771111124L1015.8948125000001,181.7307553658119L1020.75090625,239.88461538461536L1025.607,268.9615107316238L1030.46309375,271.3846200062679L1035.3191875,285.92306767977203L1040.17528125,222.9230584364671L1045.031375,235.03846616011398L1049.88746875,186.57690459031326L1054.7435625,169.61541696695184L1059.5996562500002,184.153864640456L1064.45575,247.15387388376087L1069.31184375,237.46150610997125L1074.1679374999999,210.80772003760708L1079.02403125,232.61535688546985L1083.880125,215.6538692621085L1088.73621875,176.88460614131048L1093.5923125000002,198.69231231396017L1098.44840625,181.7307553658119L1103.3045,196.26920303931607L1108.16059375,191.42305381481466L1113.0166875,235.03846616011398L1117.87278125,191.42305381481466L1122.728875,198.69231231396017L1127.5849687500001,198.69231231396017L1132.4410625,249.57691383361816L1137.29715625,244.73076460911676L1142.15325,237.46150610997125L1147.00934375,227.76920766096848L1151.8654374999999,198.69231231396017L1156.72153125,198.69231231396017L1161.577625,203.53846153846158L1166.43371875,179.3077154159546L1171.2898125000002,191.42305381481466L1176.14590625,174.46156619145324L1181.002,159.92304919316223L1185.8580937499999,208.38461076296298L1190.7141875,244.73076460911676L1195.5702812499999,215.6538692621085L1200.426375,239.88461538461536L1205.2824687500001,208.38461076296298L1210.1385625,193.84616308945877L1214.99465625,189.0000138649574L1219.85075,239.88461538461536L1224.70684375,254.42306305811957L1229.5629374999999,239.88461538461536L1234.41903125,210.80772003760708L1239.2751250000001,193.84616308945877L1244.13121875,239.88461538461536L1248.9873125,159.92304919316223L1253.84340625,201.11535226381747L1258.6995,159.92304919316223L1263.5555937499998,189.0000138649574L1268.4116875,208.38461076296298L1273.26778125,244.73076460911676L1278.123875,298.0384754034189L1282.9799687500001,290.7692169042734L1287.8360625,266.5384707817665L1292.69215625,271.3846200062679L1297.54825,259.26921228262097L1302.40434375,118.73074612250699L1307.2604375,24.23073225754964L1312.11653125,-14.538461538461487L1316.972625,-14.538461538461487L1321.82871875,4.846135359544056L1326.6848125,215.6538692621085L1331.54090625,247.15387388376087L1336.397,237.46150610997125L1341.25309375,247.15387388376087L1346.1091875,203.53846153846158L1350.96528125,186.57690459031326L1355.821375,142.96156156980075L1360.6774687500001,152.65386001880353L1365.5335625,128.42304457150976L1370.38965625,138.1154123452994L1375.2457499999998,118.73074612250699L1380.10184375,111.4615569481483L1384.9579375,65.42310465299171L1389.81403125,84.80770155099725L1394.670125,82.38459227635313L1399.52621875,55.73080620398891L1404.3823125,62.99999537834759" style="fill: none;" fill="none"></path></g><g><path stroke="rgb(51, 187, 238)" stroke-width="2px" d="M156.36621875,409.49997689173773L161.2223125,281.07691845527063L166.07840625,208.38461076296298L170.93449999999999,142.96156156980075L175.79059375,164.76919841766357L180.64668749999998,295.6153661287748L185.50278125,327.11537075042725L190.35887499999998,375.57693232022797L195.21496875000003,387.6923400438749L200.0710625,399.8076784427349L204.92715625,268.9615107316238L209.78324999999998,256.8461723327637L214.63934375000002,198.69231231396017L219.4954375,140.53845229515665L224.35153125,152.65386001880353L229.20762499999998,203.53846153846158L234.06371875000002,220.50001848660983L238.9198125,220.50001848660983L243.77590625,225.34616771111124L248.632,205.96157081310568L253.48809375,205.96157081310568L258.34418750000003,242.3077246592595L263.20028125,205.96157081310568L268.056375,164.76919841766357L272.91246874999996,116.3077061726497L277.76856250000003,152.65386001880353L282.62465625,65.42310465299171L287.48075,46.03850775498616L292.33684375,53.30762760455798L297.19293749999997,96.92310927464415L302.04903125,89.65385077549864L306.905125,198.69231231396017L311.76121875,220.50001848660983L316.61731249999997,184.153864640456L321.47340625000004,167.19230769230774L326.3295,162.34615846780633L331.18559375,147.80771079430215L336.04168749999997,106.61540772364694L340.89778125000004,123.57689534700837L345.753875,147.80771079430215L350.60996875,174.46156619145324L355.46606249999996,208.38461076296298L360.32215625,235.03846616011398L365.17825,249.57691383361816L370.03434375,281.07691845527063L374.8904375,271.3846200062679L379.74653125,239.88461538461536L384.60262500000005,198.69231231396017L389.45871874999995,244.73076460911676L394.3148125,232.61535688546985L399.17090625000003,276.2307692307693L404.027,266.5384707817665L408.88309375,278.6538785054134L413.73918749999996,271.3846200062679L418.59528124999997,259.26921228262097L423.45137500000004,230.19231693561258L428.30746875,181.7307553658119L433.1635625,130.8461538461539L438.01965625,142.96156156980075L442.87575,126.0000046216525L447.73184375,145.38460151965802L452.58793749999995,189.0000138649574L457.44403125,181.7307553658119L462.30012500000004,193.84616308945877L467.15621875,191.42305381481466L472.0123125,164.76919841766357L476.86840624999996,174.46156619145324L481.7245,142.96156156980075L486.58059375000005,157.50000924330493L491.4366875,145.38460151965802L496.29278125,65.42310465299171L501.148875,31.499990756695148L506.00496875,84.80770155099725L510.8610625,92.07689072535592L515.71715625,113.88459689800558L520.57325,189.0000138649574L525.42934375,196.26920303931607L530.2854375,208.38461076296298L535.1415312500001,225.34616771111124L539.997625,162.34615846780633L544.85371875,138.1154123452994L549.7098125,147.80771079430215L554.56590625,87.23074150085453L559.422,96.92310927464415L564.2780937499999,205.96157081310568L569.1341874999999,210.80772003760708L573.9902812500001,196.26920303931607L578.846375,179.3077154159546L583.70246875,133.269263120798L588.5585625,113.88459689800558L593.41465625,121.15385539715109L598.27075,67.846144602849L603.1268437499999,157.50000924330493L607.9829375,135.69230307065524L612.8390312500001,184.153864640456L617.695125,213.23075998746432L622.55121875,193.84616308945877L627.4073125,162.34615846780633L632.26340625,191.42305381481466L637.1195,181.7307553658119L641.97559375,162.34615846780633L646.8316875,235.03846616011398L651.6877812500001,62.99999537834759L656.543875,65.42310465299171L661.39996875,89.65385077549864L666.2560625,29.076950806837864L671.11215625,62.99999537834759L675.96825,259.26921228262097L680.82434375,244.73076460911676L685.6804375,218.07690921196573L690.5365312499999,205.96157081310568L695.392625,128.42304457150976L700.2487187500001,104.19229844900279L705.1048125,62.99999537834759L709.96090625,140.53845229515665L714.817,186.57690459031326L719.67309375,249.57691383361816L724.5291875,215.6538692621085L729.38528125,201.11535226381747L734.2413750000001,162.34615846780633L739.09746875,126.0000046216525L743.9535625000001,99.34614922450143L748.80965625,164.76919841766357L753.66575,164.76919841766357L758.5218437500001,184.153864640456L763.3779375,184.153864640456L768.2340312499999,222.9230584364671L773.090125,210.80772003760708L777.9462187500001,191.42305381481466L782.8023125,184.153864640456L787.65840625,157.50000924330493L792.5145000000001,128.42304457150976L797.37059375,116.3077061726497L802.2266874999999,111.4615569481483L807.08278125,104.19229844900279L811.938875,118.73074612250699L816.79496875,92.07689072535592L821.6510625,113.88459689800558L826.50715625,113.88459689800558L831.36325,142.96156156980075L836.2193437499999,152.65386001880353L841.0754375,167.19230769230774L845.93153125,189.0000138649574L850.7876249999999,152.65386001880353L855.6437187500001,-31.500018486609786L875.06809375,-48.46157543475809L879.9241875,116.3077061726497L884.7802812499999,113.88459689800558L889.636375,113.88459689800558L894.49246875,29.076950806837864L899.3485625,106.61540772364694L904.2046562500001,116.3077061726497L909.06075,113.88459689800558L913.91684375,99.34614922450143L918.7729375,150.23075074415942L923.62903125,92.07689072535592L928.4851249999999,26.65391085698058L933.34121875,2.4230954096868134L938.1973125000001,24.23073225754964L943.05340625,4.846135359544056L947.9095,60.57695542849031L952.76559375,123.57689534700837L957.6216875,159.92304919316223L962.4777812499999,121.15385539715109L967.333875,109.0384476735042L972.18996875,109.0384476735042L977.0460625,62.99999537834759L981.9021562500001,116.3077061726497L986.75825,67.846144602849L991.61434375,96.92310927464415L996.4704375000001,111.4615569481483L1001.32653125,82.38459227635313L1006.182625,77.53844305185174L1011.0387187499999,111.4615569481483L1015.8948125000001,133.269263120798L1020.75090625,159.92304919316223L1025.607,169.61541696695184L1030.46309375,181.7307553658119L1035.3191875,106.61540772364694L1040.17528125,106.61540772364694L1045.031375,79.96155232649585L1049.88746875,111.4615569481483L1054.7435625,104.19229844900279L1059.5996562500002,142.96156156980075L1064.45575,157.50000924330493L1069.31184375,196.26920303931607L1074.1679374999999,138.1154123452994L1079.02403125,87.23074150085453L1083.880125,92.07689072535592L1088.73621875,87.23074150085453L1093.5923125000002,31.499990756695148L1098.44840625,77.53844305185174L1103.3045,111.4615569481483L1108.16059375,-26.653799937321565L1122.728875,-53.30765533447257L1127.5849687500001,4.846135359544056L1132.4410625,186.57690459031326L1137.29715625,218.07690921196573" style="fill: none;" fill="none"></path></g><g><path stroke="rgb(187, 187, 187)" stroke-width="2px" d="M141.7979375,438.39052721170276L146.65403125,346.0723723631638L151.510125,307.032603924091L156.36621875,189.0000138649574L161.2223125,198.69231231396017L166.07840625,152.65386001880353L170.93449999999999,53.30762760455798L175.79059375,65.42310465299171L180.64668749999998,123.57689534700837L185.50278125,121.15385539715109L190.35887499999998,145.38460151965802L195.21496875000003,283.50002772991473L200.0710625,312.57692307692304L204.92715625,322.26922152592584L209.78324999999998,353.7692261475783L214.63934375000002,331.96151997492865L219.4954375,370.73078309572657L224.35153125,370.73078309572657L229.20762499999998,356.1923354222224L234.06371875000002,344.0769276985755L238.9198125,334.38462924957275L243.77590625,254.42306305811957L248.632,281.07691845527063L253.48809375,193.84616308945877L258.34418750000003,213.23075998746432L263.20028125,218.07690921196573L268.056375,273.8076599561251L272.91246874999996,300.4615153532761L277.76856250000003,300.4615153532761L282.62465625,305.30766457777753L287.48075,273.8076599561251L292.33684375,276.2307692307693L297.19293749999997,307.73077385242163L302.04903125,254.42306305811957L306.905125,254.42306305811957L311.76121875,278.6538785054134L316.61731249999997,276.2307692307693L321.47340625000004,249.57691383361816L326.3295,249.57691383361816L331.18559375,237.46150610997125L336.04168749999997,203.53846153846158L340.89778125000004,172.03845691680908L345.753875,150.23075074415942L350.60996875,155.07689996866083L355.46606249999996,121.15385539715109L360.32215625,121.15385539715109L365.17825,123.57689534700837L370.03434375,99.34614922450143L374.8904375,48.461547704843404L379.74653125,89.65385077549864L384.60262500000005,109.0384476735042L389.45871874999995,72.69229382735034L394.3148125,79.96155232649585L399.17090625000003,147.80771079430215L404.027,126.0000046216525L408.88309375,147.80771079430215L413.73918749999996,203.53846153846158L418.59528124999997,252.00002310826227L423.45137500000004,189.0000138649574L428.30746875,201.11535226381747L433.1635625,215.6538692621085L438.01965625,162.34615846780633L442.87575,159.92304919316223L447.73184375,208.38461076296298L452.58793749999995,179.3077154159546L457.44403125,169.61541696695184L462.30012500000004,142.96156156980075L467.15621875,123.57689534700837L472.0123125,162.34615846780633L476.86840624999996,189.0000138649574L481.7245,186.57690459031326L486.58059375000005,205.96157081310568L491.4366875,244.73076460911676L496.29278125,230.19231693561258L501.148875,213.23075998746432L506.00496875,198.69231231396017L510.8610625,208.38461076296298L515.71715625,155.07689996866083L520.57325,174.46156619145324L525.42934375,176.88460614131048L530.2854375,186.57690459031326L535.1415312500001,167.19230769230774L539.997625,210.80772003760708L544.85371875,232.61535688546985L549.7098125,208.38461076296298L554.56590625,210.80772003760708L559.422,186.57690459031326L564.2780937499999,201.11535226381747L569.1341874999999,159.92304919316223L573.9902812500001,72.69229382735034L578.846375,126.0000046216525L583.70246875,128.42304457150976L588.5585625,79.96155232649585L593.41465625,87.23074150085453L598.27075,118.73074612250699L603.1268437499999,111.4615569481483L607.9829375,82.38459227635313L612.8390312500001,150.23075074415942L617.695125,152.65386001880353L622.55121875,179.3077154159546L627.4073125,135.69230307065524L632.26340625,167.19230769230774L637.1195,162.34615846780633L641.97559375,126.0000046216525L646.8316875,164.76919841766357L651.6877812500001,203.53846153846158L656.543875,179.3077154159546L661.39996875,121.15385539715109L666.2560625,179.3077154159546L671.11215625,181.7307553658119L675.96825,159.92304919316223L680.82434375,205.96157081310568L685.6804375,259.26921228262097L690.5365312499999,239.88461538461536L695.392625,242.3077246592595L700.2487187500001,210.80772003760708L705.1048125,181.7307553658119L709.96090625,186.57690459031326L714.817,196.26920303931607L719.67309375,191.42305381481466L724.5291875,244.73076460911676L729.38528125,266.5384707817665L734.2413750000001,225.34616771111124L739.09746875,179.3077154159546L743.9535625000001,87.23074150085453L748.80965625,67.846144602849L753.66575,12.115393858689563L758.5218437500001,46.03850775498616L763.3779375,89.65385077549864L768.2340312499999,189.0000138649574L773.090125,172.03845691680908L777.9462187500001,174.46156619145324L782.8023125,155.07689996866083L787.65840625,147.80771079430215L792.5145000000001,174.46156619145324L797.37059375,256.8461723327637L802.2266874999999,259.26921228262097L807.08278125,288.34617695441614L811.938875,324.69233080056995L816.79496875,324.69233080056995L821.6510625,266.5384707817665L826.50715625,237.46150610997125" style="fill: none;" fill="none"></path></g><g><path stroke="rgb(0, 153, 136)" stroke-width="2px" d="M151.510125,409.49997689173773L156.36621875,315.00003235156714L161.2223125,302.8846246279203L166.07840625,232.61535688546985L170.93449999999999,227.76920766096848L175.79059375,244.73076460911676L180.64668749999998,227.76920766096848L185.50278125,225.34616771111124L190.35887499999998,208.38461076296298L195.21496875000003,218.07690921196573L200.0710625,218.07690921196573L204.92715625,232.61535688546985L209.78324999999998,215.6538692621085L214.63934375000002,174.46156619145324L219.4954375,116.3077061726497L224.35153125,87.23074150085453L229.20762499999998,19.384652357835073L234.06371875000002,118.73074612250699L238.9198125,186.57690459031326L243.77590625,239.88461538461536L248.632,290.7692169042734L253.48809375,312.57692307692304L258.34418750000003,327.11537075042725L263.20028125,319.84618157606855L268.056375,327.11537075042725L272.91246874999996,317.42307230142444L277.76856250000003,256.8461723327637L282.62465625,201.11535226381747L287.48075,145.38460151965802L292.33684375,167.19230769230774L297.19293749999997,198.69231231396017L302.04903125,244.73076460911676L306.905125,266.5384707817665L311.76121875,271.3846200062679L316.61731249999997,256.8461723327637L321.47340625000004,193.84616308945877L326.3295,48.461547704843404L331.18559375,79.96155232649585L336.04168749999997,96.92310927464415L340.89778125000004,94.50000000000004L345.753875,24.23073225754964L350.60996875,92.07689072535592L355.46606249999996,41.1922892056979L360.32215625,50.88458765470069L365.17825,46.03850775498616L370.03434375,218.07690921196573L374.8904375,278.6538785054134L379.74653125,341.6538184239314L384.60262500000005,278.6538785054134L389.45871874999995,312.57692307692304L394.3148125,249.57691383361816L399.17090625000003,198.69231231396017L404.027,181.7307553658119L408.88309375,210.80772003760708L413.73918749999996,189.0000138649574L418.59528124999997,227.76920766096848L423.45137500000004,322.26922152592584L428.30746875,302.8846246279203L433.1635625,159.92304919316223L438.01965625,87.23074150085453L442.87575,60.57695542849031L447.73184375,38.769249255840656L452.58793749999995,-7.269203039315979L457.44403125,138.1154123452994L462.30012500000004,213.23075998746432L467.15621875,210.80772003760708L472.0123125,203.53846153846158L476.86840624999996,150.23075074415942L481.7245,169.61541696695184L486.58059375000005,89.65385077549864L491.4366875,94.50000000000004L496.29278125,104.19229844900279L501.148875,121.15385539715109L506.00496875,116.3077061726497L510.8610625,172.03845691680908L515.71715625,201.11535226381747L520.57325,138.1154123452994L525.42934375,169.61541696695184L530.2854375,138.1154123452994L535.1415312500001,99.34614922450143L539.997625,50.88458765470069L544.85371875,84.80770155099725L549.7098125,89.65385077549864L554.56590625,106.61540772364694L559.422,104.19229844900279L564.2780937499999,104.19229844900279L569.1341874999999,113.88459689800558L573.9902812500001,128.42304457150976L578.846375,140.53845229515665L583.70246875,138.1154123452994L588.5585625,222.9230584364671L593.41465625,169.61541696695184L598.27075,179.3077154159546L603.1268437499999,174.46156619145324L607.9829375,181.7307553658119L612.8390312500001,164.76919841766357L617.695125,162.34615846780633L622.55121875,184.153864640456L627.4073125,150.23075074415942L632.26340625,113.88459689800558L637.1195,138.1154123452994L641.97559375,150.23075074415942L646.8316875,138.1154123452994L651.6877812500001,198.69231231396017L656.543875,235.03846616011398L661.39996875,249.57691383361816L666.2560625,237.46150610997125L671.11215625,189.0000138649574L675.96825,126.0000046216525L680.82434375,128.42304457150976L685.6804375,130.8461538461539L690.5365312499999,135.69230307065524L695.392625,189.0000138649574L700.2487187500001,215.6538692621085L705.1048125,196.26920303931607L709.96090625,201.11535226381747L714.817,176.88460614131048L719.67309375,181.7307553658119L724.5291875,230.19231693561258L729.38528125,181.7307553658119L734.2413750000001,162.34615846780633L739.09746875,193.84616308945877L743.9535625000001,218.07690921196573L748.80965625,247.15387388376087L753.66575,225.34616771111124L758.5218437500001,227.76920766096848L763.3779375,239.88461538461536L768.2340312499999,239.88461538461536L773.090125,266.5384707817665L777.9462187500001,276.2307692307693L782.8023125,271.3846200062679L787.65840625,259.26921228262097L792.5145000000001,247.15387388376087L797.37059375,237.46150610997125L802.2266874999999,266.5384707817665L807.08278125,242.3077246592595L811.938875,196.26920303931607L816.79496875,203.53846153846158L821.6510625,220.50001848660983L826.50715625,179.3077154159546L831.36325,210.80772003760708L836.2193437499999,203.53846153846158L841.0754375,167.19230769230774L845.93153125,121.15385539715109L850.7876249999999,142.96156156980075L855.6437187500001,123.57689534700837L860.4998125,145.38460151965802L865.35590625,126.0000046216525L870.2120000000001,191.42305381481466L875.06809375,189.0000138649574L879.9241875,145.38460151965802L884.7802812499999,169.61541696695184L889.636375,186.57690459031326L894.49246875,150.23075074415942L899.3485625,126.0000046216525L904.2046562500001,106.61540772364694L909.06075,82.38459227635313L913.91684375,94.50000000000004L918.7729375,75.11540310199446L923.62903125,48.461547704843404L928.4851249999999,58.153846153846196L933.34121875,62.99999537834759L938.1973125000001,101.76925849914555L943.05340625,152.65386001880353L947.9095,167.19230769230774L952.76559375,235.03846616011398L957.6216875,189.0000138649574L962.4777812499999,174.46156619145324L967.333875,213.23075998746432L972.18996875,191.42305381481466L977.0460625,176.88460614131048L981.9021562500001,140.53845229515665L986.75825,55.73080620398891L991.61434375,41.1922892056979L996.4704375000001,-4.8461630894586945L1001.32653125,-4.8461630894586945L1006.182625,9.69235390883232L1011.0387187499999,65.42310465299171L1015.8948125000001,70.2692538774931L1020.75090625,145.38460151965802L1025.607,145.38460151965802L1030.46309375,126.0000046216525L1035.3191875,135.69230307065524L1040.17528125,19.384652357835073L1045.031375,24.23073225754964L1049.88746875,9.69235390883232L1054.7435625,53.30762760455798L1059.5996562500002,55.73080620398891L1064.45575,150.23075074415942L1069.31184375,72.69229382735034L1074.1679374999999,109.0384476735042L1079.02403125,58.153846153846196L1083.880125,48.461547704843404L1088.73621875,60.57695542849031L1093.5923125000002,111.4615569481483L1098.44840625,65.42310465299171L1103.3045,36.34620930598337L1108.16059375,19.384652357835073L1113.0166875,-50.88461538461529L1117.87278125,-72.69225223247815L1122.728875,9.69235390883232L1127.5849687500001,19.384652357835073L1132.4410625,2.4230954096868134L1137.29715625,138.1154123452994L1142.15325,99.34614922450143L1147.00934375,106.61540772364694L1151.8654374999999,-14.538461538461487L1156.72153125,7.269175309401341L1161.577625,21.807692307692356L1166.43371875,24.23073225754964L1171.2898125000002,67.846144602849L1176.14590625,116.3077061726497L1181.002,92.07689072535592L1185.8580937499999,60.57695542849031L1190.7141875,36.34620930598337L1195.5702812499999,38.769249255840656L1200.426375,-79.96151073162366L1205.2824687500001,-24.23075998746428L1210.1385625,9.69235390883232L1214.99465625,14.538433808546849L1219.85075,36.34620930598337L1224.70684375,111.4615569481483L1229.5629374999999,79.96155232649585L1234.41903125,67.846144602849L1239.2751250000001,43.61532915555518L1244.13121875,4.846135359544056L1248.9873125,41.1922892056979L1253.84340625,7.269175309401341L1258.6995,9.69235390883232L1263.5555937499998,14.538433808546849L1268.4116875,21.807692307692356L1273.26778125,21.807692307692356L1278.123875,33.92303070655239L1282.9799687500001,31.499990756695148L1287.8360625,-7.269203039315979" style="fill: none;" fill="none"></path></g></g></g></g></g></g><g transform="translate(41, 378)" clip-path="url(#clip_1)"><clipPath id="clip_1"><rect width="1456" height="22"></rect></clipPath><g><g><line x1="0" y1="0" x2="0" y2="5" style="visibility: inherit;" fill="rgb(0, 0, 0)" stroke="rgb(204, 204, 204)" stroke-width="1px"></line><line x1="121.40234375" y1="0" x2="121.40234375" y2="5" style="visibility: inherit;" fill="rgb(0, 0, 0)" stroke="rgb(204, 204, 204)" stroke-width="1px"></line><line x1="242.8046875" y1="0" x2="242.8046875" y2="5" style="visibility: inherit;" fill="rgb(0, 0, 0)" stroke="rgb(204, 204, 204)" stroke-width="1px"></line><line x1="364.20703125" y1="0" x2="364.20703125" y2="5" style="visibility: inherit;" fill="rgb(0, 0, 0)" stroke="rgb(204, 204, 204)" stroke-width="1px"></line><line x1="485.609375" y1="0" x2="485.609375" y2="5" style="visibility: inherit;" fill="rgb(0, 0, 0)" stroke="rgb(204, 204, 204)" stroke-width="1px"></line><line x1="607.01171875" y1="0" x2="607.01171875" y2="5" style="visibility: inherit;" fill="rgb(0, 0, 0)" stroke="rgb(204, 204, 204)" stroke-width="1px"></line><line x1="728.4140625" y1="0" x2="728.4140625" y2="5" style="visibility: inherit;" fill="rgb(0, 0, 0)" stroke="rgb(204, 204, 204)" stroke-width="1px"></line><line x1="849.81640625" y1="0" x2="849.81640625" y2="5" style="visibility: inherit;" fill="rgb(0, 0, 0)" stroke="rgb(204, 204, 204)" stroke-width="1px"></line><line x1="971.21875" y1="0" x2="971.21875" y2="5" style="visibility: inherit;" fill="rgb(0, 0, 0)" stroke="rgb(204, 204, 204)" stroke-width="1px"></line><line x1="1092.62109375" y1="0" x2="1092.62109375" y2="5" style="visibility: inherit;" fill="rgb(0, 0, 0)" stroke="rgb(204, 204, 204)" stroke-width="1px"></line><line x1="1214.0234375" y1="0" x2="1214.0234375" y2="5" style="visibility: inherit;" fill="rgb(0, 0, 0)" stroke="rgb(204, 204, 204)" stroke-width="1px"></line><line x1="1335.42578125" y1="0" x2="1335.42578125" y2="5" style="visibility: inherit;" fill="rgb(0, 0, 0)" stroke="rgb(204, 204, 204)" stroke-width="1px"></line><line x1="1456.828125" y1="0" x2="1456.828125" y2="5" style="visibility: inherit;" fill="rgb(0, 0, 0)" stroke="rgb(204, 204, 204)" stroke-width="1px"></line></g><g transform="translate(0, 8)"><text x="0" y="0" dx="0em" dy="0.95em" style="text-anchor: middle; visibility: hidden; font-family: Roboto, sans-serif; font-size: 12px; font-weight: 200;" fill="rgb(50, 49, 63)" stroke="none" stroke-width="1px">-100k</text><text x="121.40234375" y="0" dx="0em" dy="0.95em" style="text-anchor: middle; visibility: inherit; font-family: Roboto, sans-serif; font-size: 12px; font-weight: 200;" fill="rgb(50, 49, 63)" stroke="none" stroke-width="1px">0</text><text x="242.8046875" y="0" dx="0em" dy="0.95em" style="text-anchor: middle; visibility: inherit; font-family: Roboto, sans-serif; font-size: 12px; font-weight: 200;" fill="rgb(50, 49, 63)" stroke="none" stroke-width="1px">100k</text><text x="364.20703125" y="0" dx="0em" dy="0.95em" style="text-anchor: middle; visibility: inherit; font-family: Roboto, sans-serif; font-size: 12px; font-weight: 200;" fill="rgb(50, 49, 63)" stroke="none" stroke-width="1px">200k</text><text x="485.609375" y="0" dx="0em" dy="0.95em" style="text-anchor: middle; visibility: inherit; font-family: Roboto, sans-serif; font-size: 12px; font-weight: 200;" fill="rgb(50, 49, 63)" stroke="none" stroke-width="1px">300k</text><text x="607.01171875" y="0" dx="0em" dy="0.95em" style="text-anchor: middle; visibility: inherit; font-family: Roboto, sans-serif; font-size: 12px; font-weight: 200;" fill="rgb(50, 49, 63)" stroke="none" stroke-width="1px">400k</text><text x="728.4140625" y="0" dx="0em" dy="0.95em" style="text-anchor: middle; visibility: inherit; font-family: Roboto, sans-serif; font-size: 12px; font-weight: 200;" fill="rgb(50, 49, 63)" stroke="none" stroke-width="1px">500k</text><text x="849.81640625" y="0" dx="0em" dy="0.95em" style="text-anchor: middle; visibility: inherit; font-family: Roboto, sans-serif; font-size: 12px; font-weight: 200;" fill="rgb(50, 49, 63)" stroke="none" stroke-width="1px">600k</text><text x="971.21875" y="0" dx="0em" dy="0.95em" style="text-anchor: middle; visibility: inherit; font-family: Roboto, sans-serif; font-size: 12px; font-weight: 200;" fill="rgb(50, 49, 63)" stroke="none" stroke-width="1px">700k</text><text x="1092.62109375" y="0" dx="0em" dy="0.95em" style="text-anchor: middle; visibility: inherit; font-family: Roboto, sans-serif; font-size: 12px; font-weight: 200;" fill="rgb(50, 49, 63)" stroke="none" stroke-width="1px">800k</text><text x="1214.0234375" y="0" dx="0em" dy="0.95em" style="text-anchor: middle; visibility: inherit; font-family: Roboto, sans-serif; font-size: 12px; font-weight: 200;" fill="rgb(50, 49, 63)" stroke="none" stroke-width="1px">900k</text><text x="1335.42578125" y="0" dx="0em" dy="0.95em" style="text-anchor: middle; visibility: inherit; font-family: Roboto, sans-serif; font-size: 12px; font-weight: 200;" fill="rgb(50, 49, 63)" stroke="none" stroke-width="1px">1M</text><text x="1456.828125" y="0" dx="0em" dy="0.95em" style="text-anchor: middle; visibility: hidden; font-family: Roboto, sans-serif; font-size: 12px; font-weight: 200;" fill="rgb(50, 49, 63)" stroke="none" stroke-width="1px">1.1M</text></g><line x1="0" y1="0" x2="1456.828125" y2="0" fill="rgb(0, 0, 0)" stroke="rgb(204, 204, 204)" stroke-width="1px"></line></g></g></g></g></svg>