<svg viewBox="0 0 1498 400" xmlns="http://www.w3.org/2000/svg"><g><g><g><g><g><line x1="41.171875" y1="378" x2="36.171875" y2="378" style="visibility: inherit;" fill="rgb(0, 0, 0)" stroke="rgb(204, 204, 204)" stroke-width="1px"></line><line x1="41.171875" y1="350.99999999999994" x2="36.171875" y2="350.99999999999994" style="visibility: inherit;" fill="rgb(0, 0, 0)" stroke="rgb(204, 204, 204)" stroke-width="1px"></line><line x1="41.171875" y1="324.00000000000006" x2="36.171875" y2="324.00000000000006" style="visibility: inherit;" fill="rgb(0, 0, 0)" stroke="rgb(204, 204, 204)" stroke-width="1px"></line><line x1="41.171875" y1="297.00000000000006" x2="36.171875" y2="297.00000000000006" style="visibility: inherit;" fill="rgb(0, 0, 0)" stroke="rgb(204, 204, 204)" stroke-width="1px"></line><line x1="41.171875" y1="270.00000000000006" x2="36.171875" y2="270.00000000000006" style="visibility: inherit;" fill="rgb(0, 0, 0)" stroke="rgb(204, 204, 204)" stroke-width="1px"></line><line x1="41.171875" y1="243.0000000000001" x2="36.171875" y2="243.0000000000001" style="visibility: inherit;" fill="rgb(0, 0, 0)" stroke="rgb(204, 204, 204)" stroke-width="1px"></line><line x1="41.171875" y1="216" x2="36.171875" y2="216" style="visibility: inherit;" fill="rgb(0, 0, 0)" stroke="rgb(204, 204, 204)" stroke-width="1px"></line><line x1="41.171875" y1="189.00000000000009" x2="36.171875" y2="189.00000000000009" style="visibility: inherit;" fill="rgb(0, 0, 0)" stroke="rgb(204, 204, 204)" stroke-width="1px"></line><line x1="41.171875" y1="161.99999999999991" x2="36.171875" y2="161.99999999999991" style="visibility: inherit;" fill="rgb(0, 0, 0)" stroke="rgb(204, 204, 204)" stroke-width="1px"></line><line x1="41.171875" y1="135.00000000000003" x2="36.171875" y2="135.00000000000003" style="visibility: inherit;" fill="rgb(0, 0, 0)" stroke="rgb(204, 204, 204)" stroke-width="1px"></line><line x1="41.171875" y1="108.00000000000011" x2="36.171875" y2="108.00000000000011" style="visibility: inherit;" fill="rgb(0, 0, 0)" stroke="rgb(204, 204, 204)" stroke-width="1px"></line><line x1="41.171875" y1="80.99999999999996" x2="36.171875" y2="80.99999999999996" style="visibility: inherit;" fill="rgb(0, 0, 0)" stroke="rgb(204, 204, 204)" stroke-width="1px"></line><line x1="41.171875" y1="54.00000000000006" x2="36.171875" y2="54.00000000000006" style="visibility: inherit;" fill="rgb(0, 0, 0)" stroke="rgb(204, 204, 204)" stroke-width="1px"></line><line x1="41.171875" y1="26.999999999999904" x2="36.171875" y2="26.999999999999904" style="visibility: inherit;" fill="rgb(0, 0, 0)" stroke="rgb(204, 204, 204)" stroke-width="1px"></line><line x1="41.171875" y1="0" x2="36.171875" y2="0" style="visibility: inherit;" fill="rgb(0, 0, 0)" stroke="rgb(204, 204, 204)" stroke-width="1px"></line></g><g transform="translate(31.171875, 0)"><text x="0" y="378" dx="0em" dy="0.3em" style="text-anchor: end; visibility: hidden; font-family: Roboto, sans-serif; font-size: 12px; font-weight: 200;" fill="rgb(50, 49, 63)" stroke="none" stroke-width="1px">7.2</text><text x="0" y="350.99999999999994" dx="0em" dy="0.3em" style="text-anchor: end; visibility: inherit; font-family: Roboto, sans-serif; font-size: 12px; font-weight: 200;" fill="rgb(50, 49, 63)" stroke="none" stroke-width="1px">7.4</text><text x="0" y="324.00000000000006" dx="0em" dy="0.3em" style="text-anchor: end; visibility: inherit; font-family: Roboto, sans-serif; font-size: 12px; font-weight: 200;" fill="rgb(50, 49, 63)" stroke="none" stroke-width="1px">7.6</text><text x="0" y="297.00000000000006" dx="0em" dy="0.3em" style="text-anchor: end; visibility: inherit; font-family: Roboto, sans-serif; font-size: 12px; font-weight: 200;" fill="rgb(50, 49, 63)" stroke="none" stroke-width="1px">7.8</text><text x="0" y="270.00000000000006" dx="0em" dy="0.3em" style="text-anchor: end; visibility: inherit; font-family: Roboto, sans-serif; font-size: 12px; font-weight: 200;" fill="rgb(50, 49, 63)" stroke="none" stroke-width="1px">8</text><text x="0" y="243.0000000000001" dx="0em" dy="0.3em" style="text-anchor: end; visibility: inherit; font-family: Roboto, sans-serif; font-size: 12px; font-weight: 200;" fill="rgb(50, 49, 63)" stroke="none" stroke-width="1px">8.2</text><text x="0" y="216" dx="0em" dy="0.3em" style="text-anchor: end; visibility: inherit; font-family: Roboto, sans-serif; font-size: 12px; font-weight: 200;" fill="rgb(50, 49, 63)" stroke="none" stroke-width="1px">8.4</text><text x="0" y="189.00000000000009" dx="0em" dy="0.3em" style="text-anchor: end; visibility: inherit; font-family: Roboto, sans-serif; font-size: 12px; font-weight: 200;" fill="rgb(50, 49, 63)" stroke="none" stroke-width="1px">8.6</text><text x="0" y="161.99999999999991" dx="0em" dy="0.3em" style="text-anchor: end; visibility: inherit; font-family: Roboto, sans-serif; font-size: 12px; font-weight: 200;" fill="rgb(50, 49, 63)" stroke="none" stroke-width="1px">8.8</text><text x="0" y="135.00000000000003" dx="0em" dy="0.3em" style="text-anchor: end; visibility: inherit; font-family: Roboto, sans-serif; font-size: 12px; font-weight: 200;" fill="rgb(50, 49, 63)" stroke="none" stroke-width="1px">9</text><text x="0" y="108.00000000000011" dx="0em" dy="0.3em" style="text-anchor: end; visibility: inherit; font-family: Roboto, sans-serif; font-size: 12px; font-weight: 200;" fill="rgb(50, 49, 63)" stroke="none" stroke-width="1px">9.2</text><text x="0" y="80.99999999999996" dx="0em" dy="0.3em" style="text-anchor: end; visibility: inherit; font-family: Roboto, sans-serif; font-size: 12px; font-weight: 200;" fill="rgb(50, 49, 63)" stroke="none" stroke-width="1px">9.4</text><text x="0" y="54.00000000000006" dx="0em" dy="0.3em" style="text-anchor: end; visibility: inherit; font-family: Roboto, sans-serif; font-size: 12px; font-weight: 200;" fill="rgb(50, 49, 63)" stroke="none" stroke-width="1px">9.6</text><text x="0" y="26.999999999999904" dx="0em" dy="0.3em" style="text-anchor: end; visibility: inherit; font-family: Roboto, sans-serif; font-size: 12px; font-weight: 200;" fill="rgb(50, 49, 63)" stroke="none" stroke-width="1px">9.8</text><text x="0" y="0" dx="0em" dy="0.3em" style="text-anchor: end; visibility: hidden; font-family: Roboto, sans-serif; font-size: 12px; font-weight: 200;" fill="rgb(50, 49, 63)" stroke="none" stroke-width="1px">10</text></g><line x1="41.171875" y1="0" x2="41.171875" y2="378" fill="rgb(0, 0, 0)" stroke="rgb(204, 204, 204)" stroke-width="1px"></line></g></g><g transform="translate(41, 0)" clip-path="url(#clip_0)"><clipPath id="clip_0"><rect width="1456" height="378"></rect></clipPath><g><g><g><line x1="0" y1="0" x2="0" y2="378" fill="rgb(0, 0, 0)" stroke="rgb(60, 60, 60)" stroke-width="1px" opacity="0.25"></line><line x1="121.40234375" y1="0" x2="121.40234375" y2="378" fill="rgb(0, 0, 0)" stroke="rgb(60, 60, 60)" stroke-width="1px" opacity="0.25"></line><line x1="242.8046875" y1="0" x2="242.8046875" y2="378" fill="rgb(0, 0, 0)" stroke="rgb(60, 60, 60)" stroke-width="1px" opacity="0.25"></line><line x1="364.20703125" y1="0" x2="364.20703125" y2="378" fill="rgb(0, 0, 0)" stroke="rgb(60, 60, 60)" stroke-width="1px" opacity="0.25"></line><line x1="485.609375" y1="0" x2="485.609375" y2="378" fill="rgb(0, 0, 0)" stroke="rgb(60, 60, 60)" stroke-width="1px" opacity="0.25"></line><line x1="607.01171875" y1="0" x2="607.01171875" y2="378" fill="rgb(0, 0, 0)" stroke="rgb(60, 60, 60)" stroke-width="1px" opacity="0.25"></line><line x1="728.4140625" y1="0" x2="728.4140625" y2="378" fill="rgb(0, 0, 0)" stroke="rgb(60, 60, 60)" stroke-width="1px" opacity="0.25"></line><line x1="849.81640625" y1="0" x2="849.81640625" y2="378" fill="rgb(0, 0, 0)" stroke="rgb(60, 60, 60)" stroke-width="1px" opacity="0.25"></line><line x1="971.21875" y1="0" x2="971.21875" y2="378" fill="rgb(0, 0, 0)" stroke="rgb(60, 60, 60)" stroke-width="1px" opacity="0.25"></line><line x1="1092.62109375" y1="0" x2="1092.62109375" y2="378" fill="rgb(0, 0, 0)" stroke="rgb(60, 60, 60)" stroke-width="1px" opacity="0.25"></line><line x1="1214.0234375" y1="0" x2="1214.0234375" y2="378" fill="rgb(0, 0, 0)" stroke="rgb(60, 60, 60)" stroke-width="1px" opacity="0.25"></line><line x1="1335.42578125" y1="0" x2="1335.42578125" y2="378" fill="rgb(0, 0, 0)" stroke="rgb(60, 60, 60)" stroke-width="1px" opacity="0.25"></line><line x1="1456.828125" y1="0" x2="1456.828125" y2="378" fill="rgb(0, 0, 0)" stroke="rgb(60, 60, 60)" stroke-width="1px" opacity="0.25"></line></g><g><line x1="0" y1="378" x2="1456.828125" y2="378" fill="rgb(0, 0, 0)" stroke="rgb(60, 60, 60)" stroke-width="1px" opacity="0.25"></line><line x1="0" y1="350.99999999999994" x2="1456.828125" y2="350.99999999999994" fill="rgb(0, 0, 0)" stroke="rgb(60, 60, 60)" stroke-width="1px" opacity="0.25"></line><line x1="0" y1="324.00000000000006" x2="1456.828125" y2="324.00000000000006" fill="rgb(0, 0, 0)" stroke="rgb(60, 60, 60)" stroke-width="1px" opacity="0.25"></line><line x1="0" y1="297.00000000000006" x2="1456.828125" y2="297.00000000000006" fill="rgb(0, 0, 0)" stroke="rgb(60, 60, 60)" stroke-width="1px" opacity="0.25"></line><line x1="0" y1="270.00000000000006" x2="1456.828125" y2="270.00000000000006" fill="rgb(0, 0, 0)" stroke="rgb(60, 60, 60)" stroke-width="1px" opacity="0.25"></line><line x1="0" y1="243.0000000000001" x2="1456.828125" y2="243.0000000000001" fill="rgb(0, 0, 0)" stroke="rgb(60, 60, 60)" stroke-width="1px" opacity="0.25"></line><line x1="0" y1="216" x2="1456.828125" y2="216" fill="rgb(0, 0, 0)" stroke="rgb(60, 60, 60)" stroke-width="1px" opacity="0.25"></line><line x1="0" y1="189.00000000000009" x2="1456.828125" y2="189.00000000000009" fill="rgb(0, 0, 0)" stroke="rgb(60, 60, 60)" stroke-width="1px" opacity="0.25"></line><line x1="0" y1="161.99999999999991" x2="1456.828125" y2="161.99999999999991" fill="rgb(0, 0, 0)" stroke="rgb(60, 60, 60)" stroke-width="1px" opacity="0.25"></line><line x1="0" y1="135.00000000000003" x2="1456.828125" y2="135.00000000000003" fill="rgb(0, 0, 0)" stroke="rgb(60, 60, 60)" stroke-width="1px" opacity="0.25"></line><line x1="0" y1="108.00000000000011" x2="1456.828125" y2="108.00000000000011" fill="rgb(0, 0, 0)" stroke="rgb(60, 60, 60)" stroke-width="1px" opacity="0.25"></line><line x1="0" y1="80.99999999999996" x2="1456.828125" y2="80.99999999999996" fill="rgb(0, 0, 0)" stroke="rgb(60, 60, 60)" stroke-width="1px" opacity="0.25"></line><line x1="0" y1="54.00000000000006" x2="1456.828125" y2="54.00000000000006" fill="rgb(0, 0, 0)" stroke="rgb(60, 60, 60)" stroke-width="1px" opacity="0.25"></line><line x1="0" y1="26.999999999999904" x2="1456.828125" y2="26.999999999999904" fill="rgb(0, 0, 0)" stroke="rgb(60, 60, 60)" stroke-width="1px" opacity="0.25"></line><line x1="0" y1="0" x2="1456.828125" y2="0" fill="rgb(0, 0, 0)" stroke="rgb(60, 60, 60)" stroke-width="1px" opacity="0.25"></line></g></g></g><g><g><line x1="0" y1="1350" x2="1456.828125" y2="1350" fill="rgb(0, 0, 0)" stroke="rgb(153, 153, 153)" stroke-width="1.5px"></line></g></g><g><g><line x1="121.40234375" y1="0" x2="121.40234375" y2="378" fill="rgb(0, 0, 0)" stroke="rgb(153, 153, 153)" stroke-width="1.5px"></line></g></g><g><g><g><g><g><path stroke="rgb(238, 51, 119)" stroke-width="2px" d="M132.08575000000002,438.75000000000006L136.94184375,333.28125L141.7979375,332.3028786814944L146.65403125,330.81373406683707L151.510125,319.0754732814289L156.36621875,321.56125387238893L161.2223125,313.75264123975L166.07840625,302.2294809785839L170.93449999999999,311.28609511761215L175.79059375,326.8248079081576L180.64668749999998,323.3024464499824L185.50278125,310.0526310557253L190.35887499999998,290.40592210125504L195.21496875000003,265.1237445268591L200.0710625,248.16625295883904L204.92715625,232.59536935758652L209.78324999999998,218.7548548452024L214.63934375000002,189.74995000410516L219.4954375,161.54824463762296L224.35153125,147.3284303168598L229.20762499999998,167.59747879863926L234.06371875000002,166.2584456220081L238.9198125,170.85510024114825L243.77590625,164.61300996791954L248.632,155.46779028031122L253.48809375,155.38065342018209L258.34418750000003,157.12839727413564L263.20028125,163.57706635716465L268.056375,183.6462300427756L272.91246874999996,192.08772615894992L277.76856250000003,214.25262146928046L282.62465625,241.0515835974757L287.48075,279.63095200072615L292.33684375,309.9785652034756L297.19293749999997,329.0871446004167L302.04903125,335.15229712249123L306.905125,336.9913903011726L311.76121875,346.1948256318089L316.61731249999997,338.2168867782424L321.47340625000004,324.4301320485161L326.3295,293.6580620382912L331.18559375,269.7948509444012L336.04168749999997,235.67691742324482L340.89778125000004,212.50614701670528L345.753875,195.9036744753872L350.60996875,185.94219095170084L355.46606249999996,187.1652939717011L360.32215625,174.39915578336863L365.17825,163.1394763037319L370.03434375,165.38368578225723L374.8904375,155.030235501897L379.74653125,157.8181310014637L384.60262500000005,184.69089576706295L389.45871874999995,199.01453059379756L394.3148125,201.30870462336966L399.17090625000003,204.48523307370542L404.027,200.9911295445402L408.88309375,212.39466742704283L413.73918749999996,239.03679702300028L418.59528124999997,246.02205761443548L423.45137500000004,251.11325173479926L428.30746875,261.3679613405624L433.1635625,256.7207974037027L438.01965625,245.83246814253894L442.87575,242.89946715261314L447.73184375,233.0396871580229L452.58793749999995,221.72379856190378L457.44403125,214.0342791371423L462.30012500000004,215.7205743487406L467.15621875,210.43234460924404L472.0123125,204.55939646586407L476.86840624999996,207.33563444629092L481.7245,209.90136350163687L486.58059375000005,226.74082496743742L491.4366875,238.64447438109715L496.29278125,248.48667432897577L501.148875,251.69198399802022L506.00496875,256.3151800991296L510.8610625,263.58910634286394L515.71715625,249.05346723894579L520.57325,251.13207347691247L525.42934375,266.77924923598874L530.2854375,247.3675564080484L535.1415312500001,241.1205098122362L539.997625,248.17232305347943L544.85371875,235.3034144314528L549.7098125,227.58206925823697L554.56590625,224.74923468848723L559.422,225.7495442463199L564.2780937499999,219.14973684747463L569.1341874999999,222.38984554171225L573.9902812500001,233.3339279243927L578.846375,237.20036705431815L583.70246875,235.92023396550115L588.5585625,218.9521438125283L593.41465625,205.171293153972L598.27075,204.1027758923831L603.1268437499999,201.66164150283703L607.9829375,210.096964302337L612.8390312500001,201.6581579820371L617.695125,196.59487418985694L622.55121875,196.2569142142314L627.4073125,206.85412792917367L632.26340625,215.91246645782144L637.1195,196.14749360760283L641.97559375,183.38847213196902L646.8316875,177.53308327918148L651.6877812500001,161.41983623459888L656.543875,140.0519120404419L661.39996875,129.93116782363032L666.2560625,109.4586835280403L671.11215625,91.77522384973439L675.96825,81.16514804275094L680.82434375,101.79910255856078L685.6804375,113.27943750254377L690.5365312499999,124.66767280120884L695.392625,142.30060368072537L700.2487187500001,169.08037250811788L705.1048125,189.64821663841573L709.96090625,187.58893684950453L714.817,189.05337927584043L719.67309375,198.0320241322768L724.5291875,199.81921447936588L729.38528125,210.79153212084705L734.2413750000001,215.574898673143L739.09746875,220.2449426371134L743.9535625000001,201.44698961486083L748.80965625,200.96820750182656L753.66575,198.8809142014133L758.5218437500001,194.92852792148278L763.3779375,191.6571098864347L768.2340312499999,177.99428309799862L773.090125,158.09655955911657L777.9462187500001,145.25793916869742L782.8023125,144.75476006799084L787.65840625,149.85287320693217L792.5145000000001,147.51172049093174L797.37059375,145.20704259424187L802.2266874999999,142.02421182363503L807.08278125,144.6145476935462L811.938875,153.3687423490379L816.79496875,172.12125914233297L821.6510625,186.97276578508252L826.50715625,184.18364230491184L831.36325,185.2101785164919L836.2193437499999,203.8260830773024L841.0754375,221.29563268024387L845.93153125,236.27739677428409L850.7876249999999,238.0664620971633L855.6437187500001,237.33987725829795L860.4998125,240.50392292175127L865.35590625,237.00232972045814L870.2120000000001,225.00142186486772L875.06809375,229.5008531189206L879.9241875,228.60051530457983L884.7802812499999,227.16032634888543L889.636375,219.99620610901394L894.49246875,216.597720232181L899.3485625,208.25862183962587L904.2046562500001,199.65516623732054L909.06075,189.093123774985L913.91684375,180.05588799790124L918.7729375,174.63354653165092L923.62903125,137.18014851835582L928.4851249999999,120.10807881133077L933.34121875,97.26482325420555L938.1973125000001,78.15890081897842L943.05340625,72.9953542242972L947.9095,58.19719880166821L952.76559375,58.318322714228415L957.6216875,66.49097646239935L962.4777812499999,74.99456527807428L967.333875,84.59675289975465L972.18996875,90.35806547276285L977.0460625,110.91484958334033L981.9021562500001,112.44893034936952L986.75825,109.76938224221453L991.61434375,103.66161904564615L996.4704375000001,99.99696112770513L1001.32653125,103.1981869763057L1006.182625,105.11892248546596L1011.0387187499999,106.2713637909623L1015.8948125000001,94.36281484134989L1020.75090625,90.81768203835473L1025.607,99.49059205687512L1030.46309375,101.99437926671777L1035.3191875,123.29660696066541L1040.17528125,118.97794701026166L1045.031375,129.8867510400193L1049.88746875,132.83203689110155L1054.7435625,123.79921870143345L1059.5996562500002,119.27951405472227L1064.45575,130.06769126669565L1069.31184375,144.64062849292762L1074.1679374999999,136.28439426189425L1079.02403125,131.27065372327425L1083.880125,129.16239566719213L1088.73621875,113.49745456645286L1093.5923125000002,121.19848647278195L1098.44840625,123.11909531689673L1103.3045,129.6714812227308L1108.16059375,121.90288530041097L1113.0166875,129.84174147992925L1117.87278125,125.6050380215025L1122.728875,144.6630468454943L1127.5849687500001,165.99780407470388L1132.4410625,192.29865841222963L1137.29715625,214.37917788120026L1142.15325,233.02751016194776L1147.00934375,237.0165163968511L1151.8654374999999,236.7099098381107L1156.72153125,241.0259287367285L1161.577625,237.3155332094444L1166.43371875,229.6893267921217L1171.2898125000002,227.8136132414106L1176.14590625,214.08817137807378L1181.002,202.25290969329933L1185.8580937499999,193.35172864984187L1190.7141875,194.3110268902227L1195.5702812499999,193.0866333002713L1200.426375,198.65200401275544L1205.2824687500001,201.9912264402461L1210.1385625,220.19471869800992L1214.99465625,228.41685525139883L1219.85075,231.55011315083922L1224.70684375,230.7300575908209L1229.5629374999999,231.13801052189976L1234.41903125,217.88278228054708L1239.2751250000001,206.32964876896293L1244.13121875,202.99776522878503L1248.9873125,188.39867287018106L1253.84340625,176.93920715533625L1258.6995,157.46351399351917L1263.5555937499998,145.77809809642886L1268.4116875,137.86686229108486L1273.26778125,133.1201208078785L1278.123875,146.4720862176372L1282.9799687500001,164.38326889672L1287.8360625,173.32995447157683L1292.69215625,177.79797954940102L1297.54825,177.77878429641328L1302.40434375,175.96729461044072L1307.2604375,165.88038363271943L1312.11653125,176.928233612859L1316.972625,193.45694703417047L1321.82871875,187.17416478727486L1326.6848125,184.3044817062271L1331.54090625,180.78269932341874L1336.397,180.46960242791343L1341.25309375,187.48173742415523L1346.1091875,186.289049320948L1350.96528125,197.27341242643132L1355.821375,196.66403715617636L1360.6774687500001,200.79844632629866L1365.5335625,195.17906092932424L1370.38965625,179.20741595822932L1375.2457499999998,147.12446330784775L1380.10184375,141.37469171761893L1384.9579375,116.32479786443359L1389.81403125,99.49488901834265L1394.670125,78.5969540103708L1399.52621875,56.15818957236011L1404.3823125,40.89490687696115" style="fill: none;" fill="none"></path></g><g><path stroke="rgb(51, 187, 238)" stroke-width="2px" d="M161.2223125,419.0807499199609L166.07840625,370.91211746278714L170.93449999999999,332.2344193943142L175.79059375,314.68279063223946L180.64668749999998,303.9708047434449L185.50278125,284.94103858787605L190.35887499999998,274.4509395214528L195.21496875000003,260.9600156957797L200.0710625,261.8764300020318L204.92715625,279.53085052357983L209.78324999999998,293.72092080208785L214.63934375000002,304.03360670364117L219.4954375,310.22054789592755L224.35153125,322.0327726275042L229.20762499999998,312.0194336146963L234.06371875000002,298.8114828902924L238.9198125,276.4867237284878L243.77590625,254.09192125552335L248.632,231.65506493209253L253.48809375,208.29302314047368L258.34418750000003,206.87579870085833L263.20028125,217.72549961616386L268.056375,199.93531724738213L272.91246874999996,188.36117405677788L277.76856250000003,194.01670518424115L282.62465625,167.71001071720153L287.48075,157.32601623414712L292.33684375,161.89560987141252L297.19293749999997,172.73734550985952L302.04903125,158.54239342659278L306.905125,155.42544290312082L311.76121875,158.95524172238655L316.61731249999997,155.67315189257462L321.47340625000004,149.20391515948987L326.3295,166.92235254313255L331.18559375,183.85342183370986L336.04168749999997,196.7120737033039L340.89778125000004,197.22722018947866L345.753875,197.53630808112658L350.60996875,195.92178828180292L355.46606249999996,209.35306266990168L360.32215625,226.41184446877904L365.17825,242.04708264888538L370.03434375,259.5282564559275L374.8904375,261.0169435738811L379.74653125,261.9101558446486L384.60262500000005,272.34608664035227L389.45871874999995,279.5076571340603L394.3148125,291.0045925638297L399.17090625000003,297.0027675545964L404.027,299.7016605327586L408.88309375,296.8209877365859L413.73918749999996,294.19259779179265L418.59528124999997,291.71555180862043L423.45137500000004,283.029331085172L428.30746875,267.01760895078576L433.1635625,240.31057910338126L438.01965625,220.68636462816636L442.87575,205.31183937626508L447.73184375,189.78711735866912L452.58793749999995,175.9722498158361L457.44403125,167.68332929013656L462.30012500000004,165.40998727439936L467.15621875,164.04598206495692L472.0123125,172.22759610542943L476.86840624999996,178.93653706389222L481.7245,179.36190507219766L486.58059375000005,201.2171567762288L491.4366875,205.33029063250973L496.29278125,170.89816751305074L501.148875,152.93890394105802L506.00496875,157.4633183320421L510.8610625,170.07797039985996L515.71715625,170.44676850700588L520.57325,171.56808513679627L525.42934375,175.84087168144302L530.2854375,173.00452300886587L535.1415312500001,182.10270350563684L539.997625,156.06162896983727L544.85371875,154.83697051544718L549.7098125,146.90218230926837L554.56590625,129.54129565265083L559.422,119.12476365868027L564.2780937499999,130.87487879457328L569.1341874999999,137.02491011060633L573.9902812500001,137.11493233345357L578.846375,168.6689799994374L583.70246875,181.30140173257254L588.5585625,198.7808582056812L593.41465625,205.66853552277394L598.27075,192.7011453462572L603.1268437499999,191.2206666083892L607.9829375,196.63238623212348L612.8390312500001,186.379418006364L617.695125,185.62765767027363L622.55121875,184.27661520152935L627.4073125,183.46598972028283L632.26340625,183.87960069862487L637.1195,183.22778101854004L641.97559375,198.13666174466888L646.8316875,216.08200734648386L651.6877812500001,205.24918380852506L656.543875,206.84952058479772L661.39996875,221.3097226505612L666.2560625,222.78585075647453L671.11215625,228.17151045388476L675.96825,244.90290627233074L680.82434375,259.4417523464672L685.6804375,250.16505140788036L690.5365312499999,226.5990480108659L695.392625,213.35943223974698L700.2487187500001,213.51564217771067L705.1048125,194.70939903953666L709.96090625,190.6256462901769L714.817,196.2753740411962L719.67309375,195.16522785794515L724.5291875,184.59913671476718L729.38528125,185.45947516240514L734.2413750000001,187.77570226358083L739.09746875,184.66540419201084L743.9535625000001,177.3992562481165L748.80965625,174.83954001595964L753.66575,178.703730876031L758.5218437500001,181.92223165916351L763.3779375,167.65332182936046L768.2340312499999,177.09201026375408L773.090125,182.7552233243901L777.9462187500001,181.6531168284964L782.8023125,191.79189412969063L787.65840625,191.57515364395218L792.5145000000001,195.04510591928155L797.37059375,193.52708071770664L802.2266874999999,181.81622439803127L807.08278125,172.9897380720464L811.938875,164.09384970968298L816.79496875,153.35629609289967L821.6510625,147.81380168833252L826.50715625,153.4882707133169L831.36325,164.9929830273553L836.2193437499999,177.29577951673056L841.0754375,178.3774505439006L845.93153125,188.9264565934304L850.7876249999999,195.25586022314818L855.6437187500001,135.15349896775143L860.4998125,98.19209594742341L865.35590625,76.91524040231636L870.2120000000001,63.24914080816224L875.06809375,29.849505084262535L879.9241875,0.8097064837848578L884.7802812499999,-26.514176109729075L904.2046562500001,-10.79460898895778L909.06075,27.723227740170266L913.91684375,38.23391604473705L918.7729375,83.24035649329736L923.62903125,106.64422419566108L928.4851249999999,99.98655168353427L933.34121875,90.59192757689303L938.1973125000001,90.35517371227348L943.05340625,77.61310766059171L947.9095,64.56784743021733L952.76559375,62.140711891357846L957.6216875,56.184447734179955L962.4777812499999,53.51067550696306L967.333875,46.50639157126751L972.18996875,54.903834942760426L977.0460625,70.74229066597358L981.9021562500001,78.44539156572186L986.75825,87.56723493943315L991.61434375,97.54032379752213L996.4704375000001,106.22418741205817L1001.32653125,108.73449528109721L1006.182625,122.84069373543075L1011.0387187499999,142.1044025083482L1015.8948125000001,159.9626346385537L1020.75090625,161.67755675053957L1025.607,174.40653748355106L1030.46309375,186.54390875722055L1035.3191875,187.52632465496717L1040.17528125,182.71580509266292L1045.031375,169.02950365496292L1049.88746875,167.117678160385L1054.7435625,154.27060689623087L1059.5996562500002,135.76237443742113L1064.45575,123.7574486950455L1069.31184375,126.45444518443458L1074.1679374999999,118.17269114325342L1079.02403125,97.90361468595194L1083.880125,77.64218941093631L1088.73621875,81.68529304719655L1093.5923125000002,84.11115522895263L1098.44840625,93.66670343705408L1103.3045,93.10002549546L1108.16059375,28.860015297275943L1113.0166875,-6.083994254861937L1132.4410625,-0.6300983721048206L1137.29715625,6.821934110281926" style="fill: none;" fill="none"></path></g><g><path stroke="rgb(187, 187, 187)" stroke-width="2px" d="M132.08575000000002,350.99998712539673L136.94184375,309.749999642372L141.7979375,317.0204145567758L146.65403125,302.57027832900775L151.510125,273.33322299345764L156.36621875,236.1603066597284L161.2223125,222.9859479751062L166.07840625,220.81633636632026L170.93449999999999,177.5272124260425L175.79059375,145.92525624409134L180.64668749999998,124.37698067028182L185.50278125,115.10600751155948L190.35887499999998,118.5681434629035L195.21496875000003,117.03970893216356L200.0710625,130.5301752404464L204.92715625,157.5256968450208L209.78324999999998,176.41860231186962L214.63934375000002,187.7522987039262L219.4954375,248.55509631634666L224.35153125,302.1350253399739L229.20762499999998,335.1817349981817L234.06371875000002,347.80920892048607L238.9198125,348.18553690733637L243.77590625,341.21127879802475L248.632,341.52676645914147L253.48809375,336.3160544201899L258.34418750000003,327.78963250847204L263.20028125,318.1737736000398L268.056375,316.0042599274249L272.91246874999996,310.2025426575503L277.76856250000003,301.32151755005725L282.62465625,297.792901666135L287.48075,319.0757368661368L292.33684375,335.4454340056245L297.19293749999997,352.4672709956748L302.04903125,351.8803574415099L306.905125,354.2282196292773L311.76121875,356.53692320307016L316.61731249999997,359.72214362925604L321.47340625000004,348.13327586237943L326.3295,339.3799569273383L331.18559375,331.42798101903134L336.04168749999997,314.05678173994795L340.89778125000004,291.0340484406149L345.753875,269.1204290620911L350.60996875,258.67226773628556L355.46606249999996,231.70337780690002L360.32215625,203.8220163838314L365.17825,177.19319609702984L370.03434375,155.81593482418256L374.8904375,126.78956776082389L379.74653125,119.27375095615528L384.60262500000005,113.86427460627635L389.45871874999995,119.61855446408948L394.3148125,120.37111207908875L399.17090625000003,144.2226500813245L404.027,160.3335969152535L408.88309375,177.2001581491543L413.73918749999996,203.52010518917726L418.59528124999997,231.9120613968942L423.45137500000004,225.5472574375018L428.30746875,219.02836476218354L433.1635625,230.41700169117252L438.01965625,247.1502130310001L442.87575,254.49010378600747L447.73184375,248.09404853869407L452.58793749999995,235.2564497225818L457.44403125,222.15386983354892L462.30012500000004,206.19234249949474L467.15621875,211.0154123661518L472.0123125,208.50923368678102L476.86840624999996,206.10554021206832L481.7245,213.66334129337864L486.58059375000005,210.9980288086202L491.4366875,219.29879325257954L496.29278125,235.07929311768538L501.148875,240.04755870447352L506.00496875,242.12853178945664L510.8610625,251.47709504108104L515.71715625,241.78626045787607L520.57325,239.57175627472557L525.42934375,234.6430571980628L530.2854375,233.48581028624488L535.1415312500001,235.49147243883675L539.997625,227.6949040626672L544.85371875,224.8169355711452L549.7098125,232.09017164236968L554.56590625,231.95407895282924L559.422,222.8724576713802L564.2780937499999,212.92345057023533L569.1341874999999,199.75405317600345L573.9902812500001,179.25245250496718L578.846375,174.1514852358904L583.70246875,164.7908980079894L588.5585625,144.7745594041588L593.41465625,122.8647528086329L598.27075,113.31886541809001L603.1268437499999,122.89130551794379L607.9829375,118.73476614462854L612.8390312500001,116.24084252063936L617.695125,127.34450207915614L622.55121875,131.30668751458353L627.4073125,114.78402967488779L632.26340625,133.67040750524995L637.1195,156.7022616692876L641.97559375,157.92136043480016L646.8316875,162.25281626088014L651.6877812500001,176.5516657239352L656.543875,173.43099943436133L661.39996875,156.2585756280241L666.2560625,154.05515224326956L671.11215625,172.53310507887187L675.96825,173.7198733470058L680.82434375,180.73194117434127L685.6804375,186.73915440492223L690.5365312499999,196.64348920972563L695.392625,195.38609695906288L700.2487187500001,187.43166847512038L705.1048125,187.15899421861724L709.96090625,213.09540339762535L714.817,212.45723860534758L719.67309375,218.37434659643603L724.5291875,218.32461482431665L729.38528125,215.59476546136256L734.2413750000001,207.65684897713498L739.09746875,202.89409908659832L743.9535625000001,213.53644915227642L748.80965625,206.4218591916831L753.66575,203.0530914824172L758.5218437500001,200.13184458976778L763.3779375,197.47911018708822L768.2340312499999,190.48744894611528L773.090125,170.0924934002621L777.9462187500001,165.05551320629476L782.8023125,160.23330105732188L787.65840625,157.33997376793795L792.5145000000001,167.30400486012812L797.37059375,183.18242694866967L802.2266874999999,193.60946646888442L807.08278125,197.16567988133068L811.938875,200.19939419588826L816.79496875,210.1196536836707L821.6510625,205.27176817760954L826.50715625,214.96305060688317" style="fill: none;" fill="none"></path></g><g><path stroke="rgb(0, 153, 136)" stroke-width="2px" d="M151.510125,403.9818011448669L156.36621875,372.0417308759357L161.2223125,359.96386662461146L166.07840625,345.1037354164425L170.93449999999999,327.59165429016235L175.79059375,314.2927516501677L180.64668749999998,299.26690429797736L185.50278125,278.5149529314765L190.35887499999998,256.1797798734102L195.21496875000003,252.70512787591503L200.0710625,242.5182904607838L204.92715625,249.0128236217923L209.78324999999998,236.7056178407208L214.63934375000002,210.4206874751332L219.4954375,213.55261019829678L224.35153125,211.83151349263792L229.20762499999998,204.49875067035433L234.06371875000002,196.49915197658672L238.9198125,202.4995351395637L243.77590625,194.39970330301162L248.632,186.83981078849737L253.48809375,194.00388496079L258.34418750000003,228.0023623403606L263.20028125,258.30143601070233L268.056375,294.4808835200442L272.91246874999996,310.7885217009236L277.76856250000003,312.4731218270758L282.62465625,307.183874391906L287.48075,313.0103180469125L292.33684375,305.70619405210334L297.19293749999997,300.4237077573835L302.04903125,296.3542297622972L306.905125,285.8125377921393L311.76121875,275.88752607165765L316.61731249999997,278.9325104999372L321.47340625000004,261.8595062771399L326.3295,212.9157277596213L331.18559375,193.44941261381226L336.04168749999997,183.56964756543485L340.89778125000004,183.04180913853443L345.753875,189.0250614511499L350.60996875,171.0150334363392L355.46606249999996,144.00900632788282L360.32215625,133.2054106629421L365.17825,125.82326699703104L370.03434375,196.0939481824902L374.8904375,234.6563603266122L379.74653125,265.8938127628308L384.60262500000005,271.13628422448005L389.45871874999995,268.88174650209305L394.3148125,260.3290307351126L399.17090625000003,265.9974167244558L404.027,272.0984586177438L408.88309375,287.45908547033105L413.73918749999996,285.87544613235724L418.59528124999997,272.32527454586875L423.45137500000004,270.4951784604315L428.30746875,254.99708304366592L433.1635625,196.19826012588143L438.01965625,142.01894577584605L442.87575,116.71135029937011L447.73184375,105.12678958025667L452.58793749999995,97.27606688169895L457.44403125,97.96565386192948L462.30012500000004,103.77937515102005L467.15621875,90.16761135770147L472.0123125,133.30054278202826L476.86840624999996,160.98032566921682L481.7245,181.18819196830242L486.58059375000005,170.8128945816163L491.4366875,164.58771614960443L496.29278125,166.25262968976287L501.148875,153.75157781385772L506.00496875,145.35096042122498L510.8610625,151.11057968596265L515.71715625,166.26632721221225L520.57325,161.85977572796222L525.42934375,161.9158551370948L530.2854375,169.14949591611918L535.1415312500001,165.38970098289906L539.997625,161.3337999903742L544.85371875,155.3002628280869L549.7098125,141.78013709748697L554.56590625,130.06806509235437L559.422,131.140852788323L564.2780937499999,133.58449794008374L569.1341874999999,131.45068846436754L573.9902812500001,137.37039591248282L578.846375,152.62224784717245L583.70246875,171.67336244121364L588.5585625,190.3040243311833L593.41465625,205.08241803193764L598.27075,231.94946283545906L603.1268437499999,250.76967426804805L607.9829375,252.16179769437386L612.8390312500001,250.29706145048655L617.695125,237.47824373674692L622.55121875,236.98694624204813L627.4073125,229.49217461168385L632.26340625,212.39529790055545L637.1195,198.53717530710583L641.97559375,192.92231205071852L646.8316875,181.45336319783823L651.6877812500001,174.57199388611005L656.543875,180.3431757323008L661.39996875,195.50591230583566L666.2560625,198.3035473835015L671.11215625,189.18213872978347L675.96825,179.20925920527728L680.82434375,178.62555208993894L685.6804375,181.87532438750827L690.5365312499999,190.12519463250507L695.392625,187.87512364595807L700.2487187500001,171.225057021437L705.1048125,148.63505481222745L709.96090625,140.48102258765383L714.817,126.5886375851852L719.67309375,128.1531585185184L724.5291875,134.4918916778834L729.38528125,137.39514530641262L734.2413750000001,142.73709405030286L739.09746875,145.94226329663687L743.9535625000001,155.9653442450721L748.80965625,168.27919968058825L753.66575,187.36754040771825L758.5218437500001,201.5205036452657L763.3779375,215.4123021871595L768.2340312499999,224.64736757938536L773.090125,241.8884342805415L777.9462187500001,248.63307773446263L782.8023125,244.57983290776738L787.65840625,236.74791691079807L792.5145000000001,231.14872954711376L797.37059375,222.38924802795083L802.2266874999999,216.2335728493633L807.08278125,213.4401540093005L811.938875,203.66407180621502L816.79496875,196.898436217274L821.6510625,189.23905829713692L826.50715625,190.04345214441983L831.36325,196.82609531924456L836.2193437499999,201.79566749122927L841.0754375,199.37739019505503L845.93153125,190.72643068380552L850.7876249999999,191.83586184351083L855.6437187500001,202.40152397256165L860.4998125,207.84093498290227L865.35590625,194.00458502233423L870.2120000000001,192.0027304140353L875.06809375,186.30163481519364L879.9241875,163.98095685652345L884.7802812499999,148.78857754714173L889.636375,145.9731568279676L894.49246875,153.2838700641877L899.3485625,152.2703289049677L904.2046562500001,135.46219390975313L909.06075,128.07732321230705L913.91684375,127.24639736061181L918.7729375,116.84783841636701L923.62903125,103.40870991627527L928.4851249999999,70.14520535040003L933.34121875,57.387147242832754L938.1973125000001,56.93230551183735L943.05340625,59.35935927450949L947.9095,58.11563273084337L952.76559375,72.66936933882342L957.6216875,76.90162846974908L962.4777812499999,91.14095991571176L967.333875,125.78457251619947L972.18996875,157.37072977680958L977.0460625,187.12241383349297L981.9021562500001,201.3734277007304L986.75825,190.12408065303111L991.61434375,182.47443465890865L996.4704375000001,162.58467452825525L1001.32653125,133.55082188309086L1006.182625,111.63047596371698L1011.0387187499999,116.47830274436798L1015.8948125000001,110.3869816466207L1020.75090625,135.53221302056525L1025.607,139.8193106462014L1030.46309375,154.09159668740347L1035.3191875,167.15495114598718L1040.17528125,141.69295695468224L1045.031375,127.31579820540205L1049.88746875,117.78946519033103L1054.7435625,127.3736894138812L1059.5996562500002,133.12422394801155L1064.45575,135.6745584013998L1069.31184375,116.50471444147465L1074.1679374999999,142.80284926424994L1079.02403125,146.88170269209496L1083.880125,143.92904564784956L1088.73621875,141.2574136557997L1093.5923125000002,127.05447222607263L1098.44840625,122.13270393500895L1103.3045,111.97959832841259L1108.16059375,113.08777959641282L1113.0166875,71.45266432462022L1117.87278125,59.97159516154451L1122.728875,63.882943364016455L1127.5849687500001,60.829783184547466L1132.4410625,82.39789051009382L1137.29715625,90.83872057314609L1142.15325,99.50321517775L1147.00934375,148.80190850728476L1151.8654374999999,142.38115883728094L1156.72153125,131.328715901734L1161.577625,130.09721924135772L1166.43371875,114.05834871095233L1171.2898125000002,119.73499892688864L1176.14590625,115.94099592290573L1181.002,111.8646215863363L1185.8580937499999,132.81874891920904L1190.7141875,143.59125278475298L1195.5702812499999,150.9547413711692L1200.426375,114.87283452301871L1205.2824687500001,93.22369041412854L1210.1385625,82.03422798138725L1214.99465625,72.6205402220598L1219.85075,73.27233443291848L1224.70684375,67.3634040929786L1229.5629374999999,65.61801842319448L1234.41903125,60.97079045455166L1239.2751250000001,105.88249830532388L1244.13121875,117.52949898319422L1248.9873125,125.41768565700644L1253.84340625,129.25061139420382L1258.6995,115.35035653683964L1263.5555937499998,113.31021048887628L1268.4116875,119.28611599364311L1273.26778125,130.07165243004832L1278.123875,126.6429708586637L1282.9799687500001,117.38576878228801L1287.8360625,125.33144753646268" style="fill: none;" fill="none"></path></g></g></g></g><g opacity="0.2"><g><g><g><path stroke="rgb(238, 51, 119)" stroke-width="2px" d="M132.08575000000002,438.75000000000006L136.94184375,270.00000000000006L141.7979375,331.36364221572876L146.65403125,329.0625L151.510125,303.75L156.36621875,324.9999833106995L161.2223125,302.58620023727417L166.07840625,285.4286026954651L170.93449999999999,324.6428418159485L175.79059375,349.897985458374L180.64668749999998,318.0508518218994L185.50278125,290.25001287460327L190.35887499999998,261.00000858306885L195.21496875000003,227.25000858306888L200.0710625,222.7499485015869L204.92715625,209.25002574920654L209.78324999999998,197.9999399185181L214.63934375000002,146.2499570846558L219.4954375,119.24998283386232L224.35153125,126.00000858306885L229.20762499999998,197.9999399185181L234.06371875000002,164.2499399185181L238.9198125,177.74999141693115L243.77590625,155.2499485015869L248.632,141.75002574920657L253.48809375,155.2499485015869L258.34418750000003,159.75000858306885L263.20028125,173.25006008148193L268.056375,213.7499570846558L272.91246874999996,204.74996566772464L277.76856250000003,247.49995708465576L282.62465625,281.2500214576721L287.48075,337.5L292.33684375,355.4999828338623L297.19293749999997,357.75001287460327L302.04903125,344.25002574920654L306.905125,339.75003004074097L311.76121875,359.99997854232794L316.61731249999997,326.24997854232794L321.47340625000004,303.75L326.3295,247.49995708465576L331.18559375,234.00003433227542L336.04168749999997,184.5000171661377L340.89778125000004,177.74999141693115L345.753875,170.9999656677246L350.60996875,170.9999656677246L355.46606249999996,188.9999485015869L360.32215625,155.2499485015869L365.17825,146.2499570846558L370.03434375,168.75000000000003L374.8904375,139.50006008148193L379.74653125,161.99997425079346L384.60262500000005,225.00004291534424L389.45871874999995,220.4999828338623L394.3148125,204.74996566772464L399.17090625000003,209.25002574920654L404.027,195.74997425079346L408.88309375,229.49997425079346L413.73918749999996,278.99999141693115L418.59528124999997,256.4999485015869L423.45137500000004,258.75004291534424L428.30746875,276.75002574920654L433.1635625,249.7500514984131L438.01965625,229.49997425079346L442.87575,238.49996566772464L447.73184375,218.2500171661377L452.58793749999995,204.74996566772464L457.44403125,202.50000000000003L462.30012500000004,218.2500171661377L467.15621875,202.50000000000003L472.0123125,195.74997425079346L476.86840624999996,211.49999141693115L481.7245,213.7499570846558L486.58059375000005,252.0000171661377L491.4366875,256.4999485015869L496.29278125,263.24997425079346L501.148875,256.4999485015869L506.00496875,263.24997425079346L510.8610625,274.49999570846563L515.71715625,227.25000858306888L520.57325,254.24998283386233L525.42934375,290.25001287460327L530.2854375,218.2500171661377L535.1415312500001,231.74993991851807L539.997625,258.75004291534424L544.85371875,216.00005149841311L549.7098125,216.00005149841311L554.56590625,220.4999828338623L559.422,227.25000858306888L564.2780937499999,209.25002574920654L569.1341874999999,227.25000858306888L573.9902812500001,249.7500514984131L578.846375,243.00002574920657L583.70246875,234.00003433227542L588.5585625,193.50000858306888L593.41465625,184.5000171661377L598.27075,202.50000000000003L603.1268437499999,197.9999399185181L607.9829375,222.7499485015869L612.8390312500001,188.9999485015869L617.695125,188.9999485015869L622.55121875,195.74997425079346L627.4073125,222.7499485015869L632.26340625,229.49997425079346L637.1195,166.5000343322754L641.97559375,164.2499399185181L646.8316875,168.75000000000003L651.6877812500001,137.2499656677246L656.543875,108.00002574920656L661.39996875,114.75005149841309L666.2560625,78.74995708465578L671.11215625,65.25003433227538L675.96825,65.25003433227538L680.82434375,132.7500343322754L685.6804375,130.49993991851807L690.5365312499999,141.75002574920657L695.392625,168.75000000000003L700.2487187500001,209.25002574920654L705.1048125,220.4999828338623L709.96090625,184.5000171661377L714.817,191.25004291534427L719.67309375,211.49999141693115L724.5291875,202.50000000000003L729.38528125,227.25000858306888L734.2413750000001,222.7499485015869L739.09746875,227.25000858306888L743.9535625000001,173.25006008148193L748.80965625,200.2500343322754L753.66575,195.74997425079346L758.5218437500001,188.9999485015869L763.3779375,186.74998283386233L768.2340312499999,157.50004291534427L773.090125,128.24997425079346L777.9462187500001,126.00000858306885L782.8023125,143.99999141693115L787.65840625,157.50004291534427L792.5145000000001,143.99999141693115L797.37059375,141.75002574920657L802.2266874999999,137.2499656677246L807.08278125,148.5000514984131L811.938875,166.5000343322754L816.79496875,200.2500343322754L821.6510625,209.25002574920654L826.50715625,179.9999570846558L831.36325,186.74998283386233L836.2193437499999,231.74993991851807L841.0754375,247.49995708465576L845.93153125,258.75004291534424L850.7876249999999,240.75006008148193L855.6437187500001,236.25L860.4998125,245.24999141693118L865.35590625,231.74993991851807L870.2120000000001,207.00006008148193L875.06809375,236.25L879.9241875,227.25000858306888L884.7802812499999,225.00004291534424L889.636375,209.25002574920654L894.49246875,211.49999141693115L899.3485625,195.74997425079346L904.2046562500001,186.74998283386233L909.06075,173.25006008148193L913.91684375,166.5000343322754L918.7729375,166.5000343322754L923.62903125,81.00005149841309L928.4851249999999,94.49997425079349L933.34121875,62.999939918518066L938.1973125000001,49.50001716613772L943.05340625,65.25003433227538L947.9095,35.999965667724595L952.76559375,58.50000858306884L957.6216875,78.74995708465578L962.4777812499999,87.7499485015869L967.333875,99.00003433227539L972.18996875,99.00003433227539L977.0460625,141.75002574920657L981.9021562500001,114.75005149841309L986.75825,105.75006008148192L991.61434375,94.49997425079349L996.4704375000001,94.49997425079349L1001.32653125,108.00002574920656L1006.182625,108.00002574920656L1011.0387187499999,108.00002574920656L1015.8948125000001,76.49999141693114L1020.75090625,85.4999828338623L1025.607,112.49995708465578L1030.46309375,105.75006008148192L1035.3191875,155.2499485015869L1040.17528125,112.49995708465578L1045.031375,146.2499570846558L1049.88746875,137.2499656677246L1054.7435625,110.24999141693115L1059.5996562500002,112.49995708465578L1064.45575,146.2499570846558L1069.31184375,166.5000343322754L1074.1679374999999,123.75004291534427L1079.02403125,123.75004291534427L1083.880125,126.00000858306885L1088.73621875,90.00004291534425L1093.5923125000002,132.7500343322754L1098.44840625,126.00000858306885L1103.3045,139.50006008148193L1108.16059375,110.24999141693115L1113.0166875,141.75002574920657L1117.87278125,119.24998283386232L1122.728875,173.25006008148193L1127.5849687500001,197.9999399185181L1132.4410625,231.74993991851807L1137.29715625,247.49995708465576L1142.15325,261.00000858306885L1147.00934375,243.00002574920657L1151.8654374999999,236.25L1156.72153125,247.49995708465576L1161.577625,231.74993991851807L1166.43371875,218.2500171661377L1171.2898125000002,225.00004291534424L1176.14590625,193.50000858306888L1181.002,184.5000171661377L1185.8580937499999,179.9999570846558L1190.7141875,195.74997425079346L1195.5702812499999,191.25004291534427L1200.426375,207.00006008148193L1205.2824687500001,207.00006008148193L1210.1385625,247.49995708465576L1214.99465625,240.75006008148193L1219.85075,236.25L1224.70684375,229.49997425079346L1229.5629374999999,231.74993991851807L1234.41903125,197.9999399185181L1239.2751250000001,188.9999485015869L1244.13121875,197.9999399185181L1248.9873125,166.5000343322754L1253.84340625,159.75000858306885L1258.6995,128.24997425079346L1263.5555937499998,128.24997425079346L1268.4116875,126.00000858306885L1273.26778125,126.00000858306885L1278.123875,166.5000343322754L1282.9799687500001,191.25004291534427L1287.8360625,186.74998283386233L1292.69215625,184.5000171661377L1297.54825,177.74999141693115L1302.40434375,173.25006008148193L1307.2604375,150.7500171661377L1312.11653125,193.50000858306888L1316.972625,218.2500171661377L1321.82871875,177.74999141693115L1326.6848125,179.9999570846558L1331.54090625,175.50002574920657L1336.397,179.9999570846558L1341.25309375,197.9999399185181L1346.1091875,184.5000171661377L1350.96528125,213.7499570846558L1355.821375,195.74997425079346L1360.6774687500001,207.00006008148193L1365.5335625,186.74998283386233L1370.38965625,155.2499485015869L1375.2457499999998,99.00003433227539L1380.10184375,132.7500343322754L1384.9579375,78.74995708465578L1389.81403125,74.25002574920654L1394.670125,47.25005149841308L1399.52621875,22.500042915344245L1404.3823125,17.999982833862298" style="fill: none;" fill="none"></path></g><g><path stroke="rgb(51, 187, 238)" stroke-width="2px" d="M156.36621875,432.93106555938726L161.2223125,313.783757686615L166.07840625,300.6817889213562L170.93449999999999,275.19232749938965L175.79059375,288.6206674575806L180.64668749999998,287.9999828338623L185.50278125,256.4999485015869L190.35887499999998,258.75004291534424L195.21496875000003,240.75006008148193L200.0710625,263.24997425079346L204.92715625,306.00003004074097L209.78324999999998,315.0000214576722L214.63934375000002,319.5000171661377L219.4954375,319.5000171661377L224.35153125,339.75003004074097L229.20762499999998,296.99997425079346L234.06371875000002,278.99999141693115L238.9198125,243.00002574920657L243.77590625,220.4999828338623L248.632,197.9999399185181L253.48809375,173.25006008148193L258.34418750000003,204.74996566772464L263.20028125,234.00003433227542L268.056375,173.25006008148193L272.91246874999996,170.9999656677246L277.76856250000003,202.50000000000003L282.62465625,128.24997425079346L287.48075,141.75002574920657L292.33684375,168.75000000000003L297.19293749999997,188.9999485015869L302.04903125,137.2499656677246L306.905125,150.7500171661377L311.76121875,164.2499399185181L316.61731249999997,150.7500171661377L321.47340625000004,139.50006008148193L326.3295,193.50000858306888L331.18559375,209.25002574920654L336.04168749999997,216.00005149841311L340.89778125000004,197.9999399185181L345.753875,197.9999399185181L350.60996875,193.50000858306888L355.46606249999996,229.49997425079346L360.32215625,252.0000171661377L365.17825,265.4999399185181L370.03434375,285.7500171661377L374.8904375,263.24997425079346L379.74653125,263.24997425079346L384.60262500000005,287.9999828338623L389.45871874999995,290.25001287460327L394.3148125,308.2499957084656L399.17090625000003,306.00003004074097L404.027,303.75L408.88309375,292.49997854232794L413.73918749999996,290.25001287460327L418.59528124999997,287.9999828338623L423.45137500000004,270.00000000000006L428.30746875,243.00002574920657L433.1635625,200.2500343322754L438.01965625,191.25004291534427L442.87575,182.25005149841311L447.73184375,166.5000343322754L452.58793749999995,155.2499485015869L457.44403125,155.2499485015869L462.30012500000004,161.99997425079346L467.15621875,161.99997425079346L472.0123125,184.5000171661377L476.86840624999996,188.9999485015869L481.7245,179.9999570846558L486.58059375000005,234.00003433227542L491.4366875,211.49999141693115L496.29278125,119.24998283386232L501.148875,126.00000858306885L506.00496875,164.2499399185181L510.8610625,188.9999485015869L515.71715625,170.9999656677246L520.57325,173.25006008148193L525.42934375,182.25005149841311L530.2854375,168.75000000000003L535.1415312500001,195.74997425079346L539.997625,117.00001716613768L544.85371875,152.99998283386233L549.7098125,135.00000000000003L554.56590625,103.49996566772461L559.422,103.49996566772461L564.2780937499999,148.5000514984131L569.1341874999999,146.2499570846558L573.9902812500001,137.2499656677246L578.846375,216.00005149841311L583.70246875,200.2500343322754L588.5585625,225.00004291534424L593.41465625,216.00005149841311L598.27075,173.25006008148193L603.1268437499999,188.9999485015869L607.9829375,204.74996566772464L612.8390312500001,170.9999656677246L617.695125,184.5000171661377L622.55121875,182.25005149841311L627.4073125,182.25005149841311L632.26340625,184.5000171661377L637.1195,182.25005149841311L641.97559375,220.4999828338623L646.8316875,243.00002574920657L651.6877812500001,188.9999485015869L656.543875,209.25002574920654L661.39996875,243.00002574920657L666.2560625,225.00004291534424L671.11215625,236.25L675.96825,270.00000000000006L680.82434375,281.2500214576721L685.6804375,236.25L690.5365312499999,191.25004291534427L695.392625,193.50000858306888L700.2487187500001,213.7499570846558L705.1048125,166.5000343322754L709.96090625,184.5000171661377L714.817,204.74996566772464L719.67309375,193.50000858306888L724.5291875,168.75000000000003L729.38528125,186.74998283386233L734.2413750000001,191.25004291534427L739.09746875,179.9999570846558L743.9535625000001,166.5000343322754L748.80965625,170.9999656677246L753.66575,184.5000171661377L758.5218437500001,186.74998283386233L763.3779375,146.2499570846558L768.2340312499999,191.25004291534427L773.090125,191.25004291534427L777.9462187500001,179.9999570846558L782.8023125,207.00006008148193L787.65840625,191.25004291534427L792.5145000000001,200.2500343322754L797.37059375,191.25004291534427L802.2266874999999,164.2499399185181L807.08278125,159.75000858306885L811.938875,150.7500171661377L816.79496875,137.2499656677246L821.6510625,139.50006008148193L826.50715625,161.99997425079346L831.36325,182.25005149841311L836.2193437499999,195.74997425079346L841.0754375,179.9999570846558L845.93153125,204.74996566772464L850.7876249999999,204.74996566772464L855.6437187500001,44.99995708465577L860.4998125,42.74999141693113L865.35590625,44.99995708465577L870.2120000000001,42.74999141693113L875.06809375,-20.24994850158689L899.3485625,-67.50000000000001L904.2046562500001,72.00006008148196L909.06075,85.4999828338623L913.91684375,53.999948501586935L918.7729375,150.7500171661377L923.62903125,141.75002574920657L928.4851249999999,90.00004291534425L933.34121875,76.49999141693114L938.1973125000001,90.00004291534425L943.05340625,58.50000858306884L947.9095,44.99995708465577L952.76559375,58.50000858306884L957.6216875,47.25005149841308L962.4777812499999,49.50001716613772L967.333875,35.999965667724595L972.18996875,67.50000000000001L977.0460625,94.49997425079349L981.9021562500001,90.00004291534425L986.75825,101.25000000000001L991.61434375,112.49995708465578L996.4704375000001,119.24998283386232L1001.32653125,112.49995708465578L1006.182625,143.99999141693115L1011.0387187499999,170.9999656677246L1015.8948125000001,186.74998283386233L1020.75090625,164.2499399185181L1025.607,193.50000858306888L1030.46309375,204.74996566772464L1035.3191875,188.9999485015869L1040.17528125,175.50002574920657L1045.031375,148.5000514984131L1049.88746875,164.2499399185181L1054.7435625,135.00000000000003L1059.5996562500002,108.00002574920656L1064.45575,105.75006008148192L1069.31184375,130.49993991851807L1074.1679374999999,105.75006008148192L1079.02403125,67.50000000000001L1083.880125,47.25005149841308L1088.73621875,87.7499485015869L1093.5923125000002,87.7499485015869L1098.44840625,108.00002574920656L1103.3045,92.25000858306885L1108.16059375,-67.50000000000001L1122.728875,-15.750017166137708L1127.5849687500001,6.750025749206537L1132.4410625,11.249957084655762L1137.29715625,17.999982833862298" style="fill: none;" fill="none"></path></g><g><path stroke="rgb(187, 187, 187)" stroke-width="2px" d="M132.08575000000002,350.99998712539673L136.94184375,285.00000715255743L141.7979375,324.00001287460327L146.65403125,285.57691812515264L151.510125,235.16132354736328L156.36621875,184.73678112030032L161.2223125,204.14640426635742L166.07840625,217.65302181243896L170.93449999999999,113.68416309356691L175.79059375,99.00003433227539L180.64668749999998,92.25000858306885L185.50278125,101.25000000000001L190.35887499999998,123.75004291534427L195.21496875000003,114.75005149841309L200.0710625,150.7500171661377L204.92715625,197.9999399185181L209.78324999999998,204.74996566772464L214.63934375000002,204.74996566772464L219.4954375,339.75003004074097L224.35153125,382.5000214576722L229.20762499999998,384.74998712539673L234.06371875000002,366.7500042915345L238.9198125,348.7500214576721L243.77590625,330.74997425079346L248.632,341.9999957084656L253.48809375,328.50000858306885L258.34418750000003,315.0000214576722L263.20028125,303.75L268.056375,312.7499914169312L272.91246874999996,301.49996995925903L277.76856250000003,287.9999828338623L282.62465625,292.49997854232794L287.48075,350.99998712539673L292.33684375,359.99997854232794L297.19293749999997,378.0000257492066L302.04903125,350.99998712539673L306.905125,357.75001287460327L311.76121875,359.99997854232794L316.61731249999997,364.4999742507935L321.47340625000004,330.74997425079346L326.3295,326.24997854232794L331.18559375,319.5000171661377L336.04168749999997,287.9999828338623L340.89778125000004,256.4999485015869L345.753875,236.25L350.60996875,243.00002574920657L355.46606249999996,191.25004291534427L360.32215625,161.99997425079346L365.17825,137.2499656677246L370.03434375,123.75004291534427L374.8904375,83.25001716613772L379.74653125,108.00002574920656L384.60262500000005,105.75006008148192L389.45871874999995,128.24997425079346L394.3148125,121.49994850158691L399.17090625000003,179.9999570846558L404.027,184.5000171661377L408.88309375,202.50000000000003L413.73918749999996,243.00002574920657L418.59528124999997,274.49999570846563L423.45137500000004,216.00005149841311L428.30746875,209.25002574920654L433.1635625,247.49995708465576L438.01965625,272.25003004074097L442.87575,265.4999399185181L447.73184375,238.49996566772464L452.58793749999995,216.00005149841311L457.44403125,202.50000000000003L462.30012500000004,182.25005149841311L467.15621875,218.2500171661377L472.0123125,204.74996566772464L476.86840624999996,202.50000000000003L481.7245,225.00004291534424L486.58059375000005,207.00006008148193L491.4366875,231.74993991851807L496.29278125,258.75004291534424L501.148875,247.49995708465576L506.00496875,245.24999141693118L510.8610625,265.4999399185181L515.71715625,227.25000858306888L520.57325,236.25L525.42934375,227.25000858306888L530.2854375,231.74993991851807L535.1415312500001,238.49996566772464L539.997625,216.00005149841311L544.85371875,220.4999828338623L549.7098125,243.00002574920657L554.56590625,231.74993991851807L559.422,209.25002574920654L564.2780937499999,197.9999399185181L569.1341874999999,179.9999570846558L573.9902812500001,148.5000514984131L578.846375,166.5000343322754L583.70246875,150.7500171661377L588.5585625,114.75005149841309L593.41465625,90.00004291534425L598.27075,99.00003433227539L603.1268437499999,137.2499656677246L607.9829375,112.49995708465578L612.8390312500001,112.49995708465578L617.695125,143.99999141693115L622.55121875,137.2499656677246L627.4073125,90.00004291534425L632.26340625,161.99997425079346L637.1195,191.25004291534427L641.97559375,159.75000858306885L646.8316875,168.75000000000003L651.6877812500001,197.9999399185181L656.543875,168.75000000000003L661.39996875,130.49993991851807L666.2560625,150.7500171661377L671.11215625,200.2500343322754L675.96825,175.50002574920657L680.82434375,191.25004291534427L685.6804375,195.74997425079346L690.5365312499999,211.49999141693115L695.392625,193.50000858306888L700.2487187500001,175.50002574920657L705.1048125,186.74998283386233L709.96090625,252.0000171661377L714.817,211.49999141693115L719.67309375,227.25000858306888L724.5291875,218.2500171661377L729.38528125,211.49999141693115L734.2413750000001,195.74997425079346L739.09746875,195.74997425079346L743.9535625000001,229.49997425079346L748.80965625,195.74997425079346L753.66575,197.9999399185181L758.5218437500001,195.74997425079346L763.3779375,193.50000858306888L768.2340312499999,179.9999570846558L773.090125,139.50006008148193L777.9462187500001,157.50004291534427L782.8023125,152.99998283386233L787.65840625,152.99998283386233L792.5145000000001,182.25005149841311L797.37059375,207.00006008148193L802.2266874999999,209.25002574920654L807.08278125,202.50000000000003L811.938875,204.74996566772464L816.79496875,225.00004291534424L821.6510625,197.9999399185181L826.50715625,229.49997425079346" style="fill: none;" fill="none"></path></g><g><path stroke="rgb(0, 153, 136)" stroke-width="2px" d="M151.510125,380.8928847312928L156.36621875,327.8571152687073L161.2223125,342.6923274993897L166.07840625,323.4375214576721L170.93449999999999,301.7647361755371L175.79059375,294.545431137085L180.64668749999998,276.8644165992737L185.50278125,247.49995708465576L190.35887499999998,222.7499485015869L195.21496875000003,247.49995708465576L200.0710625,227.25000858306888L204.92715625,258.75004291534424L209.78324999999998,218.2500171661377L214.63934375000002,170.9999656677246L219.4954375,218.2500171661377L224.35153125,209.25002574920654L229.20762499999998,193.50000858306888L234.06371875000002,184.5000171661377L238.9198125,211.49999141693115L243.77590625,182.25005149841311L248.632,175.50002574920657L253.48809375,204.74996566772464L258.34418750000003,278.99999141693115L263.20028125,303.75L268.056375,348.7500214576721L272.91246874999996,335.24996995925903L277.76856250000003,315.0000214576722L282.62465625,299.2500042915344L287.48075,321.7499828338623L292.33684375,294.7500085830689L297.19293749999997,292.49997854232794L302.04903125,290.25001287460327L306.905125,270.00000000000006L311.76121875,261.00000858306885L316.61731249999997,283.49998712539673L321.47340625000004,236.25L326.3295,139.50006008148193L331.18559375,164.2499399185181L336.04168749999997,168.75000000000003L340.89778125000004,182.25005149841311L345.753875,197.9999399185181L350.60996875,143.99999141693115L355.46606249999996,103.49996566772461L360.32215625,117.00001716613768L365.17825,114.75005149841309L370.03434375,301.49996995925903L374.8904375,292.49997854232794L379.74653125,312.7499914169312L384.60262500000005,278.99999141693115L389.45871874999995,265.4999399185181L394.3148125,247.49995708465576L399.17090625000003,274.49999570846563L404.027,281.2500214576721L408.88309375,310.50002574920654L413.73918749999996,283.49998712539673L418.59528124999997,252.0000171661377L423.45137500000004,267.7500343322754L428.30746875,231.74993991851807L433.1635625,108.00002574920656L438.01965625,60.74997425079348L442.87575,78.74995708465578L447.73184375,87.7499485015869L452.58793749999995,85.4999828338623L457.44403125,99.00003433227539L462.30012500000004,112.49995708465578L467.15621875,69.74996566772461L472.0123125,197.9999399185181L476.86840624999996,202.50000000000003L481.7245,211.49999141693115L486.58059375000005,155.2499485015869L491.4366875,155.2499485015869L496.29278125,168.75000000000003L501.148875,135.00000000000003L506.00496875,132.7500343322754L510.8610625,159.75000858306885L515.71715625,188.9999485015869L520.57325,155.2499485015869L525.42934375,161.99997425079346L530.2854375,179.9999570846558L535.1415312500001,159.75000858306885L539.997625,155.2499485015869L544.85371875,146.2499570846558L549.7098125,121.49994850158691L554.56590625,112.49995708465578L559.422,132.7500343322754L564.2780937499999,137.2499656677246L569.1341874999999,128.24997425079346L573.9902812500001,146.2499570846558L578.846375,175.50002574920657L583.70246875,200.2500343322754L588.5585625,218.2500171661377L593.41465625,227.25000858306888L598.27075,272.25003004074097L603.1268437499999,278.99999141693115L607.9829375,254.24998283386233L612.8390312500001,247.49995708465576L617.695125,218.2500171661377L622.55121875,236.25L627.4073125,218.2500171661377L632.26340625,186.74998283386233L637.1195,177.74999141693115L641.97559375,184.5000171661377L646.8316875,164.2499399185181L651.6877812500001,164.2499399185181L656.543875,188.9999485015869L661.39996875,218.2500171661377L666.2560625,202.50000000000003L671.11215625,175.50002574920657L675.96825,164.2499399185181L680.82434375,177.74999141693115L685.6804375,186.74998283386233L690.5365312499999,202.50000000000003L695.392625,184.5000171661377L700.2487187500001,146.2499570846558L705.1048125,114.75005149841309L709.96090625,128.24997425079346L714.817,105.75006008148192L719.67309375,130.49993991851807L724.5291875,143.99999141693115L729.38528125,141.75002574920657L734.2413750000001,150.7500171661377L739.09746875,150.7500171661377L743.9535625000001,170.9999656677246L748.80965625,186.74998283386233L753.66575,216.00005149841311L758.5218437500001,222.7499485015869L763.3779375,236.25L768.2340312499999,238.49996566772464L773.090125,267.7500343322754L777.9462187500001,258.75004291534424L782.8023125,238.49996566772464L787.65840625,225.00004291534424L792.5145000000001,222.7499485015869L797.37059375,209.25002574920654L802.2266874999999,207.00006008148193L807.08278125,209.25002574920654L811.938875,188.9999485015869L816.79496875,186.74998283386233L821.6510625,177.74999141693115L826.50715625,191.25004291534427L831.36325,207.00006008148193L836.2193437499999,209.25002574920654L841.0754375,195.74997425079346L845.93153125,177.74999141693115L850.7876249999999,193.50000858306888L855.6437187500001,218.2500171661377L860.4998125,216.00005149841311L865.35590625,173.25006008148193L870.2120000000001,188.9999485015869L875.06809375,177.74999141693115L879.9241875,130.49993991851807L884.7802812499999,126.00000858306885L889.636375,141.75002574920657L894.49246875,164.2499399185181L899.3485625,150.7500171661377L904.2046562500001,110.24999141693115L909.06075,117.00001716613768L913.91684375,126.00000858306885L918.7729375,101.25000000000001L923.62903125,83.25001716613772L928.4851249999999,20.249948501586932L933.34121875,38.250060081481955L938.1973125000001,56.25004291534425L943.05340625,62.999939918518066L947.9095,56.25004291534425L952.76559375,94.49997425079349L957.6216875,83.25001716613772L962.4777812499999,112.49995708465578L967.333875,177.74999141693115L972.18996875,204.74996566772464L977.0460625,231.74993991851807L981.9021562500001,222.7499485015869L986.75825,173.25006008148193L991.61434375,170.9999656677246L996.4704375000001,132.7500343322754L1001.32653125,90.00004291534425L1006.182625,78.74995708465578L1011.0387187499999,123.75004291534427L1015.8948125000001,101.25000000000001L1020.75090625,173.25006008148193L1025.607,146.2499570846558L1030.46309375,175.50002574920657L1035.3191875,186.74998283386233L1040.17528125,103.49996566772461L1045.031375,105.75006008148192L1049.88746875,103.49996566772461L1054.7435625,141.75002574920657L1059.5996562500002,141.75002574920657L1064.45575,139.50006008148193L1069.31184375,87.7499485015869L1074.1679374999999,182.25005149841311L1079.02403125,152.99998283386233L1083.880125,139.50006008148193L1088.73621875,137.2499656677246L1093.5923125000002,105.75006008148192L1098.44840625,114.75005149841309L1103.3045,96.74993991851807L1108.16059375,114.75005149841309L1113.0166875,8.99999141693117L1117.87278125,42.74999141693113L1122.728875,69.74996566772461L1127.5849687500001,56.25004291534425L1132.4410625,114.75005149841309L1137.29715625,103.49996566772461L1142.15325,112.49995708465578L1147.00934375,222.7499485015869L1151.8654374999999,132.7500343322754L1156.72153125,114.75005149841309L1161.577625,128.24997425079346L1166.43371875,90.00004291534425L1171.2898125000002,128.24997425079346L1176.14590625,110.24999141693115L1181.002,105.75006008148192L1185.8580937499999,164.2499399185181L1190.7141875,159.75000858306885L1195.5702812499999,161.99997425079346L1200.426375,60.74997425079348L1205.2824687500001,60.74997425079348L1210.1385625,65.25003433227538L1214.99465625,58.50000858306884L1219.85075,74.25002574920654L1224.70684375,58.50000858306884L1229.5629374999999,62.999939918518066L1234.41903125,53.999948501586935L1239.2751250000001,173.25006008148193L1244.13121875,135.00000000000003L1248.9873125,137.2499656677246L1253.84340625,135.00000000000003L1258.6995,94.49997425079349L1263.5555937499998,110.24999141693115L1268.4116875,128.24997425079346L1273.26778125,146.2499570846558L1278.123875,121.49994850158691L1282.9799687500001,103.49996566772461L1287.8360625,137.2499656677246" style="fill: none;" fill="none"></path></g></g></g></g></g></g><g transform="translate(41, 378)" clip-path="url(#clip_1)"><clipPath id="clip_1"><rect width="1456" height="22"></rect></clipPath><g><g><line x1="0" y1="0" x2="0" y2="5" style="visibility: inherit;" fill="rgb(0, 0, 0)" stroke="rgb(204, 204, 204)" stroke-width="1px"></line><line x1="121.40234375" y1="0" x2="121.40234375" y2="5" style="visibility: inherit;" fill="rgb(0, 0, 0)" stroke="rgb(204, 204, 204)" stroke-width="1px"></line><line x1="242.8046875" y1="0" x2="242.8046875" y2="5" style="visibility: inherit;" fill="rgb(0, 0, 0)" stroke="rgb(204, 204, 204)" stroke-width="1px"></line><line x1="364.20703125" y1="0" x2="364.20703125" y2="5" style="visibility: inherit;" fill="rgb(0, 0, 0)" stroke="rgb(204, 204, 204)" stroke-width="1px"></line><line x1="485.609375" y1="0" x2="485.609375" y2="5" style="visibility: inherit;" fill="rgb(0, 0, 0)" stroke="rgb(204, 204, 204)" stroke-width="1px"></line><line x1="607.01171875" y1="0" x2="607.01171875" y2="5" style="visibility: inherit;" fill="rgb(0, 0, 0)" stroke="rgb(204, 204, 204)" stroke-width="1px"></line><line x1="728.4140625" y1="0" x2="728.4140625" y2="5" style="visibility: inherit;" fill="rgb(0, 0, 0)" stroke="rgb(204, 204, 204)" stroke-width="1px"></line><line x1="849.81640625" y1="0" x2="849.81640625" y2="5" style="visibility: inherit;" fill="rgb(0, 0, 0)" stroke="rgb(204, 204, 204)" stroke-width="1px"></line><line x1="971.21875" y1="0" x2="971.21875" y2="5" style="visibility: inherit;" fill="rgb(0, 0, 0)" stroke="rgb(204, 204, 204)" stroke-width="1px"></line><line x1="1092.62109375" y1="0" x2="1092.62109375" y2="5" style="visibility: inherit;" fill="rgb(0, 0, 0)" stroke="rgb(204, 204, 204)" stroke-width="1px"></line><line x1="1214.0234375" y1="0" x2="1214.0234375" y2="5" style="visibility: inherit;" fill="rgb(0, 0, 0)" stroke="rgb(204, 204, 204)" stroke-width="1px"></line><line x1="1335.42578125" y1="0" x2="1335.42578125" y2="5" style="visibility: inherit;" fill="rgb(0, 0, 0)" stroke="rgb(204, 204, 204)" stroke-width="1px"></line><line x1="1456.828125" y1="0" x2="1456.828125" y2="5" style="visibility: inherit;" fill="rgb(0, 0, 0)" stroke="rgb(204, 204, 204)" stroke-width="1px"></line></g><g transform="translate(0, 8)"><text x="0" y="0" dx="0em" dy="0.95em" style="text-anchor: middle; visibility: hidden; font-family: Roboto, sans-serif; font-size: 12px; font-weight: 200;" fill="rgb(50, 49, 63)" stroke="none" stroke-width="1px">-100k</text><text x="121.40234375" y="0" dx="0em" dy="0.95em" style="text-anchor: middle; visibility: inherit; font-family: Roboto, sans-serif; font-size: 12px; font-weight: 200;" fill="rgb(50, 49, 63)" stroke="none" stroke-width="1px">0</text><text x="242.8046875" y="0" dx="0em" dy="0.95em" style="text-anchor: middle; visibility: inherit; font-family: Roboto, sans-serif; font-size: 12px; font-weight: 200;" fill="rgb(50, 49, 63)" stroke="none" stroke-width="1px">100k</text><text x="364.20703125" y="0" dx="0em" dy="0.95em" style="text-anchor: middle; visibility: inherit; font-family: Roboto, sans-serif; font-size: 12px; font-weight: 200;" fill="rgb(50, 49, 63)" stroke="none" stroke-width="1px">200k</text><text x="485.609375" y="0" dx="0em" dy="0.95em" style="text-anchor: middle; visibility: inherit; font-family: Roboto, sans-serif; font-size: 12px; font-weight: 200;" fill="rgb(50, 49, 63)" stroke="none" stroke-width="1px">300k</text><text x="607.01171875" y="0" dx="0em" dy="0.95em" style="text-anchor: middle; visibility: inherit; font-family: Roboto, sans-serif; font-size: 12px; font-weight: 200;" fill="rgb(50, 49, 63)" stroke="none" stroke-width="1px">400k</text><text x="728.4140625" y="0" dx="0em" dy="0.95em" style="text-anchor: middle; visibility: inherit; font-family: Roboto, sans-serif; font-size: 12px; font-weight: 200;" fill="rgb(50, 49, 63)" stroke="none" stroke-width="1px">500k</text><text x="849.81640625" y="0" dx="0em" dy="0.95em" style="text-anchor: middle; visibility: inherit; font-family: Roboto, sans-serif; font-size: 12px; font-weight: 200;" fill="rgb(50, 49, 63)" stroke="none" stroke-width="1px">600k</text><text x="971.21875" y="0" dx="0em" dy="0.95em" style="text-anchor: middle; visibility: inherit; font-family: Roboto, sans-serif; font-size: 12px; font-weight: 200;" fill="rgb(50, 49, 63)" stroke="none" stroke-width="1px">700k</text><text x="1092.62109375" y="0" dx="0em" dy="0.95em" style="text-anchor: middle; visibility: inherit; font-family: Roboto, sans-serif; font-size: 12px; font-weight: 200;" fill="rgb(50, 49, 63)" stroke="none" stroke-width="1px">800k</text><text x="1214.0234375" y="0" dx="0em" dy="0.95em" style="text-anchor: middle; visibility: inherit; font-family: Roboto, sans-serif; font-size: 12px; font-weight: 200;" fill="rgb(50, 49, 63)" stroke="none" stroke-width="1px">900k</text><text x="1335.42578125" y="0" dx="0em" dy="0.95em" style="text-anchor: middle; visibility: inherit; font-family: Roboto, sans-serif; font-size: 12px; font-weight: 200;" fill="rgb(50, 49, 63)" stroke="none" stroke-width="1px">1M</text><text x="1456.828125" y="0" dx="0em" dy="0.95em" style="text-anchor: middle; visibility: hidden; font-family: Roboto, sans-serif; font-size: 12px; font-weight: 200;" fill="rgb(50, 49, 63)" stroke="none" stroke-width="1px">1.1M</text></g><line x1="0" y1="0" x2="1456.828125" y2="0" fill="rgb(0, 0, 0)" stroke="rgb(204, 204, 204)" stroke-width="1px"></line></g></g></g></g></svg>