<svg viewBox="0 0 1498 400" xmlns="http://www.w3.org/2000/svg"><g><g><g><g><g><line x1="41.171875" y1="378" x2="36.171875" y2="378" style="visibility: inherit;" fill="rgb(0, 0, 0)" stroke="rgb(204, 204, 204)" stroke-width="1px"></line><line x1="41.171875" y1="346.5" x2="36.171875" y2="346.5" style="visibility: inherit;" fill="rgb(0, 0, 0)" stroke="rgb(204, 204, 204)" stroke-width="1px"></line><line x1="41.171875" y1="315" x2="36.171875" y2="315" style="visibility: inherit;" fill="rgb(0, 0, 0)" stroke="rgb(204, 204, 204)" stroke-width="1px"></line><line x1="41.171875" y1="283.49999999999994" x2="36.171875" y2="283.49999999999994" style="visibility: inherit;" fill="rgb(0, 0, 0)" stroke="rgb(204, 204, 204)" stroke-width="1px"></line><line x1="41.171875" y1="251.99999999999991" x2="36.171875" y2="251.99999999999991" style="visibility: inherit;" fill="rgb(0, 0, 0)" stroke="rgb(204, 204, 204)" stroke-width="1px"></line><line x1="41.171875" y1="220.5" x2="36.171875" y2="220.5" style="visibility: inherit;" fill="rgb(0, 0, 0)" stroke="rgb(204, 204, 204)" stroke-width="1px"></line><line x1="41.171875" y1="189" x2="36.171875" y2="189" style="visibility: inherit;" fill="rgb(0, 0, 0)" stroke="rgb(204, 204, 204)" stroke-width="1px"></line><line x1="41.171875" y1="157.5" x2="36.171875" y2="157.5" style="visibility: inherit;" fill="rgb(0, 0, 0)" stroke="rgb(204, 204, 204)" stroke-width="1px"></line><line x1="41.171875" y1="126.0000000000001" x2="36.171875" y2="126.0000000000001" style="visibility: inherit;" fill="rgb(0, 0, 0)" stroke="rgb(204, 204, 204)" stroke-width="1px"></line><line x1="41.171875" y1="94.49999999999991" x2="36.171875" y2="94.49999999999991" style="visibility: inherit;" fill="rgb(0, 0, 0)" stroke="rgb(204, 204, 204)" stroke-width="1px"></line><line x1="41.171875" y1="63.00000000000003" x2="36.171875" y2="63.00000000000003" style="visibility: inherit;" fill="rgb(0, 0, 0)" stroke="rgb(204, 204, 204)" stroke-width="1px"></line><line x1="41.171875" y1="31.499999999999886" x2="36.171875" y2="31.499999999999886" style="visibility: inherit;" fill="rgb(0, 0, 0)" stroke="rgb(204, 204, 204)" stroke-width="1px"></line><line x1="41.171875" y1="0" x2="36.171875" y2="0" style="visibility: inherit;" fill="rgb(0, 0, 0)" stroke="rgb(204, 204, 204)" stroke-width="1px"></line></g><g transform="translate(31.171875, 0)"><text x="0" y="378" dx="0em" dy="0.3em" style="text-anchor: end; visibility: hidden; font-family: Roboto, sans-serif; font-size: 12px; font-weight: 200;" fill="rgb(50, 49, 63)" stroke="none" stroke-width="1px">6.6</text><text x="0" y="346.5" dx="0em" dy="0.3em" style="text-anchor: end; visibility: inherit; font-family: Roboto, sans-serif; font-size: 12px; font-weight: 200;" fill="rgb(50, 49, 63)" stroke="none" stroke-width="1px">6.8</text><text x="0" y="315" dx="0em" dy="0.3em" style="text-anchor: end; visibility: inherit; font-family: Roboto, sans-serif; font-size: 12px; font-weight: 200;" fill="rgb(50, 49, 63)" stroke="none" stroke-width="1px">7</text><text x="0" y="283.49999999999994" dx="0em" dy="0.3em" style="text-anchor: end; visibility: inherit; font-family: Roboto, sans-serif; font-size: 12px; font-weight: 200;" fill="rgb(50, 49, 63)" stroke="none" stroke-width="1px">7.2</text><text x="0" y="251.99999999999991" dx="0em" dy="0.3em" style="text-anchor: end; visibility: inherit; font-family: Roboto, sans-serif; font-size: 12px; font-weight: 200;" fill="rgb(50, 49, 63)" stroke="none" stroke-width="1px">7.4</text><text x="0" y="220.5" dx="0em" dy="0.3em" style="text-anchor: end; visibility: inherit; font-family: Roboto, sans-serif; font-size: 12px; font-weight: 200;" fill="rgb(50, 49, 63)" stroke="none" stroke-width="1px">7.6</text><text x="0" y="189" dx="0em" dy="0.3em" style="text-anchor: end; visibility: inherit; font-family: Roboto, sans-serif; font-size: 12px; font-weight: 200;" fill="rgb(50, 49, 63)" stroke="none" stroke-width="1px">7.8</text><text x="0" y="157.5" dx="0em" dy="0.3em" style="text-anchor: end; visibility: inherit; font-family: Roboto, sans-serif; font-size: 12px; font-weight: 200;" fill="rgb(50, 49, 63)" stroke="none" stroke-width="1px">8</text><text x="0" y="126.0000000000001" dx="0em" dy="0.3em" style="text-anchor: end; visibility: inherit; font-family: Roboto, sans-serif; font-size: 12px; font-weight: 200;" fill="rgb(50, 49, 63)" stroke="none" stroke-width="1px">8.2</text><text x="0" y="94.49999999999991" dx="0em" dy="0.3em" style="text-anchor: end; visibility: inherit; font-family: Roboto, sans-serif; font-size: 12px; font-weight: 200;" fill="rgb(50, 49, 63)" stroke="none" stroke-width="1px">8.4</text><text x="0" y="63.00000000000003" dx="0em" dy="0.3em" style="text-anchor: end; visibility: inherit; font-family: Roboto, sans-serif; font-size: 12px; font-weight: 200;" fill="rgb(50, 49, 63)" stroke="none" stroke-width="1px">8.6</text><text x="0" y="31.499999999999886" dx="0em" dy="0.3em" style="text-anchor: end; visibility: inherit; font-family: Roboto, sans-serif; font-size: 12px; font-weight: 200;" fill="rgb(50, 49, 63)" stroke="none" stroke-width="1px">8.8</text><text x="0" y="0" dx="0em" dy="0.3em" style="text-anchor: end; visibility: hidden; font-family: Roboto, sans-serif; font-size: 12px; font-weight: 200;" fill="rgb(50, 49, 63)" stroke="none" stroke-width="1px">9</text></g><line x1="41.171875" y1="0" x2="41.171875" y2="378" fill="rgb(0, 0, 0)" stroke="rgb(204, 204, 204)" stroke-width="1px"></line></g></g><g transform="translate(41, 0)" clip-path="url(#clip_0)"><clipPath id="clip_0"><rect width="1456" height="378"></rect></clipPath><g><g><g><line x1="0" y1="0" x2="0" y2="378" fill="rgb(0, 0, 0)" stroke="rgb(60, 60, 60)" stroke-width="1px" opacity="0.25"></line><line x1="121.40234375" y1="0" x2="121.40234375" y2="378" fill="rgb(0, 0, 0)" stroke="rgb(60, 60, 60)" stroke-width="1px" opacity="0.25"></line><line x1="242.8046875" y1="0" x2="242.8046875" y2="378" fill="rgb(0, 0, 0)" stroke="rgb(60, 60, 60)" stroke-width="1px" opacity="0.25"></line><line x1="364.20703125" y1="0" x2="364.20703125" y2="378" fill="rgb(0, 0, 0)" stroke="rgb(60, 60, 60)" stroke-width="1px" opacity="0.25"></line><line x1="485.609375" y1="0" x2="485.609375" y2="378" fill="rgb(0, 0, 0)" stroke="rgb(60, 60, 60)" stroke-width="1px" opacity="0.25"></line><line x1="607.01171875" y1="0" x2="607.01171875" y2="378" fill="rgb(0, 0, 0)" stroke="rgb(60, 60, 60)" stroke-width="1px" opacity="0.25"></line><line x1="728.4140625" y1="0" x2="728.4140625" y2="378" fill="rgb(0, 0, 0)" stroke="rgb(60, 60, 60)" stroke-width="1px" opacity="0.25"></line><line x1="849.81640625" y1="0" x2="849.81640625" y2="378" fill="rgb(0, 0, 0)" stroke="rgb(60, 60, 60)" stroke-width="1px" opacity="0.25"></line><line x1="971.21875" y1="0" x2="971.21875" y2="378" fill="rgb(0, 0, 0)" stroke="rgb(60, 60, 60)" stroke-width="1px" opacity="0.25"></line><line x1="1092.62109375" y1="0" x2="1092.62109375" y2="378" fill="rgb(0, 0, 0)" stroke="rgb(60, 60, 60)" stroke-width="1px" opacity="0.25"></line><line x1="1214.0234375" y1="0" x2="1214.0234375" y2="378" fill="rgb(0, 0, 0)" stroke="rgb(60, 60, 60)" stroke-width="1px" opacity="0.25"></line><line x1="1335.42578125" y1="0" x2="1335.42578125" y2="378" fill="rgb(0, 0, 0)" stroke="rgb(60, 60, 60)" stroke-width="1px" opacity="0.25"></line><line x1="1456.828125" y1="0" x2="1456.828125" y2="378" fill="rgb(0, 0, 0)" stroke="rgb(60, 60, 60)" stroke-width="1px" opacity="0.25"></line></g><g><line x1="0" y1="378" x2="1456.828125" y2="378" fill="rgb(0, 0, 0)" stroke="rgb(60, 60, 60)" stroke-width="1px" opacity="0.25"></line><line x1="0" y1="346.5" x2="1456.828125" y2="346.5" fill="rgb(0, 0, 0)" stroke="rgb(60, 60, 60)" stroke-width="1px" opacity="0.25"></line><line x1="0" y1="315" x2="1456.828125" y2="315" fill="rgb(0, 0, 0)" stroke="rgb(60, 60, 60)" stroke-width="1px" opacity="0.25"></line><line x1="0" y1="283.49999999999994" x2="1456.828125" y2="283.49999999999994" fill="rgb(0, 0, 0)" stroke="rgb(60, 60, 60)" stroke-width="1px" opacity="0.25"></line><line x1="0" y1="251.99999999999991" x2="1456.828125" y2="251.99999999999991" fill="rgb(0, 0, 0)" stroke="rgb(60, 60, 60)" stroke-width="1px" opacity="0.25"></line><line x1="0" y1="220.5" x2="1456.828125" y2="220.5" fill="rgb(0, 0, 0)" stroke="rgb(60, 60, 60)" stroke-width="1px" opacity="0.25"></line><line x1="0" y1="189" x2="1456.828125" y2="189" fill="rgb(0, 0, 0)" stroke="rgb(60, 60, 60)" stroke-width="1px" opacity="0.25"></line><line x1="0" y1="157.5" x2="1456.828125" y2="157.5" fill="rgb(0, 0, 0)" stroke="rgb(60, 60, 60)" stroke-width="1px" opacity="0.25"></line><line x1="0" y1="126.0000000000001" x2="1456.828125" y2="126.0000000000001" fill="rgb(0, 0, 0)" stroke="rgb(60, 60, 60)" stroke-width="1px" opacity="0.25"></line><line x1="0" y1="94.49999999999991" x2="1456.828125" y2="94.49999999999991" fill="rgb(0, 0, 0)" stroke="rgb(60, 60, 60)" stroke-width="1px" opacity="0.25"></line><line x1="0" y1="63.00000000000003" x2="1456.828125" y2="63.00000000000003" fill="rgb(0, 0, 0)" stroke="rgb(60, 60, 60)" stroke-width="1px" opacity="0.25"></line><line x1="0" y1="31.499999999999886" x2="1456.828125" y2="31.499999999999886" fill="rgb(0, 0, 0)" stroke="rgb(60, 60, 60)" stroke-width="1px" opacity="0.25"></line><line x1="0" y1="0" x2="1456.828125" y2="0" fill="rgb(0, 0, 0)" stroke="rgb(60, 60, 60)" stroke-width="1px" opacity="0.25"></line></g></g></g><g><g><line x1="0" y1="1417.4999999999998" x2="1456.828125" y2="1417.4999999999998" fill="rgb(0, 0, 0)" stroke="rgb(153, 153, 153)" stroke-width="1.5px"></line></g></g><g><g><line x1="121.40234375" y1="0" x2="121.40234375" y2="378" fill="rgb(0, 0, 0)" stroke="rgb(153, 153, 153)" stroke-width="1.5px"></line></g></g><g><g><g><g><g><path stroke="rgb(238, 51, 119)" stroke-width="2px" d="M132.08575000000002,315L136.94184375,216.56249999999983L141.7979375,266.78571428571416L146.65403125,252.75275735294125L151.510125,245.5950728660653L156.36621875,274.7156954887217L161.2223125,291.2934894255839L166.07840625,236.86185114980836L170.93449999999999,268.4352982918545L175.79059375,287.1744876875222L180.64668749999998,298.345219699386L185.50278125,305.02166498780264L190.35887499999998,309.0182187692874L195.21496875000003,279.8881036903908L200.0710625,262.42465116107644L204.92715625,251.95183620044148L209.78324999999998,214.16470562135765L214.63934375000002,191.4965211929864L219.4954375,177.8970840208419L224.35153125,169.7379521017147L229.20762499999998,164.8426638733327L234.06371875000002,161.90555966533339L238.9198125,160.1433218822757L243.77590625,159.08598811931486L248.632,158.4515910679797L253.48809375,158.07095399149068L258.34418750000003,157.84257216114776L263.20028125,157.7055432125399L268.056375,157.62332589723053L272.91246874999996,157.57399552743266L277.76856250000003,220.54440566912896L282.62465625,258.32664640843774L287.48075,312.49599043175533L292.33684375,313.49759428775053L297.19293749999997,377.0985576659958L302.04903125,352.2591343433931L306.905125,337.3554805138022L311.76121875,328.41328827507715L316.61731249999997,323.04797295309294L321.47340625000004,288.32878372544496L326.3295,235.99727019329458L331.18559375,204.59836210086644L336.04168749999997,185.7590172550802L340.89778125000004,174.45541035108982L345.753875,167.67324620994896L350.60996875,163.60394772571556L355.46606249999996,161.16236863533805L360.32215625,159.69742118116997L365.17825,158.81845270869016L370.03434375,158.29107162520978L374.8904375,157.97464297512428L379.74653125,157.78478578507406L384.60262500000005,189.17087147109916L389.45871874999995,176.50252288264622L394.3148125,168.90151372958297L399.17090625000003,164.34090823774795L404.027,161.60454494264818L408.88309375,159.96272696558862L413.73918749999996,221.9776361793582L418.59528124999997,227.68658170761523L423.45137500000004,231.1119490245692L428.30746875,264.6671694147421L433.1635625,284.8003016488456L438.01965625,265.38018098930723L442.87575,285.22810859358424L447.73184375,297.1368651561504L452.58793749999995,272.7821190936903L457.44403125,226.6692714562141L462.30012500000004,230.50156287372855L467.15621875,201.300937724237L472.0123125,183.7805626345422L476.86840624999996,173.26833758072542L481.7245,166.96100254843515L486.58059375000005,226.17660152906126L491.4366875,261.70596091743664L496.29278125,283.02357655046205L501.148875,295.8141459302772L506.00496875,303.48848755816636L510.8610625,308.09309253489977L515.71715625,310.85585552093977L520.57325,312.51351331256376L525.42934375,313.50810798753827L530.2854375,282.6048647925229L535.1415312500001,264.06291887551384L539.997625,284.4377513253082L544.85371875,233.662650795185L549.7098125,203.19759047711105L554.56590625,184.9185542862666L559.422,173.95113257175998L564.2780937499999,167.3706795430559L569.1341874999999,163.42240772583355L573.9902812500001,192.55344463550023L578.846375,178.53206678130007L583.70246875,170.11924006878004L588.5585625,165.07154404126803L593.41465625,162.04292642476076L598.27075,160.22575585485646L603.1268437499999,159.13545351291393L607.9829375,158.48127210774837L612.8390312500001,158.08876326464906L617.695125,157.85325795878936L622.55121875,157.71195477527354L627.4073125,157.62717286516406L632.26340625,157.5763037190984L637.1195,157.54578223145896L641.97559375,157.5274693388754L646.8316875,157.51648160332513L651.6877812500001,126.009888961995L656.543875,75.60593337719706L661.39996875,108.36356002631835L666.2560625,65.01813601579093L671.11215625,39.010881609474616L675.96825,23.40652896568482L680.82434375,77.04391737941084L685.6804375,109.22635042764637L690.5365312499999,128.53581025658784L695.392625,140.12148615395256L700.2487187500001,147.07289169237157L705.1048125,151.243735015423L709.96090625,153.74624100925368L714.817,155.24774460555213L719.67309375,156.14864676333144L724.5291875,156.6891880579989L729.38528125,157.01351283479917L734.2413750000001,157.20810770087942L739.09746875,157.3248646205276L743.9535625000001,157.39491877231657L748.80965625,157.43695126338997L753.66575,157.4621707580339L758.5218437500001,157.47730245482043L763.3779375,157.4863814728923L768.2340312499999,157.4918288837353L773.090125,157.49509733024112L777.9462187500001,157.49705839814484L782.8023125,125.99823503888668L787.65840625,138.59894102333212L792.5145000000001,146.15936461399926L797.37059375,150.69561876839958L802.2266874999999,153.41737126103993L807.08278125,155.05042275662396L811.938875,156.03025365397423L816.79496875,156.61815219238463L821.6510625,156.9708913154307L826.50715625,157.18253478925834L831.36325,157.30952087355502L836.2193437499999,220.38571252413303L841.0754375,258.2314275144797L845.93153125,280.9388565086877L850.7876249999999,294.5633139052127L855.6437187500001,302.7379883431275L860.4998125,307.6427930058765L865.35590625,310.5856758035259L870.2120000000001,312.3514054821154L875.06809375,281.9108432892692L879.9241875,232.14650597356146L884.7802812499999,202.28790358413693L889.636375,184.37274215048217L894.49246875,173.6236452902893L899.3485625,167.1741871741736L904.2046562500001,163.30451230450421L909.06075,160.98270738270244L913.91684375,159.58962442962152L918.7729375,158.75377465777296L923.62903125,158.25226479466383L928.4851249999999,157.95135887679828L933.34121875,157.77081532607897L938.1973125000001,126.16248919564745L943.05340625,138.69749351738844L947.9095,114.71849611043312L952.76559375,100.3310976662598L957.6216875,123.19865859975583L962.4777812499999,136.91919515985347L967.333875,145.151517095912L972.18996875,150.0909102575474L977.0460625,153.05454615452845L981.9021562500001,154.83272769271713L986.75825,155.8996366156302L991.61434375,188.0397819693782L996.4704375000001,238.8238691816268L1001.32653125,269.2943215089761L1006.182625,287.57659290538567L1011.0387187499999,267.0459557432314L1015.8948125000001,223.22757344593887L1020.75090625,196.93654406756337L1025.607,181.16192644053808L1030.46309375,171.6971558643228L1035.3191875,166.01829351859368L1040.17528125,99.61097611115618L1045.031375,59.766585666693715L1049.88746875,35.8599514000161L1054.7435625,21.51597084000971L1059.5996562500002,12.90958250400596L1064.45575,39.245749502403584L1069.31184375,86.54744970144209L1074.1679374999999,51.92846982086517L1079.02403125,62.65708189251917L1083.880125,37.594249135511504L1088.73621875,22.556549481306902L1093.5923125000002,76.53392968878413L1098.44840625,108.92035781327051L1103.3045,128.35221468796234L1108.16059375,108.51132881277736L1113.0166875,128.10679728766638L1117.87278125,108.36407837259992L1122.728875,128.01844702356007L1127.5849687500001,139.81106821413604L1132.4410625,146.88664092848168L1137.29715625,151.13198455708908L1142.15325,153.67919073425344L1147.00934375,155.20751444055222L1151.8654374999999,156.12450866433122L1156.72153125,156.67470519859873L1161.577625,157.00482311915928L1166.43371875,157.20289387149575L1171.2898125000002,157.32173632289752L1176.14590625,157.3930417937386L1181.002,157.43582507624325L1185.8580937499999,157.46149504574598L1190.7141875,157.47689702744762L1195.5702812499999,157.48613821646842L1200.426375,157.49168292988108L1205.2824687500001,157.4950097579288L1210.1385625,220.4970058547573L1214.99465625,195.29820351285443L1219.85075,180.17892210771262L1224.70684375,171.10735326462753L1229.5629374999999,165.66441195877653L1234.41903125,162.39864717526592L1239.2751250000001,160.43918830515946L1244.13121875,159.26351298309567L1248.9873125,158.5581077898574L1253.84340625,158.13486467391436L1258.6995,157.8809188043486L1263.5555937499998,157.72855128260915L1268.4116875,157.63713076956554L1273.26778125,157.58227846173932L1278.123875,157.54936707704363L1282.9799687500001,157.52962024622613L1287.8360625,157.51777214773568L1292.69215625,157.51066328864144L1297.54825,157.50639797318487L1302.40434375,157.50383878391096L1307.2604375,157.50230327034663L1312.11653125,157.50138196220797L1316.972625,220.50082917732468L1321.82871875,195.30049750639478L1326.6848125,180.18029850383687L1331.54090625,171.10817910230216L1336.397,197.16490746138132L1341.25309375,244.29894447682884L1346.1091875,241.07936668609736L1350.96528125,239.1476200116585L1355.821375,206.48857200699507L1360.6774687500001,186.89314320419697L1365.5335625,175.13588592251818L1370.38965625,168.08153155351096L1375.2457499999998,163.84891893210659L1380.10184375,161.30935135926384L1384.9579375,159.78561081555836L1389.81403125,158.87136648933497L1394.670125,95.32281989360114L1399.52621875,88.69369193616049L1404.3823125,84.71621516169624" style="fill: none;" fill="none"></path></g><g><path stroke="rgb(51, 187, 238)" stroke-width="2px" d="M132.08575000000002,472.49999999999983L136.94184375,374.06249999999994L141.7979375,504.64285714285705L166.07840625,394.1157984085985L170.93449999999999,362.1473103408326L175.79059375,343.1736597951739L180.64668749999998,331.8631617230797L185.50278125,325.1031820294588L190.35887499999998,321.05662413222376L195.21496875000003,318.632074501283L200.0710625,317.1785612806785L204.92715625,316.3068908606013L209.78324999999998,315.78404601619457L214.63934375000002,346.97359521898244L219.4954375,334.18337774703L224.35153125,326.5097460880863L229.20762499999998,321.90574665514345L234.06371875000002,319.14341163476183L238.9198125,317.4860338920441L243.77590625,316.49161562329346L248.632,315.89496767768867L253.48809375,252.53687252927963L258.34418750000003,214.52208460979836L263.20028125,223.2132561030773L268.056375,196.92794397685142L272.91246874999996,181.15676289951395L277.76856250000003,171.69405648453375L282.62465625,166.0164334388576L287.48075,162.6098599006438L292.33684375,160.565915881825L297.19293749999997,159.33954950801282L302.04903125,158.6037296972182L306.905125,158.16223781559853L311.76121875,157.89734268837555L316.61731249999997,126.23840554249175L321.47340625000004,75.7430432579953L326.3295,76.94582595576163L331.18559375,109.16749558896302L336.04168749999997,128.50049735895996L340.89778125000004,140.10029841738543L345.753875,147.06017905115462L350.60996875,151.2361074309532L355.46606249999996,153.74166445866595L360.32215625,155.24499867523332L365.17825,156.14699920515199L370.03434375,188.1881995233501L374.8904375,238.91291971425616L379.74653125,206.347751828459L384.60262500000005,186.80865109704115L389.45871874999995,175.08519065821255L394.3148125,231.05111439496253L399.17090625000003,264.63066863699015L404.027,284.77840118219865L408.88309375,296.86704070932086L413.73918749999996,272.6202244255905L418.59528124999997,258.07213465535364L423.45137500000004,249.34328079321196L428.30746875,275.6059684759276L433.1635625,228.36358108555595L438.01965625,200.01814865133346L442.87575,183.0108891908001L447.73184375,172.8065335144799L452.58793749999995,166.68392010868803L457.44403125,163.01035206521277L462.30012500000004,160.8062112391276L467.15621875,159.48372674347652L472.0123125,158.69023604608583L476.86840624999996,158.21414162765151L481.7245,157.92848497659082L486.58059375000005,157.75709098595453L491.4366875,157.6542545915727L496.29278125,94.59255275494372L501.148875,88.25553165296628L506.00496875,115.9533189917798L510.8610625,132.57199139506793L515.71715625,142.5431948370407L520.57325,148.52591690222425L525.42934375,152.11555014133447L530.2854375,154.26933008480086L535.1415312500001,155.56159805088043L539.997625,156.33695883052818L544.85371875,156.802175298317L549.7098125,157.08130517899014L554.56590625,157.24878310739413L559.422,157.34926986443656L564.2780937499999,157.40956191866195L569.1341874999999,157.44573715119708L573.9902812500001,157.46744229071825L578.846375,157.480465374431L583.70246875,157.48827922465853L588.5585625,157.49296753479516L593.41465625,157.49578052087702L598.27075,157.49746831252614L603.1268437499999,157.49848098751573L607.9829375,157.49908859250937L612.8390312500001,157.4994531555057L617.695125,157.49967189330349L622.55121875,157.49980313598226L627.4073125,157.49988188158926L632.26340625,157.49992912895348L637.1195,157.49995747737202L641.97559375,157.49997448642304L646.8316875,157.4999846918537L651.6877812500001,125.99999081511217L656.543875,138.59999448906726L661.39996875,146.15999669344043L666.2560625,150.6959980160643L671.11215625,153.4175988096385L675.96825,155.05055928578315L680.82434375,187.53033557146986L685.6804375,175.51820134288187L690.5365312499999,168.31092080572913L695.392625,163.98655248343746L700.2487187500001,161.3919314900624L705.1048125,128.33515889403736L709.96090625,108.5010953364223L714.817,128.10065720185335L719.67309375,139.860394321112L724.5291875,146.91623659266708L729.38528125,151.1497419556003L734.2413750000001,153.68984517336017L739.09746875,155.21390710401593L743.9535625000001,156.1283442624096L748.80965625,156.6770065574458L753.66575,157.00620393446752L758.5218437500001,157.20372236068036L763.3779375,157.32223341640824L768.2340312499999,157.393340049845L773.090125,157.43600402990705L777.9462187500001,157.46160241794405L782.8023125,157.47696145076642L787.65840625,157.48617687045984L792.5145000000001,157.49170612227599L797.37059375,157.49502367336564L802.2266874999999,157.49701420401942L807.08278125,157.49820852241155L811.938875,157.49892511344697L816.79496875,125.99935506806825L821.6510625,138.59961304084098L826.50715625,146.15976782450463L831.36325,150.69586069470282L836.2193437499999,153.41751641682163L841.0754375,155.05050985009285L845.93153125,156.03030591005572L850.7876249999999,156.61818354603352L855.6437187500001,156.97091012762004L860.4998125,157.18254607657187L865.35590625,157.30952764594312L870.2120000000001,157.3857165875659L875.06809375,157.43142995253953L879.9241875,157.45885797152377L884.7802812499999,125.97531478291417L889.636375,138.58518886974835L894.49246875,83.15111332184891L899.3485625,81.39066799310928L904.2046562500001,111.83440079586539L909.06075,130.1006404775191L913.91684375,141.06038428651144L918.7729375,147.63623057190685L923.62903125,151.58173834314402L928.4851249999999,90.94904300588644L933.34121875,86.06942580353183L938.1973125000001,114.64165548211906L943.05340625,100.28499328927137L947.9095,60.17099597356287L952.76559375,67.60259758413754L957.6216875,40.561558550482495L962.4777812499999,24.336935130289614L967.333875,14.602161078173802L972.18996875,8.761296646904416L977.0460625,5.256777988142515L981.9021562500001,3.1540667928854758L986.75825,1.892440075731235L991.61434375,1.1354640454386906L996.4704375000001,0.681278427263164L1001.32653125,31.90876705635782L1006.182625,82.14526023381472L1011.0387187499999,112.28715614028872L1015.8948125000001,130.37229368417337L1020.75090625,141.22337621050403L1025.607,147.73402572630246L1030.46309375,151.64041543578153L1035.3191875,153.98424926146893L1040.17528125,155.39054955688152L1045.031375,124.73432973412868L1049.88746875,137.84059784047707L1054.7435625,114.2043587042862L1059.5996562500002,100.02261522257153L1064.45575,60.013569133543015L1069.31184375,99.00814148012569L1074.1679374999999,122.40488488807542L1079.02403125,136.44293093284512L1083.880125,144.86575855970707L1088.73621875,149.91945513582434L1093.5923125000002,152.95167308149465L1098.44840625,154.7710038488967L1103.3045,155.8626023093381L1108.16059375,156.5175613856029L1113.0166875,156.91053683136164L1117.87278125,157.146322098817L1122.728875,157.28779325929037L1127.5849687500001,157.3726759555741L1132.4410625,157.4236055733445L1137.29715625,157.45416334400662" style="fill: none;" fill="none"></path></g><g><path stroke="rgb(187, 187, 187)" stroke-width="2px" d="M132.08575000000002,315L136.94184375,216.56249999999983L141.7979375,266.78571428571416L146.65403125,288.9430147058822L151.510125,231.93268563497557L156.36621875,200.70253759398483L161.2223125,182.92383260027916L166.07840625,172.58057250874856L170.93449999999999,166.4869336654527L175.79059375,162.87029174860427L180.64668749999998,160.7143533681892L185.50278125,159.42580713623664L190.35887499999998,158.65447687088394L195.21496875000003,158.19232396026507L200.0710625,157.91526410677616L204.92715625,189.25800059450893L209.78324999999998,208.05798256562946L214.63934375000002,250.8391343913032L219.4954375,276.50504461201973L224.35153125,291.90358976241976L229.20762499999998,301.14235652782236L234.06371875000002,306.68548687631926L238.9198125,310.01131839088845L243.77590625,312.0068004898882L248.632,313.2040836978435L253.48809375,313.92245144411044L258.34418750000003,314.3534713076106L263.20028125,314.6120829433784L268.056375,314.76724982319945L272.91246874999996,314.8603499145017L277.76856250000003,314.9162099561105L282.62465625,314.9497259763337L287.48075,314.9698355867603L292.33684375,314.98190135240185L297.19293749999997,314.9891408115656L302.04903125,314.9934844869841L306.905125,314.99609069220656L311.76121875,314.99765441532963L316.61731249999997,314.9985926491999L321.47340625000004,314.9991555895206L326.3295,314.9994933537127L331.18559375,314.9996960122278L336.04168749999997,283.49981759824146L340.89778125000004,233.0998905502135L345.753875,202.8599343269847L350.60996875,184.71596059505933L355.46606249999996,173.82957635662817L360.32215625,167.29774581383026L365.17825,163.37864748824538L370.03434375,129.52718849267353L374.8904375,77.71631309535292L379.74653125,109.62978785730462L384.60262500000005,97.27787271436094L389.45871874999995,121.3667236286418L394.3148125,104.32003417717415L399.17090625000003,125.59202050631225L404.027,138.3552123037905L408.88309375,146.0131273822752L413.73918749999996,150.60787642936546L418.59528124999997,153.36472585761953L423.45137500000004,155.0188355145718L428.30746875,156.0113013087431L433.1635625,156.60678078524572L438.01965625,188.46406847114767L442.87575,176.07844108268864L447.73184375,168.64706464961301L452.58793749999995,164.18823878976784L457.44403125,161.5129432738608L462.30012500000004,159.90776596431644L467.15621875,158.9446595785897L472.0123125,158.36679574715382L476.86840624999996,158.0200774482923L481.7245,157.81204646897532L486.58059375000005,157.68722788138524L491.4366875,157.6123367288311L496.29278125,157.56740203729862L501.148875,157.5404412223791L506.00496875,157.52426473342751L510.8610625,220.51455884005654L515.71715625,226.80873530403395L520.57325,262.08524118242025L525.42934375,283.25114470945215L530.2854375,295.95068682567114L535.1415312500001,303.5704120954026L539.997625,245.1422472572415L544.85371875,210.08534835434494L549.7098125,189.05120901260702L554.56590625,176.43072540756413L559.422,168.85843524453853L564.2780937499999,164.31506114672308L569.1341874999999,161.5890366880339L573.9902812500001,159.95342201282034L578.846375,158.97205320769214L583.70246875,158.38323192461525L588.5585625,95.02993915476908L593.41465625,57.01796349286153L598.27075,65.71077809571686L603.1268437499999,102.42646685743016L607.9829375,124.45588011445805L612.8390312500001,137.6735280686748L617.695125,145.60411684120493L622.55121875,150.362470104723L627.4073125,121.71748206283375L632.26340625,199.03048923770015L637.1195,245.4182935426201L641.97559375,273.2509761255719L646.8316875,289.950585675343L651.6877812500001,299.9703514052059L656.543875,242.98221084312357L661.39996875,208.7893265058741L666.2560625,188.27359590352447L671.11215625,175.9641575421147L675.96825,168.57849452526884L680.82434375,164.1470967151613L685.6804375,161.4882580290967L690.5365312499999,159.89295481745802L695.392625,158.93577289047474L700.2487187500001,126.86146373428488L705.1048125,107.61687824057103L709.96090625,127.57012694434266L714.817,139.54207616660543L719.67309375,146.72524569996315L724.5291875,151.03514741997773L729.38528125,153.6210884519865L734.2413750000001,155.17265307119195L739.09746875,156.10359184271533L743.9535625000001,156.6621551056293L748.80965625,156.99729306337767L753.66575,157.19837583802666L758.5218437500001,157.31902550281592L763.3779375,157.39141530168965L768.2340312499999,157.4348491810137L773.090125,157.46090950860807L777.9462187500001,157.4765457051647L782.8023125,157.48592742309887L787.65840625,157.49155645385915L792.5145000000001,157.49493387231553L797.37059375,157.4969603233895L802.2266874999999,157.49817619403356L807.08278125,157.49890571642018L811.938875,157.49934342985202L816.79496875,157.4996060579111L821.6510625,157.49976363474676L826.50715625,157.49985818084798" style="fill: none;" fill="none"></path></g><g><path stroke="rgb(0, 153, 136)" stroke-width="2px" d="M156.36621875,406.79746240601486L161.2223125,369.0209776396534L166.07840625,347.043448487752L170.93449999999999,334.0955844550805L175.79059375,326.4108842294131L180.64668749999998,321.82991090127723L185.50278125,287.5232684474654L190.35887499999998,266.9871394587798L195.21496875000003,286.20734542901397L200.0710625,266.2150071601479L204.92715625,254.22562195875108L209.78324999999998,215.52882309989167L214.63934375000002,192.3149362585933L219.4954375,209.89003271077638L224.35153125,188.93325341341068L229.20762499999998,176.35967622210424L234.06371875000002,168.8157064382468L238.9198125,195.78963688422917L243.77590625,180.47370955783336L248.632,234.28437871998224L253.48809375,266.5706823065238L258.34418750000003,285.9424292107105L263.20028125,297.56546466406525L268.056375,304.5392813679877L272.91246874999996,308.72356974582965L277.76856250000003,311.2341421805111L282.62465625,312.7404854281913L287.48075,313.64429130007306L292.33684375,314.18657479558107L297.19293749999997,314.511944882942L302.04903125,314.70716693177883L306.905125,251.82429976990687L311.76121875,214.09457972184632L316.61731249999997,222.956747852852L321.47340625000004,196.77404867671152L326.3295,181.06442919342706L331.18559375,171.63865751152017L336.04168749999997,165.98319450527916L340.89778125000004,162.58991670257964L345.753875,192.05395002461043L350.60996875,178.23237001390422L355.46606249999996,169.93942200803224L360.32215625,164.96365320470755L365.17825,161.9781919227843L370.03434375,223.18691515416526L374.8904375,259.9121490926774L379.74653125,281.9472894556708L384.60262500000005,295.1683736734255L389.45871874999995,303.1010242040638L394.3148125,307.86061452244127L399.17090625000003,310.71636871346584L404.027,312.4298212280799L408.88309375,313.457892736848L413.73918749999996,314.0747356421088L418.59528124999997,314.4448413852653L423.45137500000004,314.6669048311592L428.30746875,314.80014289869547L433.1635625,314.88008573921724L438.01965625,283.42805144353014L442.87575,264.556830866118L447.73184375,221.7340985196705L452.58793749999995,196.04045911180228L457.44403125,180.62427546708136L462.30012500000004,171.37456528024882L467.15621875,165.82473916814925L472.0123125,162.49484350088954L476.86840624999996,160.49690610053375L481.7245,159.29814366032016L486.58059375000005,158.57888619619217L491.4366875,158.1473317177153L496.29278125,157.88839903062913L501.148875,157.73303941837744L506.00496875,157.63982365102643L510.8610625,157.58389419061578L515.71715625,157.55033651436946L520.57325,157.5302019086217L525.42934375,157.51812114517304L530.2854375,157.51087268710376L535.1415312500001,157.5065236122623L539.997625,157.50391416735744L544.85371875,157.50234850041446L549.7098125,126.00140910024875L554.56590625,75.60084546014917L559.422,45.360507276089564L564.2780937499999,27.216304365653787L569.1341874999999,16.329782619392407L573.9902812500001,9.797869571635477L578.846375,5.878721742981253L583.70246875,35.0272330457888L588.5585625,84.01633982747315L593.41465625,144.90980389648377L598.27075,212.94588233789025L603.1268437499999,253.76752940273417L607.9829375,278.26051764164055L612.8390312500001,292.9563105849842L617.695125,270.2737863509905L622.55121875,288.16427181059413L627.4073125,298.8985630863564L632.26340625,242.3391378518138L637.1195,208.40348271108834L641.97559375,188.042089626653L646.8316875,175.82525377599183L651.6877812500001,168.495152265595L656.543875,164.09709135935702L661.39996875,161.45825481561423L666.2560625,159.87495288936853L671.11215625,158.92497173362108L675.96825,158.35498304017264L680.82434375,158.01298982410358L685.6804375,157.80779389446207L690.5365312499999,157.68467633667726L695.392625,157.61080580200635L700.2487187500001,157.56648348120373L705.1048125,157.53989008872222L709.96090625,157.52393405323326L714.817,157.5143604319399L719.67309375,157.50861625916386L724.5291875,157.50516975549826L729.38528125,157.50310185329897L734.2413750000001,157.50186111197928L739.09746875,157.50111666718757L743.9535625000001,157.5006700003125L748.80965625,157.5004020001875L753.66575,157.50024120011244L758.5218437500001,157.50014472006748L763.3779375,157.5000868320404L768.2340312499999,157.5000520992242L773.090125,157.50003125953452L777.9462187500001,157.50001875572067L782.8023125,157.5000112534324L787.65840625,157.50000675205936L792.5145000000001,157.50000405123563L797.37059375,157.50000243074138L802.2266874999999,157.50000145844479L807.08278125,157.50000087506692L811.938875,157.50000052504015L816.79496875,157.50000031502407L821.6510625,94.5000001890145L826.50715625,88.20000011340876L831.36325,84.42000006804514L836.2193437499999,113.65200004082695L841.0754375,99.69120002449615L845.93153125,59.81472001469771L850.7876249999999,98.88883200881848L855.6437187500001,122.33329920529106L860.4998125,136.39997952317444L865.35590625,144.83998771390472L870.2120000000001,149.90399262834265L875.06809375,152.9423955770055L879.9241875,154.76543734620316L884.7802812499999,155.85926240772193L889.636375,156.51555744463306L894.49246875,156.90933446677974L899.3485625,157.14560068006776L904.2046562500001,157.2873604080407L909.06075,157.3724162448243L913.91684375,157.4234497468945L918.7729375,157.45406984813687L923.62903125,157.472441908882L928.4851249999999,125.98346514532919L933.34121875,75.59007908719744L938.1973125000001,45.35404745231861L943.05340625,90.21242847139115L947.9095,117.12745708283464L952.76559375,133.27647424970073L957.6216875,142.96588454982046L962.4777812499999,148.7795307298923L967.333875,152.2677184379354L972.18996875,154.36063106276126L977.0460625,155.61637863765674L981.9021562500001,156.36982718259387L986.75825,156.8218963095564L991.61434375,157.09313778573372L996.4704375000001,157.25588267144025L1001.32653125,94.35352960286424L1006.182625,56.61211776171864L1011.0387187499999,33.96727065703108L1015.8948125000001,20.380362394218654L1020.75090625,75.22821743653122L1025.607,45.136930461918794L1030.46309375,90.08215827715127L1035.3191875,117.04929496629063L1040.17528125,133.2295769797745L1045.031375,142.93774618786478L1049.88746875,148.7626477127189L1054.7435625,183.75758862763138L1059.5996562500002,173.2545531765788L1064.45575,229.9527319059473L1069.31184375,200.97163914356835L1074.1679374999999,183.58298348614102L1079.02403125,173.1497900916846L1083.880125,166.8898740550108L1088.73621875,163.13392443300648L1093.5923125000002,160.88035465980388L1098.44840625,159.52821279588238L1103.3045,158.71692767752944L1108.16059375,158.23015660651762L1113.0166875,157.93809396391057L1117.87278125,157.76285637834624L1122.728875,157.6577138270078L1127.5849687500001,157.5946282962047L1132.4410625,189.05677697772282L1137.29715625,176.43406618663371L1142.15325,200.36043971198035L1147.00934375,183.2162638271882L1151.8654374999999,172.9297582963129L1156.72153125,166.75785497778773L1161.577625,163.05471298667266L1166.43371875,129.33282779200368L1171.2898125000002,109.09969667520211L1176.14590625,65.45981800512135L1181.002,39.275890803072784L1185.8580937499999,55.065534481843464L1190.7141875,33.03932068910622L1195.5702812499999,19.8235924134636L1200.426375,11.894155448078125L1205.2824687500001,7.136493268846741L1210.1385625,67.28189596130808L1214.99465625,103.36913757678498L1219.85075,125.02148254607084L1224.70684375,138.0128895276424L1229.5629374999999,145.8077337165855L1234.41903125,150.4846402299511L1239.2751250000001,153.29078413797075L1244.13121875,154.9744704827825L1248.9873125,155.98468228966942L1253.84340625,156.5908093738017L1258.6995,156.9544856242812L1263.5555937499998,157.1726913745687L1268.4116875,157.30361482474132L1273.26778125,157.38216889484468L1278.123875,157.42930133690672L1282.9799687500001,157.45758080214404L1287.8360625,125.97454848128649" style="fill: none;" fill="none"></path></g></g></g></g><g opacity="0.2"><g><g><g><path stroke="rgb(238, 51, 119)" stroke-width="2px" d="M132.08575000000002,315L136.94184375,157.5L141.7979375,315L146.65403125,236.24999999999997L151.510125,236.24999999999997L156.36621875,315L161.2223125,315L166.07840625,157.5L170.93449999999999,315L175.79059375,315L180.64668749999998,315L185.50278125,315L190.35887499999998,315L195.21496875000003,236.24999999999997L200.0710625,236.24999999999997L204.92715625,236.24999999999997L209.78324999999998,157.5L214.63934375000002,157.5L219.4954375,157.5L224.35153125,157.5L229.20762499999998,157.5L234.06371875000002,157.5L238.9198125,157.5L243.77590625,157.5L248.632,157.5L253.48809375,157.5L258.34418750000003,157.5L263.20028125,157.5L268.056375,157.5L272.91246874999996,157.5L277.76856250000003,315L282.62465625,315L287.48075,393.74999999999994L292.33684375,315L297.19293749999997,472.49999999999994L302.04903125,315L306.905125,315L311.76121875,315L316.61731249999997,315L321.47340625000004,236.24999999999997L326.3295,157.5L331.18559375,157.5L336.04168749999997,157.5L340.89778125000004,157.5L345.753875,157.5L350.60996875,157.5L355.46606249999996,157.5L360.32215625,157.5L365.17825,157.5L370.03434375,157.5L374.8904375,157.5L379.74653125,157.5L384.60262500000005,236.24999999999997L389.45871874999995,157.5L394.3148125,157.5L399.17090625000003,157.5L404.027,157.5L408.88309375,157.5L413.73918749999996,315L418.59528124999997,236.24999999999997L423.45137500000004,236.24999999999997L428.30746875,315L433.1635625,315L438.01965625,236.24999999999997L442.87575,315L447.73184375,315L452.58793749999995,236.24999999999997L457.44403125,157.5L462.30012500000004,236.24999999999997L467.15621875,157.5L472.0123125,157.5L476.86840624999996,157.5L481.7245,157.5L486.58059375000005,315L491.4366875,315L496.29278125,315L501.148875,315L506.00496875,315L510.8610625,315L515.71715625,315L520.57325,315L525.42934375,315L530.2854375,236.24999999999997L535.1415312500001,236.24999999999997L539.997625,315L544.85371875,157.5L549.7098125,157.5L554.56590625,157.5L559.422,157.5L564.2780937499999,157.5L569.1341874999999,157.5L573.9902812500001,236.24999999999997L578.846375,157.5L583.70246875,157.5L588.5585625,157.5L593.41465625,157.5L598.27075,157.5L603.1268437499999,157.5L607.9829375,157.5L612.8390312500001,157.5L617.695125,157.5L622.55121875,157.5L627.4073125,157.5L632.26340625,157.5L637.1195,157.5L641.97559375,157.5L646.8316875,157.5L651.6877812500001,78.74999999999997L656.543875,0L661.39996875,157.5L666.2560625,0L671.11215625,0L675.96825,0L680.82434375,157.5L685.6804375,157.5L690.5365312499999,157.5L695.392625,157.5L700.2487187500001,157.5L705.1048125,157.5L709.96090625,157.5L714.817,157.5L719.67309375,157.5L724.5291875,157.5L729.38528125,157.5L734.2413750000001,157.5L739.09746875,157.5L743.9535625000001,157.5L748.80965625,157.5L753.66575,157.5L758.5218437500001,157.5L763.3779375,157.5L768.2340312499999,157.5L773.090125,157.5L777.9462187500001,157.5L782.8023125,78.74999999999997L787.65840625,157.5L792.5145000000001,157.5L797.37059375,157.5L802.2266874999999,157.5L807.08278125,157.5L811.938875,157.5L816.79496875,157.5L821.6510625,157.5L826.50715625,157.5L831.36325,157.5L836.2193437499999,315L841.0754375,315L845.93153125,315L850.7876249999999,315L855.6437187500001,315L860.4998125,315L865.35590625,315L870.2120000000001,315L875.06809375,236.24999999999997L879.9241875,157.5L884.7802812499999,157.5L889.636375,157.5L894.49246875,157.5L899.3485625,157.5L904.2046562500001,157.5L909.06075,157.5L913.91684375,157.5L918.7729375,157.5L923.62903125,157.5L928.4851249999999,157.5L933.34121875,157.5L938.1973125000001,78.74999999999997L943.05340625,157.5L947.9095,78.74999999999997L952.76559375,78.74999999999997L957.6216875,157.5L962.4777812499999,157.5L967.333875,157.5L972.18996875,157.5L977.0460625,157.5L981.9021562500001,157.5L986.75825,157.5L991.61434375,236.24999999999997L996.4704375000001,315L1001.32653125,315L1006.182625,315L1011.0387187499999,236.24999999999997L1015.8948125000001,157.5L1020.75090625,157.5L1025.607,157.5L1030.46309375,157.5L1035.3191875,157.5L1040.17528125,0L1045.031375,0L1049.88746875,0L1054.7435625,0L1059.5996562500002,0L1064.45575,78.74999999999997L1069.31184375,157.5L1074.1679374999999,0L1079.02403125,78.74999999999997L1083.880125,0L1088.73621875,0L1093.5923125000002,157.5L1098.44840625,157.5L1103.3045,157.5L1108.16059375,78.74999999999997L1113.0166875,157.5L1117.87278125,78.74999999999997L1122.728875,157.5L1127.5849687500001,157.5L1132.4410625,157.5L1137.29715625,157.5L1142.15325,157.5L1147.00934375,157.5L1151.8654374999999,157.5L1156.72153125,157.5L1161.577625,157.5L1166.43371875,157.5L1171.2898125000002,157.5L1176.14590625,157.5L1181.002,157.5L1185.8580937499999,157.5L1190.7141875,157.5L1195.5702812499999,157.5L1200.426375,157.5L1205.2824687500001,157.5L1210.1385625,315L1214.99465625,157.5L1219.85075,157.5L1224.70684375,157.5L1229.5629374999999,157.5L1234.41903125,157.5L1239.2751250000001,157.5L1244.13121875,157.5L1248.9873125,157.5L1253.84340625,157.5L1258.6995,157.5L1263.5555937499998,157.5L1268.4116875,157.5L1273.26778125,157.5L1278.123875,157.5L1282.9799687500001,157.5L1287.8360625,157.5L1292.69215625,157.5L1297.54825,157.5L1302.40434375,157.5L1307.2604375,157.5L1312.11653125,157.5L1316.972625,315L1321.82871875,157.5L1326.6848125,157.5L1331.54090625,157.5L1336.397,236.24999999999997L1341.25309375,315L1346.1091875,236.24999999999997L1350.96528125,236.24999999999997L1355.821375,157.5L1360.6774687500001,157.5L1365.5335625,157.5L1370.38965625,157.5L1375.2457499999998,157.5L1380.10184375,157.5L1384.9579375,157.5L1389.81403125,157.5L1394.670125,0L1399.52621875,78.74999999999997L1404.3823125,78.74999999999997" style="fill: none;" fill="none"></path></g><g><path stroke="rgb(51, 187, 238)" stroke-width="2px" d="M132.08575000000002,472.49999999999994L136.94184375,315L141.7979375,630L156.36621875,472.49999999999994L161.2223125,315L166.07840625,315L170.93449999999999,315L175.79059375,315L180.64668749999998,315L185.50278125,315L190.35887499999998,315L195.21496875000003,315L200.0710625,315L204.92715625,315L209.78324999999998,315L214.63934375000002,393.74999999999994L219.4954375,315L224.35153125,315L229.20762499999998,315L234.06371875000002,315L238.9198125,315L243.77590625,315L248.632,315L253.48809375,157.5L258.34418750000003,157.5L263.20028125,236.24999999999997L268.056375,157.5L272.91246874999996,157.5L277.76856250000003,157.5L282.62465625,157.5L287.48075,157.5L292.33684375,157.5L297.19293749999997,157.5L302.04903125,157.5L306.905125,157.5L311.76121875,157.5L316.61731249999997,78.74999999999997L321.47340625000004,0L326.3295,78.74999999999997L331.18559375,157.5L336.04168749999997,157.5L340.89778125000004,157.5L345.753875,157.5L350.60996875,157.5L355.46606249999996,157.5L360.32215625,157.5L365.17825,157.5L370.03434375,236.24999999999997L374.8904375,315L379.74653125,157.5L384.60262500000005,157.5L389.45871874999995,157.5L394.3148125,315L399.17090625000003,315L404.027,315L408.88309375,315L413.73918749999996,236.24999999999997L418.59528124999997,236.24999999999997L423.45137500000004,236.24999999999997L428.30746875,315L433.1635625,157.5L438.01965625,157.5L442.87575,157.5L447.73184375,157.5L452.58793749999995,157.5L457.44403125,157.5L462.30012500000004,157.5L467.15621875,157.5L472.0123125,157.5L476.86840624999996,157.5L481.7245,157.5L486.58059375000005,157.5L491.4366875,157.5L496.29278125,0L501.148875,78.74999999999997L506.00496875,157.5L510.8610625,157.5L515.71715625,157.5L520.57325,157.5L525.42934375,157.5L530.2854375,157.5L535.1415312500001,157.5L539.997625,157.5L544.85371875,157.5L549.7098125,157.5L554.56590625,157.5L559.422,157.5L564.2780937499999,157.5L569.1341874999999,157.5L573.9902812500001,157.5L578.846375,157.5L583.70246875,157.5L588.5585625,157.5L593.41465625,157.5L598.27075,157.5L603.1268437499999,157.5L607.9829375,157.5L612.8390312500001,157.5L617.695125,157.5L622.55121875,157.5L627.4073125,157.5L632.26340625,157.5L637.1195,157.5L641.97559375,157.5L646.8316875,157.5L651.6877812500001,78.74999999999997L656.543875,157.5L661.39996875,157.5L666.2560625,157.5L671.11215625,157.5L675.96825,157.5L680.82434375,236.24999999999997L685.6804375,157.5L690.5365312499999,157.5L695.392625,157.5L700.2487187500001,157.5L705.1048125,78.74999999999997L709.96090625,78.74999999999997L714.817,157.5L719.67309375,157.5L724.5291875,157.5L729.38528125,157.5L734.2413750000001,157.5L739.09746875,157.5L743.9535625000001,157.5L748.80965625,157.5L753.66575,157.5L758.5218437500001,157.5L763.3779375,157.5L768.2340312499999,157.5L773.090125,157.5L777.9462187500001,157.5L782.8023125,157.5L787.65840625,157.5L792.5145000000001,157.5L797.37059375,157.5L802.2266874999999,157.5L807.08278125,157.5L811.938875,157.5L816.79496875,78.74999999999997L821.6510625,157.5L826.50715625,157.5L831.36325,157.5L836.2193437499999,157.5L841.0754375,157.5L845.93153125,157.5L850.7876249999999,157.5L855.6437187500001,157.5L860.4998125,157.5L865.35590625,157.5L870.2120000000001,157.5L875.06809375,157.5L879.9241875,157.5L884.7802812499999,78.74999999999997L889.636375,157.5L894.49246875,0L899.3485625,78.74999999999997L904.2046562500001,157.5L909.06075,157.5L913.91684375,157.5L918.7729375,157.5L923.62903125,157.5L928.4851249999999,0L933.34121875,78.74999999999997L938.1973125000001,157.5L943.05340625,78.74999999999997L947.9095,0L952.76559375,78.74999999999997L957.6216875,0L962.4777812499999,0L967.333875,0L972.18996875,0L977.0460625,0L981.9021562500001,0L986.75825,0L991.61434375,0L996.4704375000001,0L1001.32653125,78.74999999999997L1006.182625,157.5L1011.0387187499999,157.5L1015.8948125000001,157.5L1020.75090625,157.5L1025.607,157.5L1030.46309375,157.5L1035.3191875,157.5L1040.17528125,157.5L1045.031375,78.74999999999997L1049.88746875,157.5L1054.7435625,78.74999999999997L1059.5996562500002,78.74999999999997L1064.45575,0L1069.31184375,157.5L1074.1679374999999,157.5L1079.02403125,157.5L1083.880125,157.5L1088.73621875,157.5L1093.5923125000002,157.5L1098.44840625,157.5L1103.3045,157.5L1108.16059375,157.5L1113.0166875,157.5L1117.87278125,157.5L1122.728875,157.5L1127.5849687500001,157.5L1132.4410625,157.5L1137.29715625,157.5" style="fill: none;" fill="none"></path></g><g><path stroke="rgb(187, 187, 187)" stroke-width="2px" d="M132.08575000000002,315L136.94184375,157.5L141.7979375,315L146.65403125,315L151.510125,157.5L156.36621875,157.5L161.2223125,157.5L166.07840625,157.5L170.93449999999999,157.5L175.79059375,157.5L180.64668749999998,157.5L185.50278125,157.5L190.35887499999998,157.5L195.21496875000003,157.5L200.0710625,157.5L204.92715625,236.24999999999997L209.78324999999998,236.24999999999997L214.63934375000002,315L219.4954375,315L224.35153125,315L229.20762499999998,315L234.06371875000002,315L238.9198125,315L243.77590625,315L248.632,315L253.48809375,315L258.34418750000003,315L263.20028125,315L268.056375,315L272.91246874999996,315L277.76856250000003,315L282.62465625,315L287.48075,315L292.33684375,315L297.19293749999997,315L302.04903125,315L306.905125,315L311.76121875,315L316.61731249999997,315L321.47340625000004,315L326.3295,315L331.18559375,315L336.04168749999997,236.24999999999997L340.89778125000004,157.5L345.753875,157.5L350.60996875,157.5L355.46606249999996,157.5L360.32215625,157.5L365.17825,157.5L370.03434375,78.74999999999997L374.8904375,0L379.74653125,157.5L384.60262500000005,78.74999999999997L389.45871874999995,157.5L394.3148125,78.74999999999997L399.17090625000003,157.5L404.027,157.5L408.88309375,157.5L413.73918749999996,157.5L418.59528124999997,157.5L423.45137500000004,157.5L428.30746875,157.5L433.1635625,157.5L438.01965625,236.24999999999997L442.87575,157.5L447.73184375,157.5L452.58793749999995,157.5L457.44403125,157.5L462.30012500000004,157.5L467.15621875,157.5L472.0123125,157.5L476.86840624999996,157.5L481.7245,157.5L486.58059375000005,157.5L491.4366875,157.5L496.29278125,157.5L501.148875,157.5L506.00496875,157.5L510.8610625,315L515.71715625,236.24999999999997L520.57325,315L525.42934375,315L530.2854375,315L535.1415312500001,315L539.997625,157.5L544.85371875,157.5L549.7098125,157.5L554.56590625,157.5L559.422,157.5L564.2780937499999,157.5L569.1341874999999,157.5L573.9902812500001,157.5L578.846375,157.5L583.70246875,157.5L588.5585625,0L593.41465625,0L598.27075,78.74999999999997L603.1268437499999,157.5L607.9829375,157.5L612.8390312500001,157.5L617.695125,157.5L622.55121875,157.5L627.4073125,78.74999999999997L632.26340625,315L637.1195,315L641.97559375,315L646.8316875,315L651.6877812500001,315L656.543875,157.5L661.39996875,157.5L666.2560625,157.5L671.11215625,157.5L675.96825,157.5L680.82434375,157.5L685.6804375,157.5L690.5365312499999,157.5L695.392625,157.5L700.2487187500001,78.74999999999997L705.1048125,78.74999999999997L709.96090625,157.5L714.817,157.5L719.67309375,157.5L724.5291875,157.5L729.38528125,157.5L734.2413750000001,157.5L739.09746875,157.5L743.9535625000001,157.5L748.80965625,157.5L753.66575,157.5L758.5218437500001,157.5L763.3779375,157.5L768.2340312499999,157.5L773.090125,157.5L777.9462187500001,157.5L782.8023125,157.5L787.65840625,157.5L792.5145000000001,157.5L797.37059375,157.5L802.2266874999999,157.5L807.08278125,157.5L811.938875,157.5L816.79496875,157.5L821.6510625,157.5L826.50715625,157.5" style="fill: none;" fill="none"></path></g><g><path stroke="rgb(0, 153, 136)" stroke-width="2px" d="M151.510125,472.49999999999994L156.36621875,315L161.2223125,315L166.07840625,315L170.93449999999999,315L175.79059375,315L180.64668749999998,315L185.50278125,236.24999999999997L190.35887499999998,236.24999999999997L195.21496875000003,315L200.0710625,236.24999999999997L204.92715625,236.24999999999997L209.78324999999998,157.5L214.63934375000002,157.5L219.4954375,236.24999999999997L224.35153125,157.5L229.20762499999998,157.5L234.06371875000002,157.5L238.9198125,236.24999999999997L243.77590625,157.5L248.632,315L253.48809375,315L258.34418750000003,315L263.20028125,315L268.056375,315L272.91246874999996,315L277.76856250000003,315L282.62465625,315L287.48075,315L292.33684375,315L297.19293749999997,315L302.04903125,315L306.905125,157.5L311.76121875,157.5L316.61731249999997,236.24999999999997L321.47340625000004,157.5L326.3295,157.5L331.18559375,157.5L336.04168749999997,157.5L340.89778125000004,157.5L345.753875,236.24999999999997L350.60996875,157.5L355.46606249999996,157.5L360.32215625,157.5L365.17825,157.5L370.03434375,315L374.8904375,315L379.74653125,315L384.60262500000005,315L389.45871874999995,315L394.3148125,315L399.17090625000003,315L404.027,315L408.88309375,315L413.73918749999996,315L418.59528124999997,315L423.45137500000004,315L428.30746875,315L433.1635625,315L438.01965625,236.24999999999997L442.87575,236.24999999999997L447.73184375,157.5L452.58793749999995,157.5L457.44403125,157.5L462.30012500000004,157.5L467.15621875,157.5L472.0123125,157.5L476.86840624999996,157.5L481.7245,157.5L486.58059375000005,157.5L491.4366875,157.5L496.29278125,157.5L501.148875,157.5L506.00496875,157.5L510.8610625,157.5L515.71715625,157.5L520.57325,157.5L525.42934375,157.5L530.2854375,157.5L535.1415312500001,157.5L539.997625,157.5L544.85371875,157.5L549.7098125,78.74999999999997L554.56590625,0L559.422,0L564.2780937499999,0L569.1341874999999,0L573.9902812500001,0L578.846375,0L583.70246875,78.74999999999997L588.5585625,157.5L593.41465625,236.24999999999997L598.27075,315L603.1268437499999,315L607.9829375,315L612.8390312500001,315L617.695125,236.24999999999997L622.55121875,315L627.4073125,315L632.26340625,157.5L637.1195,157.5L641.97559375,157.5L646.8316875,157.5L651.6877812500001,157.5L656.543875,157.5L661.39996875,157.5L666.2560625,157.5L671.11215625,157.5L675.96825,157.5L680.82434375,157.5L685.6804375,157.5L690.5365312499999,157.5L695.392625,157.5L700.2487187500001,157.5L705.1048125,157.5L709.96090625,157.5L714.817,157.5L719.67309375,157.5L724.5291875,157.5L729.38528125,157.5L734.2413750000001,157.5L739.09746875,157.5L743.9535625000001,157.5L748.80965625,157.5L753.66575,157.5L758.5218437500001,157.5L763.3779375,157.5L768.2340312499999,157.5L773.090125,157.5L777.9462187500001,157.5L782.8023125,157.5L787.65840625,157.5L792.5145000000001,157.5L797.37059375,157.5L802.2266874999999,157.5L807.08278125,157.5L811.938875,157.5L816.79496875,157.5L821.6510625,0L826.50715625,78.74999999999997L831.36325,78.74999999999997L836.2193437499999,157.5L841.0754375,78.74999999999997L845.93153125,0L850.7876249999999,157.5L855.6437187500001,157.5L860.4998125,157.5L865.35590625,157.5L870.2120000000001,157.5L875.06809375,157.5L879.9241875,157.5L884.7802812499999,157.5L889.636375,157.5L894.49246875,157.5L899.3485625,157.5L904.2046562500001,157.5L909.06075,157.5L913.91684375,157.5L918.7729375,157.5L923.62903125,157.5L928.4851249999999,78.74999999999997L933.34121875,0L938.1973125000001,0L943.05340625,157.5L947.9095,157.5L952.76559375,157.5L957.6216875,157.5L962.4777812499999,157.5L967.333875,157.5L972.18996875,157.5L977.0460625,157.5L981.9021562500001,157.5L986.75825,157.5L991.61434375,157.5L996.4704375000001,157.5L1001.32653125,0L1006.182625,0L1011.0387187499999,0L1015.8948125000001,0L1020.75090625,157.5L1025.607,0L1030.46309375,157.5L1035.3191875,157.5L1040.17528125,157.5L1045.031375,157.5L1049.88746875,157.5L1054.7435625,236.24999999999997L1059.5996562500002,157.5L1064.45575,315L1069.31184375,157.5L1074.1679374999999,157.5L1079.02403125,157.5L1083.880125,157.5L1088.73621875,157.5L1093.5923125000002,157.5L1098.44840625,157.5L1103.3045,157.5L1108.16059375,157.5L1113.0166875,157.5L1117.87278125,157.5L1122.728875,157.5L1127.5849687500001,157.5L1132.4410625,236.24999999999997L1137.29715625,157.5L1142.15325,236.24999999999997L1147.00934375,157.5L1151.8654374999999,157.5L1156.72153125,157.5L1161.577625,157.5L1166.43371875,78.74999999999997L1171.2898125000002,78.74999999999997L1176.14590625,0L1181.002,0L1185.8580937499999,78.74999999999997L1190.7141875,0L1195.5702812499999,0L1200.426375,0L1205.2824687500001,0L1210.1385625,157.5L1214.99465625,157.5L1219.85075,157.5L1224.70684375,157.5L1229.5629374999999,157.5L1234.41903125,157.5L1239.2751250000001,157.5L1244.13121875,157.5L1248.9873125,157.5L1253.84340625,157.5L1258.6995,157.5L1263.5555937499998,157.5L1268.4116875,157.5L1273.26778125,157.5L1278.123875,157.5L1282.9799687500001,157.5L1287.8360625,78.74999999999997" style="fill: none;" fill="none"></path></g></g></g></g></g></g><g transform="translate(41, 378)" clip-path="url(#clip_1)"><clipPath id="clip_1"><rect width="1456" height="22"></rect></clipPath><g><g><line x1="0" y1="0" x2="0" y2="5" style="visibility: inherit;" fill="rgb(0, 0, 0)" stroke="rgb(204, 204, 204)" stroke-width="1px"></line><line x1="121.40234375" y1="0" x2="121.40234375" y2="5" style="visibility: inherit;" fill="rgb(0, 0, 0)" stroke="rgb(204, 204, 204)" stroke-width="1px"></line><line x1="242.8046875" y1="0" x2="242.8046875" y2="5" style="visibility: inherit;" fill="rgb(0, 0, 0)" stroke="rgb(204, 204, 204)" stroke-width="1px"></line><line x1="364.20703125" y1="0" x2="364.20703125" y2="5" style="visibility: inherit;" fill="rgb(0, 0, 0)" stroke="rgb(204, 204, 204)" stroke-width="1px"></line><line x1="485.609375" y1="0" x2="485.609375" y2="5" style="visibility: inherit;" fill="rgb(0, 0, 0)" stroke="rgb(204, 204, 204)" stroke-width="1px"></line><line x1="607.01171875" y1="0" x2="607.01171875" y2="5" style="visibility: inherit;" fill="rgb(0, 0, 0)" stroke="rgb(204, 204, 204)" stroke-width="1px"></line><line x1="728.4140625" y1="0" x2="728.4140625" y2="5" style="visibility: inherit;" fill="rgb(0, 0, 0)" stroke="rgb(204, 204, 204)" stroke-width="1px"></line><line x1="849.81640625" y1="0" x2="849.81640625" y2="5" style="visibility: inherit;" fill="rgb(0, 0, 0)" stroke="rgb(204, 204, 204)" stroke-width="1px"></line><line x1="971.21875" y1="0" x2="971.21875" y2="5" style="visibility: inherit;" fill="rgb(0, 0, 0)" stroke="rgb(204, 204, 204)" stroke-width="1px"></line><line x1="1092.62109375" y1="0" x2="1092.62109375" y2="5" style="visibility: inherit;" fill="rgb(0, 0, 0)" stroke="rgb(204, 204, 204)" stroke-width="1px"></line><line x1="1214.0234375" y1="0" x2="1214.0234375" y2="5" style="visibility: inherit;" fill="rgb(0, 0, 0)" stroke="rgb(204, 204, 204)" stroke-width="1px"></line><line x1="1335.42578125" y1="0" x2="1335.42578125" y2="5" style="visibility: inherit;" fill="rgb(0, 0, 0)" stroke="rgb(204, 204, 204)" stroke-width="1px"></line><line x1="1456.828125" y1="0" x2="1456.828125" y2="5" style="visibility: inherit;" fill="rgb(0, 0, 0)" stroke="rgb(204, 204, 204)" stroke-width="1px"></line></g><g transform="translate(0, 8)"><text x="0" y="0" dx="0em" dy="0.95em" style="text-anchor: middle; visibility: hidden; font-family: Roboto, sans-serif; font-size: 12px; font-weight: 200;" fill="rgb(50, 49, 63)" stroke="none" stroke-width="1px">-100k</text><text x="121.40234375" y="0" dx="0em" dy="0.95em" style="text-anchor: middle; visibility: inherit; font-family: Roboto, sans-serif; font-size: 12px; font-weight: 200;" fill="rgb(50, 49, 63)" stroke="none" stroke-width="1px">0</text><text x="242.8046875" y="0" dx="0em" dy="0.95em" style="text-anchor: middle; visibility: inherit; font-family: Roboto, sans-serif; font-size: 12px; font-weight: 200;" fill="rgb(50, 49, 63)" stroke="none" stroke-width="1px">100k</text><text x="364.20703125" y="0" dx="0em" dy="0.95em" style="text-anchor: middle; visibility: inherit; font-family: Roboto, sans-serif; font-size: 12px; font-weight: 200;" fill="rgb(50, 49, 63)" stroke="none" stroke-width="1px">200k</text><text x="485.609375" y="0" dx="0em" dy="0.95em" style="text-anchor: middle; visibility: inherit; font-family: Roboto, sans-serif; font-size: 12px; font-weight: 200;" fill="rgb(50, 49, 63)" stroke="none" stroke-width="1px">300k</text><text x="607.01171875" y="0" dx="0em" dy="0.95em" style="text-anchor: middle; visibility: inherit; font-family: Roboto, sans-serif; font-size: 12px; font-weight: 200;" fill="rgb(50, 49, 63)" stroke="none" stroke-width="1px">400k</text><text x="728.4140625" y="0" dx="0em" dy="0.95em" style="text-anchor: middle; visibility: inherit; font-family: Roboto, sans-serif; font-size: 12px; font-weight: 200;" fill="rgb(50, 49, 63)" stroke="none" stroke-width="1px">500k</text><text x="849.81640625" y="0" dx="0em" dy="0.95em" style="text-anchor: middle; visibility: inherit; font-family: Roboto, sans-serif; font-size: 12px; font-weight: 200;" fill="rgb(50, 49, 63)" stroke="none" stroke-width="1px">600k</text><text x="971.21875" y="0" dx="0em" dy="0.95em" style="text-anchor: middle; visibility: inherit; font-family: Roboto, sans-serif; font-size: 12px; font-weight: 200;" fill="rgb(50, 49, 63)" stroke="none" stroke-width="1px">700k</text><text x="1092.62109375" y="0" dx="0em" dy="0.95em" style="text-anchor: middle; visibility: inherit; font-family: Roboto, sans-serif; font-size: 12px; font-weight: 200;" fill="rgb(50, 49, 63)" stroke="none" stroke-width="1px">800k</text><text x="1214.0234375" y="0" dx="0em" dy="0.95em" style="text-anchor: middle; visibility: inherit; font-family: Roboto, sans-serif; font-size: 12px; font-weight: 200;" fill="rgb(50, 49, 63)" stroke="none" stroke-width="1px">900k</text><text x="1335.42578125" y="0" dx="0em" dy="0.95em" style="text-anchor: middle; visibility: inherit; font-family: Roboto, sans-serif; font-size: 12px; font-weight: 200;" fill="rgb(50, 49, 63)" stroke="none" stroke-width="1px">1M</text><text x="1456.828125" y="0" dx="0em" dy="0.95em" style="text-anchor: middle; visibility: hidden; font-family: Roboto, sans-serif; font-size: 12px; font-weight: 200;" fill="rgb(50, 49, 63)" stroke="none" stroke-width="1px">1.1M</text></g><line x1="0" y1="0" x2="1456.828125" y2="0" fill="rgb(0, 0, 0)" stroke="rgb(204, 204, 204)" stroke-width="1px"></line></g></g></g></g></svg>