<svg viewBox="0 0 1498 400" xmlns="http://www.w3.org/2000/svg"><g><g><g><g><g><line x1="30.78125" y1="378" x2="25.78125" y2="378" style="visibility: inherit;" fill="rgb(0, 0, 0)" stroke="rgb(204, 204, 204)" stroke-width="1px"></line><line x1="30.78125" y1="346.5" x2="25.78125" y2="346.5" style="visibility: inherit;" fill="rgb(0, 0, 0)" stroke="rgb(204, 204, 204)" stroke-width="1px"></line><line x1="30.78125" y1="315" x2="25.78125" y2="315" style="visibility: inherit;" fill="rgb(0, 0, 0)" stroke="rgb(204, 204, 204)" stroke-width="1px"></line><line x1="30.78125" y1="283.5" x2="25.78125" y2="283.5" style="visibility: inherit;" fill="rgb(0, 0, 0)" stroke="rgb(204, 204, 204)" stroke-width="1px"></line><line x1="30.78125" y1="252.00000000000003" x2="25.78125" y2="252.00000000000003" style="visibility: inherit;" fill="rgb(0, 0, 0)" stroke="rgb(204, 204, 204)" stroke-width="1px"></line><line x1="30.78125" y1="220.49999999999997" x2="25.78125" y2="220.49999999999997" style="visibility: inherit;" fill="rgb(0, 0, 0)" stroke="rgb(204, 204, 204)" stroke-width="1px"></line><line x1="30.78125" y1="189" x2="25.78125" y2="189" style="visibility: inherit;" fill="rgb(0, 0, 0)" stroke="rgb(204, 204, 204)" stroke-width="1px"></line><line x1="30.78125" y1="157.5" x2="25.78125" y2="157.5" style="visibility: inherit;" fill="rgb(0, 0, 0)" stroke="rgb(204, 204, 204)" stroke-width="1px"></line><line x1="30.78125" y1="126.00000000000001" x2="25.78125" y2="126.00000000000001" style="visibility: inherit;" fill="rgb(0, 0, 0)" stroke="rgb(204, 204, 204)" stroke-width="1px"></line><line x1="30.78125" y1="94.5" x2="25.78125" y2="94.5" style="visibility: inherit;" fill="rgb(0, 0, 0)" stroke="rgb(204, 204, 204)" stroke-width="1px"></line><line x1="30.78125" y1="62.999999999999986" x2="25.78125" y2="62.999999999999986" style="visibility: inherit;" fill="rgb(0, 0, 0)" stroke="rgb(204, 204, 204)" stroke-width="1px"></line><line x1="30.78125" y1="31.500000000000014" x2="25.78125" y2="31.500000000000014" style="visibility: inherit;" fill="rgb(0, 0, 0)" stroke="rgb(204, 204, 204)" stroke-width="1px"></line><line x1="30.78125" y1="0" x2="25.78125" y2="0" style="visibility: inherit;" fill="rgb(0, 0, 0)" stroke="rgb(204, 204, 204)" stroke-width="1px"></line></g><g transform="translate(20.78125, 0)"><text x="0" y="378" dx="0em" dy="0.3em" style="text-anchor: end; visibility: hidden; font-family: Roboto, sans-serif; font-size: 12px; font-weight: 200;" fill="rgb(50, 49, 63)" stroke="none" stroke-width="1px">-5</text><text x="0" y="346.5" dx="0em" dy="0.3em" style="text-anchor: end; visibility: inherit; font-family: Roboto, sans-serif; font-size: 12px; font-weight: 200;" fill="rgb(50, 49, 63)" stroke="none" stroke-width="1px">0</text><text x="0" y="315" dx="0em" dy="0.3em" style="text-anchor: end; visibility: inherit; font-family: Roboto, sans-serif; font-size: 12px; font-weight: 200;" fill="rgb(50, 49, 63)" stroke="none" stroke-width="1px">5</text><text x="0" y="283.5" dx="0em" dy="0.3em" style="text-anchor: end; visibility: inherit; font-family: Roboto, sans-serif; font-size: 12px; font-weight: 200;" fill="rgb(50, 49, 63)" stroke="none" stroke-width="1px">10</text><text x="0" y="252.00000000000003" dx="0em" dy="0.3em" style="text-anchor: end; visibility: inherit; font-family: Roboto, sans-serif; font-size: 12px; font-weight: 200;" fill="rgb(50, 49, 63)" stroke="none" stroke-width="1px">15</text><text x="0" y="220.49999999999997" dx="0em" dy="0.3em" style="text-anchor: end; visibility: inherit; font-family: Roboto, sans-serif; font-size: 12px; font-weight: 200;" fill="rgb(50, 49, 63)" stroke="none" stroke-width="1px">20</text><text x="0" y="189" dx="0em" dy="0.3em" style="text-anchor: end; visibility: inherit; font-family: Roboto, sans-serif; font-size: 12px; font-weight: 200;" fill="rgb(50, 49, 63)" stroke="none" stroke-width="1px">25</text><text x="0" y="157.5" dx="0em" dy="0.3em" style="text-anchor: end; visibility: inherit; font-family: Roboto, sans-serif; font-size: 12px; font-weight: 200;" fill="rgb(50, 49, 63)" stroke="none" stroke-width="1px">30</text><text x="0" y="126.00000000000001" dx="0em" dy="0.3em" style="text-anchor: end; visibility: inherit; font-family: Roboto, sans-serif; font-size: 12px; font-weight: 200;" fill="rgb(50, 49, 63)" stroke="none" stroke-width="1px">35</text><text x="0" y="94.5" dx="0em" dy="0.3em" style="text-anchor: end; visibility: inherit; font-family: Roboto, sans-serif; font-size: 12px; font-weight: 200;" fill="rgb(50, 49, 63)" stroke="none" stroke-width="1px">40</text><text x="0" y="62.999999999999986" dx="0em" dy="0.3em" style="text-anchor: end; visibility: inherit; font-family: Roboto, sans-serif; font-size: 12px; font-weight: 200;" fill="rgb(50, 49, 63)" stroke="none" stroke-width="1px">45</text><text x="0" y="31.500000000000014" dx="0em" dy="0.3em" style="text-anchor: end; visibility: inherit; font-family: Roboto, sans-serif; font-size: 12px; font-weight: 200;" fill="rgb(50, 49, 63)" stroke="none" stroke-width="1px">50</text><text x="0" y="0" dx="0em" dy="0.3em" style="text-anchor: end; visibility: hidden; font-family: Roboto, sans-serif; font-size: 12px; font-weight: 200;" fill="rgb(50, 49, 63)" stroke="none" stroke-width="1px">55</text></g><line x1="30.78125" y1="0" x2="30.78125" y2="378" fill="rgb(0, 0, 0)" stroke="rgb(204, 204, 204)" stroke-width="1px"></line></g></g><g transform="translate(30, 0)" clip-path="url(#clip_0)"><clipPath id="clip_0"><rect width="1467" height="378"></rect></clipPath><g><g><g><line x1="0" y1="0" x2="0" y2="378" fill="rgb(0, 0, 0)" stroke="rgb(60, 60, 60)" stroke-width="1px" opacity="0.25"></line><line x1="104.80133928571428" y1="0" x2="104.80133928571428" y2="378" fill="rgb(0, 0, 0)" stroke="rgb(60, 60, 60)" stroke-width="1px" opacity="0.25"></line><line x1="209.60267857142856" y1="0" x2="209.60267857142856" y2="378" fill="rgb(0, 0, 0)" stroke="rgb(60, 60, 60)" stroke-width="1px" opacity="0.25"></line><line x1="314.40401785714283" y1="0" x2="314.40401785714283" y2="378" fill="rgb(0, 0, 0)" stroke="rgb(60, 60, 60)" stroke-width="1px" opacity="0.25"></line><line x1="419.2053571428571" y1="0" x2="419.2053571428571" y2="378" fill="rgb(0, 0, 0)" stroke="rgb(60, 60, 60)" stroke-width="1px" opacity="0.25"></line><line x1="524.0066964285714" y1="0" x2="524.0066964285714" y2="378" fill="rgb(0, 0, 0)" stroke="rgb(60, 60, 60)" stroke-width="1px" opacity="0.25"></line><line x1="628.8080357142857" y1="0" x2="628.8080357142857" y2="378" fill="rgb(0, 0, 0)" stroke="rgb(60, 60, 60)" stroke-width="1px" opacity="0.25"></line><line x1="733.609375" y1="0" x2="733.609375" y2="378" fill="rgb(0, 0, 0)" stroke="rgb(60, 60, 60)" stroke-width="1px" opacity="0.25"></line><line x1="838.4107142857142" y1="0" x2="838.4107142857142" y2="378" fill="rgb(0, 0, 0)" stroke="rgb(60, 60, 60)" stroke-width="1px" opacity="0.25"></line><line x1="943.2120535714287" y1="0" x2="943.2120535714287" y2="378" fill="rgb(0, 0, 0)" stroke="rgb(60, 60, 60)" stroke-width="1px" opacity="0.25"></line><line x1="1048.013392857143" y1="0" x2="1048.013392857143" y2="378" fill="rgb(0, 0, 0)" stroke="rgb(60, 60, 60)" stroke-width="1px" opacity="0.25"></line><line x1="1152.814732142857" y1="0" x2="1152.814732142857" y2="378" fill="rgb(0, 0, 0)" stroke="rgb(60, 60, 60)" stroke-width="1px" opacity="0.25"></line><line x1="1257.6160714285713" y1="0" x2="1257.6160714285713" y2="378" fill="rgb(0, 0, 0)" stroke="rgb(60, 60, 60)" stroke-width="1px" opacity="0.25"></line><line x1="1362.4174107142858" y1="0" x2="1362.4174107142858" y2="378" fill="rgb(0, 0, 0)" stroke="rgb(60, 60, 60)" stroke-width="1px" opacity="0.25"></line><line x1="1467.21875" y1="0" x2="1467.21875" y2="378" fill="rgb(0, 0, 0)" stroke="rgb(60, 60, 60)" stroke-width="1px" opacity="0.25"></line></g><g><line x1="0" y1="378" x2="1467.21875" y2="378" fill="rgb(0, 0, 0)" stroke="rgb(60, 60, 60)" stroke-width="1px" opacity="0.25"></line><line x1="0" y1="346.5" x2="1467.21875" y2="346.5" fill="rgb(0, 0, 0)" stroke="rgb(60, 60, 60)" stroke-width="1px" opacity="0.25"></line><line x1="0" y1="315" x2="1467.21875" y2="315" fill="rgb(0, 0, 0)" stroke="rgb(60, 60, 60)" stroke-width="1px" opacity="0.25"></line><line x1="0" y1="283.5" x2="1467.21875" y2="283.5" fill="rgb(0, 0, 0)" stroke="rgb(60, 60, 60)" stroke-width="1px" opacity="0.25"></line><line x1="0" y1="252.00000000000003" x2="1467.21875" y2="252.00000000000003" fill="rgb(0, 0, 0)" stroke="rgb(60, 60, 60)" stroke-width="1px" opacity="0.25"></line><line x1="0" y1="220.49999999999997" x2="1467.21875" y2="220.49999999999997" fill="rgb(0, 0, 0)" stroke="rgb(60, 60, 60)" stroke-width="1px" opacity="0.25"></line><line x1="0" y1="189" x2="1467.21875" y2="189" fill="rgb(0, 0, 0)" stroke="rgb(60, 60, 60)" stroke-width="1px" opacity="0.25"></line><line x1="0" y1="157.5" x2="1467.21875" y2="157.5" fill="rgb(0, 0, 0)" stroke="rgb(60, 60, 60)" stroke-width="1px" opacity="0.25"></line><line x1="0" y1="126.00000000000001" x2="1467.21875" y2="126.00000000000001" fill="rgb(0, 0, 0)" stroke="rgb(60, 60, 60)" stroke-width="1px" opacity="0.25"></line><line x1="0" y1="94.5" x2="1467.21875" y2="94.5" fill="rgb(0, 0, 0)" stroke="rgb(60, 60, 60)" stroke-width="1px" opacity="0.25"></line><line x1="0" y1="62.999999999999986" x2="1467.21875" y2="62.999999999999986" fill="rgb(0, 0, 0)" stroke="rgb(60, 60, 60)" stroke-width="1px" opacity="0.25"></line><line x1="0" y1="31.500000000000014" x2="1467.21875" y2="31.500000000000014" fill="rgb(0, 0, 0)" stroke="rgb(60, 60, 60)" stroke-width="1px" opacity="0.25"></line><line x1="0" y1="0" x2="1467.21875" y2="0" fill="rgb(0, 0, 0)" stroke="rgb(60, 60, 60)" stroke-width="1px" opacity="0.25"></line></g></g></g><g><g><line x1="0" y1="346.5" x2="1467.21875" y2="346.5" fill="rgb(0, 0, 0)" stroke="rgb(153, 153, 153)" stroke-width="1.5px"></line></g></g><g><g><line x1="104.80133928571428" y1="0" x2="104.80133928571428" y2="378" fill="rgb(0, 0, 0)" stroke="rgb(153, 153, 153)" stroke-width="1.5px"></line></g></g><g><g><g><g><g><path stroke="rgb(204, 51, 17)" stroke-width="2px" d="M104.80133928571428,327.6L118.76262436755952,319.725L132.724608125,317.3142857142857L146.69841114459325,313.35551470588234L160.6715154885913,303.13886190145735L174.61131629588294,284.3255639097745L188.58214994419646,273.61552582369825L202.53772917534724,267.3846608898517L216.49587021701387,263.7138027414321L230.4445209151786,261.5351079103486L244.41616968501984,272.88223177754L258.37891034102176,269.5621118881955L272.3275028162203,267.5746713977052L286.2956582080853,253.77398804847692L300.2439013454861,227.85220479582736L314.2153172234623,212.3069373867062L328.16367680679565,202.9825841305026L342.1353837996032,197.38898239235144L356.11180685267857,194.03318494662497L370.0729754885913,214.70066660384992L384.03839440104167,227.10067198061586L398.01633125124005,242.10060061998598L411.99060005456346,251.10043144637567L425.95811499379965,243.90022475050037L439.93977811383934,234.5401082392194L453.92394482142856,228.9240553635716L467.89000418650795,225.55442976936362L481.8587418080357,223.53265662005896L495.8458196639385,222.31959352507434L509.82823968253973,224.11175651124512L523.8040805059524,225.1870540493792L537.7734003571428,243.472233884883L551.7593719766865,254.4433408548217L565.7146018700397,261.0260047014942L579.6822914781746,264.9756028887929L593.6578994097222,267.3453617577184L607.612838188244,268.7672170634304L621.5839629513888,277.18033026929777L635.547402282986,282.2281981728249L649.5195750595238,285.25691890774357L663.477832547123,269.43415133195555L677.4504711073909,259.94049079460467L691.4306204303075,236.6042944700247L705.3961557886905,222.60257667958913L719.3438749193948,214.20154600688025L733.3049853323413,209.16092760381378L747.2865902294146,206.1365565621751L761.2555025198412,214.4019339374906L775.225753938492,216.8411603625272L789.19839249876,218.30469621752812L803.1476254265873,219.18281773052112L817.1170617237103,219.7096906383142L831.0762507787698,225.06581438299784L845.0459781907242,228.27948862980207L859.0081366170634,230.20769317788245L872.9688394692462,236.4046159067318L886.9484647854662,252.72276954404282L900.9056742596724,262.51366172642696L914.8797683940973,265.8681970358565L928.8274875248017,260.3209182215136L942.8090924218749,256.9925509329081L956.7629249640377,254.99553055974482L970.7264807415675,253.79731833584685L984.6990610788689,260.6383910015082L998.6664013492065,269.7830346009049L1012.648879590774,275.269820760543L1026.6184323338296,273.52189245632576L1040.5947971639384,272.4731354737955L1054.5581200496033,271.8438812842773L1068.5567260528273,271.4663287705664L1082.5308784102183,261.1597972623398L1096.4908825868054,254.97587835740387L1110.4656753968254,251.26552701444234L1124.4396530853176,249.0393162086654L1138.4050137748015,255.26358972519924L1152.3621650260416,258.9981538351196L1166.3449926054068,261.2388923010717L1180.3164667063493,262.583335380643L1194.27938203125,265.91000122838585L1208.2722239608136,267.9060007370315L1222.2431740550596,259.02360044221894L1236.2310670324903,253.69416026533133L1250.2142439496527,237.8964961591988L1264.1920643539186,228.4178976955193L1278.166740718006,222.73073861731157L1292.1586510801092,219.3184431703869L1306.1867179042658,242.47106590223217L1320.1675659027778,258.8826395413393L1334.1591269270832,268.72958372480355" style="fill: none;" fill="none"></path></g></g></g></g><g opacity="0.2"><g><g><g><path stroke="rgb(204, 51, 17)" stroke-width="2px" d="M104.80133928571428,327.6L118.76262436755952,315L132.724608125,315L146.69841114459325,308.7L160.6715154885913,289.79999999999995L174.61131629588294,258.3L188.58214994419646,258.3L202.53772917534724,258.3L216.49587021701387,258.3L230.4445209151786,258.3L244.41616968501984,289.79999999999995L258.37891034102176,264.59999999999997L272.3275028162203,264.59999999999997L286.2956582080853,233.10000000000002L300.2439013454861,189L314.2153172234623,189L328.16367680679565,189L342.1353837996032,189L356.11180685267857,189L370.0729754885913,245.70000000000002L384.03839440104167,245.70000000000002L398.01633125124005,264.59999999999997L411.99060005456346,264.59999999999997L425.95811499379965,233.10000000000002L439.93977811383934,220.49999999999997L453.92394482142856,220.49999999999997L467.89000418650795,220.49999999999997L481.8587418080357,220.49999999999997L495.8458196639385,220.49999999999997L509.82823968253973,226.79999999999998L523.8040805059524,226.79999999999998L537.7734003571428,270.9L551.7593719766865,270.9L565.7146018700397,270.9L579.6822914781746,270.9L593.6578994097222,270.9L607.612838188244,270.9L621.5839629513888,289.79999999999995L635.547402282986,289.79999999999995L649.5195750595238,289.79999999999995L663.477832547123,245.70000000000002L677.4504711073909,245.70000000000002L691.4306204303075,201.6L705.3961557886905,201.6L719.3438749193948,201.6L733.3049853323413,201.6L747.2865902294146,201.6L761.2555025198412,226.79999999999998L775.225753938492,220.49999999999997L789.19839249876,220.49999999999997L803.1476254265873,220.49999999999997L817.1170617237103,220.49999999999997L831.0762507787698,233.10000000000002L845.0459781907242,233.10000000000002L859.0081366170634,233.10000000000002L872.9688394692462,245.70000000000002L886.9484647854662,277.20000000000005L900.9056742596724,277.20000000000005L914.8797683940973,270.9L928.8274875248017,252.00000000000003L942.8090924218749,252.00000000000003L956.7629249640377,252.00000000000003L970.7264807415675,252.00000000000003L984.6990610788689,270.9L998.6664013492065,283.5L1012.648879590774,283.5L1026.6184323338296,270.9L1040.5947971639384,270.9L1054.5581200496033,270.9L1068.5567260528273,270.9L1082.5308784102183,245.70000000000002L1096.4908825868054,245.70000000000002L1110.4656753968254,245.70000000000002L1124.4396530853176,245.70000000000002L1138.4050137748015,264.59999999999997L1152.3621650260416,264.59999999999997L1166.3449926054068,264.59999999999997L1180.3164667063493,264.59999999999997L1194.27938203125,270.9L1208.2722239608136,270.9L1222.2431740550596,245.70000000000002L1236.2310670324903,245.70000000000002L1250.2142439496527,214.2L1264.1920643539186,214.2L1278.166740718006,214.2L1292.1586510801092,214.2L1306.1867179042658,277.20000000000005L1320.1675659027778,283.5L1334.1591269270832,283.5" style="fill: none;" fill="none"></path></g></g></g></g></g></g><g transform="translate(30, 378)" clip-path="url(#clip_1)"><clipPath id="clip_1"><rect width="1467" height="22"></rect></clipPath><g><g><line x1="0" y1="0" x2="0" y2="5" style="visibility: inherit;" fill="rgb(0, 0, 0)" stroke="rgb(204, 204, 204)" stroke-width="1px"></line><line x1="104.80133928571428" y1="0" x2="104.80133928571428" y2="5" style="visibility: inherit;" fill="rgb(0, 0, 0)" stroke="rgb(204, 204, 204)" stroke-width="1px"></line><line x1="209.60267857142856" y1="0" x2="209.60267857142856" y2="5" style="visibility: inherit;" fill="rgb(0, 0, 0)" stroke="rgb(204, 204, 204)" stroke-width="1px"></line><line x1="314.40401785714283" y1="0" x2="314.40401785714283" y2="5" style="visibility: inherit;" fill="rgb(0, 0, 0)" stroke="rgb(204, 204, 204)" stroke-width="1px"></line><line x1="419.2053571428571" y1="0" x2="419.2053571428571" y2="5" style="visibility: inherit;" fill="rgb(0, 0, 0)" stroke="rgb(204, 204, 204)" stroke-width="1px"></line><line x1="524.0066964285714" y1="0" x2="524.0066964285714" y2="5" style="visibility: inherit;" fill="rgb(0, 0, 0)" stroke="rgb(204, 204, 204)" stroke-width="1px"></line><line x1="628.8080357142857" y1="0" x2="628.8080357142857" y2="5" style="visibility: inherit;" fill="rgb(0, 0, 0)" stroke="rgb(204, 204, 204)" stroke-width="1px"></line><line x1="733.609375" y1="0" x2="733.609375" y2="5" style="visibility: inherit;" fill="rgb(0, 0, 0)" stroke="rgb(204, 204, 204)" stroke-width="1px"></line><line x1="838.4107142857142" y1="0" x2="838.4107142857142" y2="5" style="visibility: inherit;" fill="rgb(0, 0, 0)" stroke="rgb(204, 204, 204)" stroke-width="1px"></line><line x1="943.2120535714287" y1="0" x2="943.2120535714287" y2="5" style="visibility: inherit;" fill="rgb(0, 0, 0)" stroke="rgb(204, 204, 204)" stroke-width="1px"></line><line x1="1048.013392857143" y1="0" x2="1048.013392857143" y2="5" style="visibility: inherit;" fill="rgb(0, 0, 0)" stroke="rgb(204, 204, 204)" stroke-width="1px"></line><line x1="1152.814732142857" y1="0" x2="1152.814732142857" y2="5" style="visibility: inherit;" fill="rgb(0, 0, 0)" stroke="rgb(204, 204, 204)" stroke-width="1px"></line><line x1="1257.6160714285713" y1="0" x2="1257.6160714285713" y2="5" style="visibility: inherit;" fill="rgb(0, 0, 0)" stroke="rgb(204, 204, 204)" stroke-width="1px"></line><line x1="1362.4174107142858" y1="0" x2="1362.4174107142858" y2="5" style="visibility: inherit;" fill="rgb(0, 0, 0)" stroke="rgb(204, 204, 204)" stroke-width="1px"></line><line x1="1467.21875" y1="0" x2="1467.21875" y2="5" style="visibility: inherit;" fill="rgb(0, 0, 0)" stroke="rgb(204, 204, 204)" stroke-width="1px"></line></g><g transform="translate(0, 8)"><text x="0" y="0" dx="0em" dy="0.95em" style="text-anchor: middle; visibility: hidden; font-family: Roboto, sans-serif; font-size: 12px; font-weight: 200;" fill="rgb(50, 49, 63)" stroke="none" stroke-width="1px">-0.5</text><text x="104.80133928571428" y="0" dx="0em" dy="0.95em" style="text-anchor: middle; visibility: inherit; font-family: Roboto, sans-serif; font-size: 12px; font-weight: 200;" fill="rgb(50, 49, 63)" stroke="none" stroke-width="1px">0</text><text x="209.60267857142856" y="0" dx="0em" dy="0.95em" style="text-anchor: middle; visibility: inherit; font-family: Roboto, sans-serif; font-size: 12px; font-weight: 200;" fill="rgb(50, 49, 63)" stroke="none" stroke-width="1px">0.5</text><text x="314.40401785714283" y="0" dx="0em" dy="0.95em" style="text-anchor: middle; visibility: inherit; font-family: Roboto, sans-serif; font-size: 12px; font-weight: 200;" fill="rgb(50, 49, 63)" stroke="none" stroke-width="1px">1</text><text x="419.2053571428571" y="0" dx="0em" dy="0.95em" style="text-anchor: middle; visibility: inherit; font-family: Roboto, sans-serif; font-size: 12px; font-weight: 200;" fill="rgb(50, 49, 63)" stroke="none" stroke-width="1px">1.5</text><text x="524.0066964285714" y="0" dx="0em" dy="0.95em" style="text-anchor: middle; visibility: inherit; font-family: Roboto, sans-serif; font-size: 12px; font-weight: 200;" fill="rgb(50, 49, 63)" stroke="none" stroke-width="1px">2</text><text x="628.8080357142857" y="0" dx="0em" dy="0.95em" style="text-anchor: middle; visibility: inherit; font-family: Roboto, sans-serif; font-size: 12px; font-weight: 200;" fill="rgb(50, 49, 63)" stroke="none" stroke-width="1px">2.5</text><text x="733.609375" y="0" dx="0em" dy="0.95em" style="text-anchor: middle; visibility: inherit; font-family: Roboto, sans-serif; font-size: 12px; font-weight: 200;" fill="rgb(50, 49, 63)" stroke="none" stroke-width="1px">3</text><text x="838.4107142857142" y="0" dx="0em" dy="0.95em" style="text-anchor: middle; visibility: inherit; font-family: Roboto, sans-serif; font-size: 12px; font-weight: 200;" fill="rgb(50, 49, 63)" stroke="none" stroke-width="1px">3.5</text><text x="943.2120535714287" y="0" dx="0em" dy="0.95em" style="text-anchor: middle; visibility: inherit; font-family: Roboto, sans-serif; font-size: 12px; font-weight: 200;" fill="rgb(50, 49, 63)" stroke="none" stroke-width="1px">4</text><text x="1048.013392857143" y="0" dx="0em" dy="0.95em" style="text-anchor: middle; visibility: inherit; font-family: Roboto, sans-serif; font-size: 12px; font-weight: 200;" fill="rgb(50, 49, 63)" stroke="none" stroke-width="1px">4.5</text><text x="1152.814732142857" y="0" dx="0em" dy="0.95em" style="text-anchor: middle; visibility: inherit; font-family: Roboto, sans-serif; font-size: 12px; font-weight: 200;" fill="rgb(50, 49, 63)" stroke="none" stroke-width="1px">5</text><text x="1257.6160714285713" y="0" dx="0em" dy="0.95em" style="text-anchor: middle; visibility: inherit; font-family: Roboto, sans-serif; font-size: 12px; font-weight: 200;" fill="rgb(50, 49, 63)" stroke="none" stroke-width="1px">5.5</text><text x="1362.4174107142858" y="0" dx="0em" dy="0.95em" style="text-anchor: middle; visibility: inherit; font-family: Roboto, sans-serif; font-size: 12px; font-weight: 200;" fill="rgb(50, 49, 63)" stroke="none" stroke-width="1px">6</text><text x="1467.21875" y="0" dx="0em" dy="0.95em" style="text-anchor: middle; visibility: hidden; font-family: Roboto, sans-serif; font-size: 12px; font-weight: 200;" fill="rgb(50, 49, 63)" stroke="none" stroke-width="1px">6.5</text></g><line x1="0" y1="0" x2="1467.21875" y2="0" fill="rgb(0, 0, 0)" stroke="rgb(204, 204, 204)" stroke-width="1px"></line></g></g></g></g></svg>