<svg viewBox="0 0 1498 400" xmlns="http://www.w3.org/2000/svg"><g><g><g><g><g><line x1="41.171875" y1="378" x2="36.171875" y2="378" style="visibility: inherit;" fill="rgb(0, 0, 0)" stroke="rgb(204, 204, 204)" stroke-width="1px"></line><line x1="41.171875" y1="343.6363636363636" x2="36.171875" y2="343.6363636363636" style="visibility: inherit;" fill="rgb(0, 0, 0)" stroke="rgb(204, 204, 204)" stroke-width="1px"></line><line x1="41.171875" y1="309.27272727272725" x2="36.171875" y2="309.27272727272725" style="visibility: inherit;" fill="rgb(0, 0, 0)" stroke="rgb(204, 204, 204)" stroke-width="1px"></line><line x1="41.171875" y1="274.90909090909093" x2="36.171875" y2="274.90909090909093" style="visibility: inherit;" fill="rgb(0, 0, 0)" stroke="rgb(204, 204, 204)" stroke-width="1px"></line><line x1="41.171875" y1="240.54545454545453" x2="36.171875" y2="240.54545454545453" style="visibility: inherit;" fill="rgb(0, 0, 0)" stroke="rgb(204, 204, 204)" stroke-width="1px"></line><line x1="41.171875" y1="206.18181818181816" x2="36.171875" y2="206.18181818181816" style="visibility: inherit;" fill="rgb(0, 0, 0)" stroke="rgb(204, 204, 204)" stroke-width="1px"></line><line x1="41.171875" y1="171.81818181818184" x2="36.171875" y2="171.81818181818184" style="visibility: inherit;" fill="rgb(0, 0, 0)" stroke="rgb(204, 204, 204)" stroke-width="1px"></line><line x1="41.171875" y1="137.45454545454547" x2="36.171875" y2="137.45454545454547" style="visibility: inherit;" fill="rgb(0, 0, 0)" stroke="rgb(204, 204, 204)" stroke-width="1px"></line><line x1="41.171875" y1="103.09090909090908" x2="36.171875" y2="103.09090909090908" style="visibility: inherit;" fill="rgb(0, 0, 0)" stroke="rgb(204, 204, 204)" stroke-width="1px"></line><line x1="41.171875" y1="68.7272727272727" x2="36.171875" y2="68.7272727272727" style="visibility: inherit;" fill="rgb(0, 0, 0)" stroke="rgb(204, 204, 204)" stroke-width="1px"></line><line x1="41.171875" y1="34.363636363636374" x2="36.171875" y2="34.363636363636374" style="visibility: inherit;" fill="rgb(0, 0, 0)" stroke="rgb(204, 204, 204)" stroke-width="1px"></line><line x1="41.171875" y1="0" x2="36.171875" y2="0" style="visibility: inherit;" fill="rgb(0, 0, 0)" stroke="rgb(204, 204, 204)" stroke-width="1px"></line></g><g transform="translate(31.171875, 0)"><text x="0" y="378" dx="0em" dy="0.3em" style="text-anchor: end; visibility: hidden; font-family: Roboto, sans-serif; font-size: 12px; font-weight: 200;" fill="rgb(50, 49, 63)" stroke="none" stroke-width="1px">3.5</text><text x="0" y="343.6363636363636" dx="0em" dy="0.3em" style="text-anchor: end; visibility: inherit; font-family: Roboto, sans-serif; font-size: 12px; font-weight: 200;" fill="rgb(50, 49, 63)" stroke="none" stroke-width="1px">4</text><text x="0" y="309.27272727272725" dx="0em" dy="0.3em" style="text-anchor: end; visibility: inherit; font-family: Roboto, sans-serif; font-size: 12px; font-weight: 200;" fill="rgb(50, 49, 63)" stroke="none" stroke-width="1px">4.5</text><text x="0" y="274.90909090909093" dx="0em" dy="0.3em" style="text-anchor: end; visibility: inherit; font-family: Roboto, sans-serif; font-size: 12px; font-weight: 200;" fill="rgb(50, 49, 63)" stroke="none" stroke-width="1px">5</text><text x="0" y="240.54545454545453" dx="0em" dy="0.3em" style="text-anchor: end; visibility: inherit; font-family: Roboto, sans-serif; font-size: 12px; font-weight: 200;" fill="rgb(50, 49, 63)" stroke="none" stroke-width="1px">5.5</text><text x="0" y="206.18181818181816" dx="0em" dy="0.3em" style="text-anchor: end; visibility: inherit; font-family: Roboto, sans-serif; font-size: 12px; font-weight: 200;" fill="rgb(50, 49, 63)" stroke="none" stroke-width="1px">6</text><text x="0" y="171.81818181818184" dx="0em" dy="0.3em" style="text-anchor: end; visibility: inherit; font-family: Roboto, sans-serif; font-size: 12px; font-weight: 200;" fill="rgb(50, 49, 63)" stroke="none" stroke-width="1px">6.5</text><text x="0" y="137.45454545454547" dx="0em" dy="0.3em" style="text-anchor: end; visibility: inherit; font-family: Roboto, sans-serif; font-size: 12px; font-weight: 200;" fill="rgb(50, 49, 63)" stroke="none" stroke-width="1px">7</text><text x="0" y="103.09090909090908" dx="0em" dy="0.3em" style="text-anchor: end; visibility: inherit; font-family: Roboto, sans-serif; font-size: 12px; font-weight: 200;" fill="rgb(50, 49, 63)" stroke="none" stroke-width="1px">7.5</text><text x="0" y="68.7272727272727" dx="0em" dy="0.3em" style="text-anchor: end; visibility: inherit; font-family: Roboto, sans-serif; font-size: 12px; font-weight: 200;" fill="rgb(50, 49, 63)" stroke="none" stroke-width="1px">8</text><text x="0" y="34.363636363636374" dx="0em" dy="0.3em" style="text-anchor: end; visibility: inherit; font-family: Roboto, sans-serif; font-size: 12px; font-weight: 200;" fill="rgb(50, 49, 63)" stroke="none" stroke-width="1px">8.5</text><text x="0" y="0" dx="0em" dy="0.3em" style="text-anchor: end; visibility: hidden; font-family: Roboto, sans-serif; font-size: 12px; font-weight: 200;" fill="rgb(50, 49, 63)" stroke="none" stroke-width="1px">9</text></g><line x1="41.171875" y1="0" x2="41.171875" y2="378" fill="rgb(0, 0, 0)" stroke="rgb(204, 204, 204)" stroke-width="1px"></line></g></g><g transform="translate(41, 0)" clip-path="url(#clip_0)"><clipPath id="clip_0"><rect width="1456" height="378"></rect></clipPath><g><g><g><line x1="0" y1="0" x2="0" y2="378" fill="rgb(0, 0, 0)" stroke="rgb(60, 60, 60)" stroke-width="1px" opacity="0.25"></line><line x1="104.05915178571428" y1="0" x2="104.05915178571428" y2="378" fill="rgb(0, 0, 0)" stroke="rgb(60, 60, 60)" stroke-width="1px" opacity="0.25"></line><line x1="208.11830357142856" y1="0" x2="208.11830357142856" y2="378" fill="rgb(0, 0, 0)" stroke="rgb(60, 60, 60)" stroke-width="1px" opacity="0.25"></line><line x1="312.17745535714283" y1="0" x2="312.17745535714283" y2="378" fill="rgb(0, 0, 0)" stroke="rgb(60, 60, 60)" stroke-width="1px" opacity="0.25"></line><line x1="416.2366071428571" y1="0" x2="416.2366071428571" y2="378" fill="rgb(0, 0, 0)" stroke="rgb(60, 60, 60)" stroke-width="1px" opacity="0.25"></line><line x1="520.2957589285714" y1="0" x2="520.2957589285714" y2="378" fill="rgb(0, 0, 0)" stroke="rgb(60, 60, 60)" stroke-width="1px" opacity="0.25"></line><line x1="624.3549107142857" y1="0" x2="624.3549107142857" y2="378" fill="rgb(0, 0, 0)" stroke="rgb(60, 60, 60)" stroke-width="1px" opacity="0.25"></line><line x1="728.4140625" y1="0" x2="728.4140625" y2="378" fill="rgb(0, 0, 0)" stroke="rgb(60, 60, 60)" stroke-width="1px" opacity="0.25"></line><line x1="832.4732142857142" y1="0" x2="832.4732142857142" y2="378" fill="rgb(0, 0, 0)" stroke="rgb(60, 60, 60)" stroke-width="1px" opacity="0.25"></line><line x1="936.5323660714287" y1="0" x2="936.5323660714287" y2="378" fill="rgb(0, 0, 0)" stroke="rgb(60, 60, 60)" stroke-width="1px" opacity="0.25"></line><line x1="1040.591517857143" y1="0" x2="1040.591517857143" y2="378" fill="rgb(0, 0, 0)" stroke="rgb(60, 60, 60)" stroke-width="1px" opacity="0.25"></line><line x1="1144.650669642857" y1="0" x2="1144.650669642857" y2="378" fill="rgb(0, 0, 0)" stroke="rgb(60, 60, 60)" stroke-width="1px" opacity="0.25"></line><line x1="1248.7098214285713" y1="0" x2="1248.7098214285713" y2="378" fill="rgb(0, 0, 0)" stroke="rgb(60, 60, 60)" stroke-width="1px" opacity="0.25"></line><line x1="1352.7689732142858" y1="0" x2="1352.7689732142858" y2="378" fill="rgb(0, 0, 0)" stroke="rgb(60, 60, 60)" stroke-width="1px" opacity="0.25"></line><line x1="1456.828125" y1="0" x2="1456.828125" y2="378" fill="rgb(0, 0, 0)" stroke="rgb(60, 60, 60)" stroke-width="1px" opacity="0.25"></line></g><g><line x1="0" y1="378" x2="1456.828125" y2="378" fill="rgb(0, 0, 0)" stroke="rgb(60, 60, 60)" stroke-width="1px" opacity="0.25"></line><line x1="0" y1="343.6363636363636" x2="1456.828125" y2="343.6363636363636" fill="rgb(0, 0, 0)" stroke="rgb(60, 60, 60)" stroke-width="1px" opacity="0.25"></line><line x1="0" y1="309.27272727272725" x2="1456.828125" y2="309.27272727272725" fill="rgb(0, 0, 0)" stroke="rgb(60, 60, 60)" stroke-width="1px" opacity="0.25"></line><line x1="0" y1="274.90909090909093" x2="1456.828125" y2="274.90909090909093" fill="rgb(0, 0, 0)" stroke="rgb(60, 60, 60)" stroke-width="1px" opacity="0.25"></line><line x1="0" y1="240.54545454545453" x2="1456.828125" y2="240.54545454545453" fill="rgb(0, 0, 0)" stroke="rgb(60, 60, 60)" stroke-width="1px" opacity="0.25"></line><line x1="0" y1="206.18181818181816" x2="1456.828125" y2="206.18181818181816" fill="rgb(0, 0, 0)" stroke="rgb(60, 60, 60)" stroke-width="1px" opacity="0.25"></line><line x1="0" y1="171.81818181818184" x2="1456.828125" y2="171.81818181818184" fill="rgb(0, 0, 0)" stroke="rgb(60, 60, 60)" stroke-width="1px" opacity="0.25"></line><line x1="0" y1="137.45454545454547" x2="1456.828125" y2="137.45454545454547" fill="rgb(0, 0, 0)" stroke="rgb(60, 60, 60)" stroke-width="1px" opacity="0.25"></line><line x1="0" y1="103.09090909090908" x2="1456.828125" y2="103.09090909090908" fill="rgb(0, 0, 0)" stroke="rgb(60, 60, 60)" stroke-width="1px" opacity="0.25"></line><line x1="0" y1="68.7272727272727" x2="1456.828125" y2="68.7272727272727" fill="rgb(0, 0, 0)" stroke="rgb(60, 60, 60)" stroke-width="1px" opacity="0.25"></line><line x1="0" y1="34.363636363636374" x2="1456.828125" y2="34.363636363636374" fill="rgb(0, 0, 0)" stroke="rgb(60, 60, 60)" stroke-width="1px" opacity="0.25"></line><line x1="0" y1="0" x2="1456.828125" y2="0" fill="rgb(0, 0, 0)" stroke="rgb(60, 60, 60)" stroke-width="1px" opacity="0.25"></line></g></g></g><g><g><line x1="0" y1="618.5454545454545" x2="1456.828125" y2="618.5454545454545" fill="rgb(0, 0, 0)" stroke="rgb(153, 153, 153)" stroke-width="1.5px"></line></g></g><g><g><line x1="104.05915178571428" y1="0" x2="104.05915178571428" y2="378" fill="rgb(0, 0, 0)" stroke="rgb(153, 153, 153)" stroke-width="1.5px"></line></g></g><g><g><g><g><g><path stroke="rgb(204, 51, 17)" stroke-width="2px" d="M145.6594570014881,380.10966310367223L159.5336637090774,365.3361512078794L173.37474492001488,335.5654345679919L187.24663920200894,307.3044954563945L201.10338709635417,288.0668505655878L214.9626208482143,269.7904711239926L228.8125470870536,257.0993634551322L242.68525071800593,256.8915854158097L256.54905151041663,251.25723106709773L270.39891993861613,244.67300754509358L284.2680971205357,231.55716714155847L298.11756087425596,214.52629262346247L311.9900332626488,204.31289426214693L325.83961263764877,194.97888039762623L339.7123740792411,184.79720415279905L353.58987599330356,192.435152427773L367.4521737090774,201.1414132670041L381.31869160156253,210.0304975050592L395.197638781622,225.90214027628838L409.07294389136905,236.79955379194786L422.94148515625,244.7124909250224L436.8241900279018,242.58748239616565L450.70926513578866,240.85430553694707L464.5764189453126,238.43984920870582L478.4462898549107,238.82390364368183L492.3342554947917,229.4325170484234L506.2177119047619,232.0449670998781L520.0945779017857,229.48879722877106L533.9649112965029,239.86782549175226L547.8518363448661,244.72069115722283L561.7082951860119,249.00696114559832L575.5770676934524,256.6187248944934L589.4536446372769,261.1857830600856L603.3097566145834,268.5078317699036L617.1819399497767,274.7337864985014L631.0465500911458,283.05118625201516L644.9197740178571,284.8343498650541L658.779123390997,274.44970693718165L672.6528676134673,268.21892118578864L686.5339537872024,247.52771896359985L700.4006451116072,233.2802721088904L714.2495885695683,228.39725504782996L728.1118284747024,218.13652960276517L741.9943599144344,212.8964570986213L755.8644042559524,215.7087781066702L769.7357204315475,219.6870841719614L783.609406843378,220.24134228618465L797.4597955673363,221.49025991717144L811.330360204613,213.9923325249881L825.1906923586309,207.66085056478644L839.0614304278273,206.61104967602904L852.9247109244792,212.3957215886244L866.786546155134,225.03016546938147L880.6672276543898,231.69446903538125L894.5255942466516,234.77667530384187L908.4006681138393,233.41873595068216L922.2496693824406,227.1057826553922L936.1322586328124,223.77619861378733L949.9872143973214,220.8620854263734L963.8519401599702,220.48815510325838L977.7255687611606,225.30379865721426L991.5939365941219,228.65137272515693L1005.4773930040924,230.65991716592237L1019.3480732626489,226.8250420825568L1033.2254595554316,230.02229360724445L1047.089838454241,233.31519522007733L1060.9893662220982,232.5418479004235L1074.8645557105656,225.20511223590404L1088.7256972135415,225.84307258501715L1102.6014648084076,220.72765911109107L1116.4764808649554,217.65841102673542L1130.3429987574405,222.2314146219672L1144.2013075390623,223.14249125420397L1158.085110812872,225.9800375853304L1171.957583201265,232.2643923049491L1185.821673046875,243.36590723632975L1199.715419750744,250.94317895760923L1213.587371843378,245.40953849472712L1227.4762046428573,238.88209110276227L1241.3604125911459,224.88561917193337L1255.2392441499255,210.53137150316007L1269.114896123512,209.24973811019234L1283.0077756677829,208.9389329012939L1296.9364399981398,219.29062809848674L1310.8182777101936,228.25074661284287L1324.710810390625,236.37590600881012" style="fill: none;" fill="none"></path></g></g></g></g><g opacity="0.2"><g><g><g><path stroke="rgb(204, 51, 17)" stroke-width="2px" d="M131.7846143768601,380.0213923020796L145.6594570014881,364.553354696794L159.5336637090774,346.0478540767323L173.37474492001488,294.381815997037L187.24663920200894,266.89090035178447L201.10338709635417,260.0181796334007L214.9626208482143,242.83636145158246L228.8125470870536,238.2545476393266L242.68525071800593,256.58180288835007L256.54905151041663,242.83636145158246L270.39891993861613,234.818170894276L284.2680971205357,211.9091018329967L298.11756087425596,189L311.9900332626488,189L325.83961263764877,180.98180944269356L339.7123740792411,169.5272749120539L353.58987599330356,203.89091127569023L367.4521737090774,214.20000873912463L381.31869160156253,223.36363636363635L395.197638781622,249.70908216996625L409.07294389136905,253.1454589150169L422.94148515625,256.58180288835007L436.8241900279018,239.39998470653185L450.70926513578866,238.2545476393266L464.5764189453126,234.818170894276L478.4462898549107,239.39998470653185L492.3342554947917,215.34544580632988L506.2177119047619,235.96364073319867L520.0945779017857,225.65454326976428L533.9649112965029,255.43636582114482L547.8518363448661,251.99998907609418L561.7082951860119,255.43636582114482L575.5770676934524,268.03637019070715L589.4536446372769,268.03637019070715L603.3097566145834,279.4909047213468L617.1819399497767,284.07271853360265L631.0465500911458,295.5272858359597L644.9197740178571,287.5090952786532L658.779123390997,258.8727425661954L672.6528676134673,258.8727425661954L686.5339537872024,216.49091564525256L700.4006451116072,211.9091018329967L714.2495885695683,221.07272945750842L728.1118284747024,202.74544143676758L741.9943599144344,205.0363483428955L755.8644042559524,219.92725961858574L769.7357204315475,225.65454326976428L783.609406843378,221.07272945750842L797.4597955673363,223.36363636363635L811.330360204613,202.74544143676758L825.1906923586309,198.16362762451172L839.0614304278273,205.0363483428955L852.9247109244792,221.07272945750842L866.786546155134,243.98183129050517L880.6672276543898,241.69092438437724L894.5255942466516,239.39998470653185L908.4006681138393,231.3818269209428L922.2496693824406,217.6363527124578L936.1322586328124,218.7818225513805L949.9872143973214,216.49091564525256L963.8519401599702,219.92725961858574L977.7255687611606,232.52726398814806L991.5939365941219,233.67273382707074L1005.4773930040924,233.67273382707074L1019.3480732626489,221.07272945750842L1033.2254595554316,234.818170894276L1047.089838454241,238.2545476393266L1060.9893662220982,231.3818269209428L1074.8645557105656,214.20000873912463L1088.7256972135415,226.80001310868695L1102.6014648084076,213.05453890020195L1116.4764808649554,213.05453890020195L1130.3429987574405,229.09092001481488L1144.2013075390623,224.50910620255902L1158.085110812872,230.23635708202013L1171.957583201265,241.69092438437724L1185.821673046875,260.0181796334007L1199.715419750744,262.3090865395286L1213.587371843378,237.10907780040392L1227.4762046428573,229.09092001481488L1241.3604125911459,203.89091127569023L1255.2392441499255,189L1269.114896123512,207.32728802074084L1283.0077756677829,208.4727250879461L1296.9364399981398,234.818170894276L1310.8182777101936,241.69092438437724L1324.710810390625,248.56364510276103" style="fill: none;" fill="none"></path></g></g></g></g></g></g><g transform="translate(41, 378)" clip-path="url(#clip_1)"><clipPath id="clip_1"><rect width="1456" height="22"></rect></clipPath><g><g><line x1="0" y1="0" x2="0" y2="5" style="visibility: inherit;" fill="rgb(0, 0, 0)" stroke="rgb(204, 204, 204)" stroke-width="1px"></line><line x1="104.05915178571428" y1="0" x2="104.05915178571428" y2="5" style="visibility: inherit;" fill="rgb(0, 0, 0)" stroke="rgb(204, 204, 204)" stroke-width="1px"></line><line x1="208.11830357142856" y1="0" x2="208.11830357142856" y2="5" style="visibility: inherit;" fill="rgb(0, 0, 0)" stroke="rgb(204, 204, 204)" stroke-width="1px"></line><line x1="312.17745535714283" y1="0" x2="312.17745535714283" y2="5" style="visibility: inherit;" fill="rgb(0, 0, 0)" stroke="rgb(204, 204, 204)" stroke-width="1px"></line><line x1="416.2366071428571" y1="0" x2="416.2366071428571" y2="5" style="visibility: inherit;" fill="rgb(0, 0, 0)" stroke="rgb(204, 204, 204)" stroke-width="1px"></line><line x1="520.2957589285714" y1="0" x2="520.2957589285714" y2="5" style="visibility: inherit;" fill="rgb(0, 0, 0)" stroke="rgb(204, 204, 204)" stroke-width="1px"></line><line x1="624.3549107142857" y1="0" x2="624.3549107142857" y2="5" style="visibility: inherit;" fill="rgb(0, 0, 0)" stroke="rgb(204, 204, 204)" stroke-width="1px"></line><line x1="728.4140625" y1="0" x2="728.4140625" y2="5" style="visibility: inherit;" fill="rgb(0, 0, 0)" stroke="rgb(204, 204, 204)" stroke-width="1px"></line><line x1="832.4732142857142" y1="0" x2="832.4732142857142" y2="5" style="visibility: inherit;" fill="rgb(0, 0, 0)" stroke="rgb(204, 204, 204)" stroke-width="1px"></line><line x1="936.5323660714287" y1="0" x2="936.5323660714287" y2="5" style="visibility: inherit;" fill="rgb(0, 0, 0)" stroke="rgb(204, 204, 204)" stroke-width="1px"></line><line x1="1040.591517857143" y1="0" x2="1040.591517857143" y2="5" style="visibility: inherit;" fill="rgb(0, 0, 0)" stroke="rgb(204, 204, 204)" stroke-width="1px"></line><line x1="1144.650669642857" y1="0" x2="1144.650669642857" y2="5" style="visibility: inherit;" fill="rgb(0, 0, 0)" stroke="rgb(204, 204, 204)" stroke-width="1px"></line><line x1="1248.7098214285713" y1="0" x2="1248.7098214285713" y2="5" style="visibility: inherit;" fill="rgb(0, 0, 0)" stroke="rgb(204, 204, 204)" stroke-width="1px"></line><line x1="1352.7689732142858" y1="0" x2="1352.7689732142858" y2="5" style="visibility: inherit;" fill="rgb(0, 0, 0)" stroke="rgb(204, 204, 204)" stroke-width="1px"></line><line x1="1456.828125" y1="0" x2="1456.828125" y2="5" style="visibility: inherit;" fill="rgb(0, 0, 0)" stroke="rgb(204, 204, 204)" stroke-width="1px"></line></g><g transform="translate(0, 8)"><text x="0" y="0" dx="0em" dy="0.95em" style="text-anchor: middle; visibility: hidden; font-family: Roboto, sans-serif; font-size: 12px; font-weight: 200;" fill="rgb(50, 49, 63)" stroke="none" stroke-width="1px">-0.5</text><text x="104.05915178571428" y="0" dx="0em" dy="0.95em" style="text-anchor: middle; visibility: inherit; font-family: Roboto, sans-serif; font-size: 12px; font-weight: 200;" fill="rgb(50, 49, 63)" stroke="none" stroke-width="1px">0</text><text x="208.11830357142856" y="0" dx="0em" dy="0.95em" style="text-anchor: middle; visibility: inherit; font-family: Roboto, sans-serif; font-size: 12px; font-weight: 200;" fill="rgb(50, 49, 63)" stroke="none" stroke-width="1px">0.5</text><text x="312.17745535714283" y="0" dx="0em" dy="0.95em" style="text-anchor: middle; visibility: inherit; font-family: Roboto, sans-serif; font-size: 12px; font-weight: 200;" fill="rgb(50, 49, 63)" stroke="none" stroke-width="1px">1</text><text x="416.2366071428571" y="0" dx="0em" dy="0.95em" style="text-anchor: middle; visibility: inherit; font-family: Roboto, sans-serif; font-size: 12px; font-weight: 200;" fill="rgb(50, 49, 63)" stroke="none" stroke-width="1px">1.5</text><text x="520.2957589285714" y="0" dx="0em" dy="0.95em" style="text-anchor: middle; visibility: inherit; font-family: Roboto, sans-serif; font-size: 12px; font-weight: 200;" fill="rgb(50, 49, 63)" stroke="none" stroke-width="1px">2</text><text x="624.3549107142857" y="0" dx="0em" dy="0.95em" style="text-anchor: middle; visibility: inherit; font-family: Roboto, sans-serif; font-size: 12px; font-weight: 200;" fill="rgb(50, 49, 63)" stroke="none" stroke-width="1px">2.5</text><text x="728.4140625" y="0" dx="0em" dy="0.95em" style="text-anchor: middle; visibility: inherit; font-family: Roboto, sans-serif; font-size: 12px; font-weight: 200;" fill="rgb(50, 49, 63)" stroke="none" stroke-width="1px">3</text><text x="832.4732142857142" y="0" dx="0em" dy="0.95em" style="text-anchor: middle; visibility: inherit; font-family: Roboto, sans-serif; font-size: 12px; font-weight: 200;" fill="rgb(50, 49, 63)" stroke="none" stroke-width="1px">3.5</text><text x="936.5323660714287" y="0" dx="0em" dy="0.95em" style="text-anchor: middle; visibility: inherit; font-family: Roboto, sans-serif; font-size: 12px; font-weight: 200;" fill="rgb(50, 49, 63)" stroke="none" stroke-width="1px">4</text><text x="1040.591517857143" y="0" dx="0em" dy="0.95em" style="text-anchor: middle; visibility: inherit; font-family: Roboto, sans-serif; font-size: 12px; font-weight: 200;" fill="rgb(50, 49, 63)" stroke="none" stroke-width="1px">4.5</text><text x="1144.650669642857" y="0" dx="0em" dy="0.95em" style="text-anchor: middle; visibility: inherit; font-family: Roboto, sans-serif; font-size: 12px; font-weight: 200;" fill="rgb(50, 49, 63)" stroke="none" stroke-width="1px">5</text><text x="1248.7098214285713" y="0" dx="0em" dy="0.95em" style="text-anchor: middle; visibility: inherit; font-family: Roboto, sans-serif; font-size: 12px; font-weight: 200;" fill="rgb(50, 49, 63)" stroke="none" stroke-width="1px">5.5</text><text x="1352.7689732142858" y="0" dx="0em" dy="0.95em" style="text-anchor: middle; visibility: inherit; font-family: Roboto, sans-serif; font-size: 12px; font-weight: 200;" fill="rgb(50, 49, 63)" stroke="none" stroke-width="1px">6</text><text x="1456.828125" y="0" dx="0em" dy="0.95em" style="text-anchor: middle; visibility: hidden; font-family: Roboto, sans-serif; font-size: 12px; font-weight: 200;" fill="rgb(50, 49, 63)" stroke="none" stroke-width="1px">6.5</text></g><line x1="0" y1="0" x2="1456.828125" y2="0" fill="rgb(0, 0, 0)" stroke="rgb(204, 204, 204)" stroke-width="1px"></line></g></g></g></g></svg>