<svg viewBox="0 0 1498 400" xmlns="http://www.w3.org/2000/svg"><g><g><g><g><g><line x1="41.171875" y1="378" x2="36.171875" y2="378" style="visibility: inherit;" fill="rgb(0, 0, 0)" stroke="rgb(204, 204, 204)" stroke-width="1px"></line><line x1="41.171875" y1="343.6363636363636" x2="36.171875" y2="343.6363636363636" style="visibility: inherit;" fill="rgb(0, 0, 0)" stroke="rgb(204, 204, 204)" stroke-width="1px"></line><line x1="41.171875" y1="309.27272727272725" x2="36.171875" y2="309.27272727272725" style="visibility: inherit;" fill="rgb(0, 0, 0)" stroke="rgb(204, 204, 204)" stroke-width="1px"></line><line x1="41.171875" y1="274.90909090909093" x2="36.171875" y2="274.90909090909093" style="visibility: inherit;" fill="rgb(0, 0, 0)" stroke="rgb(204, 204, 204)" stroke-width="1px"></line><line x1="41.171875" y1="240.54545454545453" x2="36.171875" y2="240.54545454545453" style="visibility: inherit;" fill="rgb(0, 0, 0)" stroke="rgb(204, 204, 204)" stroke-width="1px"></line><line x1="41.171875" y1="206.18181818181816" x2="36.171875" y2="206.18181818181816" style="visibility: inherit;" fill="rgb(0, 0, 0)" stroke="rgb(204, 204, 204)" stroke-width="1px"></line><line x1="41.171875" y1="171.81818181818184" x2="36.171875" y2="171.81818181818184" style="visibility: inherit;" fill="rgb(0, 0, 0)" stroke="rgb(204, 204, 204)" stroke-width="1px"></line><line x1="41.171875" y1="137.45454545454547" x2="36.171875" y2="137.45454545454547" style="visibility: inherit;" fill="rgb(0, 0, 0)" stroke="rgb(204, 204, 204)" stroke-width="1px"></line><line x1="41.171875" y1="103.09090909090908" x2="36.171875" y2="103.09090909090908" style="visibility: inherit;" fill="rgb(0, 0, 0)" stroke="rgb(204, 204, 204)" stroke-width="1px"></line><line x1="41.171875" y1="68.7272727272727" x2="36.171875" y2="68.7272727272727" style="visibility: inherit;" fill="rgb(0, 0, 0)" stroke="rgb(204, 204, 204)" stroke-width="1px"></line><line x1="41.171875" y1="34.363636363636374" x2="36.171875" y2="34.363636363636374" style="visibility: inherit;" fill="rgb(0, 0, 0)" stroke="rgb(204, 204, 204)" stroke-width="1px"></line><line x1="41.171875" y1="0" x2="36.171875" y2="0" style="visibility: inherit;" fill="rgb(0, 0, 0)" stroke="rgb(204, 204, 204)" stroke-width="1px"></line></g><g transform="translate(31.171875, 0)"><text x="0" y="378" dx="0em" dy="0.3em" style="text-anchor: end; visibility: hidden; font-family: Roboto, sans-serif; font-size: 12px; font-weight: 200;" fill="rgb(50, 49, 63)" stroke="none" stroke-width="1px">3.5</text><text x="0" y="343.6363636363636" dx="0em" dy="0.3em" style="text-anchor: end; visibility: inherit; font-family: Roboto, sans-serif; font-size: 12px; font-weight: 200;" fill="rgb(50, 49, 63)" stroke="none" stroke-width="1px">4</text><text x="0" y="309.27272727272725" dx="0em" dy="0.3em" style="text-anchor: end; visibility: inherit; font-family: Roboto, sans-serif; font-size: 12px; font-weight: 200;" fill="rgb(50, 49, 63)" stroke="none" stroke-width="1px">4.5</text><text x="0" y="274.90909090909093" dx="0em" dy="0.3em" style="text-anchor: end; visibility: inherit; font-family: Roboto, sans-serif; font-size: 12px; font-weight: 200;" fill="rgb(50, 49, 63)" stroke="none" stroke-width="1px">5</text><text x="0" y="240.54545454545453" dx="0em" dy="0.3em" style="text-anchor: end; visibility: inherit; font-family: Roboto, sans-serif; font-size: 12px; font-weight: 200;" fill="rgb(50, 49, 63)" stroke="none" stroke-width="1px">5.5</text><text x="0" y="206.18181818181816" dx="0em" dy="0.3em" style="text-anchor: end; visibility: inherit; font-family: Roboto, sans-serif; font-size: 12px; font-weight: 200;" fill="rgb(50, 49, 63)" stroke="none" stroke-width="1px">6</text><text x="0" y="171.81818181818184" dx="0em" dy="0.3em" style="text-anchor: end; visibility: inherit; font-family: Roboto, sans-serif; font-size: 12px; font-weight: 200;" fill="rgb(50, 49, 63)" stroke="none" stroke-width="1px">6.5</text><text x="0" y="137.45454545454547" dx="0em" dy="0.3em" style="text-anchor: end; visibility: inherit; font-family: Roboto, sans-serif; font-size: 12px; font-weight: 200;" fill="rgb(50, 49, 63)" stroke="none" stroke-width="1px">7</text><text x="0" y="103.09090909090908" dx="0em" dy="0.3em" style="text-anchor: end; visibility: inherit; font-family: Roboto, sans-serif; font-size: 12px; font-weight: 200;" fill="rgb(50, 49, 63)" stroke="none" stroke-width="1px">7.5</text><text x="0" y="68.7272727272727" dx="0em" dy="0.3em" style="text-anchor: end; visibility: inherit; font-family: Roboto, sans-serif; font-size: 12px; font-weight: 200;" fill="rgb(50, 49, 63)" stroke="none" stroke-width="1px">8</text><text x="0" y="34.363636363636374" dx="0em" dy="0.3em" style="text-anchor: end; visibility: inherit; font-family: Roboto, sans-serif; font-size: 12px; font-weight: 200;" fill="rgb(50, 49, 63)" stroke="none" stroke-width="1px">8.5</text><text x="0" y="0" dx="0em" dy="0.3em" style="text-anchor: end; visibility: hidden; font-family: Roboto, sans-serif; font-size: 12px; font-weight: 200;" fill="rgb(50, 49, 63)" stroke="none" stroke-width="1px">9</text></g><line x1="41.171875" y1="0" x2="41.171875" y2="378" fill="rgb(0, 0, 0)" stroke="rgb(204, 204, 204)" stroke-width="1px"></line></g></g><g transform="translate(41, 0)" clip-path="url(#clip_0)"><clipPath id="clip_0"><rect width="1456" height="378"></rect></clipPath><g><g><g><line x1="0" y1="0" x2="0" y2="378" fill="rgb(0, 0, 0)" stroke="rgb(60, 60, 60)" stroke-width="1px" opacity="0.25"></line><line x1="104.05915178571428" y1="0" x2="104.05915178571428" y2="378" fill="rgb(0, 0, 0)" stroke="rgb(60, 60, 60)" stroke-width="1px" opacity="0.25"></line><line x1="208.11830357142856" y1="0" x2="208.11830357142856" y2="378" fill="rgb(0, 0, 0)" stroke="rgb(60, 60, 60)" stroke-width="1px" opacity="0.25"></line><line x1="312.17745535714283" y1="0" x2="312.17745535714283" y2="378" fill="rgb(0, 0, 0)" stroke="rgb(60, 60, 60)" stroke-width="1px" opacity="0.25"></line><line x1="416.2366071428571" y1="0" x2="416.2366071428571" y2="378" fill="rgb(0, 0, 0)" stroke="rgb(60, 60, 60)" stroke-width="1px" opacity="0.25"></line><line x1="520.2957589285714" y1="0" x2="520.2957589285714" y2="378" fill="rgb(0, 0, 0)" stroke="rgb(60, 60, 60)" stroke-width="1px" opacity="0.25"></line><line x1="624.3549107142857" y1="0" x2="624.3549107142857" y2="378" fill="rgb(0, 0, 0)" stroke="rgb(60, 60, 60)" stroke-width="1px" opacity="0.25"></line><line x1="728.4140625" y1="0" x2="728.4140625" y2="378" fill="rgb(0, 0, 0)" stroke="rgb(60, 60, 60)" stroke-width="1px" opacity="0.25"></line><line x1="832.4732142857142" y1="0" x2="832.4732142857142" y2="378" fill="rgb(0, 0, 0)" stroke="rgb(60, 60, 60)" stroke-width="1px" opacity="0.25"></line><line x1="936.5323660714287" y1="0" x2="936.5323660714287" y2="378" fill="rgb(0, 0, 0)" stroke="rgb(60, 60, 60)" stroke-width="1px" opacity="0.25"></line><line x1="1040.591517857143" y1="0" x2="1040.591517857143" y2="378" fill="rgb(0, 0, 0)" stroke="rgb(60, 60, 60)" stroke-width="1px" opacity="0.25"></line><line x1="1144.650669642857" y1="0" x2="1144.650669642857" y2="378" fill="rgb(0, 0, 0)" stroke="rgb(60, 60, 60)" stroke-width="1px" opacity="0.25"></line><line x1="1248.7098214285713" y1="0" x2="1248.7098214285713" y2="378" fill="rgb(0, 0, 0)" stroke="rgb(60, 60, 60)" stroke-width="1px" opacity="0.25"></line><line x1="1352.7689732142858" y1="0" x2="1352.7689732142858" y2="378" fill="rgb(0, 0, 0)" stroke="rgb(60, 60, 60)" stroke-width="1px" opacity="0.25"></line><line x1="1456.828125" y1="0" x2="1456.828125" y2="378" fill="rgb(0, 0, 0)" stroke="rgb(60, 60, 60)" stroke-width="1px" opacity="0.25"></line></g><g><line x1="0" y1="378" x2="1456.828125" y2="378" fill="rgb(0, 0, 0)" stroke="rgb(60, 60, 60)" stroke-width="1px" opacity="0.25"></line><line x1="0" y1="343.6363636363636" x2="1456.828125" y2="343.6363636363636" fill="rgb(0, 0, 0)" stroke="rgb(60, 60, 60)" stroke-width="1px" opacity="0.25"></line><line x1="0" y1="309.27272727272725" x2="1456.828125" y2="309.27272727272725" fill="rgb(0, 0, 0)" stroke="rgb(60, 60, 60)" stroke-width="1px" opacity="0.25"></line><line x1="0" y1="274.90909090909093" x2="1456.828125" y2="274.90909090909093" fill="rgb(0, 0, 0)" stroke="rgb(60, 60, 60)" stroke-width="1px" opacity="0.25"></line><line x1="0" y1="240.54545454545453" x2="1456.828125" y2="240.54545454545453" fill="rgb(0, 0, 0)" stroke="rgb(60, 60, 60)" stroke-width="1px" opacity="0.25"></line><line x1="0" y1="206.18181818181816" x2="1456.828125" y2="206.18181818181816" fill="rgb(0, 0, 0)" stroke="rgb(60, 60, 60)" stroke-width="1px" opacity="0.25"></line><line x1="0" y1="171.81818181818184" x2="1456.828125" y2="171.81818181818184" fill="rgb(0, 0, 0)" stroke="rgb(60, 60, 60)" stroke-width="1px" opacity="0.25"></line><line x1="0" y1="137.45454545454547" x2="1456.828125" y2="137.45454545454547" fill="rgb(0, 0, 0)" stroke="rgb(60, 60, 60)" stroke-width="1px" opacity="0.25"></line><line x1="0" y1="103.09090909090908" x2="1456.828125" y2="103.09090909090908" fill="rgb(0, 0, 0)" stroke="rgb(60, 60, 60)" stroke-width="1px" opacity="0.25"></line><line x1="0" y1="68.7272727272727" x2="1456.828125" y2="68.7272727272727" fill="rgb(0, 0, 0)" stroke="rgb(60, 60, 60)" stroke-width="1px" opacity="0.25"></line><line x1="0" y1="34.363636363636374" x2="1456.828125" y2="34.363636363636374" fill="rgb(0, 0, 0)" stroke="rgb(60, 60, 60)" stroke-width="1px" opacity="0.25"></line><line x1="0" y1="0" x2="1456.828125" y2="0" fill="rgb(0, 0, 0)" stroke="rgb(60, 60, 60)" stroke-width="1px" opacity="0.25"></line></g></g></g><g><g><line x1="0" y1="618.5454545454545" x2="1456.828125" y2="618.5454545454545" fill="rgb(0, 0, 0)" stroke="rgb(153, 153, 153)" stroke-width="1.5px"></line></g></g><g><g><line x1="104.05915178571428" y1="0" x2="104.05915178571428" y2="378" fill="rgb(0, 0, 0)" stroke="rgb(153, 153, 153)" stroke-width="1.5px"></line></g></g><g><g><g><g><g><path stroke="rgb(187, 187, 187)" stroke-width="2px" d="M104.05915178571428,439.85455200888896L105.45140542596725,338.9113742871718L106.85152131324405,303.9194879655714L108.14613278273808,278.4397241737754L109.37906029947918,246.5150573695092L110.6415868638393,221.28344811125316L111.91671614769345,183.9579229397763L113.09929059709822,164.1067863163234L114.28961167224702,143.61759052506258L115.48212955171131,112.5572777006227L116.70979630022322,96.34099421020721L118.06054190104166,97.66930089900465L119.35284094494048,98.00565795652491L120.6632925297619,102.79259794313845L122.04745268043155,131.79101681230478L123.45149969122025,154.68106762229507L124.87225397693453,170.2440003829074L126.09188504650297,185.53704342571163L127.37967486049108,190.58798488926942L128.80736642299107,200.949536026389L130.2118759188988,207.1662242491172L131.55244684709822,208.14702542969002L132.93915066592263,206.44456632325603L134.2260733203125,203.59036525503433L135.59352619605656,186.75780503946595L137.02006154575895,181.69830988282925L138.37820690848216,162.16805859758927L139.65628453497024,154.11537392016692L140.8834309877232,150.20012937867446L142.1651506845238,158.3891642292904L143.52266013020835,168.3425863973681L144.9344537667411,174.31463885324484L146.27415753534225,178.81423282879112L147.59969769717262,175.55762439567272L148.9163928311012,174.06184733896293L150.1741211123512,179.12074569310627L151.37380751116072,172.07608111416576L152.6410167373512,167.84928239470347L153.94724814546132,169.89503010422163L155.28654723958334,170.66429079083397L156.77210725260417,166.08584545027614L162.71006931733632,163.3387782482915L174.2714457552083,159.39962446681383L185.83403621651786,150.62159286038573L197.39651105654764,139.39840938660691L208.9582921688988,128.54086031745538L220.5196686067708,122.94269363888321L232.08254812127979,113.16925429457179L243.6446760974702,107.30519068812539L255.20819152901788,104.24492735119382L266.7688742392113,97.82695553677279L278.33158032180063,84.35435688803123L289.89289894903277,84.05988773400337L301.455142546503,87.54865729139557L313.01877359933036,82.769191753097L324.57962974144345,81.27606312814046L336.1415842857143,93.2092777361732L347.70382788318454,96.24556751561677L359.2657246168155,102.1909803686568L363.95659555803576,116.29640640301287L368.45917724516374,133.92330275682514L380.02176770647327,132.58671154855972L391.5834331975446,134.07565717538495L403.1454455524553,137.7181259475206L414.70867193080363,129.8236037151521L426.26987493675597,124.6287024401619L437.8320607235863,130.6754024083665L449.39424651041656,128.8052458145822L460.95672135044634,125.85042633340935L472.5193696223959,119.03753289688058L484.08115073474704,111.28433267647173L495.6425849832589,113.96332775252279L507.2044817168898,120.61072654597831L518.7674190420387,124.1409778864826L530.3298938820685,129.9245928492768L541.8916749944196,140.72566392656273L553.4525889471726,144.45721828558072L565.015699704241,143.488874678069L576.5774808165924,140.15878022620845L588.1407071949405,139.99344907999446L599.7016789583332,129.81424689661617L611.2644428515625,127.37218974508086L622.8255302362352,126.36513028104174L634.387947265625,127.59362012752062L645.9514626971727,124.66526298560326L657.5130703776042,131.1555266712004L669.0743311941965,139.17331075924542L680.636401359747,139.4021673998166L692.1987027678572,139.99766931972837L703.7614088504465,135.7731435507326L715.3232477734375,135.9875163766887L726.8844507793899,128.3270500370839L738.4474459151786,107.23622740051296L750.0094004594495,104.66173731422029L761.5732049441965,103.57521808932675L773.1337720331102,93.75967892987887L784.6960734412203,89.24489302354347L796.25854828125,92.49238599001832L807.8202715829613,93.06634418056991L819.3837870145089,87.91252941150695L830.9441228608631,97.64933233307254L842.506077405134,103.94960202158086L854.0686678664435,112.76976558251081L865.6306224107143,109.81458574832132L877.1944847061012,113.99784235808372L888.7548205524554,115.59143356148996L900.3172953924851,109.67486101080647L911.8797702325149,113.45581958000574L923.4416669661459,123.05530992982162L935.004951155134,124.23319032745529L946.5655760546875,113.94355230793448L958.1281087053572,118.76613575432295L969.6904101134672,122.1178606490382L981.2520756045386,120.00525660049362L992.8156488467262,127.4431600776834L1004.3760425037201,141.98589255096022L1015.9385751543897,147.04608098512156L1027.5003562667412,150.54038198118752L1039.0630045386904,146.68059806855095L1050.625999674479,138.86653803757497L1062.1867401953125,135.09446478144056L1073.7495040885417,134.6639463526623L1085.311169579613,133.48927253294409L1096.8731819345237,142.86447173676308L1108.4363505022322,152.61323024442825L1119.997437886905,150.67339531384889L1131.5598549162949,140.8040415578716L1143.1214625967261,117.47151060033907L1154.683821815476,99.80654097601484L1166.2469325725447,78.66938087888838L1177.8083090104167,72.40163726645771L1189.3712463355653,76.88825596105988L1200.9331430691966,98.36568347110062L1212.495213234747,108.04486375420244L1224.0576880747767,114.31055985963263L1235.618891080729,114.4045133643991L1247.1807300037203,113.08634787792566L1258.7429736011904,117.33545033386649L1270.3052171986608,135.46309187778792L1281.868848251488,146.7978516310229L1293.4292997191221,159.0968971663579L1304.9916011272321,173.3490517602861L1316.553497860863,181.9003445166431L1328.1162039434525,176.03475391235625L1339.6790256473214,167.01720986639017" style="fill: none;" fill="none"></path></g><g><path stroke="rgb(0, 153, 136)" stroke-width="2px" d="M104.05915178571428,398.6181785410101L108.57040506882441,347.0727219473232L113.08038651785714,316.09869311691875L117.76281710565478,296.3597980026893L122.43304964843749,273.34398642657845L126.98552191778275,257.17948944236184L131.48804579427082,229.59365477977565L136.08913681175594,211.21477269891176L140.78844810639882,186.96447120955415L145.38953912388394,171.64971222861257L150.06931042224704,165.73929272621223L154.9348851171875,158.9925213771036L159.55800198846728,154.49509604384036L164.1678802232143,148.59061157067205L168.73237710565476,146.8844712099958L173.4215137276786,145.86130054747989L178.08746828311013,147.99713661070984L182.64335138020834,146.07081797187803L187.12830082217263,137.1255873038946L191.89334281436015,120.76202945374548L196.6684438578869,105.44596735016509L201.42122999441966,83.42729758791567L206.2246582514881,89.00187275274652L210.9388268805803,105.17574224850486L216.01130585565474,124.96004705099674L220.96671828497026,146.4524259072957L225.77494482514882,163.47147296320813L230.43864476562496,176.43198002425086L235.36833146019342,182.83374107134145L240.15487901041664,188.04933408318996L244.70764033296135,189.3459633843557L249.64501584263388,178.66939885836993L254.501572077753,161.72526875215556L259.35067074032736,141.02061258179768L264.1805184598214,132.7214583155012L268.8282048530506,133.69833041874358L273.63209559523807,142.98990652574514L278.48610816220236,152.6884911538301L283.09037876488094,159.42400467212576L287.7139003106399,160.71622448247084L292.59439015066965,149.57882733746558L304.1137960639881,115.40547995204084L317.99233856956846,100.85783604330685L331.86718119419646,95.33652592423304L345.74052074218747,91.56555191778428L359.60946668154764,76.01568779476476L365.9599654724702,79.51486110505704L370.60250671875,71.99254953085183L375.2679987890625,69.31188811136381L380.0186459319196,66.78714160592259L384.70847628162204,97.80319143287561L389.36737793898806,127.8673755226547L394.2309292615327,157.81860188835213L398.7847311755952,163.87662179585945L403.61729599516366,173.925973077522L408.291633093378,168.0428548259588L412.90081760044643,154.89116831493928L417.6205938616071,143.79288018540646L422.301001077009,142.63209699108222L426.98649562872026,137.8119880891138L431.8560014471726,142.25082484754245L436.5129953534227,162.7832204334282L441.54020859747027,171.43720673515472L446.2232751023065,149.59686425216333L450.8293378348214,122.74720421691403L455.39192696614583,101.59741955662643L460.0346416443452,84.7839097750803L464.7570771949405,65.99035110852292L469.50252138020835,82.2051249994977L474.20472320684524,106.1376187064191L479.07330405505957,120.03894010368985L483.8138921465774,127.00518224403204L488.6739170200893,121.10492403258753L493.5792654352678,121.23023326421249L498.6698969512648,106.18541355971266L503.80434893229165,98.07488449946399L508.67194699962795,95.04129258821709L513.5679879017857,96.42841366439157L518.3286362853422,96.34432354764508L523.3341127287947,106.8320478001291L528.4459607496281,118.62285892632659L533.3103792317709,113.78462969017983L538.2502405989584,116.83805665876784L542.9664904110863,112.71374832964457L547.7004880896577,102.90824812387424L552.4497477771578,87.86130726721339L557.1918967559525,85.24769519906205L561.8239742764138,84.5958907206224L566.5761244959077,87.41208425648118L571.3265982068452,88.64361244242747L576.115342561384,89.38252935399521L580.8715395256696,91.65860502583823L585.6619603887648,95.77333871629757L590.6329816908482,100.53309239104453L595.403226640625,102.9307697690106L600.3478284802827,120.40573109302922L605.0536723772321,120.81071750047747L609.6063180784971,122.88643486984877L614.4679616499255,123.21550252902038L619.1768695107887,124.78748071385665L623.8072705226936,122.52339140183581L628.502361640625,120.70676298774124L633.1259988076638,123.74042492465819L637.6839630877976,119.14606964096323L642.1943492113095,109.51672919801896L647.2349745238096,108.32095185319525L651.9966634988839,109.89438579808551L656.5409266573661,108.54754581323515L661.0468613616071,119.19398290730803L665.7924789787946,132.45457243647908L670.6595567503721,143.16001444133522L675.3949418843007,147.29236618377746L680.1642618638393,140.60814960473112L685.0363113504463,124.6848906367512L689.6733605859374,115.58911008284531L694.2362965811011,110.58982968607083L698.7707319308035,108.5066242104573L711.8377286737351,117.33670442073905L725.7137853218006,127.67475429473305L739.6092663448661,130.21212006063772L753.4750326990327,132.6509022826317L767.335191421131,129.53235780357224L781.2190525055803,128.57759387858775L789.7745647228422,137.1683762567958L794.3987221856398,133.15920495052185L799.1665968991815,127.0882511169528L803.9811247991072,129.4020433270875L808.7310782142857,135.37213246542416L813.3766256138393,144.4523756318202L818.061946733631,145.77688254628404L822.72420140811,147.02976152184442L827.5904698307291,150.0724023676521L832.4268501525298,151.8979868751367L837.1842611402532,158.0333393274524L841.935948874628,163.54727632374423L846.6489034802826,165.93927575906804L851.4059097935269,165.08356195979096L856.1366700762647,162.2792333284403L860.8450576413691,158.76389751604057L865.6368659598213,162.15288571199474L870.3750260044643,159.6044648173114L875.091853922991,149.36994637418476L879.8872465011161,144.60378600632902L884.6798641685267,144.9513660085382L889.3282442894345,137.37082397468524L893.9410708668155,138.77886326464954L898.6032099200148,138.24913614060787L903.3198644066221,131.0585725934556L908.1451450855653,118.03878166753466L912.7512656287201,114.35054609735585L917.4736433686757,108.47214059675686L922.5087188597469,109.06873628177128L927.1317201097471,105.76124264297522L931.8098727101933,116.14765030713185L936.4740351357887,121.9213200787438L941.1253635993303,117.13824397096344L945.8293575558035,118.85022522723801L950.6276406659227,123.08467709523842L955.314117998512,118.75262094331138L960.1219976748512,111.57157343989931L964.7469066759672,103.59749388804737L969.3422166294644,94.23121923599336L974.3030632589284,90.90236790523242L979.0809970238095,85.23960605697117L983.778053703497,76.80194720018943L988.4220402157738,73.57207741102272L993.400345658482,72.55051829997389L998.3054050204612,79.26849804164097L1002.9054554464287,92.92110144672199L1007.469085169271,103.86175177712411L1012.1576436848958,123.25523375836875L1016.9672576804315,126.18587014948595L1021.8147954557292,125.19516369680272L1026.6315201599703,131.93164192480214L1031.2914045982145,131.84988987622805L1036.1697554445684,129.05175035973008L1041.196101529018,120.500139377104L1045.9427019270834,99.33281789028939L1050.7337587072172,83.88332360216015L1055.5280528831845,65.90817423165296L1060.1398966796874,55.12308460934866L1064.8564355450148,51.40113223200657L1069.58366937872,59.706139128133266L1074.394670829613,65.60550602826049L1079.2234779575892,83.34875554067342L1083.8265923474703,93.99470524812119L1088.5086760714287,96.7168240227852L1093.2230759430804,100.18282081248597L1098.0633873883928,80.26969947879127L1102.8137454780506,69.23817633233867L1107.4229877957591,59.870187265800546L1112.094492172619,62.496645579251194L1116.9216806026786,64.53072161157773L1121.4951959449404,83.62024765311499L1126.359730048363,80.41214597013163L1131.4255607998512,85.36001223306882L1136.3066287462798,78.70691643075041L1141.029584592634,72.88233342445697L1145.7145588485862,71.6784970811524L1150.3443239434523,80.57801083525044L1155.039877546503,77.21226629007958L1159.7968260491073,69.69464298827006L1164.4371704910714,61.97679278426173L1168.9998752436757,44.058802943284334L1173.6491803348215,29.18438316201097L1178.3377388504464,35.83791136360397L1183.0986762872024,41.66275380946206L1187.970957016369,41.95038305405439L1192.70032984375,67.78114416681657L1197.5114469159228,75.94868562617755L1202.4293402399553,82.22376119981429L1207.2405729334077,63.07971126534316L1212.0418621968006,55.71690718134725L1216.6905313709078,54.04832612699017L1221.4040640829612,53.50535232125794L1226.2169154743303,61.426846008566194L1230.9759451599703,75.34338295414987L1235.5681911495537,79.11147820055722L1240.2092871298362,75.41598394681247L1244.8686512723214,68.61687358230974L1249.5287669531251,64.9955821904903L1254.5108878980657,40.371900012314526L1259.3615474479166,36.135869027940814L1264.1938810249255,40.008802883161856L1269.1491200223213,43.24891285005867L1273.9691977436755,49.31663092425743L1278.658912472098,67.1608911411135L1283.350072466518,71.91108276095093L1288.003135249256,72.470284272382L1292.6662570833332,68.22397825829775L1297.502637405134,58.34529255023792L1302.1463348642114,59.29080839812932L1306.8811418917412,53.44356546101894L1311.6330608686756,50.39342074300871L1316.4301299553572,49.47968356596685L1321.1791005896578,50.30599195776197L1325.745158359375,50.801776992838974L1330.4003601357888,53.390148365669695L1335.066950608259,54.484996362485994L1339.8041278720236,47.8110030609664" style="fill: none;" fill="none"></path></g></g></g></g><g opacity="0.2"><g><g><g><path stroke="rgb(187, 187, 187)" stroke-width="2px" d="M104.05915178571428,439.85455200888896L105.45140542596725,278.3454676541415L106.85152131324405,270.3272770968351L108.14613278273808,248.47552195462313L109.37906029947918,204.8342123898593L110.6415868638393,186.37904912775215L111.91671614769345,130.58182473616168L113.09929059709822,135.16363854841754L114.28961167224702,113.4000065543435L115.48212955171131,66.43633304942739L116.70979630022322,72.16364947232334L118.06054190104166,99.6545323458585L119.35284094494048,98.50909527865322L120.6632925297619,109.96362980929287L122.04745268043155,175.25455856323242L123.45149969122025,189L124.87225397693453,193.58181381225586L126.09188504650297,208.4727250879461L127.37967486049108,198.16362762451172L128.80736642299107,216.49091564525256L130.2118759188988,216.49091564525256L131.55244684709822,209.61819492686877L132.93915066592263,203.89091127569023L134.2260733203125,199.30909746343437L135.59352619605656,161.50908435474742L137.02006154575895,174.10908872430977L138.37820690848216,132.8727316422896L139.65628453497024,142.03635926680133L140.8834309877232,144.32726617292926L142.1651506845238,170.67271197925913L143.52266013020835,183.2727163488215L144.9344537667411,183.2727163488215L146.27415753534225,185.56362325494942L147.59969769717262,170.67271197925913L148.9163928311012,171.81818181818184L150.1741211123512,186.70909309387207L151.37380751116072,161.50908435474742L152.6410167373512,161.50908435474742L153.94724814546132,172.9636516571045L155.28654723958334,171.81818181818184L156.77210725260417,159.21817744861949L162.71006931733632,159.21817744861949L174.2714457552083,153.49089379744098L185.83403621651786,137.45454545454547L197.39651105654764,122.56363417885522L208.9582921688988,112.2545367154208L220.5196686067708,114.54544362154873L232.08254812127979,98.50909527865322L243.6446760974702,98.50909527865322L255.20819152901788,99.6545323458585L266.7688742392113,88.19999781521885L278.33158032180063,64.14545891501685L289.89289894903277,83.61818400296299L301.455142546503,92.78181162747471L313.01877359933036,75.5999934456565L324.57962974144345,79.03637019070713L336.1415842857143,111.10909964821558L347.70382788318454,100.80000218478115L359.2657246168155,111.10909964821558L363.95659555803576,137.45454545454547L368.45917724516374,160.3636472875422L380.02176770647327,130.58182473616168L391.5834331975446,136.3090756156228L403.1454455524553,143.18182910572398L414.70867193080363,117.98182036659937L426.26987493675597,116.83635052767666L437.8320607235863,139.7454523606734L449.39424651041656,126.0000109239058L460.95672135044634,121.41819711164995L472.5193696223959,108.81819274208765L484.08115073474704,99.6545323458585L495.6425849832589,117.98182036659937L507.2044817168898,130.58182473616168L518.7674190420387,129.436354897239L530.3298938820685,138.60001529346812L541.8916749944196,156.92727054249156L553.4525889471726,150.05454982410777L565.015699704241,142.03635926680133L576.5774808165924,135.16363854841754L588.1407071949405,139.7454523606734L599.7016789583332,114.54544362154873L611.2644428515625,123.70910401777788L622.8255302362352,124.85454108498315L634.387947265625,129.436354897239L645.9514626971727,120.2727272727273L657.5130703776042,140.89092219959605L669.0743311941965,151.19998689131305L680.636401359747,139.7454523606734L692.1987027678572,140.89092219959605L703.7614088504465,129.436354897239L715.3232477734375,136.3090756156228L726.8844507793899,116.83635052767666L738.4474459151786,75.5999934456565L750.0094004594495,100.80000218478115L761.5732049441965,101.94543925198643L773.1337720331102,79.03637019070713L784.6960734412203,82.47271416404028L796.25854828125,97.36362543973057L807.8202715829613,93.92728146639736L819.3837870145089,80.18180725791235L830.9441228608631,112.2545367154208L842.506077405134,113.4000065543435L854.0686678664435,126.0000109239058L865.6306224107143,105.38181599703701L877.1944847061012,120.2727272727273L888.7548205524554,117.98182036659937L900.3172953924851,100.80000218478115L911.8797702325149,119.12725743380459L923.4416669661459,137.45454545454547L935.004951155134,126.0000109239058L946.5655760546875,98.50909527865322L958.1281087053572,126.0000109239058L969.6904101134672,127.14544799111108L981.2520756045386,116.83635052767666L992.8156488467262,138.60001529346812L1004.3760425037201,163.79999126087534L1015.9385751543897,154.63636363636363L1027.5003562667412,155.78183347528633L1039.0630045386904,140.89092219959605L1050.625999674479,127.14544799111108L1062.1867401953125,129.436354897239L1073.7495040885417,134.01816870949486L1085.311169579613,131.72726180336693L1096.8731819345237,156.92727054249156L1108.4363505022322,167.23636800592598L1119.997437886905,147.76364291797984L1131.5598549162949,126.0000109239058L1143.1214625967261,82.47271416404028L1154.683821815476,73.30908653952856L1166.2469325725447,46.96364073319868L1177.8083090104167,63.00002184781162L1189.3712463355653,83.61818400296299L1200.9331430691966,130.58182473616168L1212.495213234747,122.56363417885522L1224.0576880747767,123.70910401777788L1235.618891080729,114.54544362154873L1247.1807300037203,111.10909964821558L1258.7429736011904,123.70910401777788L1270.3052171986608,162.65455419367012L1281.868848251488,163.79999126087534L1293.4292997191221,177.54546546936035L1304.9916011272321,194.7272836511785L1316.553497860863,194.7272836511785L1328.1162039434525,167.23636800592598L1339.6790256473214,153.49089379744098" style="fill: none;" fill="none"></path></g><g><path stroke="rgb(0, 153, 136)" stroke-width="2px" d="M104.05915178571428,398.6181785410101L108.57040506882441,316.14544799111104L113.08038651785714,286.3636254397306L117.76281710565478,273.14685734835535L122.43304964843749,243.29454283280805L126.98552191778275,234.818170894276L131.48804579427082,190.14546983892265L136.08913681175594,184.41818618774414L140.78844810639882,151.19998689131305L145.38953912388394,148.90907998518512L150.06931042224704,156.92727054249156L154.9348851171875,148.90907998518512L159.55800198846728,147.76364291797984L164.1678802232143,139.7454523606734L168.73237710565476,144.32726617292926L173.4215137276786,144.32726617292926L178.08746828311013,151.19998689131305L182.64335138020834,143.18182910572398L187.12830082217263,123.70910401777788L191.89334281436015,96.21818837252529L196.6684438578869,82.47271416404028L201.42122999441966,50.40001747824927L206.2246582514881,97.36362543973057L210.9388268805803,129.436354897239L216.01130585565474,154.63636363636363L220.96671828497026,178.69090253656563L225.77494482514882,189L230.43864476562496,195.8727207183838L235.36833146019342,192.43637674505058L240.15487901041664,195.8727207183838L244.70764033296135,191.29090690612793L249.64501584263388,162.65455419367012L254.501572077753,136.3090756156228L259.35067074032736,109.96362980929287L264.1805184598214,120.2727272727273L268.8282048530506,135.16363854841754L273.63209559523807,156.92727054249156L278.48610816220236,167.23636800592598L283.09037876488094,169.5272749120539L287.7139003106399,162.65455419367012L292.59439015066965,132.8727316422896L304.1137960639881,64.14545891501685L317.99233856956846,79.03637019070713L331.86718119419646,87.05456074801357L345.74052074218747,85.90909090909092L359.60946668154764,52.69089161265981L365.9599654724702,84.76362107016821L370.60250671875,60.70908216996626L375.2679987890625,65.29089598222212L380.0186459319196,63.00002184781162L384.70847628162204,144.32726617292926L389.36737793898806,172.9636516571045L394.2309292615327,202.74544143676758L398.7847311755952,172.9636516571045L403.61729599516366,189L408.291633093378,159.21817744861949L412.90081760044643,135.16363854841754L417.6205938616071,127.14544799111108L422.301001077009,140.89092219959605L426.98649562872026,130.58182473616168L431.8560014471726,148.90907998518512L436.5129953534227,193.58181381225586L441.54020859747027,184.41818618774414L446.2232751023065,116.83635052767666L450.8293378348214,82.47271416404028L455.39192696614583,69.87274256619541L460.0346416443452,59.56364510276099L464.7570771949405,37.80001310868696L469.50252138020835,106.52728583595972L474.20472320684524,142.03635926680133L479.07330405505957,140.89092219959605L483.8138921465774,137.45454545454547L488.6739170200893,112.2545367154208L493.5792654352678,121.41819711164995L498.6698969512648,83.61818400296299L503.80434893229165,85.90909090909092L508.67194699962795,90.49090472134678L513.5679879017857,98.50909527865322L518.3286362853422,96.21818837252529L523.3341127287947,122.56363417885522L528.4459607496281,136.3090756156228L533.3103792317709,106.52728583595972L538.2502405989584,121.41819711164995L542.9664904110863,106.52728583595972L547.7004880896577,88.19999781521885L552.4497477771578,65.29089598222212L557.1918967559525,81.32727709683506L561.8239742764138,83.61818400296299L566.5761244959077,91.63637456026943L571.3265982068452,90.49090472134678L576.115342561384,90.49090472134678L580.8715395256696,95.07271853360264L585.6619603887648,101.94543925198643L590.6329816908482,107.67272290316494L595.403226640625,106.52728583595972L600.3478284802827,146.6181730790572L605.0536723772321,121.41819711164995L609.6063180784971,126.0000109239058L614.4679616499255,123.70910401777788L619.1768695107887,127.14544799111108L623.8072705226936,119.12725743380459L628.502361640625,117.98182036659937L633.1259988076638,128.29091783003375L637.6839630877976,112.2545367154208L642.1943492113095,95.07271853360264L647.2349745238096,106.52728583595972L651.9966634988839,112.2545367154208L656.5409266573661,106.52728583595972L661.0468613616071,135.16363854841754L665.7924789787946,152.3454567302357L670.6595567503721,159.21817744861949L675.3949418843007,153.49089379744098L680.1642618638393,130.58182473616168L685.0363113504463,100.80000218478115L689.6733605859374,101.94543925198643L694.2362965811011,103.09090909090908L698.7707319308035,105.38181599703701L711.8377286737351,130.58182473616168L725.7137853218006,143.18182910572398L739.6092663448661,134.01816870949486L753.4750326990327,136.3090756156228L767.335191421131,124.85454108498315L781.2190525055803,127.14544799111108L789.7745647228422,150.05454982410777L794.3987221856398,127.14544799111108L799.1665968991815,117.98182036659937L803.9811247991072,132.8727316422896L808.7310782142857,144.32726617292926L813.3766256138393,158.07274038141426L818.061946733631,147.76364291797984L822.72420140811,148.90907998518512L827.5904698307291,154.63636363636363L832.4268501525298,154.63636363636363L837.1842611402532,167.23636800592598L841.935948874628,171.81818181818184L846.6489034802826,169.5272749120539L851.4059097935269,163.79999126087534L856.1366700762647,158.07274038141426L860.8450576413691,153.49089379744098L865.6368659598213,167.23636800592598L870.3750260044643,155.78183347528633L875.091853922991,134.01816870949486L879.8872465011161,137.45454545454547L884.6798641685267,145.4727360118519L889.3282442894345,126.0000109239058L893.9410708668155,140.89092219959605L898.6032099200148,137.45454545454547L903.3198644066221,120.2727272727273L908.1451450855653,98.50909527865322L912.7512656287201,108.81819274208765L917.4736433686757,99.6545323458585L922.5087188597469,109.96362980929287L927.1317201097471,100.80000218478115L931.8098727101933,131.72726180336693L936.4740351357887,130.58182473616168L941.1253635993303,109.96362980929287L945.8293575558035,121.41819711164995L950.6276406659227,129.436354897239L955.314117998512,112.2545367154208L960.1219976748512,100.80000218478115L964.7469066759672,91.63637456026943L969.3422166294644,80.18180725791235L974.3030632589284,85.90909090909092L979.0809970238095,76.7454632845792L983.778053703497,64.14545891501685L988.4220402157738,68.7272727272727L993.400345658482,71.01817963340063L998.3054050204612,89.3454676541415L1002.9054554464287,113.4000065543435L1007.469085169271,120.2727272727273L1012.1576436848958,152.3454567302357L1016.9672576804315,130.58182473616168L1021.8147954557292,123.70910401777788L1026.6315201599703,142.03635926680133L1031.2914045982145,131.72726180336693L1036.1697554445684,124.85454108498315L1041.196101529018,107.67272290316494L1045.9427019270834,67.58183566006748L1050.7337587072172,60.70908216996626L1055.5280528831845,38.94545017589223L1060.1398966796874,38.94545017589223L1064.8564355450148,45.81820366599341L1069.58366937872,72.16364947232334L1074.394670829613,74.45455637845127L1079.2234779575892,109.96362980929287L1083.8265923474703,109.96362980929287L1088.5086760714287,100.80000218478115L1093.2230759430804,105.38181599703701L1098.0633873883928,50.40001747824927L1102.8137454780506,52.69089161265981L1107.4229877957591,45.81820366599341L1112.094492172619,66.43633304942739L1116.9216806026786,67.58183566006748L1121.4951959449404,112.2545367154208L1126.359730048363,75.5999934456565L1131.4255607998512,92.78181162747471L1136.3066287462798,68.7272727272727L1141.029584592634,64.14545891501685L1145.7145588485862,69.87274256619541L1150.3443239434523,93.92728146639736L1155.039877546503,72.16364947232334L1159.7968260491073,58.41820803555576L1164.4371704910714,50.40001747824927L1168.9998752436757,17.181818181818166L1173.6491803348215,6.872753490101219L1178.3377388504464,45.81820366599341L1183.0986762872024,50.40001747824927L1187.970957016369,42.38182692094282L1192.70032984375,106.52728583595972L1197.5114469159228,88.19999781521885L1202.4293402399553,91.63637456026943L1207.2405729334077,34.363636363636374L1212.0418621968006,44.67270105535332L1216.6905313709078,51.54545454545454L1221.4040640829612,52.69089161265981L1226.2169154743303,73.30908653952856L1230.9759451599703,96.21818837252529L1235.5681911495537,84.76362107016821L1240.2092871298362,69.87274256619541L1244.8686512723214,58.41820803555576L1249.5287669531251,59.56364510276099L1254.5108878980657,3.4363767450505884L1259.3615474479166,29.781822551380515L1264.1938810249255,45.81820366599341L1269.1491200223213,48.10907780040395L1273.9691977436755,58.41820803555576L1278.658912472098,93.92728146639736L1283.350072466518,79.03637019070713L1288.003135249256,73.30908653952856L1292.6662570833332,61.85451923717153L1297.502637405134,43.52726398814809L1302.1463348642114,60.70908216996626L1306.8811418917412,44.67270105535332L1311.6330608686756,45.81820366599341L1316.4301299553572,48.10907780040395L1321.1791005896578,51.54545454545454L1325.745158359375,51.54545454545454L1330.4003601357888,57.27270542491567L1335.066950608259,56.1272683577104L1339.8041278720236,37.80001310868696" style="fill: none;" fill="none"></path></g></g></g></g></g></g><g transform="translate(41, 378)" clip-path="url(#clip_1)"><clipPath id="clip_1"><rect width="1456" height="22"></rect></clipPath><g><g><line x1="0" y1="0" x2="0" y2="5" style="visibility: inherit;" fill="rgb(0, 0, 0)" stroke="rgb(204, 204, 204)" stroke-width="1px"></line><line x1="104.05915178571428" y1="0" x2="104.05915178571428" y2="5" style="visibility: inherit;" fill="rgb(0, 0, 0)" stroke="rgb(204, 204, 204)" stroke-width="1px"></line><line x1="208.11830357142856" y1="0" x2="208.11830357142856" y2="5" style="visibility: inherit;" fill="rgb(0, 0, 0)" stroke="rgb(204, 204, 204)" stroke-width="1px"></line><line x1="312.17745535714283" y1="0" x2="312.17745535714283" y2="5" style="visibility: inherit;" fill="rgb(0, 0, 0)" stroke="rgb(204, 204, 204)" stroke-width="1px"></line><line x1="416.2366071428571" y1="0" x2="416.2366071428571" y2="5" style="visibility: inherit;" fill="rgb(0, 0, 0)" stroke="rgb(204, 204, 204)" stroke-width="1px"></line><line x1="520.2957589285714" y1="0" x2="520.2957589285714" y2="5" style="visibility: inherit;" fill="rgb(0, 0, 0)" stroke="rgb(204, 204, 204)" stroke-width="1px"></line><line x1="624.3549107142857" y1="0" x2="624.3549107142857" y2="5" style="visibility: inherit;" fill="rgb(0, 0, 0)" stroke="rgb(204, 204, 204)" stroke-width="1px"></line><line x1="728.4140625" y1="0" x2="728.4140625" y2="5" style="visibility: inherit;" fill="rgb(0, 0, 0)" stroke="rgb(204, 204, 204)" stroke-width="1px"></line><line x1="832.4732142857142" y1="0" x2="832.4732142857142" y2="5" style="visibility: inherit;" fill="rgb(0, 0, 0)" stroke="rgb(204, 204, 204)" stroke-width="1px"></line><line x1="936.5323660714287" y1="0" x2="936.5323660714287" y2="5" style="visibility: inherit;" fill="rgb(0, 0, 0)" stroke="rgb(204, 204, 204)" stroke-width="1px"></line><line x1="1040.591517857143" y1="0" x2="1040.591517857143" y2="5" style="visibility: inherit;" fill="rgb(0, 0, 0)" stroke="rgb(204, 204, 204)" stroke-width="1px"></line><line x1="1144.650669642857" y1="0" x2="1144.650669642857" y2="5" style="visibility: inherit;" fill="rgb(0, 0, 0)" stroke="rgb(204, 204, 204)" stroke-width="1px"></line><line x1="1248.7098214285713" y1="0" x2="1248.7098214285713" y2="5" style="visibility: inherit;" fill="rgb(0, 0, 0)" stroke="rgb(204, 204, 204)" stroke-width="1px"></line><line x1="1352.7689732142858" y1="0" x2="1352.7689732142858" y2="5" style="visibility: inherit;" fill="rgb(0, 0, 0)" stroke="rgb(204, 204, 204)" stroke-width="1px"></line><line x1="1456.828125" y1="0" x2="1456.828125" y2="5" style="visibility: inherit;" fill="rgb(0, 0, 0)" stroke="rgb(204, 204, 204)" stroke-width="1px"></line></g><g transform="translate(0, 8)"><text x="0" y="0" dx="0em" dy="0.95em" style="text-anchor: middle; visibility: hidden; font-family: Roboto, sans-serif; font-size: 12px; font-weight: 200;" fill="rgb(50, 49, 63)" stroke="none" stroke-width="1px">-0.5</text><text x="104.05915178571428" y="0" dx="0em" dy="0.95em" style="text-anchor: middle; visibility: inherit; font-family: Roboto, sans-serif; font-size: 12px; font-weight: 200;" fill="rgb(50, 49, 63)" stroke="none" stroke-width="1px">0</text><text x="208.11830357142856" y="0" dx="0em" dy="0.95em" style="text-anchor: middle; visibility: inherit; font-family: Roboto, sans-serif; font-size: 12px; font-weight: 200;" fill="rgb(50, 49, 63)" stroke="none" stroke-width="1px">0.5</text><text x="312.17745535714283" y="0" dx="0em" dy="0.95em" style="text-anchor: middle; visibility: inherit; font-family: Roboto, sans-serif; font-size: 12px; font-weight: 200;" fill="rgb(50, 49, 63)" stroke="none" stroke-width="1px">1</text><text x="416.2366071428571" y="0" dx="0em" dy="0.95em" style="text-anchor: middle; visibility: inherit; font-family: Roboto, sans-serif; font-size: 12px; font-weight: 200;" fill="rgb(50, 49, 63)" stroke="none" stroke-width="1px">1.5</text><text x="520.2957589285714" y="0" dx="0em" dy="0.95em" style="text-anchor: middle; visibility: inherit; font-family: Roboto, sans-serif; font-size: 12px; font-weight: 200;" fill="rgb(50, 49, 63)" stroke="none" stroke-width="1px">2</text><text x="624.3549107142857" y="0" dx="0em" dy="0.95em" style="text-anchor: middle; visibility: inherit; font-family: Roboto, sans-serif; font-size: 12px; font-weight: 200;" fill="rgb(50, 49, 63)" stroke="none" stroke-width="1px">2.5</text><text x="728.4140625" y="0" dx="0em" dy="0.95em" style="text-anchor: middle; visibility: inherit; font-family: Roboto, sans-serif; font-size: 12px; font-weight: 200;" fill="rgb(50, 49, 63)" stroke="none" stroke-width="1px">3</text><text x="832.4732142857142" y="0" dx="0em" dy="0.95em" style="text-anchor: middle; visibility: inherit; font-family: Roboto, sans-serif; font-size: 12px; font-weight: 200;" fill="rgb(50, 49, 63)" stroke="none" stroke-width="1px">3.5</text><text x="936.5323660714287" y="0" dx="0em" dy="0.95em" style="text-anchor: middle; visibility: inherit; font-family: Roboto, sans-serif; font-size: 12px; font-weight: 200;" fill="rgb(50, 49, 63)" stroke="none" stroke-width="1px">4</text><text x="1040.591517857143" y="0" dx="0em" dy="0.95em" style="text-anchor: middle; visibility: inherit; font-family: Roboto, sans-serif; font-size: 12px; font-weight: 200;" fill="rgb(50, 49, 63)" stroke="none" stroke-width="1px">4.5</text><text x="1144.650669642857" y="0" dx="0em" dy="0.95em" style="text-anchor: middle; visibility: inherit; font-family: Roboto, sans-serif; font-size: 12px; font-weight: 200;" fill="rgb(50, 49, 63)" stroke="none" stroke-width="1px">5</text><text x="1248.7098214285713" y="0" dx="0em" dy="0.95em" style="text-anchor: middle; visibility: inherit; font-family: Roboto, sans-serif; font-size: 12px; font-weight: 200;" fill="rgb(50, 49, 63)" stroke="none" stroke-width="1px">5.5</text><text x="1352.7689732142858" y="0" dx="0em" dy="0.95em" style="text-anchor: middle; visibility: inherit; font-family: Roboto, sans-serif; font-size: 12px; font-weight: 200;" fill="rgb(50, 49, 63)" stroke="none" stroke-width="1px">6</text><text x="1456.828125" y="0" dx="0em" dy="0.95em" style="text-anchor: middle; visibility: hidden; font-family: Roboto, sans-serif; font-size: 12px; font-weight: 200;" fill="rgb(50, 49, 63)" stroke="none" stroke-width="1px">6.5</text></g><line x1="0" y1="0" x2="1456.828125" y2="0" fill="rgb(0, 0, 0)" stroke="rgb(204, 204, 204)" stroke-width="1px"></line></g></g></g></g></svg>