<svg viewBox="0 0 1498 400" xmlns="http://www.w3.org/2000/svg"><g><g><g><g><g><line x1="41.171875" y1="378" x2="36.171875" y2="378" style="visibility: inherit;" fill="rgb(0, 0, 0)" stroke="rgb(204, 204, 204)" stroke-width="1px"></line><line x1="41.171875" y1="340.2" x2="36.171875" y2="340.2" style="visibility: inherit;" fill="rgb(0, 0, 0)" stroke="rgb(204, 204, 204)" stroke-width="1px"></line><line x1="41.171875" y1="302.40000000000003" x2="36.171875" y2="302.40000000000003" style="visibility: inherit;" fill="rgb(0, 0, 0)" stroke="rgb(204, 204, 204)" stroke-width="1px"></line><line x1="41.171875" y1="264.59999999999997" x2="36.171875" y2="264.59999999999997" style="visibility: inherit;" fill="rgb(0, 0, 0)" stroke="rgb(204, 204, 204)" stroke-width="1px"></line><line x1="41.171875" y1="226.79999999999998" x2="36.171875" y2="226.79999999999998" style="visibility: inherit;" fill="rgb(0, 0, 0)" stroke="rgb(204, 204, 204)" stroke-width="1px"></line><line x1="41.171875" y1="189" x2="36.171875" y2="189" style="visibility: inherit;" fill="rgb(0, 0, 0)" stroke="rgb(204, 204, 204)" stroke-width="1px"></line><line x1="41.171875" y1="151.20000000000002" x2="36.171875" y2="151.20000000000002" style="visibility: inherit;" fill="rgb(0, 0, 0)" stroke="rgb(204, 204, 204)" stroke-width="1px"></line><line x1="41.171875" y1="113.40000000000002" x2="36.171875" y2="113.40000000000002" style="visibility: inherit;" fill="rgb(0, 0, 0)" stroke="rgb(204, 204, 204)" stroke-width="1px"></line><line x1="41.171875" y1="75.59999999999998" x2="36.171875" y2="75.59999999999998" style="visibility: inherit;" fill="rgb(0, 0, 0)" stroke="rgb(204, 204, 204)" stroke-width="1px"></line><line x1="41.171875" y1="37.79999999999999" x2="36.171875" y2="37.79999999999999" style="visibility: inherit;" fill="rgb(0, 0, 0)" stroke="rgb(204, 204, 204)" stroke-width="1px"></line><line x1="41.171875" y1="0" x2="36.171875" y2="0" style="visibility: inherit;" fill="rgb(0, 0, 0)" stroke="rgb(204, 204, 204)" stroke-width="1px"></line></g><g transform="translate(31.171875, 0)"><text x="0" y="378" dx="0em" dy="0.3em" style="text-anchor: end; visibility: hidden; font-family: Roboto, sans-serif; font-size: 12px; font-weight: 200;" fill="rgb(50, 49, 63)" stroke="none" stroke-width="1px">3</text><text x="0" y="340.2" dx="0em" dy="0.3em" style="text-anchor: end; visibility: inherit; font-family: Roboto, sans-serif; font-size: 12px; font-weight: 200;" fill="rgb(50, 49, 63)" stroke="none" stroke-width="1px">3.5</text><text x="0" y="302.40000000000003" dx="0em" dy="0.3em" style="text-anchor: end; visibility: inherit; font-family: Roboto, sans-serif; font-size: 12px; font-weight: 200;" fill="rgb(50, 49, 63)" stroke="none" stroke-width="1px">4</text><text x="0" y="264.59999999999997" dx="0em" dy="0.3em" style="text-anchor: end; visibility: inherit; font-family: Roboto, sans-serif; font-size: 12px; font-weight: 200;" fill="rgb(50, 49, 63)" stroke="none" stroke-width="1px">4.5</text><text x="0" y="226.79999999999998" dx="0em" dy="0.3em" style="text-anchor: end; visibility: inherit; font-family: Roboto, sans-serif; font-size: 12px; font-weight: 200;" fill="rgb(50, 49, 63)" stroke="none" stroke-width="1px">5</text><text x="0" y="189" dx="0em" dy="0.3em" style="text-anchor: end; visibility: inherit; font-family: Roboto, sans-serif; font-size: 12px; font-weight: 200;" fill="rgb(50, 49, 63)" stroke="none" stroke-width="1px">5.5</text><text x="0" y="151.20000000000002" dx="0em" dy="0.3em" style="text-anchor: end; visibility: inherit; font-family: Roboto, sans-serif; font-size: 12px; font-weight: 200;" fill="rgb(50, 49, 63)" stroke="none" stroke-width="1px">6</text><text x="0" y="113.40000000000002" dx="0em" dy="0.3em" style="text-anchor: end; visibility: inherit; font-family: Roboto, sans-serif; font-size: 12px; font-weight: 200;" fill="rgb(50, 49, 63)" stroke="none" stroke-width="1px">6.5</text><text x="0" y="75.59999999999998" dx="0em" dy="0.3em" style="text-anchor: end; visibility: inherit; font-family: Roboto, sans-serif; font-size: 12px; font-weight: 200;" fill="rgb(50, 49, 63)" stroke="none" stroke-width="1px">7</text><text x="0" y="37.79999999999999" dx="0em" dy="0.3em" style="text-anchor: end; visibility: inherit; font-family: Roboto, sans-serif; font-size: 12px; font-weight: 200;" fill="rgb(50, 49, 63)" stroke="none" stroke-width="1px">7.5</text><text x="0" y="0" dx="0em" dy="0.3em" style="text-anchor: end; visibility: hidden; font-family: Roboto, sans-serif; font-size: 12px; font-weight: 200;" fill="rgb(50, 49, 63)" stroke="none" stroke-width="1px">8</text></g><line x1="41.171875" y1="0" x2="41.171875" y2="378" fill="rgb(0, 0, 0)" stroke="rgb(204, 204, 204)" stroke-width="1px"></line></g></g><g transform="translate(41, 0)" clip-path="url(#clip_0)"><clipPath id="clip_0"><rect width="1456" height="378"></rect></clipPath><g><g><g><line x1="0" y1="0" x2="0" y2="378" fill="rgb(0, 0, 0)" stroke="rgb(60, 60, 60)" stroke-width="1px" opacity="0.25"></line><line x1="104.05915178571428" y1="0" x2="104.05915178571428" y2="378" fill="rgb(0, 0, 0)" stroke="rgb(60, 60, 60)" stroke-width="1px" opacity="0.25"></line><line x1="208.11830357142856" y1="0" x2="208.11830357142856" y2="378" fill="rgb(0, 0, 0)" stroke="rgb(60, 60, 60)" stroke-width="1px" opacity="0.25"></line><line x1="312.17745535714283" y1="0" x2="312.17745535714283" y2="378" fill="rgb(0, 0, 0)" stroke="rgb(60, 60, 60)" stroke-width="1px" opacity="0.25"></line><line x1="416.2366071428571" y1="0" x2="416.2366071428571" y2="378" fill="rgb(0, 0, 0)" stroke="rgb(60, 60, 60)" stroke-width="1px" opacity="0.25"></line><line x1="520.2957589285714" y1="0" x2="520.2957589285714" y2="378" fill="rgb(0, 0, 0)" stroke="rgb(60, 60, 60)" stroke-width="1px" opacity="0.25"></line><line x1="624.3549107142857" y1="0" x2="624.3549107142857" y2="378" fill="rgb(0, 0, 0)" stroke="rgb(60, 60, 60)" stroke-width="1px" opacity="0.25"></line><line x1="728.4140625" y1="0" x2="728.4140625" y2="378" fill="rgb(0, 0, 0)" stroke="rgb(60, 60, 60)" stroke-width="1px" opacity="0.25"></line><line x1="832.4732142857142" y1="0" x2="832.4732142857142" y2="378" fill="rgb(0, 0, 0)" stroke="rgb(60, 60, 60)" stroke-width="1px" opacity="0.25"></line><line x1="936.5323660714287" y1="0" x2="936.5323660714287" y2="378" fill="rgb(0, 0, 0)" stroke="rgb(60, 60, 60)" stroke-width="1px" opacity="0.25"></line><line x1="1040.591517857143" y1="0" x2="1040.591517857143" y2="378" fill="rgb(0, 0, 0)" stroke="rgb(60, 60, 60)" stroke-width="1px" opacity="0.25"></line><line x1="1144.650669642857" y1="0" x2="1144.650669642857" y2="378" fill="rgb(0, 0, 0)" stroke="rgb(60, 60, 60)" stroke-width="1px" opacity="0.25"></line><line x1="1248.7098214285713" y1="0" x2="1248.7098214285713" y2="378" fill="rgb(0, 0, 0)" stroke="rgb(60, 60, 60)" stroke-width="1px" opacity="0.25"></line><line x1="1352.7689732142858" y1="0" x2="1352.7689732142858" y2="378" fill="rgb(0, 0, 0)" stroke="rgb(60, 60, 60)" stroke-width="1px" opacity="0.25"></line><line x1="1456.828125" y1="0" x2="1456.828125" y2="378" fill="rgb(0, 0, 0)" stroke="rgb(60, 60, 60)" stroke-width="1px" opacity="0.25"></line></g><g><line x1="0" y1="378" x2="1456.828125" y2="378" fill="rgb(0, 0, 0)" stroke="rgb(60, 60, 60)" stroke-width="1px" opacity="0.25"></line><line x1="0" y1="340.2" x2="1456.828125" y2="340.2" fill="rgb(0, 0, 0)" stroke="rgb(60, 60, 60)" stroke-width="1px" opacity="0.25"></line><line x1="0" y1="302.40000000000003" x2="1456.828125" y2="302.40000000000003" fill="rgb(0, 0, 0)" stroke="rgb(60, 60, 60)" stroke-width="1px" opacity="0.25"></line><line x1="0" y1="264.59999999999997" x2="1456.828125" y2="264.59999999999997" fill="rgb(0, 0, 0)" stroke="rgb(60, 60, 60)" stroke-width="1px" opacity="0.25"></line><line x1="0" y1="226.79999999999998" x2="1456.828125" y2="226.79999999999998" fill="rgb(0, 0, 0)" stroke="rgb(60, 60, 60)" stroke-width="1px" opacity="0.25"></line><line x1="0" y1="189" x2="1456.828125" y2="189" fill="rgb(0, 0, 0)" stroke="rgb(60, 60, 60)" stroke-width="1px" opacity="0.25"></line><line x1="0" y1="151.20000000000002" x2="1456.828125" y2="151.20000000000002" fill="rgb(0, 0, 0)" stroke="rgb(60, 60, 60)" stroke-width="1px" opacity="0.25"></line><line x1="0" y1="113.40000000000002" x2="1456.828125" y2="113.40000000000002" fill="rgb(0, 0, 0)" stroke="rgb(60, 60, 60)" stroke-width="1px" opacity="0.25"></line><line x1="0" y1="75.59999999999998" x2="1456.828125" y2="75.59999999999998" fill="rgb(0, 0, 0)" stroke="rgb(60, 60, 60)" stroke-width="1px" opacity="0.25"></line><line x1="0" y1="37.79999999999999" x2="1456.828125" y2="37.79999999999999" fill="rgb(0, 0, 0)" stroke="rgb(60, 60, 60)" stroke-width="1px" opacity="0.25"></line><line x1="0" y1="0" x2="1456.828125" y2="0" fill="rgb(0, 0, 0)" stroke="rgb(60, 60, 60)" stroke-width="1px" opacity="0.25"></line></g></g></g><g><g><line x1="0" y1="604.8000000000001" x2="1456.828125" y2="604.8000000000001" fill="rgb(0, 0, 0)" stroke="rgb(153, 153, 153)" stroke-width="1.5px"></line></g></g><g><g><line x1="104.05915178571428" y1="0" x2="104.05915178571428" y2="378" fill="rgb(0, 0, 0)" stroke="rgb(153, 153, 153)" stroke-width="1.5px"></line></g></g><g><g><g><g><g><path stroke="rgb(187, 187, 187)" stroke-width="2px" d="M104.05915178571428,377.99999999999994L105.45140542596725,330.74999999999994L106.85152131324405,316.2857142857143L108.14619059337797,275.16176470588243L109.37906029947918,254.18598195697433L110.64164467447918,242.69548872180454L111.91671614769345,205.04327214306412L113.09929059709822,183.13803949341778L114.28961167224702,170.23276829612678L115.48212955171131,162.57334738840962L116.70979630022322,158.0074434680429L118.06059971168155,155.27852582109543L119.35284094494048,153.64498197101847L120.6632925297619,152.66622218568685L122.04745268043155,152.07945742343145L123.45149969122025,151.7275751842117L124.87225397693453,151.51650938413786L126.09188504650297,166.51142851381974L127.37967486049108,160.38648387882478L128.80736642299107,186.95286163615742L130.21193372953869,172.65140325130787L131.55244684709822,164.07072901048824L132.93915066592263,158.92239674835716L134.2260733203125,170.95349505694597L135.59352619605656,163.05207457020148L137.0201193563988,188.55128823912034L138.37820690848216,203.85078860236337L139.6563423456101,213.03047879861276L140.8834309877232,218.53828930855647L142.1651506845238,221.8429743157135L143.52266013020835,223.8257848524367L144.9344537667411,225.01547100614513L146.27421534598216,225.72928263777294L147.59969769717262,195.917568728523L148.9163928311012,193.15054118954666L150.1741211123512,176.37032454064968L151.3738653218006,166.30219466208158L152.64107454799108,160.261316774818L153.94724814546132,156.63679005681564L155.28654723958334,154.46207403118234L156.77210725260417,153.15724441766278L162.71012712797616,152.3743466502209L174.2714457552083,151.90460798999683L185.83409402715776,151.62276479394927L197.39651105654764,151.45365887635194L208.9582921688988,151.35219532580484L220.5196686067708,151.29131719548067L232.08254812127979,151.25479031728753L243.6446760974702,151.23287419037223L255.20824933965775,151.2197245142232L266.7689320498512,136.09183470846062L278.33163813244045,111.89510082500595L289.89289894903277,97.37706049497821L301.455142546503,88.66623629697774L313.01877359933036,83.43974177818343L324.57962974144345,80.30384506690879L336.1416420963542,78.42230704014483L347.7038856938244,77.29338422408671L359.2657246168155,76.61603053445204L363.95659555803576,91.32961832067194L368.45917724516374,115.27777099240382L380.0218255171131,129.64666259544254L391.5834331975446,138.2679975572656L403.1454455524553,143.44079853435943L414.70867193080363,146.54447912061562L426.26987493675597,148.40668747236933L437.8320607235863,149.52401248342161L449.39424651041656,150.194407490053L460.95672135044634,150.5966444940318L472.5193696223959,135.71798669641908L484.08115073474704,141.9107920178514L495.64264279389886,145.62647521071082L507.2045395275298,147.85588512642644L518.7674768526787,149.1935310758559L530.3298938820685,149.99611864551355L541.8916749944196,150.47767118730815L553.4525889471726,150.76660271238487L565.015699704241,150.939961627431L576.5774808165924,151.04397697645854L588.1407071949405,151.10638618587504L599.7016789583332,151.143831711525L611.2644428515625,151.16629902691506L622.8255302362352,151.179779416149L634.387947265625,151.1878676496893L645.9514626971727,151.19272058981363L657.5130703776042,151.1956323538882L669.0743890048363,151.19737941233285L680.636401359747,151.1984276473997L692.1987027678572,151.19905658843984L703.7614088504465,151.1994339530639L715.3232477734375,151.19966037183835L726.8844507793899,136.079796223103L738.4475037258185,111.88787773386174L750.0094004594495,97.37272664031705L761.5732049441965,88.6636359841902L773.1337720331102,83.43818159051416L784.6960734412203,80.30290895430852L796.25854828125,78.42174537258512L807.8202715829613,77.29304722355108L819.3837870145089,76.61582833413065L830.944180671503,76.2094970004784L842.506077405134,75.965698200287L854.0686678664435,106.05941892017219L865.6306224107143,108.99565135210332L877.1945425167411,125.87739081126198L888.7548783630955,136.00643448675723L900.3172953924851,142.08386069205432L911.8798280431547,145.7303164152326L923.4416669661459,147.91818984913954L935.004951155134,149.23091390948375L946.5655760546875,150.01854834569025L958.1281087053572,150.49112900741417L969.6904101134672,150.7746774044485L981.2520756045386,150.9448064426691L992.8156488467262,151.04688386560147L1004.3761003143601,151.10813031936087L1015.9386329650297,151.1448781916165L1027.5003562667412,151.16692691496988L1039.0630045386904,151.1801561489819L1050.625999674479,151.18809368938915L1062.1867401953125,151.19285621363355L1073.7495040885417,151.19571372818007L1085.311227390253,151.19742823690802L1096.8732397451636,151.1984569421448L1108.4363505022322,151.19907416528685L1119.997437886905,151.1994444991721L1131.5599127269347,151.19966669950324L1143.1214625967261,151.1998000197019L1154.683821815476,151.1998800118212L1166.2469325725447,120.95992800709273L1177.8083090104167,102.81595680425563L1189.3712463355653,122.16957408255335L1200.9331430691966,118.66174444953202L1212.495213234747,116.55704666971923L1224.0576880747767,130.41422800183153L1235.618948891369,123.6085368010989L1247.1807300037203,104.40512208065937L1258.7429736011904,123.1230732483956L1270.3052171986608,134.3538439490374L1281.868906062128,141.09230636942246L1293.4292997191221,145.13538382165348L1304.9916011272321,147.56123029299206L1316.5535556715029,149.01673817579524L1328.1162039434525,149.8900429054771L1339.6790256473214,150.41402574328626" style="fill: none;" fill="none"></path></g><g><path stroke="rgb(0, 153, 136)" stroke-width="2px" d="M104.05915178571428,377.99999999999994L108.57040506882441,330.74999999999994L113.08038651785714,277.71428571428567L117.76281710565478,254.31617647058826L122.43304964843749,242.381679389313L126.98552191778275,235.84398496240598L131.48804579427082,201.01129869103744L136.08913681175594,180.74640684885847L140.78844810639882,168.8075277148215L145.38953912388394,161.72167116396133L150.06931042224704,157.49767817617146L154.9348851171875,154.97311147349836L159.55800198846728,153.46189312805888L164.1678802232143,152.55642631533635L168.73243491629464,152.01360056068268L173.4215137276786,151.68806850023753L178.08746828311013,151.49280804907085L182.64335138020834,151.3756729332052L187.12830082217263,151.30539947774164L191.893400625,151.26323814515987L196.6684438578869,120.99727894424284L201.42122999441966,102.8381283527116L206.22471606212795,91.94279096785479L210.9388268805803,100.5257152498811L216.01130585565474,120.79548677747292L220.96671828497026,132.9573128123368L225.77494482514882,140.25439515589554L230.43870257626486,174.8726583524127L235.36833146019342,195.6436026646378L240.15493682105654,177.8661576686532L244.7076981436012,167.19969318634557L249.64507365327378,160.79981540246285L254.5016298883928,156.95988905811362L259.35072855096723,139.53593293565126L264.1805184598214,144.20155984159618L268.8282626636905,147.0009359338316L273.63209559523807,178.9205617578385L278.48610816220236,198.07233712581737L283.0904365755208,209.56340230109157L287.7139003106399,201.3380413696596L292.59439015066965,181.28282480571053L304.1137960639881,139.00969486308318L317.99239638020833,113.64581691052636L331.86718119419646,128.66749014891812L345.74052074218747,137.68049409028782L359.6095244921875,143.0882964545099L365.9600232831101,146.3329778728273L370.60250671875,148.27978672374013L375.2679987890625,149.44787203425977L380.0187037425595,150.1487232205615L384.70847628162204,150.569233932339L389.367435749628,150.82154035940414L394.23098707217264,181.21292421569555L398.7847311755952,169.20775452940475L403.6173538058036,162.00465271763832L408.291633093378,157.6827916305814L412.90081760044643,155.08967497834828L417.6205938616071,153.53380498700866L422.301001077009,152.60028299220514L426.98655343936014,152.04016979532307L431.8560014471726,151.70410187719378L436.5129953534227,151.50246112631635L441.54020859747027,151.3814766757898L446.2233329129464,151.30888600547388L450.8293378348214,151.26533160328435L455.39192696614583,151.2391989619705L460.0346416443452,120.98351937718226L464.7570771949405,102.83011162630935L469.5025791908482,91.93806697578565L474.20478101748506,115.64284018547136L479.07330405505957,114.74570411128278L483.81394995721735,129.32742246676966L488.67397483072915,107.83645348006179L493.5792654352678,125.18187208803714L498.6698969512648,105.3491232528223L503.80440674293146,108.5694739516934L508.67194699962795,95.38168437101598L513.5679879017857,87.4690106226096L518.3286362853422,82.72140637356576L523.3341127287947,94.99284382413946L528.4459607496281,117.47570629448367L533.3104370424107,100.72542377669015L538.2502405989584,120.91525426601407L542.9664904110863,133.02915255960846L547.7005459002976,110.05749153576505L552.4498055877976,96.274494921459L557.1918967559525,88.0046969528754L561.8239742764138,83.04281817172526L566.5761244959077,80.06569090303513L571.3265982068452,78.27941454182107L576.1154003720237,77.2076487250927L580.8715395256696,76.56458923505566L585.6619603887648,76.1787535410334L590.6329816908482,75.94725212462008L595.403226640625,75.8083512747721L600.3478284802827,75.72501076486323L605.0536723772321,75.67500645891789L609.6063180784971,75.64500387535074L614.4680194605654,75.62700232521037L619.1769273214286,75.61620139512624L623.8072705226936,90.72972083707572L628.502361640625,99.79783250224547L633.1259988076638,120.35869950134726L637.6839630877976,117.57521970080836L642.1943492113095,100.78513182048506L647.2350323344493,90.71107909229109L651.9966634988839,84.66664745537463L656.5409266573661,81.03998847322477L661.0468613616071,109.10399308393487L665.7925367894345,125.94239585036091L670.6595567503721,136.04543751021657L675.3949996949405,142.10726250612987L680.1642618638393,145.74435750367795L685.0363691610863,132.80661450220677L689.6734183965774,109.92396870132406L694.2362965811011,96.19438122079443L698.7707319308035,87.95662873247672L711.8377286737351,83.01397723948607L725.7137853218006,110.28838634369163L739.6092663448661,126.65303180621498L753.4750326990327,136.47181908372895L767.335191421131,142.36309145023736L781.2191103162203,145.89785487014237L789.7745647228422,148.0187129220854L794.3987221856398,149.29122775325118L799.1665968991815,150.05473665195075L803.9811247991072,150.51284199117043L808.7311360249255,150.78770519470228L813.3766256138393,150.95262311682137L818.061946733631,151.05157387009282L822.72420140811,151.1109443220557L827.5905276413691,151.14656659323342L832.4268501525298,151.16793995594003L837.1843189508929,151.18076397356398L841.936006685268,151.18845838413844L846.6489034802826,151.19307503048302L851.4059097935269,151.19584501828976L856.1367278869049,151.19750701097377L860.8450576413691,151.19850420658432L865.6368659598213,151.19910252395053L870.3750260044643,151.1994615143703L875.0919117336309,151.19967690862217L879.8872465011161,151.19980614517328L884.6799219791666,151.19988368710392L889.3282442894345,136.07993021226233L893.9411286774556,142.12795812735737L898.6032677306549,145.7567748764144L903.3199222172619,117.69406492584866L908.1452028962053,100.85643895550923L912.7512656287201,90.75386337330558L917.4736433686757,84.69231802398339L922.5087188597469,81.05539081439L927.1317201097471,78.87323448863404L931.8099305208333,107.80394069318042L936.4740351357887,125.16236441590817L941.1254214099702,135.57741864954488L945.8293575558035,141.82645118972692L950.6276406659227,145.57587071383614L955.3141758091518,147.82552242830167L960.1219976748512,134.05531345698097L964.7469644866073,125.79318807418858L969.3422744401042,105.71591284451317L974.3030632589284,108.78954770670786L979.0809970238095,125.75372862402476L983.7781115141369,135.93223717441487L988.4220980264137,142.0393423046489L993.400345658482,145.7036053827893L998.3054628311011,147.9021632296736L1002.9054554464287,149.22129793780414L1007.469085169271,150.01277876268244L1012.1576436848958,150.4876672576095L1016.9672576804315,135.65260035456572L1021.814853266369,111.63156021273937L1026.6315201599703,97.2189361276436L1031.2914624088542,88.5713616765862L1036.1698132552085,83.3828170059517L1041.196101529018,80.26969020357106L1045.9427019270834,78.4018141221427L1050.7337587072172,77.28108847328568L1055.5280528831845,76.60865308397145L1060.1398966796874,61.0851918503829L1064.856493355655,66.89111511022972L1069.5837271893602,70.37466906613783L1074.3947286402529,72.46480143968276L1079.223535768229,73.7188808638097L1083.8265923474703,74.47132851828579L1088.5087338820686,74.92279711097143L1093.22313375372,90.31367826658293L1098.0633873883928,84.42820695994979L1102.8137454780506,80.89692417596993L1107.4229877957591,78.77815450558198L1112.094492172619,77.5068927033492L1116.9217384133183,76.74413562200957L1121.4951959449404,76.28648137320579L1126.359730048363,76.0118888239235L1131.4255607998512,75.84713329435414L1136.3066287462798,75.74827997661251L1141.0296424032738,75.68896798596754L1145.7145588485862,75.65338079158057L1150.3443239434523,75.63202847494833L1155.039935357143,75.61921708496904L1159.7968838597471,75.61153025098143L1164.4372283017115,75.60691815058887L1168.9998752436757,75.60415089035328L1173.6492381454614,75.602490534212L1178.3377966610863,90.72149432052714L1183.0986762872024,84.6728965923163L1187.9710148270087,81.04373795538983L1192.70032984375,78.86624277323392L1197.5115047265626,77.55974566394036L1202.4293402399553,76.77584739836425L1207.2406307440476,46.06550843901856L1212.0418621968006,42.759305063411155L1216.6905313709078,55.89558303804673L1221.4041218936013,63.77734982282797L1226.2169154743303,68.50640989369677L1230.9759451599703,71.34384593621806L1235.5681911495537,73.04630756173084L1240.2092871298362,43.82778453703851L1244.8686512723214,26.296670722223094L1249.5287669531251,15.778002433333866L1254.5108878980657,24.586801460000366L1259.3615474479166,44.99208087600028L1264.1939388355654,57.235248525600205L1269.1491200223213,64.58114911536008L1273.9692555543156,68.98868946921608L1278.658912472098,71.6332136815297L1283.350072466518,73.21992820891782L1288.003135249256,74.17195692535071L1292.6662570833332,44.50317415521045L1297.502637405134,26.70190449312627L1302.146392674851,46.261142695875726L1306.8811418917412,57.99668561752546L1311.6330608686756,65.0380113705153L1316.4301299553572,69.26280682230922L1321.1791005896578,71.79768409338548L1325.7452161700148,58.19861045603133L1330.4004179464284,50.03916627361882L1335.067008418899,30.023499764171294L1339.8041856826637,18.014099858502792" style="fill: none;" fill="none"></path></g></g></g></g><g opacity="0.2"><g><g><g><path stroke="rgb(187, 187, 187)" stroke-width="2px" d="M104.05915178571428,378L105.45140542596725,302.40000000000003L106.85152131324405,302.40000000000003L108.14619059337797,226.79999999999998L109.37906029947918,226.79999999999998L110.64164467447918,226.79999999999998L111.91671614769345,151.20000000000002L113.09929059709822,151.20000000000002L114.28961167224702,151.20000000000002L115.48212955171131,151.20000000000002L116.70979630022322,151.20000000000002L118.06059971168155,151.20000000000002L119.35284094494048,151.20000000000002L120.6632925297619,151.20000000000002L122.04745268043155,151.20000000000002L123.45149969122025,151.20000000000002L124.87225397693453,151.20000000000002L126.09188504650297,189L127.37967486049108,151.20000000000002L128.80736642299107,226.79999999999998L130.21193372953869,151.20000000000002L131.55244684709822,151.20000000000002L132.93915066592263,151.20000000000002L134.2260733203125,189L135.59352619605656,151.20000000000002L137.0201193563988,226.79999999999998L138.37820690848216,226.79999999999998L139.6563423456101,226.79999999999998L140.8834309877232,226.79999999999998L142.1651506845238,226.79999999999998L143.52266013020835,226.79999999999998L144.9344537667411,226.79999999999998L146.27421534598216,226.79999999999998L147.59969769717262,151.20000000000002L148.9163928311012,189L150.1741211123512,151.20000000000002L151.3738653218006,151.20000000000002L152.64107454799108,151.20000000000002L153.94724814546132,151.20000000000002L155.28654723958334,151.20000000000002L156.77210725260417,151.20000000000002L162.71012712797616,151.20000000000002L174.2714457552083,151.20000000000002L185.83409402715776,151.20000000000002L197.39651105654764,151.20000000000002L208.9582921688988,151.20000000000002L220.5196686067708,151.20000000000002L232.08254812127979,151.20000000000002L243.6446760974702,151.20000000000002L255.20824933965775,151.20000000000002L266.7689320498512,113.40000000000002L278.33163813244045,75.59999999999998L289.89289894903277,75.59999999999998L301.455142546503,75.59999999999998L313.01877359933036,75.59999999999998L324.57962974144345,75.59999999999998L336.1416420963542,75.59999999999998L347.7038856938244,75.59999999999998L359.2657246168155,75.59999999999998L363.95659555803576,113.40000000000002L368.45917724516374,151.20000000000002L380.0218255171131,151.20000000000002L391.5834331975446,151.20000000000002L403.1454455524553,151.20000000000002L414.70867193080363,151.20000000000002L426.26987493675597,151.20000000000002L437.8320607235863,151.20000000000002L449.39424651041656,151.20000000000002L460.95672135044634,151.20000000000002L472.5193696223959,113.40000000000002L484.08115073474704,151.20000000000002L495.64264279389886,151.20000000000002L507.2045395275298,151.20000000000002L518.7674768526787,151.20000000000002L530.3298938820685,151.20000000000002L541.8916749944196,151.20000000000002L553.4525889471726,151.20000000000002L565.015699704241,151.20000000000002L576.5774808165924,151.20000000000002L588.1407071949405,151.20000000000002L599.7016789583332,151.20000000000002L611.2644428515625,151.20000000000002L622.8255302362352,151.20000000000002L634.387947265625,151.20000000000002L645.9514626971727,151.20000000000002L657.5130703776042,151.20000000000002L669.0743890048363,151.20000000000002L680.636401359747,151.20000000000002L692.1987027678572,151.20000000000002L703.7614088504465,151.20000000000002L715.3232477734375,151.20000000000002L726.8844507793899,113.40000000000002L738.4475037258185,75.59999999999998L750.0094004594495,75.59999999999998L761.5732049441965,75.59999999999998L773.1337720331102,75.59999999999998L784.6960734412203,75.59999999999998L796.25854828125,75.59999999999998L807.8202715829613,75.59999999999998L819.3837870145089,75.59999999999998L830.944180671503,75.59999999999998L842.506077405134,75.59999999999998L854.0686678664435,151.20000000000002L865.6306224107143,113.40000000000002L877.1945425167411,151.20000000000002L888.7548783630955,151.20000000000002L900.3172953924851,151.20000000000002L911.8798280431547,151.20000000000002L923.4416669661459,151.20000000000002L935.004951155134,151.20000000000002L946.5655760546875,151.20000000000002L958.1281087053572,151.20000000000002L969.6904101134672,151.20000000000002L981.2520756045386,151.20000000000002L992.8156488467262,151.20000000000002L1004.3761003143601,151.20000000000002L1015.9386329650297,151.20000000000002L1027.5003562667412,151.20000000000002L1039.0630045386904,151.20000000000002L1050.625999674479,151.20000000000002L1062.1867401953125,151.20000000000002L1073.7495040885417,151.20000000000002L1085.311227390253,151.20000000000002L1096.8732397451636,151.20000000000002L1108.4363505022322,151.20000000000002L1119.997437886905,151.20000000000002L1131.5599127269347,151.20000000000002L1143.1214625967261,151.20000000000002L1154.683821815476,151.20000000000002L1166.2469325725447,75.59999999999998L1177.8083090104167,75.59999999999998L1189.3712463355653,151.20000000000002L1200.9331430691966,113.40000000000002L1212.495213234747,113.40000000000002L1224.0576880747767,151.20000000000002L1235.618948891369,113.40000000000002L1247.1807300037203,75.59999999999998L1258.7429736011904,151.20000000000002L1270.3052171986608,151.20000000000002L1281.868906062128,151.20000000000002L1293.4292997191221,151.20000000000002L1304.9916011272321,151.20000000000002L1316.5535556715029,151.20000000000002L1328.1162039434525,151.20000000000002L1339.6790256473214,151.20000000000002" style="fill: none;" fill="none"></path></g><g><path stroke="rgb(0, 153, 136)" stroke-width="2px" d="M104.05915178571428,378L108.57040506882441,302.40000000000003L113.08038651785714,226.79999999999998L117.76281710565478,226.79999999999998L122.43304964843749,226.79999999999998L126.98552191778275,226.79999999999998L131.48804579427082,151.20000000000002L136.08913681175594,151.20000000000002L140.78844810639882,151.20000000000002L145.38953912388394,151.20000000000002L150.06931042224704,151.20000000000002L154.9348851171875,151.20000000000002L159.55800198846728,151.20000000000002L164.1678802232143,151.20000000000002L168.73243491629464,151.20000000000002L173.4215137276786,151.20000000000002L178.08746828311013,151.20000000000002L182.64335138020834,151.20000000000002L187.12830082217263,151.20000000000002L191.893400625,151.20000000000002L196.6684438578869,75.59999999999998L201.42122999441966,75.59999999999998L206.22471606212795,75.59999999999998L210.9388268805803,113.40000000000002L216.01130585565474,151.20000000000002L220.96671828497026,151.20000000000002L225.77494482514882,151.20000000000002L230.43870257626486,226.79999999999998L235.36833146019342,226.79999999999998L240.15493682105654,151.20000000000002L244.7076981436012,151.20000000000002L249.64507365327378,151.20000000000002L254.5016298883928,151.20000000000002L259.35072855096723,113.40000000000002L264.1805184598214,151.20000000000002L268.8282626636905,151.20000000000002L273.63209559523807,226.79999999999998L278.48610816220236,226.79999999999998L283.0904365755208,226.79999999999998L287.7139003106399,189L292.59439015066965,151.20000000000002L304.1137960639881,75.59999999999998L317.99239638020833,75.59999999999998L331.86718119419646,151.20000000000002L345.74052074218747,151.20000000000002L359.6095244921875,151.20000000000002L365.9600232831101,151.20000000000002L370.60250671875,151.20000000000002L375.2679987890625,151.20000000000002L380.0187037425595,151.20000000000002L384.70847628162204,151.20000000000002L389.367435749628,151.20000000000002L394.23098707217264,226.79999999999998L398.7847311755952,151.20000000000002L403.6173538058036,151.20000000000002L408.291633093378,151.20000000000002L412.90081760044643,151.20000000000002L417.6205938616071,151.20000000000002L422.301001077009,151.20000000000002L426.98655343936014,151.20000000000002L431.8560014471726,151.20000000000002L436.5129953534227,151.20000000000002L441.54020859747027,151.20000000000002L446.2233329129464,151.20000000000002L450.8293378348214,151.20000000000002L455.39192696614583,151.20000000000002L460.0346416443452,75.59999999999998L464.7570771949405,75.59999999999998L469.5025791908482,75.59999999999998L474.20478101748506,151.20000000000002L479.07330405505957,113.40000000000002L483.81394995721735,151.20000000000002L488.67397483072915,75.59999999999998L493.5792654352678,151.20000000000002L498.6698969512648,75.59999999999998L503.80440674293146,113.40000000000002L508.67194699962795,75.59999999999998L513.5679879017857,75.59999999999998L518.3286362853422,75.59999999999998L523.3341127287947,113.40000000000002L528.4459607496281,151.20000000000002L533.3104370424107,75.59999999999998L538.2502405989584,151.20000000000002L542.9664904110863,151.20000000000002L547.7005459002976,75.59999999999998L552.4498055877976,75.59999999999998L557.1918967559525,75.59999999999998L561.8239742764138,75.59999999999998L566.5761244959077,75.59999999999998L571.3265982068452,75.59999999999998L576.1154003720237,75.59999999999998L580.8715395256696,75.59999999999998L585.6619603887648,75.59999999999998L590.6329816908482,75.59999999999998L595.403226640625,75.59999999999998L600.3478284802827,75.59999999999998L605.0536723772321,75.59999999999998L609.6063180784971,75.59999999999998L614.4680194605654,75.59999999999998L619.1769273214286,75.59999999999998L623.8072705226936,113.40000000000002L628.502361640625,113.40000000000002L633.1259988076638,151.20000000000002L637.6839630877976,113.40000000000002L642.1943492113095,75.59999999999998L647.2350323344493,75.59999999999998L651.9966634988839,75.59999999999998L656.5409266573661,75.59999999999998L661.0468613616071,151.20000000000002L665.7925367894345,151.20000000000002L670.6595567503721,151.20000000000002L675.3949996949405,151.20000000000002L680.1642618638393,151.20000000000002L685.0363691610863,113.40000000000002L689.6734183965774,75.59999999999998L694.2362965811011,75.59999999999998L698.7707319308035,75.59999999999998L711.8377286737351,75.59999999999998L725.7137853218006,151.20000000000002L739.6092663448661,151.20000000000002L753.4750326990327,151.20000000000002L767.335191421131,151.20000000000002L781.2191103162203,151.20000000000002L789.7745647228422,151.20000000000002L794.3987221856398,151.20000000000002L799.1665968991815,151.20000000000002L803.9811247991072,151.20000000000002L808.7311360249255,151.20000000000002L813.3766256138393,151.20000000000002L818.061946733631,151.20000000000002L822.72420140811,151.20000000000002L827.5905276413691,151.20000000000002L832.4268501525298,151.20000000000002L837.1843189508929,151.20000000000002L841.936006685268,151.20000000000002L846.6489034802826,151.20000000000002L851.4059097935269,151.20000000000002L856.1367278869049,151.20000000000002L860.8450576413691,151.20000000000002L865.6368659598213,151.20000000000002L870.3750260044643,151.20000000000002L875.0919117336309,151.20000000000002L879.8872465011161,151.20000000000002L884.6799219791666,151.20000000000002L889.3282442894345,113.40000000000002L893.9411286774556,151.20000000000002L898.6032677306549,151.20000000000002L903.3199222172619,75.59999999999998L908.1452028962053,75.59999999999998L912.7512656287201,75.59999999999998L917.4736433686757,75.59999999999998L922.5087188597469,75.59999999999998L927.1317201097471,75.59999999999998L931.8099305208333,151.20000000000002L936.4740351357887,151.20000000000002L941.1254214099702,151.20000000000002L945.8293575558035,151.20000000000002L950.6276406659227,151.20000000000002L955.3141758091518,151.20000000000002L960.1219976748512,113.40000000000002L964.7469644866073,113.40000000000002L969.3422744401042,75.59999999999998L974.3030632589284,113.40000000000002L979.0809970238095,151.20000000000002L983.7781115141369,151.20000000000002L988.4220980264137,151.20000000000002L993.400345658482,151.20000000000002L998.3054628311011,151.20000000000002L1002.9054554464287,151.20000000000002L1007.469085169271,151.20000000000002L1012.1576436848958,151.20000000000002L1016.9672576804315,113.40000000000002L1021.814853266369,75.59999999999998L1026.6315201599703,75.59999999999998L1031.2914624088542,75.59999999999998L1036.1698132552085,75.59999999999998L1041.196101529018,75.59999999999998L1045.9427019270834,75.59999999999998L1050.7337587072172,75.59999999999998L1055.5280528831845,75.59999999999998L1060.1398966796874,37.79999999999999L1064.856493355655,75.59999999999998L1069.5837271893602,75.59999999999998L1074.3947286402529,75.59999999999998L1079.223535768229,75.59999999999998L1083.8265923474703,75.59999999999998L1088.5087338820686,75.59999999999998L1093.22313375372,113.40000000000002L1098.0633873883928,75.59999999999998L1102.8137454780506,75.59999999999998L1107.4229877957591,75.59999999999998L1112.094492172619,75.59999999999998L1116.9217384133183,75.59999999999998L1121.4951959449404,75.59999999999998L1126.359730048363,75.59999999999998L1131.4255607998512,75.59999999999998L1136.3066287462798,75.59999999999998L1141.0296424032738,75.59999999999998L1145.7145588485862,75.59999999999998L1150.3443239434523,75.59999999999998L1155.039935357143,75.59999999999998L1159.7968838597471,75.59999999999998L1164.4372283017115,75.59999999999998L1168.9998752436757,75.59999999999998L1173.6492381454614,75.59999999999998L1178.3377966610863,113.40000000000002L1183.0986762872024,75.59999999999998L1187.9710148270087,75.59999999999998L1192.70032984375,75.59999999999998L1197.5115047265626,75.59999999999998L1202.4293402399553,75.59999999999998L1207.2406307440476,0L1212.0418621968006,37.79999999999999L1216.6905313709078,75.59999999999998L1221.4041218936013,75.59999999999998L1226.2169154743303,75.59999999999998L1230.9759451599703,75.59999999999998L1235.5681911495537,75.59999999999998L1240.2092871298362,0L1244.8686512723214,0L1249.5287669531251,0L1254.5108878980657,37.79999999999999L1259.3615474479166,75.59999999999998L1264.1939388355654,75.59999999999998L1269.1491200223213,75.59999999999998L1273.9692555543156,75.59999999999998L1278.658912472098,75.59999999999998L1283.350072466518,75.59999999999998L1288.003135249256,75.59999999999998L1292.6662570833332,0L1297.502637405134,0L1302.146392674851,75.59999999999998L1306.8811418917412,75.59999999999998L1311.6330608686756,75.59999999999998L1316.4301299553572,75.59999999999998L1321.1791005896578,75.59999999999998L1325.7452161700148,37.79999999999999L1330.4004179464284,37.79999999999999L1335.067008418899,0L1339.8041856826637,0" style="fill: none;" fill="none"></path></g></g></g></g></g></g><g transform="translate(41, 378)" clip-path="url(#clip_1)"><clipPath id="clip_1"><rect width="1456" height="22"></rect></clipPath><g><g><line x1="0" y1="0" x2="0" y2="5" style="visibility: inherit;" fill="rgb(0, 0, 0)" stroke="rgb(204, 204, 204)" stroke-width="1px"></line><line x1="104.05915178571428" y1="0" x2="104.05915178571428" y2="5" style="visibility: inherit;" fill="rgb(0, 0, 0)" stroke="rgb(204, 204, 204)" stroke-width="1px"></line><line x1="208.11830357142856" y1="0" x2="208.11830357142856" y2="5" style="visibility: inherit;" fill="rgb(0, 0, 0)" stroke="rgb(204, 204, 204)" stroke-width="1px"></line><line x1="312.17745535714283" y1="0" x2="312.17745535714283" y2="5" style="visibility: inherit;" fill="rgb(0, 0, 0)" stroke="rgb(204, 204, 204)" stroke-width="1px"></line><line x1="416.2366071428571" y1="0" x2="416.2366071428571" y2="5" style="visibility: inherit;" fill="rgb(0, 0, 0)" stroke="rgb(204, 204, 204)" stroke-width="1px"></line><line x1="520.2957589285714" y1="0" x2="520.2957589285714" y2="5" style="visibility: inherit;" fill="rgb(0, 0, 0)" stroke="rgb(204, 204, 204)" stroke-width="1px"></line><line x1="624.3549107142857" y1="0" x2="624.3549107142857" y2="5" style="visibility: inherit;" fill="rgb(0, 0, 0)" stroke="rgb(204, 204, 204)" stroke-width="1px"></line><line x1="728.4140625" y1="0" x2="728.4140625" y2="5" style="visibility: inherit;" fill="rgb(0, 0, 0)" stroke="rgb(204, 204, 204)" stroke-width="1px"></line><line x1="832.4732142857142" y1="0" x2="832.4732142857142" y2="5" style="visibility: inherit;" fill="rgb(0, 0, 0)" stroke="rgb(204, 204, 204)" stroke-width="1px"></line><line x1="936.5323660714287" y1="0" x2="936.5323660714287" y2="5" style="visibility: inherit;" fill="rgb(0, 0, 0)" stroke="rgb(204, 204, 204)" stroke-width="1px"></line><line x1="1040.591517857143" y1="0" x2="1040.591517857143" y2="5" style="visibility: inherit;" fill="rgb(0, 0, 0)" stroke="rgb(204, 204, 204)" stroke-width="1px"></line><line x1="1144.650669642857" y1="0" x2="1144.650669642857" y2="5" style="visibility: inherit;" fill="rgb(0, 0, 0)" stroke="rgb(204, 204, 204)" stroke-width="1px"></line><line x1="1248.7098214285713" y1="0" x2="1248.7098214285713" y2="5" style="visibility: inherit;" fill="rgb(0, 0, 0)" stroke="rgb(204, 204, 204)" stroke-width="1px"></line><line x1="1352.7689732142858" y1="0" x2="1352.7689732142858" y2="5" style="visibility: inherit;" fill="rgb(0, 0, 0)" stroke="rgb(204, 204, 204)" stroke-width="1px"></line><line x1="1456.828125" y1="0" x2="1456.828125" y2="5" style="visibility: inherit;" fill="rgb(0, 0, 0)" stroke="rgb(204, 204, 204)" stroke-width="1px"></line></g><g transform="translate(0, 8)"><text x="0" y="0" dx="0em" dy="0.95em" style="text-anchor: middle; visibility: hidden; font-family: Roboto, sans-serif; font-size: 12px; font-weight: 200;" fill="rgb(50, 49, 63)" stroke="none" stroke-width="1px">-0.5</text><text x="104.05915178571428" y="0" dx="0em" dy="0.95em" style="text-anchor: middle; visibility: inherit; font-family: Roboto, sans-serif; font-size: 12px; font-weight: 200;" fill="rgb(50, 49, 63)" stroke="none" stroke-width="1px">0</text><text x="208.11830357142856" y="0" dx="0em" dy="0.95em" style="text-anchor: middle; visibility: inherit; font-family: Roboto, sans-serif; font-size: 12px; font-weight: 200;" fill="rgb(50, 49, 63)" stroke="none" stroke-width="1px">0.5</text><text x="312.17745535714283" y="0" dx="0em" dy="0.95em" style="text-anchor: middle; visibility: inherit; font-family: Roboto, sans-serif; font-size: 12px; font-weight: 200;" fill="rgb(50, 49, 63)" stroke="none" stroke-width="1px">1</text><text x="416.2366071428571" y="0" dx="0em" dy="0.95em" style="text-anchor: middle; visibility: inherit; font-family: Roboto, sans-serif; font-size: 12px; font-weight: 200;" fill="rgb(50, 49, 63)" stroke="none" stroke-width="1px">1.5</text><text x="520.2957589285714" y="0" dx="0em" dy="0.95em" style="text-anchor: middle; visibility: inherit; font-family: Roboto, sans-serif; font-size: 12px; font-weight: 200;" fill="rgb(50, 49, 63)" stroke="none" stroke-width="1px">2</text><text x="624.3549107142857" y="0" dx="0em" dy="0.95em" style="text-anchor: middle; visibility: inherit; font-family: Roboto, sans-serif; font-size: 12px; font-weight: 200;" fill="rgb(50, 49, 63)" stroke="none" stroke-width="1px">2.5</text><text x="728.4140625" y="0" dx="0em" dy="0.95em" style="text-anchor: middle; visibility: inherit; font-family: Roboto, sans-serif; font-size: 12px; font-weight: 200;" fill="rgb(50, 49, 63)" stroke="none" stroke-width="1px">3</text><text x="832.4732142857142" y="0" dx="0em" dy="0.95em" style="text-anchor: middle; visibility: inherit; font-family: Roboto, sans-serif; font-size: 12px; font-weight: 200;" fill="rgb(50, 49, 63)" stroke="none" stroke-width="1px">3.5</text><text x="936.5323660714287" y="0" dx="0em" dy="0.95em" style="text-anchor: middle; visibility: inherit; font-family: Roboto, sans-serif; font-size: 12px; font-weight: 200;" fill="rgb(50, 49, 63)" stroke="none" stroke-width="1px">4</text><text x="1040.591517857143" y="0" dx="0em" dy="0.95em" style="text-anchor: middle; visibility: inherit; font-family: Roboto, sans-serif; font-size: 12px; font-weight: 200;" fill="rgb(50, 49, 63)" stroke="none" stroke-width="1px">4.5</text><text x="1144.650669642857" y="0" dx="0em" dy="0.95em" style="text-anchor: middle; visibility: inherit; font-family: Roboto, sans-serif; font-size: 12px; font-weight: 200;" fill="rgb(50, 49, 63)" stroke="none" stroke-width="1px">5</text><text x="1248.7098214285713" y="0" dx="0em" dy="0.95em" style="text-anchor: middle; visibility: inherit; font-family: Roboto, sans-serif; font-size: 12px; font-weight: 200;" fill="rgb(50, 49, 63)" stroke="none" stroke-width="1px">5.5</text><text x="1352.7689732142858" y="0" dx="0em" dy="0.95em" style="text-anchor: middle; visibility: inherit; font-family: Roboto, sans-serif; font-size: 12px; font-weight: 200;" fill="rgb(50, 49, 63)" stroke="none" stroke-width="1px">6</text><text x="1456.828125" y="0" dx="0em" dy="0.95em" style="text-anchor: middle; visibility: hidden; font-family: Roboto, sans-serif; font-size: 12px; font-weight: 200;" fill="rgb(50, 49, 63)" stroke="none" stroke-width="1px">6.5</text></g><line x1="0" y1="0" x2="1456.828125" y2="0" fill="rgb(0, 0, 0)" stroke="rgb(204, 204, 204)" stroke-width="1px"></line></g></g></g></g></svg>