<svg viewBox="0 0 1498 400" xmlns="http://www.w3.org/2000/svg"><g><g><g><g><g><line x1="41.171875" y1="378" x2="36.171875" y2="378" style="visibility: inherit;" fill="rgb(0, 0, 0)" stroke="rgb(204, 204, 204)" stroke-width="1px"></line><line x1="41.171875" y1="324" x2="36.171875" y2="324" style="visibility: inherit;" fill="rgb(0, 0, 0)" stroke="rgb(204, 204, 204)" stroke-width="1px"></line><line x1="41.171875" y1="270" x2="36.171875" y2="270" style="visibility: inherit;" fill="rgb(0, 0, 0)" stroke="rgb(204, 204, 204)" stroke-width="1px"></line><line x1="41.171875" y1="216" x2="36.171875" y2="216" style="visibility: inherit;" fill="rgb(0, 0, 0)" stroke="rgb(204, 204, 204)" stroke-width="1px"></line><line x1="41.171875" y1="162" x2="36.171875" y2="162" style="visibility: inherit;" fill="rgb(0, 0, 0)" stroke="rgb(204, 204, 204)" stroke-width="1px"></line><line x1="41.171875" y1="108" x2="36.171875" y2="108" style="visibility: inherit;" fill="rgb(0, 0, 0)" stroke="rgb(204, 204, 204)" stroke-width="1px"></line><line x1="41.171875" y1="54.00000000000002" x2="36.171875" y2="54.00000000000002" style="visibility: inherit;" fill="rgb(0, 0, 0)" stroke="rgb(204, 204, 204)" stroke-width="1px"></line><line x1="41.171875" y1="0" x2="36.171875" y2="0" style="visibility: inherit;" fill="rgb(0, 0, 0)" stroke="rgb(204, 204, 204)" stroke-width="1px"></line></g><g transform="translate(31.171875, 0)"><text x="0" y="378" dx="0em" dy="0.3em" style="text-anchor: end; visibility: hidden; font-family: Roboto, sans-serif; font-size: 12px; font-weight: 200;" fill="rgb(50, 49, 63)" stroke="none" stroke-width="1px">5.5</text><text x="0" y="324" dx="0em" dy="0.3em" style="text-anchor: end; visibility: inherit; font-family: Roboto, sans-serif; font-size: 12px; font-weight: 200;" fill="rgb(50, 49, 63)" stroke="none" stroke-width="1px">6</text><text x="0" y="270" dx="0em" dy="0.3em" style="text-anchor: end; visibility: inherit; font-family: Roboto, sans-serif; font-size: 12px; font-weight: 200;" fill="rgb(50, 49, 63)" stroke="none" stroke-width="1px">6.5</text><text x="0" y="216" dx="0em" dy="0.3em" style="text-anchor: end; visibility: inherit; font-family: Roboto, sans-serif; font-size: 12px; font-weight: 200;" fill="rgb(50, 49, 63)" stroke="none" stroke-width="1px">7</text><text x="0" y="162" dx="0em" dy="0.3em" style="text-anchor: end; visibility: inherit; font-family: Roboto, sans-serif; font-size: 12px; font-weight: 200;" fill="rgb(50, 49, 63)" stroke="none" stroke-width="1px">7.5</text><text x="0" y="108" dx="0em" dy="0.3em" style="text-anchor: end; visibility: inherit; font-family: Roboto, sans-serif; font-size: 12px; font-weight: 200;" fill="rgb(50, 49, 63)" stroke="none" stroke-width="1px">8</text><text x="0" y="54.00000000000002" dx="0em" dy="0.3em" style="text-anchor: end; visibility: inherit; font-family: Roboto, sans-serif; font-size: 12px; font-weight: 200;" fill="rgb(50, 49, 63)" stroke="none" stroke-width="1px">8.5</text><text x="0" y="0" dx="0em" dy="0.3em" style="text-anchor: end; visibility: hidden; font-family: Roboto, sans-serif; font-size: 12px; font-weight: 200;" fill="rgb(50, 49, 63)" stroke="none" stroke-width="1px">9</text></g><line x1="41.171875" y1="0" x2="41.171875" y2="378" fill="rgb(0, 0, 0)" stroke="rgb(204, 204, 204)" stroke-width="1px"></line></g></g><g transform="translate(41, 0)" clip-path="url(#clip_0)"><clipPath id="clip_0"><rect width="1456" height="378"></rect></clipPath><g><g><g><line x1="0" y1="0" x2="0" y2="378" fill="rgb(0, 0, 0)" stroke="rgb(60, 60, 60)" stroke-width="1px" opacity="0.25"></line><line x1="104.05915178571428" y1="0" x2="104.05915178571428" y2="378" fill="rgb(0, 0, 0)" stroke="rgb(60, 60, 60)" stroke-width="1px" opacity="0.25"></line><line x1="208.11830357142856" y1="0" x2="208.11830357142856" y2="378" fill="rgb(0, 0, 0)" stroke="rgb(60, 60, 60)" stroke-width="1px" opacity="0.25"></line><line x1="312.17745535714283" y1="0" x2="312.17745535714283" y2="378" fill="rgb(0, 0, 0)" stroke="rgb(60, 60, 60)" stroke-width="1px" opacity="0.25"></line><line x1="416.2366071428571" y1="0" x2="416.2366071428571" y2="378" fill="rgb(0, 0, 0)" stroke="rgb(60, 60, 60)" stroke-width="1px" opacity="0.25"></line><line x1="520.2957589285714" y1="0" x2="520.2957589285714" y2="378" fill="rgb(0, 0, 0)" stroke="rgb(60, 60, 60)" stroke-width="1px" opacity="0.25"></line><line x1="624.3549107142857" y1="0" x2="624.3549107142857" y2="378" fill="rgb(0, 0, 0)" stroke="rgb(60, 60, 60)" stroke-width="1px" opacity="0.25"></line><line x1="728.4140625" y1="0" x2="728.4140625" y2="378" fill="rgb(0, 0, 0)" stroke="rgb(60, 60, 60)" stroke-width="1px" opacity="0.25"></line><line x1="832.4732142857142" y1="0" x2="832.4732142857142" y2="378" fill="rgb(0, 0, 0)" stroke="rgb(60, 60, 60)" stroke-width="1px" opacity="0.25"></line><line x1="936.5323660714287" y1="0" x2="936.5323660714287" y2="378" fill="rgb(0, 0, 0)" stroke="rgb(60, 60, 60)" stroke-width="1px" opacity="0.25"></line><line x1="1040.591517857143" y1="0" x2="1040.591517857143" y2="378" fill="rgb(0, 0, 0)" stroke="rgb(60, 60, 60)" stroke-width="1px" opacity="0.25"></line><line x1="1144.650669642857" y1="0" x2="1144.650669642857" y2="378" fill="rgb(0, 0, 0)" stroke="rgb(60, 60, 60)" stroke-width="1px" opacity="0.25"></line><line x1="1248.7098214285713" y1="0" x2="1248.7098214285713" y2="378" fill="rgb(0, 0, 0)" stroke="rgb(60, 60, 60)" stroke-width="1px" opacity="0.25"></line><line x1="1352.7689732142858" y1="0" x2="1352.7689732142858" y2="378" fill="rgb(0, 0, 0)" stroke="rgb(60, 60, 60)" stroke-width="1px" opacity="0.25"></line><line x1="1456.828125" y1="0" x2="1456.828125" y2="378" fill="rgb(0, 0, 0)" stroke="rgb(60, 60, 60)" stroke-width="1px" opacity="0.25"></line></g><g><line x1="0" y1="378" x2="1456.828125" y2="378" fill="rgb(0, 0, 0)" stroke="rgb(60, 60, 60)" stroke-width="1px" opacity="0.25"></line><line x1="0" y1="324" x2="1456.828125" y2="324" fill="rgb(0, 0, 0)" stroke="rgb(60, 60, 60)" stroke-width="1px" opacity="0.25"></line><line x1="0" y1="270" x2="1456.828125" y2="270" fill="rgb(0, 0, 0)" stroke="rgb(60, 60, 60)" stroke-width="1px" opacity="0.25"></line><line x1="0" y1="216" x2="1456.828125" y2="216" fill="rgb(0, 0, 0)" stroke="rgb(60, 60, 60)" stroke-width="1px" opacity="0.25"></line><line x1="0" y1="162" x2="1456.828125" y2="162" fill="rgb(0, 0, 0)" stroke="rgb(60, 60, 60)" stroke-width="1px" opacity="0.25"></line><line x1="0" y1="108" x2="1456.828125" y2="108" fill="rgb(0, 0, 0)" stroke="rgb(60, 60, 60)" stroke-width="1px" opacity="0.25"></line><line x1="0" y1="54.00000000000002" x2="1456.828125" y2="54.00000000000002" fill="rgb(0, 0, 0)" stroke="rgb(60, 60, 60)" stroke-width="1px" opacity="0.25"></line><line x1="0" y1="0" x2="1456.828125" y2="0" fill="rgb(0, 0, 0)" stroke="rgb(60, 60, 60)" stroke-width="1px" opacity="0.25"></line></g></g></g><g><g><line x1="0" y1="971.9999999999999" x2="1456.828125" y2="971.9999999999999" fill="rgb(0, 0, 0)" stroke="rgb(153, 153, 153)" stroke-width="1.5px"></line></g></g><g><g><line x1="104.05915178571428" y1="0" x2="104.05915178571428" y2="378" fill="rgb(0, 0, 0)" stroke="rgb(153, 153, 153)" stroke-width="1.5px"></line></g></g><g><g><g><g><g><path stroke="rgb(187, 187, 187)" stroke-width="2px" d="M105.45134761532738,216L106.85152131324405,148.4999999999999L108.14613278273808,182.938775510204L109.37900248883929,198.13235294117644L110.6415868638393,159.03955586398328L111.91671614769345,137.6245972073039L113.09923278645833,125.43348521162001L114.28955386160713,118.34096400599903L115.48207174107142,114.1624687991676L116.70973848958333,111.68248577047152L118.06054190104166,110.2041280239012L119.3527831343006,109.32055346484803L120.66323471912202,108.79164128289186L122.04739486979167,108.47473642989608L123.45144188058036,108.28475253036083L124.87225397693453,129.77691469337756L126.09182723586308,142.6683309021459L127.37961704985119,172.0039778683222L128.80736642299107,189.60345916252786L130.2118759188988,200.16246155137355L131.55238903645835,206.4976159047925L132.93915066592263,210.29861957233322L134.2260733203125,212.57918975375208L135.59346838541666,213.9475203359234L137.02006154575895,214.76851453566417L138.37814909784225,215.26110956167574L139.65628453497024,215.55666603950448L140.88337317708334,215.73399973260234L142.1651506845238,215.8403998787654L143.52266013020835,215.9042399413726L144.93439595610118,215.94254396990436L146.27415753534225,215.9655263837717L147.59963988653274,215.97931583092137L148.9163928311012,215.98758949878984L150.1741211123512,215.99255369935932L151.37380751116072,215.99553221964624L152.6410167373512,215.99731933179885L153.9471903348214,215.99839159908322L155.28648942894344,215.99903495945136L156.77204944196427,215.9994209756713L162.71006931733632,215.99965258540303L174.27138794456846,215.9997915512419L185.83403621651786,194.3998749245085L197.3964532459077,159.83992494871785L208.9582921688988,139.10395496707525L220.51961079613096,126.6623729794693L232.08249031063988,119.1974237874022L243.64461828683037,114.7184542723408L255.20819152901788,112.03107256336828L266.7688742392113,88.81864353783328L278.33158032180063,53.291186122527755L289.89284113839284,75.17471167358035L301.4550847358631,66.70482700413322L313.0187157886905,83.22289620249727L324.5795719308036,71.53373772149085L336.1415842857143,86.12024263289986L347.70382788318454,94.87214557974205L359.2657246168155,100.1232873478459L363.95659555803576,103.27397240870775L368.4591194345238,105.16438344522484L380.02176770647327,106.29863006713498L391.5833753869048,106.97917804028097L403.1453877418155,107.38750682416851L414.7086141201637,129.2325040945013L426.2698171261161,120.73950245670082L437.8320029129464,115.64370147402039L449.39418869977675,112.58622088441227L460.9566635398065,110.75173253064742L472.5193696223959,109.65103951838844L484.0810929241071,108.99062371103295L495.6425849832589,108.5943742266198L507.2044817168898,108.35662453597189L518.7674190420387,108.21397472158309L530.3298938820685,108.12838483294988L541.8916749944196,108.07703089976992L553.4525311365327,108.04621853986194L565.0156418936012,108.02773112391714L576.5774808165924,108.01663867435032L588.1406493843006,151.20998320461024L599.7016211476935,155.52598992276617L611.2644428515625,179.71559395365963L622.8254724255952,194.2293563721958L634.387947265625,202.93761382331738L645.9514048865327,208.16256829399038L657.5130125669643,168.0975409763942L669.0743311941965,144.05852458583655L680.6363435491072,129.635114751502L692.1987027678572,120.98106885090114L703.7614088504465,115.78864131054073L715.3232477734375,112.6731847863244L726.8843929687499,110.80391087179468L738.4474459151786,109.6823465230768L750.0093426488096,109.00940791384606L761.5731471335566,108.60564474830764L773.1337142224703,65.16338684898453L784.6960734412203,39.09803210939081L796.25854828125,45.05881926563444L807.8202137723214,70.23529155938068L819.383729203869,85.34117493562839L830.9441228608631,94.40470496137702L842.506077405134,99.84282297682626L854.0686100558036,103.1056937860958L865.6305646000743,83.46341627165742L877.1944847061012,136.47804976299443L888.7548205524554,168.28682985779665L900.3172375818451,187.3720979146779L911.8797702325149,198.82325874880664L923.4416091555058,205.69395524928407L935.0048933444942,166.61637314957045L946.5655760546875,143.16982388974228L958.1280508947173,129.1018943338454L969.6903523028274,120.66113660030723L981.2520177938987,115.59668196018438L992.8156488467262,112.55800917611062L1004.3760425037201,110.73480550566633L1015.9385751543897,109.64088330339979L1027.500298456101,108.98452998203982L1039.0629467280505,86.99071798922392L1050.6259418638392,73.79443079353443L1062.1867401953125,87.4766584761207L1073.7495040885417,95.68599508567229L1085.311169579613,100.61159705140335L1096.8731819345237,103.5669582308419L1108.4363505022322,105.34017493850506L1119.997437886905,106.40410496310307L1131.5598549162949,107.04246297786197L1143.1214047860865,107.42547778671724L1154.6837640048361,107.65528667203043L1166.2469325725447,107.7931720032183L1177.8082511997766,107.87590320193094L1189.3712463355653,107.92554192115864L1200.9331430691966,107.95532515269514L1212.4951554241072,107.97319509161697L1224.057630264137,107.98391705497009L1235.618891080729,107.99035023298208L1247.1807300037203,107.99421013978916L1258.7429736011904,107.99652608387353L1270.305159388021,107.99791565032422L1281.868848251488,107.99874939019445L1293.4292419084823,107.99924963411671L1304.9915433165922,107.99954978046998L1316.553497860863,107.9997298682819L1328.1161461328127,107.99983792096923L1339.6789678366815,107.9999027525815" style="fill: none;" fill="none"></path></g><g><path stroke="rgb(0, 153, 136)" stroke-width="2px" d="M108.57040506882441,432L113.08032870721725,364.49999999999994L117.76275929501489,371.3877551020408L122.43299183779762,324.79411764705884L126.98546410714286,324.44968771686337L131.48804579427082,278.94683136412453L136.08913681175594,253.04295609576235L140.78844810639882,237.97265039160143L145.38948131324406,229.09411505491238L150.06925261160714,223.82460632874043L154.9348851171875,220.68336747516156L159.55800198846728,197.1588126496906L164.1678802232143,183.0768956288776L168.73237710565476,196.25646543703817L173.42145591703868,182.54743348124427L178.08741047247022,174.32614077171505L182.64335138020834,147.7911929827829L187.12824301153273,131.87309914874967L191.89334281436015,143.9245938588181L196.66838604724703,129.5542309120531L201.42122999441966,120.93234940944295L206.2246582514881,115.75934155765495L210.9388268805803,134.25575100632855L216.01124804501484,123.75340083965719L220.96666047433035,160.65214540798786L225.77488701450895,182.7913250101878L230.43864476562496,196.07480860163008L235.36827364955357,204.04489005535905L240.15487901041664,208.82693579519162L244.70764033296135,211.6961621114261L249.64501584263388,213.41769749520765L254.501572077753,214.4506185793312L259.35067074032736,215.07037117719295L264.18046064918155,215.4422227169699L268.8282048530506,215.66533363401737L273.6320377845982,215.7992001817912L278.48605035156254,172.67951984222188L283.09037876488094,146.8077118092661L287.7138425,152.88462709909857L292.5943323400297,134.93077623545938L304.1137382533482,124.15846573263569L317.99233856956846,117.69507943647099L331.86712338355653,113.81704766076285L345.74046293154765,111.49022859605462L359.60946668154764,131.6941371597329L365.9599654724702,122.21648229524861L370.6024489081101,116.52988937693641L375.2679987890625,113.11793362608523L380.0186459319196,111.07076017562352L384.70847628162204,153.04245610571337L389.36737793898806,178.22547366355025L394.2309292615327,193.33528419817424L398.7847311755952,202.40117051892037L403.61729599516366,207.84070231135806L408.29157528273805,211.1044213868169L412.90081760044643,213.06265283209086L417.62053605096725,214.23759169925484L422.300943266369,214.94255501955297L426.98649562872026,215.3655330117318L431.8560014471726,215.6193198070391L436.5129953534227,215.77159188422343L441.5401507868303,215.86295513053403L446.2232751023065,215.91777307832047L450.8292800241815,194.35066384699212L455.39192696614583,181.41039830819523L460.03458383370537,152.04623898491698L464.7570193843007,134.42774339095018L469.50252138020835,123.85664603457009L474.20472320684524,117.51398762074209L479.0732462444196,113.7083925724452L483.8138921465774,111.42503554346717L488.6739170200893,110.05502132608032L493.579207624628,109.23301279564814L498.66983914062496,108.73980767738891L503.80434893229165,108.44388460643337L508.67194699962795,108.26633076385998L513.5679879017857,108.15979845831599L518.3286362853422,108.09587907498958L523.3341127287947,108.05752744499372L528.4459029389881,108.03451646699625L533.3103792317709,108.02070988019774L538.2501827883185,108.0124259281187L542.9664904110863,108.00745555687115L547.7004880896577,108.00447333412274L552.4497477771578,108.00268400047369L557.1918967559525,108.0016104002842L561.8239742764138,86.40096624017058L566.5761244959077,51.84057974410229L571.3265403962054,31.104347846461412L576.115342561384,18.66260870787688L580.8714817150297,11.197565224726212L585.661902578125,6.718539134835778L590.6329816908482,4.031123480901433L595.4031688299851,24.01867408854091L600.347770669643,57.61120445312448L605.0536723772321,99.3667226718746L609.6063180784971,146.02003360312477L614.4679616499255,174.0120201618749L619.1768695107887,190.80721209712496L623.8072127120536,200.88432725827488L628.5023038299851,185.33059635496494L633.1259409970238,197.5983578129789L637.6839052771578,204.95901468778723L642.1942914006696,166.17540881267234L647.2349745238096,142.90524528760344L651.996605688244,128.9431471725621L656.5408688467262,120.56588830353725L661.0468035509673,115.53953298212231L665.7924789787946,112.5237197892734L670.6594989397321,110.71423187356407L675.3949418843007,109.62853912413843L680.1642040531993,108.97712347448307L685.0363113504463,108.58627408468982L689.6733605859374,108.3517644508139L694.2362965811011,108.2110586704883L698.7706741201637,108.12663520229297L711.8377286737351,108.07598112137583L725.7137853218006,108.04558867282545L739.6092085342262,108.02735320369527L753.4749748883929,108.0164119222171L767.335191421131,108.00984715333027L781.2190525055803,108.0059082919981L789.7745647228422,108.00354497519884L794.398664375,108.00212698511929L799.1665968991815,108.00127619107155L803.9810669884673,108.00076571464291L808.7310782142857,108.00045942878576L813.3765678031995,108.00027565727144L818.061946733631,108.00016539436285L822.7241435974704,108.00009923661771L827.5904698307291,108.00005954197059L832.42679234189,108.00003572518234L837.1842611402532,108.00002143510939L841.935948874628,108.00001286106564L846.6488456696428,108.0000077166394L851.4059097935269,108.00000462998361L856.1366700762647,108.00000277799018L860.8449998307292,108.00000166679409L865.6368659598213,108.00000100007644L870.3750260044643,108.00000060004592L875.091853922991,108.00000036002757L879.8871886904764,108.00000021601653L884.6798641685267,64.80000012960994L889.3281864787945,60.480000077765986L893.9410708668155,57.888000046659535L898.6032099200148,77.93280002799564L903.3198644066221,68.3596800167974L908.1451450855653,41.01580801007841L912.7512078180802,67.80948480604697L917.4736433686757,83.88569088362816L922.508661049107,93.53141453017678L927.131662299107,99.31884871810611L931.8098727101933,102.79130923086353L936.4739773251488,104.8747855385181L941.1253635993303,106.12487132311075L945.8293575558035,106.87492279386649L950.6275828552828,107.32495367631985L955.314117998512,107.59497220579185L960.1219976748512,107.75698332347508L964.7469066759672,107.85418999408509L969.3422166294644,107.91251399645097L974.3030054482887,107.94750839787055L979.0809970238095,107.96850503872245L983.778053703497,107.98110302323339L988.4220402157738,86.38866181394003L993.4002878478422,51.833197088364L998.3054050204612,31.099918253018483L1002.9054554464287,61.85995095181108L1007.4690273586309,80.31597057108661L1012.1576436848958,91.3895823426519L1016.9671998697917,98.03374940559118L1021.8147954557292,102.02024964335473L1026.6315201599703,104.41214978601286L1031.2914045982145,105.84728987160773L1036.1697554445684,106.70837392296465L1041.196101529018,107.22502435377866L1045.9427019270834,107.53501461226728L1050.7337008965774,107.72100876736027L1055.5280528831845,107.83260526041619L1060.1398388690477,64.69956315624978L1064.8564355450148,38.81973789374994L1069.58366937872,23.291842736249897L1074.394670829613,13.975105641749947L1079.2234779575892,51.58506338505L1083.8265923474703,30.95103803103005L1088.5086760714287,61.77062281861801L1093.2230759430804,80.26237369117074L1098.0633873883928,91.3574242147025L1102.813687667411,98.01445452882159L1107.4229877957591,102.00867271729297L1112.0944343619792,126.0052036303758L1116.9216806026786,118.80312217822548L1121.4951959449404,157.68187330693533L1126.359730048363,137.80912398416115L1131.4255607998512,125.88547439049673L1136.3066287462798,118.731284634298L1141.029584592634,114.43877078057885L1145.7145588485862,111.8632624683473L1150.3442661328124,110.3179574810084L1155.039877546503,109.3907744886051L1159.7968260491073,108.83446469316306L1164.4371704910714,108.50067881589781L1168.9998752436757,108.3004072895387L1173.6491803348215,108.18024437372318L1178.3377388504464,108.10814662423392L1183.0986762872024,108.06488797454034L1187.970957016369,129.63893278472426L1192.70027203311,120.98335967083456L1197.5114469159228,137.3900158025008L1202.4292824293154,125.63400948150047L1207.2405729334077,118.58040568890027L1212.0418621968006,114.34824341334021L1216.690473560268,111.80894604800415L1221.4040640829612,88.68536762880255L1226.2168576636905,74.81122057728143L1230.9758873493304,44.88673234636893L1235.5681911495537,26.932039407821335L1240.2092293191965,37.75922364469268L1244.8685934616817,22.655534186815668L1249.5287669531251,13.593320512089317L1254.5108300874256,8.155992307253557L1259.3615474479166,4.893595384352067L1264.1938810249255,46.13615723061126L1269.1490622116817,70.88169433836684L1273.9691977436755,85.72901660302003L1278.6588546614582,94.63740996181195L1283.350072466518,99.9824459770872L1288.003135249256,103.18946758625222L1292.6661992726933,105.11368055175141L1297.502579594494,106.26820833105089L1302.1463348642114,106.96092499863049L1306.881084081101,107.37655499917834L1311.6330608686756,107.62593299950713L1316.4300721447173,107.77555979970425L1321.1791005896578,107.86533587982264L1325.745158359375,107.9192015278935L1330.4003601357888,107.95152091673604L1335.066950608259,107.97091255004165L1339.8041278720236,86.38254753002504" style="fill: none;" fill="none"></path></g></g></g></g><g opacity="0.2"><g><g><g><path stroke="rgb(187, 187, 187)" stroke-width="2px" d="M105.45134761532738,216L106.85152131324405,108L108.14613278273808,216L109.37900248883929,216L110.6415868638393,108L111.91671614769345,108L113.09923278645833,108L114.28955386160713,108L115.48207174107142,108L116.70973848958333,108L118.06054190104166,108L119.3527831343006,108L120.66323471912202,108L122.04739486979167,108L123.45144188058036,108L124.87225397693453,162L126.09182723586308,162L127.37961704985119,216L128.80736642299107,216L130.2118759188988,216L131.55238903645835,216L132.93915066592263,216L134.2260733203125,216L135.59346838541666,216L137.02006154575895,216L138.37814909784225,216L139.65628453497024,216L140.88337317708334,216L142.1651506845238,216L143.52266013020835,216L144.93439595610118,216L146.27415753534225,216L147.59963988653274,216L148.9163928311012,216L150.1741211123512,216L151.37380751116072,216L152.6410167373512,216L153.9471903348214,216L155.28648942894344,216L156.77204944196427,216L162.71006931733632,216L174.27138794456846,216L185.83403621651786,162L197.3964532459077,108L208.9582921688988,108L220.51961079613096,108L232.08249031063988,108L243.64461828683037,108L255.20819152901788,108L266.7688742392113,54.00000000000002L278.33158032180063,0L289.89284113839284,108L301.4550847358631,54.00000000000002L313.0187157886905,108L324.5795719308036,54.00000000000002L336.1415842857143,108L347.70382788318454,108L359.2657246168155,108L363.95659555803576,108L368.4591194345238,108L380.02176770647327,108L391.5833753869048,108L403.1453877418155,108L414.7086141201637,162L426.2698171261161,108L437.8320029129464,108L449.39418869977675,108L460.9566635398065,108L472.5193696223959,108L484.0810929241071,108L495.6425849832589,108L507.2044817168898,108L518.7674190420387,108L530.3298938820685,108L541.8916749944196,108L553.4525311365327,108L565.0156418936012,108L576.5774808165924,108L588.1406493843006,216L599.7016211476935,162L611.2644428515625,216L622.8254724255952,216L634.387947265625,216L645.9514048865327,216L657.5130125669643,108L669.0743311941965,108L680.6363435491072,108L692.1987027678572,108L703.7614088504465,108L715.3232477734375,108L726.8843929687499,108L738.4474459151786,108L750.0093426488096,108L761.5731471335566,108L773.1337142224703,0L784.6960734412203,0L796.25854828125,54.00000000000002L807.8202137723214,108L819.383729203869,108L830.9441228608631,108L842.506077405134,108L854.0686100558036,108L865.6305646000743,54.00000000000002L877.1944847061012,216L888.7548205524554,216L900.3172375818451,216L911.8797702325149,216L923.4416091555058,216L935.0048933444942,108L946.5655760546875,108L958.1280508947173,108L969.6903523028274,108L981.2520177938987,108L992.8156488467262,108L1004.3760425037201,108L1015.9385751543897,108L1027.500298456101,108L1039.0629467280505,54.00000000000002L1050.6259418638392,54.00000000000002L1062.1867401953125,108L1073.7495040885417,108L1085.311169579613,108L1096.8731819345237,108L1108.4363505022322,108L1119.997437886905,108L1131.5598549162949,108L1143.1214047860865,108L1154.6837640048361,108L1166.2469325725447,108L1177.8082511997766,108L1189.3712463355653,108L1200.9331430691966,108L1212.4951554241072,108L1224.057630264137,108L1235.618891080729,108L1247.1807300037203,108L1258.7429736011904,108L1270.305159388021,108L1281.868848251488,108L1293.4292419084823,108L1304.9915433165922,108L1316.553497860863,108L1328.1161461328127,108L1339.6789678366815,108" style="fill: none;" fill="none"></path></g><g><path stroke="rgb(0, 153, 136)" stroke-width="2px" d="M108.57040506882441,432L113.08032870721725,324L117.76275929501489,378L122.43299183779762,270L126.98546410714286,324L131.48804579427082,216L136.08913681175594,216L140.78844810639882,216L145.38948131324406,216L150.06925261160714,216L154.9348851171875,216L159.55800198846728,162L164.1678802232143,162L168.73237710565476,216L173.42145591703868,162L178.08741047247022,162L182.64335138020834,108L187.12824301153273,108L191.89334281436015,162L196.66838604724703,108L201.42122999441966,108L206.2246582514881,108L210.9388268805803,162L216.01124804501484,108L220.96666047433035,216L225.77488701450895,216L230.43864476562496,216L235.36827364955357,216L240.15487901041664,216L244.70764033296135,216L249.64501584263388,216L254.501572077753,216L259.35067074032736,216L264.18046064918155,216L268.8282048530506,216L273.6320377845982,216L278.48605035156254,108L283.09037876488094,108L287.7138425,162L292.5943323400297,108L304.1137382533482,108L317.99233856956846,108L331.86712338355653,108L345.74046293154765,108L359.60946668154764,162L365.9599654724702,108L370.6024489081101,108L375.2679987890625,108L380.0186459319196,108L384.70847628162204,216L389.36737793898806,216L394.2309292615327,216L398.7847311755952,216L403.61729599516366,216L408.29157528273805,216L412.90081760044643,216L417.62053605096725,216L422.300943266369,216L426.98649562872026,216L431.8560014471726,216L436.5129953534227,216L441.5401507868303,216L446.2232751023065,216L450.8292800241815,162L455.39192696614583,162L460.03458383370537,108L464.7570193843007,108L469.50252138020835,108L474.20472320684524,108L479.0732462444196,108L483.8138921465774,108L488.6739170200893,108L493.579207624628,108L498.66983914062496,108L503.80434893229165,108L508.67194699962795,108L513.5679879017857,108L518.3286362853422,108L523.3341127287947,108L528.4459029389881,108L533.3103792317709,108L538.2501827883185,108L542.9664904110863,108L547.7004880896577,108L552.4497477771578,108L557.1918967559525,108L561.8239742764138,54.00000000000002L566.5761244959077,0L571.3265403962054,0L576.115342561384,0L580.8714817150297,0L585.661902578125,0L590.6329816908482,0L595.4031688299851,54.00000000000002L600.347770669643,108L605.0536723772321,162L609.6063180784971,216L614.4679616499255,216L619.1768695107887,216L623.8072127120536,216L628.5023038299851,162L633.1259409970238,216L637.6839052771578,216L642.1942914006696,108L647.2349745238096,108L651.996605688244,108L656.5408688467262,108L661.0468035509673,108L665.7924789787946,108L670.6594989397321,108L675.3949418843007,108L680.1642040531993,108L685.0363113504463,108L689.6733605859374,108L694.2362965811011,108L698.7706741201637,108L711.8377286737351,108L725.7137853218006,108L739.6092085342262,108L753.4749748883929,108L767.335191421131,108L781.2190525055803,108L789.7745647228422,108L794.398664375,108L799.1665968991815,108L803.9810669884673,108L808.7310782142857,108L813.3765678031995,108L818.061946733631,108L822.7241435974704,108L827.5904698307291,108L832.42679234189,108L837.1842611402532,108L841.935948874628,108L846.6488456696428,108L851.4059097935269,108L856.1366700762647,108L860.8449998307292,108L865.6368659598213,108L870.3750260044643,108L875.091853922991,108L879.8871886904764,108L884.6798641685267,0L889.3281864787945,54.00000000000002L893.9410708668155,54.00000000000002L898.6032099200148,108L903.3198644066221,54.00000000000002L908.1451450855653,0L912.7512078180802,108L917.4736433686757,108L922.508661049107,108L927.131662299107,108L931.8098727101933,108L936.4739773251488,108L941.1253635993303,108L945.8293575558035,108L950.6275828552828,108L955.314117998512,108L960.1219976748512,108L964.7469066759672,108L969.3422166294644,108L974.3030054482887,108L979.0809970238095,108L983.778053703497,108L988.4220402157738,54.00000000000002L993.4002878478422,0L998.3054050204612,0L1002.9054554464287,108L1007.4690273586309,108L1012.1576436848958,108L1016.9671998697917,108L1021.8147954557292,108L1026.6315201599703,108L1031.2914045982145,108L1036.1697554445684,108L1041.196101529018,108L1045.9427019270834,108L1050.7337008965774,108L1055.5280528831845,108L1060.1398388690477,0L1064.8564355450148,0L1069.58366937872,0L1074.394670829613,0L1079.2234779575892,108L1083.8265923474703,0L1088.5086760714287,108L1093.2230759430804,108L1098.0633873883928,108L1102.813687667411,108L1107.4229877957591,108L1112.0944343619792,162L1116.9216806026786,108L1121.4951959449404,216L1126.359730048363,108L1131.4255607998512,108L1136.3066287462798,108L1141.029584592634,108L1145.7145588485862,108L1150.3442661328124,108L1155.039877546503,108L1159.7968260491073,108L1164.4371704910714,108L1168.9998752436757,108L1173.6491803348215,108L1178.3377388504464,108L1183.0986762872024,108L1187.970957016369,162L1192.70027203311,108L1197.5114469159228,162L1202.4292824293154,108L1207.2405729334077,108L1212.0418621968006,108L1216.690473560268,108L1221.4040640829612,54.00000000000002L1226.2168576636905,54.00000000000002L1230.9758873493304,0L1235.5681911495537,0L1240.2092293191965,54.00000000000002L1244.8685934616817,0L1249.5287669531251,0L1254.5108300874256,0L1259.3615474479166,0L1264.1938810249255,108L1269.1490622116817,108L1273.9691977436755,108L1278.6588546614582,108L1283.350072466518,108L1288.003135249256,108L1292.6661992726933,108L1297.502579594494,108L1302.1463348642114,108L1306.881084081101,108L1311.6330608686756,108L1316.4300721447173,108L1321.1791005896578,108L1325.745158359375,108L1330.4003601357888,108L1335.066950608259,108L1339.8041278720236,54.00000000000002" style="fill: none;" fill="none"></path></g></g></g></g></g><g><g opacity="0.294465"><span fill="rgb(0, 0, 0)" stroke="none" stroke-width="1px">Alt + Scroll to Zoom</span></g></g></g><g transform="translate(41, 378)" clip-path="url(#clip_1)"><clipPath id="clip_1"><rect width="1456" height="22"></rect></clipPath><g><g><line x1="0" y1="0" x2="0" y2="5" style="visibility: inherit;" fill="rgb(0, 0, 0)" stroke="rgb(204, 204, 204)" stroke-width="1px"></line><line x1="104.05915178571428" y1="0" x2="104.05915178571428" y2="5" style="visibility: inherit;" fill="rgb(0, 0, 0)" stroke="rgb(204, 204, 204)" stroke-width="1px"></line><line x1="208.11830357142856" y1="0" x2="208.11830357142856" y2="5" style="visibility: inherit;" fill="rgb(0, 0, 0)" stroke="rgb(204, 204, 204)" stroke-width="1px"></line><line x1="312.17745535714283" y1="0" x2="312.17745535714283" y2="5" style="visibility: inherit;" fill="rgb(0, 0, 0)" stroke="rgb(204, 204, 204)" stroke-width="1px"></line><line x1="416.2366071428571" y1="0" x2="416.2366071428571" y2="5" style="visibility: inherit;" fill="rgb(0, 0, 0)" stroke="rgb(204, 204, 204)" stroke-width="1px"></line><line x1="520.2957589285714" y1="0" x2="520.2957589285714" y2="5" style="visibility: inherit;" fill="rgb(0, 0, 0)" stroke="rgb(204, 204, 204)" stroke-width="1px"></line><line x1="624.3549107142857" y1="0" x2="624.3549107142857" y2="5" style="visibility: inherit;" fill="rgb(0, 0, 0)" stroke="rgb(204, 204, 204)" stroke-width="1px"></line><line x1="728.4140625" y1="0" x2="728.4140625" y2="5" style="visibility: inherit;" fill="rgb(0, 0, 0)" stroke="rgb(204, 204, 204)" stroke-width="1px"></line><line x1="832.4732142857142" y1="0" x2="832.4732142857142" y2="5" style="visibility: inherit;" fill="rgb(0, 0, 0)" stroke="rgb(204, 204, 204)" stroke-width="1px"></line><line x1="936.5323660714287" y1="0" x2="936.5323660714287" y2="5" style="visibility: inherit;" fill="rgb(0, 0, 0)" stroke="rgb(204, 204, 204)" stroke-width="1px"></line><line x1="1040.591517857143" y1="0" x2="1040.591517857143" y2="5" style="visibility: inherit;" fill="rgb(0, 0, 0)" stroke="rgb(204, 204, 204)" stroke-width="1px"></line><line x1="1144.650669642857" y1="0" x2="1144.650669642857" y2="5" style="visibility: inherit;" fill="rgb(0, 0, 0)" stroke="rgb(204, 204, 204)" stroke-width="1px"></line><line x1="1248.7098214285713" y1="0" x2="1248.7098214285713" y2="5" style="visibility: inherit;" fill="rgb(0, 0, 0)" stroke="rgb(204, 204, 204)" stroke-width="1px"></line><line x1="1352.7689732142858" y1="0" x2="1352.7689732142858" y2="5" style="visibility: inherit;" fill="rgb(0, 0, 0)" stroke="rgb(204, 204, 204)" stroke-width="1px"></line><line x1="1456.828125" y1="0" x2="1456.828125" y2="5" style="visibility: inherit;" fill="rgb(0, 0, 0)" stroke="rgb(204, 204, 204)" stroke-width="1px"></line></g><g transform="translate(0, 8)"><text x="0" y="0" dx="0em" dy="0.95em" style="text-anchor: middle; visibility: hidden; font-family: Roboto, sans-serif; font-size: 12px; font-weight: 200;" fill="rgb(50, 49, 63)" stroke="none" stroke-width="1px">-0.5</text><text x="104.05915178571428" y="0" dx="0em" dy="0.95em" style="text-anchor: middle; visibility: inherit; font-family: Roboto, sans-serif; font-size: 12px; font-weight: 200;" fill="rgb(50, 49, 63)" stroke="none" stroke-width="1px">0</text><text x="208.11830357142856" y="0" dx="0em" dy="0.95em" style="text-anchor: middle; visibility: inherit; font-family: Roboto, sans-serif; font-size: 12px; font-weight: 200;" fill="rgb(50, 49, 63)" stroke="none" stroke-width="1px">0.5</text><text x="312.17745535714283" y="0" dx="0em" dy="0.95em" style="text-anchor: middle; visibility: inherit; font-family: Roboto, sans-serif; font-size: 12px; font-weight: 200;" fill="rgb(50, 49, 63)" stroke="none" stroke-width="1px">1</text><text x="416.2366071428571" y="0" dx="0em" dy="0.95em" style="text-anchor: middle; visibility: inherit; font-family: Roboto, sans-serif; font-size: 12px; font-weight: 200;" fill="rgb(50, 49, 63)" stroke="none" stroke-width="1px">1.5</text><text x="520.2957589285714" y="0" dx="0em" dy="0.95em" style="text-anchor: middle; visibility: inherit; font-family: Roboto, sans-serif; font-size: 12px; font-weight: 200;" fill="rgb(50, 49, 63)" stroke="none" stroke-width="1px">2</text><text x="624.3549107142857" y="0" dx="0em" dy="0.95em" style="text-anchor: middle; visibility: inherit; font-family: Roboto, sans-serif; font-size: 12px; font-weight: 200;" fill="rgb(50, 49, 63)" stroke="none" stroke-width="1px">2.5</text><text x="728.4140625" y="0" dx="0em" dy="0.95em" style="text-anchor: middle; visibility: inherit; font-family: Roboto, sans-serif; font-size: 12px; font-weight: 200;" fill="rgb(50, 49, 63)" stroke="none" stroke-width="1px">3</text><text x="832.4732142857142" y="0" dx="0em" dy="0.95em" style="text-anchor: middle; visibility: inherit; font-family: Roboto, sans-serif; font-size: 12px; font-weight: 200;" fill="rgb(50, 49, 63)" stroke="none" stroke-width="1px">3.5</text><text x="936.5323660714287" y="0" dx="0em" dy="0.95em" style="text-anchor: middle; visibility: inherit; font-family: Roboto, sans-serif; font-size: 12px; font-weight: 200;" fill="rgb(50, 49, 63)" stroke="none" stroke-width="1px">4</text><text x="1040.591517857143" y="0" dx="0em" dy="0.95em" style="text-anchor: middle; visibility: inherit; font-family: Roboto, sans-serif; font-size: 12px; font-weight: 200;" fill="rgb(50, 49, 63)" stroke="none" stroke-width="1px">4.5</text><text x="1144.650669642857" y="0" dx="0em" dy="0.95em" style="text-anchor: middle; visibility: inherit; font-family: Roboto, sans-serif; font-size: 12px; font-weight: 200;" fill="rgb(50, 49, 63)" stroke="none" stroke-width="1px">5</text><text x="1248.7098214285713" y="0" dx="0em" dy="0.95em" style="text-anchor: middle; visibility: inherit; font-family: Roboto, sans-serif; font-size: 12px; font-weight: 200;" fill="rgb(50, 49, 63)" stroke="none" stroke-width="1px">5.5</text><text x="1352.7689732142858" y="0" dx="0em" dy="0.95em" style="text-anchor: middle; visibility: inherit; font-family: Roboto, sans-serif; font-size: 12px; font-weight: 200;" fill="rgb(50, 49, 63)" stroke="none" stroke-width="1px">6</text><text x="1456.828125" y="0" dx="0em" dy="0.95em" style="text-anchor: middle; visibility: hidden; font-family: Roboto, sans-serif; font-size: 12px; font-weight: 200;" fill="rgb(50, 49, 63)" stroke="none" stroke-width="1px">6.5</text></g><line x1="0" y1="0" x2="1456.828125" y2="0" fill="rgb(0, 0, 0)" stroke="rgb(204, 204, 204)" stroke-width="1px"></line></g></g></g></g></svg>