<svg viewBox="0 0 1498 400" xmlns="http://www.w3.org/2000/svg"><g><g><g><g><g><line x1="30.78125" y1="378" x2="25.78125" y2="378" style="visibility: inherit;" fill="rgb(0, 0, 0)" stroke="rgb(204, 204, 204)" stroke-width="1px"></line><line x1="30.78125" y1="330.75" x2="25.78125" y2="330.75" style="visibility: inherit;" fill="rgb(0, 0, 0)" stroke="rgb(204, 204, 204)" stroke-width="1px"></line><line x1="30.78125" y1="283.5" x2="25.78125" y2="283.5" style="visibility: inherit;" fill="rgb(0, 0, 0)" stroke="rgb(204, 204, 204)" stroke-width="1px"></line><line x1="30.78125" y1="236.25" x2="25.78125" y2="236.25" style="visibility: inherit;" fill="rgb(0, 0, 0)" stroke="rgb(204, 204, 204)" stroke-width="1px"></line><line x1="30.78125" y1="189" x2="25.78125" y2="189" style="visibility: inherit;" fill="rgb(0, 0, 0)" stroke="rgb(204, 204, 204)" stroke-width="1px"></line><line x1="30.78125" y1="141.75" x2="25.78125" y2="141.75" style="visibility: inherit;" fill="rgb(0, 0, 0)" stroke="rgb(204, 204, 204)" stroke-width="1px"></line><line x1="30.78125" y1="94.5" x2="25.78125" y2="94.5" style="visibility: inherit;" fill="rgb(0, 0, 0)" stroke="rgb(204, 204, 204)" stroke-width="1px"></line><line x1="30.78125" y1="47.25" x2="25.78125" y2="47.25" style="visibility: inherit;" fill="rgb(0, 0, 0)" stroke="rgb(204, 204, 204)" stroke-width="1px"></line><line x1="30.78125" y1="0" x2="25.78125" y2="0" style="visibility: inherit;" fill="rgb(0, 0, 0)" stroke="rgb(204, 204, 204)" stroke-width="1px"></line></g><g transform="translate(20.78125, 0)"><text x="0" y="378" dx="0em" dy="0.3em" style="text-anchor: end; visibility: hidden; font-family: Roboto, sans-serif; font-size: 12px; font-weight: 200;" fill="rgb(50, 49, 63)" stroke="none" stroke-width="1px">-1</text><text x="0" y="330.75" dx="0em" dy="0.3em" style="text-anchor: end; visibility: inherit; font-family: Roboto, sans-serif; font-size: 12px; font-weight: 200;" fill="rgb(50, 49, 63)" stroke="none" stroke-width="1px">0</text><text x="0" y="283.5" dx="0em" dy="0.3em" style="text-anchor: end; visibility: inherit; font-family: Roboto, sans-serif; font-size: 12px; font-weight: 200;" fill="rgb(50, 49, 63)" stroke="none" stroke-width="1px">1</text><text x="0" y="236.25" dx="0em" dy="0.3em" style="text-anchor: end; visibility: inherit; font-family: Roboto, sans-serif; font-size: 12px; font-weight: 200;" fill="rgb(50, 49, 63)" stroke="none" stroke-width="1px">2</text><text x="0" y="189" dx="0em" dy="0.3em" style="text-anchor: end; visibility: inherit; font-family: Roboto, sans-serif; font-size: 12px; font-weight: 200;" fill="rgb(50, 49, 63)" stroke="none" stroke-width="1px">3</text><text x="0" y="141.75" dx="0em" dy="0.3em" style="text-anchor: end; visibility: inherit; font-family: Roboto, sans-serif; font-size: 12px; font-weight: 200;" fill="rgb(50, 49, 63)" stroke="none" stroke-width="1px">4</text><text x="0" y="94.5" dx="0em" dy="0.3em" style="text-anchor: end; visibility: inherit; font-family: Roboto, sans-serif; font-size: 12px; font-weight: 200;" fill="rgb(50, 49, 63)" stroke="none" stroke-width="1px">5</text><text x="0" y="47.25" dx="0em" dy="0.3em" style="text-anchor: end; visibility: inherit; font-family: Roboto, sans-serif; font-size: 12px; font-weight: 200;" fill="rgb(50, 49, 63)" stroke="none" stroke-width="1px">6</text><text x="0" y="0" dx="0em" dy="0.3em" style="text-anchor: end; visibility: hidden; font-family: Roboto, sans-serif; font-size: 12px; font-weight: 200;" fill="rgb(50, 49, 63)" stroke="none" stroke-width="1px">7</text></g><line x1="30.78125" y1="0" x2="30.78125" y2="378" fill="rgb(0, 0, 0)" stroke="rgb(204, 204, 204)" stroke-width="1px"></line></g></g><g transform="translate(30, 0)" clip-path="url(#clip_0)"><clipPath id="clip_0"><rect width="1467" height="378"></rect></clipPath><g><g><g><line x1="0" y1="0" x2="0" y2="378" fill="rgb(0, 0, 0)" stroke="rgb(60, 60, 60)" stroke-width="1px" opacity="0.25"></line><line x1="104.80133928571428" y1="0" x2="104.80133928571428" y2="378" fill="rgb(0, 0, 0)" stroke="rgb(60, 60, 60)" stroke-width="1px" opacity="0.25"></line><line x1="209.60267857142856" y1="0" x2="209.60267857142856" y2="378" fill="rgb(0, 0, 0)" stroke="rgb(60, 60, 60)" stroke-width="1px" opacity="0.25"></line><line x1="314.40401785714283" y1="0" x2="314.40401785714283" y2="378" fill="rgb(0, 0, 0)" stroke="rgb(60, 60, 60)" stroke-width="1px" opacity="0.25"></line><line x1="419.2053571428571" y1="0" x2="419.2053571428571" y2="378" fill="rgb(0, 0, 0)" stroke="rgb(60, 60, 60)" stroke-width="1px" opacity="0.25"></line><line x1="524.0066964285714" y1="0" x2="524.0066964285714" y2="378" fill="rgb(0, 0, 0)" stroke="rgb(60, 60, 60)" stroke-width="1px" opacity="0.25"></line><line x1="628.8080357142857" y1="0" x2="628.8080357142857" y2="378" fill="rgb(0, 0, 0)" stroke="rgb(60, 60, 60)" stroke-width="1px" opacity="0.25"></line><line x1="733.609375" y1="0" x2="733.609375" y2="378" fill="rgb(0, 0, 0)" stroke="rgb(60, 60, 60)" stroke-width="1px" opacity="0.25"></line><line x1="838.4107142857142" y1="0" x2="838.4107142857142" y2="378" fill="rgb(0, 0, 0)" stroke="rgb(60, 60, 60)" stroke-width="1px" opacity="0.25"></line><line x1="943.2120535714287" y1="0" x2="943.2120535714287" y2="378" fill="rgb(0, 0, 0)" stroke="rgb(60, 60, 60)" stroke-width="1px" opacity="0.25"></line><line x1="1048.013392857143" y1="0" x2="1048.013392857143" y2="378" fill="rgb(0, 0, 0)" stroke="rgb(60, 60, 60)" stroke-width="1px" opacity="0.25"></line><line x1="1152.814732142857" y1="0" x2="1152.814732142857" y2="378" fill="rgb(0, 0, 0)" stroke="rgb(60, 60, 60)" stroke-width="1px" opacity="0.25"></line><line x1="1257.6160714285713" y1="0" x2="1257.6160714285713" y2="378" fill="rgb(0, 0, 0)" stroke="rgb(60, 60, 60)" stroke-width="1px" opacity="0.25"></line><line x1="1362.4174107142858" y1="0" x2="1362.4174107142858" y2="378" fill="rgb(0, 0, 0)" stroke="rgb(60, 60, 60)" stroke-width="1px" opacity="0.25"></line><line x1="1467.21875" y1="0" x2="1467.21875" y2="378" fill="rgb(0, 0, 0)" stroke="rgb(60, 60, 60)" stroke-width="1px" opacity="0.25"></line></g><g><line x1="0" y1="378" x2="1467.21875" y2="378" fill="rgb(0, 0, 0)" stroke="rgb(60, 60, 60)" stroke-width="1px" opacity="0.25"></line><line x1="0" y1="330.75" x2="1467.21875" y2="330.75" fill="rgb(0, 0, 0)" stroke="rgb(60, 60, 60)" stroke-width="1px" opacity="0.25"></line><line x1="0" y1="283.5" x2="1467.21875" y2="283.5" fill="rgb(0, 0, 0)" stroke="rgb(60, 60, 60)" stroke-width="1px" opacity="0.25"></line><line x1="0" y1="236.25" x2="1467.21875" y2="236.25" fill="rgb(0, 0, 0)" stroke="rgb(60, 60, 60)" stroke-width="1px" opacity="0.25"></line><line x1="0" y1="189" x2="1467.21875" y2="189" fill="rgb(0, 0, 0)" stroke="rgb(60, 60, 60)" stroke-width="1px" opacity="0.25"></line><line x1="0" y1="141.75" x2="1467.21875" y2="141.75" fill="rgb(0, 0, 0)" stroke="rgb(60, 60, 60)" stroke-width="1px" opacity="0.25"></line><line x1="0" y1="94.5" x2="1467.21875" y2="94.5" fill="rgb(0, 0, 0)" stroke="rgb(60, 60, 60)" stroke-width="1px" opacity="0.25"></line><line x1="0" y1="47.25" x2="1467.21875" y2="47.25" fill="rgb(0, 0, 0)" stroke="rgb(60, 60, 60)" stroke-width="1px" opacity="0.25"></line><line x1="0" y1="0" x2="1467.21875" y2="0" fill="rgb(0, 0, 0)" stroke="rgb(60, 60, 60)" stroke-width="1px" opacity="0.25"></line></g></g></g><g><g><line x1="0" y1="330.75" x2="1467.21875" y2="330.75" fill="rgb(0, 0, 0)" stroke="rgb(153, 153, 153)" stroke-width="1.5px"></line></g></g><g><g><line x1="104.80133928571428" y1="0" x2="104.80133928571428" y2="378" fill="rgb(0, 0, 0)" stroke="rgb(153, 153, 153)" stroke-width="1.5px"></line></g></g><g><g><g><g><g><path stroke="rgb(204, 51, 17)" stroke-width="2px" d="M104.80133928571428,311.84999971836805L118.76262436755952,301.12568665947765L132.72454990203371,294.1801834989871L146.698352921627,290.30210954775373L160.6715154885913,283.5773872200924L174.61131629588294,266.44155261793725L188.58214994419646,255.6572179807135L202.53772917534724,250.40065042377083L216.49587021701387,247.0696708786382L230.4445209151786,245.43236294112336L244.41616968501984,254.98371847728586L258.37885211805553,252.6465220809907L272.3275028162203,249.67352183817943L286.295599985119,232.17010226660048L300.2438431225198,197.44688662523356L314.2153172234623,173.8634033777702L328.16367680679565,158.53864604187257L342.1353837996032,147.05317669991382L356.11180685267857,153.26964036839968L370.0729754885913,173.77303648219902L384.03839440104167,190.1885207649006L398.01633125124005,215.36396556573192L411.99060005456346,229.2421318013554L425.95811499379965,229.62384095571994L439.93977811383934,217.34680768769934L453.92394482142856,209.53368418749983L467.8899459635417,205.20249119766862L481.8587418080357,202.24430750961793L495.8458196639385,196.6881705027423L509.82823968253973,204.74774354664075L523.8040805059524,209.0993540931252L537.7734003571428,227.26637676393239L551.7593719766865,238.24967988149783L565.7146018700397,244.75657097753432L579.6822914781746,249.9352523159534L593.6578994097222,252.43745480206906L607.6127799652778,254.1055947658974L621.5839047284226,262.01346395076484L635.547402282986,268.1530296203853L649.5195750595238,269.9180285833445L663.4777743241567,258.9989531490349L677.4504711073909,252.78691043871572L691.4306204303075,214.80184865342292L705.3961557886905,191.2858819464637L719.3438749193948,181.50081679122022L733.3049853323413,169.44476163846386L747.2865902294146,174.95246873197982L761.2555025198412,184.73537577351854L775.225753938492,180.06960232943524L789.19839249876,177.74388375214977L803.1476254265873,179.31640721758322L817.1170617237103,175.85025895475403L831.0762507787698,180.26680062318053L845.0459199677579,185.1966556436126L859.0080783940973,188.73939879693637L872.96878124628,207.51986579870726L886.9484647854662,226.83060360417528L900.9056742596724,237.44009660760167L914.879710171131,242.95685684132386L928.8274875248017,239.62346319823132L942.8090924218749,233.6027772454538L956.7628667410714,228.9745485322545L970.7264807415675,228.16204144578396L984.6990610788689,233.48811676514882L998.66634312624,238.19831773288692L1012.6488213678076,240.16471286206033L1026.6184323338296,237.041470644406L1040.5947971639384,237.95909496398662L1054.558061826637,238.31885827929906L1068.5567260528273,239.6030521354147L1082.5308784102183,232.12977554566075L1096.4908825868054,231.29233497480396L1110.465617173859,227.33234506904986L1124.4395948623512,226.48000699317402L1138.4050137748015,232.0521358253714L1152.3621650260416,235.69319497359734L1166.3449926054068,240.29176096208658L1180.316408483383,244.01476899437765L1194.27938203125,254.28671005757252L1208.2722239608136,260.84308020705936L1222.2431158320933,248.7983673598466L1236.2310670324903,240.65325728571995L1250.2142439496527,221.48511287877906L1264.1920643539186,207.48929162806243L1278.1666824950396,205.67129793158747L1292.1586510801092,203.602882876346L1306.1867179042658,222.40748105904427L1320.1675659027778,237.18699798858742L1334.1591269270832,247.8631524913107" style="fill: none;" fill="none"></path></g></g></g></g><g opacity="0.2"><g><g><g><path stroke="rgb(204, 51, 17)" stroke-width="2px" d="M104.80133928571428,311.84999971836805L118.76262436755952,294.6910988241434L132.72454990203371,287.51250046491623L146.698352921627,285.7414945811033L160.6715154885913,274.7975897490978L174.61131629588294,242.7365244626999L188.58214994419646,240.23544690012932L202.53772917534724,242.7365244626999L216.49587021701387,242.15712305903435L230.4445209151786,243.0011514723301L244.41616968501984,269.22412168979645L258.37885211805553,249.15344640612602L272.3275028162203,245.22372883558273L286.295599985119,205.94926393032074L300.2438431225198,145.40287899971008L314.2153172234623,138.50481140613556L328.16367680679565,135.5579949617386L342.1353837996032,129.8278888463974L356.11180685267857,162.5933888554573L370.0729754885913,204.5262565612793L384.03839440104167,214.8108469247818L398.01633125124005,253.12630435824394L411.99060005456346,250.05910715460777L425.95811499379965,230.19640016555786L439.93977811383934,198.93134504556656L453.92394482142856,197.81403225660324L467.8899459635417,198.70571279525757L481.8587418080357,197.8070365190506L495.8458196639385,188.3539701104164L509.82823968253973,216.83709865808487L523.8040805059524,215.6267684698105L537.7734003571428,254.51690715551376L551.7593719766865,254.72463324666023L565.7146018700397,254.51690715551376L579.6822914781746,257.7032741010189L593.6578994097222,256.1907584667206L607.6127799652778,256.60780468583107L621.5839047284226,273.87526765465736L635.547402282986,277.36237809062004L649.5195750595238,272.5655270218849L663.4777743241567,242.6203400194645L677.4504711073909,243.4688463807106L691.4306204303075,157.82425600290298L705.3961557886905,156.01193189620972L719.3438749193948,166.82321906089783L733.3049853323413,151.3606789112091L747.2865902294146,183.21402937173843L761.2555025198412,199.40973633527756L775.225753938492,173.0709421634674L789.19839249876,174.25530588626862L803.1476254265873,181.67519241571426L817.1170617237103,170.65103656053543L831.0762507787698,186.8916131258011L845.0459199677579,192.59143817424774L859.0080783940973,194.0535135269165L872.96878124628,235.69056630134583L886.9484647854662,255.79671031236649L900.9056742596724,253.35433611273766L914.879710171131,251.23199719190598L928.8274875248017,234.623372733593L942.8090924218749,224.571748316288L956.7628667410714,222.03220546245575L970.7264807415675,226.9432808160782L984.6990610788689,241.47722974419594L998.66634312624,245.26361918449402L1012.6488213678076,243.11430555582047L1026.6184323338296,232.3566073179245L1040.5947971639384,239.33553144335747L1054.558061826637,238.85850325226784L1068.5567260528273,241.5293429195881L1082.5308784102183,220.91986066102982L1096.4908825868054,230.03617411851883L1110.465617173859,221.3923602104187L1124.4395948623512,225.2014998793602L1138.4050137748015,240.41032907366753L1152.3621650260416,241.1547836959362L1166.3449926054068,247.1896099448204L1180.316408483383,249.59928104281425L1194.27938203125,269.69462165236473L1208.2722239608136,270.6776354312897L1222.2431158320933,230.7312980890274L1236.2310670324903,228.43559217453003L1250.2142439496527,192.73289626836777L1264.1920643539186,186.49555975198746L1278.1666824950396,202.94430738687515L1292.1586510801092,200.50026029348373L1306.1867179042658,250.61437833309174L1320.1675659027778,259.35627338290215L1334.1591269270832,263.87738424539566" style="fill: none;" fill="none"></path></g></g></g></g></g><g><g opacity="0.0456012"><span fill="rgb(0, 0, 0)" stroke="none" stroke-width="1px">Alt + Scroll to Zoom</span></g></g></g><g transform="translate(30, 378)" clip-path="url(#clip_1)"><clipPath id="clip_1"><rect width="1467" height="22"></rect></clipPath><g><g><line x1="0" y1="0" x2="0" y2="5" style="visibility: inherit;" fill="rgb(0, 0, 0)" stroke="rgb(204, 204, 204)" stroke-width="1px"></line><line x1="104.80133928571428" y1="0" x2="104.80133928571428" y2="5" style="visibility: inherit;" fill="rgb(0, 0, 0)" stroke="rgb(204, 204, 204)" stroke-width="1px"></line><line x1="209.60267857142856" y1="0" x2="209.60267857142856" y2="5" style="visibility: inherit;" fill="rgb(0, 0, 0)" stroke="rgb(204, 204, 204)" stroke-width="1px"></line><line x1="314.40401785714283" y1="0" x2="314.40401785714283" y2="5" style="visibility: inherit;" fill="rgb(0, 0, 0)" stroke="rgb(204, 204, 204)" stroke-width="1px"></line><line x1="419.2053571428571" y1="0" x2="419.2053571428571" y2="5" style="visibility: inherit;" fill="rgb(0, 0, 0)" stroke="rgb(204, 204, 204)" stroke-width="1px"></line><line x1="524.0066964285714" y1="0" x2="524.0066964285714" y2="5" style="visibility: inherit;" fill="rgb(0, 0, 0)" stroke="rgb(204, 204, 204)" stroke-width="1px"></line><line x1="628.8080357142857" y1="0" x2="628.8080357142857" y2="5" style="visibility: inherit;" fill="rgb(0, 0, 0)" stroke="rgb(204, 204, 204)" stroke-width="1px"></line><line x1="733.609375" y1="0" x2="733.609375" y2="5" style="visibility: inherit;" fill="rgb(0, 0, 0)" stroke="rgb(204, 204, 204)" stroke-width="1px"></line><line x1="838.4107142857142" y1="0" x2="838.4107142857142" y2="5" style="visibility: inherit;" fill="rgb(0, 0, 0)" stroke="rgb(204, 204, 204)" stroke-width="1px"></line><line x1="943.2120535714287" y1="0" x2="943.2120535714287" y2="5" style="visibility: inherit;" fill="rgb(0, 0, 0)" stroke="rgb(204, 204, 204)" stroke-width="1px"></line><line x1="1048.013392857143" y1="0" x2="1048.013392857143" y2="5" style="visibility: inherit;" fill="rgb(0, 0, 0)" stroke="rgb(204, 204, 204)" stroke-width="1px"></line><line x1="1152.814732142857" y1="0" x2="1152.814732142857" y2="5" style="visibility: inherit;" fill="rgb(0, 0, 0)" stroke="rgb(204, 204, 204)" stroke-width="1px"></line><line x1="1257.6160714285713" y1="0" x2="1257.6160714285713" y2="5" style="visibility: inherit;" fill="rgb(0, 0, 0)" stroke="rgb(204, 204, 204)" stroke-width="1px"></line><line x1="1362.4174107142858" y1="0" x2="1362.4174107142858" y2="5" style="visibility: inherit;" fill="rgb(0, 0, 0)" stroke="rgb(204, 204, 204)" stroke-width="1px"></line><line x1="1467.21875" y1="0" x2="1467.21875" y2="5" style="visibility: inherit;" fill="rgb(0, 0, 0)" stroke="rgb(204, 204, 204)" stroke-width="1px"></line></g><g transform="translate(0, 8)"><text x="0" y="0" dx="0em" dy="0.95em" style="text-anchor: middle; visibility: hidden; font-family: Roboto, sans-serif; font-size: 12px; font-weight: 200;" fill="rgb(50, 49, 63)" stroke="none" stroke-width="1px">-0.5</text><text x="104.80133928571428" y="0" dx="0em" dy="0.95em" style="text-anchor: middle; visibility: inherit; font-family: Roboto, sans-serif; font-size: 12px; font-weight: 200;" fill="rgb(50, 49, 63)" stroke="none" stroke-width="1px">0</text><text x="209.60267857142856" y="0" dx="0em" dy="0.95em" style="text-anchor: middle; visibility: inherit; font-family: Roboto, sans-serif; font-size: 12px; font-weight: 200;" fill="rgb(50, 49, 63)" stroke="none" stroke-width="1px">0.5</text><text x="314.40401785714283" y="0" dx="0em" dy="0.95em" style="text-anchor: middle; visibility: inherit; font-family: Roboto, sans-serif; font-size: 12px; font-weight: 200;" fill="rgb(50, 49, 63)" stroke="none" stroke-width="1px">1</text><text x="419.2053571428571" y="0" dx="0em" dy="0.95em" style="text-anchor: middle; visibility: inherit; font-family: Roboto, sans-serif; font-size: 12px; font-weight: 200;" fill="rgb(50, 49, 63)" stroke="none" stroke-width="1px">1.5</text><text x="524.0066964285714" y="0" dx="0em" dy="0.95em" style="text-anchor: middle; visibility: inherit; font-family: Roboto, sans-serif; font-size: 12px; font-weight: 200;" fill="rgb(50, 49, 63)" stroke="none" stroke-width="1px">2</text><text x="628.8080357142857" y="0" dx="0em" dy="0.95em" style="text-anchor: middle; visibility: inherit; font-family: Roboto, sans-serif; font-size: 12px; font-weight: 200;" fill="rgb(50, 49, 63)" stroke="none" stroke-width="1px">2.5</text><text x="733.609375" y="0" dx="0em" dy="0.95em" style="text-anchor: middle; visibility: inherit; font-family: Roboto, sans-serif; font-size: 12px; font-weight: 200;" fill="rgb(50, 49, 63)" stroke="none" stroke-width="1px">3</text><text x="838.4107142857142" y="0" dx="0em" dy="0.95em" style="text-anchor: middle; visibility: inherit; font-family: Roboto, sans-serif; font-size: 12px; font-weight: 200;" fill="rgb(50, 49, 63)" stroke="none" stroke-width="1px">3.5</text><text x="943.2120535714287" y="0" dx="0em" dy="0.95em" style="text-anchor: middle; visibility: inherit; font-family: Roboto, sans-serif; font-size: 12px; font-weight: 200;" fill="rgb(50, 49, 63)" stroke="none" stroke-width="1px">4</text><text x="1048.013392857143" y="0" dx="0em" dy="0.95em" style="text-anchor: middle; visibility: inherit; font-family: Roboto, sans-serif; font-size: 12px; font-weight: 200;" fill="rgb(50, 49, 63)" stroke="none" stroke-width="1px">4.5</text><text x="1152.814732142857" y="0" dx="0em" dy="0.95em" style="text-anchor: middle; visibility: inherit; font-family: Roboto, sans-serif; font-size: 12px; font-weight: 200;" fill="rgb(50, 49, 63)" stroke="none" stroke-width="1px">5</text><text x="1257.6160714285713" y="0" dx="0em" dy="0.95em" style="text-anchor: middle; visibility: inherit; font-family: Roboto, sans-serif; font-size: 12px; font-weight: 200;" fill="rgb(50, 49, 63)" stroke="none" stroke-width="1px">5.5</text><text x="1362.4174107142858" y="0" dx="0em" dy="0.95em" style="text-anchor: middle; visibility: inherit; font-family: Roboto, sans-serif; font-size: 12px; font-weight: 200;" fill="rgb(50, 49, 63)" stroke="none" stroke-width="1px">6</text><text x="1467.21875" y="0" dx="0em" dy="0.95em" style="text-anchor: middle; visibility: hidden; font-family: Roboto, sans-serif; font-size: 12px; font-weight: 200;" fill="rgb(50, 49, 63)" stroke="none" stroke-width="1px">6.5</text></g><line x1="0" y1="0" x2="1467.21875" y2="0" fill="rgb(0, 0, 0)" stroke="rgb(204, 204, 204)" stroke-width="1px"></line></g></g></g></g></svg>