<svg viewBox="0 0 1498 400" xmlns="http://www.w3.org/2000/svg"><g><g><g><g><g><line x1="30.78125" y1="378" x2="25.78125" y2="378" style="visibility: inherit;" fill="rgb(0, 0, 0)" stroke="rgb(204, 204, 204)" stroke-width="1px"></line><line x1="30.78125" y1="330.75" x2="25.78125" y2="330.75" style="visibility: inherit;" fill="rgb(0, 0, 0)" stroke="rgb(204, 204, 204)" stroke-width="1px"></line><line x1="30.78125" y1="283.5" x2="25.78125" y2="283.5" style="visibility: inherit;" fill="rgb(0, 0, 0)" stroke="rgb(204, 204, 204)" stroke-width="1px"></line><line x1="30.78125" y1="236.25" x2="25.78125" y2="236.25" style="visibility: inherit;" fill="rgb(0, 0, 0)" stroke="rgb(204, 204, 204)" stroke-width="1px"></line><line x1="30.78125" y1="189" x2="25.78125" y2="189" style="visibility: inherit;" fill="rgb(0, 0, 0)" stroke="rgb(204, 204, 204)" stroke-width="1px"></line><line x1="30.78125" y1="141.75" x2="25.78125" y2="141.75" style="visibility: inherit;" fill="rgb(0, 0, 0)" stroke="rgb(204, 204, 204)" stroke-width="1px"></line><line x1="30.78125" y1="94.5" x2="25.78125" y2="94.5" style="visibility: inherit;" fill="rgb(0, 0, 0)" stroke="rgb(204, 204, 204)" stroke-width="1px"></line><line x1="30.78125" y1="47.25" x2="25.78125" y2="47.25" style="visibility: inherit;" fill="rgb(0, 0, 0)" stroke="rgb(204, 204, 204)" stroke-width="1px"></line><line x1="30.78125" y1="0" x2="25.78125" y2="0" style="visibility: inherit;" fill="rgb(0, 0, 0)" stroke="rgb(204, 204, 204)" stroke-width="1px"></line></g><g transform="translate(20.78125, 0)"><text x="0" y="378" dx="0em" dy="0.3em" style="text-anchor: end; visibility: hidden; font-family: Roboto, sans-serif; font-size: 12px; font-weight: 200;" fill="rgb(50, 49, 63)" stroke="none" stroke-width="1px">-1</text><text x="0" y="330.75" dx="0em" dy="0.3em" style="text-anchor: end; visibility: inherit; font-family: Roboto, sans-serif; font-size: 12px; font-weight: 200;" fill="rgb(50, 49, 63)" stroke="none" stroke-width="1px">0</text><text x="0" y="283.5" dx="0em" dy="0.3em" style="text-anchor: end; visibility: inherit; font-family: Roboto, sans-serif; font-size: 12px; font-weight: 200;" fill="rgb(50, 49, 63)" stroke="none" stroke-width="1px">1</text><text x="0" y="236.25" dx="0em" dy="0.3em" style="text-anchor: end; visibility: inherit; font-family: Roboto, sans-serif; font-size: 12px; font-weight: 200;" fill="rgb(50, 49, 63)" stroke="none" stroke-width="1px">2</text><text x="0" y="189" dx="0em" dy="0.3em" style="text-anchor: end; visibility: inherit; font-family: Roboto, sans-serif; font-size: 12px; font-weight: 200;" fill="rgb(50, 49, 63)" stroke="none" stroke-width="1px">3</text><text x="0" y="141.75" dx="0em" dy="0.3em" style="text-anchor: end; visibility: inherit; font-family: Roboto, sans-serif; font-size: 12px; font-weight: 200;" fill="rgb(50, 49, 63)" stroke="none" stroke-width="1px">4</text><text x="0" y="94.5" dx="0em" dy="0.3em" style="text-anchor: end; visibility: inherit; font-family: Roboto, sans-serif; font-size: 12px; font-weight: 200;" fill="rgb(50, 49, 63)" stroke="none" stroke-width="1px">5</text><text x="0" y="47.25" dx="0em" dy="0.3em" style="text-anchor: end; visibility: inherit; font-family: Roboto, sans-serif; font-size: 12px; font-weight: 200;" fill="rgb(50, 49, 63)" stroke="none" stroke-width="1px">6</text><text x="0" y="0" dx="0em" dy="0.3em" style="text-anchor: end; visibility: hidden; font-family: Roboto, sans-serif; font-size: 12px; font-weight: 200;" fill="rgb(50, 49, 63)" stroke="none" stroke-width="1px">7</text></g><line x1="30.78125" y1="0" x2="30.78125" y2="378" fill="rgb(0, 0, 0)" stroke="rgb(204, 204, 204)" stroke-width="1px"></line></g></g><g transform="translate(30, 0)" clip-path="url(#clip_0)"><clipPath id="clip_0"><rect width="1467" height="378"></rect></clipPath><g><g><g><line x1="0" y1="0" x2="0" y2="378" fill="rgb(0, 0, 0)" stroke="rgb(60, 60, 60)" stroke-width="1px" opacity="0.25"></line><line x1="104.80133928571428" y1="0" x2="104.80133928571428" y2="378" fill="rgb(0, 0, 0)" stroke="rgb(60, 60, 60)" stroke-width="1px" opacity="0.25"></line><line x1="209.60267857142856" y1="0" x2="209.60267857142856" y2="378" fill="rgb(0, 0, 0)" stroke="rgb(60, 60, 60)" stroke-width="1px" opacity="0.25"></line><line x1="314.40401785714283" y1="0" x2="314.40401785714283" y2="378" fill="rgb(0, 0, 0)" stroke="rgb(60, 60, 60)" stroke-width="1px" opacity="0.25"></line><line x1="419.2053571428571" y1="0" x2="419.2053571428571" y2="378" fill="rgb(0, 0, 0)" stroke="rgb(60, 60, 60)" stroke-width="1px" opacity="0.25"></line><line x1="524.0066964285714" y1="0" x2="524.0066964285714" y2="378" fill="rgb(0, 0, 0)" stroke="rgb(60, 60, 60)" stroke-width="1px" opacity="0.25"></line><line x1="628.8080357142857" y1="0" x2="628.8080357142857" y2="378" fill="rgb(0, 0, 0)" stroke="rgb(60, 60, 60)" stroke-width="1px" opacity="0.25"></line><line x1="733.609375" y1="0" x2="733.609375" y2="378" fill="rgb(0, 0, 0)" stroke="rgb(60, 60, 60)" stroke-width="1px" opacity="0.25"></line><line x1="838.4107142857142" y1="0" x2="838.4107142857142" y2="378" fill="rgb(0, 0, 0)" stroke="rgb(60, 60, 60)" stroke-width="1px" opacity="0.25"></line><line x1="943.2120535714287" y1="0" x2="943.2120535714287" y2="378" fill="rgb(0, 0, 0)" stroke="rgb(60, 60, 60)" stroke-width="1px" opacity="0.25"></line><line x1="1048.013392857143" y1="0" x2="1048.013392857143" y2="378" fill="rgb(0, 0, 0)" stroke="rgb(60, 60, 60)" stroke-width="1px" opacity="0.25"></line><line x1="1152.814732142857" y1="0" x2="1152.814732142857" y2="378" fill="rgb(0, 0, 0)" stroke="rgb(60, 60, 60)" stroke-width="1px" opacity="0.25"></line><line x1="1257.6160714285713" y1="0" x2="1257.6160714285713" y2="378" fill="rgb(0, 0, 0)" stroke="rgb(60, 60, 60)" stroke-width="1px" opacity="0.25"></line><line x1="1362.4174107142858" y1="0" x2="1362.4174107142858" y2="378" fill="rgb(0, 0, 0)" stroke="rgb(60, 60, 60)" stroke-width="1px" opacity="0.25"></line><line x1="1467.21875" y1="0" x2="1467.21875" y2="378" fill="rgb(0, 0, 0)" stroke="rgb(60, 60, 60)" stroke-width="1px" opacity="0.25"></line></g><g><line x1="0" y1="378" x2="1467.21875" y2="378" fill="rgb(0, 0, 0)" stroke="rgb(60, 60, 60)" stroke-width="1px" opacity="0.25"></line><line x1="0" y1="330.75" x2="1467.21875" y2="330.75" fill="rgb(0, 0, 0)" stroke="rgb(60, 60, 60)" stroke-width="1px" opacity="0.25"></line><line x1="0" y1="283.5" x2="1467.21875" y2="283.5" fill="rgb(0, 0, 0)" stroke="rgb(60, 60, 60)" stroke-width="1px" opacity="0.25"></line><line x1="0" y1="236.25" x2="1467.21875" y2="236.25" fill="rgb(0, 0, 0)" stroke="rgb(60, 60, 60)" stroke-width="1px" opacity="0.25"></line><line x1="0" y1="189" x2="1467.21875" y2="189" fill="rgb(0, 0, 0)" stroke="rgb(60, 60, 60)" stroke-width="1px" opacity="0.25"></line><line x1="0" y1="141.75" x2="1467.21875" y2="141.75" fill="rgb(0, 0, 0)" stroke="rgb(60, 60, 60)" stroke-width="1px" opacity="0.25"></line><line x1="0" y1="94.5" x2="1467.21875" y2="94.5" fill="rgb(0, 0, 0)" stroke="rgb(60, 60, 60)" stroke-width="1px" opacity="0.25"></line><line x1="0" y1="47.25" x2="1467.21875" y2="47.25" fill="rgb(0, 0, 0)" stroke="rgb(60, 60, 60)" stroke-width="1px" opacity="0.25"></line><line x1="0" y1="0" x2="1467.21875" y2="0" fill="rgb(0, 0, 0)" stroke="rgb(60, 60, 60)" stroke-width="1px" opacity="0.25"></line></g></g></g><g><g><line x1="0" y1="330.75" x2="1467.21875" y2="330.75" fill="rgb(0, 0, 0)" stroke="rgb(153, 153, 153)" stroke-width="1.5px"></line></g></g><g><g><line x1="104.80133928571428" y1="0" x2="104.80133928571428" y2="378" fill="rgb(0, 0, 0)" stroke="rgb(153, 153, 153)" stroke-width="1.5px"></line></g></g><g><g><g><g><g><path stroke="rgb(204, 51, 17)" stroke-width="2px" d="M104.80133928571428,311.84999971836805L118.76262436755952,301.12568665947765L132.72454990203371,294.1801834989871L146.698352921627,290.30210954775373L160.6715154885913,283.5773872200924L174.61131629588294,266.44155261793725L188.58214994419646,255.6572179807135L202.53772917534724,250.40065042377083L216.49587021701387,247.0696708786382L230.4445209151786,245.43236294112336L244.41616968501984,254.98371847728586L258.37885211805553,252.6465220809907L272.3275028162203,249.67352183817943L286.295599985119,232.17010226660048L300.2438431225198,197.44688662523356L314.2153172234623,173.8634033777702L328.16367680679565,158.53864604187257L342.1353837996032,147.05317669991382L356.11180685267857,153.26964036839968L370.0729754885913,173.77303648219902L384.03839440104167,190.1885207649006L398.01633125124005,215.36396556573192L411.99060005456346,229.2421318013554L425.95811499379965,229.62384095571994L439.93977811383934,217.34680768769934L453.92394482142856,209.53368418749983L467.8899459635417,205.20249119766862L481.8587418080357,202.24430750961793L495.8458196639385,196.6881705027423L509.82823968253973,204.74774354664075L523.8040805059524,209.0993540931252L537.7734003571428,227.26637676393239L551.7593719766865,238.24967988149783L565.7146018700397,244.75657097753432L579.6822914781746,249.9352523159534L593.6578994097222,252.43745480206906L607.6127799652778,254.1055947658974L621.5839047284226,262.01346395076484L635.547402282986,268.1530296203853L649.5195750595238,269.9180285833445L663.4777743241567,258.9989531490349L677.4504711073909,252.78691043871572L691.4306204303075,214.80184865342292L705.3961557886905,191.2858819464637L719.3438749193948,181.50081679122022L733.3049853323413,169.44476163846386L747.2865902294146,174.95246873197982L761.2555025198412,184.73537577351854L775.225753938492,180.06960232943524L789.19839249876,177.74388375214977L803.1476254265873,179.31640721758322L817.1170617237103,175.85025895475403L831.0762507787698,180.26680062318053L845.0459199677579,185.1966556436126L859.0080783940973,188.73939879693637L872.96878124628,207.51986579870726L886.9484647854662,226.83060360417528L900.9056742596724,237.44009660760167L914.879710171131,242.95685684132386L928.8274875248017,239.62346319823132L942.8090924218749,233.6027772454538L956.7628667410714,228.9745485322545L970.7264807415675,228.16204144578396L984.6990610788689,233.48811676514882L998.66634312624,238.19831773288692L1012.6488213678076,240.16471286206033L1026.6184323338296,237.041470644406L1040.5947971639384,237.95909496398662L1054.558061826637,238.31885827929906L1068.5567260528273,239.6030521354147L1082.5308784102183,232.12977554566075L1096.4908825868054,231.29233497480396L1110.465617173859,227.33234506904986L1124.4395948623512,226.48000699317402L1138.4050137748015,232.0521358253714L1152.3621650260416,235.69319497359734L1166.3449926054068,240.29176096208658L1180.316408483383,244.01476899437765L1194.27938203125,254.28671005757252L1208.2722239608136,260.84308020705936L1222.2431158320933,248.7983673598466L1236.2310670324903,240.65325728571995L1250.2142439496527,221.48511287877906L1264.1920643539186,207.48929162806243L1278.1666824950396,205.67129793158747L1292.1586510801092,203.602882876346L1306.1867179042658,222.40748105904427L1320.1675659027778,237.18699798858742L1334.1591269270832,247.8631524913107" style="fill: none;" fill="none"></path></g><g><path stroke="rgb(187, 187, 187)" stroke-width="2px" d="M104.80133928571428,307.6023224964738L106.20352298239087,243.67263719346374L107.61362500248015,221.36955862705196L108.91747010912697,211.28866765294774L110.1591913107639,196.72765595422467L111.43078089409724,186.95031787931947L112.71494663814484,180.69631662848522L113.90595563616073,178.47617266747906L115.10476651165673,182.7471208390416L116.30578985987103,108.07800867276079L117.54221277157738,64.76054084618136L118.9026506014385,40.77974686049074L120.20410856646825,25.062250939318233L121.52390676587301,15.245834186729752L122.91793924727182,100.0184746281791L124.33200042906746,153.8047084052883L125.76288804811509,189.48508487733156L126.99121796750991,214.752985135669L128.2881927641369,222.7132419953755L129.72606713913692,226.3093921955999L131.14065232762897,230.3132960448974L132.49072646949404,230.62959021901133L133.88732076140874,230.5897488462169L135.18342221354166,222.505157254201L136.5606282576885,207.3631246313039L137.99733817336312,197.10374168233204L139.3651703199405,176.8872304930359L140.65242188120038,166.39161892175517L141.88826256324404,164.7190824511592L143.1791239484127,171.61478906507213L144.54631564236112,176.94707067191408L145.96817870163693,186.97754650897326L147.31743772197422,193.3865744407901L148.6524321155754,191.89593514319648L149.97851839533732,192.7145272426445L151.24521724950398,204.54211196776453L152.45346024553572,207.2334253565703L153.72970766617064,211.67222028093087L155.0452555890377,218.25773353325184L156.39410704861112,222.4989466422679L157.8902626128472,222.221078023323L163.8705763702877,221.7819759515846L175.51441272569443,221.94486041478592L187.15947176339284,221.00837549915946L198.80441435515874,216.7079669074776L210.44865827132935,208.75995654036083L222.09249462673608,204.02450455510464L233.73784477926588,185.7563185287418L245.3824380332341,170.36217310365575L257.0284286383929,161.28335918381345L268.6715663182044,156.18919673794738L280.3168000248016,157.0119788124242L291.9605199342758,171.2868680163918L303.6052296341766,184.1443049910619L315.25133668526786,189.02945208567417L326.89464903397817,195.61484327327278L338.5391258420139,200.4935843611434L350.1838355419147,203.37544796852362L361.8281376810516,206.8751433729419L366.5524656101191,214.30450949903098L371.0871613380457,223.45201079747565L382.7322203757441,215.22467303694165L394.3763478459821,210.4291133905701L406.0208246540178,209.72230825574712L417.66652414434526,201.6341141805143L429.3101858308532,197.50145003468333L440.9548373077877,203.61811922353832L452.59948878472215,202.80703202701997L464.244431376488,202.06747872720595L475.88954863715287,207.07932254725955L487.5337925533234,206.73076391848483L499.1777453546627,207.4058674373183L510.8220474937996,210.230062353489L522.4674558692956,211.49247028105094L534.1123984610615,209.7304491619625L545.7566423772321,210.06489484431495L557.4000129489086,208.51414049221367L569.0455959933036,209.11578820081527L580.6898399094742,201.07297416884887L592.3355393998016,196.774771120305L603.9789681944444,191.43376087317176L615.6242019010417,189.5436639497835L627.2677471416171,186.21019547642223L638.9126315104166,192.02630663788887L650.5586221155754,193.76696234271867L662.2026913628473,198.98293772534097L673.8464694952877,201.708879036877L685.4909463033234,203.68308708856904L697.1357142261904,204.69302264327055L708.7808897098215,200.98436903640177L720.4251918489583,200.1631594400677L732.0688535354662,200.9496104896708L743.7143201339286,190.7867884505179L755.3587387189981,186.56173588445102L767.0050204389881,184.72037960058643L778.6480416728671,181.51851633170955L790.2928095957342,173.5220159946663L801.9377521875,174.75442353837386L813.5819378807043,176.10763645143925L825.2279284858631,173.30128762705098L836.8707750508433,179.68937436093668L848.5151354129465,189.30284602254503L860.1601944506449,191.30392374282997L871.8046130357143,184.4488197427149L883.4510112016369,182.34918243057464L895.0937413206846,181.63528386573154L906.7386839124504,173.27034468543624L918.3836265042163,175.03216821606216L930.0279868663196,183.63975173625502L941.6737445796131,186.82592529292796L953.3168240364583,183.1169226779693L964.9618248511906,186.94175037229977L976.6065927740575,189.2734889536197L988.2507202442956,189.34287333185048L999.8967690724206,192.84061009701833L1011.5396156374007,204.34418203244653L1023.1846164521328,211.58398612624435L1034.8288603683036,213.61994660071156L1046.4739776289682,212.3573308478094L1058.1194442274304,199.36990087570533L1069.7626401302084,192.24544232691397L1081.4078738368055,186.26589807036558L1093.0520595300097,184.86383819677258L1104.6964781150793,189.5285879379381L1116.3421193824404,201.37597482239423L1127.985664623016,206.08710625669488L1139.6305489918157,207.8696020060845L1151.2746182390872,134.2541689642708L1162.9194443849206,88.06160214951282L1174.5650274293155,61.75543844348575L1186.208863784722,46.02965276030535L1197.8542721602182,35.54623113028904L1209.4986325223215,104.62118896217765L1221.1431675533233,139.74468903763068L1232.7881101450891,158.32393108023987L1244.4318300545633,170.10645946391693L1256.0760739707341,177.65425062494438L1267.7207836706348,186.92614352892016L1279.3654933705357,206.34719324225293L1291.0116586445931,222.10727856227223L1302.6545052095735,229.1617595176009L1314.2992731324405,236.134769738919L1325.9436917175099,237.7627096302548L1337.5888089781747,228.3589165524983L1349.234100907738,217.97517988183162" style="fill: none;" fill="none"></path></g><g><path stroke="rgb(0, 153, 136)" stroke-width="2px" d="M104.80133928571428,275.64750427007675L109.34476845858136,250.24174688011408L113.88691672619046,242.66977815117158L118.60274410218256,223.22805682810792L123.30628643229166,213.3350665915517L127.89122858010914,205.79585145548322L132.42586608506943,195.58874788066635L137.05977374751984,189.23492589611402L141.7926022296627,184.47223905162448L146.42650989211307,179.30965192186568L151.13965901165676,179.7140107700914L156.03993674479165,171.60277420115807L160.69602735739088,171.46406540675252L165.3387849107143,173.45607386368923L169.93589565848214,181.74160932366365L174.65841867559524,182.9181050946998L179.3576525062004,195.526741813264L183.9460298090278,193.51841632926588L188.4629675322421,179.93411788482103L193.26205375,163.31728540195527L198.07115431795634,155.81685164967286L202.85783904389882,147.11310658091898L207.69558531125992,149.9102202848391L212.44331887276783,157.22250534888536L217.55197660218252,166.40753790666585L222.5427328249008,178.22154654243653L227.38525337549603,187.4013172713922L232.08221651041663,193.3475059265106L237.04706351314482,195.65919641758964L241.86780867435516,205.3946030211012L246.45304193700397,213.2621674525775L251.42557437127974,207.13892384839215L256.3168275446428,198.99863307032953L261.20051173239085,194.04127059295521L266.06474944940476,189.1947622533847L270.74564304563495,186.3527321424725L275.58373865079363,188.35485848274942L280.4723717906746,190.1708174086714L285.10948171626984,191.35764815696874L289.7659798896329,191.47806266734483L294.68127914806547,190.39590878274362L306.2828456299603,113.03401701891636L320.26043314236114,69.8691496798588L334.2341779389881,43.011986724801766L348.2064671614583,27.728012031079828L362.17433143849206,-43.16774114469091L382.72913455853177,-62.23284460681514L387.4523562512401,21.460591641010417L392.1444868799603,88.1109093709391L397.0427268092758,137.80013925344093L401.6290080853174,160.25795542308268L406.49604050471225,181.1890243954109L411.2037166654266,190.59471277396122L415.8457755431548,192.870172715189L420.5992149553571,193.7003569936765L425.3130045275298,197.87373742675894L430.03191772073416,194.46090830097248L434.9361546155754,194.8368497415164L439.6263638864088,205.21588164113652L444.68943303323414,198.4685034843843L449.4059590848214,101.5139106328815L454.04481569940475,43.520029509992945L458.6399468663194,8.259409168321708L463.31577506448406,-8.019133771086468L468.071892733135,-17.86648633755726L472.8511831423611,71.64391620947433L477.5869809957837,132.76251680847116L482.49022810019846,169.4955550861127L487.26462778025797,185.5651232499937L492.15937433159723,188.8652922689354L497.0996512425595,191.45749029990648L502.22659098338283,181.69463852332007L507.3976637326389,176.61130716375095L512.2999792695932,178.15293196422803L517.2309405059524,181.1052107547697L522.0255435553074,182.2817443212853L527.0667208668156,189.4407535791985L532.21502843626,195.19274604324053L537.1141417100695,188.42348213197917L542.0892359548611,183.68806190015155L546.839123766121,179.7882746858673L551.606944250992,175.97862155457L556.3900773759921,164.00573613178528L561.1659908531747,165.09641905982372L565.8311060255458,172.789022948498L570.6171502988591,179.0986848033395L575.4015061061508,181.65985609036247L580.2244637400793,194.93737114037012L585.0145253980654,198.18674784043392L589.8391132750495,201.14884746753552L594.8455896986607,199.49121587683783L599.6498577604167,200.76387322670234L604.6297262884425,209.4575653596283L609.3691339657738,206.8668214156366L613.9542507824901,204.5262929722152L618.8506275768849,202.0283202007104L623.5931210714286,193.96699398009116L628.2564895548115,185.44124782829363L632.9850677604167,184.99592020957996L637.6416823797124,188.03681754380062L642.2321557093254,185.55792967861652L646.7747115376984,188.1992311739073L651.8513466356646,196.00387388844166L656.6469394754464,200.74213425146863L661.2236139620536,199.91253778831557L665.7616866220237,206.99702838359116L670.5411517001488,210.4489244180789L675.4429432304067,215.5409995053929L680.2121610664683,222.6816291174127L685.0154393377976,220.16993511681758L689.9222380431547,206.6134107885659L694.5924186135913,202.09262678491473L699.1878408953372,197.22427509705662L703.7546174776786,193.36344250726964L716.914812766617,201.8046073954598L730.8898384685019,199.67087488420583L744.8844270870536,194.62818577914103L758.8490891009425,191.08011576550402L772.8081034871033,186.34105480323552L786.7909892894344,183.85887766248177L795.4075225136409,193.0300840638053L800.0646611396329,194.45791357171368L804.8665420597719,195.6187332237472L809.7154089136906,201.87420705346523L814.4992407142857,205.89813289277708L819.1779218377976,216.29916485090823L823.8966603621031,212.09563677275048L828.592167922867,207.54898276784337L833.4932025545635,203.08056802069137L838.364019466766,201.29306749412413L843.1554202529762,203.3856506342232L847.9409405195934,207.9717799183452L852.6875096217756,213.23579019050146L857.4784446242561,216.1741133793613L862.2429464000495,218.7266320386184L866.9849158878968,223.09311799995018L871.8109011160714,226.30619404787964L876.5828554315476,224.86553233906716L881.3333836954365,222.17211831834965L886.1629205245536,219.05142982737456L890.9897790972221,217.81103036365644L895.6712549231149,216.5414727542504L900.3169818477182,219.76292865358022L905.0123729625495,224.66323860217466L909.7626683345734,221.76091801958881L914.6223646602182,213.09692230127814L919.261337720734,210.71720103205777L924.0173971664186,207.73241224158727L929.0883846366567,206.55519920747832L933.7443588033235,200.54311477042052L938.4559359027777,205.02541958628186L943.1533065984623,202.79047915540986L947.8378682415673,188.21242588283334L952.5753545610119,179.99583252383297L957.4078607614088,179.14286167688982L962.1277637450397,176.5373551801909L966.9699349578373,175.58887860513147L971.6278304823909,177.3244522174383L976.2559158482144,179.11052587987095L981.2521450297618,176.0809825859136L986.0641567460317,170.8521124483148L990.7947727554564,160.17288510566948L995.4718236359126,146.02053776124714L1000.4856361532737,136.66884063923118L1005.4256801723709,134.9888365700469L1010.0585398214287,137.157732607998L1014.6547190017362,147.80646607999654L1019.3767180121528,177.3236956222335L1024.2206359139384,190.91794865271325L1029.1028063045635,199.9422017391972L1033.953827408234,214.48632628062083L1038.6470060503473,214.02086824380586L1043.560151059028,216.05467490078942L1048.622288638393,213.70178849531376L1053.4027435069445,201.70879294296003L1058.2279718365576,190.9178984750503L1063.0564606522817,186.74926954443416L1067.7011977864581,181.7255351181934L1072.4513767125495,177.64609034276663L1077.2123268874006,183.73925697455797L1082.057642140377,189.61324059754605L1086.9208900669644,191.37755727642772L1091.556835533234,190.405540394032L1096.2723135714286,188.1399105830455L1101.0203964707339,186.57701418658877L1105.895172544643,126.12163208640087L1110.679411906002,92.67953838537018L1115.3215290066967,70.85650228041337L1120.0263522420635,58.82030996428684L1124.8880281485613,51.21300664393159L1129.4941052331349,108.69053379802736L1134.393334952877,127.7547990805437L1139.4952970411707,144.41322838822185L1144.4111785292657,149.41922335361946L1149.167820204613,150.2421464236707L1153.886209391121,157.56828678322614L1158.5489956448414,168.18326955242625L1163.278097857143,167.60899081947605L1168.0689164136904,165.17410170508745L1172.7424156932045,167.60315880461528L1177.3376050830852,91.19067111780642L1182.0200706994049,45.25600327950953L1186.7421279327875,20.968198382271765L1191.5369638740078,6.258015968449957L1196.4439954712302,-0.8926853072356398L1201.2070998958334,80.88335544277956L1206.052531594742,126.69856871610719L1211.0055011123513,157.64426694778106L1215.8511074801588,159.93145779649913L1220.6865830518354,160.92030224728882L1225.3684082155257,164.51579194979846L1230.1156177703374,164.6019779546081L1234.9627379352678,167.07352982181425L1239.7557107415676,180.3034781349785L1244.3807102901787,185.55634561378284L1249.0549082452876,191.01937667845797L1253.747504657738,195.28716991137927L1258.4408579687502,201.35250984306018L1263.4585132018851,129.92636839553643L1268.3437694097222,86.49489264491157L1273.2106271602183,61.435814123171305L1278.2011504910713,46.32118562508684L1283.0556649727184,37.51803476601281L1287.778770219494,103.6332583367195L1292.503389263393,138.64492556687395L1297.1896393725199,157.8634774281752L1301.8860202777778,168.89738621676992L1306.7568954129465,167.2668031595053L1311.4337716245038,173.88830717455755L1316.2022907849703,170.7241739037717L1320.9881021664187,164.21389195937422L1325.8193856845237,162.39571951400345L1330.6022276946926,166.14565013987485L1335.2009104625495,166.91491391147773L1339.8892565984625,170.60938612154484L1344.5891308816965,179.61808571536162L1349.360095406746,185.4648953516413" style="fill: none;" fill="none"></path></g></g></g></g><g opacity="0.2"><g><g><g><path stroke="rgb(204, 51, 17)" stroke-width="2px" d="M104.80133928571428,311.84999971836805L118.76262436755952,294.6910988241434L132.72454990203371,287.51250046491623L146.698352921627,285.7414945811033L160.6715154885913,274.7975897490978L174.61131629588294,242.7365244626999L188.58214994419646,240.23544690012932L202.53772917534724,242.7365244626999L216.49587021701387,242.15712305903435L230.4445209151786,243.0011514723301L244.41616968501984,269.22412168979645L258.37885211805553,249.15344640612602L272.3275028162203,245.22372883558273L286.295599985119,205.94926393032074L300.2438431225198,145.40287899971008L314.2153172234623,138.50481140613556L328.16367680679565,135.5579949617386L342.1353837996032,129.8278888463974L356.11180685267857,162.5933888554573L370.0729754885913,204.5262565612793L384.03839440104167,214.8108469247818L398.01633125124005,253.12630435824394L411.99060005456346,250.05910715460777L425.95811499379965,230.19640016555786L439.93977811383934,198.93134504556656L453.92394482142856,197.81403225660324L467.8899459635417,198.70571279525757L481.8587418080357,197.8070365190506L495.8458196639385,188.3539701104164L509.82823968253973,216.83709865808487L523.8040805059524,215.6267684698105L537.7734003571428,254.51690715551376L551.7593719766865,254.72463324666023L565.7146018700397,254.51690715551376L579.6822914781746,257.7032741010189L593.6578994097222,256.1907584667206L607.6127799652778,256.60780468583107L621.5839047284226,273.87526765465736L635.547402282986,277.36237809062004L649.5195750595238,272.5655270218849L663.4777743241567,242.6203400194645L677.4504711073909,243.4688463807106L691.4306204303075,157.82425600290298L705.3961557886905,156.01193189620972L719.3438749193948,166.82321906089783L733.3049853323413,151.3606789112091L747.2865902294146,183.21402937173843L761.2555025198412,199.40973633527756L775.225753938492,173.0709421634674L789.19839249876,174.25530588626862L803.1476254265873,181.67519241571426L817.1170617237103,170.65103656053543L831.0762507787698,186.8916131258011L845.0459199677579,192.59143817424774L859.0080783940973,194.0535135269165L872.96878124628,235.69056630134583L886.9484647854662,255.79671031236649L900.9056742596724,253.35433611273766L914.879710171131,251.23199719190598L928.8274875248017,234.623372733593L942.8090924218749,224.571748316288L956.7628667410714,222.03220546245575L970.7264807415675,226.9432808160782L984.6990610788689,241.47722974419594L998.66634312624,245.26361918449402L1012.6488213678076,243.11430555582047L1026.6184323338296,232.3566073179245L1040.5947971639384,239.33553144335747L1054.558061826637,238.85850325226784L1068.5567260528273,241.5293429195881L1082.5308784102183,220.91986066102982L1096.4908825868054,230.03617411851883L1110.465617173859,221.3923602104187L1124.4395948623512,225.2014998793602L1138.4050137748015,240.41032907366753L1152.3621650260416,241.1547836959362L1166.3449926054068,247.1896099448204L1180.316408483383,249.59928104281425L1194.27938203125,269.69462165236473L1208.2722239608136,270.6776354312897L1222.2431158320933,230.7312980890274L1236.2310670324903,228.43559217453003L1250.2142439496527,192.73289626836777L1264.1920643539186,186.49555975198746L1278.1666824950396,202.94430738687515L1292.1586510801092,200.50026029348373L1306.1867179042658,250.61437833309174L1320.1675659027778,259.35627338290215L1334.1591269270832,263.87738424539566" style="fill: none;" fill="none"></path></g><g><path stroke="rgb(187, 187, 187)" stroke-width="2px" d="M104.80133928571428,307.6023224964738L106.20352298239087,205.31482601165771L107.61362500248015,199.95860320329666L108.91747010912697,199.43353986740112L110.1591913107639,177.71679908037186L111.43078089409724,173.42473948001862L112.71494663814484,171.7529947757721L113.90595563616073,175.23918145895004L115.10476651165673,189.04593980312347L116.30578985987103,-2.796920657157898L117.54221277157738,0.17722535133361816L118.9026506014385,4.939058303833008L120.20410856646825,1.5373274087905884L121.52390676587301,0.5404404401779175L122.91793924727182,227.07778823375702L124.33200042906746,234.44612485170364L125.76288804811509,242.99055084586143L126.99121796750991,252.64842000603676L128.2881927641369,234.65241461992264L129.72606713913692,231.70328879356384L131.14065232762897,236.31893223524094L132.49072646949404,231.1040210723877L133.88732076140874,230.52998757362366L135.18342221354166,210.3783656358719L136.5606282576885,184.65018332004547L137.99733817336312,181.71471101045609L139.3651703199405,146.562515437603L140.65242188120038,150.64821767807007L141.88826256324404,162.21027928590775L143.1791239484127,181.95834517478943L144.54631564236112,184.94549131393433L145.96817870163693,202.02325826883316L147.31743772197422,203.00011557340622L148.6524321155754,189.65997630357742L149.97851839533732,193.94241535663605L151.24521724950398,222.28348875045776L152.45346024553572,211.27039539813995L153.72970766617064,218.33041262626648L155.0452555890377,228.1360033750534L156.39410704861112,228.86076629161835L157.8902626128472,221.8042750954628L163.8705763702877,221.1233228445053L175.51441272569443,222.18918710947037L187.15947176339284,219.60364812612534L198.80441435515874,210.2573540210724L210.44865827132935,196.83794099092484L222.09249462673608,196.92132657766342L233.73784477926588,158.35403949022293L245.3824380332341,147.2709549665451L257.0284286383929,147.66513830423355L268.6715663182044,148.54795306921005L280.3168000248016,158.2461519241333L291.9605199342758,192.69920182228088L303.6052296341766,203.43046045303345L315.25133668526786,196.35717272758484L326.89464903397817,205.4929300546646L338.5391258420139,207.81169599294662L350.1838355419147,207.6982433795929L361.8281376810516,212.12468647956848L366.5524656101191,225.44855868816376L371.0871613380457,237.17326274514198L382.7322203757441,202.88366639614105L394.3763478459821,203.23577392101288L406.0208246540178,208.66210055351257L417.66652414434526,189.5018230676651L429.3101858308532,191.30245381593704L440.9548373077877,212.79312300682068L452.59948878472215,201.59040123224258L464.244431376488,200.9581487774849L475.88954863715287,214.59708827733994L487.5337925533234,206.20792597532272L499.1777453546627,208.41852271556854L510.8220474937996,214.46635472774506L522.4674558692956,213.3860821723938L534.1123984610615,207.08741748332977L545.7566423772321,210.56656336784363L557.4000129489086,206.18800896406174L569.0455959933036,210.01825976371765L580.6898399094742,189.0087531208992L592.3355393998016,190.32746654748917L603.9789681944444,183.42224550247192L615.6242019010417,186.70851856470108L627.2677471416171,181.2099927663803L638.9126315104166,200.7504733800888L650.5586221155754,196.37794589996338L662.2026913628473,206.80690079927444L673.8464694952877,205.7977910041809L685.4909463033234,206.64439916610718L697.1357142261904,206.20792597532272L708.7808897098215,195.42138862609863L720.4251918489583,198.93134504556656L732.0688535354662,202.12928706407547L743.7143201339286,175.54255539178848L755.3587387189981,180.2241570353508L767.0050204389881,181.95834517478943L778.6480416728671,176.71572142839432L790.2928095957342,161.5272654891014L801.9377521875,176.60303485393524L813.5819378807043,178.1374558210373L825.2279284858631,169.0917643904686L836.8707750508433,189.2715044617653L848.5151354129465,203.72305351495743L860.1601944506449,194.30554032325745L871.8046130357143,174.16616374254227L883.4510112016369,179.1997264623642L895.0937413206846,180.56443601846695L906.7386839124504,160.7229359149933L918.3836265042163,177.67490351200104L930.0279868663196,196.55112701654434L941.6737445796131,191.60518562793732L953.3168240364583,177.5534187555313L964.9618248511906,192.67899191379547L976.6065927740575,192.77109682559967L988.2507202442956,189.44694989919662L999.8967690724206,198.08721524477005L1011.5396156374007,221.59953993558884L1023.1846164521328,222.44369226694107L1034.8288603683036,216.67388731241226L1046.4739776289682,210.46340721845627L1058.1194442274304,179.88875591754913L1069.7626401302084,181.55875450372696L1081.4078738368055,177.29658168554306L1093.0520595300097,182.76074838638306L1104.6964781150793,196.52571254968643L1116.3421193824404,219.14705514907837L1127.985664623016,213.1538034081459L1139.6305489918157,210.54334563016891L1151.2746182390872,23.831019401550293L1162.9194443849206,18.772751927375793L1174.5650274293155,22.29619288444519L1186.208863784722,22.440974235534668L1197.8542721602182,19.821098685264587L1209.4986325223215,208.23362571001053L1221.1431675533233,192.42993915081024L1232.7881101450891,186.1927941441536L1244.4318300545633,187.78025203943253L1256.0760739707341,188.9759373664856L1267.7207836706348,200.83398288488388L1279.3654933705357,235.47876781225204L1291.0116586445931,245.74740654230118L1302.6545052095735,239.74348095059395L1314.2992731324405,246.59428507089615L1325.9436917175099,240.20461946725845L1337.5888089781747,214.2532269358635L1349.234100907738,202.3995748758316" style="fill: none;" fill="none"></path></g><g><path stroke="rgb(0, 153, 136)" stroke-width="2px" d="M104.80133928571428,275.64750427007675L109.34476845858136,234.99829244613647L113.88691672619046,235.40068817138672L118.60274410218256,200.36459255218506L123.30628643229166,200.41877853870392L127.89122858010914,195.36640280485153L132.42586608506943,180.9924264550209L137.05977374751984,179.97099244594574L141.7926022296627,177.4482010602951L146.42650989211307,171.64381170272827L151.13965901165676,180.31688153743744L156.03993674479165,159.480060338974L160.69602735739088,171.25645512342453L165.3387849107143,176.44018399715424L169.93589565848214,194.16017317771912L174.65841867559524,184.68201899528503L179.3576525062004,214.43436133861542L183.9460298090278,190.50643801689148L188.4629675322421,159.5597396492958L193.26205375,138.39355552196503L198.07115431795634,144.56661236286163L202.85783904389882,134.05777537822723L207.69558531125992,154.1058356165886L212.44331887276783,168.19084632396698L217.55197660218252,180.1850214600563L222.5427328249008,195.94250911474228L227.38525337549603,201.17094987630844L232.08221651041663,202.26677978038788L237.04706351314482,199.1267300248146L241.86780867435516,219.9977075457573L246.45304193700397,225.06351149082184L251.42557437127974,197.95405966043472L256.3168275446428,186.7881978750229L261.20051173239085,186.60522723197937L266.06474944940476,181.92499995231628L270.74564304563495,182.08968704938889L275.58373865079363,191.35804796218872L280.4723717906746,192.89475578069687L285.10948171626984,193.13789427280426L289.7659798896329,191.65868443250656L294.68127914806547,188.77267795801163L306.2828456299603,-3.0088205337524414L320.26043314236114,5.121848702430725L334.2341779389881,2.7262423038482666L348.2064671614583,4.802049994468689L362.17433143849206,-149.5113708972931L382.72913455853177,-67.97315454483032L387.4523562512401,147.000746011734L392.1444868799603,188.0863859653473L397.0427268092758,212.33398407697678L401.6290080853174,193.94467967748642L406.49604050471225,212.5856278538704L411.2037166654266,204.7032453417778L415.8457755431548,196.28336262702942L420.5992149553571,194.94563341140747L425.3130045275298,204.13380807638168L430.03191772073416,189.34166461229324L434.9361546155754,195.4007619023323L439.6263638864088,220.78442949056625L444.68943303323414,188.34743624925613L449.4059590848214,-43.91797864437103L468.071892733135,-32.63751518726349L472.8511831423611,205.90952003002167L477.5869809957837,224.4404177069664L482.49022810019846,224.59511250257492L487.26462778025797,209.66947549581528L492.15937433159723,193.81554579734802L497.0996512425595,195.34578734636307L502.22659098338283,167.0503608584404L507.3976637326389,168.98631012439728L512.2999792695932,180.4653691649437L517.2309405059524,185.53362894058228L522.0255435553074,184.04654467105865L527.0667208668156,200.17926746606827L532.21502843626,203.8207347393036L537.1141417100695,178.26958626508713L542.0892359548611,176.58493155241013L546.839123766121,173.93859386444092L551.606944250992,170.26414185762405L556.3900773759921,146.04640799760818L561.1659908531747,166.7324434518814L565.8311060255458,184.3279287815094L570.6171502988591,188.5631775856018L575.4015061061508,185.5016130208969L580.2244637400793,214.85364371538162L585.0145253980654,203.06081289052963L589.8391132750495,205.59199690818787L594.8455896986607,197.00476849079132L599.6498577604167,202.67285925149918L604.6297262884425,222.49810355901718L609.3691339657738,202.98070549964905L613.9542507824901,201.01550030708313L618.8506275768849,198.28136104345322L623.5931210714286,181.8750046491623L628.2564895548115,172.65262860059738L632.9850677604167,184.3279287815094L637.6416823797124,192.59816354513168L642.2321557093254,181.8395978808403L646.7747115376984,192.16118341684341L651.8513466356646,207.71083796024323L656.6469394754464,207.84952479600906L661.2236139620536,198.66814309358597L665.7616866220237,217.62376427650452L670.5411517001488,215.6267684698105L675.4429432304067,223.17911213636398L680.2121610664683,233.39257353544235L685.0154393377976,216.40239411592484L689.9222380431547,186.27862429618835L694.5924186135913,195.31145077943802L699.1878408953372,189.92174756526947L703.7546174776786,187.5721936225891L716.914812766617,214.46635472774506L730.8898384685019,196.47027611732483L744.8844270870536,187.06415212154388L758.8490891009425,185.75801074504852L772.8081034871033,179.23246335983276L786.7909892894344,180.13561195135117L795.4075225136409,206.78689366579056L800.0646611396329,196.5996578335762L804.8665420597719,197.35996270179749L809.7154089136906,211.2574177980423L814.4992407142857,211.93402165174484L819.1779218377976,231.900712788105L823.8966603621031,205.79034465551376L828.592167922867,200.7290017604828L833.4932025545635,196.37794589996338L838.364019466766,198.61181670427322L843.1554202529762,206.5245253443718L847.9409405195934,214.8509738445282L852.6875096217756,221.1318055987358L857.4784446242561,220.58159816265106L862.2429464000495,222.55541002750397L866.9849158878968,229.64284694194794L871.8109011160714,231.12580811977386L876.5828554315476,222.7045397758484L881.3333836954365,218.1319972872734L886.1629205245536,214.37039709091187L890.9897790972221,215.95043116807938L895.6712549231149,214.6371363401413L900.3169818477182,224.59511250257492L905.0123729625495,232.01370352506638L909.7626683345734,217.40743714571L914.6223646602182,200.1009287238121L919.261337720734,207.14761912822723L924.0173971664186,203.2552290558815L929.0883846366567,204.78937965631485L933.7443588033235,191.52498811483383L938.4559359027777,211.74887681007385L943.1533065984623,199.43806850910187L947.8378682415673,166.3453459739685L952.5753545610119,167.6709424853325L957.4078607614088,177.86340540647507L962.1277637450397,172.62909543514252L966.9699349578373,174.16616374254227L971.6278304823909,179.9278126358986L976.2559158482144,181.7896363735199L981.2521450297618,171.53666764497757L986.0641567460317,163.00880724191666L990.7947727554564,144.1540440917015L995.4718236359126,124.79201674461365L1000.4856361532737,122.64129495620728L1005.4256801723709,132.46883046627045L1010.0585398214287,140.41107666492462L1014.6547190017362,163.77956628799438L1019.3767180121528,221.59953993558884L1024.2206359139384,211.30932819843292L1029.1028063045635,213.4785813689232L1033.953827408234,236.30251309275627L1038.6470060503473,213.32268118858337L1043.560151059028,219.1053848862648L1048.622288638393,210.17245888710022L1053.4027435069445,183.71929961442947L1058.2279718365576,174.73155677318573L1063.0564606522817,180.49632614850998L1067.7011977864581,174.18993347883224L1072.4513767125495,171.52692317962646L1077.2123268874006,192.87900692224503L1082.057642140377,198.4242160320282L1086.9208900669644,194.0240322947502L1091.556835533234,188.94751507043839L1096.2723135714286,184.7414658665657L1101.0203964707339,184.2326695919037L1105.895172544643,35.43855893611908L1110.679411906002,42.51639783382416L1115.3215290066967,38.12194812297821L1120.0263522420635,40.766021490097046L1124.8880281485613,39.80205166339874L1129.4941052331349,194.906824529171L1134.393334952877,156.35119700431824L1139.4952970411707,169.40087234973907L1144.4111785292657,156.92821580171585L1149.167820204613,151.47653102874756L1153.886209391121,168.55749732255936L1158.5489956448414,184.10574370622635L1163.278097857143,166.7475727200508L1168.0689164136904,161.5217680335045L1172.7424156932045,171.246744453907L1177.3376050830852,-23.42806041240692L1196.4439954712302,-11.61873722076416L1201.2070998958334,203.54741656780243L1206.052531594742,195.42138862609863L1211.0055011123513,204.0628142952919L1215.8511074801588,163.36224406957626L1220.6865830518354,162.40356892347336L1225.3684082155257,169.90902650356293L1230.1156177703374,164.7312569618225L1234.9627379352678,170.78085762262344L1239.7557107415676,200.14840060472488L1244.3807102901787,193.4356468319893L1249.0549082452876,199.21392327547073L1253.747504657738,201.68885976076126L1258.4408579687502,210.4505197405815L1263.4585132018851,22.787156224250793L1268.3437694097222,21.347679018974304L1273.2106271602183,23.847196340560913L1278.2011504910713,23.649242877960205L1283.0556649727184,24.313308477401733L1287.778770219494,202.80609369277954L1292.503389263393,191.16242641210556L1297.1896393725199,186.6913052201271L1301.8860202777778,185.44824939966202L1306.7568954129465,164.8209285736084L1311.4337716245038,183.82056319713593L1316.2022907849703,165.97797399759293L1320.9881021664187,154.44846904277802L1325.8193856845237,159.66846084594727L1330.6022276946926,171.77054607868195L1335.2009104625495,168.068809568882L1339.8892565984625,176.1510944366455L1344.5891308816965,193.13113510608673L1349.360095406746,194.2351098060608" style="fill: none;" fill="none"></path></g></g></g></g></g><g><g opacity="0.214748"><span fill="rgb(0, 0, 0)" stroke="none" stroke-width="1px">Alt + Scroll to Zoom</span></g></g></g><g transform="translate(30, 378)" clip-path="url(#clip_1)"><clipPath id="clip_1"><rect width="1467" height="22"></rect></clipPath><g><g><line x1="0" y1="0" x2="0" y2="5" style="visibility: inherit;" fill="rgb(0, 0, 0)" stroke="rgb(204, 204, 204)" stroke-width="1px"></line><line x1="104.80133928571428" y1="0" x2="104.80133928571428" y2="5" style="visibility: inherit;" fill="rgb(0, 0, 0)" stroke="rgb(204, 204, 204)" stroke-width="1px"></line><line x1="209.60267857142856" y1="0" x2="209.60267857142856" y2="5" style="visibility: inherit;" fill="rgb(0, 0, 0)" stroke="rgb(204, 204, 204)" stroke-width="1px"></line><line x1="314.40401785714283" y1="0" x2="314.40401785714283" y2="5" style="visibility: inherit;" fill="rgb(0, 0, 0)" stroke="rgb(204, 204, 204)" stroke-width="1px"></line><line x1="419.2053571428571" y1="0" x2="419.2053571428571" y2="5" style="visibility: inherit;" fill="rgb(0, 0, 0)" stroke="rgb(204, 204, 204)" stroke-width="1px"></line><line x1="524.0066964285714" y1="0" x2="524.0066964285714" y2="5" style="visibility: inherit;" fill="rgb(0, 0, 0)" stroke="rgb(204, 204, 204)" stroke-width="1px"></line><line x1="628.8080357142857" y1="0" x2="628.8080357142857" y2="5" style="visibility: inherit;" fill="rgb(0, 0, 0)" stroke="rgb(204, 204, 204)" stroke-width="1px"></line><line x1="733.609375" y1="0" x2="733.609375" y2="5" style="visibility: inherit;" fill="rgb(0, 0, 0)" stroke="rgb(204, 204, 204)" stroke-width="1px"></line><line x1="838.4107142857142" y1="0" x2="838.4107142857142" y2="5" style="visibility: inherit;" fill="rgb(0, 0, 0)" stroke="rgb(204, 204, 204)" stroke-width="1px"></line><line x1="943.2120535714287" y1="0" x2="943.2120535714287" y2="5" style="visibility: inherit;" fill="rgb(0, 0, 0)" stroke="rgb(204, 204, 204)" stroke-width="1px"></line><line x1="1048.013392857143" y1="0" x2="1048.013392857143" y2="5" style="visibility: inherit;" fill="rgb(0, 0, 0)" stroke="rgb(204, 204, 204)" stroke-width="1px"></line><line x1="1152.814732142857" y1="0" x2="1152.814732142857" y2="5" style="visibility: inherit;" fill="rgb(0, 0, 0)" stroke="rgb(204, 204, 204)" stroke-width="1px"></line><line x1="1257.6160714285713" y1="0" x2="1257.6160714285713" y2="5" style="visibility: inherit;" fill="rgb(0, 0, 0)" stroke="rgb(204, 204, 204)" stroke-width="1px"></line><line x1="1362.4174107142858" y1="0" x2="1362.4174107142858" y2="5" style="visibility: inherit;" fill="rgb(0, 0, 0)" stroke="rgb(204, 204, 204)" stroke-width="1px"></line><line x1="1467.21875" y1="0" x2="1467.21875" y2="5" style="visibility: inherit;" fill="rgb(0, 0, 0)" stroke="rgb(204, 204, 204)" stroke-width="1px"></line></g><g transform="translate(0, 8)"><text x="0" y="0" dx="0em" dy="0.95em" style="text-anchor: middle; visibility: hidden; font-family: Roboto, sans-serif; font-size: 12px; font-weight: 200;" fill="rgb(50, 49, 63)" stroke="none" stroke-width="1px">-0.5</text><text x="104.80133928571428" y="0" dx="0em" dy="0.95em" style="text-anchor: middle; visibility: inherit; font-family: Roboto, sans-serif; font-size: 12px; font-weight: 200;" fill="rgb(50, 49, 63)" stroke="none" stroke-width="1px">0</text><text x="209.60267857142856" y="0" dx="0em" dy="0.95em" style="text-anchor: middle; visibility: inherit; font-family: Roboto, sans-serif; font-size: 12px; font-weight: 200;" fill="rgb(50, 49, 63)" stroke="none" stroke-width="1px">0.5</text><text x="314.40401785714283" y="0" dx="0em" dy="0.95em" style="text-anchor: middle; visibility: inherit; font-family: Roboto, sans-serif; font-size: 12px; font-weight: 200;" fill="rgb(50, 49, 63)" stroke="none" stroke-width="1px">1</text><text x="419.2053571428571" y="0" dx="0em" dy="0.95em" style="text-anchor: middle; visibility: inherit; font-family: Roboto, sans-serif; font-size: 12px; font-weight: 200;" fill="rgb(50, 49, 63)" stroke="none" stroke-width="1px">1.5</text><text x="524.0066964285714" y="0" dx="0em" dy="0.95em" style="text-anchor: middle; visibility: inherit; font-family: Roboto, sans-serif; font-size: 12px; font-weight: 200;" fill="rgb(50, 49, 63)" stroke="none" stroke-width="1px">2</text><text x="628.8080357142857" y="0" dx="0em" dy="0.95em" style="text-anchor: middle; visibility: inherit; font-family: Roboto, sans-serif; font-size: 12px; font-weight: 200;" fill="rgb(50, 49, 63)" stroke="none" stroke-width="1px">2.5</text><text x="733.609375" y="0" dx="0em" dy="0.95em" style="text-anchor: middle; visibility: inherit; font-family: Roboto, sans-serif; font-size: 12px; font-weight: 200;" fill="rgb(50, 49, 63)" stroke="none" stroke-width="1px">3</text><text x="838.4107142857142" y="0" dx="0em" dy="0.95em" style="text-anchor: middle; visibility: inherit; font-family: Roboto, sans-serif; font-size: 12px; font-weight: 200;" fill="rgb(50, 49, 63)" stroke="none" stroke-width="1px">3.5</text><text x="943.2120535714287" y="0" dx="0em" dy="0.95em" style="text-anchor: middle; visibility: inherit; font-family: Roboto, sans-serif; font-size: 12px; font-weight: 200;" fill="rgb(50, 49, 63)" stroke="none" stroke-width="1px">4</text><text x="1048.013392857143" y="0" dx="0em" dy="0.95em" style="text-anchor: middle; visibility: inherit; font-family: Roboto, sans-serif; font-size: 12px; font-weight: 200;" fill="rgb(50, 49, 63)" stroke="none" stroke-width="1px">4.5</text><text x="1152.814732142857" y="0" dx="0em" dy="0.95em" style="text-anchor: middle; visibility: inherit; font-family: Roboto, sans-serif; font-size: 12px; font-weight: 200;" fill="rgb(50, 49, 63)" stroke="none" stroke-width="1px">5</text><text x="1257.6160714285713" y="0" dx="0em" dy="0.95em" style="text-anchor: middle; visibility: inherit; font-family: Roboto, sans-serif; font-size: 12px; font-weight: 200;" fill="rgb(50, 49, 63)" stroke="none" stroke-width="1px">5.5</text><text x="1362.4174107142858" y="0" dx="0em" dy="0.95em" style="text-anchor: middle; visibility: inherit; font-family: Roboto, sans-serif; font-size: 12px; font-weight: 200;" fill="rgb(50, 49, 63)" stroke="none" stroke-width="1px">6</text><text x="1467.21875" y="0" dx="0em" dy="0.95em" style="text-anchor: middle; visibility: hidden; font-family: Roboto, sans-serif; font-size: 12px; font-weight: 200;" fill="rgb(50, 49, 63)" stroke="none" stroke-width="1px">6.5</text></g><line x1="0" y1="0" x2="1467.21875" y2="0" fill="rgb(0, 0, 0)" stroke="rgb(204, 204, 204)" stroke-width="1px"></line></g></g></g></g></svg>